M48
; DRILL file {KiCad 9.0.2} date 2025-06-05T16:59:55+0200
; FORMAT={-:-/ absolute / metric / decimal}
; #@! TF.CreationDate,2025-06-05T16:59:55+02:00
; #@! TF.GenerationSoftware,Kicad,Pcbnew,9.0.2
; #@! TF.FileFunction,Plated,1,2,PTH
FMAT,2
METRIC
; #@! TA.AperFunction,Plated,PTH,ViaDrill
T1C0.400
; #@! TA.AperFunction,Plated,PTH,ComponentDrill
T2C0.800
; #@! TA.AperFunction,Plated,PTH,ComponentDrill
T3C0.900
; #@! TA.AperFunction,Plated,PTH,ComponentDrill
T4C1.000
; #@! TA.AperFunction,Plated,PTH,ComponentDrill
T5C1.540
; #@! TA.AperFunction,Plated,PTH,ComponentDrill
T6C3.200
%
G90
G05
T1
X65.614Y-102.376
X65.614Y-196.356
X65.614Y-198.896
X65.614Y-201.436
X65.614Y-203.976
X65.614Y-206.516
X65.614Y-209.056
X65.614Y-211.596
X65.614Y-214.136
X65.614Y-216.676
X65.614Y-219.216
X65.614Y-221.756
X65.614Y-224.296
X65.614Y-226.836
X65.614Y-229.376
X65.614Y-231.916
X65.614Y-234.456
X68.154Y-97.296
X68.154Y-107.456
X68.154Y-109.996
X68.154Y-112.536
X68.154Y-117.616
X68.154Y-120.156
X68.154Y-127.776
X68.154Y-130.316
X68.154Y-132.856
X68.154Y-135.396
X68.154Y-137.936
X68.154Y-148.096
X68.154Y-150.636
X68.154Y-168.416
X68.154Y-170.956
X68.154Y-178.576
X68.154Y-181.116
X68.154Y-188.736
X68.154Y-191.276
X68.154Y-193.816
X68.154Y-198.896
X68.154Y-201.436
X68.154Y-209.056
X68.154Y-211.596
X68.154Y-214.136
X68.154Y-216.676
X68.154Y-219.216
X68.154Y-221.756
X68.154Y-224.296
X68.154Y-226.836
X68.154Y-229.376
X68.154Y-231.916
X68.154Y-234.456
X68.154Y-236.996
X68.373Y-153.099
X70.694Y-97.296
X70.694Y-107.456
X70.694Y-109.996
X70.694Y-112.536
X70.694Y-120.156
X70.694Y-127.776
X70.694Y-130.316
X70.694Y-132.856
X70.694Y-135.396
X70.694Y-137.936
X70.694Y-148.096
X70.694Y-150.636
X70.694Y-155.716
X70.694Y-158.256
X70.694Y-160.796
X70.694Y-168.416
X70.694Y-170.956
X70.694Y-173.496
X70.694Y-191.276
X70.694Y-193.816
X70.694Y-196.356
X70.694Y-201.436
X70.694Y-203.976
X70.694Y-206.516
X70.694Y-209.056
X70.694Y-211.596
X70.694Y-214.136
X73.234Y-97.296
X73.234Y-99.836
X73.234Y-102.376
X73.234Y-109.996
X73.234Y-112.536
X73.234Y-120.156
X73.234Y-130.316
X73.234Y-132.856
X73.234Y-135.396
X73.234Y-137.936
X73.234Y-143.016
X73.234Y-150.636
X73.234Y-155.716
X73.234Y-158.256
X73.234Y-160.796
X73.234Y-170.956
X73.234Y-173.496
X73.234Y-176.036
X73.234Y-188.736
X73.234Y-193.816
X73.234Y-196.356
X73.234Y-198.896
X73.234Y-209.056
X73.234Y-219.216
X73.234Y-221.756
X73.234Y-224.296
X73.234Y-226.836
X73.234Y-229.376
X73.234Y-231.916
X74.086Y-141.245
X74.363Y-122.796
X75.774Y-97.296
X75.774Y-109.996
X75.774Y-112.536
X75.774Y-130.316
X75.774Y-132.856
X75.774Y-135.396
X75.774Y-137.936
X75.774Y-150.636
X75.774Y-155.716
X75.774Y-158.256
X75.774Y-170.956
X75.774Y-173.496
X75.774Y-176.036
X75.774Y-178.576
X75.774Y-188.736
X75.774Y-191.276
X75.774Y-193.816
X75.774Y-196.356
X75.774Y-198.896
X75.774Y-201.436
X75.774Y-216.676
X75.774Y-219.216
X75.774Y-221.756
X75.774Y-224.296
X75.774Y-226.836
X75.774Y-229.376
X75.774Y-231.916
X78.314Y-97.296
X78.314Y-107.456
X78.314Y-109.996
X78.314Y-112.536
X78.314Y-115.076
X78.314Y-127.776
X78.314Y-130.316
X78.314Y-132.856
X78.314Y-135.396
X78.314Y-137.936
X78.314Y-143.016
X78.314Y-148.096
X78.314Y-150.636
X78.314Y-155.716
X78.314Y-158.256
X78.314Y-163.336
X78.314Y-168.416
X78.314Y-170.956
X78.314Y-173.496
X78.314Y-176.036
X78.314Y-178.576
X78.314Y-196.356
X78.314Y-198.896
X78.314Y-201.436
X78.314Y-203.976
X78.314Y-214.136
X78.314Y-216.676
X78.314Y-219.216
X78.314Y-221.756
X78.314Y-224.296
X78.314Y-226.836
X78.314Y-229.376
X78.314Y-231.916
X79.184Y-192.79
X80.854Y-97.296
X80.854Y-107.456
X80.854Y-109.996
X80.854Y-112.536
X80.854Y-127.776
X80.854Y-132.856
X80.854Y-143.016
X80.854Y-148.096
X80.854Y-150.636
X80.854Y-163.336
X80.854Y-168.416
X80.854Y-170.956
X80.854Y-183.656
X80.854Y-188.736
X80.854Y-191.276
X80.854Y-214.136
X80.854Y-216.676
X80.854Y-219.216
X80.854Y-221.756
X80.854Y-224.296
X80.854Y-226.836
X80.854Y-229.376
X80.854Y-231.916
X82.565Y-175.843
X83.309Y-144.209
X83.394Y-97.296
X83.394Y-99.836
X83.394Y-102.376
X83.394Y-107.456
X83.394Y-109.996
X83.394Y-112.536
X83.394Y-120.156
X83.394Y-125.236
X83.394Y-127.776
X83.394Y-130.316
X83.394Y-132.856
X83.394Y-135.396
X83.394Y-140.476
X83.394Y-214.136
X83.394Y-216.676
X83.394Y-219.216
X83.394Y-221.756
X83.394Y-224.296
X83.394Y-226.836
X83.394Y-229.376
X83.394Y-231.916
X84.382Y-177.035
X84.699Y-175.414
X85.934Y-97.296
X85.934Y-104.916
X85.934Y-107.456
X85.934Y-109.996
X85.934Y-112.536
X85.934Y-206.516
X85.934Y-214.136
X85.934Y-216.676
X85.934Y-219.216
X85.934Y-221.756
X85.934Y-224.296
X85.934Y-226.836
X85.934Y-229.376
X86.997Y-190.716
X87.05Y-120.502
X87.067Y-144.979
X88.474Y-97.296
X88.474Y-99.836
X88.474Y-107.456
X88.474Y-109.996
X88.474Y-112.536
X88.474Y-117.616
X88.474Y-127.776
X88.474Y-130.316
X88.474Y-132.856
X88.474Y-148.096
X88.474Y-150.636
X88.474Y-188.736
X88.474Y-191.276
X88.474Y-193.816
X88.474Y-196.356
X88.474Y-198.896
X88.474Y-201.436
X88.474Y-203.976
X88.474Y-209.056
X88.474Y-214.136
X88.474Y-216.676
X88.474Y-219.216
X88.474Y-221.756
X88.474Y-224.296
X88.474Y-226.836
X90.251Y-237.055
X91.014Y-97.296
X91.014Y-99.836
X91.014Y-107.456
X91.014Y-109.996
X91.014Y-112.536
X91.014Y-115.076
X91.014Y-117.616
X91.014Y-120.156
X91.014Y-127.776
X91.014Y-130.316
X91.014Y-132.856
X91.014Y-135.396
X91.014Y-140.476
X91.014Y-148.096
X91.014Y-150.636
X91.014Y-155.716
X91.014Y-160.796
X91.014Y-168.416
X91.014Y-170.956
X91.014Y-173.496
X91.014Y-176.036
X91.014Y-188.736
X91.014Y-191.276
X91.014Y-193.816
X91.014Y-196.356
X91.014Y-198.896
X91.014Y-201.436
X91.014Y-203.976
X91.014Y-206.516
X91.014Y-214.136
X91.014Y-216.676
X91.014Y-219.216
X91.014Y-221.756
X91.014Y-224.296
X92.37Y-132.356
X92.37Y-173.842
X93.554Y-97.296
X93.554Y-99.836
X93.554Y-102.376
X93.554Y-109.996
X93.554Y-112.536
X93.554Y-115.076
X93.554Y-117.616
X93.554Y-120.156
X93.554Y-122.696
X93.554Y-130.316
X93.554Y-135.396
X93.554Y-137.936
X93.554Y-140.476
X93.554Y-143.016
X93.554Y-158.256
X93.554Y-160.796
X93.554Y-170.956
X93.554Y-176.036
X93.554Y-178.576
X93.554Y-181.116
X93.554Y-188.736
X93.554Y-191.276
X93.554Y-193.816
X93.554Y-196.356
X93.554Y-198.896
X93.554Y-201.436
X93.554Y-203.976
X93.554Y-206.516
X93.554Y-214.136
X93.554Y-216.676
X93.554Y-219.216
X93.554Y-221.756
X95.234Y-237.866
X95.369Y-150.135
X95.369Y-224.218
X96.094Y-97.296
X96.094Y-109.996
X96.094Y-112.536
X96.094Y-115.076
X96.094Y-130.316
X96.094Y-135.396
X96.094Y-155.716
X96.094Y-168.416
X96.094Y-170.956
X96.094Y-178.576
X96.094Y-188.736
X96.094Y-191.276
X96.094Y-193.816
X96.094Y-196.356
X96.094Y-198.896
X96.094Y-201.436
X96.094Y-203.976
X97.313Y-164.439
X98.634Y-97.296
X98.634Y-117.616
X98.634Y-127.776
X98.634Y-130.316
X98.634Y-137.936
X98.634Y-143.016
X98.634Y-178.576
X98.634Y-183.656
X98.634Y-188.736
X98.634Y-191.276
X98.634Y-193.816
X98.634Y-196.356
X98.634Y-198.896
X98.634Y-201.436
X98.634Y-209.056
X98.634Y-216.676
X98.634Y-219.216
X98.634Y-221.756
X98.634Y-226.836
X99.227Y-213.126
X101.174Y-97.296
X101.174Y-107.456
X101.174Y-109.996
X101.174Y-112.536
X101.174Y-122.696
X101.174Y-127.776
X101.174Y-130.316
X101.174Y-143.016
X101.174Y-153.176
X101.174Y-183.656
X101.174Y-188.736
X101.174Y-191.276
X101.174Y-193.816
X101.174Y-196.356
X101.174Y-198.896
X101.174Y-206.516
X101.174Y-216.676
X101.174Y-219.216
X101.174Y-221.756
X101.174Y-226.836
X101.174Y-231.916
X101.967Y-202.795
X102.188Y-138.635
X103.714Y-97.296
X103.714Y-99.836
X103.714Y-102.376
X103.714Y-109.996
X103.714Y-112.536
X103.714Y-120.156
X103.714Y-122.696
X103.714Y-125.236
X103.714Y-127.776
X103.714Y-130.316
X103.714Y-140.476
X103.714Y-143.016
X103.714Y-145.556
X103.714Y-148.096
X103.714Y-153.176
X103.714Y-155.716
X103.714Y-160.796
X103.714Y-163.336
X103.714Y-165.876
X103.714Y-168.416
X103.714Y-170.956
X103.714Y-216.676
X103.714Y-219.216
X103.714Y-221.756
X103.714Y-226.836
X103.714Y-231.916
X105.296Y-114.576
X105.626Y-173.842
X106.254Y-97.296
X106.254Y-107.456
X106.254Y-109.996
X106.254Y-112.536
X106.254Y-117.616
X106.254Y-120.156
X106.254Y-122.696
X106.254Y-125.236
X106.254Y-127.776
X106.254Y-130.316
X106.254Y-160.796
X106.254Y-163.336
X106.254Y-165.876
X106.254Y-168.416
X106.254Y-178.576
X106.254Y-181.116
X106.254Y-183.656
X106.254Y-191.276
X106.254Y-193.816
X106.254Y-198.896
X106.254Y-216.676
X106.254Y-219.216
X106.254Y-221.756
X106.254Y-226.836
X106.254Y-231.916
X107.367Y-237.158
X108.794Y-97.296
X108.794Y-104.916
X108.794Y-107.456
X108.794Y-109.996
X108.794Y-112.536
X108.794Y-117.616
X108.794Y-120.156
X108.794Y-122.696
X108.794Y-125.236
X108.794Y-127.776
X108.794Y-130.316
X108.794Y-137.936
X108.794Y-140.476
X108.794Y-143.016
X108.794Y-145.556
X108.794Y-148.096
X108.794Y-160.796
X108.794Y-163.336
X108.794Y-165.876
X108.794Y-168.416
X108.794Y-178.576
X108.794Y-181.116
X108.794Y-183.656
X108.794Y-216.676
X108.794Y-219.216
X108.794Y-221.756
X108.794Y-226.836
X108.794Y-231.916
X109.677Y-132.356
X110.367Y-149.813
X110.367Y-238.666
X111.334Y-97.296
X111.334Y-109.996
X111.334Y-112.536
X111.334Y-115.076
X111.334Y-117.616
X111.334Y-120.156
X111.334Y-122.696
X111.334Y-125.236
X111.334Y-127.776
X111.334Y-135.396
X111.334Y-137.936
X111.334Y-140.476
X111.334Y-143.016
X111.334Y-145.556
X111.334Y-148.096
X111.334Y-160.796
X111.334Y-163.336
X111.334Y-165.876
X111.334Y-176.036
X111.334Y-178.576
X111.334Y-181.116
X111.334Y-183.656
X111.334Y-186.196
X111.334Y-216.676
X111.334Y-219.216
X111.334Y-221.756
X111.334Y-226.836
X111.334Y-231.916
X113.366Y-120.502
X113.434Y-189.657
X113.874Y-97.296
X113.874Y-99.836
X113.874Y-102.376
X113.874Y-104.916
X113.874Y-107.456
X113.874Y-109.996
X113.874Y-122.696
X113.874Y-125.236
X113.874Y-127.776
X113.874Y-137.936
X113.874Y-140.476
X113.874Y-143.016
X113.874Y-145.556
X113.874Y-155.716
X113.874Y-160.796
X113.874Y-163.336
X113.874Y-168.416
X113.874Y-170.956
X113.874Y-178.576
X113.874Y-181.116
X113.874Y-183.656
X113.874Y-196.356
X113.874Y-198.896
X113.874Y-206.516
X113.874Y-216.676
X113.874Y-219.216
X113.874Y-221.756
X113.874Y-229.376
X113.874Y-231.916
X114.184Y-186.816
X116.158Y-199.416
X116.414Y-97.296
X116.414Y-99.836
X116.414Y-102.376
X116.414Y-104.916
X116.414Y-107.456
X116.414Y-109.996
X116.414Y-117.616
X116.414Y-122.696
X116.414Y-125.236
X116.414Y-127.776
X116.414Y-137.936
X116.414Y-140.476
X116.414Y-143.016
X116.414Y-148.096
X116.414Y-150.636
X116.414Y-160.796
X116.414Y-163.336
X116.414Y-168.416
X116.414Y-178.576
X116.414Y-181.116
X116.414Y-183.656
X116.414Y-206.516
X116.414Y-209.056
X116.414Y-216.676
X116.414Y-219.216
X116.414Y-221.756
X116.414Y-226.836
X116.414Y-229.376
X116.414Y-231.916
X118.954Y-97.296
X118.954Y-99.836
X118.954Y-102.376
X118.954Y-104.916
X118.954Y-107.456
X118.954Y-109.996
X118.954Y-112.536
X118.954Y-122.696
X118.954Y-125.236
X118.954Y-127.776
X118.954Y-140.476
X118.954Y-143.016
X118.954Y-145.556
X118.954Y-148.096
X118.954Y-153.176
X118.954Y-160.796
X118.954Y-163.336
X118.954Y-178.576
X118.954Y-181.116
X118.954Y-191.276
X118.954Y-198.896
X118.954Y-216.676
X118.954Y-219.216
X118.954Y-226.836
X119.365Y-173.538
X119.365Y-200.511
X119.385Y-182.732
X120.2Y-185.457
X121.494Y-97.296
X121.494Y-99.836
X121.494Y-102.376
X121.494Y-104.916
X121.494Y-107.456
X121.494Y-112.536
X121.494Y-122.696
X121.494Y-125.236
X121.494Y-127.776
X121.494Y-135.396
X121.494Y-137.936
X121.494Y-140.476
X121.494Y-143.016
X121.494Y-153.176
X121.494Y-160.796
X121.494Y-163.336
X121.494Y-168.416
X121.494Y-176.036
X121.494Y-178.576
X121.494Y-181.116
X121.494Y-183.656
X121.494Y-188.736
X121.494Y-191.276
X121.494Y-198.896
X121.494Y-206.516
X121.494Y-209.056
X121.494Y-216.676
X121.494Y-221.756
X124.034Y-97.296
X124.034Y-99.836
X124.034Y-102.376
X124.034Y-104.916
X124.034Y-107.456
X124.034Y-117.616
X124.034Y-122.696
X124.034Y-137.936
X124.034Y-140.476
X124.034Y-143.016
X124.034Y-148.096
X124.034Y-153.176
X124.034Y-155.716
X124.034Y-160.796
X124.034Y-163.336
X124.034Y-168.416
X124.034Y-170.956
X124.034Y-176.036
X124.034Y-178.576
X124.034Y-181.116
X124.034Y-183.656
X124.034Y-206.516
X124.034Y-209.056
X124.034Y-219.216
X124.034Y-221.756
X125.439Y-224.293
X126.574Y-97.296
X126.574Y-99.836
X126.574Y-102.376
X126.574Y-112.536
X126.574Y-117.616
X126.574Y-122.696
X126.574Y-127.776
X126.574Y-130.316
X126.574Y-135.396
X126.574Y-137.936
X126.574Y-140.476
X126.574Y-143.016
X126.574Y-148.096
X126.574Y-150.636
X126.574Y-153.176
X126.574Y-155.716
X126.574Y-160.796
X126.574Y-170.956
X126.574Y-176.036
X126.574Y-178.576
X126.574Y-181.116
X126.574Y-193.816
X126.574Y-206.516
X126.574Y-209.056
X126.574Y-216.676
X126.574Y-219.216
X126.574Y-231.916
X127.129Y-164.477
X128.363Y-181.916
X128.734Y-232.866
X129.114Y-97.296
X129.114Y-99.836
X129.114Y-102.376
X129.114Y-107.456
X129.114Y-109.996
X129.114Y-112.536
X129.114Y-115.076
X129.114Y-117.616
X129.114Y-122.696
X129.114Y-127.776
X129.114Y-130.316
X129.114Y-135.396
X129.114Y-137.936
X129.114Y-140.476
X129.114Y-148.096
X129.114Y-150.636
X129.114Y-153.176
X129.114Y-155.716
X129.114Y-160.796
X129.114Y-163.336
X129.114Y-176.036
X129.114Y-178.576
X129.114Y-193.816
X129.114Y-198.896
X129.114Y-206.516
X129.114Y-209.056
X129.609Y-143.493
X130.827Y-208.181
X131.25Y-210.625
X131.434Y-238.766
X131.654Y-97.296
X131.654Y-99.836
X131.654Y-102.376
X131.654Y-148.096
X131.654Y-150.636
X131.654Y-153.176
X131.654Y-155.716
X131.654Y-160.796
X132.366Y-130.377
X133.538Y-201.327
X134.194Y-97.296
X134.194Y-99.836
X134.194Y-102.376
X134.194Y-109.996
X134.194Y-112.536
X134.194Y-115.076
X134.194Y-117.616
X134.194Y-122.696
X134.194Y-130.316
X134.194Y-132.856
X134.194Y-135.396
X134.194Y-137.936
X134.194Y-140.476
X134.194Y-143.016
X134.194Y-150.636
X134.194Y-153.176
X134.194Y-155.716
X134.194Y-160.796
X134.194Y-178.576
X134.362Y-173.842
X134.362Y-191.621
X136.734Y-97.296
X136.734Y-99.836
X136.734Y-102.376
X136.734Y-104.916
X136.734Y-107.456
X136.734Y-120.156
X136.734Y-122.696
X136.734Y-132.856
X136.734Y-135.396
X136.734Y-137.936
X136.734Y-140.476
X136.734Y-143.016
X136.734Y-153.176
X136.734Y-155.716
X136.734Y-160.796
X136.734Y-163.336
X136.734Y-176.036
X136.734Y-178.576
X137.362Y-117.539
X137.362Y-199.216
X139.274Y-99.836
X139.274Y-102.376
X139.274Y-109.996
X139.274Y-112.536
X139.274Y-115.076
X139.274Y-117.616
X139.274Y-120.156
X139.274Y-122.696
X139.274Y-130.316
X139.274Y-132.856
X139.274Y-135.396
X139.274Y-137.936
X139.274Y-140.476
X139.274Y-143.016
X139.274Y-153.176
X139.274Y-155.716
X139.274Y-176.036
X139.274Y-178.576
X139.274Y-196.356
X139.274Y-198.896
X139.274Y-201.436
X139.274Y-206.516
X140.362Y-183.547
X141.329Y-126.974
X141.814Y-99.836
X141.814Y-102.376
X141.814Y-112.536
X141.814Y-115.076
X141.814Y-117.616
X141.814Y-120.156
X141.814Y-122.696
X141.814Y-132.856
X141.814Y-135.396
X141.814Y-137.936
X141.814Y-150.636
X141.814Y-153.176
X141.814Y-158.256
X141.814Y-176.036
X141.814Y-178.576
X141.814Y-198.896
X141.814Y-201.436
X141.814Y-206.516
X144.354Y-99.836
X144.354Y-102.376
X144.354Y-115.076
X144.354Y-117.616
X144.354Y-120.156
X144.354Y-122.696
X144.354Y-132.856
X144.354Y-135.396
X144.354Y-137.936
X144.354Y-155.716
X144.354Y-158.256
X144.354Y-163.336
X144.354Y-165.876
X144.354Y-176.036
X144.354Y-178.576
X144.354Y-183.656
X144.354Y-201.436
X144.354Y-206.516
X146.894Y-99.836
X146.894Y-102.376
X146.894Y-104.916
X146.894Y-115.076
X146.894Y-117.616
X146.894Y-127.776
X146.894Y-132.856
X146.894Y-135.396
X146.894Y-137.936
X146.894Y-140.476
X146.894Y-143.016
X146.894Y-148.096
X146.894Y-153.176
X146.894Y-155.716
X146.894Y-158.256
X146.894Y-163.336
X146.894Y-183.656
X146.894Y-191.276
X146.894Y-201.436
X148.942Y-195.901
X149.434Y-102.376
X149.434Y-112.536
X149.434Y-115.076
X149.434Y-117.616
X149.434Y-130.316
X149.434Y-132.856
X149.434Y-135.396
X149.434Y-137.936
X149.434Y-143.016
X149.434Y-145.556
X149.434Y-148.096
X149.434Y-155.716
X149.434Y-158.256
X149.434Y-163.336
X149.434Y-170.956
X149.434Y-183.656
X151.974Y-102.376
X151.974Y-158.256
X151.974Y-160.796
X151.974Y-168.416
X151.974Y-170.956
X151.974Y-201.436
X151.974Y-206.516
X152.049Y-152.127
X152.654Y-112.512
X152.872Y-129.392
X154.514Y-102.376
X154.514Y-104.916
X154.514Y-109.996
X154.514Y-115.076
X154.514Y-117.616
X154.514Y-122.696
X154.514Y-125.236
X154.514Y-127.776
X154.514Y-140.476
X154.514Y-143.016
X154.514Y-145.556
X154.514Y-148.096
X154.514Y-160.796
X154.514Y-168.416
X154.514Y-170.956
X154.514Y-193.816
X154.514Y-198.896
X154.514Y-206.516
X157.054Y-104.916
X157.054Y-109.996
X157.054Y-120.156
X157.054Y-122.696
X157.054Y-125.236
X157.054Y-127.776
X157.054Y-130.316
X157.054Y-137.936
X157.054Y-140.476
X157.054Y-143.016
X157.054Y-145.556
X157.054Y-148.096
X157.054Y-163.336
X157.054Y-193.816
X157.054Y-203.976
X157.054Y-206.516
X159.594Y-104.916
X159.594Y-107.456
X159.594Y-109.996
X159.594Y-122.696
X159.594Y-125.236
X159.594Y-127.776
X159.594Y-130.316
X159.594Y-140.476
X159.594Y-143.016
X159.594Y-145.556
X159.594Y-160.796
X159.594Y-163.336
X159.594Y-170.956
X159.594Y-176.036
X159.594Y-183.656
X159.594Y-193.816
X159.594Y-203.976
X159.594Y-206.516
X159.594Y-214.136
X159.594Y-216.676
X159.594Y-219.216
X159.594Y-221.756
X159.594Y-224.296
X159.594Y-226.836
X159.594Y-229.376
X159.594Y-231.916
X162.134Y-112.536
X162.134Y-125.236
X162.134Y-127.776
X162.134Y-130.316
X162.134Y-140.476
X162.134Y-143.016
X162.134Y-145.556
X162.134Y-155.716
X162.134Y-160.796
X162.134Y-163.336
X162.134Y-170.956
X162.134Y-176.036
X162.134Y-183.656
X162.134Y-201.436
X162.134Y-203.976
X162.134Y-206.516
X162.134Y-214.136
X162.134Y-216.676
X162.134Y-219.216
X162.134Y-221.756
X162.134Y-224.296
X162.134Y-226.836
X162.134Y-229.376
X162.134Y-231.916
X164.357Y-170.888
X164.357Y-188.553
X164.51Y-167.276
X164.674Y-109.996
X164.674Y-112.536
X164.674Y-115.076
X164.674Y-122.696
X164.674Y-135.396
X164.674Y-140.476
X164.674Y-143.016
X164.674Y-145.556
X164.674Y-148.096
X164.674Y-155.716
X164.674Y-158.256
X164.674Y-160.796
X164.674Y-163.336
X164.674Y-173.496
X164.674Y-183.656
X164.674Y-193.816
X164.674Y-206.516
X164.674Y-214.136
X164.674Y-216.676
X164.674Y-219.216
X164.674Y-221.756
X164.674Y-224.296
X164.674Y-226.836
X164.674Y-229.376
X164.674Y-231.916
X167.214Y-107.456
X167.214Y-109.996
X167.214Y-117.616
X167.214Y-120.156
X167.214Y-122.696
X167.214Y-125.236
X167.214Y-137.936
X167.214Y-140.476
X167.214Y-143.016
X167.214Y-145.556
X167.214Y-160.796
X167.214Y-163.336
X167.214Y-170.956
X167.214Y-183.656
X167.214Y-193.816
X167.214Y-196.356
X167.214Y-206.516
X167.214Y-214.136
X167.214Y-216.676
X167.214Y-219.216
X167.214Y-221.756
X167.214Y-224.296
X167.214Y-226.836
X167.214Y-229.376
X167.214Y-231.916
X167.357Y-131.656
X167.425Y-150.903
X169.293Y-138.201
X169.754Y-109.996
X169.754Y-122.696
X169.754Y-125.236
X169.754Y-132.856
X169.754Y-135.396
X169.754Y-143.016
X169.754Y-145.556
X169.754Y-153.176
X169.754Y-155.716
X169.754Y-168.416
X169.754Y-193.816
X169.754Y-214.136
X169.754Y-216.676
X169.754Y-219.216
X169.754Y-221.756
X169.754Y-224.296
X169.754Y-226.836
X169.754Y-229.376
X169.754Y-231.916
X171.43Y-208.333
X171.76Y-204.142
X172.294Y-109.996
X172.294Y-117.616
X172.294Y-163.336
X172.294Y-173.496
X172.294Y-176.036
X172.294Y-201.436
X172.294Y-214.136
X172.294Y-216.676
X172.294Y-219.216
X172.294Y-221.756
X172.294Y-224.296
X172.294Y-226.836
X172.294Y-229.376
X172.294Y-231.916
X172.502Y-137.353
X174.834Y-115.076
X174.834Y-145.556
X174.834Y-148.096
X174.834Y-153.176
X174.834Y-155.716
X174.834Y-170.956
X174.834Y-173.496
X174.834Y-196.356
X174.834Y-198.896
X174.834Y-206.516
X174.834Y-209.056
X174.834Y-214.136
X174.834Y-216.676
X174.834Y-219.216
X174.834Y-221.756
X174.834Y-224.296
X174.834Y-226.836
X174.834Y-229.376
X174.834Y-231.916
X177.374Y-117.616
X177.374Y-125.236
X177.374Y-127.776
X177.374Y-130.316
X177.374Y-132.856
X177.374Y-145.556
X177.374Y-148.096
X177.374Y-153.176
X177.374Y-155.716
X177.374Y-170.956
X177.374Y-173.496
X177.374Y-176.036
X177.374Y-181.116
X177.374Y-196.356
X177.374Y-201.436
X177.374Y-214.136
X177.374Y-216.676
X177.374Y-219.216
X177.374Y-221.756
X177.374Y-224.296
X177.374Y-226.836
X177.374Y-229.376
X177.374Y-231.916
X179.914Y-115.076
X179.914Y-117.616
X179.914Y-125.236
X179.914Y-127.776
X179.914Y-130.316
X179.914Y-132.856
X179.914Y-145.556
X179.914Y-148.096
X179.914Y-153.176
X179.914Y-155.716
X179.914Y-160.796
X179.914Y-170.956
X179.914Y-173.496
X179.914Y-176.036
X179.914Y-196.356
X179.914Y-201.436
X179.914Y-216.676
X179.914Y-219.216
X179.914Y-221.756
X179.914Y-224.296
X179.914Y-226.836
X179.914Y-229.376
X179.914Y-231.916
X182.454Y-115.076
X182.454Y-117.616
X182.454Y-120.156
X182.454Y-127.776
X182.454Y-130.316
X182.454Y-132.856
X182.454Y-148.096
X182.454Y-153.176
X182.454Y-155.716
X182.454Y-160.796
X182.454Y-163.336
X182.454Y-201.436
X182.454Y-219.216
X182.454Y-221.756
X182.454Y-224.296
X182.454Y-226.836
X182.454Y-229.376
X182.454Y-231.916
X184.994Y-115.076
X184.994Y-125.236
X184.994Y-127.776
X184.994Y-130.316
X184.994Y-132.856
X184.994Y-153.176
X184.994Y-155.716
X184.994Y-160.796
X184.994Y-163.336
X184.994Y-170.956
X184.994Y-173.496
X184.994Y-176.036
X184.994Y-181.116
X184.994Y-183.656
X184.994Y-221.756
X184.994Y-224.296
X184.994Y-226.836
X184.994Y-229.376
X184.994Y-231.916
X187.534Y-115.076
X187.534Y-127.776
X187.534Y-130.316
X187.534Y-132.856
X187.534Y-137.936
X187.534Y-140.476
X187.534Y-148.096
X187.534Y-155.716
X187.534Y-160.796
X187.534Y-163.336
X187.534Y-181.116
X187.534Y-183.656
X187.534Y-201.436
X187.534Y-214.136
X187.534Y-221.756
X187.534Y-224.296
X187.534Y-226.836
X187.534Y-229.376
X187.534Y-231.916
X189.761Y-216.347
X190.074Y-122.696
X190.074Y-125.236
X190.074Y-127.776
X190.074Y-130.316
X190.074Y-132.856
X190.074Y-145.556
X190.074Y-148.096
X190.074Y-153.176
X190.074Y-155.716
X190.074Y-160.796
X190.074Y-163.336
X190.074Y-181.116
X190.074Y-186.196
X190.074Y-193.816
X190.074Y-196.356
X190.074Y-221.756
X190.074Y-224.296
X190.074Y-226.836
X190.074Y-229.376
X190.074Y-231.916
X191.353Y-136.135
X191.497Y-117.312
X192.614Y-122.696
X192.614Y-125.236
X192.614Y-127.776
X192.614Y-130.316
X192.614Y-132.856
X192.614Y-183.656
X192.614Y-186.196
X192.614Y-193.816
X192.614Y-196.356
X192.614Y-214.136
X192.614Y-221.756
X192.614Y-224.296
X192.614Y-226.836
X192.614Y-229.376
X192.614Y-231.916
X195.154Y-117.616
X195.154Y-122.696
X195.154Y-125.236
X195.154Y-127.776
X195.154Y-130.316
X195.154Y-132.856
X195.154Y-140.476
X195.154Y-143.016
X195.154Y-145.556
X195.154Y-148.096
X195.154Y-153.176
X195.154Y-155.716
X195.154Y-158.256
X195.154Y-160.796
X195.154Y-163.336
X195.154Y-181.116
X195.154Y-183.656
X195.154Y-186.196
X195.154Y-193.816
X195.154Y-196.356
X195.154Y-201.436
X195.154Y-211.596
X195.154Y-214.136
X195.154Y-224.296
X195.154Y-226.836
X195.154Y-229.376
X195.154Y-231.916
X197.352Y-206.438
X197.352Y-234.158
X197.694Y-117.616
X197.694Y-122.696
X197.694Y-125.236
X197.694Y-127.776
X197.694Y-130.316
X197.694Y-132.856
X197.694Y-143.016
X197.694Y-145.556
X197.694Y-148.096
X197.694Y-153.176
X197.694Y-155.716
X197.694Y-158.256
X197.694Y-160.796
X197.694Y-163.336
X197.694Y-173.496
X197.694Y-181.116
X197.694Y-183.656
X197.694Y-186.196
X197.694Y-193.816
X197.694Y-196.356
X197.694Y-201.436
X197.694Y-211.596
X197.694Y-214.136
X197.694Y-229.376
X200.234Y-117.616
X200.234Y-122.696
X200.234Y-125.236
X200.234Y-127.776
X200.234Y-130.316
X200.234Y-132.856
X200.234Y-137.936
X200.234Y-140.476
X200.234Y-143.016
X200.234Y-145.556
X200.234Y-148.096
X200.234Y-153.176
X200.234Y-155.716
X200.234Y-158.256
X200.234Y-160.796
X200.234Y-163.336
X200.234Y-173.496
X200.234Y-181.116
X200.234Y-183.656
X200.234Y-186.196
X200.234Y-193.816
X200.234Y-196.356
X200.234Y-206.516
X200.234Y-211.596
X200.234Y-214.136
X200.234Y-221.756
X200.234Y-231.916
X200.234Y-234.456
X200.459Y-169.916
X202.774Y-117.616
X202.774Y-120.156
X202.774Y-122.696
X202.774Y-125.236
X202.774Y-127.776
X202.774Y-130.316
X202.774Y-132.856
X202.774Y-137.936
X202.774Y-145.556
X202.774Y-148.096
X202.774Y-153.176
X202.774Y-155.716
X202.774Y-158.256
X202.774Y-203.976
X202.774Y-206.516
X202.774Y-209.056
X202.774Y-226.836
X202.774Y-231.916
X202.774Y-234.456
X205.314Y-130.316
X205.314Y-132.856
X205.314Y-137.936
X205.314Y-176.036
X205.314Y-181.116
X205.314Y-183.656
X205.314Y-186.196
X205.314Y-193.816
X205.314Y-196.356
X205.314Y-201.436
X205.314Y-203.976
X205.314Y-206.516
X205.314Y-211.596
X205.314Y-229.376
X205.314Y-231.916
X205.314Y-234.456
X206.316Y-161.048
X206.35Y-237.429
X207.334Y-237.616
X207.854Y-132.856
X207.854Y-137.936
X209.805Y-179.768
X209.834Y-167.967
X210.394Y-132.856
X210.394Y-137.936
X210.394Y-153.176
X210.394Y-221.756
X210.394Y-224.296
X210.394Y-226.836
X210.394Y-229.376
X210.394Y-231.916
X211.426Y-161.048
X211.93Y-159.881
X212.02Y-167.638
X212.47Y-191.623
X212.934Y-132.856
X212.934Y-137.936
X212.934Y-176.036
X212.934Y-181.116
X212.934Y-183.656
X212.934Y-186.196
X212.934Y-193.816
X212.934Y-196.356
X212.934Y-201.436
X212.934Y-203.976
X212.934Y-206.516
X212.934Y-209.056
X212.934Y-211.596
X212.934Y-224.296
X212.934Y-226.836
X212.934Y-229.376
X212.934Y-234.456
X215.474Y-132.856
X215.474Y-137.936
X215.474Y-148.096
X215.474Y-153.176
X215.474Y-155.716
X215.474Y-168.416
X215.474Y-173.496
X215.474Y-176.036
X215.474Y-181.116
X215.474Y-183.656
X215.474Y-186.196
X215.474Y-193.816
X215.474Y-196.356
X215.474Y-201.436
X215.474Y-203.976
X215.474Y-206.516
X215.474Y-209.056
X215.474Y-211.596
X215.474Y-221.756
X215.474Y-224.296
X215.474Y-226.836
X215.474Y-231.916
X215.474Y-234.456
X218.014Y-132.856
X218.014Y-137.936
X218.014Y-140.476
X218.014Y-153.176
X218.014Y-155.716
X218.014Y-158.256
X218.014Y-170.956
X218.014Y-173.496
X218.014Y-176.036
X218.014Y-181.116
X218.014Y-183.656
X218.014Y-193.816
X218.014Y-196.356
X218.014Y-206.516
X218.014Y-209.056
X218.014Y-211.596
X218.014Y-219.216
X218.014Y-221.756
X218.014Y-224.296
X218.014Y-231.916
X218.014Y-234.456
X220.554Y-130.316
X220.554Y-132.856
X220.554Y-137.936
X220.554Y-140.476
X220.554Y-143.016
X220.554Y-153.176
X220.554Y-155.716
X220.554Y-165.876
X220.554Y-170.956
X220.554Y-173.496
X220.554Y-176.036
X220.554Y-181.116
X220.554Y-186.196
X220.554Y-193.816
X220.554Y-196.356
X220.554Y-203.976
X220.554Y-206.516
X220.554Y-211.596
X220.554Y-219.216
X220.554Y-221.756
X220.554Y-231.916
X220.554Y-234.456
X223.094Y-117.616
X223.094Y-120.156
X223.094Y-122.696
X223.094Y-125.236
X223.094Y-127.776
X223.094Y-130.316
X223.094Y-132.856
X223.094Y-137.936
X223.094Y-140.476
X223.094Y-143.016
X223.094Y-145.556
X223.094Y-153.176
X223.094Y-155.716
X223.094Y-160.796
X223.094Y-181.116
X223.094Y-183.656
X223.094Y-186.196
X223.094Y-193.816
X223.094Y-196.356
X223.094Y-201.436
X223.094Y-203.976
X223.094Y-206.516
X223.094Y-231.916
X223.094Y-234.456
X225.634Y-117.616
X225.634Y-120.156
X225.634Y-122.696
X225.634Y-125.236
X225.634Y-127.776
X225.634Y-130.316
X225.634Y-132.856
X225.634Y-137.936
X225.634Y-140.476
X225.634Y-143.016
X225.634Y-145.556
X225.634Y-148.096
X225.634Y-155.716
X225.634Y-158.256
X225.634Y-165.876
X225.634Y-181.116
X225.634Y-183.656
X225.634Y-186.196
X225.634Y-193.816
X225.634Y-196.356
X225.634Y-201.436
X225.634Y-203.976
X225.634Y-206.516
X225.634Y-229.376
X225.634Y-231.916
X225.634Y-234.456
X228.174Y-117.616
X228.174Y-120.156
X228.174Y-122.696
X228.174Y-125.236
X228.174Y-127.776
X228.174Y-130.316
X228.174Y-132.856
X228.174Y-137.936
X228.174Y-140.476
X228.174Y-143.016
X228.174Y-145.556
X228.174Y-148.096
X228.174Y-153.176
X228.174Y-155.716
X228.174Y-158.256
X228.174Y-160.796
X228.174Y-163.336
X228.174Y-165.876
X228.174Y-176.036
X228.174Y-181.116
X228.174Y-183.656
X228.174Y-193.816
X228.174Y-196.356
X228.174Y-201.436
X228.174Y-203.976
X228.174Y-206.516
X228.174Y-211.596
X228.174Y-221.756
X228.174Y-229.376
X228.174Y-231.916
X228.174Y-234.456
X230.346Y-185.695
X230.714Y-117.616
X230.714Y-120.156
X230.714Y-122.696
X230.714Y-125.236
X230.714Y-127.776
X230.714Y-130.316
X230.714Y-132.856
X230.714Y-137.936
X230.714Y-140.476
X230.714Y-143.016
X230.714Y-145.556
X230.714Y-148.096
X230.714Y-153.176
X230.714Y-155.716
X230.714Y-158.256
X230.714Y-160.796
X230.714Y-181.116
X230.714Y-183.656
X230.714Y-188.736
X230.714Y-193.816
X230.714Y-196.356
X230.714Y-201.436
X230.714Y-203.976
X230.714Y-206.516
X230.714Y-209.056
X230.714Y-211.596
X230.714Y-219.216
X230.714Y-224.296
X230.714Y-226.836
X230.714Y-229.376
X230.714Y-231.916
X230.714Y-234.456
X233.254Y-117.616
X233.254Y-120.156
X233.254Y-137.936
X233.254Y-140.476
X233.254Y-143.016
X233.254Y-145.556
X233.254Y-148.096
X233.254Y-153.176
X233.254Y-155.716
X233.254Y-158.256
X233.254Y-160.796
X233.254Y-173.496
X233.254Y-181.116
X233.254Y-183.656
X233.254Y-186.196
X233.254Y-196.356
X233.254Y-201.436
X233.254Y-203.976
X233.254Y-206.516
X233.254Y-209.056
X233.254Y-211.596
X233.254Y-219.216
X233.254Y-221.756
X233.254Y-224.296
X233.254Y-226.836
X233.254Y-229.376
X233.301Y-213.668
X233.346Y-136.135
X235.794Y-117.616
X235.794Y-125.236
X235.794Y-127.776
X235.794Y-130.316
X235.794Y-132.856
X235.794Y-137.936
X235.794Y-140.476
X235.794Y-143.016
X235.794Y-145.556
X235.794Y-148.096
X235.794Y-155.716
X235.794Y-158.256
X235.794Y-160.796
X235.794Y-181.116
X235.794Y-183.656
X235.794Y-186.196
X235.794Y-193.816
X235.794Y-196.356
X235.794Y-201.436
X235.794Y-203.976
X235.794Y-206.516
X235.794Y-209.056
X235.794Y-221.756
X235.794Y-224.296
X235.794Y-226.836
X236.345Y-135.319
X236.345Y-167.445
X238.334Y-115.076
X238.334Y-127.776
X238.334Y-130.316
X238.334Y-132.856
X238.334Y-135.396
X238.334Y-145.556
X238.334Y-148.096
X238.334Y-150.636
X238.334Y-158.256
X238.334Y-160.796
X238.334Y-168.416
X238.334Y-170.956
X238.334Y-173.496
X238.334Y-176.036
X238.334Y-181.116
X238.334Y-183.656
X238.334Y-203.976
X238.334Y-209.056
X238.334Y-219.216
X238.334Y-224.296
X240.837Y-201.29
X240.874Y-117.616
X240.874Y-120.156
X240.874Y-127.776
X240.874Y-130.316
X240.874Y-132.856
X240.874Y-135.396
X240.874Y-137.936
X240.874Y-145.556
X240.874Y-148.096
X240.874Y-150.636
X240.874Y-153.176
X240.874Y-165.876
X240.874Y-168.416
X240.874Y-170.956
X240.874Y-173.496
X240.874Y-176.036
X240.874Y-181.116
X240.874Y-188.736
X240.874Y-219.216
X240.874Y-221.756
X240.874Y-236.996
X242.006Y-223.879
X242.308Y-158.837
X243.414Y-120.156
X243.414Y-127.776
X243.414Y-130.316
X243.414Y-132.856
X243.414Y-135.396
X243.414Y-137.936
X243.414Y-145.556
X243.414Y-148.096
X243.414Y-150.636
X243.414Y-153.176
X243.414Y-155.716
X243.414Y-165.876
X243.414Y-168.416
X243.414Y-170.956
X243.414Y-173.496
X243.414Y-176.036
X243.414Y-186.196
X243.414Y-188.736
X243.414Y-193.816
X243.414Y-201.436
X243.414Y-226.836
X243.414Y-234.456
X243.414Y-236.996
X245.954Y-112.536
X245.954Y-135.396
X245.954Y-145.556
X245.954Y-148.096
X245.954Y-150.636
X245.954Y-153.176
X245.954Y-155.716
X245.954Y-165.876
X245.954Y-168.416
X245.954Y-170.956
X245.954Y-173.496
X245.954Y-176.036
X245.954Y-183.656
X245.954Y-186.196
X245.954Y-188.736
X245.954Y-211.596
X245.954Y-219.216
X245.954Y-224.296
X245.954Y-226.836
X245.954Y-229.376
X245.954Y-231.916
X245.954Y-234.456
X245.954Y-236.996
X248.494Y-112.536
X248.494Y-120.156
X248.494Y-125.236
X248.494Y-127.776
X248.494Y-130.316
X248.494Y-140.476
X248.494Y-145.556
X248.494Y-148.096
X248.494Y-150.636
X248.494Y-153.176
X248.494Y-155.716
X248.494Y-165.876
X248.494Y-168.416
X248.494Y-170.956
X248.494Y-173.496
X248.494Y-176.036
X248.494Y-186.196
X248.494Y-188.736
X248.494Y-201.436
X248.494Y-203.976
X248.494Y-206.516
X248.494Y-209.056
X248.494Y-216.676
X248.494Y-221.756
X248.494Y-224.296
X248.494Y-226.836
X248.494Y-229.376
X248.494Y-231.916
X248.494Y-234.456
X248.494Y-236.996
X251.034Y-109.996
X251.034Y-112.536
X251.034Y-117.616
X251.034Y-120.156
X251.034Y-122.696
X251.034Y-125.236
X251.034Y-127.776
X251.034Y-130.316
X251.034Y-132.856
X251.034Y-145.556
X251.034Y-148.096
X251.034Y-153.176
X251.034Y-165.876
X251.034Y-168.416
X251.034Y-170.956
X251.034Y-173.496
X251.034Y-186.196
X251.034Y-188.736
X251.034Y-198.896
X251.034Y-203.976
X251.034Y-206.516
X251.034Y-209.056
X251.034Y-214.136
X251.034Y-221.756
X251.034Y-224.296
X251.034Y-226.836
X251.034Y-229.376
X251.034Y-231.916
X251.034Y-234.456
X251.034Y-236.996
X251.196Y-138.676
X253.574Y-109.996
X253.574Y-112.536
X253.574Y-120.156
X253.574Y-122.696
X253.574Y-125.236
X253.574Y-127.776
X253.574Y-130.316
X253.574Y-135.396
X253.574Y-140.476
X253.574Y-143.016
X253.574Y-145.556
X253.574Y-148.096
X253.574Y-153.176
X253.574Y-173.496
X253.574Y-186.196
X253.574Y-196.356
X253.574Y-206.516
X253.574Y-209.056
X253.574Y-214.136
X253.574Y-216.676
X253.574Y-221.756
X253.574Y-224.296
X253.574Y-226.836
X253.574Y-234.456
X253.574Y-236.996
X254.689Y-138.629
X255.36Y-137.585
X256.114Y-109.996
X256.114Y-122.696
X256.114Y-125.236
X256.114Y-127.776
X256.114Y-130.316
X256.114Y-153.176
X256.114Y-158.256
X256.114Y-163.336
X256.114Y-165.876
X256.114Y-168.416
X256.114Y-173.496
X256.114Y-188.736
X256.114Y-196.356
X256.114Y-206.516
X256.114Y-209.056
X256.114Y-214.136
X256.114Y-224.296
X256.114Y-231.916
X256.114Y-234.456
X256.114Y-236.996
X258.623Y-159.025
X258.654Y-107.456
X258.654Y-120.156
X258.654Y-122.696
X258.654Y-125.236
X258.654Y-127.776
X258.654Y-130.316
X258.654Y-132.856
X258.654Y-140.476
X258.654Y-143.016
X258.654Y-145.556
X258.654Y-148.096
X258.654Y-173.496
X258.654Y-183.656
X258.654Y-186.196
X258.654Y-206.516
X258.654Y-209.056
X258.654Y-214.136
X258.654Y-216.676
X258.654Y-221.756
X258.654Y-229.376
X258.654Y-231.916
X258.654Y-234.456
X258.654Y-236.996
X260.087Y-175.091
X261.194Y-107.456
X261.194Y-115.076
X261.194Y-122.696
X261.194Y-125.236
X261.194Y-127.776
X261.194Y-130.316
X261.194Y-140.476
X261.194Y-143.016
X261.194Y-145.556
X261.194Y-148.096
X261.194Y-150.636
X261.194Y-153.176
X261.194Y-160.796
X261.194Y-163.336
X261.194Y-165.876
X261.194Y-168.416
X261.194Y-181.116
X261.194Y-183.656
X261.194Y-186.196
X261.194Y-206.516
X261.194Y-209.056
X261.194Y-214.136
X261.194Y-226.836
X261.194Y-229.376
X261.194Y-236.996
X263.734Y-104.916
X263.734Y-107.456
X263.734Y-132.856
X263.734Y-140.476
X263.734Y-143.016
X263.734Y-145.556
X263.734Y-148.096
X263.734Y-150.636
X263.734Y-160.796
X263.734Y-163.336
X263.734Y-165.876
X263.734Y-168.416
X263.734Y-173.496
X263.734Y-181.116
X263.734Y-183.656
X263.734Y-186.196
X263.734Y-188.736
X263.734Y-203.976
X263.734Y-206.516
X263.734Y-209.056
X263.734Y-216.676
X263.734Y-224.296
X263.734Y-226.836
X263.734Y-229.376
X263.734Y-231.916
X263.734Y-234.456
X263.734Y-236.996
X266.274Y-104.916
X266.274Y-107.456
X266.274Y-120.156
X266.274Y-122.696
X266.274Y-125.236
X266.274Y-140.476
X266.274Y-143.016
X266.274Y-153.176
X266.274Y-160.796
X266.274Y-163.336
X266.274Y-165.876
X266.274Y-168.416
X266.274Y-170.956
X266.274Y-181.116
X266.274Y-183.656
X266.274Y-186.196
X266.274Y-188.736
X266.274Y-198.896
X266.274Y-201.436
X266.274Y-203.976
X266.274Y-206.516
X266.274Y-209.056
X266.274Y-216.676
X266.274Y-221.756
X266.274Y-224.296
X266.274Y-226.836
X266.274Y-229.376
X266.274Y-231.916
X266.274Y-234.456
X266.274Y-236.996
X266.34Y-192.36
X268.814Y-104.916
X268.814Y-107.456
X268.814Y-112.536
X268.814Y-115.076
X268.814Y-117.616
X268.814Y-120.156
X268.814Y-122.696
X268.814Y-125.236
X268.814Y-127.776
X268.814Y-160.796
X268.814Y-163.336
X268.814Y-165.876
X268.814Y-168.416
X268.814Y-170.956
X268.814Y-178.576
X268.814Y-181.116
X268.814Y-183.656
X268.814Y-186.196
X268.814Y-198.896
X268.814Y-201.436
X268.814Y-203.976
X268.814Y-206.516
X268.814Y-209.056
X268.814Y-219.216
X268.814Y-221.756
X268.814Y-224.296
X268.814Y-226.836
X268.814Y-229.376
X268.814Y-231.916
X268.814Y-234.456
X268.814Y-236.996
X271.354Y-102.376
X271.354Y-104.916
X271.354Y-112.536
X271.354Y-117.616
X271.354Y-120.156
X271.354Y-122.696
X271.354Y-125.236
X271.354Y-168.416
X271.354Y-181.116
X271.354Y-183.656
X271.354Y-188.736
X271.354Y-198.896
X271.354Y-201.436
X271.354Y-203.976
X271.354Y-206.516
X271.354Y-209.056
X271.354Y-214.136
X271.354Y-216.676
X271.354Y-219.216
X271.354Y-221.756
X271.354Y-224.296
X271.354Y-226.836
X271.354Y-229.376
X271.354Y-231.916
X271.354Y-234.456
X271.354Y-236.996
X271.664Y-145.42
X272.094Y-130.022
X272.339Y-114.576
X272.339Y-174.096
X273.894Y-102.376
X273.894Y-104.916
X273.894Y-117.616
X273.894Y-120.156
X273.894Y-122.696
X273.894Y-125.236
X273.894Y-132.856
X273.894Y-135.396
X273.894Y-137.936
X273.894Y-140.476
X273.894Y-143.016
X273.894Y-158.256
X273.894Y-160.796
X273.894Y-163.336
X273.894Y-168.416
X273.894Y-188.736
X273.894Y-201.436
X273.894Y-203.976
X273.894Y-206.516
X273.894Y-209.056
X273.894Y-214.136
X273.894Y-216.676
X273.894Y-219.216
X273.894Y-221.756
X273.894Y-224.296
X273.894Y-226.836
X273.894Y-229.376
X273.894Y-231.916
X273.894Y-234.456
X273.894Y-236.996
X275.339Y-212.406
X276.434Y-102.376
X276.434Y-104.916
X276.434Y-112.536
X276.434Y-117.616
X276.434Y-120.156
X276.434Y-122.696
X276.434Y-125.236
X276.434Y-135.396
X276.434Y-137.936
X276.434Y-140.476
X276.434Y-143.016
X276.434Y-148.096
X276.434Y-150.636
X276.434Y-153.176
X276.434Y-155.716
X276.434Y-158.256
X276.434Y-160.796
X276.434Y-163.336
X276.434Y-168.416
X276.434Y-178.576
X276.434Y-181.116
X276.434Y-183.656
X276.434Y-186.196
X276.434Y-198.896
X276.434Y-201.436
X276.434Y-203.976
X276.434Y-206.516
X276.434Y-214.136
X276.434Y-216.676
X276.434Y-219.216
X276.434Y-221.756
X276.434Y-224.296
X276.434Y-226.836
X276.434Y-229.376
X276.434Y-231.916
X276.434Y-234.456
X276.434Y-236.996
X277.433Y-132.956
X278.974Y-99.836
X278.974Y-102.376
X278.974Y-107.456
X278.974Y-117.616
X278.974Y-120.156
X278.974Y-122.696
X278.974Y-125.236
X278.974Y-135.396
X278.974Y-137.936
X278.974Y-140.476
X278.974Y-143.016
X278.974Y-145.556
X278.974Y-150.636
X278.974Y-153.176
X278.974Y-155.716
X278.974Y-158.256
X278.974Y-160.796
X278.974Y-163.336
X278.974Y-201.436
X278.974Y-203.976
X278.974Y-206.516
X278.974Y-214.136
X278.974Y-216.676
X278.974Y-219.216
X278.974Y-221.756
X278.974Y-224.296
X278.974Y-226.836
X278.974Y-229.376
X278.974Y-231.916
X278.974Y-234.456
X278.974Y-236.996
X281.514Y-99.836
X281.514Y-102.376
X281.514Y-107.456
X281.514Y-112.536
X281.514Y-117.616
X281.514Y-120.156
X281.514Y-122.696
X281.514Y-125.236
X281.514Y-135.396
X281.514Y-137.936
X281.514Y-140.476
X281.514Y-143.016
X281.514Y-153.176
X281.514Y-155.716
X281.514Y-158.256
X281.514Y-160.796
X281.514Y-163.336
X281.514Y-165.876
X281.514Y-170.956
X281.514Y-176.036
X281.514Y-178.576
X281.514Y-181.116
X281.514Y-183.656
X281.514Y-186.196
X281.514Y-198.896
X281.514Y-201.436
X281.514Y-203.976
X281.514Y-206.516
X281.514Y-209.056
X281.514Y-219.216
X281.514Y-221.756
X281.514Y-224.296
X281.514Y-226.836
X281.514Y-229.376
X281.514Y-231.916
X281.514Y-234.456
X281.514Y-236.996
X284.054Y-99.836
X284.054Y-112.536
X284.054Y-117.616
X284.054Y-120.156
X284.054Y-135.396
X284.054Y-137.936
X284.054Y-140.476
X284.054Y-143.016
X284.054Y-153.176
X284.054Y-155.716
X284.054Y-158.256
X284.054Y-160.796
X284.054Y-163.336
X284.054Y-176.036
X284.054Y-178.576
X284.054Y-181.116
X284.054Y-183.656
X284.054Y-198.896
X284.054Y-201.436
X284.054Y-203.976
X284.054Y-206.516
X284.054Y-224.296
X284.054Y-226.836
X284.054Y-236.996
X284.337Y-173.842
X284.337Y-193.31
X286.594Y-99.836
X286.594Y-102.376
X286.594Y-104.916
X286.594Y-112.536
X286.594Y-135.396
X286.594Y-137.936
X286.594Y-140.476
X286.594Y-153.176
X286.594Y-155.716
X286.594Y-158.256
X286.594Y-160.796
X286.594Y-163.336
X286.594Y-170.956
X286.594Y-176.036
X286.594Y-178.576
X286.594Y-181.116
X286.594Y-183.656
X286.594Y-196.356
X286.594Y-198.896
X286.594Y-201.436
X286.594Y-203.976
X286.594Y-206.516
X286.594Y-216.676
X286.594Y-219.216
X286.594Y-221.756
X286.594Y-224.296
X286.594Y-226.836
X286.594Y-229.376
X286.594Y-231.916
X286.594Y-234.456
X286.594Y-236.996
X289.134Y-97.296
X289.134Y-99.836
X289.134Y-102.376
X289.134Y-104.916
X289.134Y-107.456
X289.134Y-109.996
X289.134Y-112.536
X289.134Y-122.696
X289.134Y-130.316
X289.134Y-135.396
X289.134Y-140.476
X289.134Y-153.176
X289.134Y-155.716
X289.134Y-158.256
X289.134Y-160.796
X289.134Y-165.876
X289.134Y-176.036
X289.134Y-178.576
X289.134Y-181.116
X289.134Y-183.656
X289.134Y-186.196
X289.134Y-191.276
X289.134Y-196.356
X289.134Y-198.896
X289.134Y-201.436
X289.134Y-203.976
X289.134Y-206.516
X289.134Y-209.056
X291.674Y-97.296
X291.674Y-99.836
X291.674Y-102.376
X291.674Y-104.916
X291.674Y-107.456
X291.674Y-109.996
X291.674Y-112.536
X291.674Y-117.616
X291.674Y-120.156
X291.674Y-122.696
X291.674Y-125.236
X291.674Y-127.776
X291.674Y-130.316
X291.674Y-135.396
X291.674Y-140.476
X291.674Y-160.796
X291.674Y-176.036
X291.674Y-181.116
X291.674Y-183.656
X291.674Y-191.276
X291.674Y-196.356
X291.674Y-198.896
X291.674Y-201.436
X291.674Y-203.976
X291.674Y-206.516
X291.674Y-209.056
X291.674Y-211.596
X291.674Y-214.136
X293.565Y-152.89
X294.214Y-97.296
X294.214Y-99.836
X294.214Y-102.376
X294.214Y-104.916
X294.214Y-107.456
X294.214Y-109.996
X294.214Y-112.536
X294.214Y-122.696
X294.214Y-125.236
X294.214Y-127.776
X294.214Y-130.316
X294.214Y-135.396
X294.214Y-140.476
X294.214Y-143.016
X294.214Y-145.556
X294.214Y-155.716
X294.214Y-160.796
X294.214Y-170.956
X294.214Y-176.036
X294.214Y-181.116
X294.214Y-196.356
X294.214Y-198.896
X294.214Y-201.436
X294.214Y-203.976
X294.214Y-206.516
X294.214Y-209.056
X294.214Y-211.596
X294.214Y-214.136
X295.517Y-113.764
X296.335Y-152.378
X296.754Y-97.296
X296.754Y-99.836
X296.754Y-102.376
X296.754Y-104.916
X296.754Y-107.456
X296.754Y-109.996
X296.754Y-117.616
X296.754Y-120.156
X296.754Y-122.696
X296.754Y-125.236
X296.754Y-127.776
X296.754Y-130.316
X296.754Y-135.396
X296.754Y-155.716
X296.754Y-198.896
X296.754Y-201.436
X296.754Y-203.976
X296.754Y-206.516
X296.754Y-209.056
X296.754Y-211.596
X296.754Y-214.136
X299.255Y-131.571
X299.294Y-97.296
X299.294Y-99.836
X299.294Y-102.376
X299.294Y-104.916
X299.294Y-107.456
X299.294Y-109.996
X299.294Y-120.156
X299.294Y-122.696
X299.294Y-125.236
X299.294Y-127.776
X299.294Y-137.936
X299.294Y-140.476
X299.294Y-143.016
X299.294Y-145.556
X299.294Y-148.096
X299.294Y-150.636
X299.294Y-160.796
X299.294Y-163.336
X299.294Y-165.876
X299.294Y-168.416
X299.294Y-170.956
X299.294Y-176.036
X299.294Y-191.276
X299.294Y-198.896
X299.294Y-201.436
X299.294Y-203.976
X299.294Y-206.516
X299.294Y-209.056
X299.294Y-211.596
X299.294Y-214.136
X299.335Y-182.712
X301.657Y-156.94
X301.834Y-97.296
X301.834Y-99.836
X301.834Y-102.376
X301.834Y-104.916
X301.834Y-107.456
X301.834Y-109.996
X301.834Y-117.616
X301.834Y-122.696
X301.834Y-125.236
X301.834Y-127.776
X301.834Y-130.316
X301.834Y-140.476
X301.834Y-143.016
X301.834Y-145.556
X301.834Y-148.096
X301.834Y-150.636
X301.834Y-160.796
X301.834Y-163.336
X301.834Y-165.876
X301.834Y-168.416
X301.834Y-181.116
X301.834Y-183.656
X301.834Y-191.276
X301.834Y-201.436
X301.834Y-203.976
X301.834Y-206.516
X301.834Y-209.056
X301.834Y-211.596
X301.834Y-214.136
X304.374Y-97.296
X304.374Y-99.836
X304.374Y-102.376
X304.374Y-104.916
X304.374Y-107.456
X304.374Y-109.996
X304.374Y-112.536
X304.374Y-122.696
X304.374Y-125.236
X304.374Y-127.776
X304.374Y-130.316
X304.374Y-140.476
X304.374Y-143.016
X304.374Y-145.556
X304.374Y-148.096
X304.374Y-150.636
X304.374Y-160.796
X304.374Y-163.336
X304.374Y-165.876
X304.374Y-178.576
X304.374Y-193.816
X304.374Y-198.896
X304.374Y-201.436
X304.374Y-203.976
X304.374Y-206.516
X304.374Y-209.056
X304.374Y-211.596
X304.374Y-214.136
X305.334Y-170.436
X306.914Y-97.296
X306.914Y-99.836
X306.914Y-102.376
X306.914Y-104.916
X306.914Y-107.456
X306.914Y-112.536
X306.914Y-117.616
X306.914Y-122.696
X306.914Y-125.236
X306.914Y-127.776
X306.914Y-140.476
X306.914Y-143.016
X306.914Y-145.556
X306.914Y-148.096
X306.914Y-150.636
X306.914Y-160.796
X306.914Y-163.336
X306.914Y-176.036
X306.914Y-178.576
X306.914Y-181.116
X306.914Y-183.656
X306.914Y-193.816
X306.914Y-198.896
X306.914Y-201.436
X306.914Y-203.976
X306.914Y-206.516
X306.914Y-209.056
X306.914Y-211.596
X306.914Y-214.136
X309.454Y-97.296
X309.454Y-99.836
X309.454Y-102.376
X309.454Y-104.916
X309.454Y-107.456
X309.454Y-112.536
X309.454Y-117.616
X309.454Y-122.696
X309.454Y-125.236
X309.454Y-127.776
X309.454Y-132.856
X309.454Y-135.396
X309.454Y-140.476
X309.454Y-143.016
X309.454Y-160.796
X309.454Y-168.416
X309.454Y-181.116
X309.454Y-183.656
X309.454Y-186.196
X309.454Y-188.736
X309.454Y-191.276
X309.454Y-193.816
X309.454Y-196.356
X309.454Y-198.896
X309.454Y-201.436
X309.454Y-203.976
X309.454Y-206.516
X309.454Y-209.056
X309.454Y-211.596
X309.454Y-214.136
X311.994Y-97.296
X311.994Y-99.836
X311.994Y-102.376
X311.994Y-104.916
X311.994Y-107.456
X311.994Y-112.536
X311.994Y-115.076
X311.994Y-117.616
X311.994Y-122.696
X311.994Y-132.856
X311.994Y-140.476
X311.994Y-145.556
X311.994Y-153.176
X311.994Y-160.796
X311.994Y-181.116
X311.994Y-183.656
X311.994Y-186.196
X311.994Y-188.736
X311.994Y-191.276
X311.994Y-193.816
X311.994Y-196.356
X311.994Y-198.896
X311.994Y-201.436
X311.994Y-203.976
X311.994Y-206.516
X311.994Y-209.056
X311.994Y-211.596
X311.994Y-214.136
X314.534Y-97.296
X314.534Y-104.916
X314.534Y-107.456
X314.534Y-112.536
X314.534Y-115.076
X314.534Y-117.616
X314.534Y-122.696
X314.534Y-143.016
X314.534Y-145.556
X314.534Y-153.176
X314.534Y-160.796
X314.534Y-181.116
X314.534Y-183.656
X314.534Y-193.816
X314.534Y-196.356
X314.534Y-198.896
X314.534Y-201.436
X314.534Y-203.976
X314.534Y-206.516
X314.534Y-209.056
X314.534Y-211.596
X314.534Y-214.136
X317.074Y-97.296
X317.074Y-104.916
X317.074Y-127.776
X317.074Y-130.316
X317.074Y-132.856
X317.074Y-135.396
X317.074Y-140.476
X317.074Y-143.016
X317.074Y-145.556
X317.074Y-148.096
X317.074Y-153.176
X317.074Y-160.796
X317.074Y-181.116
X317.074Y-183.656
X317.074Y-193.816
X317.074Y-196.356
X317.074Y-198.896
X317.074Y-201.436
X317.074Y-203.976
X317.074Y-206.516
X317.074Y-209.056
X317.074Y-211.596
X317.074Y-214.136
X319.614Y-97.296
X319.614Y-99.836
X319.614Y-102.376
X319.614Y-130.316
X319.614Y-132.856
X319.614Y-135.396
X319.614Y-140.476
X319.614Y-143.016
X319.614Y-145.556
X319.614Y-148.096
X319.614Y-150.636
X319.614Y-160.796
X319.614Y-168.416
X319.614Y-170.956
X319.614Y-173.496
X319.614Y-181.116
X319.614Y-183.656
X319.614Y-186.196
X319.614Y-188.736
X319.614Y-191.276
X319.614Y-193.816
X319.614Y-196.356
X319.614Y-198.896
X319.614Y-201.436
X319.614Y-203.976
X319.614Y-206.516
X319.614Y-209.056
X319.614Y-211.596
X319.614Y-214.136
X320.332Y-153.099
X322.154Y-97.296
X322.154Y-99.836
X322.154Y-107.456
X322.154Y-112.536
X322.154Y-115.076
X322.154Y-170.956
X322.154Y-173.496
X322.154Y-176.036
X322.154Y-186.196
X322.154Y-188.736
X322.154Y-191.276
X322.154Y-193.816
X322.154Y-196.356
X322.154Y-198.896
X322.154Y-201.436
X322.154Y-203.976
X322.154Y-206.516
X322.154Y-209.056
X322.154Y-211.596
X322.154Y-214.136
X323.163Y-159.025
X323.363Y-120.502
X324.58Y-161.387
X324.694Y-97.296
X324.694Y-107.456
X324.694Y-109.996
X324.694Y-112.536
X324.694Y-117.616
X324.694Y-120.156
X324.694Y-127.776
X324.694Y-130.316
X324.694Y-132.856
X324.694Y-135.396
X324.694Y-148.096
X324.694Y-150.636
X324.694Y-153.176
X324.694Y-173.496
X324.694Y-176.036
X324.694Y-188.736
X324.694Y-191.276
X324.694Y-193.816
X324.694Y-196.356
X324.694Y-198.896
X324.694Y-201.436
X324.694Y-203.976
X324.694Y-206.516
X324.694Y-209.056
X324.694Y-211.596
X324.694Y-214.136
X326.33Y-138.282
X327.234Y-97.296
X327.234Y-99.836
X327.234Y-107.456
X327.234Y-109.996
X327.234Y-115.076
X327.234Y-117.616
X327.234Y-120.156
X327.234Y-127.776
X327.234Y-130.316
X327.234Y-132.856
X327.234Y-140.476
X327.234Y-145.556
X327.234Y-148.096
X327.234Y-150.636
X327.234Y-153.176
X327.234Y-155.716
X327.234Y-158.256
X327.234Y-160.796
X327.234Y-165.876
X327.234Y-168.416
X327.234Y-186.196
X327.234Y-188.736
X327.234Y-191.276
X327.234Y-193.816
X327.234Y-196.356
X327.234Y-198.896
X327.234Y-201.436
X327.234Y-203.976
X327.234Y-206.516
X327.234Y-209.056
X327.234Y-211.596
X327.234Y-214.136
X329.774Y-97.296
X329.774Y-99.836
X329.774Y-102.376
X329.774Y-112.536
X329.774Y-115.076
X329.774Y-117.616
X329.774Y-120.156
X329.774Y-122.696
X329.774Y-130.316
X329.774Y-132.856
X329.774Y-137.936
X329.774Y-140.476
X329.774Y-143.016
X329.774Y-150.636
X329.774Y-153.176
X329.774Y-155.716
X329.774Y-158.256
X329.774Y-160.796
X329.774Y-170.956
X329.774Y-181.116
X329.774Y-188.736
X329.774Y-191.276
X329.774Y-193.816
X329.774Y-196.356
X329.774Y-198.896
X329.774Y-201.436
X329.774Y-203.976
X329.774Y-206.516
X329.774Y-209.056
X329.774Y-211.596
X329.774Y-214.136
X332.314Y-97.296
X332.314Y-109.996
X332.314Y-112.536
X332.314Y-115.076
X332.314Y-117.616
X332.314Y-130.316
X332.314Y-132.856
X332.314Y-143.016
X332.314Y-148.096
X332.314Y-150.636
X332.314Y-153.176
X332.314Y-155.716
X332.314Y-158.256
X332.314Y-163.336
X332.314Y-168.416
X332.314Y-170.956
X332.314Y-173.496
X332.314Y-188.736
X332.314Y-191.276
X332.314Y-193.816
X332.314Y-196.356
X332.314Y-198.896
X332.314Y-201.436
X332.314Y-203.976
X332.314Y-206.516
X332.314Y-209.056
X332.314Y-211.596
X332.314Y-214.136
X333.725Y-138.124
X334.854Y-97.296
X334.854Y-107.456
X334.854Y-109.996
X334.854Y-112.536
X334.854Y-117.616
X334.854Y-127.776
X334.854Y-130.316
X334.854Y-132.856
X334.854Y-143.016
X334.854Y-148.096
X334.854Y-150.636
X334.854Y-163.336
X334.854Y-168.416
X334.854Y-170.956
X334.854Y-173.496
X334.854Y-183.656
X334.854Y-188.736
X334.854Y-191.276
X334.854Y-193.816
X334.854Y-196.356
X334.854Y-198.896
X334.854Y-201.436
X334.854Y-203.976
X334.854Y-206.516
X334.854Y-209.056
X334.854Y-211.596
X334.854Y-214.136
X337.394Y-97.296
X337.394Y-102.376
X337.394Y-104.916
X337.394Y-107.456
X337.394Y-109.996
X337.394Y-112.536
X337.394Y-117.616
X337.394Y-125.236
X337.394Y-127.776
X337.394Y-130.316
X337.394Y-137.936
X337.394Y-143.016
X337.394Y-145.556
X337.394Y-148.096
X337.394Y-153.176
X337.394Y-183.656
X337.394Y-186.196
X337.394Y-188.736
X337.394Y-191.276
X337.394Y-193.816
X337.394Y-196.356
X337.394Y-198.896
X337.394Y-201.436
X337.394Y-203.976
X337.394Y-206.516
X337.394Y-209.056
X337.394Y-211.596
X337.394Y-214.136
X338.108Y-167.38
X338.328Y-132.356
X338.482Y-180.033
X339.934Y-97.296
X339.934Y-102.376
X339.934Y-104.916
X339.934Y-107.456
X339.934Y-109.996
X339.934Y-112.536
X339.934Y-115.076
X339.934Y-117.616
X339.934Y-120.156
X339.934Y-125.236
X339.934Y-127.776
X339.934Y-130.316
X339.934Y-137.936
X339.934Y-140.476
X339.934Y-143.016
X339.934Y-145.556
X339.934Y-148.096
X339.934Y-150.636
X339.934Y-153.176
X339.934Y-155.716
X339.934Y-181.116
X339.934Y-183.656
X339.934Y-186.196
X339.934Y-188.736
X339.934Y-191.276
X339.934Y-193.816
X339.934Y-196.356
X339.934Y-198.896
X339.934Y-201.436
X339.934Y-203.976
X339.934Y-206.516
X339.934Y-209.056
X339.934Y-211.596
X339.934Y-214.136
X341.761Y-136.229
X342.474Y-97.296
X342.474Y-104.916
X342.474Y-107.456
X342.474Y-109.996
X342.474Y-112.536
X342.474Y-117.616
X342.474Y-120.156
X342.474Y-125.236
X342.474Y-127.776
X342.474Y-130.316
X342.474Y-158.256
X342.474Y-160.796
X342.474Y-165.876
X342.474Y-168.416
X342.474Y-173.496
X342.474Y-178.576
X342.474Y-186.196
X342.474Y-188.736
X342.474Y-191.276
X342.474Y-193.816
X342.474Y-196.356
X342.474Y-198.896
X342.474Y-201.436
X342.474Y-203.976
X342.474Y-206.516
X342.474Y-209.056
X342.474Y-211.596
X342.474Y-214.136
X345.014Y-97.296
X345.014Y-99.836
X345.014Y-107.456
X345.014Y-109.996
X345.014Y-112.536
X345.014Y-120.156
X345.014Y-127.776
X345.014Y-130.316
X345.014Y-132.856
X345.014Y-137.936
X345.014Y-140.476
X345.014Y-148.096
X345.014Y-150.636
X345.014Y-153.176
X345.014Y-158.256
X345.014Y-160.796
X345.014Y-168.416
X345.014Y-170.956
X345.014Y-173.496
X345.014Y-181.116
X345.014Y-188.736
X345.014Y-191.276
X345.014Y-193.816
X345.014Y-196.356
X345.014Y-198.896
X345.014Y-201.436
X345.014Y-203.976
X345.014Y-206.516
X345.014Y-209.056
X345.014Y-211.596
X345.014Y-214.136
X347.554Y-97.296
X347.554Y-99.836
X347.554Y-107.456
X347.554Y-109.996
X347.554Y-112.536
X347.554Y-115.076
X347.554Y-127.776
X347.554Y-130.316
X347.554Y-135.396
X347.554Y-137.936
X347.554Y-140.476
X347.554Y-145.556
X347.554Y-148.096
X347.554Y-150.636
X347.554Y-153.176
X347.554Y-158.256
X347.554Y-160.796
X347.554Y-165.876
X347.554Y-168.416
X347.554Y-170.956
X347.554Y-173.496
X347.554Y-181.116
X347.554Y-186.196
X347.554Y-188.736
X347.554Y-191.276
X347.554Y-193.816
X347.554Y-196.356
X347.554Y-198.896
X347.554Y-201.436
X347.554Y-203.976
X347.554Y-206.516
X347.554Y-209.056
X347.554Y-211.596
X347.554Y-214.136
X350.094Y-97.296
X350.094Y-99.836
X350.094Y-102.376
X350.094Y-109.996
X350.094Y-112.536
X350.094Y-117.616
X350.094Y-132.856
X350.094Y-137.936
X350.094Y-140.476
X350.094Y-143.016
X350.094Y-150.636
X350.094Y-153.176
X350.094Y-158.256
X350.094Y-160.796
X350.094Y-170.956
X350.094Y-173.496
X350.094Y-181.116
X350.094Y-188.736
X350.094Y-191.276
X350.094Y-193.816
X350.094Y-196.356
X350.094Y-198.896
X350.094Y-201.436
X350.094Y-203.976
X350.094Y-206.516
X350.094Y-209.056
X350.094Y-211.596
X350.094Y-214.136
X352.634Y-97.296
X352.634Y-107.456
X352.634Y-109.996
X352.634Y-112.536
X352.634Y-130.316
X352.634Y-132.856
X352.634Y-137.936
X352.634Y-143.016
X352.634Y-148.096
X352.634Y-150.636
X352.634Y-153.176
X352.634Y-158.256
X352.634Y-163.336
X352.634Y-168.416
X352.634Y-170.956
X352.634Y-173.496
X352.634Y-183.656
X352.634Y-188.736
X352.634Y-191.276
X352.634Y-193.816
X352.634Y-196.356
X352.634Y-198.896
X352.634Y-201.436
X352.634Y-203.976
X352.634Y-206.516
X352.634Y-209.056
X352.634Y-211.596
X352.634Y-214.136
X353.67Y-133.666
X353.684Y-239.116
X355.174Y-97.296
X355.174Y-107.456
X355.174Y-109.996
X355.174Y-112.536
X355.174Y-122.696
X355.174Y-127.776
X355.174Y-130.316
X355.174Y-143.016
X355.174Y-148.096
X355.174Y-150.636
X355.174Y-153.176
X355.174Y-163.336
X355.174Y-168.416
X355.174Y-170.956
X355.174Y-183.656
X355.174Y-188.736
X355.174Y-191.276
X355.174Y-193.816
X355.174Y-196.356
X355.174Y-198.896
X355.174Y-201.436
X355.174Y-203.976
X355.174Y-206.516
X355.174Y-209.056
X355.174Y-211.596
X355.174Y-214.136
X357.634Y-118.866
X357.714Y-107.456
X357.714Y-109.996
X357.714Y-112.536
X357.714Y-122.696
X357.714Y-125.236
X357.714Y-127.776
X357.714Y-173.496
X359.27Y-153.099
T2
X73.434Y-234.266
X73.437Y-211.402
X75.974Y-234.266
X75.977Y-211.402
X78.514Y-234.266
X78.517Y-211.402
X78.754Y-237.966
X81.054Y-211.406
X81.054Y-234.266
X83.594Y-211.406
X83.594Y-234.266
X86.134Y-211.406
X86.134Y-234.266
X88.674Y-211.406
X88.674Y-234.266
X88.914Y-237.966
X91.214Y-211.406
X91.214Y-234.266
X93.754Y-211.406
X93.754Y-234.266
X96.294Y-211.406
X96.294Y-234.266
X98.834Y-211.406
X98.834Y-234.266
X101.374Y-211.406
X101.374Y-234.266
X103.914Y-211.406
X103.914Y-234.266
X106.454Y-211.406
X106.454Y-234.266
X108.994Y-211.406
X108.994Y-234.266
X111.534Y-211.406
X111.534Y-234.266
X114.074Y-211.406
X114.074Y-234.266
X116.614Y-211.406
X116.614Y-234.266
X119.154Y-211.406
X119.154Y-234.266
X121.694Y-211.406
X121.694Y-234.266
X124.234Y-211.406
X124.234Y-234.266
X126.774Y-211.406
X126.774Y-234.266
X244.404Y-228.366
X244.404Y-231.766
X254.564Y-228.366
X254.564Y-231.766
T3
X68.174Y-115.816
X75.794Y-115.816
X80.474Y-177.066
X80.674Y-156.916
X81.174Y-136.966
X81.434Y-115.766
X88.094Y-177.066
X88.294Y-156.916
X88.794Y-136.966
X89.054Y-115.766
X97.634Y-176.566
X99.734Y-156.266
X100.224Y-136.316
X101.074Y-115.666
X104.574Y-106.016
X105.254Y-176.566
X107.354Y-156.266
X107.844Y-136.316
X108.694Y-115.666
X112.194Y-106.016
X118.084Y-166.566
X120.934Y-145.166
X123.884Y-125.916
X125.704Y-166.566
X126.624Y-105.966
X128.554Y-145.166
X128.684Y-184.416
X131.504Y-125.916
X134.244Y-105.966
X136.304Y-184.416
X139.184Y-160.166
X142.734Y-140.566
X146.234Y-120.916
X146.804Y-160.166
X150.354Y-140.566
X153.734Y-188.116
X153.854Y-120.916
X156.068Y-107.061
X158.224Y-168.516
X161.134Y-148.516
X161.354Y-188.116
X163.572Y-108.384
X164.824Y-128.816
X165.844Y-168.516
X168.754Y-148.516
X171.874Y-193.366
X172.444Y-128.816
X175.968Y-112.211
X179.494Y-193.366
X180.234Y-185.316
X183.472Y-113.534
X185.384Y-158.566
X187.854Y-185.316
X189.224Y-138.966
X192.814Y-119.466
X193.004Y-158.566
X193.434Y-209.116
X196.844Y-138.966
X200.434Y-119.466
X201.054Y-209.116
X204.334Y-213.266
X204.824Y-171.916
X211.954Y-213.266
X212.444Y-171.916
X220.434Y-209.916
X228.054Y-209.916
X230.734Y-163.916
X238.354Y-163.916
X239.084Y-200.116
X246.704Y-200.116
X247.024Y-132.316
X248.334Y-192.166
X250.634Y-151.416
X254.644Y-132.316
X254.914Y-171.066
X255.954Y-192.166
X258.254Y-151.416
X261.224Y-190.216
X262.534Y-171.066
X264.824Y-126.966
X267.384Y-146.666
X268.844Y-190.216
X271.724Y-166.516
X272.174Y-186.416
X272.444Y-126.966
X275.004Y-146.666
X279.344Y-166.516
X279.794Y-186.416
X285.074Y-185.316
X287.574Y-118.666
X289.694Y-138.076
X291.374Y-158.516
X292.694Y-185.316
X292.734Y-178.716
X295.194Y-118.666
X297.314Y-138.076
X298.994Y-158.516
X299.424Y-185.816
X300.354Y-178.716
X307.044Y-185.816
X311.574Y-164.916
X311.784Y-125.366
X313.534Y-109.566
X317.424Y-155.766
X319.194Y-164.916
X319.404Y-125.366
X321.154Y-109.566
X325.044Y-155.766
X326.974Y-135.266
X328.624Y-176.166
X334.594Y-135.266
X335.674Y-114.816
X336.244Y-176.166
X336.434Y-155.716
X338.284Y-135.266
X340.334Y-176.216
X343.294Y-114.816
X344.054Y-155.716
X345.904Y-135.266
X347.954Y-176.216
X348.634Y-155.766
X349.934Y-135.466
X350.534Y-115.516
X351.224Y-176.066
X356.254Y-155.766
X357.554Y-135.466
X358.154Y-115.516
X358.844Y-176.066
T4
X70.394Y-237.916
X72.934Y-237.916
X75.474Y-237.916
X204.859Y-162.066
X206.859Y-140.515
X206.859Y-143.055
X207.399Y-162.066
X208.674Y-158.416
X209.399Y-140.515
X209.399Y-143.055
X209.939Y-162.066
X211.214Y-158.416
X211.939Y-140.515
X211.939Y-143.055
X212.479Y-162.066
X213.754Y-158.416
X214.479Y-140.515
X214.479Y-143.055
X215.019Y-162.066
X216.294Y-158.416
X217.559Y-162.066
X220.099Y-162.066
X257.059Y-216.141
X257.059Y-218.681
X257.059Y-221.221
X265.334Y-214.266
X268.484Y-214.266
T5
X260.972Y-218.653
X260.972Y-232.853
X283.872Y-218.653
X283.872Y-222.153
X283.872Y-229.753
X283.872Y-233.153
T6
X108.844Y-100.666
X108.924Y-188.896
X185.024Y-194.256
X212.474Y-219.026
X239.924Y-194.256
X316.024Y-188.896
X316.104Y-100.666
M30
