M48
; DRILL file {KiCad 9.0.2} date 2025-06-05T16:59:55+0200
; FORMAT={-:-/ absolute / metric / decimal}
; #@! TF.CreationDate,2025-06-05T16:59:55+02:00
; #@! TF.GenerationSoftware,Kicad,Pcbnew,9.0.2
; #@! TF.FileFunction,NonPlated,1,2,NPTH
FMAT,2
METRIC
; #@! TA.AperFunction,NonPlated,NPTH,ComponentDrill
T1C1.800
; #@! TA.AperFunction,NonPlated,NPTH,ComponentDrill
T2C3.000
; #@! TA.AperFunction,NonPlated,NPTH,ComponentDrill
T3C4.000
%
G90
G05
T1
X69.43Y-125.84
X69.43Y-145.84
X69.43Y-185.84
X69.43Y-165.84
X69.526Y-105.583
X79.59Y-125.84
X79.59Y-145.84
X79.59Y-185.84
X79.59Y-165.84
X79.686Y-105.583
X89.546Y-125.848
X89.546Y-145.848
X89.546Y-165.848
X89.546Y-185.848
X89.642Y-105.59
X99.706Y-125.848
X99.706Y-145.848
X99.706Y-165.848
X99.706Y-185.848
X99.802Y-105.59
X109.607Y-174.981
X111.665Y-154.806
X113.409Y-134.883
X115.223Y-114.854
X118.078Y-196.247
X119.728Y-175.867
X121.787Y-155.692
X123.53Y-135.768
X125.344Y-115.74
X128.238Y-196.247
X130.41Y-168.553
X133.883Y-148.857
X137.356Y-129.161
X140.416Y-170.317
X140.93Y-109.39
X140.956Y-195.9
X143.889Y-150.621
X147.362Y-130.925
X148.357Y-176.186
X150.936Y-111.154
X150.962Y-197.664
X151.83Y-156.489
X155.303Y-136.793
X158.363Y-177.95
X158.855Y-117.165
X160.423Y-200.22
X161.836Y-158.254
X165.309Y-138.557
X166.721Y-181.454
X168.861Y-118.929
X169.97Y-203.695
X170.194Y-161.758
X173.685Y-141.964
X176.727Y-183.219
X177.33Y-122.24
X179.626Y-209.278
X180.2Y-163.523
X183.69Y-143.728
X187.336Y-124.004
X187.409Y-215.809
X188.93Y-174.79
X194.892Y-222.232
X198.936Y-176.554
X202.675Y-228.763
X222.237Y-228.763
X225.975Y-176.554
X230.02Y-222.232
X235.981Y-174.79
X237.502Y-215.809
X237.575Y-124.004
X241.221Y-143.728
X244.712Y-163.523
X245.285Y-209.278
X247.581Y-122.24
X248.185Y-183.219
X251.227Y-141.964
X254.717Y-161.758
X254.941Y-203.695
X256.05Y-118.929
X258.19Y-181.454
X259.603Y-138.557
X263.076Y-158.254
X264.489Y-200.22
X266.056Y-117.165
X266.549Y-177.95
X269.608Y-136.793
X273.081Y-156.489
X273.949Y-197.664
X273.975Y-111.154
X276.554Y-176.186
X277.55Y-130.925
X281.023Y-150.621
X283.955Y-195.9
X283.981Y-109.39
X284.496Y-170.317
X287.556Y-129.161
X291.029Y-148.857
X294.502Y-168.553
X296.673Y-196.247
X299.568Y-115.74
X301.382Y-135.768
X303.125Y-155.692
X305.183Y-175.867
X306.833Y-196.247
X309.689Y-114.854
X311.503Y-134.883
X313.246Y-154.806
X315.305Y-174.981
X325.109Y-105.59
X325.205Y-165.848
X325.206Y-125.848
X325.206Y-145.848
X325.206Y-185.848
X335.269Y-105.59
X335.365Y-165.848
X335.366Y-125.848
X335.366Y-145.848
X335.366Y-185.848
X345.226Y-105.583
X345.322Y-125.84
X345.322Y-145.84
X345.322Y-165.84
X345.322Y-185.84
X355.386Y-105.583
X355.482Y-125.84
X355.482Y-145.84
X355.482Y-165.84
X355.482Y-185.84
T2
X70.7Y-123.3
X70.7Y-143.3
X70.7Y-183.3
X70.7Y-163.3
X70.796Y-103.043
X77.05Y-120.76
X77.05Y-140.76
X77.05Y-180.76
X77.05Y-160.76
X77.146Y-100.503
X90.816Y-123.308
X90.816Y-143.308
X90.816Y-163.308
X90.816Y-183.308
X90.912Y-103.05
X97.166Y-120.768
X97.166Y-140.768
X97.166Y-160.768
X97.166Y-180.768
X97.262Y-100.51
X111.094Y-172.561
X113.152Y-152.387
X114.895Y-132.463
X116.709Y-112.435
X117.641Y-170.585
X119.348Y-193.707
X119.699Y-150.41
X121.442Y-130.486
X123.256Y-110.458
X125.698Y-191.167
X132.102Y-166.272
X135.575Y-146.576
X138.796Y-164.873
X139.048Y-126.88
X142.269Y-145.177
X142.622Y-107.109
X142.648Y-193.619
X145.742Y-125.481
X149.317Y-105.71
X149.343Y-192.22
X150.049Y-173.905
X153.522Y-154.208
X156.744Y-172.506
X156.995Y-134.512
X160.217Y-152.81
X160.547Y-114.884
X162.485Y-198.267
X163.69Y-133.114
X167.242Y-113.485
X168.413Y-179.174
X169.321Y-198.052
X171.886Y-159.477
X175.108Y-177.775
X175.376Y-139.683
X178.581Y-158.079
X179.022Y-119.959
X182.071Y-138.284
X182.232Y-208.149
X185.717Y-118.56
X188.729Y-210.285
X190.622Y-172.509
X197.317Y-171.11
X197.497Y-221.102
X203.994Y-223.238
X221.577Y-226.0
X224.809Y-219.973
X226.785Y-173.832
X232.597Y-170.228
X236.842Y-213.047
X238.385Y-121.282
X240.074Y-207.019
X242.031Y-141.006
X244.197Y-117.678
X245.521Y-160.801
X247.843Y-137.402
X248.994Y-180.497
X251.334Y-157.197
X254.807Y-176.893
X255.266Y-200.874
X256.86Y-116.207
X260.364Y-196.315
X260.412Y-135.835
X262.672Y-112.603
X263.885Y-155.532
X266.225Y-132.231
X267.358Y-175.228
X269.698Y-151.928
X273.171Y-171.624
X274.759Y-194.942
X274.785Y-108.432
X278.36Y-128.203
X280.572Y-191.338
X280.597Y-104.828
X281.833Y-147.899
X284.172Y-124.599
X285.306Y-167.595
X287.645Y-144.295
X291.118Y-163.991
X297.943Y-193.707
X300.611Y-113.099
X302.426Y-133.127
X304.169Y-153.051
X304.293Y-191.167
X306.227Y-173.226
X306.716Y-110.015
X308.53Y-130.043
X310.273Y-149.967
X312.331Y-170.142
X326.38Y-103.05
X326.476Y-163.308
X326.476Y-123.308
X326.476Y-143.308
X326.476Y-183.308
X332.729Y-100.51
X332.825Y-160.768
X332.826Y-120.768
X332.826Y-140.768
X332.826Y-180.768
X346.496Y-103.043
X346.592Y-123.3
X346.592Y-143.3
X346.592Y-163.3
X346.592Y-183.3
X352.846Y-100.503
X352.942Y-120.76
X352.942Y-140.76
X352.942Y-160.76
X352.942Y-180.76
T3
X74.51Y-125.84
X74.51Y-145.84
X74.51Y-185.84
X74.51Y-165.84
X74.606Y-105.583
X94.626Y-125.848
X94.626Y-145.848
X94.626Y-165.848
X94.626Y-185.848
X94.722Y-105.59
X114.668Y-175.424
X116.726Y-155.249
X118.469Y-135.325
X120.283Y-115.297
X123.158Y-196.247
X135.413Y-169.435
X138.886Y-149.739
X142.359Y-130.043
X145.933Y-110.272
X145.959Y-196.782
X153.36Y-177.068
X156.833Y-157.371
X160.306Y-137.675
X163.858Y-118.047
X165.197Y-201.957
X171.724Y-182.337
X175.197Y-162.64
X178.687Y-142.846
X182.333Y-123.122
X183.518Y-212.543
X193.933Y-175.672
X198.783Y-225.497
X226.128Y-225.497
X230.978Y-175.672
X241.394Y-212.543
X242.578Y-123.122
X246.224Y-142.846
X249.714Y-162.64
X253.187Y-182.337
X259.715Y-201.957
X261.053Y-118.047
X264.606Y-137.675
X268.078Y-157.371
X271.551Y-177.068
X278.952Y-196.782
X278.978Y-110.272
X282.553Y-130.043
X286.026Y-149.739
X289.499Y-169.435
X301.753Y-196.247
X304.628Y-115.297
X306.442Y-135.325
X308.185Y-155.249
X310.244Y-175.424
X330.19Y-105.59
X330.286Y-165.848
X330.286Y-125.848
X330.286Y-145.848
X330.286Y-185.848
X350.306Y-105.583
X350.402Y-125.84
X350.402Y-145.84
X350.402Y-165.84
X350.402Y-185.84
M30
