G04 #@! TF.GenerationSoftware,KiCad,Pcbnew,9.0.2*
G04 #@! TF.CreationDate,2025-06-05T16:59:50+02:00*
G04 #@! TF.ProjectId,KaSe,4b615365-2e6b-4696-9361-645f70636258,rev?*
G04 #@! TF.SameCoordinates,Original*
G04 #@! TF.FileFunction,Profile,NP*
%FSLAX46Y46*%
G04 Gerber Fmt 4.6, Leading zero omitted, Abs format (unit mm)*
G04 Created by KiCad (PCBNEW 9.0.2) date 2025-06-05 16:59:50*
%MOMM*%
%LPD*%
G01*
G04 APERTURE LIST*
G04 #@! TA.AperFunction,Profile*
%ADD10C,0.100000*%
G04 #@! TD*
G04 #@! TA.AperFunction,Profile*
%ADD11C,0.200000*%
G04 #@! TD*
G04 APERTURE END LIST*
D10*
X293397599Y-95415800D02*
X355724200Y-95415800D01*
X184816227Y-112116184D02*
X149352045Y-98665416D01*
X240202045Y-112116184D02*
X275666227Y-98665416D01*
X209634136Y-130115800D02*
G75*
G02*
X204634100Y-125115800I-36J5000000D01*
G01*
X275666227Y-98665416D02*
G75*
G02*
X293397599Y-95415800I17731373J-46750384D01*
G01*
X202634136Y-115365800D02*
G75*
G02*
X204634100Y-117365800I-36J-2000000D01*
G01*
D11*
X63974172Y-100415800D02*
G75*
G02*
X68974172Y-95415802I4999978J20D01*
G01*
X68974172Y-95415800D02*
X131620673Y-95415800D01*
D10*
X202547599Y-115365800D02*
G75*
G02*
X184816227Y-112116184I1J50000000D01*
G01*
D11*
X63974172Y-235415800D02*
X63974172Y-100415800D01*
X360724172Y-100415800D02*
X360724172Y-235415800D01*
D10*
X220384136Y-125115800D02*
X220384136Y-117365800D01*
X202547600Y-115365800D02*
X202634136Y-115365800D01*
D11*
X355724172Y-240415800D02*
X68974172Y-240415800D01*
D10*
X289034136Y-215815800D02*
X356034136Y-215815800D01*
X356034136Y-235815800D01*
X289034136Y-235815800D01*
X289034136Y-215815800D01*
D11*
X68974172Y-240415800D02*
G75*
G02*
X63974200Y-235415800I28J5000000D01*
G01*
D10*
X220384136Y-125115800D02*
G75*
G02*
X215384136Y-130115736I-4999936J0D01*
G01*
X220384136Y-117365800D02*
G75*
G02*
X222384136Y-115365836I1999964J0D01*
G01*
X240202045Y-112116184D02*
G75*
G02*
X222470673Y-115365806I-17731445J46750684D01*
G01*
X209634136Y-130115800D02*
X215384136Y-130115800D01*
X204634136Y-117365800D02*
X204634136Y-125115800D01*
D11*
X360724172Y-235415800D02*
G75*
G02*
X355724172Y-240415772I-4999972J0D01*
G01*
D10*
X222384136Y-115365800D02*
X222470673Y-115365800D01*
D11*
X355724172Y-95415800D02*
G75*
G02*
X360724200Y-100415800I28J-5000000D01*
G01*
X131620673Y-95415800D02*
G75*
G02*
X149352049Y-98665407I27J-50000000D01*
G01*
M02*
