G04 #@! TF.GenerationSoftware,KiCad,Pcbnew,9.0.1*
G04 #@! TF.CreationDate,2025-05-03T10:40:41+02:00*
G04 #@! TF.ProjectId,Atreus62,41747265-7573-4363-922e-6b696361645f,rev?*
G04 #@! TF.SameCoordinates,Original*
G04 #@! TF.FileFunction,Legend,Bot*
G04 #@! TF.FilePolarity,Positive*
%FSLAX46Y46*%
G04 Gerber Fmt 4.6, Leading zero omitted, Abs format (unit mm)*
G04 Created by KiCad (PCBNEW 9.0.1) date 2025-05-03 10:40:41*
%MOMM*%
%LPD*%
G01*
G04 APERTURE LIST*
%ADD10C,0.300000*%
%ADD11C,0.150000*%
%ADD12C,0.120000*%
G04 APERTURE END LIST*
D10*
X217152742Y-207514128D02*
X216652742Y-209014128D01*
X216652742Y-209014128D02*
X216152742Y-207514128D01*
X215652743Y-208871271D02*
X215581314Y-208942700D01*
X215581314Y-208942700D02*
X215652743Y-209014128D01*
X215652743Y-209014128D02*
X215724171Y-208942700D01*
X215724171Y-208942700D02*
X215652743Y-208871271D01*
X215652743Y-208871271D02*
X215652743Y-209014128D01*
X213009885Y-209014128D02*
X213867028Y-209014128D01*
X213438457Y-209014128D02*
X213438457Y-207514128D01*
X213438457Y-207514128D02*
X213581314Y-207728414D01*
X213581314Y-207728414D02*
X213724171Y-207871271D01*
X213724171Y-207871271D02*
X213867028Y-207942700D01*
X212367029Y-208871271D02*
X212295600Y-208942700D01*
X212295600Y-208942700D02*
X212367029Y-209014128D01*
X212367029Y-209014128D02*
X212438457Y-208942700D01*
X212438457Y-208942700D02*
X212367029Y-208871271D01*
X212367029Y-208871271D02*
X212367029Y-209014128D01*
X210867028Y-209014128D02*
X211724171Y-209014128D01*
X211295600Y-209014128D02*
X211295600Y-207514128D01*
X211295600Y-207514128D02*
X211438457Y-207728414D01*
X211438457Y-207728414D02*
X211581314Y-207871271D01*
X211581314Y-207871271D02*
X211724171Y-207942700D01*
X210224172Y-208871271D02*
X210152743Y-208942700D01*
X210152743Y-208942700D02*
X210224172Y-209014128D01*
X210224172Y-209014128D02*
X210295600Y-208942700D01*
X210295600Y-208942700D02*
X210224172Y-208871271D01*
X210224172Y-208871271D02*
X210224172Y-209014128D01*
X209224171Y-207514128D02*
X209081314Y-207514128D01*
X209081314Y-207514128D02*
X208938457Y-207585557D01*
X208938457Y-207585557D02*
X208867029Y-207656985D01*
X208867029Y-207656985D02*
X208795600Y-207799842D01*
X208795600Y-207799842D02*
X208724171Y-208085557D01*
X208724171Y-208085557D02*
X208724171Y-208442700D01*
X208724171Y-208442700D02*
X208795600Y-208728414D01*
X208795600Y-208728414D02*
X208867029Y-208871271D01*
X208867029Y-208871271D02*
X208938457Y-208942700D01*
X208938457Y-208942700D02*
X209081314Y-209014128D01*
X209081314Y-209014128D02*
X209224171Y-209014128D01*
X209224171Y-209014128D02*
X209367029Y-208942700D01*
X209367029Y-208942700D02*
X209438457Y-208871271D01*
X209438457Y-208871271D02*
X209509886Y-208728414D01*
X209509886Y-208728414D02*
X209581314Y-208442700D01*
X209581314Y-208442700D02*
X209581314Y-208085557D01*
X209581314Y-208085557D02*
X209509886Y-207799842D01*
X209509886Y-207799842D02*
X209438457Y-207656985D01*
X209438457Y-207656985D02*
X209367029Y-207585557D01*
X209367029Y-207585557D02*
X209224171Y-207514128D01*
X208152743Y-208585557D02*
X207438458Y-208585557D01*
X208295600Y-209014128D02*
X207795600Y-207514128D01*
X207795600Y-207514128D02*
X207295600Y-209014128D01*
D11*
X85422230Y-102950619D02*
X85422230Y-101950619D01*
X85422230Y-101950619D02*
X85184135Y-101950619D01*
X85184135Y-101950619D02*
X85041278Y-101998238D01*
X85041278Y-101998238D02*
X84946040Y-102093476D01*
X84946040Y-102093476D02*
X84898421Y-102188714D01*
X84898421Y-102188714D02*
X84850802Y-102379190D01*
X84850802Y-102379190D02*
X84850802Y-102522047D01*
X84850802Y-102522047D02*
X84898421Y-102712523D01*
X84898421Y-102712523D02*
X84946040Y-102807761D01*
X84946040Y-102807761D02*
X85041278Y-102903000D01*
X85041278Y-102903000D02*
X85184135Y-102950619D01*
X85184135Y-102950619D02*
X85422230Y-102950619D01*
X83898421Y-102950619D02*
X84469849Y-102950619D01*
X84184135Y-102950619D02*
X84184135Y-101950619D01*
X84184135Y-101950619D02*
X84279373Y-102093476D01*
X84279373Y-102093476D02*
X84374611Y-102188714D01*
X84374611Y-102188714D02*
X84469849Y-102236333D01*
X85422230Y-123200619D02*
X85422230Y-122200619D01*
X85422230Y-122200619D02*
X85184135Y-122200619D01*
X85184135Y-122200619D02*
X85041278Y-122248238D01*
X85041278Y-122248238D02*
X84946040Y-122343476D01*
X84946040Y-122343476D02*
X84898421Y-122438714D01*
X84898421Y-122438714D02*
X84850802Y-122629190D01*
X84850802Y-122629190D02*
X84850802Y-122772047D01*
X84850802Y-122772047D02*
X84898421Y-122962523D01*
X84898421Y-122962523D02*
X84946040Y-123057761D01*
X84946040Y-123057761D02*
X85041278Y-123153000D01*
X85041278Y-123153000D02*
X85184135Y-123200619D01*
X85184135Y-123200619D02*
X85422230Y-123200619D01*
X84469849Y-122295857D02*
X84422230Y-122248238D01*
X84422230Y-122248238D02*
X84326992Y-122200619D01*
X84326992Y-122200619D02*
X84088897Y-122200619D01*
X84088897Y-122200619D02*
X83993659Y-122248238D01*
X83993659Y-122248238D02*
X83946040Y-122295857D01*
X83946040Y-122295857D02*
X83898421Y-122391095D01*
X83898421Y-122391095D02*
X83898421Y-122486333D01*
X83898421Y-122486333D02*
X83946040Y-122629190D01*
X83946040Y-122629190D02*
X84517468Y-123200619D01*
X84517468Y-123200619D02*
X83898421Y-123200619D01*
X85422230Y-143190619D02*
X85422230Y-142190619D01*
X85422230Y-142190619D02*
X85184135Y-142190619D01*
X85184135Y-142190619D02*
X85041278Y-142238238D01*
X85041278Y-142238238D02*
X84946040Y-142333476D01*
X84946040Y-142333476D02*
X84898421Y-142428714D01*
X84898421Y-142428714D02*
X84850802Y-142619190D01*
X84850802Y-142619190D02*
X84850802Y-142762047D01*
X84850802Y-142762047D02*
X84898421Y-142952523D01*
X84898421Y-142952523D02*
X84946040Y-143047761D01*
X84946040Y-143047761D02*
X85041278Y-143143000D01*
X85041278Y-143143000D02*
X85184135Y-143190619D01*
X85184135Y-143190619D02*
X85422230Y-143190619D01*
X84517468Y-142190619D02*
X83898421Y-142190619D01*
X83898421Y-142190619D02*
X84231754Y-142571571D01*
X84231754Y-142571571D02*
X84088897Y-142571571D01*
X84088897Y-142571571D02*
X83993659Y-142619190D01*
X83993659Y-142619190D02*
X83946040Y-142666809D01*
X83946040Y-142666809D02*
X83898421Y-142762047D01*
X83898421Y-142762047D02*
X83898421Y-143000142D01*
X83898421Y-143000142D02*
X83946040Y-143095380D01*
X83946040Y-143095380D02*
X83993659Y-143143000D01*
X83993659Y-143143000D02*
X84088897Y-143190619D01*
X84088897Y-143190619D02*
X84374611Y-143190619D01*
X84374611Y-143190619D02*
X84469849Y-143143000D01*
X84469849Y-143143000D02*
X84517468Y-143095380D01*
X85422230Y-163190619D02*
X85422230Y-162190619D01*
X85422230Y-162190619D02*
X85184135Y-162190619D01*
X85184135Y-162190619D02*
X85041278Y-162238238D01*
X85041278Y-162238238D02*
X84946040Y-162333476D01*
X84946040Y-162333476D02*
X84898421Y-162428714D01*
X84898421Y-162428714D02*
X84850802Y-162619190D01*
X84850802Y-162619190D02*
X84850802Y-162762047D01*
X84850802Y-162762047D02*
X84898421Y-162952523D01*
X84898421Y-162952523D02*
X84946040Y-163047761D01*
X84946040Y-163047761D02*
X85041278Y-163143000D01*
X85041278Y-163143000D02*
X85184135Y-163190619D01*
X85184135Y-163190619D02*
X85422230Y-163190619D01*
X83993659Y-162523952D02*
X83993659Y-163190619D01*
X84231754Y-162143000D02*
X84469849Y-162857285D01*
X84469849Y-162857285D02*
X83850802Y-162857285D01*
X85422230Y-183200619D02*
X85422230Y-182200619D01*
X85422230Y-182200619D02*
X85184135Y-182200619D01*
X85184135Y-182200619D02*
X85041278Y-182248238D01*
X85041278Y-182248238D02*
X84946040Y-182343476D01*
X84946040Y-182343476D02*
X84898421Y-182438714D01*
X84898421Y-182438714D02*
X84850802Y-182629190D01*
X84850802Y-182629190D02*
X84850802Y-182772047D01*
X84850802Y-182772047D02*
X84898421Y-182962523D01*
X84898421Y-182962523D02*
X84946040Y-183057761D01*
X84946040Y-183057761D02*
X85041278Y-183153000D01*
X85041278Y-183153000D02*
X85184135Y-183200619D01*
X85184135Y-183200619D02*
X85422230Y-183200619D01*
X83946040Y-182200619D02*
X84422230Y-182200619D01*
X84422230Y-182200619D02*
X84469849Y-182676809D01*
X84469849Y-182676809D02*
X84422230Y-182629190D01*
X84422230Y-182629190D02*
X84326992Y-182581571D01*
X84326992Y-182581571D02*
X84088897Y-182581571D01*
X84088897Y-182581571D02*
X83993659Y-182629190D01*
X83993659Y-182629190D02*
X83946040Y-182676809D01*
X83946040Y-182676809D02*
X83898421Y-182772047D01*
X83898421Y-182772047D02*
X83898421Y-183010142D01*
X83898421Y-183010142D02*
X83946040Y-183105380D01*
X83946040Y-183105380D02*
X83993659Y-183153000D01*
X83993659Y-183153000D02*
X84088897Y-183200619D01*
X84088897Y-183200619D02*
X84326992Y-183200619D01*
X84326992Y-183200619D02*
X84422230Y-183153000D01*
X84422230Y-183153000D02*
X84469849Y-183105380D01*
X105262230Y-107390619D02*
X105262230Y-106390619D01*
X105262230Y-106390619D02*
X105024135Y-106390619D01*
X105024135Y-106390619D02*
X104881278Y-106438238D01*
X104881278Y-106438238D02*
X104786040Y-106533476D01*
X104786040Y-106533476D02*
X104738421Y-106628714D01*
X104738421Y-106628714D02*
X104690802Y-106819190D01*
X104690802Y-106819190D02*
X104690802Y-106962047D01*
X104690802Y-106962047D02*
X104738421Y-107152523D01*
X104738421Y-107152523D02*
X104786040Y-107247761D01*
X104786040Y-107247761D02*
X104881278Y-107343000D01*
X104881278Y-107343000D02*
X105024135Y-107390619D01*
X105024135Y-107390619D02*
X105262230Y-107390619D01*
X103833659Y-106390619D02*
X104024135Y-106390619D01*
X104024135Y-106390619D02*
X104119373Y-106438238D01*
X104119373Y-106438238D02*
X104166992Y-106485857D01*
X104166992Y-106485857D02*
X104262230Y-106628714D01*
X104262230Y-106628714D02*
X104309849Y-106819190D01*
X104309849Y-106819190D02*
X104309849Y-107200142D01*
X104309849Y-107200142D02*
X104262230Y-107295380D01*
X104262230Y-107295380D02*
X104214611Y-107343000D01*
X104214611Y-107343000D02*
X104119373Y-107390619D01*
X104119373Y-107390619D02*
X103928897Y-107390619D01*
X103928897Y-107390619D02*
X103833659Y-107343000D01*
X103833659Y-107343000D02*
X103786040Y-107295380D01*
X103786040Y-107295380D02*
X103738421Y-107200142D01*
X103738421Y-107200142D02*
X103738421Y-106962047D01*
X103738421Y-106962047D02*
X103786040Y-106866809D01*
X103786040Y-106866809D02*
X103833659Y-106819190D01*
X103833659Y-106819190D02*
X103928897Y-106771571D01*
X103928897Y-106771571D02*
X104119373Y-106771571D01*
X104119373Y-106771571D02*
X104214611Y-106819190D01*
X104214611Y-106819190D02*
X104262230Y-106866809D01*
X104262230Y-106866809D02*
X104309849Y-106962047D01*
X106752230Y-123200619D02*
X106752230Y-122200619D01*
X106752230Y-122200619D02*
X106514135Y-122200619D01*
X106514135Y-122200619D02*
X106371278Y-122248238D01*
X106371278Y-122248238D02*
X106276040Y-122343476D01*
X106276040Y-122343476D02*
X106228421Y-122438714D01*
X106228421Y-122438714D02*
X106180802Y-122629190D01*
X106180802Y-122629190D02*
X106180802Y-122772047D01*
X106180802Y-122772047D02*
X106228421Y-122962523D01*
X106228421Y-122962523D02*
X106276040Y-123057761D01*
X106276040Y-123057761D02*
X106371278Y-123153000D01*
X106371278Y-123153000D02*
X106514135Y-123200619D01*
X106514135Y-123200619D02*
X106752230Y-123200619D01*
X105847468Y-122200619D02*
X105180802Y-122200619D01*
X105180802Y-122200619D02*
X105609373Y-123200619D01*
X106722230Y-143240619D02*
X106722230Y-142240619D01*
X106722230Y-142240619D02*
X106484135Y-142240619D01*
X106484135Y-142240619D02*
X106341278Y-142288238D01*
X106341278Y-142288238D02*
X106246040Y-142383476D01*
X106246040Y-142383476D02*
X106198421Y-142478714D01*
X106198421Y-142478714D02*
X106150802Y-142669190D01*
X106150802Y-142669190D02*
X106150802Y-142812047D01*
X106150802Y-142812047D02*
X106198421Y-143002523D01*
X106198421Y-143002523D02*
X106246040Y-143097761D01*
X106246040Y-143097761D02*
X106341278Y-143193000D01*
X106341278Y-143193000D02*
X106484135Y-143240619D01*
X106484135Y-143240619D02*
X106722230Y-143240619D01*
X105579373Y-142669190D02*
X105674611Y-142621571D01*
X105674611Y-142621571D02*
X105722230Y-142573952D01*
X105722230Y-142573952D02*
X105769849Y-142478714D01*
X105769849Y-142478714D02*
X105769849Y-142431095D01*
X105769849Y-142431095D02*
X105722230Y-142335857D01*
X105722230Y-142335857D02*
X105674611Y-142288238D01*
X105674611Y-142288238D02*
X105579373Y-142240619D01*
X105579373Y-142240619D02*
X105388897Y-142240619D01*
X105388897Y-142240619D02*
X105293659Y-142288238D01*
X105293659Y-142288238D02*
X105246040Y-142335857D01*
X105246040Y-142335857D02*
X105198421Y-142431095D01*
X105198421Y-142431095D02*
X105198421Y-142478714D01*
X105198421Y-142478714D02*
X105246040Y-142573952D01*
X105246040Y-142573952D02*
X105293659Y-142621571D01*
X105293659Y-142621571D02*
X105388897Y-142669190D01*
X105388897Y-142669190D02*
X105579373Y-142669190D01*
X105579373Y-142669190D02*
X105674611Y-142716809D01*
X105674611Y-142716809D02*
X105722230Y-142764428D01*
X105722230Y-142764428D02*
X105769849Y-142859666D01*
X105769849Y-142859666D02*
X105769849Y-143050142D01*
X105769849Y-143050142D02*
X105722230Y-143145380D01*
X105722230Y-143145380D02*
X105674611Y-143193000D01*
X105674611Y-143193000D02*
X105579373Y-143240619D01*
X105579373Y-143240619D02*
X105388897Y-143240619D01*
X105388897Y-143240619D02*
X105293659Y-143193000D01*
X105293659Y-143193000D02*
X105246040Y-143145380D01*
X105246040Y-143145380D02*
X105198421Y-143050142D01*
X105198421Y-143050142D02*
X105198421Y-142859666D01*
X105198421Y-142859666D02*
X105246040Y-142764428D01*
X105246040Y-142764428D02*
X105293659Y-142716809D01*
X105293659Y-142716809D02*
X105388897Y-142669190D01*
X106704730Y-163180619D02*
X106704730Y-162180619D01*
X106704730Y-162180619D02*
X106466635Y-162180619D01*
X106466635Y-162180619D02*
X106323778Y-162228238D01*
X106323778Y-162228238D02*
X106228540Y-162323476D01*
X106228540Y-162323476D02*
X106180921Y-162418714D01*
X106180921Y-162418714D02*
X106133302Y-162609190D01*
X106133302Y-162609190D02*
X106133302Y-162752047D01*
X106133302Y-162752047D02*
X106180921Y-162942523D01*
X106180921Y-162942523D02*
X106228540Y-163037761D01*
X106228540Y-163037761D02*
X106323778Y-163133000D01*
X106323778Y-163133000D02*
X106466635Y-163180619D01*
X106466635Y-163180619D02*
X106704730Y-163180619D01*
X105657111Y-163180619D02*
X105466635Y-163180619D01*
X105466635Y-163180619D02*
X105371397Y-163133000D01*
X105371397Y-163133000D02*
X105323778Y-163085380D01*
X105323778Y-163085380D02*
X105228540Y-162942523D01*
X105228540Y-162942523D02*
X105180921Y-162752047D01*
X105180921Y-162752047D02*
X105180921Y-162371095D01*
X105180921Y-162371095D02*
X105228540Y-162275857D01*
X105228540Y-162275857D02*
X105276159Y-162228238D01*
X105276159Y-162228238D02*
X105371397Y-162180619D01*
X105371397Y-162180619D02*
X105561873Y-162180619D01*
X105561873Y-162180619D02*
X105657111Y-162228238D01*
X105657111Y-162228238D02*
X105704730Y-162275857D01*
X105704730Y-162275857D02*
X105752349Y-162371095D01*
X105752349Y-162371095D02*
X105752349Y-162609190D01*
X105752349Y-162609190D02*
X105704730Y-162704428D01*
X105704730Y-162704428D02*
X105657111Y-162752047D01*
X105657111Y-162752047D02*
X105561873Y-162799666D01*
X105561873Y-162799666D02*
X105371397Y-162799666D01*
X105371397Y-162799666D02*
X105276159Y-162752047D01*
X105276159Y-162752047D02*
X105228540Y-162704428D01*
X105228540Y-162704428D02*
X105180921Y-162609190D01*
X107200921Y-183150619D02*
X107200921Y-182150619D01*
X107200921Y-182150619D02*
X106962826Y-182150619D01*
X106962826Y-182150619D02*
X106819969Y-182198238D01*
X106819969Y-182198238D02*
X106724731Y-182293476D01*
X106724731Y-182293476D02*
X106677112Y-182388714D01*
X106677112Y-182388714D02*
X106629493Y-182579190D01*
X106629493Y-182579190D02*
X106629493Y-182722047D01*
X106629493Y-182722047D02*
X106677112Y-182912523D01*
X106677112Y-182912523D02*
X106724731Y-183007761D01*
X106724731Y-183007761D02*
X106819969Y-183103000D01*
X106819969Y-183103000D02*
X106962826Y-183150619D01*
X106962826Y-183150619D02*
X107200921Y-183150619D01*
X105677112Y-183150619D02*
X106248540Y-183150619D01*
X105962826Y-183150619D02*
X105962826Y-182150619D01*
X105962826Y-182150619D02*
X106058064Y-182293476D01*
X106058064Y-182293476D02*
X106153302Y-182388714D01*
X106153302Y-182388714D02*
X106248540Y-182436333D01*
X105058064Y-182150619D02*
X104962826Y-182150619D01*
X104962826Y-182150619D02*
X104867588Y-182198238D01*
X104867588Y-182198238D02*
X104819969Y-182245857D01*
X104819969Y-182245857D02*
X104772350Y-182341095D01*
X104772350Y-182341095D02*
X104724731Y-182531571D01*
X104724731Y-182531571D02*
X104724731Y-182769666D01*
X104724731Y-182769666D02*
X104772350Y-182960142D01*
X104772350Y-182960142D02*
X104819969Y-183055380D01*
X104819969Y-183055380D02*
X104867588Y-183103000D01*
X104867588Y-183103000D02*
X104962826Y-183150619D01*
X104962826Y-183150619D02*
X105058064Y-183150619D01*
X105058064Y-183150619D02*
X105153302Y-183103000D01*
X105153302Y-183103000D02*
X105200921Y-183055380D01*
X105200921Y-183055380D02*
X105248540Y-182960142D01*
X105248540Y-182960142D02*
X105296159Y-182769666D01*
X105296159Y-182769666D02*
X105296159Y-182531571D01*
X105296159Y-182531571D02*
X105248540Y-182341095D01*
X105248540Y-182341095D02*
X105200921Y-182245857D01*
X105200921Y-182245857D02*
X105153302Y-182198238D01*
X105153302Y-182198238D02*
X105058064Y-182150619D01*
X132900921Y-113130619D02*
X132900921Y-112130619D01*
X132900921Y-112130619D02*
X132662826Y-112130619D01*
X132662826Y-112130619D02*
X132519969Y-112178238D01*
X132519969Y-112178238D02*
X132424731Y-112273476D01*
X132424731Y-112273476D02*
X132377112Y-112368714D01*
X132377112Y-112368714D02*
X132329493Y-112559190D01*
X132329493Y-112559190D02*
X132329493Y-112702047D01*
X132329493Y-112702047D02*
X132377112Y-112892523D01*
X132377112Y-112892523D02*
X132424731Y-112987761D01*
X132424731Y-112987761D02*
X132519969Y-113083000D01*
X132519969Y-113083000D02*
X132662826Y-113130619D01*
X132662826Y-113130619D02*
X132900921Y-113130619D01*
X131377112Y-113130619D02*
X131948540Y-113130619D01*
X131662826Y-113130619D02*
X131662826Y-112130619D01*
X131662826Y-112130619D02*
X131758064Y-112273476D01*
X131758064Y-112273476D02*
X131853302Y-112368714D01*
X131853302Y-112368714D02*
X131948540Y-112416333D01*
X130424731Y-113130619D02*
X130996159Y-113130619D01*
X130710445Y-113130619D02*
X130710445Y-112130619D01*
X130710445Y-112130619D02*
X130805683Y-112273476D01*
X130805683Y-112273476D02*
X130900921Y-112368714D01*
X130900921Y-112368714D02*
X130996159Y-112416333D01*
X131120921Y-133280619D02*
X131120921Y-132280619D01*
X131120921Y-132280619D02*
X130882826Y-132280619D01*
X130882826Y-132280619D02*
X130739969Y-132328238D01*
X130739969Y-132328238D02*
X130644731Y-132423476D01*
X130644731Y-132423476D02*
X130597112Y-132518714D01*
X130597112Y-132518714D02*
X130549493Y-132709190D01*
X130549493Y-132709190D02*
X130549493Y-132852047D01*
X130549493Y-132852047D02*
X130597112Y-133042523D01*
X130597112Y-133042523D02*
X130644731Y-133137761D01*
X130644731Y-133137761D02*
X130739969Y-133233000D01*
X130739969Y-133233000D02*
X130882826Y-133280619D01*
X130882826Y-133280619D02*
X131120921Y-133280619D01*
X129597112Y-133280619D02*
X130168540Y-133280619D01*
X129882826Y-133280619D02*
X129882826Y-132280619D01*
X129882826Y-132280619D02*
X129978064Y-132423476D01*
X129978064Y-132423476D02*
X130073302Y-132518714D01*
X130073302Y-132518714D02*
X130168540Y-132566333D01*
X129216159Y-132375857D02*
X129168540Y-132328238D01*
X129168540Y-132328238D02*
X129073302Y-132280619D01*
X129073302Y-132280619D02*
X128835207Y-132280619D01*
X128835207Y-132280619D02*
X128739969Y-132328238D01*
X128739969Y-132328238D02*
X128692350Y-132375857D01*
X128692350Y-132375857D02*
X128644731Y-132471095D01*
X128644731Y-132471095D02*
X128644731Y-132566333D01*
X128644731Y-132566333D02*
X128692350Y-132709190D01*
X128692350Y-132709190D02*
X129263778Y-133280619D01*
X129263778Y-133280619D02*
X128644731Y-133280619D01*
X129748421Y-153050619D02*
X129748421Y-152050619D01*
X129748421Y-152050619D02*
X129510326Y-152050619D01*
X129510326Y-152050619D02*
X129367469Y-152098238D01*
X129367469Y-152098238D02*
X129272231Y-152193476D01*
X129272231Y-152193476D02*
X129224612Y-152288714D01*
X129224612Y-152288714D02*
X129176993Y-152479190D01*
X129176993Y-152479190D02*
X129176993Y-152622047D01*
X129176993Y-152622047D02*
X129224612Y-152812523D01*
X129224612Y-152812523D02*
X129272231Y-152907761D01*
X129272231Y-152907761D02*
X129367469Y-153003000D01*
X129367469Y-153003000D02*
X129510326Y-153050619D01*
X129510326Y-153050619D02*
X129748421Y-153050619D01*
X128224612Y-153050619D02*
X128796040Y-153050619D01*
X128510326Y-153050619D02*
X128510326Y-152050619D01*
X128510326Y-152050619D02*
X128605564Y-152193476D01*
X128605564Y-152193476D02*
X128700802Y-152288714D01*
X128700802Y-152288714D02*
X128796040Y-152336333D01*
X127891278Y-152050619D02*
X127272231Y-152050619D01*
X127272231Y-152050619D02*
X127605564Y-152431571D01*
X127605564Y-152431571D02*
X127462707Y-152431571D01*
X127462707Y-152431571D02*
X127367469Y-152479190D01*
X127367469Y-152479190D02*
X127319850Y-152526809D01*
X127319850Y-152526809D02*
X127272231Y-152622047D01*
X127272231Y-152622047D02*
X127272231Y-152860142D01*
X127272231Y-152860142D02*
X127319850Y-152955380D01*
X127319850Y-152955380D02*
X127367469Y-153003000D01*
X127367469Y-153003000D02*
X127462707Y-153050619D01*
X127462707Y-153050619D02*
X127748421Y-153050619D01*
X127748421Y-153050619D02*
X127843659Y-153003000D01*
X127843659Y-153003000D02*
X127891278Y-152955380D01*
X126980921Y-173310619D02*
X126980921Y-172310619D01*
X126980921Y-172310619D02*
X126742826Y-172310619D01*
X126742826Y-172310619D02*
X126599969Y-172358238D01*
X126599969Y-172358238D02*
X126504731Y-172453476D01*
X126504731Y-172453476D02*
X126457112Y-172548714D01*
X126457112Y-172548714D02*
X126409493Y-172739190D01*
X126409493Y-172739190D02*
X126409493Y-172882047D01*
X126409493Y-172882047D02*
X126457112Y-173072523D01*
X126457112Y-173072523D02*
X126504731Y-173167761D01*
X126504731Y-173167761D02*
X126599969Y-173263000D01*
X126599969Y-173263000D02*
X126742826Y-173310619D01*
X126742826Y-173310619D02*
X126980921Y-173310619D01*
X125457112Y-173310619D02*
X126028540Y-173310619D01*
X125742826Y-173310619D02*
X125742826Y-172310619D01*
X125742826Y-172310619D02*
X125838064Y-172453476D01*
X125838064Y-172453476D02*
X125933302Y-172548714D01*
X125933302Y-172548714D02*
X126028540Y-172596333D01*
X124599969Y-172643952D02*
X124599969Y-173310619D01*
X124838064Y-172263000D02*
X125076159Y-172977285D01*
X125076159Y-172977285D02*
X124457112Y-172977285D01*
X135440921Y-193550619D02*
X135440921Y-192550619D01*
X135440921Y-192550619D02*
X135202826Y-192550619D01*
X135202826Y-192550619D02*
X135059969Y-192598238D01*
X135059969Y-192598238D02*
X134964731Y-192693476D01*
X134964731Y-192693476D02*
X134917112Y-192788714D01*
X134917112Y-192788714D02*
X134869493Y-192979190D01*
X134869493Y-192979190D02*
X134869493Y-193122047D01*
X134869493Y-193122047D02*
X134917112Y-193312523D01*
X134917112Y-193312523D02*
X134964731Y-193407761D01*
X134964731Y-193407761D02*
X135059969Y-193503000D01*
X135059969Y-193503000D02*
X135202826Y-193550619D01*
X135202826Y-193550619D02*
X135440921Y-193550619D01*
X133917112Y-193550619D02*
X134488540Y-193550619D01*
X134202826Y-193550619D02*
X134202826Y-192550619D01*
X134202826Y-192550619D02*
X134298064Y-192693476D01*
X134298064Y-192693476D02*
X134393302Y-192788714D01*
X134393302Y-192788714D02*
X134488540Y-192836333D01*
X133012350Y-192550619D02*
X133488540Y-192550619D01*
X133488540Y-192550619D02*
X133536159Y-193026809D01*
X133536159Y-193026809D02*
X133488540Y-192979190D01*
X133488540Y-192979190D02*
X133393302Y-192931571D01*
X133393302Y-192931571D02*
X133155207Y-192931571D01*
X133155207Y-192931571D02*
X133059969Y-192979190D01*
X133059969Y-192979190D02*
X133012350Y-193026809D01*
X133012350Y-193026809D02*
X132964731Y-193122047D01*
X132964731Y-193122047D02*
X132964731Y-193360142D01*
X132964731Y-193360142D02*
X133012350Y-193455380D01*
X133012350Y-193455380D02*
X133059969Y-193503000D01*
X133059969Y-193503000D02*
X133155207Y-193550619D01*
X133155207Y-193550619D02*
X133393302Y-193550619D01*
X133393302Y-193550619D02*
X133488540Y-193503000D01*
X133488540Y-193503000D02*
X133536159Y-193455380D01*
X156530921Y-113120619D02*
X156530921Y-112120619D01*
X156530921Y-112120619D02*
X156292826Y-112120619D01*
X156292826Y-112120619D02*
X156149969Y-112168238D01*
X156149969Y-112168238D02*
X156054731Y-112263476D01*
X156054731Y-112263476D02*
X156007112Y-112358714D01*
X156007112Y-112358714D02*
X155959493Y-112549190D01*
X155959493Y-112549190D02*
X155959493Y-112692047D01*
X155959493Y-112692047D02*
X156007112Y-112882523D01*
X156007112Y-112882523D02*
X156054731Y-112977761D01*
X156054731Y-112977761D02*
X156149969Y-113073000D01*
X156149969Y-113073000D02*
X156292826Y-113120619D01*
X156292826Y-113120619D02*
X156530921Y-113120619D01*
X155007112Y-113120619D02*
X155578540Y-113120619D01*
X155292826Y-113120619D02*
X155292826Y-112120619D01*
X155292826Y-112120619D02*
X155388064Y-112263476D01*
X155388064Y-112263476D02*
X155483302Y-112358714D01*
X155483302Y-112358714D02*
X155578540Y-112406333D01*
X154149969Y-112120619D02*
X154340445Y-112120619D01*
X154340445Y-112120619D02*
X154435683Y-112168238D01*
X154435683Y-112168238D02*
X154483302Y-112215857D01*
X154483302Y-112215857D02*
X154578540Y-112358714D01*
X154578540Y-112358714D02*
X154626159Y-112549190D01*
X154626159Y-112549190D02*
X154626159Y-112930142D01*
X154626159Y-112930142D02*
X154578540Y-113025380D01*
X154578540Y-113025380D02*
X154530921Y-113073000D01*
X154530921Y-113073000D02*
X154435683Y-113120619D01*
X154435683Y-113120619D02*
X154245207Y-113120619D01*
X154245207Y-113120619D02*
X154149969Y-113073000D01*
X154149969Y-113073000D02*
X154102350Y-113025380D01*
X154102350Y-113025380D02*
X154054731Y-112930142D01*
X154054731Y-112930142D02*
X154054731Y-112692047D01*
X154054731Y-112692047D02*
X154102350Y-112596809D01*
X154102350Y-112596809D02*
X154149969Y-112549190D01*
X154149969Y-112549190D02*
X154245207Y-112501571D01*
X154245207Y-112501571D02*
X154435683Y-112501571D01*
X154435683Y-112501571D02*
X154530921Y-112549190D01*
X154530921Y-112549190D02*
X154578540Y-112596809D01*
X154578540Y-112596809D02*
X154626159Y-112692047D01*
X155010921Y-128430619D02*
X155010921Y-127430619D01*
X155010921Y-127430619D02*
X154772826Y-127430619D01*
X154772826Y-127430619D02*
X154629969Y-127478238D01*
X154629969Y-127478238D02*
X154534731Y-127573476D01*
X154534731Y-127573476D02*
X154487112Y-127668714D01*
X154487112Y-127668714D02*
X154439493Y-127859190D01*
X154439493Y-127859190D02*
X154439493Y-128002047D01*
X154439493Y-128002047D02*
X154487112Y-128192523D01*
X154487112Y-128192523D02*
X154534731Y-128287761D01*
X154534731Y-128287761D02*
X154629969Y-128383000D01*
X154629969Y-128383000D02*
X154772826Y-128430619D01*
X154772826Y-128430619D02*
X155010921Y-128430619D01*
X153487112Y-128430619D02*
X154058540Y-128430619D01*
X153772826Y-128430619D02*
X153772826Y-127430619D01*
X153772826Y-127430619D02*
X153868064Y-127573476D01*
X153868064Y-127573476D02*
X153963302Y-127668714D01*
X153963302Y-127668714D02*
X154058540Y-127716333D01*
X153153778Y-127430619D02*
X152487112Y-127430619D01*
X152487112Y-127430619D02*
X152915683Y-128430619D01*
X151348421Y-148170619D02*
X151348421Y-147170619D01*
X151348421Y-147170619D02*
X151110326Y-147170619D01*
X151110326Y-147170619D02*
X150967469Y-147218238D01*
X150967469Y-147218238D02*
X150872231Y-147313476D01*
X150872231Y-147313476D02*
X150824612Y-147408714D01*
X150824612Y-147408714D02*
X150776993Y-147599190D01*
X150776993Y-147599190D02*
X150776993Y-147742047D01*
X150776993Y-147742047D02*
X150824612Y-147932523D01*
X150824612Y-147932523D02*
X150872231Y-148027761D01*
X150872231Y-148027761D02*
X150967469Y-148123000D01*
X150967469Y-148123000D02*
X151110326Y-148170619D01*
X151110326Y-148170619D02*
X151348421Y-148170619D01*
X149824612Y-148170619D02*
X150396040Y-148170619D01*
X150110326Y-148170619D02*
X150110326Y-147170619D01*
X150110326Y-147170619D02*
X150205564Y-147313476D01*
X150205564Y-147313476D02*
X150300802Y-147408714D01*
X150300802Y-147408714D02*
X150396040Y-147456333D01*
X149253183Y-147599190D02*
X149348421Y-147551571D01*
X149348421Y-147551571D02*
X149396040Y-147503952D01*
X149396040Y-147503952D02*
X149443659Y-147408714D01*
X149443659Y-147408714D02*
X149443659Y-147361095D01*
X149443659Y-147361095D02*
X149396040Y-147265857D01*
X149396040Y-147265857D02*
X149348421Y-147218238D01*
X149348421Y-147218238D02*
X149253183Y-147170619D01*
X149253183Y-147170619D02*
X149062707Y-147170619D01*
X149062707Y-147170619D02*
X148967469Y-147218238D01*
X148967469Y-147218238D02*
X148919850Y-147265857D01*
X148919850Y-147265857D02*
X148872231Y-147361095D01*
X148872231Y-147361095D02*
X148872231Y-147408714D01*
X148872231Y-147408714D02*
X148919850Y-147503952D01*
X148919850Y-147503952D02*
X148967469Y-147551571D01*
X148967469Y-147551571D02*
X149062707Y-147599190D01*
X149062707Y-147599190D02*
X149253183Y-147599190D01*
X149253183Y-147599190D02*
X149348421Y-147646809D01*
X149348421Y-147646809D02*
X149396040Y-147694428D01*
X149396040Y-147694428D02*
X149443659Y-147789666D01*
X149443659Y-147789666D02*
X149443659Y-147980142D01*
X149443659Y-147980142D02*
X149396040Y-148075380D01*
X149396040Y-148075380D02*
X149348421Y-148123000D01*
X149348421Y-148123000D02*
X149253183Y-148170619D01*
X149253183Y-148170619D02*
X149062707Y-148170619D01*
X149062707Y-148170619D02*
X148967469Y-148123000D01*
X148967469Y-148123000D02*
X148919850Y-148075380D01*
X148919850Y-148075380D02*
X148872231Y-147980142D01*
X148872231Y-147980142D02*
X148872231Y-147789666D01*
X148872231Y-147789666D02*
X148919850Y-147694428D01*
X148919850Y-147694428D02*
X148967469Y-147646809D01*
X148967469Y-147646809D02*
X149062707Y-147599190D01*
X148090921Y-167880619D02*
X148090921Y-166880619D01*
X148090921Y-166880619D02*
X147852826Y-166880619D01*
X147852826Y-166880619D02*
X147709969Y-166928238D01*
X147709969Y-166928238D02*
X147614731Y-167023476D01*
X147614731Y-167023476D02*
X147567112Y-167118714D01*
X147567112Y-167118714D02*
X147519493Y-167309190D01*
X147519493Y-167309190D02*
X147519493Y-167452047D01*
X147519493Y-167452047D02*
X147567112Y-167642523D01*
X147567112Y-167642523D02*
X147614731Y-167737761D01*
X147614731Y-167737761D02*
X147709969Y-167833000D01*
X147709969Y-167833000D02*
X147852826Y-167880619D01*
X147852826Y-167880619D02*
X148090921Y-167880619D01*
X146567112Y-167880619D02*
X147138540Y-167880619D01*
X146852826Y-167880619D02*
X146852826Y-166880619D01*
X146852826Y-166880619D02*
X146948064Y-167023476D01*
X146948064Y-167023476D02*
X147043302Y-167118714D01*
X147043302Y-167118714D02*
X147138540Y-167166333D01*
X146090921Y-167880619D02*
X145900445Y-167880619D01*
X145900445Y-167880619D02*
X145805207Y-167833000D01*
X145805207Y-167833000D02*
X145757588Y-167785380D01*
X145757588Y-167785380D02*
X145662350Y-167642523D01*
X145662350Y-167642523D02*
X145614731Y-167452047D01*
X145614731Y-167452047D02*
X145614731Y-167071095D01*
X145614731Y-167071095D02*
X145662350Y-166975857D01*
X145662350Y-166975857D02*
X145709969Y-166928238D01*
X145709969Y-166928238D02*
X145805207Y-166880619D01*
X145805207Y-166880619D02*
X145995683Y-166880619D01*
X145995683Y-166880619D02*
X146090921Y-166928238D01*
X146090921Y-166928238D02*
X146138540Y-166975857D01*
X146138540Y-166975857D02*
X146186159Y-167071095D01*
X146186159Y-167071095D02*
X146186159Y-167309190D01*
X146186159Y-167309190D02*
X146138540Y-167404428D01*
X146138540Y-167404428D02*
X146090921Y-167452047D01*
X146090921Y-167452047D02*
X145995683Y-167499666D01*
X145995683Y-167499666D02*
X145805207Y-167499666D01*
X145805207Y-167499666D02*
X145709969Y-167452047D01*
X145709969Y-167452047D02*
X145662350Y-167404428D01*
X145662350Y-167404428D02*
X145614731Y-167309190D01*
X158538421Y-195260619D02*
X158538421Y-194260619D01*
X158538421Y-194260619D02*
X158300326Y-194260619D01*
X158300326Y-194260619D02*
X158157469Y-194308238D01*
X158157469Y-194308238D02*
X158062231Y-194403476D01*
X158062231Y-194403476D02*
X158014612Y-194498714D01*
X158014612Y-194498714D02*
X157966993Y-194689190D01*
X157966993Y-194689190D02*
X157966993Y-194832047D01*
X157966993Y-194832047D02*
X158014612Y-195022523D01*
X158014612Y-195022523D02*
X158062231Y-195117761D01*
X158062231Y-195117761D02*
X158157469Y-195213000D01*
X158157469Y-195213000D02*
X158300326Y-195260619D01*
X158300326Y-195260619D02*
X158538421Y-195260619D01*
X157586040Y-194355857D02*
X157538421Y-194308238D01*
X157538421Y-194308238D02*
X157443183Y-194260619D01*
X157443183Y-194260619D02*
X157205088Y-194260619D01*
X157205088Y-194260619D02*
X157109850Y-194308238D01*
X157109850Y-194308238D02*
X157062231Y-194355857D01*
X157062231Y-194355857D02*
X157014612Y-194451095D01*
X157014612Y-194451095D02*
X157014612Y-194546333D01*
X157014612Y-194546333D02*
X157062231Y-194689190D01*
X157062231Y-194689190D02*
X157633659Y-195260619D01*
X157633659Y-195260619D02*
X157014612Y-195260619D01*
X156395564Y-194260619D02*
X156300326Y-194260619D01*
X156300326Y-194260619D02*
X156205088Y-194308238D01*
X156205088Y-194308238D02*
X156157469Y-194355857D01*
X156157469Y-194355857D02*
X156109850Y-194451095D01*
X156109850Y-194451095D02*
X156062231Y-194641571D01*
X156062231Y-194641571D02*
X156062231Y-194879666D01*
X156062231Y-194879666D02*
X156109850Y-195070142D01*
X156109850Y-195070142D02*
X156157469Y-195165380D01*
X156157469Y-195165380D02*
X156205088Y-195213000D01*
X156205088Y-195213000D02*
X156300326Y-195260619D01*
X156300326Y-195260619D02*
X156395564Y-195260619D01*
X156395564Y-195260619D02*
X156490802Y-195213000D01*
X156490802Y-195213000D02*
X156538421Y-195165380D01*
X156538421Y-195165380D02*
X156586040Y-195070142D01*
X156586040Y-195070142D02*
X156633659Y-194879666D01*
X156633659Y-194879666D02*
X156633659Y-194641571D01*
X156633659Y-194641571D02*
X156586040Y-194451095D01*
X156586040Y-194451095D02*
X156538421Y-194355857D01*
X156538421Y-194355857D02*
X156490802Y-194308238D01*
X156490802Y-194308238D02*
X156395564Y-194260619D01*
X175930921Y-116770619D02*
X175930921Y-115770619D01*
X175930921Y-115770619D02*
X175692826Y-115770619D01*
X175692826Y-115770619D02*
X175549969Y-115818238D01*
X175549969Y-115818238D02*
X175454731Y-115913476D01*
X175454731Y-115913476D02*
X175407112Y-116008714D01*
X175407112Y-116008714D02*
X175359493Y-116199190D01*
X175359493Y-116199190D02*
X175359493Y-116342047D01*
X175359493Y-116342047D02*
X175407112Y-116532523D01*
X175407112Y-116532523D02*
X175454731Y-116627761D01*
X175454731Y-116627761D02*
X175549969Y-116723000D01*
X175549969Y-116723000D02*
X175692826Y-116770619D01*
X175692826Y-116770619D02*
X175930921Y-116770619D01*
X174978540Y-115865857D02*
X174930921Y-115818238D01*
X174930921Y-115818238D02*
X174835683Y-115770619D01*
X174835683Y-115770619D02*
X174597588Y-115770619D01*
X174597588Y-115770619D02*
X174502350Y-115818238D01*
X174502350Y-115818238D02*
X174454731Y-115865857D01*
X174454731Y-115865857D02*
X174407112Y-115961095D01*
X174407112Y-115961095D02*
X174407112Y-116056333D01*
X174407112Y-116056333D02*
X174454731Y-116199190D01*
X174454731Y-116199190D02*
X175026159Y-116770619D01*
X175026159Y-116770619D02*
X174407112Y-116770619D01*
X173454731Y-116770619D02*
X174026159Y-116770619D01*
X173740445Y-116770619D02*
X173740445Y-115770619D01*
X173740445Y-115770619D02*
X173835683Y-115913476D01*
X173835683Y-115913476D02*
X173930921Y-116008714D01*
X173930921Y-116008714D02*
X174026159Y-116056333D01*
X173480921Y-136090619D02*
X173480921Y-135090619D01*
X173480921Y-135090619D02*
X173242826Y-135090619D01*
X173242826Y-135090619D02*
X173099969Y-135138238D01*
X173099969Y-135138238D02*
X173004731Y-135233476D01*
X173004731Y-135233476D02*
X172957112Y-135328714D01*
X172957112Y-135328714D02*
X172909493Y-135519190D01*
X172909493Y-135519190D02*
X172909493Y-135662047D01*
X172909493Y-135662047D02*
X172957112Y-135852523D01*
X172957112Y-135852523D02*
X173004731Y-135947761D01*
X173004731Y-135947761D02*
X173099969Y-136043000D01*
X173099969Y-136043000D02*
X173242826Y-136090619D01*
X173242826Y-136090619D02*
X173480921Y-136090619D01*
X172528540Y-135185857D02*
X172480921Y-135138238D01*
X172480921Y-135138238D02*
X172385683Y-135090619D01*
X172385683Y-135090619D02*
X172147588Y-135090619D01*
X172147588Y-135090619D02*
X172052350Y-135138238D01*
X172052350Y-135138238D02*
X172004731Y-135185857D01*
X172004731Y-135185857D02*
X171957112Y-135281095D01*
X171957112Y-135281095D02*
X171957112Y-135376333D01*
X171957112Y-135376333D02*
X172004731Y-135519190D01*
X172004731Y-135519190D02*
X172576159Y-136090619D01*
X172576159Y-136090619D02*
X171957112Y-136090619D01*
X171576159Y-135185857D02*
X171528540Y-135138238D01*
X171528540Y-135138238D02*
X171433302Y-135090619D01*
X171433302Y-135090619D02*
X171195207Y-135090619D01*
X171195207Y-135090619D02*
X171099969Y-135138238D01*
X171099969Y-135138238D02*
X171052350Y-135185857D01*
X171052350Y-135185857D02*
X171004731Y-135281095D01*
X171004731Y-135281095D02*
X171004731Y-135376333D01*
X171004731Y-135376333D02*
X171052350Y-135519190D01*
X171052350Y-135519190D02*
X171623778Y-136090619D01*
X171623778Y-136090619D02*
X171004731Y-136090619D01*
X169620921Y-155800619D02*
X169620921Y-154800619D01*
X169620921Y-154800619D02*
X169382826Y-154800619D01*
X169382826Y-154800619D02*
X169239969Y-154848238D01*
X169239969Y-154848238D02*
X169144731Y-154943476D01*
X169144731Y-154943476D02*
X169097112Y-155038714D01*
X169097112Y-155038714D02*
X169049493Y-155229190D01*
X169049493Y-155229190D02*
X169049493Y-155372047D01*
X169049493Y-155372047D02*
X169097112Y-155562523D01*
X169097112Y-155562523D02*
X169144731Y-155657761D01*
X169144731Y-155657761D02*
X169239969Y-155753000D01*
X169239969Y-155753000D02*
X169382826Y-155800619D01*
X169382826Y-155800619D02*
X169620921Y-155800619D01*
X168668540Y-154895857D02*
X168620921Y-154848238D01*
X168620921Y-154848238D02*
X168525683Y-154800619D01*
X168525683Y-154800619D02*
X168287588Y-154800619D01*
X168287588Y-154800619D02*
X168192350Y-154848238D01*
X168192350Y-154848238D02*
X168144731Y-154895857D01*
X168144731Y-154895857D02*
X168097112Y-154991095D01*
X168097112Y-154991095D02*
X168097112Y-155086333D01*
X168097112Y-155086333D02*
X168144731Y-155229190D01*
X168144731Y-155229190D02*
X168716159Y-155800619D01*
X168716159Y-155800619D02*
X168097112Y-155800619D01*
X167763778Y-154800619D02*
X167144731Y-154800619D01*
X167144731Y-154800619D02*
X167478064Y-155181571D01*
X167478064Y-155181571D02*
X167335207Y-155181571D01*
X167335207Y-155181571D02*
X167239969Y-155229190D01*
X167239969Y-155229190D02*
X167192350Y-155276809D01*
X167192350Y-155276809D02*
X167144731Y-155372047D01*
X167144731Y-155372047D02*
X167144731Y-155610142D01*
X167144731Y-155610142D02*
X167192350Y-155705380D01*
X167192350Y-155705380D02*
X167239969Y-155753000D01*
X167239969Y-155753000D02*
X167335207Y-155800619D01*
X167335207Y-155800619D02*
X167620921Y-155800619D01*
X167620921Y-155800619D02*
X167716159Y-155753000D01*
X167716159Y-155753000D02*
X167763778Y-155705380D01*
X166080921Y-175480619D02*
X166080921Y-174480619D01*
X166080921Y-174480619D02*
X165842826Y-174480619D01*
X165842826Y-174480619D02*
X165699969Y-174528238D01*
X165699969Y-174528238D02*
X165604731Y-174623476D01*
X165604731Y-174623476D02*
X165557112Y-174718714D01*
X165557112Y-174718714D02*
X165509493Y-174909190D01*
X165509493Y-174909190D02*
X165509493Y-175052047D01*
X165509493Y-175052047D02*
X165557112Y-175242523D01*
X165557112Y-175242523D02*
X165604731Y-175337761D01*
X165604731Y-175337761D02*
X165699969Y-175433000D01*
X165699969Y-175433000D02*
X165842826Y-175480619D01*
X165842826Y-175480619D02*
X166080921Y-175480619D01*
X165128540Y-174575857D02*
X165080921Y-174528238D01*
X165080921Y-174528238D02*
X164985683Y-174480619D01*
X164985683Y-174480619D02*
X164747588Y-174480619D01*
X164747588Y-174480619D02*
X164652350Y-174528238D01*
X164652350Y-174528238D02*
X164604731Y-174575857D01*
X164604731Y-174575857D02*
X164557112Y-174671095D01*
X164557112Y-174671095D02*
X164557112Y-174766333D01*
X164557112Y-174766333D02*
X164604731Y-174909190D01*
X164604731Y-174909190D02*
X165176159Y-175480619D01*
X165176159Y-175480619D02*
X164557112Y-175480619D01*
X163699969Y-174813952D02*
X163699969Y-175480619D01*
X163938064Y-174433000D02*
X164176159Y-175147285D01*
X164176159Y-175147285D02*
X163557112Y-175147285D01*
X178510921Y-201560619D02*
X178510921Y-200560619D01*
X178510921Y-200560619D02*
X178272826Y-200560619D01*
X178272826Y-200560619D02*
X178129969Y-200608238D01*
X178129969Y-200608238D02*
X178034731Y-200703476D01*
X178034731Y-200703476D02*
X177987112Y-200798714D01*
X177987112Y-200798714D02*
X177939493Y-200989190D01*
X177939493Y-200989190D02*
X177939493Y-201132047D01*
X177939493Y-201132047D02*
X177987112Y-201322523D01*
X177987112Y-201322523D02*
X178034731Y-201417761D01*
X178034731Y-201417761D02*
X178129969Y-201513000D01*
X178129969Y-201513000D02*
X178272826Y-201560619D01*
X178272826Y-201560619D02*
X178510921Y-201560619D01*
X177558540Y-200655857D02*
X177510921Y-200608238D01*
X177510921Y-200608238D02*
X177415683Y-200560619D01*
X177415683Y-200560619D02*
X177177588Y-200560619D01*
X177177588Y-200560619D02*
X177082350Y-200608238D01*
X177082350Y-200608238D02*
X177034731Y-200655857D01*
X177034731Y-200655857D02*
X176987112Y-200751095D01*
X176987112Y-200751095D02*
X176987112Y-200846333D01*
X176987112Y-200846333D02*
X177034731Y-200989190D01*
X177034731Y-200989190D02*
X177606159Y-201560619D01*
X177606159Y-201560619D02*
X176987112Y-201560619D01*
X176082350Y-200560619D02*
X176558540Y-200560619D01*
X176558540Y-200560619D02*
X176606159Y-201036809D01*
X176606159Y-201036809D02*
X176558540Y-200989190D01*
X176558540Y-200989190D02*
X176463302Y-200941571D01*
X176463302Y-200941571D02*
X176225207Y-200941571D01*
X176225207Y-200941571D02*
X176129969Y-200989190D01*
X176129969Y-200989190D02*
X176082350Y-201036809D01*
X176082350Y-201036809D02*
X176034731Y-201132047D01*
X176034731Y-201132047D02*
X176034731Y-201370142D01*
X176034731Y-201370142D02*
X176082350Y-201465380D01*
X176082350Y-201465380D02*
X176129969Y-201513000D01*
X176129969Y-201513000D02*
X176225207Y-201560619D01*
X176225207Y-201560619D02*
X176463302Y-201560619D01*
X176463302Y-201560619D02*
X176558540Y-201513000D01*
X176558540Y-201513000D02*
X176606159Y-201465380D01*
X195208421Y-121530619D02*
X195208421Y-120530619D01*
X195208421Y-120530619D02*
X194970326Y-120530619D01*
X194970326Y-120530619D02*
X194827469Y-120578238D01*
X194827469Y-120578238D02*
X194732231Y-120673476D01*
X194732231Y-120673476D02*
X194684612Y-120768714D01*
X194684612Y-120768714D02*
X194636993Y-120959190D01*
X194636993Y-120959190D02*
X194636993Y-121102047D01*
X194636993Y-121102047D02*
X194684612Y-121292523D01*
X194684612Y-121292523D02*
X194732231Y-121387761D01*
X194732231Y-121387761D02*
X194827469Y-121483000D01*
X194827469Y-121483000D02*
X194970326Y-121530619D01*
X194970326Y-121530619D02*
X195208421Y-121530619D01*
X194256040Y-120625857D02*
X194208421Y-120578238D01*
X194208421Y-120578238D02*
X194113183Y-120530619D01*
X194113183Y-120530619D02*
X193875088Y-120530619D01*
X193875088Y-120530619D02*
X193779850Y-120578238D01*
X193779850Y-120578238D02*
X193732231Y-120625857D01*
X193732231Y-120625857D02*
X193684612Y-120721095D01*
X193684612Y-120721095D02*
X193684612Y-120816333D01*
X193684612Y-120816333D02*
X193732231Y-120959190D01*
X193732231Y-120959190D02*
X194303659Y-121530619D01*
X194303659Y-121530619D02*
X193684612Y-121530619D01*
X192827469Y-120530619D02*
X193017945Y-120530619D01*
X193017945Y-120530619D02*
X193113183Y-120578238D01*
X193113183Y-120578238D02*
X193160802Y-120625857D01*
X193160802Y-120625857D02*
X193256040Y-120768714D01*
X193256040Y-120768714D02*
X193303659Y-120959190D01*
X193303659Y-120959190D02*
X193303659Y-121340142D01*
X193303659Y-121340142D02*
X193256040Y-121435380D01*
X193256040Y-121435380D02*
X193208421Y-121483000D01*
X193208421Y-121483000D02*
X193113183Y-121530619D01*
X193113183Y-121530619D02*
X192922707Y-121530619D01*
X192922707Y-121530619D02*
X192827469Y-121483000D01*
X192827469Y-121483000D02*
X192779850Y-121435380D01*
X192779850Y-121435380D02*
X192732231Y-121340142D01*
X192732231Y-121340142D02*
X192732231Y-121102047D01*
X192732231Y-121102047D02*
X192779850Y-121006809D01*
X192779850Y-121006809D02*
X192827469Y-120959190D01*
X192827469Y-120959190D02*
X192922707Y-120911571D01*
X192922707Y-120911571D02*
X193113183Y-120911571D01*
X193113183Y-120911571D02*
X193208421Y-120959190D01*
X193208421Y-120959190D02*
X193256040Y-121006809D01*
X193256040Y-121006809D02*
X193303659Y-121102047D01*
X190938421Y-141260619D02*
X190938421Y-140260619D01*
X190938421Y-140260619D02*
X190700326Y-140260619D01*
X190700326Y-140260619D02*
X190557469Y-140308238D01*
X190557469Y-140308238D02*
X190462231Y-140403476D01*
X190462231Y-140403476D02*
X190414612Y-140498714D01*
X190414612Y-140498714D02*
X190366993Y-140689190D01*
X190366993Y-140689190D02*
X190366993Y-140832047D01*
X190366993Y-140832047D02*
X190414612Y-141022523D01*
X190414612Y-141022523D02*
X190462231Y-141117761D01*
X190462231Y-141117761D02*
X190557469Y-141213000D01*
X190557469Y-141213000D02*
X190700326Y-141260619D01*
X190700326Y-141260619D02*
X190938421Y-141260619D01*
X189986040Y-140355857D02*
X189938421Y-140308238D01*
X189938421Y-140308238D02*
X189843183Y-140260619D01*
X189843183Y-140260619D02*
X189605088Y-140260619D01*
X189605088Y-140260619D02*
X189509850Y-140308238D01*
X189509850Y-140308238D02*
X189462231Y-140355857D01*
X189462231Y-140355857D02*
X189414612Y-140451095D01*
X189414612Y-140451095D02*
X189414612Y-140546333D01*
X189414612Y-140546333D02*
X189462231Y-140689190D01*
X189462231Y-140689190D02*
X190033659Y-141260619D01*
X190033659Y-141260619D02*
X189414612Y-141260619D01*
X189081278Y-140260619D02*
X188414612Y-140260619D01*
X188414612Y-140260619D02*
X188843183Y-141260619D01*
X189608421Y-161040619D02*
X189608421Y-160040619D01*
X189608421Y-160040619D02*
X189370326Y-160040619D01*
X189370326Y-160040619D02*
X189227469Y-160088238D01*
X189227469Y-160088238D02*
X189132231Y-160183476D01*
X189132231Y-160183476D02*
X189084612Y-160278714D01*
X189084612Y-160278714D02*
X189036993Y-160469190D01*
X189036993Y-160469190D02*
X189036993Y-160612047D01*
X189036993Y-160612047D02*
X189084612Y-160802523D01*
X189084612Y-160802523D02*
X189132231Y-160897761D01*
X189132231Y-160897761D02*
X189227469Y-160993000D01*
X189227469Y-160993000D02*
X189370326Y-161040619D01*
X189370326Y-161040619D02*
X189608421Y-161040619D01*
X188656040Y-160135857D02*
X188608421Y-160088238D01*
X188608421Y-160088238D02*
X188513183Y-160040619D01*
X188513183Y-160040619D02*
X188275088Y-160040619D01*
X188275088Y-160040619D02*
X188179850Y-160088238D01*
X188179850Y-160088238D02*
X188132231Y-160135857D01*
X188132231Y-160135857D02*
X188084612Y-160231095D01*
X188084612Y-160231095D02*
X188084612Y-160326333D01*
X188084612Y-160326333D02*
X188132231Y-160469190D01*
X188132231Y-160469190D02*
X188703659Y-161040619D01*
X188703659Y-161040619D02*
X188084612Y-161040619D01*
X187513183Y-160469190D02*
X187608421Y-160421571D01*
X187608421Y-160421571D02*
X187656040Y-160373952D01*
X187656040Y-160373952D02*
X187703659Y-160278714D01*
X187703659Y-160278714D02*
X187703659Y-160231095D01*
X187703659Y-160231095D02*
X187656040Y-160135857D01*
X187656040Y-160135857D02*
X187608421Y-160088238D01*
X187608421Y-160088238D02*
X187513183Y-160040619D01*
X187513183Y-160040619D02*
X187322707Y-160040619D01*
X187322707Y-160040619D02*
X187227469Y-160088238D01*
X187227469Y-160088238D02*
X187179850Y-160135857D01*
X187179850Y-160135857D02*
X187132231Y-160231095D01*
X187132231Y-160231095D02*
X187132231Y-160278714D01*
X187132231Y-160278714D02*
X187179850Y-160373952D01*
X187179850Y-160373952D02*
X187227469Y-160421571D01*
X187227469Y-160421571D02*
X187322707Y-160469190D01*
X187322707Y-160469190D02*
X187513183Y-160469190D01*
X187513183Y-160469190D02*
X187608421Y-160516809D01*
X187608421Y-160516809D02*
X187656040Y-160564428D01*
X187656040Y-160564428D02*
X187703659Y-160659666D01*
X187703659Y-160659666D02*
X187703659Y-160850142D01*
X187703659Y-160850142D02*
X187656040Y-160945380D01*
X187656040Y-160945380D02*
X187608421Y-160993000D01*
X187608421Y-160993000D02*
X187513183Y-161040619D01*
X187513183Y-161040619D02*
X187322707Y-161040619D01*
X187322707Y-161040619D02*
X187227469Y-160993000D01*
X187227469Y-160993000D02*
X187179850Y-160945380D01*
X187179850Y-160945380D02*
X187132231Y-160850142D01*
X187132231Y-160850142D02*
X187132231Y-160659666D01*
X187132231Y-160659666D02*
X187179850Y-160564428D01*
X187179850Y-160564428D02*
X187227469Y-160516809D01*
X187227469Y-160516809D02*
X187322707Y-160469190D01*
X186010921Y-180760619D02*
X186010921Y-179760619D01*
X186010921Y-179760619D02*
X185772826Y-179760619D01*
X185772826Y-179760619D02*
X185629969Y-179808238D01*
X185629969Y-179808238D02*
X185534731Y-179903476D01*
X185534731Y-179903476D02*
X185487112Y-179998714D01*
X185487112Y-179998714D02*
X185439493Y-180189190D01*
X185439493Y-180189190D02*
X185439493Y-180332047D01*
X185439493Y-180332047D02*
X185487112Y-180522523D01*
X185487112Y-180522523D02*
X185534731Y-180617761D01*
X185534731Y-180617761D02*
X185629969Y-180713000D01*
X185629969Y-180713000D02*
X185772826Y-180760619D01*
X185772826Y-180760619D02*
X186010921Y-180760619D01*
X185058540Y-179855857D02*
X185010921Y-179808238D01*
X185010921Y-179808238D02*
X184915683Y-179760619D01*
X184915683Y-179760619D02*
X184677588Y-179760619D01*
X184677588Y-179760619D02*
X184582350Y-179808238D01*
X184582350Y-179808238D02*
X184534731Y-179855857D01*
X184534731Y-179855857D02*
X184487112Y-179951095D01*
X184487112Y-179951095D02*
X184487112Y-180046333D01*
X184487112Y-180046333D02*
X184534731Y-180189190D01*
X184534731Y-180189190D02*
X185106159Y-180760619D01*
X185106159Y-180760619D02*
X184487112Y-180760619D01*
X184010921Y-180760619D02*
X183820445Y-180760619D01*
X183820445Y-180760619D02*
X183725207Y-180713000D01*
X183725207Y-180713000D02*
X183677588Y-180665380D01*
X183677588Y-180665380D02*
X183582350Y-180522523D01*
X183582350Y-180522523D02*
X183534731Y-180332047D01*
X183534731Y-180332047D02*
X183534731Y-179951095D01*
X183534731Y-179951095D02*
X183582350Y-179855857D01*
X183582350Y-179855857D02*
X183629969Y-179808238D01*
X183629969Y-179808238D02*
X183725207Y-179760619D01*
X183725207Y-179760619D02*
X183915683Y-179760619D01*
X183915683Y-179760619D02*
X184010921Y-179808238D01*
X184010921Y-179808238D02*
X184058540Y-179855857D01*
X184058540Y-179855857D02*
X184106159Y-179951095D01*
X184106159Y-179951095D02*
X184106159Y-180189190D01*
X184106159Y-180189190D02*
X184058540Y-180284428D01*
X184058540Y-180284428D02*
X184010921Y-180332047D01*
X184010921Y-180332047D02*
X183915683Y-180379666D01*
X183915683Y-180379666D02*
X183725207Y-180379666D01*
X183725207Y-180379666D02*
X183629969Y-180332047D01*
X183629969Y-180332047D02*
X183582350Y-180284428D01*
X183582350Y-180284428D02*
X183534731Y-180189190D01*
X197568421Y-214730619D02*
X197568421Y-213730619D01*
X197568421Y-213730619D02*
X197330326Y-213730619D01*
X197330326Y-213730619D02*
X197187469Y-213778238D01*
X197187469Y-213778238D02*
X197092231Y-213873476D01*
X197092231Y-213873476D02*
X197044612Y-213968714D01*
X197044612Y-213968714D02*
X196996993Y-214159190D01*
X196996993Y-214159190D02*
X196996993Y-214302047D01*
X196996993Y-214302047D02*
X197044612Y-214492523D01*
X197044612Y-214492523D02*
X197092231Y-214587761D01*
X197092231Y-214587761D02*
X197187469Y-214683000D01*
X197187469Y-214683000D02*
X197330326Y-214730619D01*
X197330326Y-214730619D02*
X197568421Y-214730619D01*
X196663659Y-213730619D02*
X196044612Y-213730619D01*
X196044612Y-213730619D02*
X196377945Y-214111571D01*
X196377945Y-214111571D02*
X196235088Y-214111571D01*
X196235088Y-214111571D02*
X196139850Y-214159190D01*
X196139850Y-214159190D02*
X196092231Y-214206809D01*
X196092231Y-214206809D02*
X196044612Y-214302047D01*
X196044612Y-214302047D02*
X196044612Y-214540142D01*
X196044612Y-214540142D02*
X196092231Y-214635380D01*
X196092231Y-214635380D02*
X196139850Y-214683000D01*
X196139850Y-214683000D02*
X196235088Y-214730619D01*
X196235088Y-214730619D02*
X196520802Y-214730619D01*
X196520802Y-214730619D02*
X196616040Y-214683000D01*
X196616040Y-214683000D02*
X196663659Y-214635380D01*
X195425564Y-213730619D02*
X195330326Y-213730619D01*
X195330326Y-213730619D02*
X195235088Y-213778238D01*
X195235088Y-213778238D02*
X195187469Y-213825857D01*
X195187469Y-213825857D02*
X195139850Y-213921095D01*
X195139850Y-213921095D02*
X195092231Y-214111571D01*
X195092231Y-214111571D02*
X195092231Y-214349666D01*
X195092231Y-214349666D02*
X195139850Y-214540142D01*
X195139850Y-214540142D02*
X195187469Y-214635380D01*
X195187469Y-214635380D02*
X195235088Y-214683000D01*
X195235088Y-214683000D02*
X195330326Y-214730619D01*
X195330326Y-214730619D02*
X195425564Y-214730619D01*
X195425564Y-214730619D02*
X195520802Y-214683000D01*
X195520802Y-214683000D02*
X195568421Y-214635380D01*
X195568421Y-214635380D02*
X195616040Y-214540142D01*
X195616040Y-214540142D02*
X195663659Y-214349666D01*
X195663659Y-214349666D02*
X195663659Y-214111571D01*
X195663659Y-214111571D02*
X195616040Y-213921095D01*
X195616040Y-213921095D02*
X195568421Y-213825857D01*
X195568421Y-213825857D02*
X195520802Y-213778238D01*
X195520802Y-213778238D02*
X195425564Y-213730619D01*
X229598955Y-210581514D02*
X228598955Y-210581514D01*
X228598955Y-210581514D02*
X228598955Y-210819609D01*
X228598955Y-210819609D02*
X228646574Y-210962466D01*
X228646574Y-210962466D02*
X228741812Y-211057704D01*
X228741812Y-211057704D02*
X228837050Y-211105323D01*
X228837050Y-211105323D02*
X229027526Y-211152942D01*
X229027526Y-211152942D02*
X229170383Y-211152942D01*
X229170383Y-211152942D02*
X229360859Y-211105323D01*
X229360859Y-211105323D02*
X229456097Y-211057704D01*
X229456097Y-211057704D02*
X229551336Y-210962466D01*
X229551336Y-210962466D02*
X229598955Y-210819609D01*
X229598955Y-210819609D02*
X229598955Y-210581514D01*
X228598955Y-211486276D02*
X228598955Y-212105323D01*
X228598955Y-212105323D02*
X228979907Y-211771990D01*
X228979907Y-211771990D02*
X228979907Y-211914847D01*
X228979907Y-211914847D02*
X229027526Y-212010085D01*
X229027526Y-212010085D02*
X229075145Y-212057704D01*
X229075145Y-212057704D02*
X229170383Y-212105323D01*
X229170383Y-212105323D02*
X229408478Y-212105323D01*
X229408478Y-212105323D02*
X229503716Y-212057704D01*
X229503716Y-212057704D02*
X229551336Y-212010085D01*
X229551336Y-212010085D02*
X229598955Y-211914847D01*
X229598955Y-211914847D02*
X229598955Y-211629133D01*
X229598955Y-211629133D02*
X229551336Y-211533895D01*
X229551336Y-211533895D02*
X229503716Y-211486276D01*
X229598955Y-213057704D02*
X229598955Y-212486276D01*
X229598955Y-212771990D02*
X228598955Y-212771990D01*
X228598955Y-212771990D02*
X228741812Y-212676752D01*
X228741812Y-212676752D02*
X228837050Y-212581514D01*
X228837050Y-212581514D02*
X228884669Y-212486276D01*
X252188421Y-132330619D02*
X252188421Y-131330619D01*
X252188421Y-131330619D02*
X251950326Y-131330619D01*
X251950326Y-131330619D02*
X251807469Y-131378238D01*
X251807469Y-131378238D02*
X251712231Y-131473476D01*
X251712231Y-131473476D02*
X251664612Y-131568714D01*
X251664612Y-131568714D02*
X251616993Y-131759190D01*
X251616993Y-131759190D02*
X251616993Y-131902047D01*
X251616993Y-131902047D02*
X251664612Y-132092523D01*
X251664612Y-132092523D02*
X251712231Y-132187761D01*
X251712231Y-132187761D02*
X251807469Y-132283000D01*
X251807469Y-132283000D02*
X251950326Y-132330619D01*
X251950326Y-132330619D02*
X252188421Y-132330619D01*
X251283659Y-131330619D02*
X250664612Y-131330619D01*
X250664612Y-131330619D02*
X250997945Y-131711571D01*
X250997945Y-131711571D02*
X250855088Y-131711571D01*
X250855088Y-131711571D02*
X250759850Y-131759190D01*
X250759850Y-131759190D02*
X250712231Y-131806809D01*
X250712231Y-131806809D02*
X250664612Y-131902047D01*
X250664612Y-131902047D02*
X250664612Y-132140142D01*
X250664612Y-132140142D02*
X250712231Y-132235380D01*
X250712231Y-132235380D02*
X250759850Y-132283000D01*
X250759850Y-132283000D02*
X250855088Y-132330619D01*
X250855088Y-132330619D02*
X251140802Y-132330619D01*
X251140802Y-132330619D02*
X251236040Y-132283000D01*
X251236040Y-132283000D02*
X251283659Y-132235380D01*
X250331278Y-131330619D02*
X249712231Y-131330619D01*
X249712231Y-131330619D02*
X250045564Y-131711571D01*
X250045564Y-131711571D02*
X249902707Y-131711571D01*
X249902707Y-131711571D02*
X249807469Y-131759190D01*
X249807469Y-131759190D02*
X249759850Y-131806809D01*
X249759850Y-131806809D02*
X249712231Y-131902047D01*
X249712231Y-131902047D02*
X249712231Y-132140142D01*
X249712231Y-132140142D02*
X249759850Y-132235380D01*
X249759850Y-132235380D02*
X249807469Y-132283000D01*
X249807469Y-132283000D02*
X249902707Y-132330619D01*
X249902707Y-132330619D02*
X250188421Y-132330619D01*
X250188421Y-132330619D02*
X250283659Y-132283000D01*
X250283659Y-132283000D02*
X250331278Y-132235380D01*
X255578421Y-152370619D02*
X255578421Y-151370619D01*
X255578421Y-151370619D02*
X255340326Y-151370619D01*
X255340326Y-151370619D02*
X255197469Y-151418238D01*
X255197469Y-151418238D02*
X255102231Y-151513476D01*
X255102231Y-151513476D02*
X255054612Y-151608714D01*
X255054612Y-151608714D02*
X255006993Y-151799190D01*
X255006993Y-151799190D02*
X255006993Y-151942047D01*
X255006993Y-151942047D02*
X255054612Y-152132523D01*
X255054612Y-152132523D02*
X255102231Y-152227761D01*
X255102231Y-152227761D02*
X255197469Y-152323000D01*
X255197469Y-152323000D02*
X255340326Y-152370619D01*
X255340326Y-152370619D02*
X255578421Y-152370619D01*
X254673659Y-151370619D02*
X254054612Y-151370619D01*
X254054612Y-151370619D02*
X254387945Y-151751571D01*
X254387945Y-151751571D02*
X254245088Y-151751571D01*
X254245088Y-151751571D02*
X254149850Y-151799190D01*
X254149850Y-151799190D02*
X254102231Y-151846809D01*
X254102231Y-151846809D02*
X254054612Y-151942047D01*
X254054612Y-151942047D02*
X254054612Y-152180142D01*
X254054612Y-152180142D02*
X254102231Y-152275380D01*
X254102231Y-152275380D02*
X254149850Y-152323000D01*
X254149850Y-152323000D02*
X254245088Y-152370619D01*
X254245088Y-152370619D02*
X254530802Y-152370619D01*
X254530802Y-152370619D02*
X254626040Y-152323000D01*
X254626040Y-152323000D02*
X254673659Y-152275380D01*
X253197469Y-151703952D02*
X253197469Y-152370619D01*
X253435564Y-151323000D02*
X253673659Y-152037285D01*
X253673659Y-152037285D02*
X253054612Y-152037285D01*
X259978421Y-173520619D02*
X259978421Y-172520619D01*
X259978421Y-172520619D02*
X259740326Y-172520619D01*
X259740326Y-172520619D02*
X259597469Y-172568238D01*
X259597469Y-172568238D02*
X259502231Y-172663476D01*
X259502231Y-172663476D02*
X259454612Y-172758714D01*
X259454612Y-172758714D02*
X259406993Y-172949190D01*
X259406993Y-172949190D02*
X259406993Y-173092047D01*
X259406993Y-173092047D02*
X259454612Y-173282523D01*
X259454612Y-173282523D02*
X259502231Y-173377761D01*
X259502231Y-173377761D02*
X259597469Y-173473000D01*
X259597469Y-173473000D02*
X259740326Y-173520619D01*
X259740326Y-173520619D02*
X259978421Y-173520619D01*
X259073659Y-172520619D02*
X258454612Y-172520619D01*
X258454612Y-172520619D02*
X258787945Y-172901571D01*
X258787945Y-172901571D02*
X258645088Y-172901571D01*
X258645088Y-172901571D02*
X258549850Y-172949190D01*
X258549850Y-172949190D02*
X258502231Y-172996809D01*
X258502231Y-172996809D02*
X258454612Y-173092047D01*
X258454612Y-173092047D02*
X258454612Y-173330142D01*
X258454612Y-173330142D02*
X258502231Y-173425380D01*
X258502231Y-173425380D02*
X258549850Y-173473000D01*
X258549850Y-173473000D02*
X258645088Y-173520619D01*
X258645088Y-173520619D02*
X258930802Y-173520619D01*
X258930802Y-173520619D02*
X259026040Y-173473000D01*
X259026040Y-173473000D02*
X259073659Y-173425380D01*
X257549850Y-172520619D02*
X258026040Y-172520619D01*
X258026040Y-172520619D02*
X258073659Y-172996809D01*
X258073659Y-172996809D02*
X258026040Y-172949190D01*
X258026040Y-172949190D02*
X257930802Y-172901571D01*
X257930802Y-172901571D02*
X257692707Y-172901571D01*
X257692707Y-172901571D02*
X257597469Y-172949190D01*
X257597469Y-172949190D02*
X257549850Y-172996809D01*
X257549850Y-172996809D02*
X257502231Y-173092047D01*
X257502231Y-173092047D02*
X257502231Y-173330142D01*
X257502231Y-173330142D02*
X257549850Y-173425380D01*
X257549850Y-173425380D02*
X257597469Y-173473000D01*
X257597469Y-173473000D02*
X257692707Y-173520619D01*
X257692707Y-173520619D02*
X257930802Y-173520619D01*
X257930802Y-173520619D02*
X258026040Y-173473000D01*
X258026040Y-173473000D02*
X258073659Y-173425380D01*
X262880921Y-191280619D02*
X262880921Y-190280619D01*
X262880921Y-190280619D02*
X262642826Y-190280619D01*
X262642826Y-190280619D02*
X262499969Y-190328238D01*
X262499969Y-190328238D02*
X262404731Y-190423476D01*
X262404731Y-190423476D02*
X262357112Y-190518714D01*
X262357112Y-190518714D02*
X262309493Y-190709190D01*
X262309493Y-190709190D02*
X262309493Y-190852047D01*
X262309493Y-190852047D02*
X262357112Y-191042523D01*
X262357112Y-191042523D02*
X262404731Y-191137761D01*
X262404731Y-191137761D02*
X262499969Y-191233000D01*
X262499969Y-191233000D02*
X262642826Y-191280619D01*
X262642826Y-191280619D02*
X262880921Y-191280619D01*
X261976159Y-190280619D02*
X261357112Y-190280619D01*
X261357112Y-190280619D02*
X261690445Y-190661571D01*
X261690445Y-190661571D02*
X261547588Y-190661571D01*
X261547588Y-190661571D02*
X261452350Y-190709190D01*
X261452350Y-190709190D02*
X261404731Y-190756809D01*
X261404731Y-190756809D02*
X261357112Y-190852047D01*
X261357112Y-190852047D02*
X261357112Y-191090142D01*
X261357112Y-191090142D02*
X261404731Y-191185380D01*
X261404731Y-191185380D02*
X261452350Y-191233000D01*
X261452350Y-191233000D02*
X261547588Y-191280619D01*
X261547588Y-191280619D02*
X261833302Y-191280619D01*
X261833302Y-191280619D02*
X261928540Y-191233000D01*
X261928540Y-191233000D02*
X261976159Y-191185380D01*
X260499969Y-190280619D02*
X260690445Y-190280619D01*
X260690445Y-190280619D02*
X260785683Y-190328238D01*
X260785683Y-190328238D02*
X260833302Y-190375857D01*
X260833302Y-190375857D02*
X260928540Y-190518714D01*
X260928540Y-190518714D02*
X260976159Y-190709190D01*
X260976159Y-190709190D02*
X260976159Y-191090142D01*
X260976159Y-191090142D02*
X260928540Y-191185380D01*
X260928540Y-191185380D02*
X260880921Y-191233000D01*
X260880921Y-191233000D02*
X260785683Y-191280619D01*
X260785683Y-191280619D02*
X260595207Y-191280619D01*
X260595207Y-191280619D02*
X260499969Y-191233000D01*
X260499969Y-191233000D02*
X260452350Y-191185380D01*
X260452350Y-191185380D02*
X260404731Y-191090142D01*
X260404731Y-191090142D02*
X260404731Y-190852047D01*
X260404731Y-190852047D02*
X260452350Y-190756809D01*
X260452350Y-190756809D02*
X260499969Y-190709190D01*
X260499969Y-190709190D02*
X260595207Y-190661571D01*
X260595207Y-190661571D02*
X260785683Y-190661571D01*
X260785683Y-190661571D02*
X260880921Y-190709190D01*
X260880921Y-190709190D02*
X260928540Y-190756809D01*
X260928540Y-190756809D02*
X260976159Y-190852047D01*
X245155294Y-198910900D02*
X245155294Y-197910900D01*
X245155294Y-197910900D02*
X244917199Y-197910900D01*
X244917199Y-197910900D02*
X244774342Y-197958519D01*
X244774342Y-197958519D02*
X244679104Y-198053757D01*
X244679104Y-198053757D02*
X244631485Y-198148995D01*
X244631485Y-198148995D02*
X244583866Y-198339471D01*
X244583866Y-198339471D02*
X244583866Y-198482328D01*
X244583866Y-198482328D02*
X244631485Y-198672804D01*
X244631485Y-198672804D02*
X244679104Y-198768042D01*
X244679104Y-198768042D02*
X244774342Y-198863281D01*
X244774342Y-198863281D02*
X244917199Y-198910900D01*
X244917199Y-198910900D02*
X245155294Y-198910900D01*
X244250532Y-197910900D02*
X243631485Y-197910900D01*
X243631485Y-197910900D02*
X243964818Y-198291852D01*
X243964818Y-198291852D02*
X243821961Y-198291852D01*
X243821961Y-198291852D02*
X243726723Y-198339471D01*
X243726723Y-198339471D02*
X243679104Y-198387090D01*
X243679104Y-198387090D02*
X243631485Y-198482328D01*
X243631485Y-198482328D02*
X243631485Y-198720423D01*
X243631485Y-198720423D02*
X243679104Y-198815661D01*
X243679104Y-198815661D02*
X243726723Y-198863281D01*
X243726723Y-198863281D02*
X243821961Y-198910900D01*
X243821961Y-198910900D02*
X244107675Y-198910900D01*
X244107675Y-198910900D02*
X244202913Y-198863281D01*
X244202913Y-198863281D02*
X244250532Y-198815661D01*
X243298151Y-197910900D02*
X242631485Y-197910900D01*
X242631485Y-197910900D02*
X243060056Y-198910900D01*
X270300921Y-127400619D02*
X270300921Y-126400619D01*
X270300921Y-126400619D02*
X270062826Y-126400619D01*
X270062826Y-126400619D02*
X269919969Y-126448238D01*
X269919969Y-126448238D02*
X269824731Y-126543476D01*
X269824731Y-126543476D02*
X269777112Y-126638714D01*
X269777112Y-126638714D02*
X269729493Y-126829190D01*
X269729493Y-126829190D02*
X269729493Y-126972047D01*
X269729493Y-126972047D02*
X269777112Y-127162523D01*
X269777112Y-127162523D02*
X269824731Y-127257761D01*
X269824731Y-127257761D02*
X269919969Y-127353000D01*
X269919969Y-127353000D02*
X270062826Y-127400619D01*
X270062826Y-127400619D02*
X270300921Y-127400619D01*
X269396159Y-126400619D02*
X268777112Y-126400619D01*
X268777112Y-126400619D02*
X269110445Y-126781571D01*
X269110445Y-126781571D02*
X268967588Y-126781571D01*
X268967588Y-126781571D02*
X268872350Y-126829190D01*
X268872350Y-126829190D02*
X268824731Y-126876809D01*
X268824731Y-126876809D02*
X268777112Y-126972047D01*
X268777112Y-126972047D02*
X268777112Y-127210142D01*
X268777112Y-127210142D02*
X268824731Y-127305380D01*
X268824731Y-127305380D02*
X268872350Y-127353000D01*
X268872350Y-127353000D02*
X268967588Y-127400619D01*
X268967588Y-127400619D02*
X269253302Y-127400619D01*
X269253302Y-127400619D02*
X269348540Y-127353000D01*
X269348540Y-127353000D02*
X269396159Y-127305380D01*
X268205683Y-126829190D02*
X268300921Y-126781571D01*
X268300921Y-126781571D02*
X268348540Y-126733952D01*
X268348540Y-126733952D02*
X268396159Y-126638714D01*
X268396159Y-126638714D02*
X268396159Y-126591095D01*
X268396159Y-126591095D02*
X268348540Y-126495857D01*
X268348540Y-126495857D02*
X268300921Y-126448238D01*
X268300921Y-126448238D02*
X268205683Y-126400619D01*
X268205683Y-126400619D02*
X268015207Y-126400619D01*
X268015207Y-126400619D02*
X267919969Y-126448238D01*
X267919969Y-126448238D02*
X267872350Y-126495857D01*
X267872350Y-126495857D02*
X267824731Y-126591095D01*
X267824731Y-126591095D02*
X267824731Y-126638714D01*
X267824731Y-126638714D02*
X267872350Y-126733952D01*
X267872350Y-126733952D02*
X267919969Y-126781571D01*
X267919969Y-126781571D02*
X268015207Y-126829190D01*
X268015207Y-126829190D02*
X268205683Y-126829190D01*
X268205683Y-126829190D02*
X268300921Y-126876809D01*
X268300921Y-126876809D02*
X268348540Y-126924428D01*
X268348540Y-126924428D02*
X268396159Y-127019666D01*
X268396159Y-127019666D02*
X268396159Y-127210142D01*
X268396159Y-127210142D02*
X268348540Y-127305380D01*
X268348540Y-127305380D02*
X268300921Y-127353000D01*
X268300921Y-127353000D02*
X268205683Y-127400619D01*
X268205683Y-127400619D02*
X268015207Y-127400619D01*
X268015207Y-127400619D02*
X267919969Y-127353000D01*
X267919969Y-127353000D02*
X267872350Y-127305380D01*
X267872350Y-127305380D02*
X267824731Y-127210142D01*
X267824731Y-127210142D02*
X267824731Y-127019666D01*
X267824731Y-127019666D02*
X267872350Y-126924428D01*
X267872350Y-126924428D02*
X267919969Y-126876809D01*
X267919969Y-126876809D02*
X268015207Y-126829190D01*
X274098421Y-144620619D02*
X274098421Y-143620619D01*
X274098421Y-143620619D02*
X273860326Y-143620619D01*
X273860326Y-143620619D02*
X273717469Y-143668238D01*
X273717469Y-143668238D02*
X273622231Y-143763476D01*
X273622231Y-143763476D02*
X273574612Y-143858714D01*
X273574612Y-143858714D02*
X273526993Y-144049190D01*
X273526993Y-144049190D02*
X273526993Y-144192047D01*
X273526993Y-144192047D02*
X273574612Y-144382523D01*
X273574612Y-144382523D02*
X273622231Y-144477761D01*
X273622231Y-144477761D02*
X273717469Y-144573000D01*
X273717469Y-144573000D02*
X273860326Y-144620619D01*
X273860326Y-144620619D02*
X274098421Y-144620619D01*
X273193659Y-143620619D02*
X272574612Y-143620619D01*
X272574612Y-143620619D02*
X272907945Y-144001571D01*
X272907945Y-144001571D02*
X272765088Y-144001571D01*
X272765088Y-144001571D02*
X272669850Y-144049190D01*
X272669850Y-144049190D02*
X272622231Y-144096809D01*
X272622231Y-144096809D02*
X272574612Y-144192047D01*
X272574612Y-144192047D02*
X272574612Y-144430142D01*
X272574612Y-144430142D02*
X272622231Y-144525380D01*
X272622231Y-144525380D02*
X272669850Y-144573000D01*
X272669850Y-144573000D02*
X272765088Y-144620619D01*
X272765088Y-144620619D02*
X273050802Y-144620619D01*
X273050802Y-144620619D02*
X273146040Y-144573000D01*
X273146040Y-144573000D02*
X273193659Y-144525380D01*
X272098421Y-144620619D02*
X271907945Y-144620619D01*
X271907945Y-144620619D02*
X271812707Y-144573000D01*
X271812707Y-144573000D02*
X271765088Y-144525380D01*
X271765088Y-144525380D02*
X271669850Y-144382523D01*
X271669850Y-144382523D02*
X271622231Y-144192047D01*
X271622231Y-144192047D02*
X271622231Y-143811095D01*
X271622231Y-143811095D02*
X271669850Y-143715857D01*
X271669850Y-143715857D02*
X271717469Y-143668238D01*
X271717469Y-143668238D02*
X271812707Y-143620619D01*
X271812707Y-143620619D02*
X272003183Y-143620619D01*
X272003183Y-143620619D02*
X272098421Y-143668238D01*
X272098421Y-143668238D02*
X272146040Y-143715857D01*
X272146040Y-143715857D02*
X272193659Y-143811095D01*
X272193659Y-143811095D02*
X272193659Y-144049190D01*
X272193659Y-144049190D02*
X272146040Y-144144428D01*
X272146040Y-144144428D02*
X272098421Y-144192047D01*
X272098421Y-144192047D02*
X272003183Y-144239666D01*
X272003183Y-144239666D02*
X271812707Y-144239666D01*
X271812707Y-144239666D02*
X271717469Y-144192047D01*
X271717469Y-144192047D02*
X271669850Y-144144428D01*
X271669850Y-144144428D02*
X271622231Y-144049190D01*
X278210921Y-168060619D02*
X278210921Y-167060619D01*
X278210921Y-167060619D02*
X277972826Y-167060619D01*
X277972826Y-167060619D02*
X277829969Y-167108238D01*
X277829969Y-167108238D02*
X277734731Y-167203476D01*
X277734731Y-167203476D02*
X277687112Y-167298714D01*
X277687112Y-167298714D02*
X277639493Y-167489190D01*
X277639493Y-167489190D02*
X277639493Y-167632047D01*
X277639493Y-167632047D02*
X277687112Y-167822523D01*
X277687112Y-167822523D02*
X277734731Y-167917761D01*
X277734731Y-167917761D02*
X277829969Y-168013000D01*
X277829969Y-168013000D02*
X277972826Y-168060619D01*
X277972826Y-168060619D02*
X278210921Y-168060619D01*
X276782350Y-167393952D02*
X276782350Y-168060619D01*
X277020445Y-167013000D02*
X277258540Y-167727285D01*
X277258540Y-167727285D02*
X276639493Y-167727285D01*
X276068064Y-167060619D02*
X275972826Y-167060619D01*
X275972826Y-167060619D02*
X275877588Y-167108238D01*
X275877588Y-167108238D02*
X275829969Y-167155857D01*
X275829969Y-167155857D02*
X275782350Y-167251095D01*
X275782350Y-167251095D02*
X275734731Y-167441571D01*
X275734731Y-167441571D02*
X275734731Y-167679666D01*
X275734731Y-167679666D02*
X275782350Y-167870142D01*
X275782350Y-167870142D02*
X275829969Y-167965380D01*
X275829969Y-167965380D02*
X275877588Y-168013000D01*
X275877588Y-168013000D02*
X275972826Y-168060619D01*
X275972826Y-168060619D02*
X276068064Y-168060619D01*
X276068064Y-168060619D02*
X276163302Y-168013000D01*
X276163302Y-168013000D02*
X276210921Y-167965380D01*
X276210921Y-167965380D02*
X276258540Y-167870142D01*
X276258540Y-167870142D02*
X276306159Y-167679666D01*
X276306159Y-167679666D02*
X276306159Y-167441571D01*
X276306159Y-167441571D02*
X276258540Y-167251095D01*
X276258540Y-167251095D02*
X276210921Y-167155857D01*
X276210921Y-167155857D02*
X276163302Y-167108238D01*
X276163302Y-167108238D02*
X276068064Y-167060619D01*
X281830921Y-187910619D02*
X281830921Y-186910619D01*
X281830921Y-186910619D02*
X281592826Y-186910619D01*
X281592826Y-186910619D02*
X281449969Y-186958238D01*
X281449969Y-186958238D02*
X281354731Y-187053476D01*
X281354731Y-187053476D02*
X281307112Y-187148714D01*
X281307112Y-187148714D02*
X281259493Y-187339190D01*
X281259493Y-187339190D02*
X281259493Y-187482047D01*
X281259493Y-187482047D02*
X281307112Y-187672523D01*
X281307112Y-187672523D02*
X281354731Y-187767761D01*
X281354731Y-187767761D02*
X281449969Y-187863000D01*
X281449969Y-187863000D02*
X281592826Y-187910619D01*
X281592826Y-187910619D02*
X281830921Y-187910619D01*
X280402350Y-187243952D02*
X280402350Y-187910619D01*
X280640445Y-186863000D02*
X280878540Y-187577285D01*
X280878540Y-187577285D02*
X280259493Y-187577285D01*
X279354731Y-187910619D02*
X279926159Y-187910619D01*
X279640445Y-187910619D02*
X279640445Y-186910619D01*
X279640445Y-186910619D02*
X279735683Y-187053476D01*
X279735683Y-187053476D02*
X279830921Y-187148714D01*
X279830921Y-187148714D02*
X279926159Y-187196333D01*
X269318421Y-194240619D02*
X269318421Y-193240619D01*
X269318421Y-193240619D02*
X269080326Y-193240619D01*
X269080326Y-193240619D02*
X268937469Y-193288238D01*
X268937469Y-193288238D02*
X268842231Y-193383476D01*
X268842231Y-193383476D02*
X268794612Y-193478714D01*
X268794612Y-193478714D02*
X268746993Y-193669190D01*
X268746993Y-193669190D02*
X268746993Y-193812047D01*
X268746993Y-193812047D02*
X268794612Y-194002523D01*
X268794612Y-194002523D02*
X268842231Y-194097761D01*
X268842231Y-194097761D02*
X268937469Y-194193000D01*
X268937469Y-194193000D02*
X269080326Y-194240619D01*
X269080326Y-194240619D02*
X269318421Y-194240619D01*
X267889850Y-193573952D02*
X267889850Y-194240619D01*
X268127945Y-193193000D02*
X268366040Y-193907285D01*
X268366040Y-193907285D02*
X267746993Y-193907285D01*
X267413659Y-193335857D02*
X267366040Y-193288238D01*
X267366040Y-193288238D02*
X267270802Y-193240619D01*
X267270802Y-193240619D02*
X267032707Y-193240619D01*
X267032707Y-193240619D02*
X266937469Y-193288238D01*
X266937469Y-193288238D02*
X266889850Y-193335857D01*
X266889850Y-193335857D02*
X266842231Y-193431095D01*
X266842231Y-193431095D02*
X266842231Y-193526333D01*
X266842231Y-193526333D02*
X266889850Y-193669190D01*
X266889850Y-193669190D02*
X267461278Y-194240619D01*
X267461278Y-194240619D02*
X266842231Y-194240619D01*
X291340921Y-120840619D02*
X291340921Y-119840619D01*
X291340921Y-119840619D02*
X291102826Y-119840619D01*
X291102826Y-119840619D02*
X290959969Y-119888238D01*
X290959969Y-119888238D02*
X290864731Y-119983476D01*
X290864731Y-119983476D02*
X290817112Y-120078714D01*
X290817112Y-120078714D02*
X290769493Y-120269190D01*
X290769493Y-120269190D02*
X290769493Y-120412047D01*
X290769493Y-120412047D02*
X290817112Y-120602523D01*
X290817112Y-120602523D02*
X290864731Y-120697761D01*
X290864731Y-120697761D02*
X290959969Y-120793000D01*
X290959969Y-120793000D02*
X291102826Y-120840619D01*
X291102826Y-120840619D02*
X291340921Y-120840619D01*
X289912350Y-120173952D02*
X289912350Y-120840619D01*
X290150445Y-119793000D02*
X290388540Y-120507285D01*
X290388540Y-120507285D02*
X289769493Y-120507285D01*
X289483778Y-119840619D02*
X288864731Y-119840619D01*
X288864731Y-119840619D02*
X289198064Y-120221571D01*
X289198064Y-120221571D02*
X289055207Y-120221571D01*
X289055207Y-120221571D02*
X288959969Y-120269190D01*
X288959969Y-120269190D02*
X288912350Y-120316809D01*
X288912350Y-120316809D02*
X288864731Y-120412047D01*
X288864731Y-120412047D02*
X288864731Y-120650142D01*
X288864731Y-120650142D02*
X288912350Y-120745380D01*
X288912350Y-120745380D02*
X288959969Y-120793000D01*
X288959969Y-120793000D02*
X289055207Y-120840619D01*
X289055207Y-120840619D02*
X289340921Y-120840619D01*
X289340921Y-120840619D02*
X289436159Y-120793000D01*
X289436159Y-120793000D02*
X289483778Y-120745380D01*
X294758421Y-140530619D02*
X294758421Y-139530619D01*
X294758421Y-139530619D02*
X294520326Y-139530619D01*
X294520326Y-139530619D02*
X294377469Y-139578238D01*
X294377469Y-139578238D02*
X294282231Y-139673476D01*
X294282231Y-139673476D02*
X294234612Y-139768714D01*
X294234612Y-139768714D02*
X294186993Y-139959190D01*
X294186993Y-139959190D02*
X294186993Y-140102047D01*
X294186993Y-140102047D02*
X294234612Y-140292523D01*
X294234612Y-140292523D02*
X294282231Y-140387761D01*
X294282231Y-140387761D02*
X294377469Y-140483000D01*
X294377469Y-140483000D02*
X294520326Y-140530619D01*
X294520326Y-140530619D02*
X294758421Y-140530619D01*
X293329850Y-139863952D02*
X293329850Y-140530619D01*
X293567945Y-139483000D02*
X293806040Y-140197285D01*
X293806040Y-140197285D02*
X293186993Y-140197285D01*
X292377469Y-139863952D02*
X292377469Y-140530619D01*
X292615564Y-139483000D02*
X292853659Y-140197285D01*
X292853659Y-140197285D02*
X292234612Y-140197285D01*
X298168421Y-160080619D02*
X298168421Y-159080619D01*
X298168421Y-159080619D02*
X297930326Y-159080619D01*
X297930326Y-159080619D02*
X297787469Y-159128238D01*
X297787469Y-159128238D02*
X297692231Y-159223476D01*
X297692231Y-159223476D02*
X297644612Y-159318714D01*
X297644612Y-159318714D02*
X297596993Y-159509190D01*
X297596993Y-159509190D02*
X297596993Y-159652047D01*
X297596993Y-159652047D02*
X297644612Y-159842523D01*
X297644612Y-159842523D02*
X297692231Y-159937761D01*
X297692231Y-159937761D02*
X297787469Y-160033000D01*
X297787469Y-160033000D02*
X297930326Y-160080619D01*
X297930326Y-160080619D02*
X298168421Y-160080619D01*
X296739850Y-159413952D02*
X296739850Y-160080619D01*
X296977945Y-159033000D02*
X297216040Y-159747285D01*
X297216040Y-159747285D02*
X296596993Y-159747285D01*
X295739850Y-159080619D02*
X296216040Y-159080619D01*
X296216040Y-159080619D02*
X296263659Y-159556809D01*
X296263659Y-159556809D02*
X296216040Y-159509190D01*
X296216040Y-159509190D02*
X296120802Y-159461571D01*
X296120802Y-159461571D02*
X295882707Y-159461571D01*
X295882707Y-159461571D02*
X295787469Y-159509190D01*
X295787469Y-159509190D02*
X295739850Y-159556809D01*
X295739850Y-159556809D02*
X295692231Y-159652047D01*
X295692231Y-159652047D02*
X295692231Y-159890142D01*
X295692231Y-159890142D02*
X295739850Y-159985380D01*
X295739850Y-159985380D02*
X295787469Y-160033000D01*
X295787469Y-160033000D02*
X295882707Y-160080619D01*
X295882707Y-160080619D02*
X296120802Y-160080619D01*
X296120802Y-160080619D02*
X296216040Y-160033000D01*
X296216040Y-160033000D02*
X296263659Y-159985380D01*
X299178421Y-180070619D02*
X299178421Y-179070619D01*
X299178421Y-179070619D02*
X298940326Y-179070619D01*
X298940326Y-179070619D02*
X298797469Y-179118238D01*
X298797469Y-179118238D02*
X298702231Y-179213476D01*
X298702231Y-179213476D02*
X298654612Y-179308714D01*
X298654612Y-179308714D02*
X298606993Y-179499190D01*
X298606993Y-179499190D02*
X298606993Y-179642047D01*
X298606993Y-179642047D02*
X298654612Y-179832523D01*
X298654612Y-179832523D02*
X298702231Y-179927761D01*
X298702231Y-179927761D02*
X298797469Y-180023000D01*
X298797469Y-180023000D02*
X298940326Y-180070619D01*
X298940326Y-180070619D02*
X299178421Y-180070619D01*
X297749850Y-179403952D02*
X297749850Y-180070619D01*
X297987945Y-179023000D02*
X298226040Y-179737285D01*
X298226040Y-179737285D02*
X297606993Y-179737285D01*
X296797469Y-179070619D02*
X296987945Y-179070619D01*
X296987945Y-179070619D02*
X297083183Y-179118238D01*
X297083183Y-179118238D02*
X297130802Y-179165857D01*
X297130802Y-179165857D02*
X297226040Y-179308714D01*
X297226040Y-179308714D02*
X297273659Y-179499190D01*
X297273659Y-179499190D02*
X297273659Y-179880142D01*
X297273659Y-179880142D02*
X297226040Y-179975380D01*
X297226040Y-179975380D02*
X297178421Y-180023000D01*
X297178421Y-180023000D02*
X297083183Y-180070619D01*
X297083183Y-180070619D02*
X296892707Y-180070619D01*
X296892707Y-180070619D02*
X296797469Y-180023000D01*
X296797469Y-180023000D02*
X296749850Y-179975380D01*
X296749850Y-179975380D02*
X296702231Y-179880142D01*
X296702231Y-179880142D02*
X296702231Y-179642047D01*
X296702231Y-179642047D02*
X296749850Y-179546809D01*
X296749850Y-179546809D02*
X296797469Y-179499190D01*
X296797469Y-179499190D02*
X296892707Y-179451571D01*
X296892707Y-179451571D02*
X297083183Y-179451571D01*
X297083183Y-179451571D02*
X297178421Y-179499190D01*
X297178421Y-179499190D02*
X297226040Y-179546809D01*
X297226040Y-179546809D02*
X297273659Y-179642047D01*
X290328421Y-190810619D02*
X290328421Y-189810619D01*
X290328421Y-189810619D02*
X290090326Y-189810619D01*
X290090326Y-189810619D02*
X289947469Y-189858238D01*
X289947469Y-189858238D02*
X289852231Y-189953476D01*
X289852231Y-189953476D02*
X289804612Y-190048714D01*
X289804612Y-190048714D02*
X289756993Y-190239190D01*
X289756993Y-190239190D02*
X289756993Y-190382047D01*
X289756993Y-190382047D02*
X289804612Y-190572523D01*
X289804612Y-190572523D02*
X289852231Y-190667761D01*
X289852231Y-190667761D02*
X289947469Y-190763000D01*
X289947469Y-190763000D02*
X290090326Y-190810619D01*
X290090326Y-190810619D02*
X290328421Y-190810619D01*
X288899850Y-190143952D02*
X288899850Y-190810619D01*
X289137945Y-189763000D02*
X289376040Y-190477285D01*
X289376040Y-190477285D02*
X288756993Y-190477285D01*
X288471278Y-189810619D02*
X287804612Y-189810619D01*
X287804612Y-189810619D02*
X288233183Y-190810619D01*
X317540921Y-112030619D02*
X317540921Y-111030619D01*
X317540921Y-111030619D02*
X317302826Y-111030619D01*
X317302826Y-111030619D02*
X317159969Y-111078238D01*
X317159969Y-111078238D02*
X317064731Y-111173476D01*
X317064731Y-111173476D02*
X317017112Y-111268714D01*
X317017112Y-111268714D02*
X316969493Y-111459190D01*
X316969493Y-111459190D02*
X316969493Y-111602047D01*
X316969493Y-111602047D02*
X317017112Y-111792523D01*
X317017112Y-111792523D02*
X317064731Y-111887761D01*
X317064731Y-111887761D02*
X317159969Y-111983000D01*
X317159969Y-111983000D02*
X317302826Y-112030619D01*
X317302826Y-112030619D02*
X317540921Y-112030619D01*
X316112350Y-111363952D02*
X316112350Y-112030619D01*
X316350445Y-110983000D02*
X316588540Y-111697285D01*
X316588540Y-111697285D02*
X315969493Y-111697285D01*
X315445683Y-111459190D02*
X315540921Y-111411571D01*
X315540921Y-111411571D02*
X315588540Y-111363952D01*
X315588540Y-111363952D02*
X315636159Y-111268714D01*
X315636159Y-111268714D02*
X315636159Y-111221095D01*
X315636159Y-111221095D02*
X315588540Y-111125857D01*
X315588540Y-111125857D02*
X315540921Y-111078238D01*
X315540921Y-111078238D02*
X315445683Y-111030619D01*
X315445683Y-111030619D02*
X315255207Y-111030619D01*
X315255207Y-111030619D02*
X315159969Y-111078238D01*
X315159969Y-111078238D02*
X315112350Y-111125857D01*
X315112350Y-111125857D02*
X315064731Y-111221095D01*
X315064731Y-111221095D02*
X315064731Y-111268714D01*
X315064731Y-111268714D02*
X315112350Y-111363952D01*
X315112350Y-111363952D02*
X315159969Y-111411571D01*
X315159969Y-111411571D02*
X315255207Y-111459190D01*
X315255207Y-111459190D02*
X315445683Y-111459190D01*
X315445683Y-111459190D02*
X315540921Y-111506809D01*
X315540921Y-111506809D02*
X315588540Y-111554428D01*
X315588540Y-111554428D02*
X315636159Y-111649666D01*
X315636159Y-111649666D02*
X315636159Y-111840142D01*
X315636159Y-111840142D02*
X315588540Y-111935380D01*
X315588540Y-111935380D02*
X315540921Y-111983000D01*
X315540921Y-111983000D02*
X315445683Y-112030619D01*
X315445683Y-112030619D02*
X315255207Y-112030619D01*
X315255207Y-112030619D02*
X315159969Y-111983000D01*
X315159969Y-111983000D02*
X315112350Y-111935380D01*
X315112350Y-111935380D02*
X315064731Y-111840142D01*
X315064731Y-111840142D02*
X315064731Y-111649666D01*
X315064731Y-111649666D02*
X315112350Y-111554428D01*
X315112350Y-111554428D02*
X315159969Y-111506809D01*
X315159969Y-111506809D02*
X315255207Y-111459190D01*
X319490921Y-132130619D02*
X319490921Y-131130619D01*
X319490921Y-131130619D02*
X319252826Y-131130619D01*
X319252826Y-131130619D02*
X319109969Y-131178238D01*
X319109969Y-131178238D02*
X319014731Y-131273476D01*
X319014731Y-131273476D02*
X318967112Y-131368714D01*
X318967112Y-131368714D02*
X318919493Y-131559190D01*
X318919493Y-131559190D02*
X318919493Y-131702047D01*
X318919493Y-131702047D02*
X318967112Y-131892523D01*
X318967112Y-131892523D02*
X319014731Y-131987761D01*
X319014731Y-131987761D02*
X319109969Y-132083000D01*
X319109969Y-132083000D02*
X319252826Y-132130619D01*
X319252826Y-132130619D02*
X319490921Y-132130619D01*
X318062350Y-131463952D02*
X318062350Y-132130619D01*
X318300445Y-131083000D02*
X318538540Y-131797285D01*
X318538540Y-131797285D02*
X317919493Y-131797285D01*
X317490921Y-132130619D02*
X317300445Y-132130619D01*
X317300445Y-132130619D02*
X317205207Y-132083000D01*
X317205207Y-132083000D02*
X317157588Y-132035380D01*
X317157588Y-132035380D02*
X317062350Y-131892523D01*
X317062350Y-131892523D02*
X317014731Y-131702047D01*
X317014731Y-131702047D02*
X317014731Y-131321095D01*
X317014731Y-131321095D02*
X317062350Y-131225857D01*
X317062350Y-131225857D02*
X317109969Y-131178238D01*
X317109969Y-131178238D02*
X317205207Y-131130619D01*
X317205207Y-131130619D02*
X317395683Y-131130619D01*
X317395683Y-131130619D02*
X317490921Y-131178238D01*
X317490921Y-131178238D02*
X317538540Y-131225857D01*
X317538540Y-131225857D02*
X317586159Y-131321095D01*
X317586159Y-131321095D02*
X317586159Y-131559190D01*
X317586159Y-131559190D02*
X317538540Y-131654428D01*
X317538540Y-131654428D02*
X317490921Y-131702047D01*
X317490921Y-131702047D02*
X317395683Y-131749666D01*
X317395683Y-131749666D02*
X317205207Y-131749666D01*
X317205207Y-131749666D02*
X317109969Y-131702047D01*
X317109969Y-131702047D02*
X317062350Y-131654428D01*
X317062350Y-131654428D02*
X317014731Y-131559190D01*
X321210921Y-151960619D02*
X321210921Y-150960619D01*
X321210921Y-150960619D02*
X320972826Y-150960619D01*
X320972826Y-150960619D02*
X320829969Y-151008238D01*
X320829969Y-151008238D02*
X320734731Y-151103476D01*
X320734731Y-151103476D02*
X320687112Y-151198714D01*
X320687112Y-151198714D02*
X320639493Y-151389190D01*
X320639493Y-151389190D02*
X320639493Y-151532047D01*
X320639493Y-151532047D02*
X320687112Y-151722523D01*
X320687112Y-151722523D02*
X320734731Y-151817761D01*
X320734731Y-151817761D02*
X320829969Y-151913000D01*
X320829969Y-151913000D02*
X320972826Y-151960619D01*
X320972826Y-151960619D02*
X321210921Y-151960619D01*
X319734731Y-150960619D02*
X320210921Y-150960619D01*
X320210921Y-150960619D02*
X320258540Y-151436809D01*
X320258540Y-151436809D02*
X320210921Y-151389190D01*
X320210921Y-151389190D02*
X320115683Y-151341571D01*
X320115683Y-151341571D02*
X319877588Y-151341571D01*
X319877588Y-151341571D02*
X319782350Y-151389190D01*
X319782350Y-151389190D02*
X319734731Y-151436809D01*
X319734731Y-151436809D02*
X319687112Y-151532047D01*
X319687112Y-151532047D02*
X319687112Y-151770142D01*
X319687112Y-151770142D02*
X319734731Y-151865380D01*
X319734731Y-151865380D02*
X319782350Y-151913000D01*
X319782350Y-151913000D02*
X319877588Y-151960619D01*
X319877588Y-151960619D02*
X320115683Y-151960619D01*
X320115683Y-151960619D02*
X320210921Y-151913000D01*
X320210921Y-151913000D02*
X320258540Y-151865380D01*
X319068064Y-150960619D02*
X318972826Y-150960619D01*
X318972826Y-150960619D02*
X318877588Y-151008238D01*
X318877588Y-151008238D02*
X318829969Y-151055857D01*
X318829969Y-151055857D02*
X318782350Y-151151095D01*
X318782350Y-151151095D02*
X318734731Y-151341571D01*
X318734731Y-151341571D02*
X318734731Y-151579666D01*
X318734731Y-151579666D02*
X318782350Y-151770142D01*
X318782350Y-151770142D02*
X318829969Y-151865380D01*
X318829969Y-151865380D02*
X318877588Y-151913000D01*
X318877588Y-151913000D02*
X318972826Y-151960619D01*
X318972826Y-151960619D02*
X319068064Y-151960619D01*
X319068064Y-151960619D02*
X319163302Y-151913000D01*
X319163302Y-151913000D02*
X319210921Y-151865380D01*
X319210921Y-151865380D02*
X319258540Y-151770142D01*
X319258540Y-151770142D02*
X319306159Y-151579666D01*
X319306159Y-151579666D02*
X319306159Y-151341571D01*
X319306159Y-151341571D02*
X319258540Y-151151095D01*
X319258540Y-151151095D02*
X319210921Y-151055857D01*
X319210921Y-151055857D02*
X319163302Y-151008238D01*
X319163302Y-151008238D02*
X319068064Y-150960619D01*
X322878421Y-172250619D02*
X322878421Y-171250619D01*
X322878421Y-171250619D02*
X322640326Y-171250619D01*
X322640326Y-171250619D02*
X322497469Y-171298238D01*
X322497469Y-171298238D02*
X322402231Y-171393476D01*
X322402231Y-171393476D02*
X322354612Y-171488714D01*
X322354612Y-171488714D02*
X322306993Y-171679190D01*
X322306993Y-171679190D02*
X322306993Y-171822047D01*
X322306993Y-171822047D02*
X322354612Y-172012523D01*
X322354612Y-172012523D02*
X322402231Y-172107761D01*
X322402231Y-172107761D02*
X322497469Y-172203000D01*
X322497469Y-172203000D02*
X322640326Y-172250619D01*
X322640326Y-172250619D02*
X322878421Y-172250619D01*
X321402231Y-171250619D02*
X321878421Y-171250619D01*
X321878421Y-171250619D02*
X321926040Y-171726809D01*
X321926040Y-171726809D02*
X321878421Y-171679190D01*
X321878421Y-171679190D02*
X321783183Y-171631571D01*
X321783183Y-171631571D02*
X321545088Y-171631571D01*
X321545088Y-171631571D02*
X321449850Y-171679190D01*
X321449850Y-171679190D02*
X321402231Y-171726809D01*
X321402231Y-171726809D02*
X321354612Y-171822047D01*
X321354612Y-171822047D02*
X321354612Y-172060142D01*
X321354612Y-172060142D02*
X321402231Y-172155380D01*
X321402231Y-172155380D02*
X321449850Y-172203000D01*
X321449850Y-172203000D02*
X321545088Y-172250619D01*
X321545088Y-172250619D02*
X321783183Y-172250619D01*
X321783183Y-172250619D02*
X321878421Y-172203000D01*
X321878421Y-172203000D02*
X321926040Y-172155380D01*
X320402231Y-172250619D02*
X320973659Y-172250619D01*
X320687945Y-172250619D02*
X320687945Y-171250619D01*
X320687945Y-171250619D02*
X320783183Y-171393476D01*
X320783183Y-171393476D02*
X320878421Y-171488714D01*
X320878421Y-171488714D02*
X320973659Y-171536333D01*
X310580921Y-188080619D02*
X310580921Y-187080619D01*
X310580921Y-187080619D02*
X310342826Y-187080619D01*
X310342826Y-187080619D02*
X310199969Y-187128238D01*
X310199969Y-187128238D02*
X310104731Y-187223476D01*
X310104731Y-187223476D02*
X310057112Y-187318714D01*
X310057112Y-187318714D02*
X310009493Y-187509190D01*
X310009493Y-187509190D02*
X310009493Y-187652047D01*
X310009493Y-187652047D02*
X310057112Y-187842523D01*
X310057112Y-187842523D02*
X310104731Y-187937761D01*
X310104731Y-187937761D02*
X310199969Y-188033000D01*
X310199969Y-188033000D02*
X310342826Y-188080619D01*
X310342826Y-188080619D02*
X310580921Y-188080619D01*
X309104731Y-187080619D02*
X309580921Y-187080619D01*
X309580921Y-187080619D02*
X309628540Y-187556809D01*
X309628540Y-187556809D02*
X309580921Y-187509190D01*
X309580921Y-187509190D02*
X309485683Y-187461571D01*
X309485683Y-187461571D02*
X309247588Y-187461571D01*
X309247588Y-187461571D02*
X309152350Y-187509190D01*
X309152350Y-187509190D02*
X309104731Y-187556809D01*
X309104731Y-187556809D02*
X309057112Y-187652047D01*
X309057112Y-187652047D02*
X309057112Y-187890142D01*
X309057112Y-187890142D02*
X309104731Y-187985380D01*
X309104731Y-187985380D02*
X309152350Y-188033000D01*
X309152350Y-188033000D02*
X309247588Y-188080619D01*
X309247588Y-188080619D02*
X309485683Y-188080619D01*
X309485683Y-188080619D02*
X309580921Y-188033000D01*
X309580921Y-188033000D02*
X309628540Y-187985380D01*
X308676159Y-187175857D02*
X308628540Y-187128238D01*
X308628540Y-187128238D02*
X308533302Y-187080619D01*
X308533302Y-187080619D02*
X308295207Y-187080619D01*
X308295207Y-187080619D02*
X308199969Y-187128238D01*
X308199969Y-187128238D02*
X308152350Y-187175857D01*
X308152350Y-187175857D02*
X308104731Y-187271095D01*
X308104731Y-187271095D02*
X308104731Y-187366333D01*
X308104731Y-187366333D02*
X308152350Y-187509190D01*
X308152350Y-187509190D02*
X308723778Y-188080619D01*
X308723778Y-188080619D02*
X308104731Y-188080619D01*
X340438421Y-114120619D02*
X340438421Y-113120619D01*
X340438421Y-113120619D02*
X340200326Y-113120619D01*
X340200326Y-113120619D02*
X340057469Y-113168238D01*
X340057469Y-113168238D02*
X339962231Y-113263476D01*
X339962231Y-113263476D02*
X339914612Y-113358714D01*
X339914612Y-113358714D02*
X339866993Y-113549190D01*
X339866993Y-113549190D02*
X339866993Y-113692047D01*
X339866993Y-113692047D02*
X339914612Y-113882523D01*
X339914612Y-113882523D02*
X339962231Y-113977761D01*
X339962231Y-113977761D02*
X340057469Y-114073000D01*
X340057469Y-114073000D02*
X340200326Y-114120619D01*
X340200326Y-114120619D02*
X340438421Y-114120619D01*
X338962231Y-113120619D02*
X339438421Y-113120619D01*
X339438421Y-113120619D02*
X339486040Y-113596809D01*
X339486040Y-113596809D02*
X339438421Y-113549190D01*
X339438421Y-113549190D02*
X339343183Y-113501571D01*
X339343183Y-113501571D02*
X339105088Y-113501571D01*
X339105088Y-113501571D02*
X339009850Y-113549190D01*
X339009850Y-113549190D02*
X338962231Y-113596809D01*
X338962231Y-113596809D02*
X338914612Y-113692047D01*
X338914612Y-113692047D02*
X338914612Y-113930142D01*
X338914612Y-113930142D02*
X338962231Y-114025380D01*
X338962231Y-114025380D02*
X339009850Y-114073000D01*
X339009850Y-114073000D02*
X339105088Y-114120619D01*
X339105088Y-114120619D02*
X339343183Y-114120619D01*
X339343183Y-114120619D02*
X339438421Y-114073000D01*
X339438421Y-114073000D02*
X339486040Y-114025380D01*
X338581278Y-113120619D02*
X337962231Y-113120619D01*
X337962231Y-113120619D02*
X338295564Y-113501571D01*
X338295564Y-113501571D02*
X338152707Y-113501571D01*
X338152707Y-113501571D02*
X338057469Y-113549190D01*
X338057469Y-113549190D02*
X338009850Y-113596809D01*
X338009850Y-113596809D02*
X337962231Y-113692047D01*
X337962231Y-113692047D02*
X337962231Y-113930142D01*
X337962231Y-113930142D02*
X338009850Y-114025380D01*
X338009850Y-114025380D02*
X338057469Y-114073000D01*
X338057469Y-114073000D02*
X338152707Y-114120619D01*
X338152707Y-114120619D02*
X338438421Y-114120619D01*
X338438421Y-114120619D02*
X338533659Y-114073000D01*
X338533659Y-114073000D02*
X338581278Y-114025380D01*
X341570921Y-123200619D02*
X341570921Y-122200619D01*
X341570921Y-122200619D02*
X341332826Y-122200619D01*
X341332826Y-122200619D02*
X341189969Y-122248238D01*
X341189969Y-122248238D02*
X341094731Y-122343476D01*
X341094731Y-122343476D02*
X341047112Y-122438714D01*
X341047112Y-122438714D02*
X340999493Y-122629190D01*
X340999493Y-122629190D02*
X340999493Y-122772047D01*
X340999493Y-122772047D02*
X341047112Y-122962523D01*
X341047112Y-122962523D02*
X341094731Y-123057761D01*
X341094731Y-123057761D02*
X341189969Y-123153000D01*
X341189969Y-123153000D02*
X341332826Y-123200619D01*
X341332826Y-123200619D02*
X341570921Y-123200619D01*
X340094731Y-122200619D02*
X340570921Y-122200619D01*
X340570921Y-122200619D02*
X340618540Y-122676809D01*
X340618540Y-122676809D02*
X340570921Y-122629190D01*
X340570921Y-122629190D02*
X340475683Y-122581571D01*
X340475683Y-122581571D02*
X340237588Y-122581571D01*
X340237588Y-122581571D02*
X340142350Y-122629190D01*
X340142350Y-122629190D02*
X340094731Y-122676809D01*
X340094731Y-122676809D02*
X340047112Y-122772047D01*
X340047112Y-122772047D02*
X340047112Y-123010142D01*
X340047112Y-123010142D02*
X340094731Y-123105380D01*
X340094731Y-123105380D02*
X340142350Y-123153000D01*
X340142350Y-123153000D02*
X340237588Y-123200619D01*
X340237588Y-123200619D02*
X340475683Y-123200619D01*
X340475683Y-123200619D02*
X340570921Y-123153000D01*
X340570921Y-123153000D02*
X340618540Y-123105380D01*
X339189969Y-122533952D02*
X339189969Y-123200619D01*
X339428064Y-122153000D02*
X339666159Y-122867285D01*
X339666159Y-122867285D02*
X339047112Y-122867285D01*
X341690921Y-143220619D02*
X341690921Y-142220619D01*
X341690921Y-142220619D02*
X341452826Y-142220619D01*
X341452826Y-142220619D02*
X341309969Y-142268238D01*
X341309969Y-142268238D02*
X341214731Y-142363476D01*
X341214731Y-142363476D02*
X341167112Y-142458714D01*
X341167112Y-142458714D02*
X341119493Y-142649190D01*
X341119493Y-142649190D02*
X341119493Y-142792047D01*
X341119493Y-142792047D02*
X341167112Y-142982523D01*
X341167112Y-142982523D02*
X341214731Y-143077761D01*
X341214731Y-143077761D02*
X341309969Y-143173000D01*
X341309969Y-143173000D02*
X341452826Y-143220619D01*
X341452826Y-143220619D02*
X341690921Y-143220619D01*
X340214731Y-142220619D02*
X340690921Y-142220619D01*
X340690921Y-142220619D02*
X340738540Y-142696809D01*
X340738540Y-142696809D02*
X340690921Y-142649190D01*
X340690921Y-142649190D02*
X340595683Y-142601571D01*
X340595683Y-142601571D02*
X340357588Y-142601571D01*
X340357588Y-142601571D02*
X340262350Y-142649190D01*
X340262350Y-142649190D02*
X340214731Y-142696809D01*
X340214731Y-142696809D02*
X340167112Y-142792047D01*
X340167112Y-142792047D02*
X340167112Y-143030142D01*
X340167112Y-143030142D02*
X340214731Y-143125380D01*
X340214731Y-143125380D02*
X340262350Y-143173000D01*
X340262350Y-143173000D02*
X340357588Y-143220619D01*
X340357588Y-143220619D02*
X340595683Y-143220619D01*
X340595683Y-143220619D02*
X340690921Y-143173000D01*
X340690921Y-143173000D02*
X340738540Y-143125380D01*
X339262350Y-142220619D02*
X339738540Y-142220619D01*
X339738540Y-142220619D02*
X339786159Y-142696809D01*
X339786159Y-142696809D02*
X339738540Y-142649190D01*
X339738540Y-142649190D02*
X339643302Y-142601571D01*
X339643302Y-142601571D02*
X339405207Y-142601571D01*
X339405207Y-142601571D02*
X339309969Y-142649190D01*
X339309969Y-142649190D02*
X339262350Y-142696809D01*
X339262350Y-142696809D02*
X339214731Y-142792047D01*
X339214731Y-142792047D02*
X339214731Y-143030142D01*
X339214731Y-143030142D02*
X339262350Y-143125380D01*
X339262350Y-143125380D02*
X339309969Y-143173000D01*
X339309969Y-143173000D02*
X339405207Y-143220619D01*
X339405207Y-143220619D02*
X339643302Y-143220619D01*
X339643302Y-143220619D02*
X339738540Y-143173000D01*
X339738540Y-143173000D02*
X339786159Y-143125380D01*
X341630921Y-163210619D02*
X341630921Y-162210619D01*
X341630921Y-162210619D02*
X341392826Y-162210619D01*
X341392826Y-162210619D02*
X341249969Y-162258238D01*
X341249969Y-162258238D02*
X341154731Y-162353476D01*
X341154731Y-162353476D02*
X341107112Y-162448714D01*
X341107112Y-162448714D02*
X341059493Y-162639190D01*
X341059493Y-162639190D02*
X341059493Y-162782047D01*
X341059493Y-162782047D02*
X341107112Y-162972523D01*
X341107112Y-162972523D02*
X341154731Y-163067761D01*
X341154731Y-163067761D02*
X341249969Y-163163000D01*
X341249969Y-163163000D02*
X341392826Y-163210619D01*
X341392826Y-163210619D02*
X341630921Y-163210619D01*
X340154731Y-162210619D02*
X340630921Y-162210619D01*
X340630921Y-162210619D02*
X340678540Y-162686809D01*
X340678540Y-162686809D02*
X340630921Y-162639190D01*
X340630921Y-162639190D02*
X340535683Y-162591571D01*
X340535683Y-162591571D02*
X340297588Y-162591571D01*
X340297588Y-162591571D02*
X340202350Y-162639190D01*
X340202350Y-162639190D02*
X340154731Y-162686809D01*
X340154731Y-162686809D02*
X340107112Y-162782047D01*
X340107112Y-162782047D02*
X340107112Y-163020142D01*
X340107112Y-163020142D02*
X340154731Y-163115380D01*
X340154731Y-163115380D02*
X340202350Y-163163000D01*
X340202350Y-163163000D02*
X340297588Y-163210619D01*
X340297588Y-163210619D02*
X340535683Y-163210619D01*
X340535683Y-163210619D02*
X340630921Y-163163000D01*
X340630921Y-163163000D02*
X340678540Y-163115380D01*
X339249969Y-162210619D02*
X339440445Y-162210619D01*
X339440445Y-162210619D02*
X339535683Y-162258238D01*
X339535683Y-162258238D02*
X339583302Y-162305857D01*
X339583302Y-162305857D02*
X339678540Y-162448714D01*
X339678540Y-162448714D02*
X339726159Y-162639190D01*
X339726159Y-162639190D02*
X339726159Y-163020142D01*
X339726159Y-163020142D02*
X339678540Y-163115380D01*
X339678540Y-163115380D02*
X339630921Y-163163000D01*
X339630921Y-163163000D02*
X339535683Y-163210619D01*
X339535683Y-163210619D02*
X339345207Y-163210619D01*
X339345207Y-163210619D02*
X339249969Y-163163000D01*
X339249969Y-163163000D02*
X339202350Y-163115380D01*
X339202350Y-163115380D02*
X339154731Y-163020142D01*
X339154731Y-163020142D02*
X339154731Y-162782047D01*
X339154731Y-162782047D02*
X339202350Y-162686809D01*
X339202350Y-162686809D02*
X339249969Y-162639190D01*
X339249969Y-162639190D02*
X339345207Y-162591571D01*
X339345207Y-162591571D02*
X339535683Y-162591571D01*
X339535683Y-162591571D02*
X339630921Y-162639190D01*
X339630921Y-162639190D02*
X339678540Y-162686809D01*
X339678540Y-162686809D02*
X339726159Y-162782047D01*
X341558421Y-183140619D02*
X341558421Y-182140619D01*
X341558421Y-182140619D02*
X341320326Y-182140619D01*
X341320326Y-182140619D02*
X341177469Y-182188238D01*
X341177469Y-182188238D02*
X341082231Y-182283476D01*
X341082231Y-182283476D02*
X341034612Y-182378714D01*
X341034612Y-182378714D02*
X340986993Y-182569190D01*
X340986993Y-182569190D02*
X340986993Y-182712047D01*
X340986993Y-182712047D02*
X341034612Y-182902523D01*
X341034612Y-182902523D02*
X341082231Y-182997761D01*
X341082231Y-182997761D02*
X341177469Y-183093000D01*
X341177469Y-183093000D02*
X341320326Y-183140619D01*
X341320326Y-183140619D02*
X341558421Y-183140619D01*
X340082231Y-182140619D02*
X340558421Y-182140619D01*
X340558421Y-182140619D02*
X340606040Y-182616809D01*
X340606040Y-182616809D02*
X340558421Y-182569190D01*
X340558421Y-182569190D02*
X340463183Y-182521571D01*
X340463183Y-182521571D02*
X340225088Y-182521571D01*
X340225088Y-182521571D02*
X340129850Y-182569190D01*
X340129850Y-182569190D02*
X340082231Y-182616809D01*
X340082231Y-182616809D02*
X340034612Y-182712047D01*
X340034612Y-182712047D02*
X340034612Y-182950142D01*
X340034612Y-182950142D02*
X340082231Y-183045380D01*
X340082231Y-183045380D02*
X340129850Y-183093000D01*
X340129850Y-183093000D02*
X340225088Y-183140619D01*
X340225088Y-183140619D02*
X340463183Y-183140619D01*
X340463183Y-183140619D02*
X340558421Y-183093000D01*
X340558421Y-183093000D02*
X340606040Y-183045380D01*
X339701278Y-182140619D02*
X339034612Y-182140619D01*
X339034612Y-182140619D02*
X339463183Y-183140619D01*
X356138421Y-112240619D02*
X356138421Y-111240619D01*
X356138421Y-111240619D02*
X355900326Y-111240619D01*
X355900326Y-111240619D02*
X355757469Y-111288238D01*
X355757469Y-111288238D02*
X355662231Y-111383476D01*
X355662231Y-111383476D02*
X355614612Y-111478714D01*
X355614612Y-111478714D02*
X355566993Y-111669190D01*
X355566993Y-111669190D02*
X355566993Y-111812047D01*
X355566993Y-111812047D02*
X355614612Y-112002523D01*
X355614612Y-112002523D02*
X355662231Y-112097761D01*
X355662231Y-112097761D02*
X355757469Y-112193000D01*
X355757469Y-112193000D02*
X355900326Y-112240619D01*
X355900326Y-112240619D02*
X356138421Y-112240619D01*
X354662231Y-111240619D02*
X355138421Y-111240619D01*
X355138421Y-111240619D02*
X355186040Y-111716809D01*
X355186040Y-111716809D02*
X355138421Y-111669190D01*
X355138421Y-111669190D02*
X355043183Y-111621571D01*
X355043183Y-111621571D02*
X354805088Y-111621571D01*
X354805088Y-111621571D02*
X354709850Y-111669190D01*
X354709850Y-111669190D02*
X354662231Y-111716809D01*
X354662231Y-111716809D02*
X354614612Y-111812047D01*
X354614612Y-111812047D02*
X354614612Y-112050142D01*
X354614612Y-112050142D02*
X354662231Y-112145380D01*
X354662231Y-112145380D02*
X354709850Y-112193000D01*
X354709850Y-112193000D02*
X354805088Y-112240619D01*
X354805088Y-112240619D02*
X355043183Y-112240619D01*
X355043183Y-112240619D02*
X355138421Y-112193000D01*
X355138421Y-112193000D02*
X355186040Y-112145380D01*
X354043183Y-111669190D02*
X354138421Y-111621571D01*
X354138421Y-111621571D02*
X354186040Y-111573952D01*
X354186040Y-111573952D02*
X354233659Y-111478714D01*
X354233659Y-111478714D02*
X354233659Y-111431095D01*
X354233659Y-111431095D02*
X354186040Y-111335857D01*
X354186040Y-111335857D02*
X354138421Y-111288238D01*
X354138421Y-111288238D02*
X354043183Y-111240619D01*
X354043183Y-111240619D02*
X353852707Y-111240619D01*
X353852707Y-111240619D02*
X353757469Y-111288238D01*
X353757469Y-111288238D02*
X353709850Y-111335857D01*
X353709850Y-111335857D02*
X353662231Y-111431095D01*
X353662231Y-111431095D02*
X353662231Y-111478714D01*
X353662231Y-111478714D02*
X353709850Y-111573952D01*
X353709850Y-111573952D02*
X353757469Y-111621571D01*
X353757469Y-111621571D02*
X353852707Y-111669190D01*
X353852707Y-111669190D02*
X354043183Y-111669190D01*
X354043183Y-111669190D02*
X354138421Y-111716809D01*
X354138421Y-111716809D02*
X354186040Y-111764428D01*
X354186040Y-111764428D02*
X354233659Y-111859666D01*
X354233659Y-111859666D02*
X354233659Y-112050142D01*
X354233659Y-112050142D02*
X354186040Y-112145380D01*
X354186040Y-112145380D02*
X354138421Y-112193000D01*
X354138421Y-112193000D02*
X354043183Y-112240619D01*
X354043183Y-112240619D02*
X353852707Y-112240619D01*
X353852707Y-112240619D02*
X353757469Y-112193000D01*
X353757469Y-112193000D02*
X353709850Y-112145380D01*
X353709850Y-112145380D02*
X353662231Y-112050142D01*
X353662231Y-112050142D02*
X353662231Y-111859666D01*
X353662231Y-111859666D02*
X353709850Y-111764428D01*
X353709850Y-111764428D02*
X353757469Y-111716809D01*
X353757469Y-111716809D02*
X353852707Y-111669190D01*
X358158421Y-132320619D02*
X358158421Y-131320619D01*
X358158421Y-131320619D02*
X357920326Y-131320619D01*
X357920326Y-131320619D02*
X357777469Y-131368238D01*
X357777469Y-131368238D02*
X357682231Y-131463476D01*
X357682231Y-131463476D02*
X357634612Y-131558714D01*
X357634612Y-131558714D02*
X357586993Y-131749190D01*
X357586993Y-131749190D02*
X357586993Y-131892047D01*
X357586993Y-131892047D02*
X357634612Y-132082523D01*
X357634612Y-132082523D02*
X357682231Y-132177761D01*
X357682231Y-132177761D02*
X357777469Y-132273000D01*
X357777469Y-132273000D02*
X357920326Y-132320619D01*
X357920326Y-132320619D02*
X358158421Y-132320619D01*
X356682231Y-131320619D02*
X357158421Y-131320619D01*
X357158421Y-131320619D02*
X357206040Y-131796809D01*
X357206040Y-131796809D02*
X357158421Y-131749190D01*
X357158421Y-131749190D02*
X357063183Y-131701571D01*
X357063183Y-131701571D02*
X356825088Y-131701571D01*
X356825088Y-131701571D02*
X356729850Y-131749190D01*
X356729850Y-131749190D02*
X356682231Y-131796809D01*
X356682231Y-131796809D02*
X356634612Y-131892047D01*
X356634612Y-131892047D02*
X356634612Y-132130142D01*
X356634612Y-132130142D02*
X356682231Y-132225380D01*
X356682231Y-132225380D02*
X356729850Y-132273000D01*
X356729850Y-132273000D02*
X356825088Y-132320619D01*
X356825088Y-132320619D02*
X357063183Y-132320619D01*
X357063183Y-132320619D02*
X357158421Y-132273000D01*
X357158421Y-132273000D02*
X357206040Y-132225380D01*
X356158421Y-132320619D02*
X355967945Y-132320619D01*
X355967945Y-132320619D02*
X355872707Y-132273000D01*
X355872707Y-132273000D02*
X355825088Y-132225380D01*
X355825088Y-132225380D02*
X355729850Y-132082523D01*
X355729850Y-132082523D02*
X355682231Y-131892047D01*
X355682231Y-131892047D02*
X355682231Y-131511095D01*
X355682231Y-131511095D02*
X355729850Y-131415857D01*
X355729850Y-131415857D02*
X355777469Y-131368238D01*
X355777469Y-131368238D02*
X355872707Y-131320619D01*
X355872707Y-131320619D02*
X356063183Y-131320619D01*
X356063183Y-131320619D02*
X356158421Y-131368238D01*
X356158421Y-131368238D02*
X356206040Y-131415857D01*
X356206040Y-131415857D02*
X356253659Y-131511095D01*
X356253659Y-131511095D02*
X356253659Y-131749190D01*
X356253659Y-131749190D02*
X356206040Y-131844428D01*
X356206040Y-131844428D02*
X356158421Y-131892047D01*
X356158421Y-131892047D02*
X356063183Y-131939666D01*
X356063183Y-131939666D02*
X355872707Y-131939666D01*
X355872707Y-131939666D02*
X355777469Y-131892047D01*
X355777469Y-131892047D02*
X355729850Y-131844428D01*
X355729850Y-131844428D02*
X355682231Y-131749190D01*
X358088421Y-152220619D02*
X358088421Y-151220619D01*
X358088421Y-151220619D02*
X357850326Y-151220619D01*
X357850326Y-151220619D02*
X357707469Y-151268238D01*
X357707469Y-151268238D02*
X357612231Y-151363476D01*
X357612231Y-151363476D02*
X357564612Y-151458714D01*
X357564612Y-151458714D02*
X357516993Y-151649190D01*
X357516993Y-151649190D02*
X357516993Y-151792047D01*
X357516993Y-151792047D02*
X357564612Y-151982523D01*
X357564612Y-151982523D02*
X357612231Y-152077761D01*
X357612231Y-152077761D02*
X357707469Y-152173000D01*
X357707469Y-152173000D02*
X357850326Y-152220619D01*
X357850326Y-152220619D02*
X358088421Y-152220619D01*
X356659850Y-151220619D02*
X356850326Y-151220619D01*
X356850326Y-151220619D02*
X356945564Y-151268238D01*
X356945564Y-151268238D02*
X356993183Y-151315857D01*
X356993183Y-151315857D02*
X357088421Y-151458714D01*
X357088421Y-151458714D02*
X357136040Y-151649190D01*
X357136040Y-151649190D02*
X357136040Y-152030142D01*
X357136040Y-152030142D02*
X357088421Y-152125380D01*
X357088421Y-152125380D02*
X357040802Y-152173000D01*
X357040802Y-152173000D02*
X356945564Y-152220619D01*
X356945564Y-152220619D02*
X356755088Y-152220619D01*
X356755088Y-152220619D02*
X356659850Y-152173000D01*
X356659850Y-152173000D02*
X356612231Y-152125380D01*
X356612231Y-152125380D02*
X356564612Y-152030142D01*
X356564612Y-152030142D02*
X356564612Y-151792047D01*
X356564612Y-151792047D02*
X356612231Y-151696809D01*
X356612231Y-151696809D02*
X356659850Y-151649190D01*
X356659850Y-151649190D02*
X356755088Y-151601571D01*
X356755088Y-151601571D02*
X356945564Y-151601571D01*
X356945564Y-151601571D02*
X357040802Y-151649190D01*
X357040802Y-151649190D02*
X357088421Y-151696809D01*
X357088421Y-151696809D02*
X357136040Y-151792047D01*
X355945564Y-151220619D02*
X355850326Y-151220619D01*
X355850326Y-151220619D02*
X355755088Y-151268238D01*
X355755088Y-151268238D02*
X355707469Y-151315857D01*
X355707469Y-151315857D02*
X355659850Y-151411095D01*
X355659850Y-151411095D02*
X355612231Y-151601571D01*
X355612231Y-151601571D02*
X355612231Y-151839666D01*
X355612231Y-151839666D02*
X355659850Y-152030142D01*
X355659850Y-152030142D02*
X355707469Y-152125380D01*
X355707469Y-152125380D02*
X355755088Y-152173000D01*
X355755088Y-152173000D02*
X355850326Y-152220619D01*
X355850326Y-152220619D02*
X355945564Y-152220619D01*
X355945564Y-152220619D02*
X356040802Y-152173000D01*
X356040802Y-152173000D02*
X356088421Y-152125380D01*
X356088421Y-152125380D02*
X356136040Y-152030142D01*
X356136040Y-152030142D02*
X356183659Y-151839666D01*
X356183659Y-151839666D02*
X356183659Y-151601571D01*
X356183659Y-151601571D02*
X356136040Y-151411095D01*
X356136040Y-151411095D02*
X356088421Y-151315857D01*
X356088421Y-151315857D02*
X356040802Y-151268238D01*
X356040802Y-151268238D02*
X355945564Y-151220619D01*
X358128421Y-172300619D02*
X358128421Y-171300619D01*
X358128421Y-171300619D02*
X357890326Y-171300619D01*
X357890326Y-171300619D02*
X357747469Y-171348238D01*
X357747469Y-171348238D02*
X357652231Y-171443476D01*
X357652231Y-171443476D02*
X357604612Y-171538714D01*
X357604612Y-171538714D02*
X357556993Y-171729190D01*
X357556993Y-171729190D02*
X357556993Y-171872047D01*
X357556993Y-171872047D02*
X357604612Y-172062523D01*
X357604612Y-172062523D02*
X357652231Y-172157761D01*
X357652231Y-172157761D02*
X357747469Y-172253000D01*
X357747469Y-172253000D02*
X357890326Y-172300619D01*
X357890326Y-172300619D02*
X358128421Y-172300619D01*
X356699850Y-171300619D02*
X356890326Y-171300619D01*
X356890326Y-171300619D02*
X356985564Y-171348238D01*
X356985564Y-171348238D02*
X357033183Y-171395857D01*
X357033183Y-171395857D02*
X357128421Y-171538714D01*
X357128421Y-171538714D02*
X357176040Y-171729190D01*
X357176040Y-171729190D02*
X357176040Y-172110142D01*
X357176040Y-172110142D02*
X357128421Y-172205380D01*
X357128421Y-172205380D02*
X357080802Y-172253000D01*
X357080802Y-172253000D02*
X356985564Y-172300619D01*
X356985564Y-172300619D02*
X356795088Y-172300619D01*
X356795088Y-172300619D02*
X356699850Y-172253000D01*
X356699850Y-172253000D02*
X356652231Y-172205380D01*
X356652231Y-172205380D02*
X356604612Y-172110142D01*
X356604612Y-172110142D02*
X356604612Y-171872047D01*
X356604612Y-171872047D02*
X356652231Y-171776809D01*
X356652231Y-171776809D02*
X356699850Y-171729190D01*
X356699850Y-171729190D02*
X356795088Y-171681571D01*
X356795088Y-171681571D02*
X356985564Y-171681571D01*
X356985564Y-171681571D02*
X357080802Y-171729190D01*
X357080802Y-171729190D02*
X357128421Y-171776809D01*
X357128421Y-171776809D02*
X357176040Y-171872047D01*
X355652231Y-172300619D02*
X356223659Y-172300619D01*
X355937945Y-172300619D02*
X355937945Y-171300619D01*
X355937945Y-171300619D02*
X356033183Y-171443476D01*
X356033183Y-171443476D02*
X356128421Y-171538714D01*
X356128421Y-171538714D02*
X356223659Y-171586333D01*
X358188421Y-174870619D02*
X358188421Y-173870619D01*
X358188421Y-173870619D02*
X357950326Y-173870619D01*
X357950326Y-173870619D02*
X357807469Y-173918238D01*
X357807469Y-173918238D02*
X357712231Y-174013476D01*
X357712231Y-174013476D02*
X357664612Y-174108714D01*
X357664612Y-174108714D02*
X357616993Y-174299190D01*
X357616993Y-174299190D02*
X357616993Y-174442047D01*
X357616993Y-174442047D02*
X357664612Y-174632523D01*
X357664612Y-174632523D02*
X357712231Y-174727761D01*
X357712231Y-174727761D02*
X357807469Y-174823000D01*
X357807469Y-174823000D02*
X357950326Y-174870619D01*
X357950326Y-174870619D02*
X358188421Y-174870619D01*
X356759850Y-173870619D02*
X356950326Y-173870619D01*
X356950326Y-173870619D02*
X357045564Y-173918238D01*
X357045564Y-173918238D02*
X357093183Y-173965857D01*
X357093183Y-173965857D02*
X357188421Y-174108714D01*
X357188421Y-174108714D02*
X357236040Y-174299190D01*
X357236040Y-174299190D02*
X357236040Y-174680142D01*
X357236040Y-174680142D02*
X357188421Y-174775380D01*
X357188421Y-174775380D02*
X357140802Y-174823000D01*
X357140802Y-174823000D02*
X357045564Y-174870619D01*
X357045564Y-174870619D02*
X356855088Y-174870619D01*
X356855088Y-174870619D02*
X356759850Y-174823000D01*
X356759850Y-174823000D02*
X356712231Y-174775380D01*
X356712231Y-174775380D02*
X356664612Y-174680142D01*
X356664612Y-174680142D02*
X356664612Y-174442047D01*
X356664612Y-174442047D02*
X356712231Y-174346809D01*
X356712231Y-174346809D02*
X356759850Y-174299190D01*
X356759850Y-174299190D02*
X356855088Y-174251571D01*
X356855088Y-174251571D02*
X357045564Y-174251571D01*
X357045564Y-174251571D02*
X357140802Y-174299190D01*
X357140802Y-174299190D02*
X357188421Y-174346809D01*
X357188421Y-174346809D02*
X357236040Y-174442047D01*
X356283659Y-173965857D02*
X356236040Y-173918238D01*
X356236040Y-173918238D02*
X356140802Y-173870619D01*
X356140802Y-173870619D02*
X355902707Y-173870619D01*
X355902707Y-173870619D02*
X355807469Y-173918238D01*
X355807469Y-173918238D02*
X355759850Y-173965857D01*
X355759850Y-173965857D02*
X355712231Y-174061095D01*
X355712231Y-174061095D02*
X355712231Y-174156333D01*
X355712231Y-174156333D02*
X355759850Y-174299190D01*
X355759850Y-174299190D02*
X356331278Y-174870619D01*
X356331278Y-174870619D02*
X355712231Y-174870619D01*
X238178955Y-163701514D02*
X237178955Y-163701514D01*
X237178955Y-163701514D02*
X237178955Y-163939609D01*
X237178955Y-163939609D02*
X237226574Y-164082466D01*
X237226574Y-164082466D02*
X237321812Y-164177704D01*
X237321812Y-164177704D02*
X237417050Y-164225323D01*
X237417050Y-164225323D02*
X237607526Y-164272942D01*
X237607526Y-164272942D02*
X237750383Y-164272942D01*
X237750383Y-164272942D02*
X237940859Y-164225323D01*
X237940859Y-164225323D02*
X238036097Y-164177704D01*
X238036097Y-164177704D02*
X238131336Y-164082466D01*
X238131336Y-164082466D02*
X238178955Y-163939609D01*
X238178955Y-163939609D02*
X238178955Y-163701514D01*
X237178955Y-165130085D02*
X237178955Y-164939609D01*
X237178955Y-164939609D02*
X237226574Y-164844371D01*
X237226574Y-164844371D02*
X237274193Y-164796752D01*
X237274193Y-164796752D02*
X237417050Y-164701514D01*
X237417050Y-164701514D02*
X237607526Y-164653895D01*
X237607526Y-164653895D02*
X237988478Y-164653895D01*
X237988478Y-164653895D02*
X238083716Y-164701514D01*
X238083716Y-164701514D02*
X238131336Y-164749133D01*
X238131336Y-164749133D02*
X238178955Y-164844371D01*
X238178955Y-164844371D02*
X238178955Y-165034847D01*
X238178955Y-165034847D02*
X238131336Y-165130085D01*
X238131336Y-165130085D02*
X238083716Y-165177704D01*
X238083716Y-165177704D02*
X237988478Y-165225323D01*
X237988478Y-165225323D02*
X237750383Y-165225323D01*
X237750383Y-165225323D02*
X237655145Y-165177704D01*
X237655145Y-165177704D02*
X237607526Y-165130085D01*
X237607526Y-165130085D02*
X237559907Y-165034847D01*
X237559907Y-165034847D02*
X237559907Y-164844371D01*
X237559907Y-164844371D02*
X237607526Y-164749133D01*
X237607526Y-164749133D02*
X237655145Y-164701514D01*
X237655145Y-164701514D02*
X237750383Y-164653895D01*
X237512288Y-166082466D02*
X238178955Y-166082466D01*
X237131336Y-165844371D02*
X237845621Y-165606276D01*
X237845621Y-165606276D02*
X237845621Y-166225323D01*
X206578421Y-174060619D02*
X206578421Y-173060619D01*
X206578421Y-173060619D02*
X206340326Y-173060619D01*
X206340326Y-173060619D02*
X206197469Y-173108238D01*
X206197469Y-173108238D02*
X206102231Y-173203476D01*
X206102231Y-173203476D02*
X206054612Y-173298714D01*
X206054612Y-173298714D02*
X206006993Y-173489190D01*
X206006993Y-173489190D02*
X206006993Y-173632047D01*
X206006993Y-173632047D02*
X206054612Y-173822523D01*
X206054612Y-173822523D02*
X206102231Y-173917761D01*
X206102231Y-173917761D02*
X206197469Y-174013000D01*
X206197469Y-174013000D02*
X206340326Y-174060619D01*
X206340326Y-174060619D02*
X206578421Y-174060619D01*
X205149850Y-173060619D02*
X205340326Y-173060619D01*
X205340326Y-173060619D02*
X205435564Y-173108238D01*
X205435564Y-173108238D02*
X205483183Y-173155857D01*
X205483183Y-173155857D02*
X205578421Y-173298714D01*
X205578421Y-173298714D02*
X205626040Y-173489190D01*
X205626040Y-173489190D02*
X205626040Y-173870142D01*
X205626040Y-173870142D02*
X205578421Y-173965380D01*
X205578421Y-173965380D02*
X205530802Y-174013000D01*
X205530802Y-174013000D02*
X205435564Y-174060619D01*
X205435564Y-174060619D02*
X205245088Y-174060619D01*
X205245088Y-174060619D02*
X205149850Y-174013000D01*
X205149850Y-174013000D02*
X205102231Y-173965380D01*
X205102231Y-173965380D02*
X205054612Y-173870142D01*
X205054612Y-173870142D02*
X205054612Y-173632047D01*
X205054612Y-173632047D02*
X205102231Y-173536809D01*
X205102231Y-173536809D02*
X205149850Y-173489190D01*
X205149850Y-173489190D02*
X205245088Y-173441571D01*
X205245088Y-173441571D02*
X205435564Y-173441571D01*
X205435564Y-173441571D02*
X205530802Y-173489190D01*
X205530802Y-173489190D02*
X205578421Y-173536809D01*
X205578421Y-173536809D02*
X205626040Y-173632047D01*
X204149850Y-173060619D02*
X204626040Y-173060619D01*
X204626040Y-173060619D02*
X204673659Y-173536809D01*
X204673659Y-173536809D02*
X204626040Y-173489190D01*
X204626040Y-173489190D02*
X204530802Y-173441571D01*
X204530802Y-173441571D02*
X204292707Y-173441571D01*
X204292707Y-173441571D02*
X204197469Y-173489190D01*
X204197469Y-173489190D02*
X204149850Y-173536809D01*
X204149850Y-173536809D02*
X204102231Y-173632047D01*
X204102231Y-173632047D02*
X204102231Y-173870142D01*
X204102231Y-173870142D02*
X204149850Y-173965380D01*
X204149850Y-173965380D02*
X204197469Y-174013000D01*
X204197469Y-174013000D02*
X204292707Y-174060619D01*
X204292707Y-174060619D02*
X204530802Y-174060619D01*
X204530802Y-174060619D02*
X204626040Y-174013000D01*
X204626040Y-174013000D02*
X204673659Y-173965380D01*
X70959849Y-207268619D02*
X70388421Y-207268619D01*
X70674135Y-208268619D02*
X70674135Y-207268619D01*
X70055087Y-208268619D02*
X70055087Y-207268619D01*
X70055087Y-207268619D02*
X69674135Y-207268619D01*
X69674135Y-207268619D02*
X69578897Y-207316238D01*
X69578897Y-207316238D02*
X69531278Y-207363857D01*
X69531278Y-207363857D02*
X69483659Y-207459095D01*
X69483659Y-207459095D02*
X69483659Y-207601952D01*
X69483659Y-207601952D02*
X69531278Y-207697190D01*
X69531278Y-207697190D02*
X69578897Y-207744809D01*
X69578897Y-207744809D02*
X69674135Y-207792428D01*
X69674135Y-207792428D02*
X70055087Y-207792428D01*
X68531278Y-207316238D02*
X68626516Y-207268619D01*
X68626516Y-207268619D02*
X68769373Y-207268619D01*
X68769373Y-207268619D02*
X68912230Y-207316238D01*
X68912230Y-207316238D02*
X69007468Y-207411476D01*
X69007468Y-207411476D02*
X69055087Y-207506714D01*
X69055087Y-207506714D02*
X69102706Y-207697190D01*
X69102706Y-207697190D02*
X69102706Y-207840047D01*
X69102706Y-207840047D02*
X69055087Y-208030523D01*
X69055087Y-208030523D02*
X69007468Y-208125761D01*
X69007468Y-208125761D02*
X68912230Y-208221000D01*
X68912230Y-208221000D02*
X68769373Y-208268619D01*
X68769373Y-208268619D02*
X68674135Y-208268619D01*
X68674135Y-208268619D02*
X68531278Y-208221000D01*
X68531278Y-208221000D02*
X68483659Y-208173380D01*
X68483659Y-208173380D02*
X68483659Y-207840047D01*
X68483659Y-207840047D02*
X68674135Y-207840047D01*
X68055087Y-208268619D02*
X68055087Y-207268619D01*
X68055087Y-207268619D02*
X67483659Y-208268619D01*
X67483659Y-208268619D02*
X67483659Y-207268619D01*
X67007468Y-208268619D02*
X67007468Y-207268619D01*
X67007468Y-207268619D02*
X66769373Y-207268619D01*
X66769373Y-207268619D02*
X66626516Y-207316238D01*
X66626516Y-207316238D02*
X66531278Y-207411476D01*
X66531278Y-207411476D02*
X66483659Y-207506714D01*
X66483659Y-207506714D02*
X66436040Y-207697190D01*
X66436040Y-207697190D02*
X66436040Y-207840047D01*
X66436040Y-207840047D02*
X66483659Y-208030523D01*
X66483659Y-208030523D02*
X66531278Y-208125761D01*
X66531278Y-208125761D02*
X66626516Y-208221000D01*
X66626516Y-208221000D02*
X66769373Y-208268619D01*
X66769373Y-208268619D02*
X67007468Y-208268619D01*
X65483659Y-208268619D02*
X66055087Y-208268619D01*
X65769373Y-208268619D02*
X65769373Y-207268619D01*
X65769373Y-207268619D02*
X65864611Y-207411476D01*
X65864611Y-207411476D02*
X65959849Y-207506714D01*
X65959849Y-207506714D02*
X66055087Y-207554333D01*
X153340802Y-211672619D02*
X152769374Y-211672619D01*
X153055088Y-212672619D02*
X153055088Y-211672619D01*
X152436040Y-212672619D02*
X152436040Y-211672619D01*
X152436040Y-211672619D02*
X152055088Y-211672619D01*
X152055088Y-211672619D02*
X151959850Y-211720238D01*
X151959850Y-211720238D02*
X151912231Y-211767857D01*
X151912231Y-211767857D02*
X151864612Y-211863095D01*
X151864612Y-211863095D02*
X151864612Y-212005952D01*
X151864612Y-212005952D02*
X151912231Y-212101190D01*
X151912231Y-212101190D02*
X151959850Y-212148809D01*
X151959850Y-212148809D02*
X152055088Y-212196428D01*
X152055088Y-212196428D02*
X152436040Y-212196428D01*
X151531278Y-211672619D02*
X150912231Y-211672619D01*
X150912231Y-211672619D02*
X151245564Y-212053571D01*
X151245564Y-212053571D02*
X151102707Y-212053571D01*
X151102707Y-212053571D02*
X151007469Y-212101190D01*
X151007469Y-212101190D02*
X150959850Y-212148809D01*
X150959850Y-212148809D02*
X150912231Y-212244047D01*
X150912231Y-212244047D02*
X150912231Y-212482142D01*
X150912231Y-212482142D02*
X150959850Y-212577380D01*
X150959850Y-212577380D02*
X151007469Y-212625000D01*
X151007469Y-212625000D02*
X151102707Y-212672619D01*
X151102707Y-212672619D02*
X151388421Y-212672619D01*
X151388421Y-212672619D02*
X151483659Y-212625000D01*
X151483659Y-212625000D02*
X151531278Y-212577380D01*
X150626516Y-211672619D02*
X150293183Y-212672619D01*
X150293183Y-212672619D02*
X149959850Y-211672619D01*
X149102707Y-212672619D02*
X149674135Y-212672619D01*
X149388421Y-212672619D02*
X149388421Y-211672619D01*
X149388421Y-211672619D02*
X149483659Y-211815476D01*
X149483659Y-211815476D02*
X149578897Y-211910714D01*
X149578897Y-211910714D02*
X149674135Y-211958333D01*
X76490802Y-207168619D02*
X75919374Y-207168619D01*
X76205088Y-208168619D02*
X76205088Y-207168619D01*
X75586040Y-208168619D02*
X75586040Y-207168619D01*
X75586040Y-207168619D02*
X75205088Y-207168619D01*
X75205088Y-207168619D02*
X75109850Y-207216238D01*
X75109850Y-207216238D02*
X75062231Y-207263857D01*
X75062231Y-207263857D02*
X75014612Y-207359095D01*
X75014612Y-207359095D02*
X75014612Y-207501952D01*
X75014612Y-207501952D02*
X75062231Y-207597190D01*
X75062231Y-207597190D02*
X75109850Y-207644809D01*
X75109850Y-207644809D02*
X75205088Y-207692428D01*
X75205088Y-207692428D02*
X75586040Y-207692428D01*
X74109850Y-207168619D02*
X74586040Y-207168619D01*
X74586040Y-207168619D02*
X74633659Y-207644809D01*
X74633659Y-207644809D02*
X74586040Y-207597190D01*
X74586040Y-207597190D02*
X74490802Y-207549571D01*
X74490802Y-207549571D02*
X74252707Y-207549571D01*
X74252707Y-207549571D02*
X74157469Y-207597190D01*
X74157469Y-207597190D02*
X74109850Y-207644809D01*
X74109850Y-207644809D02*
X74062231Y-207740047D01*
X74062231Y-207740047D02*
X74062231Y-207978142D01*
X74062231Y-207978142D02*
X74109850Y-208073380D01*
X74109850Y-208073380D02*
X74157469Y-208121000D01*
X74157469Y-208121000D02*
X74252707Y-208168619D01*
X74252707Y-208168619D02*
X74490802Y-208168619D01*
X74490802Y-208168619D02*
X74586040Y-208121000D01*
X74586040Y-208121000D02*
X74633659Y-208073380D01*
X73776516Y-207168619D02*
X73443183Y-208168619D01*
X73443183Y-208168619D02*
X73109850Y-207168619D01*
X72252707Y-208168619D02*
X72824135Y-208168619D01*
X72538421Y-208168619D02*
X72538421Y-207168619D01*
X72538421Y-207168619D02*
X72633659Y-207311476D01*
X72633659Y-207311476D02*
X72728897Y-207406714D01*
X72728897Y-207406714D02*
X72824135Y-207454333D01*
X209178955Y-214091514D02*
X208178955Y-214091514D01*
X208178955Y-214091514D02*
X208178955Y-214329609D01*
X208178955Y-214329609D02*
X208226574Y-214472466D01*
X208226574Y-214472466D02*
X208321812Y-214567704D01*
X208321812Y-214567704D02*
X208417050Y-214615323D01*
X208417050Y-214615323D02*
X208607526Y-214662942D01*
X208607526Y-214662942D02*
X208750383Y-214662942D01*
X208750383Y-214662942D02*
X208940859Y-214615323D01*
X208940859Y-214615323D02*
X209036097Y-214567704D01*
X209036097Y-214567704D02*
X209131336Y-214472466D01*
X209131336Y-214472466D02*
X209178955Y-214329609D01*
X209178955Y-214329609D02*
X209178955Y-214091514D01*
X208178955Y-215520085D02*
X208178955Y-215329609D01*
X208178955Y-215329609D02*
X208226574Y-215234371D01*
X208226574Y-215234371D02*
X208274193Y-215186752D01*
X208274193Y-215186752D02*
X208417050Y-215091514D01*
X208417050Y-215091514D02*
X208607526Y-215043895D01*
X208607526Y-215043895D02*
X208988478Y-215043895D01*
X208988478Y-215043895D02*
X209083716Y-215091514D01*
X209083716Y-215091514D02*
X209131336Y-215139133D01*
X209131336Y-215139133D02*
X209178955Y-215234371D01*
X209178955Y-215234371D02*
X209178955Y-215424847D01*
X209178955Y-215424847D02*
X209131336Y-215520085D01*
X209131336Y-215520085D02*
X209083716Y-215567704D01*
X209083716Y-215567704D02*
X208988478Y-215615323D01*
X208988478Y-215615323D02*
X208750383Y-215615323D01*
X208750383Y-215615323D02*
X208655145Y-215567704D01*
X208655145Y-215567704D02*
X208607526Y-215520085D01*
X208607526Y-215520085D02*
X208559907Y-215424847D01*
X208559907Y-215424847D02*
X208559907Y-215234371D01*
X208559907Y-215234371D02*
X208607526Y-215139133D01*
X208607526Y-215139133D02*
X208655145Y-215091514D01*
X208655145Y-215091514D02*
X208750383Y-215043895D01*
X208178955Y-215948657D02*
X208178955Y-216567704D01*
X208178955Y-216567704D02*
X208559907Y-216234371D01*
X208559907Y-216234371D02*
X208559907Y-216377228D01*
X208559907Y-216377228D02*
X208607526Y-216472466D01*
X208607526Y-216472466D02*
X208655145Y-216520085D01*
X208655145Y-216520085D02*
X208750383Y-216567704D01*
X208750383Y-216567704D02*
X208988478Y-216567704D01*
X208988478Y-216567704D02*
X209083716Y-216520085D01*
X209083716Y-216520085D02*
X209131336Y-216472466D01*
X209131336Y-216472466D02*
X209178955Y-216377228D01*
X209178955Y-216377228D02*
X209178955Y-216091514D01*
X209178955Y-216091514D02*
X209131336Y-215996276D01*
X209131336Y-215996276D02*
X209083716Y-215948657D01*
X344405836Y-100882700D02*
X344405836Y-101882700D01*
X344405836Y-104482700D02*
X344405836Y-104122700D01*
X344405836Y-104482700D02*
X345565836Y-104482700D01*
X347305836Y-104482700D02*
X347685836Y-104482700D01*
X349905836Y-102582700D02*
X354905836Y-102582700D01*
X352045836Y-98972700D02*
X346505835Y-98982700D01*
X354905836Y-98982700D02*
X353915836Y-98982700D01*
X354905836Y-99332700D02*
X354905836Y-98982700D01*
X354905836Y-102582700D02*
X354905836Y-101582700D01*
X344405836Y-100882701D02*
G75*
G02*
X346505835Y-98982699I1999999J-99997D01*
G01*
X347689518Y-104461229D02*
G75*
G02*
X349905836Y-102582700I2151317J-291470D01*
G01*
X272325824Y-193177927D02*
X272499472Y-194162735D01*
X272950957Y-196723236D02*
X272888444Y-196368704D01*
X272950957Y-196723236D02*
X274093334Y-196521804D01*
X275806900Y-196219656D02*
X276181127Y-196153669D01*
X278037467Y-193897036D02*
X282961507Y-193028795D01*
X279518087Y-189970273D02*
X274063989Y-190942132D01*
X282336375Y-189483486D02*
X281361414Y-189655399D01*
X282397151Y-189828170D02*
X282336375Y-189483486D01*
X282961507Y-193028795D02*
X282787859Y-192043988D01*
X272325824Y-193177928D02*
G75*
G02*
X274063989Y-190942132I1986980J248816D01*
G01*
X276181024Y-196131886D02*
G75*
G02*
X278037467Y-193897036I2169241J86536D01*
G01*
X158238983Y-115939387D02*
X158301497Y-115584856D01*
X158238983Y-115939387D02*
X159381360Y-116140819D01*
X158864117Y-112394079D02*
X158690469Y-113378887D01*
X161094926Y-116442967D02*
X161469153Y-116508953D01*
X163985356Y-115023317D02*
X168909396Y-115891558D01*
X166719716Y-111839769D02*
X161262145Y-110887606D01*
X168909396Y-115891558D02*
X169083044Y-114906751D01*
X169473753Y-112690933D02*
X169534530Y-112346249D01*
X169534530Y-112346249D02*
X168559570Y-112174339D01*
X158864117Y-112394080D02*
G75*
G02*
X161262145Y-110887606I1952250J-445776D01*
G01*
X161476507Y-116488448D02*
G75*
G02*
X163985356Y-115023318I2068018J-660610D01*
G01*
X344501936Y-141140400D02*
X344501936Y-142140400D01*
X344501936Y-144740400D02*
X344501936Y-144380400D01*
X344501936Y-144740400D02*
X345661936Y-144740400D01*
X347401936Y-144740400D02*
X347781936Y-144740400D01*
X350001936Y-142840400D02*
X355001936Y-142840400D01*
X352141936Y-139230400D02*
X346601935Y-139240400D01*
X355001936Y-139240400D02*
X354011936Y-139240400D01*
X355001936Y-139590400D02*
X355001936Y-139240400D01*
X355001936Y-142840400D02*
X355001936Y-141840400D01*
X344501936Y-141140401D02*
G75*
G02*
X346601935Y-139240399I1999999J-99997D01*
G01*
X347785618Y-144718929D02*
G75*
G02*
X350001936Y-142840400I2151317J-291470D01*
G01*
X344501936Y-161140400D02*
X344501936Y-162140400D01*
X344501936Y-164740400D02*
X344501936Y-164380400D01*
X344501936Y-164740400D02*
X345661936Y-164740400D01*
X347401936Y-164740400D02*
X347781936Y-164740400D01*
X350001936Y-162840400D02*
X355001936Y-162840400D01*
X352141936Y-159230400D02*
X346601935Y-159240400D01*
X355001936Y-159240400D02*
X354011936Y-159240400D01*
X355001936Y-159590400D02*
X355001936Y-159240400D01*
X355001936Y-162840400D02*
X355001936Y-161840400D01*
X344501936Y-161140401D02*
G75*
G02*
X346601935Y-159240399I1999999J-99997D01*
G01*
X347785618Y-164718929D02*
G75*
G02*
X350001936Y-162840400I2151317J-291470D01*
G01*
X88726036Y-121148200D02*
X88726036Y-122148200D01*
X88726036Y-124748200D02*
X88726036Y-124388200D01*
X88726036Y-124748200D02*
X89886036Y-124748200D01*
X91626036Y-124748200D02*
X92006036Y-124748200D01*
X94226036Y-122848200D02*
X99226036Y-122848200D01*
X96366036Y-119238200D02*
X90826035Y-119248200D01*
X99226036Y-119248200D02*
X98236036Y-119248200D01*
X99226036Y-119598200D02*
X99226036Y-119248200D01*
X99226036Y-122848200D02*
X99226036Y-121848200D01*
X88726036Y-121148201D02*
G75*
G02*
X90826035Y-119248199I1999999J-99997D01*
G01*
X92009718Y-124726729D02*
G75*
G02*
X94226036Y-122848200I2151317J-291470D01*
G01*
X324385636Y-181148200D02*
X324385636Y-182148200D01*
X324385636Y-184748200D02*
X324385636Y-184388200D01*
X324385636Y-184748200D02*
X325545636Y-184748200D01*
X327285636Y-184748200D02*
X327665636Y-184748200D01*
X329885636Y-182848200D02*
X334885636Y-182848200D01*
X332025636Y-179238200D02*
X326485635Y-179248200D01*
X334885636Y-179248200D02*
X333895636Y-179248200D01*
X334885636Y-179598200D02*
X334885636Y-179248200D01*
X334885636Y-182848200D02*
X334885636Y-181848200D01*
X324385636Y-181148201D02*
G75*
G02*
X326485635Y-179248199I1999999J-99997D01*
G01*
X327669318Y-184726729D02*
G75*
G02*
X329885636Y-182848200I2151317J-291470D01*
G01*
X295853236Y-191547200D02*
X295853236Y-192547200D01*
X295853236Y-195147200D02*
X295853236Y-194787200D01*
X295853236Y-195147200D02*
X297013236Y-195147200D01*
X298753236Y-195147200D02*
X299133236Y-195147200D01*
X301353236Y-193247200D02*
X306353236Y-193247200D01*
X303493236Y-189637200D02*
X297953235Y-189647200D01*
X306353236Y-189647200D02*
X305363236Y-189647200D01*
X306353236Y-189997200D02*
X306353236Y-189647200D01*
X306353236Y-193247200D02*
X306353236Y-192247200D01*
X295853236Y-191547201D02*
G75*
G02*
X297953235Y-189647199I1999999J-99997D01*
G01*
X299136918Y-195125729D02*
G75*
G02*
X301353236Y-193247200I2151317J-291470D01*
G01*
X88726036Y-161148100D02*
X88726036Y-162148100D01*
X88726036Y-164748100D02*
X88726036Y-164388100D01*
X88726036Y-164748100D02*
X89886036Y-164748100D01*
X91626036Y-164748100D02*
X92006036Y-164748100D01*
X94226036Y-162848100D02*
X99226036Y-162848100D01*
X96366036Y-159238100D02*
X90826035Y-159248100D01*
X99226036Y-159248100D02*
X98236036Y-159248100D01*
X99226036Y-159598100D02*
X99226036Y-159248100D01*
X99226036Y-162848100D02*
X99226036Y-161848100D01*
X88726036Y-161148101D02*
G75*
G02*
X90826035Y-159248099I1999999J-99997D01*
G01*
X92009718Y-164726629D02*
G75*
G02*
X94226036Y-162848100I2151317J-291470D01*
G01*
X136739383Y-127935087D02*
X136801897Y-127580556D01*
X136739383Y-127935087D02*
X137881760Y-128136519D01*
X137364517Y-124389779D02*
X137190869Y-125374587D01*
X139595326Y-128438667D02*
X139969553Y-128504653D01*
X142485756Y-127019017D02*
X147409796Y-127887258D01*
X145220116Y-123835469D02*
X139762545Y-122883306D01*
X147409796Y-127887258D02*
X147583444Y-126902451D01*
X147974153Y-124686633D02*
X148034930Y-124341949D01*
X148034930Y-124341949D02*
X147059970Y-124170039D01*
X137364517Y-124389780D02*
G75*
G02*
X139762545Y-122883306I1952250J-445776D01*
G01*
X139976907Y-128484148D02*
G75*
G02*
X142485756Y-127019018I2068018J-660610D01*
G01*
X88726036Y-181148200D02*
X88726036Y-182148200D01*
X88726036Y-184748200D02*
X88726036Y-184388200D01*
X88726036Y-184748200D02*
X89886036Y-184748200D01*
X91626036Y-184748200D02*
X92006036Y-184748200D01*
X94226036Y-182848200D02*
X99226036Y-182848200D01*
X96366036Y-179238200D02*
X90826035Y-179248200D01*
X99226036Y-179248200D02*
X98236036Y-179248200D01*
X99226036Y-179598200D02*
X99226036Y-179248200D01*
X99226036Y-182848200D02*
X99226036Y-181848200D01*
X88726036Y-181148201D02*
G75*
G02*
X90826035Y-179248199I1999999J-99997D01*
G01*
X92009718Y-184726729D02*
G75*
G02*
X94226036Y-182848200I2151317J-291470D01*
G01*
X298341055Y-111129304D02*
X298428212Y-112125499D01*
X298654816Y-114715605D02*
X298623440Y-114356975D01*
X298654816Y-114715605D02*
X299810401Y-114614505D01*
X301543780Y-114462853D02*
X301922334Y-114429734D01*
X303968291Y-112343479D02*
X308949264Y-111907697D01*
X305785515Y-108560702D02*
X300267467Y-109053507D01*
X308635504Y-108321398D02*
X307649271Y-108407682D01*
X308666008Y-108670067D02*
X308635504Y-108321398D01*
X308949264Y-111907697D02*
X308862109Y-110911505D01*
X298341055Y-111129305D02*
G75*
G02*
X300267467Y-109053507I2001105J74693D01*
G01*
X301924132Y-114408023D02*
G75*
G02*
X303968291Y-112343479I2168535J-102864D01*
G01*
X344502036Y-181140400D02*
X344502036Y-182140400D01*
X344502036Y-184740400D02*
X344502036Y-184380400D01*
X344502036Y-184740400D02*
X345662036Y-184740400D01*
X347402036Y-184740400D02*
X347782036Y-184740400D01*
X350002036Y-182840400D02*
X355002036Y-182840400D01*
X352142036Y-179230400D02*
X346602035Y-179240400D01*
X355002036Y-179240400D02*
X354012036Y-179240400D01*
X355002036Y-179590400D02*
X355002036Y-179240400D01*
X355002036Y-182840400D02*
X355002036Y-181840400D01*
X344502036Y-181140401D02*
G75*
G02*
X346602035Y-179240399I1999999J-99997D01*
G01*
X347785718Y-184718929D02*
G75*
G02*
X350002036Y-182840400I2151317J-291470D01*
G01*
X243088024Y-159036327D02*
X243261672Y-160021135D01*
X243713157Y-162581636D02*
X243650644Y-162227104D01*
X243713157Y-162581636D02*
X244855534Y-162380204D01*
X246569100Y-162078056D02*
X246943327Y-162012069D01*
X248799667Y-159755436D02*
X253723707Y-158887195D01*
X250280287Y-155828673D02*
X244826189Y-156800532D01*
X253098575Y-155341886D02*
X252123614Y-155513799D01*
X253159351Y-155686570D02*
X253098575Y-155341886D01*
X253723707Y-158887195D02*
X253550059Y-157902388D01*
X243088024Y-159036328D02*
G75*
G02*
X244826189Y-156800532I1986980J248816D01*
G01*
X246943224Y-161990286D02*
G75*
G02*
X248799667Y-159755436I2169241J86536D01*
G01*
X160028672Y-198905819D02*
X160151799Y-198567530D01*
X160028672Y-198905819D02*
X161118715Y-199302563D01*
X161259944Y-195522926D02*
X160917924Y-196462618D01*
X162753780Y-199897678D02*
X163110863Y-200027645D01*
X165846819Y-199001514D02*
X170545282Y-200711615D01*
X169092454Y-196341147D02*
X163883136Y-194455752D01*
X170545282Y-200711615D02*
X170887303Y-199771922D01*
X171656848Y-197657614D02*
X171776555Y-197328721D01*
X171776555Y-197328721D02*
X170846259Y-196990121D01*
X161259944Y-195522927D02*
G75*
G02*
X163883136Y-194455751I1845183J-778006D01*
G01*
X163121667Y-200008729D02*
G75*
G02*
X165846819Y-199001514I1921888J-1009685D01*
G01*
X151213683Y-155263687D02*
X151276197Y-154909156D01*
X151213683Y-155263687D02*
X152356060Y-155465119D01*
X151838817Y-151718379D02*
X151665169Y-152703187D01*
X154069626Y-155767267D02*
X154443853Y-155833253D01*
X156960056Y-154347617D02*
X161884096Y-155215858D01*
X159694416Y-151164069D02*
X154236845Y-150211906D01*
X161884096Y-155215858D02*
X162057744Y-154231051D01*
X162448453Y-152015233D02*
X162509230Y-151670549D01*
X162509230Y-151670549D02*
X161534270Y-151498639D01*
X151838817Y-151718380D02*
G75*
G02*
X154236845Y-150211906I1952250J-445776D01*
G01*
X154451207Y-155812748D02*
G75*
G02*
X156960056Y-154347618I2068018J-660610D01*
G01*
X279399324Y-146134927D02*
X279572972Y-147119735D01*
X280024457Y-149680236D02*
X279961944Y-149325704D01*
X280024457Y-149680236D02*
X281166834Y-149478804D01*
X282880400Y-149176656D02*
X283254627Y-149110669D01*
X285110967Y-146854036D02*
X290035007Y-145985795D01*
X286591587Y-142927273D02*
X281137489Y-143899132D01*
X289409875Y-142440486D02*
X288434914Y-142612399D01*
X289470651Y-142785170D02*
X289409875Y-142440486D01*
X290035007Y-145985795D02*
X289861359Y-145000988D01*
X279399324Y-146134928D02*
G75*
G02*
X281137489Y-143899132I1986980J248816D01*
G01*
X283254524Y-149088886D02*
G75*
G02*
X285110967Y-146854036I2169241J86536D01*
G01*
X108886059Y-173813767D02*
X108917435Y-173455137D01*
X108886059Y-173813767D02*
X110041644Y-173914868D01*
X109199819Y-170227466D02*
X109112664Y-171223661D01*
X111775023Y-174066519D02*
X112153577Y-174099638D01*
X114530725Y-172400354D02*
X119511699Y-172836132D01*
X116977214Y-168990604D02*
X111457423Y-168517723D01*
X119511699Y-172836132D02*
X119598855Y-171839938D01*
X119794955Y-169598500D02*
X119825460Y-169249831D01*
X119825460Y-169249831D02*
X118839227Y-169163547D01*
X109199819Y-170227467D02*
G75*
G02*
X111457423Y-168517723I1983674J-273930D01*
G01*
X112159117Y-174078569D02*
G75*
G02*
X114530725Y-172400354I2117730J-477865D01*
G01*
X300155255Y-131157404D02*
X300242412Y-132153599D01*
X300469016Y-134743705D02*
X300437640Y-134385075D01*
X300469016Y-134743705D02*
X301624601Y-134642605D01*
X303357980Y-134490953D02*
X303736534Y-134457834D01*
X305782491Y-132371579D02*
X310763464Y-131935797D01*
X307599715Y-128588802D02*
X302081667Y-129081607D01*
X310449704Y-128349498D02*
X309463471Y-128435782D01*
X310480208Y-128698167D02*
X310449704Y-128349498D01*
X310763464Y-131935797D02*
X310676309Y-130939605D01*
X300155255Y-131157405D02*
G75*
G02*
X302081667Y-129081607I2001105J74693D01*
G01*
X303738332Y-134436123D02*
G75*
G02*
X305782491Y-132371579I2168535J-102864D01*
G01*
X344501936Y-121140400D02*
X344501936Y-122140400D01*
X344501936Y-124740400D02*
X344501936Y-124380400D01*
X344501936Y-124740400D02*
X345661936Y-124740400D01*
X347401936Y-124740400D02*
X347781936Y-124740400D01*
X350001936Y-122840400D02*
X355001936Y-122840400D01*
X352141936Y-119230400D02*
X346601935Y-119240400D01*
X355001936Y-119240400D02*
X354011936Y-119240400D01*
X355001936Y-119590400D02*
X355001936Y-119240400D01*
X355001936Y-122840400D02*
X355001936Y-121840400D01*
X344501936Y-121140401D02*
G75*
G02*
X346601935Y-119240399I1999999J-99997D01*
G01*
X347785618Y-124718929D02*
G75*
G02*
X350001936Y-122840400I2151317J-291470D01*
G01*
X303956755Y-171255904D02*
X304043912Y-172252099D01*
X304270516Y-174842205D02*
X304239140Y-174483575D01*
X304270516Y-174842205D02*
X305426101Y-174741105D01*
X307159480Y-174589453D02*
X307538034Y-174556334D01*
X309583991Y-172470079D02*
X314564964Y-172034297D01*
X311401215Y-168687302D02*
X305883167Y-169180107D01*
X314251204Y-168447998D02*
X313264971Y-168534282D01*
X314281708Y-168796667D02*
X314251204Y-168447998D01*
X314564964Y-172034297D02*
X314477809Y-171038105D01*
X303956755Y-171255905D02*
G75*
G02*
X305883167Y-169180107I2001105J74693D01*
G01*
X307539832Y-174534623D02*
G75*
G02*
X309583991Y-172470079I2168535J-102864D01*
G01*
X147740783Y-174959887D02*
X147803297Y-174605356D01*
X147740783Y-174959887D02*
X148883160Y-175161319D01*
X148365917Y-171414579D02*
X148192269Y-172399387D01*
X150596726Y-175463467D02*
X150970953Y-175529453D01*
X153487156Y-174043817D02*
X158411196Y-174912058D01*
X156221516Y-170860269D02*
X150763945Y-169908106D01*
X158411196Y-174912058D02*
X158584844Y-173927251D01*
X158975553Y-171711433D02*
X159036330Y-171366749D01*
X159036330Y-171366749D02*
X158061370Y-171194839D01*
X148365917Y-171414580D02*
G75*
G02*
X150763945Y-169908106I1952250J-445776D01*
G01*
X150978307Y-175508948D02*
G75*
G02*
X153487156Y-174043818I2068018J-660610D01*
G01*
X252563355Y-199558764D02*
X252905375Y-200498456D01*
X253794627Y-202941657D02*
X253671500Y-202603368D01*
X253794627Y-202941657D02*
X254884671Y-202544914D01*
X256519736Y-201949799D02*
X256876819Y-201819831D01*
X258313099Y-199275130D02*
X263011561Y-197565030D01*
X259089348Y-195150917D02*
X253886870Y-197055106D01*
X261780289Y-194182136D02*
X260849993Y-194520736D01*
X261899996Y-194511028D02*
X261780289Y-194182136D01*
X263011561Y-197565030D02*
X262669542Y-196625336D01*
X252563355Y-199558764D02*
G75*
G02*
X253886870Y-197055106I1913586J590072D01*
G01*
X256872936Y-201798396D02*
G75*
G02*
X258313099Y-199275130I2121267J461901D01*
G01*
X239597624Y-139241727D02*
X239771272Y-140226535D01*
X240222757Y-142787036D02*
X240160244Y-142432504D01*
X240222757Y-142787036D02*
X241365134Y-142585604D01*
X243078700Y-142283456D02*
X243452927Y-142217469D01*
X245309267Y-139960836D02*
X250233307Y-139092595D01*
X246789887Y-136034073D02*
X241335789Y-137005932D01*
X249608175Y-135547286D02*
X248633214Y-135719199D01*
X249668951Y-135891970D02*
X249608175Y-135547286D01*
X250233307Y-139092595D02*
X250059659Y-138107788D01*
X239597624Y-139241728D02*
G75*
G02*
X241335789Y-137005932I1986980J248816D01*
G01*
X243452824Y-142195686D02*
G75*
G02*
X245309267Y-139960836I2169241J86536D01*
G01*
X324289536Y-100890400D02*
X324289536Y-101890400D01*
X324289536Y-104490400D02*
X324289536Y-104130400D01*
X324289536Y-104490400D02*
X325449536Y-104490400D01*
X327189536Y-104490400D02*
X327569536Y-104490400D01*
X329789536Y-102590400D02*
X334789536Y-102590400D01*
X331929536Y-98980400D02*
X326389535Y-98990400D01*
X334789536Y-98990400D02*
X333799536Y-98990400D01*
X334789536Y-99340400D02*
X334789536Y-98990400D01*
X334789536Y-102590400D02*
X334789536Y-101590400D01*
X324289536Y-100890401D02*
G75*
G02*
X326389535Y-98990399I1999999J-99997D01*
G01*
X327573218Y-104468929D02*
G75*
G02*
X329789536Y-102590400I2151317J-291470D01*
G01*
X301898355Y-151081304D02*
X301985512Y-152077499D01*
X302212116Y-154667605D02*
X302180740Y-154308975D01*
X302212116Y-154667605D02*
X303367701Y-154566505D01*
X305101080Y-154414853D02*
X305479634Y-154381734D01*
X307525591Y-152295479D02*
X312506564Y-151859697D01*
X309342815Y-148512702D02*
X303824767Y-149005507D01*
X312192804Y-148273398D02*
X311206571Y-148359682D01*
X312223308Y-148622067D02*
X312192804Y-148273398D01*
X312506564Y-151859697D02*
X312419409Y-150863505D01*
X301898355Y-151081305D02*
G75*
G02*
X303824767Y-149005507I2001105J74693D01*
G01*
X305481432Y-154360023D02*
G75*
G02*
X307525591Y-152295479I2168535J-102864D01*
G01*
X169577783Y-160532587D02*
X169640297Y-160178056D01*
X169577783Y-160532587D02*
X170720160Y-160734019D01*
X170202917Y-156987279D02*
X170029269Y-157972087D01*
X172433726Y-161036167D02*
X172807953Y-161102153D01*
X175324156Y-159616517D02*
X180248196Y-160484758D01*
X178058516Y-156432969D02*
X172600945Y-155480806D01*
X180248196Y-160484758D02*
X180421844Y-159499951D01*
X180812553Y-157284133D02*
X180873330Y-156939449D01*
X180873330Y-156939449D02*
X179898370Y-156767539D01*
X170202917Y-156987280D02*
G75*
G02*
X172600945Y-155480806I1952250J-445776D01*
G01*
X172815307Y-161081648D02*
G75*
G02*
X175324156Y-159616518I2068018J-660610D01*
G01*
X88726036Y-141148200D02*
X88726036Y-142148200D01*
X88726036Y-144748200D02*
X88726036Y-144388200D01*
X88726036Y-144748200D02*
X89886036Y-144748200D01*
X91626036Y-144748200D02*
X92006036Y-144748200D01*
X94226036Y-142848200D02*
X99226036Y-142848200D01*
X96366036Y-139238200D02*
X90826035Y-139248200D01*
X99226036Y-139248200D02*
X98236036Y-139248200D01*
X99226036Y-139598200D02*
X99226036Y-139248200D01*
X99226036Y-142848200D02*
X99226036Y-141848200D01*
X88726036Y-141148201D02*
G75*
G02*
X90826035Y-139248199I1999999J-99997D01*
G01*
X92009718Y-144726729D02*
G75*
G02*
X94226036Y-142848200I2151317J-291470D01*
G01*
X154686683Y-135567487D02*
X154749197Y-135212956D01*
X154686683Y-135567487D02*
X155829060Y-135768919D01*
X155311817Y-132022179D02*
X155138169Y-133006987D01*
X157542626Y-136071067D02*
X157916853Y-136137053D01*
X160433056Y-134651417D02*
X165357096Y-135519658D01*
X163167416Y-131467869D02*
X157709845Y-130515706D01*
X165357096Y-135519658D02*
X165530744Y-134534851D01*
X165921453Y-132319033D02*
X165982230Y-131974349D01*
X165982230Y-131974349D02*
X165007270Y-131802439D01*
X155311817Y-132022180D02*
G75*
G02*
X157709845Y-130515706I1952250J-445776D01*
G01*
X157924207Y-136116548D02*
G75*
G02*
X160433056Y-134651418I2068018J-660610D01*
G01*
X129793483Y-167327387D02*
X129855997Y-166972856D01*
X129793483Y-167327387D02*
X130935860Y-167528819D01*
X130418617Y-163782079D02*
X130244969Y-164766887D01*
X132649426Y-167830967D02*
X133023653Y-167896953D01*
X135539856Y-166411317D02*
X140463896Y-167279558D01*
X138274216Y-163227769D02*
X132816645Y-162275606D01*
X140463896Y-167279558D02*
X140637544Y-166294751D01*
X141028253Y-164078933D02*
X141089030Y-163734249D01*
X141089030Y-163734249D02*
X140114070Y-163562339D01*
X130418617Y-163782080D02*
G75*
G02*
X132816645Y-162275606I1952250J-445776D01*
G01*
X133031007Y-167876448D02*
G75*
G02*
X135539856Y-166411318I2068018J-660610D01*
G01*
X110944459Y-153639167D02*
X110975835Y-153280537D01*
X110944459Y-153639167D02*
X112100044Y-153740268D01*
X111258219Y-150052866D02*
X111171064Y-151049061D01*
X113833423Y-153891919D02*
X114211977Y-153925038D01*
X116589125Y-152225754D02*
X121570099Y-152661532D01*
X119035614Y-148816004D02*
X113515823Y-148343123D01*
X121570099Y-152661532D02*
X121657255Y-151665338D01*
X121853355Y-149423900D02*
X121883860Y-149075231D01*
X121883860Y-149075231D02*
X120897627Y-148988947D01*
X111258219Y-150052867D02*
G75*
G02*
X113515823Y-148343123I1983674J-273930D01*
G01*
X114217517Y-153903969D02*
G75*
G02*
X116589125Y-152225754I2117730J-477865D01*
G01*
X68609636Y-121140400D02*
X68609636Y-122140400D01*
X68609636Y-124740400D02*
X68609636Y-124380400D01*
X68609636Y-124740400D02*
X69769636Y-124740400D01*
X71509636Y-124740400D02*
X71889636Y-124740400D01*
X74109636Y-122840400D02*
X79109636Y-122840400D01*
X76249636Y-119230400D02*
X70709635Y-119240400D01*
X79109636Y-119240400D02*
X78119636Y-119240400D01*
X79109636Y-119590400D02*
X79109636Y-119240400D01*
X79109636Y-122840400D02*
X79109636Y-121840400D01*
X68609636Y-121140401D02*
G75*
G02*
X70709635Y-119240399I1999999J-99997D01*
G01*
X71893318Y-124718929D02*
G75*
G02*
X74109636Y-122840400I2151317J-291470D01*
G01*
X261452024Y-153767427D02*
X261625672Y-154752235D01*
X262077157Y-157312736D02*
X262014644Y-156958204D01*
X262077157Y-157312736D02*
X263219534Y-157111304D01*
X264933100Y-156809156D02*
X265307327Y-156743169D01*
X267163667Y-154486536D02*
X272087707Y-153618295D01*
X268644287Y-150559773D02*
X263190189Y-151531632D01*
X271462575Y-150072986D02*
X270487614Y-150244899D01*
X271523351Y-150417670D02*
X271462575Y-150072986D01*
X272087707Y-153618295D02*
X271914059Y-152633488D01*
X261452024Y-153767428D02*
G75*
G02*
X263190189Y-151531632I1986980J248816D01*
G01*
X265307224Y-156721386D02*
G75*
G02*
X267163667Y-154486536I2169241J86536D01*
G01*
X324385636Y-121148200D02*
X324385636Y-122148200D01*
X324385636Y-124748200D02*
X324385636Y-124388200D01*
X324385636Y-124748200D02*
X325545636Y-124748200D01*
X327285636Y-124748200D02*
X327665636Y-124748200D01*
X329885636Y-122848200D02*
X334885636Y-122848200D01*
X332025636Y-119238200D02*
X326485635Y-119248200D01*
X334885636Y-119248200D02*
X333895636Y-119248200D01*
X334885636Y-119598200D02*
X334885636Y-119248200D01*
X334885636Y-122848200D02*
X334885636Y-121848200D01*
X324385636Y-121148201D02*
G75*
G02*
X326485635Y-119248199I1999999J-99997D01*
G01*
X327669318Y-124726729D02*
G75*
G02*
X329885636Y-122848200I2151317J-291470D01*
G01*
X68705736Y-100882700D02*
X68705736Y-101882700D01*
X68705736Y-104482700D02*
X68705736Y-104122700D01*
X68705736Y-104482700D02*
X69865736Y-104482700D01*
X71605736Y-104482700D02*
X71985736Y-104482700D01*
X74205736Y-102582700D02*
X79205736Y-102582700D01*
X76345736Y-98972700D02*
X70805735Y-98982700D01*
X79205736Y-98982700D02*
X78215736Y-98982700D01*
X79205736Y-99332700D02*
X79205736Y-98982700D01*
X79205736Y-102582700D02*
X79205736Y-101582700D01*
X68705736Y-100882701D02*
G75*
G02*
X70805735Y-98982699I1999999J-99997D01*
G01*
X71989418Y-104461229D02*
G75*
G02*
X74205736Y-102582700I2151317J-291470D01*
G01*
X166104783Y-180228787D02*
X166167297Y-179874256D01*
X166104783Y-180228787D02*
X167247160Y-180430219D01*
X166729917Y-176683479D02*
X166556269Y-177668287D01*
X168960726Y-180732367D02*
X169334953Y-180798353D01*
X171851156Y-179312717D02*
X176775196Y-180180958D01*
X174585516Y-176129169D02*
X169127945Y-175177006D01*
X176775196Y-180180958D02*
X176948844Y-179196151D01*
X177339553Y-176980333D02*
X177400330Y-176635649D01*
X177400330Y-176635649D02*
X176425370Y-176463739D01*
X166729917Y-176683480D02*
G75*
G02*
X169127945Y-175177006I1952250J-445776D01*
G01*
X169342307Y-180777848D02*
G75*
G02*
X171851156Y-179312718I2068018J-660610D01*
G01*
X257979124Y-134071227D02*
X258152772Y-135056035D01*
X258604257Y-137616536D02*
X258541744Y-137262004D01*
X258604257Y-137616536D02*
X259746634Y-137415104D01*
X261460200Y-137112956D02*
X261834427Y-137046969D01*
X263690767Y-134790336D02*
X268614807Y-133922095D01*
X265171387Y-130863573D02*
X259717289Y-131835432D01*
X267989675Y-130376786D02*
X267014714Y-130548699D01*
X268050451Y-130721470D02*
X267989675Y-130376786D01*
X268614807Y-133922095D02*
X268441159Y-132937288D01*
X257979124Y-134071228D02*
G75*
G02*
X259717289Y-131835432I1986980J248816D01*
G01*
X261834324Y-137025186D02*
G75*
G02*
X263690767Y-134790336I2169241J86536D01*
G01*
X282872324Y-165831127D02*
X283045972Y-166815935D01*
X283497457Y-169376436D02*
X283434944Y-169021904D01*
X283497457Y-169376436D02*
X284639834Y-169175004D01*
X286353400Y-168872856D02*
X286727627Y-168806869D01*
X288583967Y-166550236D02*
X293508007Y-165681995D01*
X290064587Y-162623473D02*
X284610489Y-163595332D01*
X292882875Y-162136686D02*
X291907914Y-162308599D01*
X292943651Y-162481370D02*
X292882875Y-162136686D01*
X293508007Y-165681995D02*
X293334359Y-164697188D01*
X282872324Y-165831128D02*
G75*
G02*
X284610489Y-163595332I1986980J248816D01*
G01*
X286727524Y-168785086D02*
G75*
G02*
X288583967Y-166550236I2169241J86536D01*
G01*
X264925024Y-173463627D02*
X265098672Y-174448435D01*
X265550157Y-177008936D02*
X265487644Y-176654404D01*
X265550157Y-177008936D02*
X266692534Y-176807504D01*
X268406100Y-176505356D02*
X268780327Y-176439369D01*
X270636667Y-174182736D02*
X275560707Y-173314495D01*
X272117287Y-170255973D02*
X266663189Y-171227832D01*
X274935575Y-169769186D02*
X273960614Y-169941099D01*
X274996351Y-170113870D02*
X274935575Y-169769186D01*
X275560707Y-173314495D02*
X275387059Y-172329688D01*
X264925024Y-173463628D02*
G75*
G02*
X266663189Y-171227832I1986980J248816D01*
G01*
X268780224Y-176417586D02*
G75*
G02*
X270636667Y-174182736I2169241J86536D01*
G01*
X133266483Y-147631187D02*
X133328997Y-147276656D01*
X133266483Y-147631187D02*
X134408860Y-147832619D01*
X133891617Y-144085879D02*
X133717969Y-145070687D01*
X136122426Y-148134767D02*
X136496653Y-148200753D01*
X139012856Y-146715117D02*
X143936896Y-147583358D01*
X141747216Y-143531569D02*
X136289645Y-142579406D01*
X143936896Y-147583358D02*
X144110544Y-146598551D01*
X144501253Y-144382733D02*
X144562030Y-144038049D01*
X144562030Y-144038049D02*
X143587070Y-143866139D01*
X133891617Y-144085880D02*
G75*
G02*
X136289645Y-142579406I1952250J-445776D01*
G01*
X136504007Y-148180248D02*
G75*
G02*
X139012856Y-146715118I2068018J-660610D01*
G01*
X114501659Y-113687167D02*
X114533035Y-113328537D01*
X114501659Y-113687167D02*
X115657244Y-113788268D01*
X114815419Y-110100866D02*
X114728264Y-111097061D01*
X117390623Y-113939919D02*
X117769177Y-113973038D01*
X120146325Y-112273754D02*
X125127299Y-112709532D01*
X122592814Y-108864004D02*
X117073023Y-108391123D01*
X125127299Y-112709532D02*
X125214455Y-111713338D01*
X125410555Y-109471900D02*
X125441060Y-109123231D01*
X125441060Y-109123231D02*
X124454827Y-109036947D01*
X114815419Y-110100867D02*
G75*
G02*
X117073023Y-108391123I1983674J-273930D01*
G01*
X117774717Y-113951969D02*
G75*
G02*
X120146325Y-112273754I2117730J-477865D01*
G01*
X324385636Y-141148200D02*
X324385636Y-142148200D01*
X324385636Y-144748200D02*
X324385636Y-144388200D01*
X324385636Y-144748200D02*
X325545636Y-144748200D01*
X327285636Y-144748200D02*
X327665636Y-144748200D01*
X329885636Y-142848200D02*
X334885636Y-142848200D01*
X332025636Y-139238200D02*
X326485635Y-139248200D01*
X334885636Y-139248200D02*
X333895636Y-139248200D01*
X334885636Y-139598200D02*
X334885636Y-139248200D01*
X334885636Y-142848200D02*
X334885636Y-141848200D01*
X324385636Y-141148201D02*
G75*
G02*
X326485635Y-139248199I1999999J-99997D01*
G01*
X327669318Y-144726729D02*
G75*
G02*
X329885636Y-142848200I2151317J-291470D01*
G01*
X194970740Y-220862104D02*
X195202144Y-220586328D01*
X194970740Y-220862104D02*
X195859352Y-221607738D01*
X197192269Y-222726188D02*
X197483366Y-222970448D01*
X197284776Y-218104344D02*
X196641988Y-218870389D01*
X200405281Y-222941952D02*
X204235503Y-226155890D01*
X204235503Y-226155890D02*
X204878291Y-225389845D01*
X204365079Y-221552097D02*
X200114765Y-217998713D01*
X206324563Y-223666245D02*
X206549539Y-223398130D01*
X206549539Y-223398130D02*
X205791155Y-222761770D01*
X197284775Y-218104345D02*
G75*
G02*
X200114764Y-217998714I1467810J-1362172D01*
G01*
X197499988Y-222956367D02*
G75*
G02*
X200405281Y-222941952I1460651J-1606118D01*
G01*
X117258336Y-191547200D02*
X117258336Y-192547200D01*
X117258336Y-195147200D02*
X117258336Y-194787200D01*
X117258336Y-195147200D02*
X118418336Y-195147200D01*
X120158336Y-195147200D02*
X120538336Y-195147200D01*
X122758336Y-193247200D02*
X127758336Y-193247200D01*
X124898336Y-189637200D02*
X119358335Y-189647200D01*
X127758336Y-189647200D02*
X126768336Y-189647200D01*
X127758336Y-189997200D02*
X127758336Y-189647200D01*
X127758336Y-193247200D02*
X127758336Y-192247200D01*
X117258336Y-191547201D02*
G75*
G02*
X119358335Y-189647199I1999999J-99997D01*
G01*
X120542018Y-195125729D02*
G75*
G02*
X122758336Y-193247200I2151317J-291470D01*
G01*
X246560924Y-178732527D02*
X246734572Y-179717335D01*
X247186057Y-182277836D02*
X247123544Y-181923304D01*
X247186057Y-182277836D02*
X248328434Y-182076404D01*
X250042000Y-181774256D02*
X250416227Y-181708269D01*
X252272567Y-179451636D02*
X257196607Y-178583395D01*
X253753187Y-175524873D02*
X248299089Y-176496732D01*
X256571475Y-175038086D02*
X255596514Y-175209999D01*
X256632251Y-175382770D02*
X256571475Y-175038086D01*
X257196607Y-178583395D02*
X257022959Y-177598588D01*
X246560924Y-178732528D02*
G75*
G02*
X248299089Y-176496732I1986980J248816D01*
G01*
X250416124Y-181686486D02*
G75*
G02*
X252272567Y-179451636I2169241J86536D01*
G01*
X224351724Y-172068127D02*
X224525372Y-173052935D01*
X224976857Y-175613436D02*
X224914344Y-175258904D01*
X224976857Y-175613436D02*
X226119234Y-175412004D01*
X227832800Y-175109856D02*
X228207027Y-175043869D01*
X230063367Y-172787236D02*
X234987407Y-171918995D01*
X231543987Y-168860473D02*
X226089889Y-169832332D01*
X234362275Y-168373686D02*
X233387314Y-168545599D01*
X234423051Y-168718370D02*
X234362275Y-168373686D01*
X234987407Y-171918995D02*
X234813759Y-170934188D01*
X224351724Y-172068128D02*
G75*
G02*
X226089889Y-169832332I1986980J248816D01*
G01*
X228206924Y-175022086D02*
G75*
G02*
X230063367Y-172787236I2169241J86536D01*
G01*
X254426724Y-114443127D02*
X254600372Y-115427935D01*
X255051857Y-117988436D02*
X254989344Y-117633904D01*
X255051857Y-117988436D02*
X256194234Y-117787004D01*
X257907800Y-117484856D02*
X258282027Y-117418869D01*
X260138367Y-115162236D02*
X265062407Y-114293995D01*
X261618987Y-111235473D02*
X256164889Y-112207332D01*
X264437275Y-110748686D02*
X263462314Y-110920599D01*
X264498051Y-111093370D02*
X264437275Y-110748686D01*
X265062407Y-114293995D02*
X264888759Y-113309188D01*
X254426724Y-114443128D02*
G75*
G02*
X256164889Y-112207332I1986980J248816D01*
G01*
X258281924Y-117397086D02*
G75*
G02*
X260138367Y-115162236I2169241J86536D01*
G01*
X140339983Y-194674187D02*
X140402497Y-194319656D01*
X140339983Y-194674187D02*
X141482360Y-194875619D01*
X140965117Y-191128879D02*
X140791469Y-192113687D01*
X143195926Y-195177767D02*
X143570153Y-195243753D01*
X146086356Y-193758117D02*
X151010396Y-194626358D01*
X148820716Y-190574569D02*
X143363145Y-189622406D01*
X151010396Y-194626358D02*
X151184044Y-193641551D01*
X151574753Y-191425733D02*
X151635530Y-191081049D01*
X151635530Y-191081049D02*
X150660570Y-190909139D01*
X140965117Y-191128880D02*
G75*
G02*
X143363145Y-189622406I1952250J-445776D01*
G01*
X143577507Y-195223248D02*
G75*
G02*
X146086356Y-193758118I2068018J-660610D01*
G01*
X68609636Y-181140400D02*
X68609636Y-182140400D01*
X68609636Y-184740400D02*
X68609636Y-184380400D01*
X68609636Y-184740400D02*
X69769636Y-184740400D01*
X71509636Y-184740400D02*
X71889636Y-184740400D01*
X74109636Y-182840400D02*
X79109636Y-182840400D01*
X76249636Y-179230400D02*
X70709635Y-179240400D01*
X79109636Y-179240400D02*
X78119636Y-179240400D01*
X79109636Y-179590400D02*
X79109636Y-179240400D01*
X79109636Y-182840400D02*
X79109636Y-181840400D01*
X68609636Y-181140401D02*
G75*
G02*
X70709635Y-179240399I1999999J-99997D01*
G01*
X71893318Y-184718929D02*
G75*
G02*
X74109636Y-182840400I2151317J-291470D01*
G01*
X324385536Y-161148100D02*
X324385536Y-162148100D01*
X324385536Y-164748100D02*
X324385536Y-164388100D01*
X324385536Y-164748100D02*
X325545536Y-164748100D01*
X327285536Y-164748100D02*
X327665536Y-164748100D01*
X329885536Y-162848100D02*
X334885536Y-162848100D01*
X332025536Y-159238100D02*
X326485535Y-159248100D01*
X334885536Y-159248100D02*
X333895536Y-159248100D01*
X334885536Y-159598100D02*
X334885536Y-159248100D01*
X334885536Y-162848100D02*
X334885536Y-161848100D01*
X324385536Y-161148101D02*
G75*
G02*
X326485535Y-159248099I1999999J-99997D01*
G01*
X327669218Y-164726629D02*
G75*
G02*
X329885536Y-162848100I2151317J-291470D01*
G01*
X88822136Y-100890400D02*
X88822136Y-101890400D01*
X88822136Y-104490400D02*
X88822136Y-104130400D01*
X88822136Y-104490400D02*
X89982136Y-104490400D01*
X91722136Y-104490400D02*
X92102136Y-104490400D01*
X94322136Y-102590400D02*
X99322136Y-102590400D01*
X96462136Y-98980400D02*
X90922135Y-98990400D01*
X99322136Y-98990400D02*
X98332136Y-98990400D01*
X99322136Y-99340400D02*
X99322136Y-98990400D01*
X99322136Y-102590400D02*
X99322136Y-101590400D01*
X88822136Y-100890401D02*
G75*
G02*
X90922135Y-98990399I1999999J-99997D01*
G01*
X92105818Y-104468929D02*
G75*
G02*
X94322136Y-102590400I2151317J-291470D01*
G01*
X173068083Y-140737987D02*
X173130597Y-140383456D01*
X173068083Y-140737987D02*
X174210460Y-140939419D01*
X173693217Y-137192679D02*
X173519569Y-138177487D01*
X175924026Y-141241567D02*
X176298253Y-141307553D01*
X178814456Y-139821917D02*
X183738496Y-140690158D01*
X181548816Y-136638369D02*
X176091245Y-135686206D01*
X183738496Y-140690158D02*
X183912144Y-139705351D01*
X184302853Y-137489533D02*
X184363630Y-137144849D01*
X184363630Y-137144849D02*
X183388670Y-136972939D01*
X173693217Y-137192680D02*
G75*
G02*
X176091245Y-135686206I1952250J-445776D01*
G01*
X176305607Y-141287048D02*
G75*
G02*
X178814456Y-139821918I2068018J-660610D01*
G01*
X140313983Y-108164387D02*
X140376497Y-107809856D01*
X140313983Y-108164387D02*
X141456360Y-108365819D01*
X140939117Y-104619079D02*
X140765469Y-105603887D01*
X143169926Y-108667967D02*
X143544153Y-108733953D01*
X146060356Y-107248317D02*
X150984396Y-108116558D01*
X148794716Y-104064769D02*
X143337145Y-103112606D01*
X150984396Y-108116558D02*
X151158044Y-107131751D01*
X151548753Y-104915933D02*
X151609530Y-104571249D01*
X151609530Y-104571249D02*
X150634570Y-104399339D01*
X140939117Y-104619080D02*
G75*
G02*
X143337145Y-103112606I1952250J-445776D01*
G01*
X143551507Y-108713448D02*
G75*
G02*
X146060356Y-107248318I2068018J-660610D01*
G01*
X233852872Y-212735538D02*
X234495660Y-213501582D01*
X236166907Y-215493298D02*
X235935504Y-215217522D01*
X236166907Y-215493298D02*
X237055519Y-214747664D01*
X238388436Y-213629214D02*
X238679534Y-213384955D01*
X238477727Y-206361496D02*
X234240268Y-209930200D01*
X239158856Y-210502482D02*
X242989078Y-207288544D01*
X240675043Y-204530783D02*
X239916658Y-205167143D01*
X240900018Y-204798899D02*
X240675043Y-204530783D01*
X242989078Y-207288544D02*
X242346290Y-206522499D01*
X233852873Y-212735539D02*
G75*
G02*
X234240267Y-209930199I1596365J1208973D01*
G01*
X238668553Y-213366140D02*
G75*
G02*
X239158856Y-210502483I1835348J1159562D01*
G01*
X275926324Y-126438827D02*
X276099972Y-127423635D01*
X276551457Y-129984136D02*
X276488944Y-129629604D01*
X276551457Y-129984136D02*
X277693834Y-129782704D01*
X279407400Y-129480556D02*
X279781627Y-129414569D01*
X281637967Y-127157936D02*
X286562007Y-126289695D01*
X283118587Y-123231173D02*
X277664489Y-124203032D01*
X285936875Y-122744386D02*
X284961914Y-122916299D01*
X285997651Y-123089070D02*
X285936875Y-122744386D01*
X286562007Y-126289695D02*
X286388359Y-125304888D01*
X275926324Y-126438828D02*
G75*
G02*
X277664489Y-124203032I1986980J248816D01*
G01*
X279781524Y-129392786D02*
G75*
G02*
X281637967Y-127157936I2169241J86536D01*
G01*
X272351724Y-106668127D02*
X272525372Y-107652935D01*
X272976857Y-110213436D02*
X272914344Y-109858904D01*
X272976857Y-110213436D02*
X274119234Y-110012004D01*
X275832800Y-109709856D02*
X276207027Y-109643869D01*
X278063367Y-107387236D02*
X282987407Y-106518995D01*
X279543987Y-103460473D02*
X274089889Y-104432332D01*
X282362275Y-102973686D02*
X281387314Y-103145599D01*
X282423051Y-103318370D02*
X282362275Y-102973686D01*
X282987407Y-106518995D02*
X282813759Y-105534188D01*
X272351724Y-106668128D02*
G75*
G02*
X274089889Y-104432332I1986980J248816D01*
G01*
X276206924Y-109622086D02*
G75*
G02*
X278063367Y-107387236I2169241J86536D01*
G01*
X218587472Y-225689238D02*
X219230260Y-226455282D01*
X220901507Y-228446998D02*
X220670104Y-228171222D01*
X220901507Y-228446998D02*
X221790119Y-227701364D01*
X223123036Y-226582914D02*
X223414134Y-226338655D01*
X223212327Y-219315196D02*
X218974868Y-222883900D01*
X223893456Y-223456182D02*
X227723678Y-220242244D01*
X225409643Y-217484483D02*
X224651258Y-218120843D01*
X225634618Y-217752599D02*
X225409643Y-217484483D01*
X227723678Y-220242244D02*
X227080890Y-219476199D01*
X218587473Y-225689239D02*
G75*
G02*
X218974867Y-222883899I1596365J1208973D01*
G01*
X223403153Y-226319840D02*
G75*
G02*
X223893456Y-223456183I1835348J1159562D01*
G01*
X176713983Y-121014387D02*
X176776497Y-120659856D01*
X176713983Y-121014387D02*
X177856360Y-121215819D01*
X177339117Y-117469079D02*
X177165469Y-118453887D01*
X179569926Y-121517967D02*
X179944153Y-121583953D01*
X182460356Y-120098317D02*
X187384396Y-120966558D01*
X185194716Y-116914769D02*
X179737145Y-115962606D01*
X187384396Y-120966558D02*
X187558044Y-119981751D01*
X187948753Y-117765933D02*
X188009530Y-117421249D01*
X188009530Y-117421249D02*
X187034570Y-117249339D01*
X177339117Y-117469080D02*
G75*
G02*
X179737145Y-115962606I1952250J-445776D01*
G01*
X179951507Y-121563448D02*
G75*
G02*
X182460356Y-120098318I2068018J-660610D01*
G01*
X235951724Y-119518127D02*
X236125372Y-120502935D01*
X236576857Y-123063436D02*
X236514344Y-122708904D01*
X236576857Y-123063436D02*
X237719234Y-122862004D01*
X239432800Y-122559856D02*
X239807027Y-122493869D01*
X241663367Y-120237236D02*
X246587407Y-119368995D01*
X243143987Y-116310473D02*
X237689889Y-117282332D01*
X245962275Y-115823686D02*
X244987314Y-115995599D01*
X246023051Y-116168370D02*
X245962275Y-115823686D01*
X246587407Y-119368995D02*
X246413759Y-118384188D01*
X235951724Y-119518128D02*
G75*
G02*
X237689889Y-117282332I1986980J248816D01*
G01*
X239806924Y-122472086D02*
G75*
G02*
X241663367Y-120237236I2169241J86536D01*
G01*
X179705340Y-207908404D02*
X179936744Y-207632628D01*
X179705340Y-207908404D02*
X180593952Y-208654038D01*
X181926869Y-209772488D02*
X182217966Y-210016748D01*
X182019376Y-205150644D02*
X181376588Y-205916689D01*
X185139881Y-209988252D02*
X188970103Y-213202190D01*
X188970103Y-213202190D02*
X189612891Y-212436145D01*
X189099679Y-208598397D02*
X184849365Y-205045013D01*
X191059163Y-210712545D02*
X191284139Y-210444430D01*
X191284139Y-210444430D02*
X190525755Y-209808070D01*
X182019375Y-205150645D02*
G75*
G02*
X184849364Y-205045014I1467810J-1362172D01*
G01*
X182234588Y-210002667D02*
G75*
G02*
X185139881Y-209988252I1460651J-1606118D01*
G01*
X188313983Y-173564387D02*
X188376497Y-173209856D01*
X188313983Y-173564387D02*
X189456360Y-173765819D01*
X188939117Y-170019079D02*
X188765469Y-171003887D01*
X191169926Y-174067967D02*
X191544153Y-174133953D01*
X194060356Y-172648317D02*
X198984396Y-173516558D01*
X196794716Y-169464769D02*
X191337145Y-168512606D01*
X198984396Y-173516558D02*
X199158044Y-172531751D01*
X199548753Y-170315933D02*
X199609530Y-169971249D01*
X199609530Y-169971249D02*
X198634570Y-169799339D01*
X188939117Y-170019080D02*
G75*
G02*
X191337145Y-168512606I1952250J-445776D01*
G01*
X191551507Y-174113448D02*
G75*
G02*
X194060356Y-172648318I2068018J-660610D01*
G01*
X68609736Y-161140400D02*
X68609736Y-162140400D01*
X68609736Y-164740400D02*
X68609736Y-164380400D01*
X68609736Y-164740400D02*
X69769736Y-164740400D01*
X71509736Y-164740400D02*
X71889736Y-164740400D01*
X74109736Y-162840400D02*
X79109736Y-162840400D01*
X76249736Y-159230400D02*
X70709735Y-159240400D01*
X79109736Y-159240400D02*
X78119736Y-159240400D01*
X79109736Y-159590400D02*
X79109736Y-159240400D01*
X79109736Y-162840400D02*
X79109736Y-161840400D01*
X68609736Y-161140401D02*
G75*
G02*
X70709735Y-159240399I1999999J-99997D01*
G01*
X71893418Y-164718929D02*
G75*
G02*
X74109736Y-162840400I2151317J-291470D01*
G01*
X112687559Y-133715267D02*
X112718935Y-133356637D01*
X112687559Y-133715267D02*
X113843144Y-133816368D01*
X113001319Y-130128966D02*
X112914164Y-131125161D01*
X115576523Y-133968019D02*
X115955077Y-134001138D01*
X118332225Y-132301854D02*
X123313199Y-132737632D01*
X120778714Y-128892104D02*
X115258923Y-128419223D01*
X123313199Y-132737632D02*
X123400355Y-131741438D01*
X123596455Y-129500000D02*
X123626960Y-129151331D01*
X123626960Y-129151331D02*
X122640727Y-129065047D01*
X113001319Y-130128967D02*
G75*
G02*
X115258923Y-128419223I1983674J-273930D01*
G01*
X115960617Y-133980069D02*
G75*
G02*
X118332225Y-132301854I2117730J-477865D01*
G01*
X68609636Y-141140400D02*
X68609636Y-142140400D01*
X68609636Y-144740400D02*
X68609636Y-144380400D01*
X68609636Y-144740400D02*
X69769636Y-144740400D01*
X71509636Y-144740400D02*
X71889636Y-144740400D01*
X74109636Y-142840400D02*
X79109636Y-142840400D01*
X76249636Y-139230400D02*
X70709635Y-139240400D01*
X79109636Y-139240400D02*
X78119636Y-139240400D01*
X79109636Y-139590400D02*
X79109636Y-139240400D01*
X79109636Y-142840400D02*
X79109636Y-141840400D01*
X68609636Y-141140401D02*
G75*
G02*
X70709635Y-139240399I1999999J-99997D01*
G01*
X71893318Y-144718929D02*
G75*
G02*
X74109636Y-142840400I2151317J-291470D01*
G01*
D12*
X82324136Y-99495800D02*
X86334136Y-99495800D01*
X82324136Y-101495800D02*
X82324136Y-99495800D01*
X82324136Y-101495800D02*
X86334136Y-101495800D01*
X82324136Y-119745800D02*
X86334136Y-119745800D01*
X82324136Y-121745800D02*
X82324136Y-119745800D01*
X82324136Y-121745800D02*
X86334136Y-121745800D01*
X82324136Y-139735800D02*
X86334136Y-139735800D01*
X82324136Y-141735800D02*
X82324136Y-139735800D01*
X82324136Y-141735800D02*
X86334136Y-141735800D01*
X82324136Y-159735800D02*
X86334136Y-159735800D01*
X82324136Y-161735800D02*
X82324136Y-159735800D01*
X82324136Y-161735800D02*
X86334136Y-161735800D01*
X82324136Y-179745800D02*
X86334136Y-179745800D01*
X82324136Y-181745800D02*
X82324136Y-179745800D01*
X82324136Y-181745800D02*
X86334136Y-181745800D01*
X102164136Y-103935800D02*
X106174136Y-103935800D01*
X102164136Y-105935800D02*
X102164136Y-103935800D01*
X102164136Y-105935800D02*
X106174136Y-105935800D01*
X103654136Y-119745800D02*
X107664136Y-119745800D01*
X103654136Y-121745800D02*
X103654136Y-119745800D01*
X103654136Y-121745800D02*
X107664136Y-121745800D01*
X103624136Y-139785800D02*
X107634136Y-139785800D01*
X103624136Y-141785800D02*
X103624136Y-139785800D01*
X103624136Y-141785800D02*
X107634136Y-141785800D01*
X103606636Y-159725800D02*
X107616636Y-159725800D01*
X103606636Y-161725800D02*
X103606636Y-159725800D01*
X103606636Y-161725800D02*
X107616636Y-161725800D01*
X103626636Y-179695800D02*
X107636636Y-179695800D01*
X103626636Y-181695800D02*
X103626636Y-179695800D01*
X103626636Y-181695800D02*
X107636636Y-181695800D01*
X129326636Y-109675800D02*
X133336636Y-109675800D01*
X129326636Y-111675800D02*
X129326636Y-109675800D01*
X129326636Y-111675800D02*
X133336636Y-111675800D01*
X127546636Y-129825800D02*
X131556636Y-129825800D01*
X127546636Y-131825800D02*
X127546636Y-129825800D01*
X127546636Y-131825800D02*
X131556636Y-131825800D01*
X126174136Y-149595800D02*
X130184136Y-149595800D01*
X126174136Y-151595800D02*
X126174136Y-149595800D01*
X126174136Y-151595800D02*
X130184136Y-151595800D01*
X123406636Y-169855800D02*
X127416636Y-169855800D01*
X123406636Y-171855800D02*
X123406636Y-169855800D01*
X123406636Y-171855800D02*
X127416636Y-171855800D01*
X131866636Y-190095800D02*
X135876636Y-190095800D01*
X131866636Y-192095800D02*
X131866636Y-190095800D01*
X131866636Y-192095800D02*
X135876636Y-192095800D01*
X152956636Y-109665800D02*
X156966636Y-109665800D01*
X152956636Y-111665800D02*
X152956636Y-109665800D01*
X152956636Y-111665800D02*
X156966636Y-111665800D01*
X151436636Y-124975800D02*
X155446636Y-124975800D01*
X151436636Y-126975800D02*
X151436636Y-124975800D01*
X151436636Y-126975800D02*
X155446636Y-126975800D01*
X147774136Y-144715800D02*
X151784136Y-144715800D01*
X147774136Y-146715800D02*
X147774136Y-144715800D01*
X147774136Y-146715800D02*
X151784136Y-146715800D01*
X144516636Y-164425800D02*
X148526636Y-164425800D01*
X144516636Y-166425800D02*
X144516636Y-164425800D01*
X144516636Y-166425800D02*
X148526636Y-166425800D01*
X154964136Y-191805800D02*
X158974136Y-191805800D01*
X154964136Y-193805800D02*
X154964136Y-191805800D01*
X154964136Y-193805800D02*
X158974136Y-193805800D01*
X172356636Y-113315800D02*
X176366636Y-113315800D01*
X172356636Y-115315800D02*
X172356636Y-113315800D01*
X172356636Y-115315800D02*
X176366636Y-115315800D01*
X169906636Y-132635800D02*
X173916636Y-132635800D01*
X169906636Y-134635800D02*
X169906636Y-132635800D01*
X169906636Y-134635800D02*
X173916636Y-134635800D01*
X166046636Y-152345800D02*
X170056636Y-152345800D01*
X166046636Y-154345800D02*
X166046636Y-152345800D01*
X166046636Y-154345800D02*
X170056636Y-154345800D01*
X162506636Y-172025800D02*
X166516636Y-172025800D01*
X162506636Y-174025800D02*
X162506636Y-172025800D01*
X162506636Y-174025800D02*
X166516636Y-174025800D01*
X174936636Y-198105800D02*
X178946636Y-198105800D01*
X174936636Y-200105800D02*
X174936636Y-198105800D01*
X174936636Y-200105800D02*
X178946636Y-200105800D01*
X191634136Y-118075800D02*
X195644136Y-118075800D01*
X191634136Y-120075800D02*
X191634136Y-118075800D01*
X191634136Y-120075800D02*
X195644136Y-120075800D01*
X187364136Y-137805800D02*
X191374136Y-137805800D01*
X187364136Y-139805800D02*
X187364136Y-137805800D01*
X187364136Y-139805800D02*
X191374136Y-139805800D01*
X186034136Y-157585800D02*
X190044136Y-157585800D01*
X186034136Y-159585800D02*
X186034136Y-157585800D01*
X186034136Y-159585800D02*
X190044136Y-159585800D01*
X182436636Y-177305800D02*
X186446636Y-177305800D01*
X182436636Y-179305800D02*
X182436636Y-177305800D01*
X182436636Y-179305800D02*
X186446636Y-179305800D01*
X193994136Y-211275800D02*
X198004136Y-211275800D01*
X193994136Y-213275800D02*
X193994136Y-211275800D01*
X193994136Y-213275800D02*
X198004136Y-213275800D01*
X226144136Y-214155800D02*
X226144136Y-210145800D01*
X228144136Y-214155800D02*
X226144136Y-214155800D01*
X228144136Y-214155800D02*
X228144136Y-210145800D01*
X248614136Y-128875800D02*
X252624136Y-128875800D01*
X248614136Y-130875800D02*
X248614136Y-128875800D01*
X248614136Y-130875800D02*
X252624136Y-130875800D01*
X252004136Y-148915800D02*
X256014136Y-148915800D01*
X252004136Y-150915800D02*
X252004136Y-148915800D01*
X252004136Y-150915800D02*
X256014136Y-150915800D01*
X256404136Y-170065800D02*
X260414136Y-170065800D01*
X256404136Y-172065800D02*
X256404136Y-170065800D01*
X256404136Y-172065800D02*
X260414136Y-172065800D01*
X259306636Y-187825800D02*
X263316636Y-187825800D01*
X259306636Y-189825800D02*
X259306636Y-187825800D01*
X259306636Y-189825800D02*
X263316636Y-189825800D01*
X241826636Y-199645800D02*
X245836636Y-199645800D01*
X241826636Y-201645800D02*
X241826636Y-199645800D01*
X241826636Y-201645800D02*
X245836636Y-201645800D01*
X266726636Y-123945800D02*
X270736636Y-123945800D01*
X266726636Y-125945800D02*
X266726636Y-123945800D01*
X266726636Y-125945800D02*
X270736636Y-125945800D01*
X270524136Y-141165800D02*
X274534136Y-141165800D01*
X270524136Y-143165800D02*
X270524136Y-141165800D01*
X270524136Y-143165800D02*
X274534136Y-143165800D01*
X274636636Y-164605800D02*
X278646636Y-164605800D01*
X274636636Y-166605800D02*
X274636636Y-164605800D01*
X274636636Y-166605800D02*
X278646636Y-166605800D01*
X278256636Y-184455800D02*
X282266636Y-184455800D01*
X278256636Y-186455800D02*
X278256636Y-184455800D01*
X278256636Y-186455800D02*
X282266636Y-186455800D01*
X265744136Y-190785800D02*
X269754136Y-190785800D01*
X265744136Y-192785800D02*
X265744136Y-190785800D01*
X265744136Y-192785800D02*
X269754136Y-192785800D01*
X287766636Y-117385800D02*
X291776636Y-117385800D01*
X287766636Y-119385800D02*
X287766636Y-117385800D01*
X287766636Y-119385800D02*
X291776636Y-119385800D01*
X291184136Y-137075800D02*
X295194136Y-137075800D01*
X291184136Y-139075800D02*
X291184136Y-137075800D01*
X291184136Y-139075800D02*
X295194136Y-139075800D01*
X294594136Y-156625800D02*
X298604136Y-156625800D01*
X294594136Y-158625800D02*
X294594136Y-156625800D01*
X294594136Y-158625800D02*
X298604136Y-158625800D01*
X295604136Y-176615800D02*
X299614136Y-176615800D01*
X295604136Y-178615800D02*
X295604136Y-176615800D01*
X295604136Y-178615800D02*
X299614136Y-178615800D01*
X286754136Y-187355800D02*
X290764136Y-187355800D01*
X286754136Y-189355800D02*
X286754136Y-187355800D01*
X286754136Y-189355800D02*
X290764136Y-189355800D01*
X313966636Y-108575800D02*
X317976636Y-108575800D01*
X313966636Y-110575800D02*
X313966636Y-108575800D01*
X313966636Y-110575800D02*
X317976636Y-110575800D01*
X315916636Y-128675800D02*
X319926636Y-128675800D01*
X315916636Y-130675800D02*
X315916636Y-128675800D01*
X315916636Y-130675800D02*
X319926636Y-130675800D01*
X317636636Y-148505800D02*
X321646636Y-148505800D01*
X317636636Y-150505800D02*
X317636636Y-148505800D01*
X317636636Y-150505800D02*
X321646636Y-150505800D01*
X319304136Y-168795800D02*
X323314136Y-168795800D01*
X319304136Y-170795800D02*
X319304136Y-168795800D01*
X319304136Y-170795800D02*
X323314136Y-170795800D01*
X307006636Y-184625800D02*
X311016636Y-184625800D01*
X307006636Y-186625800D02*
X307006636Y-184625800D01*
X307006636Y-186625800D02*
X311016636Y-186625800D01*
X336864136Y-110665800D02*
X340874136Y-110665800D01*
X336864136Y-112665800D02*
X336864136Y-110665800D01*
X336864136Y-112665800D02*
X340874136Y-112665800D01*
X337996636Y-119745800D02*
X342006636Y-119745800D01*
X337996636Y-121745800D02*
X337996636Y-119745800D01*
X337996636Y-121745800D02*
X342006636Y-121745800D01*
X338116636Y-139765800D02*
X342126636Y-139765800D01*
X338116636Y-141765800D02*
X338116636Y-139765800D01*
X338116636Y-141765800D02*
X342126636Y-141765800D01*
X338056636Y-159755800D02*
X342066636Y-159755800D01*
X338056636Y-161755800D02*
X338056636Y-159755800D01*
X338056636Y-161755800D02*
X342066636Y-161755800D01*
X337984136Y-179685800D02*
X341994136Y-179685800D01*
X337984136Y-181685800D02*
X337984136Y-179685800D01*
X337984136Y-181685800D02*
X341994136Y-181685800D01*
X357284136Y-112785800D02*
X353274136Y-112785800D01*
X357284136Y-112785800D02*
X357284136Y-114785800D01*
X357284136Y-114785800D02*
X353274136Y-114785800D01*
X359304136Y-132865800D02*
X355294136Y-132865800D01*
X359304136Y-132865800D02*
X359304136Y-134865800D01*
X359304136Y-134865800D02*
X355294136Y-134865800D01*
X359234136Y-152765800D02*
X355224136Y-152765800D01*
X359234136Y-152765800D02*
X359234136Y-154765800D01*
X359234136Y-154765800D02*
X355224136Y-154765800D01*
X359274136Y-172845800D02*
X355264136Y-172845800D01*
X359274136Y-172845800D02*
X359274136Y-174845800D01*
X359274136Y-174845800D02*
X355264136Y-174845800D01*
X359334136Y-175415800D02*
X355324136Y-175415800D01*
X359334136Y-175415800D02*
X359334136Y-177415800D01*
X359334136Y-177415800D02*
X355324136Y-177415800D01*
X234724136Y-167165800D02*
X234724136Y-163265800D01*
X236724136Y-167165800D02*
X234724136Y-167165800D01*
X236724136Y-167165800D02*
X236724136Y-163265800D01*
X203004136Y-170605800D02*
X203004136Y-172605800D01*
X207014136Y-170605800D02*
X203004136Y-170605800D01*
X207014136Y-172605800D02*
X203004136Y-172605800D01*
X69624136Y-207115800D02*
X66724136Y-207115800D01*
X69624136Y-204215800D02*
X69624136Y-207115800D01*
X66724136Y-207115800D02*
X66724136Y-204215800D01*
X66724136Y-204215800D02*
X69624136Y-204215800D01*
X149724136Y-212915800D02*
X152624136Y-212915800D01*
X149724136Y-215815800D02*
X149724136Y-212915800D01*
X152624136Y-212915800D02*
X152624136Y-215815800D01*
X152624136Y-215815800D02*
X149724136Y-215815800D01*
X75774136Y-207015800D02*
X72874136Y-207015800D01*
X75774136Y-204115800D02*
X75774136Y-207015800D01*
X72874136Y-207015800D02*
X72874136Y-204115800D01*
X72874136Y-204115800D02*
X75774136Y-204115800D01*
X205724136Y-213655800D02*
X205724136Y-217665800D01*
X205724136Y-217665800D02*
X207724136Y-217665800D01*
X207724136Y-213655800D02*
X207724136Y-217665800D01*
M02*
