G04 #@! TF.GenerationSoftware,KiCad,Pcbnew,9.0.1*
G04 #@! TF.CreationDate,2025-05-03T10:40:41+02:00*
G04 #@! TF.ProjectId,Atreus62,41747265-7573-4363-922e-6b696361645f,rev?*
G04 #@! TF.SameCoordinates,Original*
G04 #@! TF.FileFunction,Soldermask,Top*
G04 #@! TF.FilePolarity,Negative*
%FSLAX46Y46*%
G04 Gerber Fmt 4.6, Leading zero omitted, Abs format (unit mm)*
G04 Created by KiCad (PCBNEW 9.0.1) date 2025-05-03 10:40:41*
%MOMM*%
%LPD*%
G01*
G04 APERTURE LIST*
%ADD10C,4.800000*%
%ADD11C,1.800000*%
%ADD12C,3.000000*%
%ADD13C,4.000000*%
%ADD14R,1.700000X1.700000*%
%ADD15O,1.700000X1.700000*%
%ADD16R,1.200000X2.000000*%
%ADD17O,1.200000X2.000000*%
G04 APERTURE END LIST*
D10*
X316024136Y-188895800D03*
D11*
X345225836Y-105582700D03*
D12*
X346495836Y-103042700D03*
D13*
X350305836Y-105582700D03*
D12*
X352845836Y-100502700D03*
D11*
X355385836Y-105582700D03*
X273949513Y-197664132D03*
D12*
X274759152Y-194942188D03*
D13*
X278952336Y-196782000D03*
D12*
X280571615Y-191338110D03*
D11*
X283955159Y-195899868D03*
X158855513Y-117165067D03*
D12*
X160547285Y-114884189D03*
D13*
X163858336Y-118047200D03*
D12*
X167241880Y-113485443D03*
D11*
X168861159Y-118929333D03*
D10*
X212474136Y-219025800D03*
D11*
X345321936Y-145840400D03*
D12*
X346591936Y-143300400D03*
D13*
X350401936Y-145840400D03*
D12*
X352941936Y-140760400D03*
D11*
X355481936Y-145840400D03*
X345321936Y-165840400D03*
D12*
X346591936Y-163300400D03*
D13*
X350401936Y-165840400D03*
D12*
X352941936Y-160760400D03*
D11*
X355481936Y-165840400D03*
X89546036Y-125848200D03*
D12*
X90816036Y-123308200D03*
D13*
X94626036Y-125848200D03*
D12*
X97166036Y-120768200D03*
D11*
X99706036Y-125848200D03*
X325205636Y-185848200D03*
D12*
X326475636Y-183308200D03*
D13*
X330285636Y-185848200D03*
D12*
X332825636Y-180768200D03*
D11*
X335365636Y-185848200D03*
X296673236Y-196247200D03*
D12*
X297943236Y-193707200D03*
D13*
X301753236Y-196247200D03*
D12*
X304293236Y-191167200D03*
D11*
X306833236Y-196247200D03*
X89546036Y-165848100D03*
D12*
X90816036Y-163308100D03*
D13*
X94626036Y-165848100D03*
D12*
X97166036Y-160768100D03*
D11*
X99706036Y-165848100D03*
X137355913Y-129160767D03*
D12*
X139047685Y-126879889D03*
D13*
X142358736Y-130042900D03*
D12*
X145742280Y-125481143D03*
D11*
X147361559Y-130925033D03*
X89546036Y-185848200D03*
D12*
X90816036Y-183308200D03*
D13*
X94626036Y-185848200D03*
D12*
X97166036Y-180768200D03*
D11*
X99706036Y-185848200D03*
D10*
X108924136Y-188895800D03*
D11*
X299567567Y-115739951D03*
D12*
X300611359Y-113098929D03*
D13*
X304628236Y-115297200D03*
D12*
X306715820Y-110015156D03*
D11*
X309688905Y-114854449D03*
X345322036Y-185840400D03*
D12*
X346592036Y-183300400D03*
D13*
X350402036Y-185840400D03*
D12*
X352942036Y-180760400D03*
D11*
X355482036Y-185840400D03*
X244711713Y-163522532D03*
D12*
X245521352Y-160800588D03*
D13*
X249714536Y-162640400D03*
D12*
X251333815Y-157196510D03*
D11*
X254717359Y-161758268D03*
X160422997Y-200219938D03*
D12*
X162485138Y-198267484D03*
D13*
X165196636Y-201957400D03*
D12*
X169320919Y-198052493D03*
D11*
X169970275Y-203694862D03*
X151830213Y-156489367D03*
D12*
X153521985Y-154208489D03*
D13*
X156833036Y-157371500D03*
D12*
X160216580Y-152809743D03*
D11*
X161835859Y-158253633D03*
D10*
X316104136Y-100665800D03*
D11*
X281023013Y-150621132D03*
D12*
X281832652Y-147899188D03*
D13*
X286025836Y-149739000D03*
D12*
X287645115Y-144295110D03*
D11*
X291028659Y-148856868D03*
D10*
X108844136Y-100665800D03*
D11*
X109607067Y-174981049D03*
D12*
X111093610Y-172561402D03*
D13*
X114667736Y-175423800D03*
D12*
X117640822Y-170584507D03*
D11*
X119728405Y-175866551D03*
X301381767Y-135768051D03*
D12*
X302425559Y-133127029D03*
D13*
X306442436Y-135325300D03*
D12*
X308530020Y-130043256D03*
D11*
X311503105Y-134882549D03*
X345321936Y-125840400D03*
D12*
X346591936Y-123300400D03*
D13*
X350401936Y-125840400D03*
D12*
X352941936Y-120760400D03*
D11*
X355481936Y-125840400D03*
X305183267Y-175866551D03*
D12*
X306227059Y-173225529D03*
D13*
X310243936Y-175423800D03*
D12*
X312331520Y-170141756D03*
D11*
X315304605Y-174981049D03*
X148357313Y-176185567D03*
D12*
X150049085Y-173904689D03*
D13*
X153360136Y-177067700D03*
D12*
X156743680Y-172505943D03*
D11*
X158362959Y-177949833D03*
D10*
X185024136Y-194255800D03*
D11*
X254941397Y-203694863D03*
D12*
X255266076Y-200873677D03*
D13*
X259715036Y-201957400D03*
D12*
X260364394Y-196315030D03*
D11*
X264488675Y-200219937D03*
X241221313Y-143727932D03*
D12*
X242030952Y-141005988D03*
D13*
X246224136Y-142845800D03*
D12*
X247843415Y-137401910D03*
D11*
X251226959Y-141963668D03*
X325109536Y-105590400D03*
D12*
X326379536Y-103050400D03*
D13*
X330189536Y-105590400D03*
D12*
X332729536Y-100510400D03*
D11*
X335269536Y-105590400D03*
X303124867Y-155691951D03*
D12*
X304168659Y-153050929D03*
D13*
X308185536Y-155249200D03*
D12*
X310273120Y-149967156D03*
D11*
X313246205Y-154806449D03*
X170194313Y-161758267D03*
D12*
X171886085Y-159477389D03*
D13*
X175197136Y-162640400D03*
D12*
X178580680Y-158078643D03*
D11*
X180199959Y-163522533D03*
X89546036Y-145848200D03*
D12*
X90816036Y-143308200D03*
D13*
X94626036Y-145848200D03*
D12*
X97166036Y-140768200D03*
D11*
X99706036Y-145848200D03*
X155303213Y-136793167D03*
D12*
X156994985Y-134512289D03*
D13*
X160306036Y-137675300D03*
D12*
X163689580Y-133113543D03*
D11*
X165308859Y-138557433D03*
D10*
X239924136Y-194255800D03*
D11*
X130410013Y-168553067D03*
D12*
X132101785Y-166272189D03*
D13*
X135412836Y-169435200D03*
D12*
X138796380Y-164873443D03*
D11*
X140415659Y-170317333D03*
X111665467Y-154806449D03*
D12*
X113152010Y-152386802D03*
D13*
X116726136Y-155249200D03*
D12*
X119699222Y-150409907D03*
D11*
X121786805Y-155691951D03*
X69429636Y-125840400D03*
D12*
X70699636Y-123300400D03*
D13*
X74509636Y-125840400D03*
D12*
X77049636Y-120760400D03*
D11*
X79589636Y-125840400D03*
X263075713Y-158253632D03*
D12*
X263885352Y-155531688D03*
D13*
X268078536Y-157371500D03*
D12*
X269697815Y-151927610D03*
D11*
X273081359Y-156489368D03*
X325205636Y-125848200D03*
D12*
X326475636Y-123308200D03*
D13*
X330285636Y-125848200D03*
D12*
X332825636Y-120768200D03*
D11*
X335365636Y-125848200D03*
X69525736Y-105582700D03*
D12*
X70795736Y-103042700D03*
D13*
X74605736Y-105582700D03*
D12*
X77145736Y-100502700D03*
D11*
X79685736Y-105582700D03*
X166721313Y-181454467D03*
D12*
X168413085Y-179173589D03*
D13*
X171724136Y-182336600D03*
D12*
X175107680Y-177774843D03*
D11*
X176726959Y-183218733D03*
X259602813Y-138557432D03*
D12*
X260412452Y-135835488D03*
D13*
X264605636Y-137675300D03*
D12*
X266224915Y-132231410D03*
D11*
X269608459Y-136793168D03*
X284496013Y-170317332D03*
D12*
X285305652Y-167595388D03*
D13*
X289498836Y-169435200D03*
D12*
X291118115Y-163991310D03*
D11*
X294501659Y-168553068D03*
D14*
X105449136Y-205090800D03*
D15*
X102909136Y-205090800D03*
X100369136Y-205090800D03*
X97829136Y-205090800D03*
X95289136Y-205090800D03*
X92749136Y-205090800D03*
X90209136Y-205090800D03*
X87669136Y-205090800D03*
X85129136Y-205090800D03*
X82589136Y-205090800D03*
X80049136Y-205090800D03*
D11*
X266548713Y-177949832D03*
D12*
X267358352Y-175227888D03*
D13*
X271551536Y-177067700D03*
D12*
X273170815Y-171623810D03*
D11*
X276554359Y-176185568D03*
X133883013Y-148856867D03*
D12*
X135574785Y-146575989D03*
D13*
X138885836Y-149739000D03*
D12*
X142269380Y-145177243D03*
D11*
X143888659Y-150621133D03*
X115222667Y-114854449D03*
D12*
X116709210Y-112434802D03*
D13*
X120283336Y-115297200D03*
D12*
X123256422Y-110457907D03*
D11*
X125344005Y-115739951D03*
D14*
X220099136Y-162065800D03*
D15*
X217559136Y-162065800D03*
X215019136Y-162065800D03*
X212479136Y-162065800D03*
X209939136Y-162065800D03*
X207399136Y-162065800D03*
X204859136Y-162065800D03*
D11*
X325205636Y-145848200D03*
D12*
X326475636Y-143308200D03*
D13*
X330285636Y-145848200D03*
D12*
X332825636Y-140768200D03*
D11*
X335365636Y-145848200D03*
X194891830Y-222231839D03*
D12*
X197497387Y-221102426D03*
D13*
X198783336Y-225497200D03*
D12*
X203994450Y-223238375D03*
D11*
X202674842Y-228762561D03*
X118078336Y-196247200D03*
D12*
X119348336Y-193707200D03*
D13*
X123158336Y-196247200D03*
D12*
X125698336Y-191167200D03*
D11*
X128238336Y-196247200D03*
X248184613Y-183218732D03*
D12*
X248994252Y-180496788D03*
D13*
X253187436Y-182336600D03*
D12*
X254806715Y-176892710D03*
D11*
X258190259Y-181454468D03*
X225975413Y-176554332D03*
D12*
X226785052Y-173832388D03*
D13*
X230978236Y-175672200D03*
D12*
X232597515Y-170228310D03*
D11*
X235981059Y-174790068D03*
X256050413Y-118929332D03*
D12*
X256860052Y-116207388D03*
D13*
X261053236Y-118047200D03*
D12*
X262672515Y-112603310D03*
D11*
X266056059Y-117165068D03*
X140956513Y-195899867D03*
D12*
X142648285Y-193618989D03*
D13*
X145959336Y-196782000D03*
D12*
X149342880Y-192220243D03*
D11*
X150962159Y-197664133D03*
X69429636Y-185840400D03*
D12*
X70699636Y-183300400D03*
D13*
X74509636Y-185840400D03*
D12*
X77049636Y-180760400D03*
D11*
X79589636Y-185840400D03*
X325205536Y-165848100D03*
D12*
X326475536Y-163308100D03*
D13*
X330285536Y-165848100D03*
D12*
X332825536Y-160768100D03*
D11*
X335365536Y-165848100D03*
X89642136Y-105590400D03*
D12*
X90912136Y-103050400D03*
D13*
X94722136Y-105590400D03*
D12*
X97262136Y-100510400D03*
D11*
X99802136Y-105590400D03*
D16*
X126816236Y-212535800D03*
D17*
X124276236Y-212535800D03*
X121736236Y-212535800D03*
X119196236Y-212535800D03*
X116656236Y-212535800D03*
X114116236Y-212535800D03*
X111576236Y-212535800D03*
X109036236Y-212535800D03*
X106496236Y-212535800D03*
X103956236Y-212535800D03*
X101416236Y-212535800D03*
X98876236Y-212535800D03*
X96336236Y-212535800D03*
X93796236Y-212535800D03*
X91256236Y-212535800D03*
X88716236Y-212535800D03*
X86176236Y-212535800D03*
X83636236Y-212535800D03*
X81096236Y-212535800D03*
X78558956Y-212532120D03*
X76018956Y-212532120D03*
X73478956Y-212532120D03*
X73476236Y-235395800D03*
X76016236Y-235395800D03*
X78556236Y-235395800D03*
X81096236Y-235395800D03*
X83636236Y-235395800D03*
X86176236Y-235395800D03*
X88716236Y-235395800D03*
X91256236Y-235395800D03*
X93796236Y-235395800D03*
X96336236Y-235395800D03*
X98876236Y-235395800D03*
X101416236Y-235395800D03*
X103956236Y-235395800D03*
X106496236Y-235395800D03*
X109036236Y-235395800D03*
X111576236Y-235395800D03*
X114116236Y-235395800D03*
X116656236Y-235395800D03*
X119196236Y-235395800D03*
X121736236Y-235395800D03*
X124276236Y-235395800D03*
X126816236Y-235395800D03*
D11*
X173684613Y-141963667D03*
D12*
X175376385Y-139682789D03*
D13*
X178687436Y-142845800D03*
D12*
X182070980Y-138284043D03*
D11*
X183690259Y-143727933D03*
X140930513Y-109390067D03*
D12*
X142622285Y-107109189D03*
D13*
X145933336Y-110272200D03*
D12*
X149316880Y-105710443D03*
D11*
X150936159Y-111154333D03*
X237502130Y-215808861D03*
D12*
X236842326Y-213046768D03*
D13*
X241393636Y-212543500D03*
D12*
X240074028Y-207019314D03*
D11*
X245285142Y-209278139D03*
X277550013Y-130925032D03*
D12*
X278359652Y-128203088D03*
D13*
X282552836Y-130042900D03*
D12*
X284172115Y-124599010D03*
D11*
X287555659Y-129160768D03*
X273975413Y-111154332D03*
D12*
X274785052Y-108432388D03*
D13*
X278978236Y-110272200D03*
D12*
X280597515Y-104828310D03*
D11*
X283981059Y-109390068D03*
X222236730Y-228762561D03*
D12*
X221576926Y-226000468D03*
D13*
X226128236Y-225497200D03*
D12*
X224808628Y-219973014D03*
D11*
X230019742Y-222231839D03*
X177330513Y-122240067D03*
D12*
X179022285Y-119959189D03*
D13*
X182333336Y-123122200D03*
D12*
X185716880Y-118560443D03*
D11*
X187336159Y-124004333D03*
X237575413Y-124004332D03*
D12*
X238385052Y-121282388D03*
D13*
X242578236Y-123122200D03*
D12*
X244197515Y-117678310D03*
D11*
X247581059Y-122240068D03*
X179626430Y-209278139D03*
D12*
X182231987Y-208148726D03*
D13*
X183517936Y-212543500D03*
D12*
X188729050Y-210284675D03*
D11*
X187409442Y-215808861D03*
X188930513Y-174790067D03*
D12*
X190622285Y-172509189D03*
D13*
X193933336Y-175672200D03*
D12*
X197316880Y-171110443D03*
D11*
X198936159Y-176554333D03*
X69429736Y-165840400D03*
D12*
X70699736Y-163300400D03*
D13*
X74509736Y-165840400D03*
D12*
X77049736Y-160760400D03*
D11*
X79589736Y-165840400D03*
X113408567Y-134882549D03*
D12*
X114895110Y-132462902D03*
D13*
X118469236Y-135325300D03*
D12*
X121442322Y-130486007D03*
D11*
X123529905Y-135768051D03*
X69429636Y-145840400D03*
D12*
X70699636Y-143300400D03*
D13*
X74509636Y-145840400D03*
D12*
X77049636Y-140760400D03*
D11*
X79589636Y-145840400D03*
M02*
