G04 #@! TF.GenerationSoftware,KiCad,Pcbnew,8.0.5*
G04 #@! TF.CreationDate,2024-12-11T09:00:06+01:00*
G04 #@! TF.ProjectId,Atreus62,41747265-7573-4363-922e-6b696361645f,rev?*
G04 #@! TF.SameCoordinates,Original*
G04 #@! TF.FileFunction,Paste,Bot*
G04 #@! TF.FilePolarity,Positive*
%FSLAX46Y46*%
G04 Gerber Fmt 4.6, Leading zero omitted, Abs format (unit mm)*
G04 Created by KiCad (PCBNEW 8.0.5) date 2024-12-11 09:00:06*
%MOMM*%
%LPD*%
G01*
G04 APERTURE LIST*
G04 Aperture macros list*
%AMRoundRect*
0 Rectangle with rounded corners*
0 $1 Rounding radius*
0 $2 $3 $4 $5 $6 $7 $8 $9 X,Y pos of 4 corners*
0 Add a 4 corners polygon primitive as box body*
4,1,4,$2,$3,$4,$5,$6,$7,$8,$9,$2,$3,0*
0 Add four circle primitives for the rounded corners*
1,1,$1+$1,$2,$3*
1,1,$1+$1,$4,$5*
1,1,$1+$1,$6,$7*
1,1,$1+$1,$8,$9*
0 Add four rect primitives between the rounded corners*
20,1,$1+$1,$2,$3,$4,$5,0*
20,1,$1+$1,$4,$5,$6,$7,0*
20,1,$1+$1,$6,$7,$8,$9,0*
20,1,$1+$1,$8,$9,$2,$3,0*%
%AMRotRect*
0 Rectangle, with rotation*
0 The origin of the aperture is its center*
0 $1 length*
0 $2 width*
0 $3 Rotation angle, in degrees counterclockwise*
0 Add horizontal line*
21,1,$1,$2,0,0,$3*%
G04 Aperture macros list end*
%ADD10R,2.300000X2.000000*%
%ADD11RotRect,2.300000X2.000000X190.000000*%
%ADD12RotRect,2.300000X2.000000X170.000000*%
%ADD13RotRect,2.300000X2.000000X185.000000*%
%ADD14RotRect,2.300000X2.000000X160.000000*%
%ADD15RotRect,2.300000X2.000000X175.000000*%
%ADD16RotRect,2.300000X2.000000X200.000000*%
%ADD17RotRect,2.300000X2.000000X140.000000*%
%ADD18RotRect,2.300000X2.000000X220.000000*%
%ADD19RoundRect,0.225000X-0.225000X-0.375000X0.225000X-0.375000X0.225000X0.375000X-0.225000X0.375000X0*%
%ADD20RoundRect,0.225000X0.375000X-0.225000X0.375000X0.225000X-0.375000X0.225000X-0.375000X-0.225000X0*%
%ADD21RoundRect,0.225000X0.225000X0.375000X-0.225000X0.375000X-0.225000X-0.375000X0.225000X-0.375000X0*%
%ADD22R,1.200000X0.900000*%
G04 APERTURE END LIST*
D10*
X279165824Y-45652688D03*
X291865824Y-43112688D03*
D11*
X207470611Y-138106763D03*
X219536604Y-133400020D03*
D12*
X93272685Y-56940820D03*
X106220810Y-56644740D03*
D10*
X279261939Y-85910449D03*
X291961939Y-83370449D03*
X279261893Y-105910402D03*
X291961893Y-103370402D03*
X23485985Y-65918196D03*
X36185985Y-63378196D03*
X259145604Y-125918182D03*
X271845604Y-123378182D03*
X230613237Y-136317161D03*
X243313237Y-133777161D03*
X23486031Y-105918149D03*
X36186031Y-103378149D03*
D12*
X71773075Y-68936539D03*
X84721200Y-68640459D03*
D10*
X23485960Y-125918182D03*
X36185960Y-123378182D03*
D13*
X233290012Y-55987068D03*
X245720309Y-52349857D03*
D10*
X279261964Y-125910435D03*
X291961964Y-123370435D03*
D11*
X178232797Y-103965168D03*
X190298790Y-99258425D03*
D14*
X95361119Y-139788824D03*
X108163946Y-141745661D03*
D12*
X86247407Y-96265164D03*
X99195532Y-95969084D03*
D11*
X214544143Y-91063768D03*
X226610136Y-86357025D03*
D15*
X43779209Y-114893553D03*
X56652257Y-113470097D03*
D13*
X235104133Y-76015168D03*
X247534430Y-72377957D03*
D10*
X279261939Y-65910449D03*
X291961939Y-63370449D03*
D13*
X238905629Y-116113733D03*
X251335926Y-112476522D03*
D12*
X82774443Y-115961319D03*
X95722568Y-115665239D03*
D16*
X188114749Y-144577106D03*
X199180114Y-137846631D03*
D11*
X174742469Y-84170533D03*
X186808462Y-79463790D03*
D10*
X259049464Y-45660435D03*
X271749464Y-43120435D03*
D13*
X236847264Y-95939066D03*
X249277561Y-92301855D03*
D12*
X104611458Y-101534094D03*
X117559583Y-101238014D03*
D10*
X23485985Y-85918196D03*
X36185985Y-83378196D03*
D12*
X89720371Y-76569009D03*
X102668496Y-76272929D03*
X64827148Y-108328849D03*
X77775273Y-108032769D03*
D15*
X45837574Y-94718886D03*
X58710622Y-93295430D03*
D10*
X3369625Y-65910449D03*
X16069625Y-63370449D03*
D11*
X196596848Y-98696238D03*
X208662841Y-93989495D03*
D10*
X259145579Y-65918196D03*
X271845579Y-63378196D03*
X3465740Y-45652688D03*
X16165740Y-43112688D03*
D12*
X101138494Y-121230250D03*
X114086619Y-120934170D03*
D11*
X193123884Y-79000083D03*
X205189877Y-74293340D03*
X218017107Y-110759923D03*
X230083100Y-106053180D03*
X200069812Y-118392393D03*
X212135805Y-113685650D03*
D12*
X68300112Y-88632694D03*
X81248237Y-88336614D03*
D15*
X49394826Y-54766888D03*
X62267874Y-53343432D03*
D10*
X259145579Y-85918196D03*
X271845579Y-83378196D03*
D17*
X130939408Y-161671253D03*
X142300853Y-167888903D03*
D10*
X52018327Y-136317161D03*
X64718327Y-133777161D03*
D11*
X181705761Y-123661324D03*
X193771754Y-118954581D03*
X159496570Y-116996894D03*
X171562563Y-112290151D03*
X189571570Y-59371894D03*
X201637563Y-54665151D03*
D12*
X75373644Y-135675689D03*
X88321769Y-135379609D03*
D10*
X3369600Y-125910435D03*
X16069600Y-123370435D03*
X259145533Y-105918149D03*
X271845533Y-103378149D03*
X23582100Y-45660435D03*
X36282100Y-43120435D03*
D12*
X108101786Y-81739459D03*
X121049911Y-81443379D03*
X75347685Y-49165820D03*
X88295810Y-48869740D03*
D18*
X170232920Y-157716593D03*
X178329004Y-147607437D03*
D11*
X211071180Y-71367613D03*
X223137173Y-66660870D03*
X207496570Y-51596894D03*
X219562563Y-46890151D03*
D18*
X154967534Y-170670280D03*
X163063618Y-160561124D03*
D12*
X111747685Y-62015820D03*
X124695810Y-61719740D03*
D11*
X171096570Y-64446894D03*
X183162563Y-59740151D03*
D17*
X115674022Y-148717566D03*
X127035467Y-154935216D03*
D12*
X123347685Y-114565820D03*
X136295810Y-114269740D03*
D10*
X3369671Y-105910402D03*
X16069671Y-103370402D03*
D15*
X47580705Y-74794988D03*
X60453753Y-73371532D03*
D10*
X3369625Y-85910449D03*
X16069625Y-83370449D03*
D19*
X18894136Y-43145801D03*
X22194136Y-43145799D03*
X18894136Y-63395801D03*
X22194136Y-63395799D03*
X18894136Y-83385801D03*
X22194136Y-83385799D03*
X18894136Y-103385801D03*
X22194136Y-103385799D03*
X18894136Y-123395801D03*
X22194136Y-123395799D03*
X38734136Y-47585802D03*
X42034136Y-47585800D03*
X40224136Y-63395802D03*
X43524136Y-63395800D03*
X40194136Y-83435801D03*
X43494136Y-83435799D03*
X40176636Y-103375801D03*
X43476636Y-103375799D03*
X40196636Y-123345801D03*
X43496636Y-123345799D03*
X65896636Y-53325801D03*
X69196636Y-53325799D03*
X64116636Y-73475801D03*
X67416636Y-73475799D03*
X62744136Y-93245801D03*
X66044136Y-93245799D03*
X59976636Y-113505801D03*
X63276636Y-113505799D03*
X68436636Y-133745801D03*
X71736636Y-133745799D03*
X89526636Y-53315801D03*
X92826636Y-53315799D03*
X88006636Y-68625801D03*
X91306636Y-68625799D03*
X84344136Y-88365801D03*
X87644136Y-88365799D03*
X81086636Y-108075801D03*
X84386636Y-108075799D03*
X91534136Y-135455801D03*
X94834136Y-135455799D03*
X108926636Y-56965801D03*
X112226636Y-56965799D03*
X106476636Y-76285801D03*
X109776636Y-76285799D03*
X102616636Y-95995801D03*
X105916636Y-95995799D03*
X99076636Y-115675801D03*
X102376636Y-115675799D03*
X111506636Y-141755801D03*
X114806636Y-141755799D03*
X128204136Y-61725801D03*
X131504136Y-61725799D03*
X123934136Y-81455801D03*
X127234136Y-81455799D03*
X122604136Y-101235801D03*
X125904136Y-101235799D03*
X119006636Y-120955801D03*
X122306636Y-120955799D03*
X130564136Y-154925801D03*
X133864136Y-154925799D03*
D20*
X163004137Y-156095800D03*
X163004135Y-152795800D03*
D19*
X185184136Y-72525799D03*
X188484136Y-72525801D03*
X188574136Y-92565799D03*
X191874136Y-92565801D03*
X192974136Y-113715799D03*
X196274136Y-113715801D03*
X195876636Y-131475799D03*
X199176636Y-131475801D03*
X178396636Y-143295799D03*
X181696636Y-143295801D03*
X203296636Y-67595799D03*
X206596636Y-67595801D03*
X207094136Y-84815799D03*
X210394136Y-84815801D03*
X211206636Y-108255799D03*
X214506636Y-108255801D03*
X214826636Y-128105799D03*
X218126636Y-128105801D03*
X202314136Y-134435799D03*
X205614136Y-134435801D03*
X224336636Y-61035799D03*
X227636636Y-61035801D03*
X227754136Y-80725799D03*
X231054136Y-80725801D03*
X231164136Y-100275799D03*
X234464136Y-100275801D03*
X232174136Y-120265799D03*
X235474136Y-120265801D03*
X223324136Y-131005798D03*
X226624136Y-131005800D03*
X250536636Y-52225799D03*
X253836636Y-52225801D03*
X252486636Y-72325799D03*
X255786636Y-72325801D03*
X254206636Y-92155799D03*
X257506636Y-92155801D03*
X255874136Y-112445799D03*
X259174136Y-112445801D03*
X243576636Y-128275799D03*
X246876636Y-128275801D03*
X273434136Y-54315799D03*
X276734136Y-54315801D03*
X274566636Y-63395799D03*
X277866636Y-63395801D03*
X274686636Y-83415799D03*
X277986636Y-83415801D03*
X274626636Y-103405799D03*
X277926636Y-103405801D03*
X274554136Y-123335799D03*
X277854136Y-123335801D03*
D21*
X292434136Y-56435801D03*
X289134136Y-56435799D03*
X294454136Y-76515801D03*
X291154136Y-76515799D03*
X294384136Y-96415801D03*
X291084136Y-96415799D03*
X294424136Y-116495801D03*
X291124136Y-116495799D03*
X294484136Y-119065801D03*
X291184136Y-119065799D03*
D22*
X171584136Y-109215800D03*
X171584136Y-105915800D03*
D19*
X139574136Y-114255800D03*
X142874136Y-114255800D03*
D20*
X142584136Y-159605800D03*
X142584136Y-156305800D03*
M02*
