G04 #@! TF.GenerationSoftware,KiCad,Pcbnew,9.0.1*
G04 #@! TF.CreationDate,2025-05-03T10:40:41+02:00*
G04 #@! TF.ProjectId,Atreus62,41747265-7573-4363-922e-6b696361645f,rev?*
G04 #@! TF.SameCoordinates,Original*
G04 #@! TF.FileFunction,Soldermask,Bot*
G04 #@! TF.FilePolarity,Negative*
%FSLAX46Y46*%
G04 Gerber Fmt 4.6, Leading zero omitted, Abs format (unit mm)*
G04 Created by KiCad (PCBNEW 9.0.1) date 2025-05-03 10:40:41*
%MOMM*%
%LPD*%
G01*
G04 APERTURE LIST*
G04 Aperture macros list*
%AMRoundRect*
0 Rectangle with rounded corners*
0 $1 Rounding radius*
0 $2 $3 $4 $5 $6 $7 $8 $9 X,Y pos of 4 corners*
0 Add a 4 corners polygon primitive as box body*
4,1,4,$2,$3,$4,$5,$6,$7,$8,$9,$2,$3,0*
0 Add four circle primitives for the rounded corners*
1,1,$1+$1,$2,$3*
1,1,$1+$1,$4,$5*
1,1,$1+$1,$6,$7*
1,1,$1+$1,$8,$9*
0 Add four rect primitives between the rounded corners*
20,1,$1+$1,$2,$3,$4,$5,0*
20,1,$1+$1,$4,$5,$6,$7,0*
20,1,$1+$1,$6,$7,$8,$9,0*
20,1,$1+$1,$8,$9,$2,$3,0*%
%AMRotRect*
0 Rectangle, with rotation*
0 The origin of the aperture is its center*
0 $1 length*
0 $2 width*
0 $3 Rotation angle, in degrees counterclockwise*
0 Add horizontal line*
21,1,$1,$2,0,0,$3*%
G04 Aperture macros list end*
%ADD10C,4.800000*%
%ADD11C,1.800000*%
%ADD12C,3.000000*%
%ADD13C,4.000000*%
%ADD14R,2.300000X2.000000*%
%ADD15RotRect,2.300000X2.000000X190.000000*%
%ADD16RotRect,2.300000X2.000000X170.000000*%
%ADD17RotRect,2.300000X2.000000X185.000000*%
%ADD18RotRect,2.300000X2.000000X160.000000*%
%ADD19RotRect,2.300000X2.000000X175.000000*%
%ADD20RotRect,2.300000X2.000000X200.000000*%
%ADD21R,1.700000X1.700000*%
%ADD22O,1.700000X1.700000*%
%ADD23RotRect,2.300000X2.000000X140.000000*%
%ADD24R,1.200000X2.000000*%
%ADD25O,1.200000X2.000000*%
%ADD26RotRect,2.300000X2.000000X220.000000*%
%ADD27RoundRect,0.225000X-0.225000X-0.375000X0.225000X-0.375000X0.225000X0.375000X-0.225000X0.375000X0*%
%ADD28RoundRect,0.225000X0.375000X-0.225000X0.375000X0.225000X-0.375000X0.225000X-0.375000X-0.225000X0*%
%ADD29RoundRect,0.225000X0.225000X0.375000X-0.225000X0.375000X-0.225000X-0.375000X0.225000X-0.375000X0*%
%ADD30R,1.200000X0.900000*%
%ADD31R,2.500000X2.500000*%
G04 APERTURE END LIST*
D10*
X316024136Y-188895800D03*
D11*
X345225836Y-105582700D03*
D12*
X346495836Y-103042700D03*
D13*
X350305836Y-105582700D03*
D12*
X352845836Y-100502700D03*
D11*
X355385836Y-105582700D03*
D14*
X343305836Y-103002700D03*
X356005836Y-100462700D03*
D11*
X273949513Y-197664132D03*
D12*
X274759152Y-194942188D03*
D13*
X278952336Y-196782000D03*
D12*
X280571615Y-191338110D03*
D11*
X283955159Y-195899868D03*
D15*
X271610669Y-195456733D03*
X283676662Y-190749990D03*
D11*
X158855513Y-117165067D03*
D12*
X160547285Y-114884189D03*
D13*
X163858336Y-118047200D03*
D12*
X167241880Y-113485443D03*
D11*
X168861159Y-118929333D03*
D16*
X157412694Y-114290859D03*
X170360819Y-113994779D03*
D10*
X212474136Y-219025800D03*
D11*
X345321936Y-145840400D03*
D12*
X346591936Y-143300400D03*
D13*
X350401936Y-145840400D03*
D12*
X352941936Y-140760400D03*
D11*
X355481936Y-145840400D03*
D14*
X343401936Y-143260400D03*
X356101936Y-140720400D03*
D11*
X345321936Y-165840400D03*
D12*
X346591936Y-163300400D03*
D13*
X350401936Y-165840400D03*
D12*
X352941936Y-160760400D03*
D11*
X355481936Y-165840400D03*
D14*
X343401936Y-163260400D03*
X356101936Y-160720400D03*
D11*
X89546036Y-125848200D03*
D12*
X90816036Y-123308200D03*
D13*
X94626036Y-125848200D03*
D12*
X97166036Y-120768200D03*
D11*
X99706036Y-125848200D03*
D14*
X87626036Y-123268200D03*
X100326036Y-120728200D03*
D11*
X325205636Y-185848200D03*
D12*
X326475636Y-183308200D03*
D13*
X330285636Y-185848200D03*
D12*
X332825636Y-180768200D03*
D11*
X335365636Y-185848200D03*
D14*
X323285636Y-183268200D03*
X335985636Y-180728200D03*
D11*
X296673236Y-196247200D03*
D12*
X297943236Y-193707200D03*
D13*
X301753236Y-196247200D03*
D12*
X304293236Y-191167200D03*
D11*
X306833236Y-196247200D03*
D14*
X294753236Y-193667200D03*
X307453236Y-191127200D03*
D11*
X89546036Y-165848100D03*
D12*
X90816036Y-163308100D03*
D13*
X94626036Y-165848100D03*
D12*
X97166036Y-160768100D03*
D11*
X99706036Y-165848100D03*
D14*
X87626036Y-163268100D03*
X100326036Y-160728100D03*
D11*
X137355913Y-129160767D03*
D12*
X139047685Y-126879889D03*
D13*
X142358736Y-130042900D03*
D12*
X145742280Y-125481143D03*
D11*
X147361559Y-130925033D03*
D16*
X135913094Y-126286559D03*
X148861219Y-125990479D03*
D11*
X89546036Y-185848200D03*
D12*
X90816036Y-183308200D03*
D13*
X94626036Y-185848200D03*
D12*
X97166036Y-180768200D03*
D11*
X99706036Y-185848200D03*
D14*
X87626036Y-183268200D03*
X100326036Y-180728200D03*
D10*
X108924136Y-188895800D03*
D11*
X299567567Y-115739951D03*
D12*
X300611359Y-113098929D03*
D13*
X304628236Y-115297200D03*
D12*
X306715820Y-110015156D03*
D11*
X309688905Y-114854449D03*
D17*
X297430011Y-113337107D03*
X309860308Y-109699896D03*
D11*
X345322036Y-185840400D03*
D12*
X346592036Y-183300400D03*
D13*
X350402036Y-185840400D03*
D12*
X352942036Y-180760400D03*
D11*
X355482036Y-185840400D03*
D14*
X343402036Y-183260400D03*
X356102036Y-180720400D03*
D11*
X244711713Y-163522532D03*
D12*
X245521352Y-160800588D03*
D13*
X249714536Y-162640400D03*
D12*
X251333815Y-157196510D03*
D11*
X254717359Y-161758268D03*
D15*
X242372869Y-161315133D03*
X254438862Y-156608390D03*
D11*
X160422997Y-200219938D03*
D12*
X162485138Y-198267484D03*
D13*
X165196636Y-201957400D03*
D12*
X169320919Y-198052493D03*
D11*
X169970275Y-203694862D03*
D18*
X159501200Y-197138852D03*
X172304027Y-199095689D03*
D11*
X151830213Y-156489367D03*
D12*
X153521985Y-154208489D03*
D13*
X156833036Y-157371500D03*
D12*
X160216580Y-152809743D03*
D11*
X161835859Y-158253633D03*
D16*
X150387394Y-153615159D03*
X163335519Y-153319079D03*
D10*
X316104136Y-100665800D03*
D11*
X281023013Y-150621132D03*
D12*
X281832652Y-147899188D03*
D13*
X286025836Y-149739000D03*
D12*
X287645115Y-144295110D03*
D11*
X291028659Y-148856868D03*
D15*
X278684169Y-148413733D03*
X290750162Y-143706990D03*
D10*
X108844136Y-100665800D03*
D11*
X109607067Y-174981049D03*
D12*
X111093610Y-172561402D03*
D13*
X114667736Y-175423800D03*
D12*
X117640822Y-170584507D03*
D11*
X119728405Y-175866551D03*
D19*
X107919235Y-172243527D03*
X120792283Y-170820071D03*
D11*
X301381767Y-135768051D03*
D12*
X302425559Y-133127029D03*
D13*
X306442436Y-135325300D03*
D12*
X308530020Y-130043256D03*
D11*
X311503105Y-134882549D03*
D17*
X299244211Y-133365207D03*
X311674508Y-129727996D03*
D11*
X345321936Y-125840400D03*
D12*
X346591936Y-123300400D03*
D13*
X350401936Y-125840400D03*
D12*
X352941936Y-120760400D03*
D11*
X355481936Y-125840400D03*
D14*
X343401936Y-123260400D03*
X356101936Y-120720400D03*
D11*
X305183267Y-175866551D03*
D12*
X306227059Y-173225529D03*
D13*
X310243936Y-175423800D03*
D12*
X312331520Y-170141756D03*
D11*
X315304605Y-174981049D03*
D17*
X303045711Y-173463707D03*
X315476008Y-169826496D03*
D11*
X148357313Y-176185567D03*
D12*
X150049085Y-173904689D03*
D13*
X153360136Y-177067700D03*
D12*
X156743680Y-172505943D03*
D11*
X158362959Y-177949833D03*
D16*
X146914494Y-173311359D03*
X159862619Y-173015279D03*
D10*
X185024136Y-194255800D03*
D11*
X254941397Y-203694863D03*
D12*
X255266076Y-200873677D03*
D13*
X259715036Y-201957400D03*
D12*
X260364394Y-196315030D03*
D11*
X264488675Y-200219937D03*
D20*
X252254776Y-201927134D03*
X263320141Y-195196659D03*
D11*
X241221313Y-143727932D03*
D12*
X242030952Y-141005988D03*
D13*
X246224136Y-142845800D03*
D12*
X247843415Y-137401910D03*
D11*
X251226959Y-141963668D03*
D15*
X238882469Y-141520533D03*
X250948462Y-136813790D03*
D11*
X325109536Y-105590400D03*
D12*
X326379536Y-103050400D03*
D13*
X330189536Y-105590400D03*
D12*
X332729536Y-100510400D03*
D11*
X335269536Y-105590400D03*
D14*
X323189536Y-103010400D03*
X335889536Y-100470400D03*
D11*
X303124867Y-155691951D03*
D12*
X304168659Y-153050929D03*
D13*
X308185536Y-155249200D03*
D12*
X310273120Y-149967156D03*
D11*
X313246205Y-154806449D03*
D17*
X300987311Y-153289107D03*
X313417608Y-149651896D03*
D11*
X170194313Y-161758267D03*
D12*
X171886085Y-159477389D03*
D13*
X175197136Y-162640400D03*
D12*
X178580680Y-158078643D03*
D11*
X180199959Y-163522533D03*
D16*
X168751494Y-158884059D03*
X181699619Y-158587979D03*
D11*
X89546036Y-145848200D03*
D12*
X90816036Y-143308200D03*
D13*
X94626036Y-145848200D03*
D12*
X97166036Y-140768200D03*
D11*
X99706036Y-145848200D03*
D14*
X87626036Y-143268200D03*
X100326036Y-140728200D03*
D11*
X155303213Y-136793167D03*
D12*
X156994985Y-134512289D03*
D13*
X160306036Y-137675300D03*
D12*
X163689580Y-133113543D03*
D11*
X165308859Y-138557433D03*
D16*
X153860394Y-133918959D03*
X166808519Y-133622879D03*
D10*
X239924136Y-194255800D03*
D11*
X130410013Y-168553067D03*
D12*
X132101785Y-166272189D03*
D13*
X135412836Y-169435200D03*
D12*
X138796380Y-164873443D03*
D11*
X140415659Y-170317333D03*
D16*
X128967194Y-165678859D03*
X141915319Y-165382779D03*
D11*
X111665467Y-154806449D03*
D12*
X113152010Y-152386802D03*
D13*
X116726136Y-155249200D03*
D12*
X119699222Y-150409907D03*
D11*
X121786805Y-155691951D03*
D19*
X109977635Y-152068927D03*
X122850683Y-150645471D03*
D11*
X69429636Y-125840400D03*
D12*
X70699636Y-123300400D03*
D13*
X74509636Y-125840400D03*
D12*
X77049636Y-120760400D03*
D11*
X79589636Y-125840400D03*
D14*
X67509636Y-123260400D03*
X80209636Y-120720400D03*
D11*
X263075713Y-158253632D03*
D12*
X263885352Y-155531688D03*
D13*
X268078536Y-157371500D03*
D12*
X269697815Y-151927610D03*
D11*
X273081359Y-156489368D03*
D15*
X260736869Y-156046233D03*
X272802862Y-151339490D03*
D11*
X325205636Y-125848200D03*
D12*
X326475636Y-123308200D03*
D13*
X330285636Y-125848200D03*
D12*
X332825636Y-120768200D03*
D11*
X335365636Y-125848200D03*
D14*
X323285636Y-123268200D03*
X335985636Y-120728200D03*
D11*
X69525736Y-105582700D03*
D12*
X70795736Y-103042700D03*
D13*
X74605736Y-105582700D03*
D12*
X77145736Y-100502700D03*
D11*
X79685736Y-105582700D03*
D14*
X67605736Y-103002700D03*
X80305736Y-100462700D03*
D11*
X166721313Y-181454467D03*
D12*
X168413085Y-179173589D03*
D13*
X171724136Y-182336600D03*
D12*
X175107680Y-177774843D03*
D11*
X176726959Y-183218733D03*
D16*
X165278494Y-178580259D03*
X178226619Y-178284179D03*
D11*
X259602813Y-138557432D03*
D12*
X260412452Y-135835488D03*
D13*
X264605636Y-137675300D03*
D12*
X266224915Y-132231410D03*
D11*
X269608459Y-136793168D03*
D15*
X257263969Y-136350033D03*
X269329962Y-131643290D03*
D11*
X284496013Y-170317332D03*
D12*
X285305652Y-167595388D03*
D13*
X289498836Y-169435200D03*
D12*
X291118115Y-163991310D03*
D11*
X294501659Y-168553068D03*
D15*
X282157169Y-168109933D03*
X294223162Y-163403190D03*
D21*
X105449136Y-205090800D03*
D22*
X102909136Y-205090800D03*
X100369136Y-205090800D03*
X97829136Y-205090800D03*
X95289136Y-205090800D03*
X92749136Y-205090800D03*
X90209136Y-205090800D03*
X87669136Y-205090800D03*
X85129136Y-205090800D03*
X82589136Y-205090800D03*
X80049136Y-205090800D03*
D11*
X266548713Y-177949832D03*
D12*
X267358352Y-175227888D03*
D13*
X271551536Y-177067700D03*
D12*
X273170815Y-171623810D03*
D11*
X276554359Y-176185568D03*
D15*
X264209869Y-175742433D03*
X276275862Y-171035690D03*
D11*
X133883013Y-148856867D03*
D12*
X135574785Y-146575989D03*
D13*
X138885836Y-149739000D03*
D12*
X142269380Y-145177243D03*
D11*
X143888659Y-150621133D03*
D16*
X132440194Y-145982659D03*
X145388319Y-145686579D03*
D11*
X115222667Y-114854449D03*
D12*
X116709210Y-112434802D03*
D13*
X120283336Y-115297200D03*
D12*
X123256422Y-110457907D03*
D11*
X125344005Y-115739951D03*
D19*
X113534835Y-112116927D03*
X126407883Y-110693471D03*
D21*
X220099136Y-162065800D03*
D22*
X217559136Y-162065800D03*
X215019136Y-162065800D03*
X212479136Y-162065800D03*
X209939136Y-162065800D03*
X207399136Y-162065800D03*
X204859136Y-162065800D03*
D11*
X325205636Y-145848200D03*
D12*
X326475636Y-143308200D03*
D13*
X330285636Y-145848200D03*
D12*
X332825636Y-140768200D03*
D11*
X335365636Y-145848200D03*
D14*
X323285636Y-143268200D03*
X335985636Y-140728200D03*
D11*
X194891830Y-222231839D03*
D12*
X197497387Y-221102426D03*
D13*
X198783336Y-225497200D03*
D12*
X203994450Y-223238375D03*
D11*
X202674842Y-228762561D03*
D23*
X195079417Y-219021292D03*
X206440862Y-225238942D03*
D11*
X118078336Y-196247200D03*
D12*
X119348336Y-193707200D03*
D13*
X123158336Y-196247200D03*
D12*
X125698336Y-191167200D03*
D11*
X128238336Y-196247200D03*
D14*
X116158336Y-193667200D03*
X128858336Y-191127200D03*
D11*
X248184613Y-183218732D03*
D12*
X248994252Y-180496788D03*
D13*
X253187436Y-182336600D03*
D12*
X254806715Y-176892710D03*
D11*
X258190259Y-181454468D03*
D15*
X245845769Y-181011333D03*
X257911762Y-176304590D03*
D11*
X225975413Y-176554332D03*
D12*
X226785052Y-173832388D03*
D13*
X230978236Y-175672200D03*
D12*
X232597515Y-170228310D03*
D11*
X235981059Y-174790068D03*
D15*
X223636569Y-174346933D03*
X235702562Y-169640190D03*
D11*
X256050413Y-118929332D03*
D12*
X256860052Y-116207388D03*
D13*
X261053236Y-118047200D03*
D12*
X262672515Y-112603310D03*
D11*
X266056059Y-117165068D03*
D15*
X253711569Y-116721933D03*
X265777562Y-112015190D03*
D11*
X140956513Y-195899867D03*
D12*
X142648285Y-193618989D03*
D13*
X145959336Y-196782000D03*
D12*
X149342880Y-192220243D03*
D11*
X150962159Y-197664133D03*
D16*
X139513694Y-193025659D03*
X152461819Y-192729579D03*
D11*
X69429636Y-185840400D03*
D12*
X70699636Y-183300400D03*
D13*
X74509636Y-185840400D03*
D12*
X77049636Y-180760400D03*
D11*
X79589636Y-185840400D03*
D14*
X67509636Y-183260400D03*
X80209636Y-180720400D03*
D11*
X325205536Y-165848100D03*
D12*
X326475536Y-163308100D03*
D13*
X330285536Y-165848100D03*
D12*
X332825536Y-160768100D03*
D11*
X335365536Y-165848100D03*
D14*
X323285536Y-163268100D03*
X335985536Y-160728100D03*
D11*
X89642136Y-105590400D03*
D12*
X90912136Y-103050400D03*
D13*
X94722136Y-105590400D03*
D12*
X97262136Y-100510400D03*
D11*
X99802136Y-105590400D03*
D14*
X87722136Y-103010400D03*
X100422136Y-100470400D03*
D24*
X126816236Y-212535800D03*
D25*
X124276236Y-212535800D03*
X121736236Y-212535800D03*
X119196236Y-212535800D03*
X116656236Y-212535800D03*
X114116236Y-212535800D03*
X111576236Y-212535800D03*
X109036236Y-212535800D03*
X106496236Y-212535800D03*
X103956236Y-212535800D03*
X101416236Y-212535800D03*
X98876236Y-212535800D03*
X96336236Y-212535800D03*
X93796236Y-212535800D03*
X91256236Y-212535800D03*
X88716236Y-212535800D03*
X86176236Y-212535800D03*
X83636236Y-212535800D03*
X81096236Y-212535800D03*
X78558956Y-212532120D03*
X76018956Y-212532120D03*
X73478956Y-212532120D03*
X73476236Y-235395800D03*
X76016236Y-235395800D03*
X78556236Y-235395800D03*
X81096236Y-235395800D03*
X83636236Y-235395800D03*
X86176236Y-235395800D03*
X88716236Y-235395800D03*
X91256236Y-235395800D03*
X93796236Y-235395800D03*
X96336236Y-235395800D03*
X98876236Y-235395800D03*
X101416236Y-235395800D03*
X103956236Y-235395800D03*
X106496236Y-235395800D03*
X109036236Y-235395800D03*
X111576236Y-235395800D03*
X114116236Y-235395800D03*
X116656236Y-235395800D03*
X119196236Y-235395800D03*
X121736236Y-235395800D03*
X124276236Y-235395800D03*
X126816236Y-235395800D03*
D11*
X173684613Y-141963667D03*
D12*
X175376385Y-139682789D03*
D13*
X178687436Y-142845800D03*
D12*
X182070980Y-138284043D03*
D11*
X183690259Y-143727933D03*
D16*
X172241794Y-139089459D03*
X185189919Y-138793379D03*
D11*
X140930513Y-109390067D03*
D12*
X142622285Y-107109189D03*
D13*
X145933336Y-110272200D03*
D12*
X149316880Y-105710443D03*
D11*
X150936159Y-111154333D03*
D16*
X139487694Y-106515859D03*
X152435819Y-106219779D03*
D11*
X237502130Y-215808861D03*
D12*
X236842326Y-213046768D03*
D13*
X241393636Y-212543500D03*
D12*
X240074028Y-207019314D03*
D11*
X245285142Y-209278139D03*
D26*
X234372933Y-215066619D03*
X242469017Y-204957463D03*
D11*
X277550013Y-130925032D03*
D12*
X278359652Y-128203088D03*
D13*
X282552836Y-130042900D03*
D12*
X284172115Y-124599010D03*
D11*
X287555659Y-129160768D03*
D15*
X275211169Y-128717633D03*
X287277162Y-124010890D03*
D11*
X273975413Y-111154332D03*
D12*
X274785052Y-108432388D03*
D13*
X278978236Y-110272200D03*
D12*
X280597515Y-104828310D03*
D11*
X283981059Y-109390068D03*
D15*
X271636569Y-108946933D03*
X283702562Y-104240190D03*
D11*
X222236730Y-228762561D03*
D12*
X221576926Y-226000468D03*
D13*
X226128236Y-225497200D03*
D12*
X224808628Y-219973014D03*
D11*
X230019742Y-222231839D03*
D26*
X219107533Y-228020319D03*
X227203617Y-217911163D03*
D11*
X177330513Y-122240067D03*
D12*
X179022285Y-119959189D03*
D13*
X182333336Y-123122200D03*
D12*
X185716880Y-118560443D03*
D11*
X187336159Y-124004333D03*
D16*
X175887694Y-119365859D03*
X188835819Y-119069779D03*
D11*
X237575413Y-124004332D03*
D12*
X238385052Y-121282388D03*
D13*
X242578236Y-123122200D03*
D12*
X244197515Y-117678310D03*
D11*
X247581059Y-122240068D03*
D15*
X235236569Y-121796933D03*
X247302562Y-117090190D03*
D11*
X179626430Y-209278139D03*
D12*
X182231987Y-208148726D03*
D13*
X183517936Y-212543500D03*
D12*
X188729050Y-210284675D03*
D11*
X187409442Y-215808861D03*
D23*
X179814017Y-206067592D03*
X191175462Y-212285242D03*
D11*
X188930513Y-174790067D03*
D12*
X190622285Y-172509189D03*
D13*
X193933336Y-175672200D03*
D12*
X197316880Y-171110443D03*
D11*
X198936159Y-176554333D03*
D16*
X187487694Y-171915859D03*
X200435819Y-171619779D03*
D11*
X69429736Y-165840400D03*
D12*
X70699736Y-163300400D03*
D13*
X74509736Y-165840400D03*
D12*
X77049736Y-160760400D03*
D11*
X79589736Y-165840400D03*
D14*
X67509736Y-163260400D03*
X80209736Y-160720400D03*
D11*
X113408567Y-134882549D03*
D12*
X114895110Y-132462902D03*
D13*
X118469236Y-135325300D03*
D12*
X121442322Y-130486007D03*
D11*
X123529905Y-135768051D03*
D19*
X111720735Y-132145027D03*
X124593783Y-130721571D03*
D11*
X69429636Y-145840400D03*
D12*
X70699636Y-143300400D03*
D13*
X74509636Y-145840400D03*
D12*
X77049636Y-140760400D03*
D11*
X79589636Y-145840400D03*
D14*
X67509636Y-143260400D03*
X80209636Y-140720400D03*
D27*
X83034136Y-100495801D03*
X86334136Y-100495799D03*
X83034136Y-120745801D03*
X86334136Y-120745799D03*
X83034136Y-140735801D03*
X86334136Y-140735799D03*
X83034136Y-160735801D03*
X86334136Y-160735799D03*
X83034136Y-180745801D03*
X86334136Y-180745799D03*
X102874136Y-104935801D03*
X106174136Y-104935799D03*
X104364136Y-120745801D03*
X107664136Y-120745799D03*
X104334136Y-140785801D03*
X107634136Y-140785799D03*
X104316636Y-160725801D03*
X107616636Y-160725799D03*
X104336636Y-180695801D03*
X107636636Y-180695799D03*
X130036636Y-110675801D03*
X133336636Y-110675799D03*
X128256636Y-130825801D03*
X131556636Y-130825799D03*
X126884136Y-150595801D03*
X130184136Y-150595799D03*
X124116636Y-170855801D03*
X127416636Y-170855799D03*
X132576636Y-191095801D03*
X135876636Y-191095799D03*
X153666636Y-110665801D03*
X156966636Y-110665799D03*
X152146636Y-125975801D03*
X155446636Y-125975799D03*
X148484136Y-145715801D03*
X151784136Y-145715799D03*
X145226636Y-165425801D03*
X148526636Y-165425799D03*
X155674136Y-192805801D03*
X158974136Y-192805799D03*
X173066636Y-114315801D03*
X176366636Y-114315799D03*
X170616636Y-133635801D03*
X173916636Y-133635799D03*
X166756636Y-153345801D03*
X170056636Y-153345799D03*
X163216636Y-173025801D03*
X166516636Y-173025799D03*
X175646636Y-199105801D03*
X178946636Y-199105799D03*
X192344136Y-119075801D03*
X195644136Y-119075799D03*
X188074136Y-138805801D03*
X191374136Y-138805799D03*
X186744136Y-158585801D03*
X190044136Y-158585799D03*
X183146636Y-178305801D03*
X186446636Y-178305799D03*
X194704136Y-212275801D03*
X198004136Y-212275799D03*
D28*
X227144137Y-213445800D03*
X227144135Y-210145800D03*
D27*
X249324136Y-129875799D03*
X252624136Y-129875801D03*
X252714136Y-149915799D03*
X256014136Y-149915801D03*
X257114136Y-171065799D03*
X260414136Y-171065801D03*
X260016636Y-188825799D03*
X263316636Y-188825801D03*
X242536636Y-200645799D03*
X245836636Y-200645801D03*
X267436636Y-124945799D03*
X270736636Y-124945801D03*
X271234136Y-142165799D03*
X274534136Y-142165801D03*
X275346636Y-165605799D03*
X278646636Y-165605801D03*
X278966636Y-185455799D03*
X282266636Y-185455801D03*
X266454136Y-191785799D03*
X269754136Y-191785801D03*
X288476636Y-118385799D03*
X291776636Y-118385801D03*
X291894136Y-138075799D03*
X295194136Y-138075801D03*
X295304136Y-157625799D03*
X298604136Y-157625801D03*
X296314136Y-177615799D03*
X299614136Y-177615801D03*
X287464136Y-188355799D03*
X290764136Y-188355801D03*
X314676636Y-109575799D03*
X317976636Y-109575801D03*
X316626636Y-129675799D03*
X319926636Y-129675801D03*
X318346636Y-149505799D03*
X321646636Y-149505801D03*
X320014136Y-169795799D03*
X323314136Y-169795801D03*
X307716636Y-185625799D03*
X311016636Y-185625801D03*
X337574136Y-111665799D03*
X340874136Y-111665801D03*
X338706636Y-120745799D03*
X342006636Y-120745801D03*
X338826636Y-140765799D03*
X342126636Y-140765801D03*
X338766636Y-160755799D03*
X342066636Y-160755801D03*
X338694136Y-180685799D03*
X341994136Y-180685801D03*
D29*
X356574136Y-113785801D03*
X353274136Y-113785799D03*
X358594136Y-133865801D03*
X355294136Y-133865799D03*
X358524136Y-153765801D03*
X355224136Y-153765799D03*
X358564136Y-173845801D03*
X355264136Y-173845799D03*
X358624136Y-176415801D03*
X355324136Y-176415799D03*
D30*
X235724136Y-166565800D03*
X235724136Y-163265800D03*
D27*
X203714136Y-171605800D03*
X207014136Y-171605800D03*
D31*
X68174136Y-205665800D03*
X151174136Y-214365800D03*
X74324136Y-205565800D03*
D28*
X206724136Y-216955800D03*
X206724136Y-213655800D03*
M02*
