G04 #@! TF.GenerationSoftware,KiCad,Pcbnew,8.0.5*
G04 #@! TF.CreationDate,2024-12-11T09:00:06+01:00*
G04 #@! TF.ProjectId,Atreus62,41747265-7573-4363-922e-6b696361645f,rev?*
G04 #@! TF.SameCoordinates,Original*
G04 #@! TF.FileFunction,Soldermask,Bot*
G04 #@! TF.FilePolarity,Negative*
%FSLAX46Y46*%
G04 Gerber Fmt 4.6, Leading zero omitted, Abs format (unit mm)*
G04 Created by KiCad (PCBNEW 8.0.5) date 2024-12-11 09:00:06*
%MOMM*%
%LPD*%
G01*
G04 APERTURE LIST*
G04 Aperture macros list*
%AMRoundRect*
0 Rectangle with rounded corners*
0 $1 Rounding radius*
0 $2 $3 $4 $5 $6 $7 $8 $9 X,Y pos of 4 corners*
0 Add a 4 corners polygon primitive as box body*
4,1,4,$2,$3,$4,$5,$6,$7,$8,$9,$2,$3,0*
0 Add four circle primitives for the rounded corners*
1,1,$1+$1,$2,$3*
1,1,$1+$1,$4,$5*
1,1,$1+$1,$6,$7*
1,1,$1+$1,$8,$9*
0 Add four rect primitives between the rounded corners*
20,1,$1+$1,$2,$3,$4,$5,0*
20,1,$1+$1,$4,$5,$6,$7,0*
20,1,$1+$1,$6,$7,$8,$9,0*
20,1,$1+$1,$8,$9,$2,$3,0*%
%AMRotRect*
0 Rectangle, with rotation*
0 The origin of the aperture is its center*
0 $1 length*
0 $2 width*
0 $3 Rotation angle, in degrees counterclockwise*
0 Add horizontal line*
21,1,$1,$2,0,0,$3*%
G04 Aperture macros list end*
%ADD10C,4.800000*%
%ADD11C,1.800000*%
%ADD12C,3.000000*%
%ADD13C,4.000000*%
%ADD14R,2.300000X2.000000*%
%ADD15RotRect,2.300000X2.000000X190.000000*%
%ADD16RotRect,2.300000X2.000000X170.000000*%
%ADD17RotRect,2.300000X2.000000X185.000000*%
%ADD18C,2.000000*%
%ADD19RotRect,2.300000X2.000000X160.000000*%
%ADD20RotRect,2.300000X2.000000X175.000000*%
%ADD21RotRect,2.300000X2.000000X200.000000*%
%ADD22R,1.700000X1.700000*%
%ADD23O,1.700000X1.700000*%
%ADD24RotRect,2.300000X2.000000X140.000000*%
%ADD25R,2.000000X1.200000*%
%ADD26O,2.000000X1.200000*%
%ADD27RotRect,2.300000X2.000000X220.000000*%
%ADD28RoundRect,0.225000X-0.225000X-0.375000X0.225000X-0.375000X0.225000X0.375000X-0.225000X0.375000X0*%
%ADD29RoundRect,0.225000X0.375000X-0.225000X0.375000X0.225000X-0.375000X0.225000X-0.375000X-0.225000X0*%
%ADD30RoundRect,0.225000X0.225000X0.375000X-0.225000X0.375000X-0.225000X-0.375000X0.225000X-0.375000X0*%
%ADD31R,1.200000X0.900000*%
%ADD32R,2.500000X2.500000*%
G04 APERTURE END LIST*
D10*
X251884136Y-131545800D03*
D11*
X281085824Y-48232688D03*
D12*
X282355824Y-45692688D03*
D13*
X286165824Y-48232688D03*
D12*
X288705824Y-43152688D03*
D11*
X291245824Y-48232688D03*
D14*
X279165824Y-45652688D03*
X291865824Y-43112688D03*
D11*
X209809455Y-140314162D03*
D12*
X210619094Y-137592218D03*
D13*
X214812278Y-139432030D03*
D12*
X216431557Y-133988140D03*
D11*
X219815101Y-138549898D03*
D15*
X207470611Y-138106763D03*
X219536604Y-133400020D03*
D11*
X94715504Y-59815028D03*
D12*
X96407276Y-57534150D03*
D13*
X99718327Y-60697161D03*
D12*
X103101871Y-56135404D03*
D11*
X104721150Y-61579294D03*
D16*
X93272685Y-56940820D03*
X106220810Y-56644740D03*
D10*
X148334136Y-161675800D03*
D11*
X281181939Y-88490449D03*
D12*
X282451939Y-85950449D03*
D13*
X286261939Y-88490449D03*
D12*
X288801939Y-83410449D03*
D11*
X291341939Y-88490449D03*
D14*
X279261939Y-85910449D03*
X291961939Y-83370449D03*
D11*
X281181893Y-108490402D03*
D12*
X282451893Y-105950402D03*
D13*
X286261893Y-108490402D03*
D12*
X288801893Y-103410402D03*
D11*
X291341893Y-108490402D03*
D14*
X279261893Y-105910402D03*
X291961893Y-103370402D03*
D11*
X25405985Y-68498196D03*
D12*
X26675985Y-65958196D03*
D13*
X30485985Y-68498196D03*
D12*
X33025985Y-63418196D03*
D11*
X35565985Y-68498196D03*
D14*
X23485985Y-65918196D03*
X36185985Y-63378196D03*
D11*
X261065604Y-128498182D03*
D12*
X262335604Y-125958182D03*
D13*
X266145604Y-128498182D03*
D12*
X268685604Y-123418182D03*
D11*
X271225604Y-128498182D03*
D14*
X259145604Y-125918182D03*
X271845604Y-123378182D03*
D11*
X232533237Y-138897161D03*
D12*
X233803237Y-136357161D03*
D13*
X237613237Y-138897161D03*
D12*
X240153237Y-133817161D03*
D11*
X242693237Y-138897161D03*
D14*
X230613237Y-136317161D03*
X243313237Y-133777161D03*
D11*
X25406031Y-108498149D03*
D12*
X26676031Y-105958149D03*
D13*
X30486031Y-108498149D03*
D12*
X33026031Y-103418149D03*
D11*
X35566031Y-108498149D03*
D14*
X23486031Y-105918149D03*
X36186031Y-103378149D03*
D11*
X73215894Y-71810747D03*
D12*
X74907666Y-69529869D03*
D13*
X78218717Y-72692880D03*
D12*
X81602261Y-68131123D03*
D11*
X83221540Y-73575013D03*
D16*
X71773075Y-68936539D03*
X84721200Y-68640459D03*
D11*
X25405960Y-128498182D03*
D12*
X26675960Y-125958182D03*
D13*
X30485960Y-128498182D03*
D12*
X33025960Y-123418182D03*
D11*
X35565960Y-128498182D03*
D14*
X23485960Y-125918182D03*
X36185960Y-123378182D03*
D10*
X44784136Y-131545800D03*
D11*
X235427568Y-58389912D03*
D12*
X236471360Y-55748890D03*
D13*
X240488237Y-57947161D03*
D12*
X242575821Y-52665117D03*
D11*
X245548906Y-57504410D03*
D17*
X233290012Y-55987068D03*
X245720309Y-52349857D03*
D18*
X164834136Y-135390800D03*
X171334136Y-135390800D03*
X164834136Y-139890800D03*
X171334136Y-139890800D03*
D11*
X281181964Y-128490435D03*
D12*
X282451964Y-125950435D03*
D13*
X286261964Y-128490435D03*
D12*
X288801964Y-123410435D03*
D11*
X291341964Y-128490435D03*
D14*
X279261964Y-125910435D03*
X291961964Y-123370435D03*
D11*
X180571641Y-106172567D03*
D12*
X181381280Y-103450623D03*
D13*
X185574464Y-105290435D03*
D12*
X187193743Y-99846545D03*
D11*
X190577287Y-104408303D03*
D15*
X178232797Y-103965168D03*
X190298790Y-99258425D03*
D11*
X96282916Y-142869910D03*
D12*
X98345057Y-140917456D03*
D13*
X101056555Y-144607372D03*
D12*
X105180838Y-140702465D03*
D11*
X105830194Y-146344834D03*
D19*
X95361119Y-139788824D03*
X108163946Y-141745661D03*
D11*
X87690226Y-99139372D03*
D12*
X89381998Y-96858494D03*
D13*
X92693049Y-100021505D03*
D12*
X96076593Y-95459748D03*
D11*
X97695872Y-100903638D03*
D16*
X86247407Y-96265164D03*
X99195532Y-95969084D03*
D10*
X251964136Y-43315800D03*
D11*
X216882987Y-93271167D03*
D12*
X217692626Y-90549223D03*
D13*
X221885810Y-92389035D03*
D12*
X223505089Y-86945145D03*
D11*
X226888633Y-91506903D03*
D15*
X214544143Y-91063768D03*
X226610136Y-86357025D03*
D10*
X44704136Y-43315800D03*
D11*
X45467041Y-117631075D03*
D12*
X46953584Y-115211428D03*
D13*
X50527710Y-118073826D03*
D12*
X53500796Y-113234533D03*
D11*
X55588379Y-118516577D03*
D20*
X43779209Y-114893553D03*
X56652257Y-113470097D03*
D11*
X237241689Y-78418012D03*
D12*
X238285481Y-75776990D03*
D13*
X242302358Y-77975261D03*
D12*
X244389942Y-72693217D03*
D11*
X247363027Y-77532510D03*
D17*
X235104133Y-76015168D03*
X247534430Y-72377957D03*
D11*
X281181939Y-68490449D03*
D12*
X282451939Y-65950449D03*
D13*
X286261939Y-68490449D03*
D12*
X288801939Y-63410449D03*
D11*
X291341939Y-68490449D03*
D14*
X279261939Y-65910449D03*
X291961939Y-63370449D03*
D11*
X241043185Y-118516577D03*
D12*
X242086977Y-115875555D03*
D13*
X246103854Y-118073826D03*
D12*
X248191438Y-112791782D03*
D11*
X251164523Y-117631075D03*
D17*
X238905629Y-116113733D03*
X251335926Y-112476522D03*
D11*
X84217262Y-118835527D03*
D12*
X85909034Y-116554649D03*
D13*
X89220085Y-119717660D03*
D12*
X92603629Y-115155903D03*
D11*
X94222908Y-120599793D03*
D16*
X82774443Y-115961319D03*
X95722568Y-115665239D03*
D10*
X120884136Y-136905800D03*
D11*
X190801370Y-146344835D03*
D12*
X191126049Y-143523649D03*
D13*
X195575009Y-144607372D03*
D12*
X196224367Y-138965002D03*
D11*
X200348648Y-142869909D03*
D21*
X188114749Y-144577106D03*
X199180114Y-137846631D03*
D11*
X177081313Y-86377932D03*
D12*
X177890952Y-83655988D03*
D13*
X182084136Y-85495800D03*
D12*
X183703415Y-80051910D03*
D11*
X187086959Y-84613668D03*
D15*
X174742469Y-84170533D03*
X186808462Y-79463790D03*
D11*
X260969464Y-48240435D03*
D12*
X262239464Y-45700435D03*
D13*
X266049464Y-48240435D03*
D12*
X268589464Y-43160435D03*
D11*
X271129464Y-48240435D03*
D14*
X259049464Y-45660435D03*
X271749464Y-43120435D03*
D11*
X238984820Y-98341910D03*
D12*
X240028612Y-95700888D03*
D13*
X244045489Y-97899159D03*
D12*
X246133073Y-92617115D03*
D11*
X249106158Y-97456408D03*
D17*
X236847264Y-95939066D03*
X249277561Y-92301855D03*
D11*
X106054277Y-104408302D03*
D12*
X107746049Y-102127424D03*
D13*
X111057100Y-105290435D03*
D12*
X114440644Y-100728678D03*
D11*
X116059923Y-106172568D03*
D16*
X104611458Y-101534094D03*
X117559583Y-101238014D03*
D11*
X25405985Y-88498196D03*
D12*
X26675985Y-85958196D03*
D13*
X30485985Y-88498196D03*
D12*
X33025985Y-83418196D03*
D11*
X35565985Y-88498196D03*
D14*
X23485985Y-85918196D03*
X36185985Y-83378196D03*
D11*
X91163190Y-79443217D03*
D12*
X92854962Y-77162339D03*
D13*
X96166013Y-80325350D03*
D12*
X99549557Y-75763593D03*
D11*
X101168836Y-81207483D03*
D16*
X89720371Y-76569009D03*
X102668496Y-76272929D03*
D10*
X175784136Y-136905800D03*
D11*
X66269967Y-111203057D03*
D12*
X67961739Y-108922179D03*
D13*
X71272790Y-112085190D03*
D12*
X74656334Y-107523433D03*
D11*
X76275613Y-112967323D03*
D16*
X64827148Y-108328849D03*
X77775273Y-108032769D03*
D11*
X47525406Y-97456408D03*
D12*
X49011949Y-95036761D03*
D13*
X52586075Y-97899159D03*
D12*
X55559161Y-93059866D03*
D11*
X57646744Y-98341910D03*
D20*
X45837574Y-94718886D03*
X58710622Y-93295430D03*
D11*
X5289625Y-68490449D03*
D12*
X6559625Y-65950449D03*
D13*
X10369625Y-68490449D03*
D12*
X12909625Y-63410449D03*
D11*
X15449625Y-68490449D03*
D14*
X3369625Y-65910449D03*
X16069625Y-63370449D03*
D11*
X198935692Y-100903637D03*
D12*
X199745331Y-98181693D03*
D13*
X203938515Y-100021505D03*
D12*
X205557794Y-94577615D03*
D11*
X208941338Y-99139373D03*
D15*
X196596848Y-98696238D03*
X208662841Y-93989495D03*
D11*
X261065579Y-68498196D03*
D12*
X262335579Y-65958196D03*
D13*
X266145579Y-68498196D03*
D12*
X268685579Y-63418196D03*
D11*
X271225579Y-68498196D03*
D14*
X259145579Y-65918196D03*
X271845579Y-63378196D03*
D11*
X5385740Y-48232688D03*
D12*
X6655740Y-45692688D03*
D13*
X10465740Y-48232688D03*
D12*
X13005740Y-43152688D03*
D11*
X15545740Y-48232688D03*
D14*
X3465740Y-45652688D03*
X16165740Y-43112688D03*
D11*
X102581313Y-124104458D03*
D12*
X104273085Y-121823580D03*
D13*
X107584136Y-124986591D03*
D12*
X110967680Y-120424834D03*
D11*
X112586959Y-125868724D03*
D16*
X101138494Y-121230250D03*
X114086619Y-120934170D03*
D11*
X195462728Y-81207482D03*
D12*
X196272367Y-78485538D03*
D13*
X200465551Y-80325350D03*
D12*
X202084830Y-74881460D03*
D11*
X205468374Y-79443218D03*
D15*
X193123884Y-79000083D03*
X205189877Y-74293340D03*
D11*
X220355951Y-112967322D03*
D12*
X221165590Y-110245378D03*
D13*
X225358774Y-112085190D03*
D12*
X226978053Y-106641300D03*
D11*
X230361597Y-111203058D03*
D15*
X218017107Y-110759923D03*
X230083100Y-106053180D03*
D22*
X135634136Y-131315800D03*
D23*
X138174136Y-131315800D03*
X140714136Y-131315800D03*
X143254136Y-131315800D03*
X145794136Y-131315800D03*
X148334136Y-131315800D03*
X150874136Y-131315800D03*
X153414136Y-131315800D03*
X155954136Y-131315800D03*
X158494136Y-131315800D03*
X161034136Y-131315800D03*
D11*
X202408656Y-120599792D03*
D12*
X203218295Y-117877848D03*
D13*
X207411479Y-119717660D03*
D12*
X209030758Y-114273770D03*
D11*
X212414302Y-118835528D03*
D15*
X200069812Y-118392393D03*
X212135805Y-113685650D03*
D11*
X69742931Y-91506902D03*
D12*
X71434703Y-89226024D03*
D13*
X74745754Y-92389035D03*
D12*
X78129298Y-87827278D03*
D11*
X79748577Y-93271168D03*
D16*
X68300112Y-88632694D03*
X81248237Y-88336614D03*
D11*
X51082658Y-57504410D03*
D12*
X52569201Y-55084763D03*
D13*
X56143327Y-57947161D03*
D12*
X59116413Y-53107868D03*
D11*
X61203996Y-58389912D03*
D20*
X49394826Y-54766888D03*
X62267874Y-53343432D03*
D22*
X155959136Y-104715800D03*
D23*
X153419136Y-104715800D03*
X150879136Y-104715800D03*
X148339136Y-104715800D03*
X145799136Y-104715800D03*
X143259136Y-104715800D03*
X140719136Y-104715800D03*
D11*
X261065579Y-88498196D03*
D12*
X262335579Y-85958196D03*
D13*
X266145579Y-88498196D03*
D12*
X268685579Y-83418196D03*
D11*
X271225579Y-88498196D03*
D14*
X259145579Y-85918196D03*
X271845579Y-83378196D03*
D11*
X130751821Y-164881800D03*
D12*
X133357378Y-163752387D03*
D13*
X134643327Y-168147161D03*
D12*
X139854441Y-165888336D03*
D11*
X138534833Y-171412522D03*
D24*
X130939408Y-161671253D03*
X142300853Y-167888903D03*
D11*
X53938327Y-138897161D03*
D12*
X55208327Y-136357161D03*
D13*
X59018327Y-138897161D03*
D12*
X61558327Y-133817161D03*
D11*
X64098327Y-138897161D03*
D14*
X52018327Y-136317161D03*
X64718327Y-133777161D03*
D11*
X184044605Y-125868723D03*
D12*
X184854244Y-123146779D03*
D13*
X189047428Y-124986591D03*
D12*
X190666707Y-119542701D03*
D11*
X194050251Y-124104459D03*
D15*
X181705761Y-123661324D03*
X193771754Y-118954581D03*
D11*
X161835414Y-119204293D03*
D12*
X162645053Y-116482349D03*
D13*
X166838237Y-118322161D03*
D12*
X168457516Y-112878271D03*
D11*
X171841060Y-117440029D03*
D15*
X159496570Y-116996894D03*
X171562563Y-112290151D03*
D11*
X191910414Y-61579293D03*
D12*
X192720053Y-58857349D03*
D13*
X196913237Y-60697161D03*
D12*
X198532516Y-55253271D03*
D11*
X201916060Y-59815029D03*
D15*
X189571570Y-59371894D03*
X201637563Y-54665151D03*
D11*
X76816463Y-138549897D03*
D12*
X78508235Y-136269019D03*
D13*
X81819286Y-139432030D03*
D12*
X85202830Y-134870273D03*
D11*
X86822109Y-140314163D03*
D16*
X75373644Y-135675689D03*
X88321769Y-135379609D03*
D11*
X5289600Y-128490435D03*
D12*
X6559600Y-125950435D03*
D13*
X10369600Y-128490435D03*
D12*
X12909600Y-123410435D03*
D11*
X15449600Y-128490435D03*
D14*
X3369600Y-125910435D03*
X16069600Y-123370435D03*
D11*
X261065533Y-108498149D03*
D12*
X262335533Y-105958149D03*
D13*
X266145533Y-108498149D03*
D12*
X268685533Y-103418149D03*
D11*
X271225533Y-108498149D03*
D14*
X259145533Y-105918149D03*
X271845533Y-103378149D03*
D11*
X25502100Y-48240435D03*
D12*
X26772100Y-45700435D03*
D13*
X30582100Y-48240435D03*
D12*
X33122100Y-43160435D03*
D11*
X35662100Y-48240435D03*
D14*
X23582100Y-45660435D03*
X36282100Y-43120435D03*
D25*
X159764136Y-106957880D03*
D26*
X159764136Y-104417880D03*
X159764136Y-101877880D03*
X159764136Y-99337880D03*
X159764136Y-96797880D03*
X159764136Y-94257880D03*
X159764136Y-91717880D03*
X159764136Y-89177880D03*
X159764136Y-86637880D03*
X159764136Y-84097880D03*
X159764136Y-81557880D03*
X159764136Y-79017880D03*
X159764136Y-76477880D03*
X159764136Y-73937880D03*
X159764136Y-71397880D03*
X159764136Y-68857880D03*
X159764136Y-66317880D03*
X159764136Y-63777880D03*
X159764136Y-61237880D03*
X159767816Y-58700600D03*
X159767816Y-56160600D03*
X159767816Y-53620600D03*
X136904136Y-53617880D03*
X136904136Y-56157880D03*
X136904136Y-58697880D03*
X136904136Y-61237880D03*
X136904136Y-63777880D03*
X136904136Y-66317880D03*
X136904136Y-68857880D03*
X136904136Y-71397880D03*
X136904136Y-73937880D03*
X136904136Y-76477880D03*
X136904136Y-79017880D03*
X136904136Y-81557880D03*
X136904136Y-84097880D03*
X136904136Y-86637880D03*
X136904136Y-89177880D03*
X136904136Y-91717880D03*
X136904136Y-94257880D03*
X136904136Y-96797880D03*
X136904136Y-99337880D03*
X136904136Y-101877880D03*
X136904136Y-104417880D03*
X136904136Y-106957880D03*
D11*
X109544605Y-84613667D03*
D12*
X111236377Y-82332789D03*
D13*
X114547428Y-85495800D03*
D12*
X117930972Y-80934043D03*
D11*
X119550251Y-86377933D03*
D16*
X108101786Y-81739459D03*
X121049911Y-81443379D03*
D11*
X76790504Y-52040028D03*
D12*
X78482276Y-49759150D03*
D13*
X81793327Y-52922161D03*
D12*
X85176871Y-48360404D03*
D11*
X86796150Y-53804294D03*
D16*
X75347685Y-49165820D03*
X88295810Y-48869740D03*
D11*
X173362117Y-158458835D03*
D12*
X172702313Y-155696742D03*
D13*
X177253623Y-155193474D03*
D12*
X175934015Y-149669288D03*
D11*
X181145129Y-151928113D03*
D27*
X170232920Y-157716593D03*
X178329004Y-147607437D03*
D11*
X213410024Y-73575012D03*
D12*
X214219663Y-70853068D03*
D13*
X218412847Y-72692880D03*
D12*
X220032126Y-67248990D03*
D11*
X223415670Y-71810748D03*
D15*
X211071180Y-71367613D03*
X223137173Y-66660870D03*
D11*
X209835414Y-53804293D03*
D12*
X210645053Y-51082349D03*
D13*
X214838237Y-52922161D03*
D12*
X216457516Y-47478271D03*
D11*
X219841060Y-52040029D03*
D15*
X207496570Y-51596894D03*
X219562563Y-46890151D03*
D11*
X158096731Y-171412522D03*
D12*
X157436927Y-168650429D03*
D13*
X161988237Y-168147161D03*
D12*
X160668629Y-162622975D03*
D11*
X165879743Y-164881800D03*
D27*
X154967534Y-170670280D03*
X163063618Y-160561124D03*
D11*
X113190504Y-64890028D03*
D12*
X114882276Y-62609150D03*
D13*
X118193327Y-65772161D03*
D12*
X121576871Y-61210404D03*
D11*
X123196150Y-66654294D03*
D16*
X111747685Y-62015820D03*
X124695810Y-61719740D03*
D11*
X173435414Y-66654293D03*
D12*
X174245053Y-63932349D03*
D13*
X178438237Y-65772161D03*
D12*
X180057516Y-60328271D03*
D11*
X183441060Y-64890029D03*
D15*
X171096570Y-64446894D03*
X183162563Y-59740151D03*
D11*
X115486435Y-151928113D03*
D12*
X118091992Y-150798700D03*
D13*
X119377941Y-155193474D03*
D12*
X124589055Y-152934649D03*
D11*
X123269447Y-158458835D03*
D24*
X115674022Y-148717566D03*
X127035467Y-154935216D03*
D11*
X124790504Y-117440028D03*
D12*
X126482276Y-115159150D03*
D13*
X129793327Y-118322161D03*
D12*
X133176871Y-113760404D03*
D11*
X134796150Y-119204294D03*
D16*
X123347685Y-114565820D03*
X136295810Y-114269740D03*
D18*
X125534136Y-135390800D03*
X132034136Y-135390800D03*
X125534136Y-139890800D03*
X132034136Y-139890800D03*
D11*
X5289671Y-108490402D03*
D12*
X6559671Y-105950402D03*
D13*
X10369671Y-108490402D03*
D12*
X12909671Y-103410402D03*
D11*
X15449671Y-108490402D03*
D14*
X3369671Y-105910402D03*
X16069671Y-103370402D03*
D11*
X49268537Y-77532510D03*
D12*
X50755080Y-75112863D03*
D13*
X54329206Y-77975261D03*
D12*
X57302292Y-73135968D03*
D11*
X59389875Y-78418012D03*
D20*
X47580705Y-74794988D03*
X60453753Y-73371532D03*
D11*
X5289625Y-88490449D03*
D12*
X6559625Y-85950449D03*
D13*
X10369625Y-88490449D03*
D12*
X12909625Y-83410449D03*
D11*
X15449625Y-88490449D03*
D14*
X3369625Y-85910449D03*
X16069625Y-83370449D03*
D28*
X18894136Y-43145801D03*
X22194136Y-43145799D03*
X18894136Y-63395801D03*
X22194136Y-63395799D03*
X18894136Y-83385801D03*
X22194136Y-83385799D03*
X18894136Y-103385801D03*
X22194136Y-103385799D03*
X18894136Y-123395801D03*
X22194136Y-123395799D03*
X38734136Y-47585802D03*
X42034136Y-47585800D03*
X40224136Y-63395802D03*
X43524136Y-63395800D03*
X40194136Y-83435801D03*
X43494136Y-83435799D03*
X40176636Y-103375801D03*
X43476636Y-103375799D03*
X40196636Y-123345801D03*
X43496636Y-123345799D03*
X65896636Y-53325801D03*
X69196636Y-53325799D03*
X64116636Y-73475801D03*
X67416636Y-73475799D03*
X62744136Y-93245801D03*
X66044136Y-93245799D03*
X59976636Y-113505801D03*
X63276636Y-113505799D03*
X68436636Y-133745801D03*
X71736636Y-133745799D03*
X89526636Y-53315801D03*
X92826636Y-53315799D03*
X88006636Y-68625801D03*
X91306636Y-68625799D03*
X84344136Y-88365801D03*
X87644136Y-88365799D03*
X81086636Y-108075801D03*
X84386636Y-108075799D03*
X91534136Y-135455801D03*
X94834136Y-135455799D03*
X108926636Y-56965801D03*
X112226636Y-56965799D03*
X106476636Y-76285801D03*
X109776636Y-76285799D03*
X102616636Y-95995801D03*
X105916636Y-95995799D03*
X99076636Y-115675801D03*
X102376636Y-115675799D03*
X111506636Y-141755801D03*
X114806636Y-141755799D03*
X128204136Y-61725801D03*
X131504136Y-61725799D03*
X123934136Y-81455801D03*
X127234136Y-81455799D03*
X122604136Y-101235801D03*
X125904136Y-101235799D03*
X119006636Y-120955801D03*
X122306636Y-120955799D03*
X130564136Y-154925801D03*
X133864136Y-154925799D03*
D29*
X163004137Y-156095800D03*
X163004135Y-152795800D03*
D28*
X185184136Y-72525799D03*
X188484136Y-72525801D03*
X188574136Y-92565799D03*
X191874136Y-92565801D03*
X192974136Y-113715799D03*
X196274136Y-113715801D03*
X195876636Y-131475799D03*
X199176636Y-131475801D03*
X178396636Y-143295799D03*
X181696636Y-143295801D03*
X203296636Y-67595799D03*
X206596636Y-67595801D03*
X207094136Y-84815799D03*
X210394136Y-84815801D03*
X211206636Y-108255799D03*
X214506636Y-108255801D03*
X214826636Y-128105799D03*
X218126636Y-128105801D03*
X202314136Y-134435799D03*
X205614136Y-134435801D03*
X224336636Y-61035799D03*
X227636636Y-61035801D03*
X227754136Y-80725799D03*
X231054136Y-80725801D03*
X231164136Y-100275799D03*
X234464136Y-100275801D03*
X232174136Y-120265799D03*
X235474136Y-120265801D03*
X223324136Y-131005798D03*
X226624136Y-131005800D03*
X250536636Y-52225799D03*
X253836636Y-52225801D03*
X252486636Y-72325799D03*
X255786636Y-72325801D03*
X254206636Y-92155799D03*
X257506636Y-92155801D03*
X255874136Y-112445799D03*
X259174136Y-112445801D03*
X243576636Y-128275799D03*
X246876636Y-128275801D03*
X273434136Y-54315799D03*
X276734136Y-54315801D03*
X274566636Y-63395799D03*
X277866636Y-63395801D03*
X274686636Y-83415799D03*
X277986636Y-83415801D03*
X274626636Y-103405799D03*
X277926636Y-103405801D03*
X274554136Y-123335799D03*
X277854136Y-123335801D03*
D30*
X292434136Y-56435801D03*
X289134136Y-56435799D03*
X294454136Y-76515801D03*
X291154136Y-76515799D03*
X294384136Y-96415801D03*
X291084136Y-96415799D03*
X294424136Y-116495801D03*
X291124136Y-116495799D03*
X294484136Y-119065801D03*
X291184136Y-119065799D03*
D31*
X171584136Y-109215800D03*
X171584136Y-105915800D03*
D28*
X139574136Y-114255800D03*
X142874136Y-114255800D03*
D32*
X174209136Y-55590800D03*
X148809136Y-113790800D03*
X168059136Y-55690800D03*
D29*
X142584136Y-159605800D03*
X142584136Y-156305800D03*
M02*
