M48
; DRILL file {KiCad 8.0.5} date 2024-12-11T09:00:08+0100
; FORMAT={-:-/ absolute / inch / decimal}
; #@! TF.CreationDate,2024-12-11T09:00:08+01:00
; #@! TF.GenerationSoftware,Kicad,Pcbnew,8.0.5
; #@! TF.FileFunction,Plated,1,2,PTH
FMAT,2
INCH
; #@! TA.AperFunction,Plated,PTH,ViaDrill
T1C0.0157
; #@! TA.AperFunction,Plated,PTH,ComponentDrill
T2C0.0315
; #@! TA.AperFunction,Plated,PTH,ComponentDrill
T3C0.0394
; #@! TA.AperFunction,Plated,PTH,ComponentDrill
T4C0.0433
; #@! TA.AperFunction,Plated,PTH,ComponentDrill
T5C0.1260
%
G90
G05
T1
X0.0935Y-1.6298
X0.0935Y-1.9298
X0.1935Y-1.6298
X0.1935Y-2.0298
X0.1935Y-2.1298
X0.1935Y-2.2298
X0.1935Y-2.3298
X0.1935Y-2.4298
X0.1935Y-2.8298
X0.1935Y-2.9298
X0.1935Y-3.1298
X0.1935Y-3.2298
X0.1935Y-3.7298
X0.1935Y-3.8298
X0.1935Y-3.9298
X0.1935Y-4.0298
X0.1935Y-4.5298
X0.1935Y-4.6298
X0.1935Y-4.7298
X0.1935Y-4.8298
X0.1935Y-5.2298
X0.1935Y-5.3298
X0.2935Y-1.9298
X0.2935Y-2.0298
X0.2935Y-2.1298
X0.2935Y-2.2298
X0.2935Y-2.3298
X0.2935Y-2.4298
X0.2935Y-2.7298
X0.2935Y-2.8298
X0.2935Y-2.9298
X0.2935Y-3.0298
X0.2935Y-3.1298
X0.2935Y-3.2298
X0.2935Y-3.5298
X0.2935Y-3.7298
X0.2935Y-3.8298
X0.2935Y-3.9298
X0.2935Y-4.0298
X0.2935Y-4.3298
X0.2935Y-4.5298
X0.2935Y-4.6298
X0.2935Y-4.7298
X0.2935Y-4.8298
X0.2935Y-5.1298
X0.2935Y-5.2298
X0.2935Y-5.3298
X0.3935Y-1.7298
X0.3935Y-2.0298
X0.3935Y-2.1298
X0.3935Y-2.2298
X0.3935Y-2.3298
X0.3935Y-2.4298
X0.3935Y-2.5298
X0.3935Y-2.8298
X0.3935Y-2.9298
X0.3935Y-3.0298
X0.3935Y-3.1298
X0.3935Y-3.2298
X0.3935Y-3.3298
X0.3935Y-3.6298
X0.3935Y-3.7298
X0.3935Y-3.8298
X0.3935Y-3.9298
X0.3935Y-4.0298
X0.3935Y-4.1298
X0.3935Y-4.5298
X0.3935Y-4.6298
X0.3935Y-4.7298
X0.3935Y-4.8298
X0.3935Y-4.9298
X0.3935Y-5.2298
X0.3935Y-5.3298
X0.4935Y-2.0298
X0.4935Y-2.1298
X0.4935Y-2.2298
X0.4935Y-2.3298
X0.4935Y-2.8298
X0.4935Y-2.9298
X0.4935Y-3.0298
X0.4935Y-3.1298
X0.4935Y-3.6298
X0.4935Y-3.7298
X0.4935Y-3.8298
X0.4935Y-3.9298
X0.4935Y-4.5298
X0.4935Y-4.6298
X0.4935Y-4.7298
X0.4935Y-5.2298
X0.4935Y-5.3298
X0.5935Y-1.8298
X0.5935Y-2.0298
X0.5935Y-2.1298
X0.5935Y-2.2298
X0.5935Y-2.3298
X0.5935Y-2.8298
X0.5935Y-2.9298
X0.5935Y-3.0298
X0.5935Y-3.1298
X0.5935Y-3.6298
X0.5935Y-3.7298
X0.5935Y-3.8298
X0.5935Y-3.9298
X0.5935Y-4.5298
X0.5935Y-4.6298
X0.5935Y-4.7298
X0.5935Y-4.9298
X0.5935Y-5.1298
X0.5935Y-5.2298
X0.5935Y-5.3298
X0.6935Y-1.8298
X0.6935Y-1.9298
X0.6935Y-2.0298
X0.6935Y-2.1298
X0.6935Y-2.2298
X0.6935Y-2.3298
X0.6935Y-2.6298
X0.6935Y-2.7298
X0.6935Y-2.8298
X0.6935Y-2.9298
X0.6935Y-3.0298
X0.6935Y-3.1298
X0.6935Y-3.4298
X0.6935Y-3.5298
X0.6935Y-3.6298
X0.6935Y-3.7298
X0.6935Y-3.8298
X0.6935Y-3.9298
X0.6935Y-4.2298
X0.6935Y-4.3298
X0.6935Y-4.5298
X0.6935Y-4.6298
X0.6935Y-4.7298
X0.6935Y-4.9298
X0.6935Y-5.0298
X0.6935Y-5.1298
X0.6935Y-5.2298
X0.6935Y-5.3298
X0.7935Y-1.7298
X0.7935Y-1.8298
X0.7935Y-1.9298
X0.7935Y-2.0298
X0.7935Y-2.1298
X0.7935Y-2.2298
X0.7935Y-2.3298
X0.7935Y-2.4298
X0.7935Y-2.5298
X0.7935Y-2.6298
X0.7935Y-2.7298
X0.7935Y-2.8298
X0.7935Y-2.9298
X0.7935Y-3.0298
X0.7935Y-3.1298
X0.7935Y-3.2298
X0.7935Y-3.3298
X0.7935Y-3.4298
X0.7935Y-3.5298
X0.7935Y-3.6298
X0.7935Y-3.7298
X0.7935Y-3.8298
X0.7935Y-3.9298
X0.7935Y-4.0298
X0.7935Y-4.1298
X0.7935Y-4.2298
X0.7935Y-4.3298
X0.7935Y-4.5298
X0.7935Y-4.6298
X0.7935Y-4.7298
X0.7935Y-4.8298
X0.7935Y-4.9298
X0.7935Y-5.0298
X0.7935Y-5.2298
X0.7935Y-5.3298
X0.8492Y-3.0833
X0.8492Y-3.6739
X0.8492Y-4.4416
X0.8935Y-5.2298
X0.8935Y-5.3298
X0.8984Y-4.4416
X0.899Y-3.0833
X0.899Y-3.6739
X0.9935Y-2.1298
X0.9935Y-2.2298
X0.9935Y-2.3298
X0.9935Y-2.4298
X0.9935Y-2.8298
X0.9935Y-2.9298
X0.9935Y-3.0298
X0.9935Y-3.1298
X0.9935Y-3.2298
X0.9935Y-3.6298
X0.9935Y-3.7298
X0.9935Y-3.8298
X0.9935Y-3.9298
X0.9935Y-4.0298
X0.9935Y-4.5298
X0.9935Y-4.6298
X0.9935Y-4.7298
X0.9935Y-4.8298
X0.9935Y-5.2298
X0.9935Y-5.3298
X1.0935Y-2.1298
X1.0935Y-2.2298
X1.0935Y-2.3298
X1.0935Y-2.4298
X1.0935Y-2.8298
X1.0935Y-2.9298
X1.0935Y-3.0298
X1.0935Y-3.1298
X1.0935Y-3.2298
X1.0935Y-3.6298
X1.0935Y-3.7298
X1.0935Y-3.8298
X1.0935Y-3.9298
X1.0935Y-4.0298
X1.0935Y-4.3298
X1.0935Y-4.5298
X1.0935Y-4.6298
X1.0935Y-4.7298
X1.0935Y-4.8298
X1.0935Y-5.1298
X1.0935Y-5.3298
X1.1935Y-1.7298
X1.1935Y-2.1298
X1.1935Y-2.2298
X1.1935Y-2.3298
X1.1935Y-2.4298
X1.1935Y-2.5298
X1.1935Y-2.8298
X1.1935Y-2.9298
X1.1935Y-3.0298
X1.1935Y-3.1298
X1.1935Y-3.2298
X1.1935Y-3.3298
X1.1935Y-3.6298
X1.1935Y-3.7298
X1.1935Y-3.8298
X1.1935Y-3.9298
X1.1935Y-4.0298
X1.1935Y-4.1298
X1.1935Y-4.5298
X1.1935Y-4.6298
X1.1935Y-4.7298
X1.1935Y-4.8298
X1.1935Y-4.9298
X1.1935Y-5.2298
X1.2935Y-2.1298
X1.2935Y-2.2298
X1.2935Y-2.3298
X1.2935Y-2.8298
X1.2935Y-2.9298
X1.2935Y-3.0298
X1.2935Y-3.1298
X1.2935Y-3.6298
X1.2935Y-3.7298
X1.2935Y-3.8298
X1.2935Y-3.9298
X1.2935Y-4.5298
X1.2935Y-4.6298
X1.2935Y-4.7298
X1.2935Y-5.2298
X1.2935Y-5.3298
X1.3935Y-1.8298
X1.3935Y-2.1298
X1.3935Y-2.2298
X1.3935Y-2.3298
X1.3935Y-2.8298
X1.3935Y-2.9298
X1.3935Y-3.0298
X1.3935Y-3.1298
X1.3935Y-3.6298
X1.3935Y-3.7298
X1.3935Y-3.8298
X1.3935Y-3.9298
X1.3935Y-4.5298
X1.3935Y-4.6298
X1.3935Y-4.7298
X1.3935Y-4.9298
X1.3935Y-5.1298
X1.3935Y-5.2298
X1.3935Y-5.3298
X1.4935Y-1.9298
X1.4935Y-2.1298
X1.4935Y-2.2298
X1.4935Y-2.3298
X1.4935Y-2.6298
X1.4935Y-2.7298
X1.4935Y-2.8298
X1.4935Y-2.9298
X1.4935Y-3.0298
X1.4935Y-3.1298
X1.4935Y-3.4298
X1.4935Y-3.5298
X1.4935Y-3.6298
X1.4935Y-3.7298
X1.4935Y-3.8298
X1.4935Y-3.9298
X1.4935Y-4.2298
X1.4935Y-4.3298
X1.4935Y-4.5298
X1.4935Y-4.6298
X1.4935Y-4.7298
X1.4935Y-4.9298
X1.4935Y-5.0298
X1.4935Y-5.1298
X1.4935Y-5.2298
X1.4935Y-5.3298
X1.5935Y-1.6298
X1.5935Y-1.8298
X1.5935Y-1.9298
X1.5935Y-2.1298
X1.5935Y-2.2298
X1.5935Y-2.3298
X1.5935Y-2.4298
X1.5935Y-2.6298
X1.5935Y-2.7298
X1.5935Y-2.8298
X1.5935Y-2.9298
X1.5935Y-3.0298
X1.5935Y-3.1298
X1.5935Y-3.4298
X1.5935Y-3.5298
X1.5935Y-3.7298
X1.5935Y-3.8298
X1.5935Y-3.9298
X1.5935Y-4.1298
X1.5935Y-4.2298
X1.5935Y-4.4298
X1.5935Y-4.5298
X1.5935Y-4.6298
X1.5935Y-4.7298
X1.5935Y-4.9298
X1.5935Y-5.0298
X1.5935Y-5.1298
X1.5935Y-5.2298
X1.5935Y-5.3298
X1.6177Y-4.3431
X1.6669Y-4.3431
X1.6871Y-3.5656
X1.6878Y-3.0833
X1.6935Y-4.2298
X1.6935Y-4.6298
X1.6935Y-4.9298
X1.6935Y-5.0298
X1.6935Y-5.3298
X1.734Y-1.9651
X1.7363Y-3.5656
X1.737Y-3.0833
X1.77Y-1.9662
X1.7851Y-1.9118
X1.7935Y-2.0298
X1.7935Y-2.1298
X1.7935Y-2.2298
X1.7935Y-2.3298
X1.7935Y-2.4298
X1.7935Y-2.5298
X1.7935Y-2.6298
X1.7935Y-2.7298
X1.7935Y-2.8298
X1.7935Y-2.9298
X1.7935Y-3.2298
X1.7935Y-3.3298
X1.7935Y-3.4298
X1.7935Y-3.8298
X1.7935Y-3.9298
X1.7935Y-4.0298
X1.7935Y-4.1298
X1.7935Y-4.2298
X1.7935Y-4.4298
X1.7935Y-4.7298
X1.7935Y-4.8298
X1.7935Y-4.9298
X1.7935Y-5.0298
X1.7935Y-5.3298
X1.7935Y-5.4298
X1.8074Y-1.934
X1.8935Y-1.6298
X1.8935Y-1.7298
X1.8935Y-1.8298
X1.8935Y-2.2298
X1.8935Y-2.3298
X1.8935Y-2.4298
X1.8935Y-2.5298
X1.8935Y-2.6298
X1.8935Y-2.7298
X1.8935Y-2.8298
X1.8935Y-3.2298
X1.8935Y-3.3298
X1.8935Y-3.4298
X1.8935Y-3.6298
X1.8935Y-3.9298
X1.8935Y-4.0298
X1.8935Y-4.1298
X1.8935Y-4.2298
X1.8935Y-4.4298
X1.8935Y-4.7298
X1.8935Y-4.8298
X1.8935Y-4.9298
X1.8935Y-5.0298
X1.8935Y-5.1298
X1.8935Y-5.2298
X1.8935Y-5.3298
X1.8935Y-5.4298
X1.8935Y-5.5298
X1.9935Y-1.6298
X1.9935Y-1.7298
X1.9935Y-1.8298
X1.9935Y-2.0298
X1.9935Y-2.4298
X1.9935Y-2.5298
X1.9935Y-2.6298
X1.9935Y-2.7298
X1.9935Y-2.8298
X1.9935Y-3.1298
X1.9935Y-3.2298
X1.9935Y-3.3298
X1.9935Y-3.4298
X1.9935Y-3.6298
X1.9935Y-4.0298
X1.9935Y-4.1298
X1.9935Y-4.2298
X1.9935Y-4.4298
X1.9935Y-4.5298
X1.9935Y-4.8298
X1.9935Y-4.9298
X1.9935Y-5.0298
X1.9935Y-5.1298
X1.9935Y-5.2298
X1.9935Y-5.5298
X1.9935Y-5.6298
X2.0935Y-1.6298
X2.0935Y-1.7298
X2.0935Y-1.8298
X2.0935Y-2.3298
X2.0935Y-2.4298
X2.0935Y-2.5298
X2.0935Y-2.6298
X2.0935Y-2.7298
X2.0935Y-2.8298
X2.0935Y-2.9298
X2.0935Y-3.2298
X2.0935Y-3.3298
X2.0935Y-3.4298
X2.0935Y-3.6298
X2.0935Y-3.7298
X2.0935Y-4.0298
X2.0935Y-4.1298
X2.0935Y-4.2298
X2.0935Y-4.7298
X2.0935Y-4.8298
X2.0935Y-4.9298
X2.0935Y-5.0298
X2.0935Y-5.1298
X2.0935Y-5.2298
X2.0935Y-5.7298
X2.1935Y-1.6298
X2.1935Y-1.7298
X2.1935Y-1.8298
X2.1935Y-2.0298
X2.1935Y-2.1298
X2.1935Y-2.4298
X2.1935Y-2.5298
X2.1935Y-2.6298
X2.1935Y-2.7298
X2.1935Y-3.2298
X2.1935Y-3.3298
X2.1935Y-3.4298
X2.1935Y-3.8298
X2.1935Y-3.9298
X2.1935Y-4.0298
X2.1935Y-4.1298
X2.1935Y-4.2298
X2.1935Y-4.8298
X2.1935Y-4.9298
X2.1935Y-5.0298
X2.1935Y-5.1298
X2.1935Y-5.2298
X2.1935Y-5.5298
X2.1935Y-5.7298
X2.2935Y-1.6298
X2.2935Y-1.7298
X2.2935Y-1.8298
X2.2935Y-2.4298
X2.2935Y-2.5298
X2.2935Y-2.6298
X2.2935Y-2.7298
X2.2935Y-3.2298
X2.2935Y-3.3298
X2.2935Y-3.4298
X2.2935Y-4.0298
X2.2935Y-4.1298
X2.2935Y-4.2298
X2.2935Y-4.6298
X2.2935Y-4.7298
X2.2935Y-4.8298
X2.2935Y-4.9298
X2.2935Y-5.0298
X2.2935Y-5.1298
X2.2935Y-5.2298
X2.2935Y-5.3298
X2.2935Y-5.7298
X2.3935Y-1.7298
X2.3935Y-1.8298
X2.3935Y-2.2298
X2.3935Y-2.4298
X2.3935Y-2.5298
X2.3935Y-2.6298
X2.3935Y-2.7298
X2.3935Y-3.2298
X2.3935Y-3.3298
X2.3935Y-3.6298
X2.3935Y-3.7298
X2.3935Y-3.8298
X2.3935Y-3.9298
X2.3935Y-4.0298
X2.3935Y-4.1298
X2.3935Y-4.2298
X2.3935Y-4.5298
X2.3935Y-4.6298
X2.3935Y-4.7298
X2.3935Y-4.8298
X2.3935Y-4.9298
X2.3935Y-5.0298
X2.3935Y-5.1298
X2.3935Y-5.7298
X2.4634Y-4.3727
X2.4935Y-1.7298
X2.4935Y-1.8298
X2.4935Y-2.2298
X2.4935Y-2.3298
X2.4935Y-2.4298
X2.4935Y-2.5298
X2.4935Y-2.6298
X2.4935Y-2.7298
X2.4935Y-2.8298
X2.4935Y-3.0298
X2.4935Y-3.1298
X2.4935Y-3.2298
X2.4935Y-3.5298
X2.4935Y-3.7298
X2.4935Y-4.5298
X2.4935Y-4.6298
X2.4935Y-4.7298
X2.4935Y-4.8298
X2.4935Y-4.9298
X2.4935Y-5.0298
X2.4935Y-5.1298
X2.4935Y-5.7298
X2.5126Y-4.3727
X2.5935Y-1.7298
X2.5935Y-1.8298
X2.5935Y-2.0298
X2.5935Y-2.2298
X2.5935Y-2.3298
X2.5935Y-2.4298
X2.5935Y-2.5298
X2.5935Y-2.6298
X2.5935Y-2.7298
X2.5935Y-2.8298
X2.5935Y-2.9298
X2.5935Y-3.0298
X2.5935Y-3.2298
X2.5935Y-3.9298
X2.5935Y-4.0298
X2.5935Y-4.1298
X2.5935Y-4.6298
X2.5935Y-4.7298
X2.5935Y-4.8298
X2.5935Y-4.9298
X2.5935Y-5.0298
X2.5935Y-5.1298
X2.5935Y-5.4298
X2.5935Y-5.5298
X2.5935Y-5.7298
X2.6046Y-3.3421
X2.6296Y-3.1522
X2.6706Y-3.349
X2.6805Y-3.1522
X2.6935Y-1.7298
X2.6935Y-3.2298
X2.6935Y-3.7298
X2.6935Y-3.8298
X2.6935Y-3.9298
X2.6935Y-4.0298
X2.6935Y-4.1298
X2.6935Y-4.4298
X2.6935Y-4.7298
X2.6935Y-4.8298
X2.6935Y-4.9298
X2.6935Y-5.0298
X2.6935Y-5.1298
X2.6935Y-5.3298
X2.6935Y-5.4298
X2.6935Y-5.5298
X2.6935Y-5.7298
X2.7297Y-1.9111
X2.7297Y-1.9603
X2.7935Y-1.7298
X2.7935Y-2.0298
X2.7935Y-2.1298
X2.7935Y-2.2298
X2.7935Y-2.3298
X2.7935Y-2.4298
X2.7935Y-2.5298
X2.7935Y-2.6298
X2.7935Y-2.8298
X2.7935Y-2.9298
X2.7935Y-3.0298
X2.7935Y-3.2298
X2.7935Y-3.7298
X2.7935Y-3.8298
X2.7935Y-3.9298
X2.7935Y-4.0298
X2.7935Y-4.1298
X2.7935Y-4.2298
X2.7935Y-4.5298
X2.7935Y-5.3298
X2.7935Y-5.4298
X2.7935Y-5.6298
X2.7935Y-5.7298
X2.8935Y-1.7298
X2.8935Y-2.0298
X2.8935Y-2.1298
X2.8935Y-2.2298
X2.8935Y-2.3298
X2.8935Y-2.4298
X2.8935Y-2.5298
X2.8935Y-2.6298
X2.8935Y-2.9298
X2.8935Y-3.0298
X2.8935Y-3.2298
X2.8935Y-3.4298
X2.8935Y-3.8298
X2.8935Y-3.9298
X2.8935Y-4.0298
X2.8935Y-4.1298
X2.8935Y-4.5298
X2.8935Y-4.6298
X2.8935Y-4.7298
X2.8935Y-4.8298
X2.8935Y-4.9298
X2.8935Y-5.0298
X2.8935Y-5.1298
X2.8935Y-5.2298
X2.8935Y-5.6298
X2.8935Y-5.7298
X2.9935Y-1.7298
X2.9935Y-2.1298
X2.9935Y-2.2298
X2.9935Y-2.3298
X2.9935Y-2.4298
X2.9935Y-2.5298
X2.9935Y-2.6298
X2.9935Y-3.0298
X2.9935Y-3.2298
X2.9935Y-3.8298
X2.9935Y-3.9298
X2.9935Y-4.0298
X2.9935Y-4.1298
X2.9935Y-4.3298
X2.9935Y-4.5298
X2.9935Y-4.6298
X2.9935Y-4.7298
X2.9935Y-4.8298
X2.9935Y-4.9298
X2.9935Y-5.0298
X2.9935Y-5.1298
X2.9935Y-5.2298
X2.9935Y-5.7298
X3.0917Y-4.6679
X3.0935Y-1.7298
X3.0935Y-2.1298
X3.0935Y-2.2298
X3.0935Y-2.3298
X3.0935Y-2.4298
X3.0935Y-2.5298
X3.0935Y-2.6298
X3.0935Y-2.7298
X3.0935Y-3.0298
X3.0935Y-3.2298
X3.0935Y-3.8298
X3.0935Y-3.9298
X3.0935Y-4.0298
X3.0935Y-4.1298
X3.0935Y-4.4298
X3.0935Y-4.8298
X3.0935Y-4.9298
X3.0935Y-5.0298
X3.0935Y-5.1298
X3.0935Y-5.2298
X3.0935Y-5.5298
X3.1409Y-4.6679
X3.1935Y-1.9298
X3.1935Y-2.2298
X3.1935Y-2.3298
X3.1935Y-2.4298
X3.1935Y-2.5298
X3.1935Y-2.8298
X3.1935Y-2.9298
X3.1935Y-3.0298
X3.1935Y-3.2298
X3.1935Y-3.8298
X3.1935Y-3.9298
X3.1935Y-4.0298
X3.1935Y-4.1298
X3.1935Y-4.3298
X3.1935Y-4.9298
X3.1935Y-5.0298
X3.1935Y-5.1298
X3.1935Y-5.2298
X3.1935Y-5.3298
X3.1935Y-5.6298
X3.2935Y-2.2298
X3.2935Y-2.3298
X3.2935Y-2.4298
X3.2935Y-2.5298
X3.2935Y-3.0298
X3.2935Y-3.2298
X3.2935Y-3.6298
X3.2935Y-5.0298
X3.2935Y-5.1298
X3.2935Y-5.6298
X3.3935Y-2.0298
X3.3935Y-2.2298
X3.3935Y-2.3298
X3.3935Y-2.4298
X3.3935Y-2.5298
X3.3935Y-2.6298
X3.3935Y-2.8298
X3.3935Y-2.9298
X3.3935Y-3.0298
X3.3935Y-3.2298
X3.3935Y-3.4298
X3.3935Y-3.5298
X3.3935Y-4.0298
X3.3935Y-4.1298
X3.3935Y-4.2298
X3.3935Y-4.3298
X3.3935Y-4.4298
X3.3935Y-4.7298
X3.3935Y-4.8298
X3.3935Y-5.1298
X3.3935Y-5.4298
X3.3935Y-5.6298
X3.426Y-3.1522
X3.426Y-3.349
X3.4752Y-3.1522
X3.4777Y-3.349
X3.4935Y-2.2298
X3.4935Y-2.3298
X3.4935Y-2.4298
X3.4935Y-2.5298
X3.4935Y-2.6298
X3.4935Y-3.2298
X3.4935Y-4.0298
X3.4935Y-4.1298
X3.4935Y-4.2298
X3.4935Y-4.3298
X3.4935Y-4.4298
X3.4935Y-4.5298
X3.4935Y-4.8298
X3.4935Y-4.9298
X3.4935Y-5.1298
X3.4935Y-5.2298
X3.4935Y-5.4298
X3.4935Y-5.5298
X3.4935Y-5.6298
X3.5935Y-2.9298
X3.5935Y-3.3298
X3.5935Y-3.5298
X3.5935Y-3.7298
X3.5935Y-4.1298
X3.5935Y-4.2298
X3.5935Y-4.3298
X3.5935Y-4.4298
X3.5935Y-4.8298
X3.5935Y-4.9298
X3.5935Y-5.2298
X3.5935Y-5.4298
X3.5935Y-5.5298
X3.5935Y-5.9298
X3.6935Y-2.4298
X3.6935Y-2.6298
X3.6935Y-2.7298
X3.6935Y-2.8298
X3.6935Y-2.9298
X3.6935Y-3.4298
X3.6935Y-4.1298
X3.6935Y-4.2298
X3.6935Y-4.3298
X3.6935Y-4.4298
X3.6935Y-4.6298
X3.6935Y-4.8298
X3.6935Y-4.9298
X3.6935Y-5.1298
X3.6935Y-5.9298
X3.7935Y-2.4298
X3.7935Y-2.6298
X3.7935Y-2.7298
X3.7935Y-2.8298
X3.7935Y-2.9298
X3.7935Y-3.0298
X3.7935Y-3.4298
X3.7935Y-3.5298
X3.7935Y-4.1298
X3.7935Y-4.2298
X3.7935Y-4.3298
X3.7935Y-4.4298
X3.7935Y-4.7298
X3.7935Y-4.8298
X3.7935Y-4.9298
X3.7935Y-5.1298
X3.7935Y-5.2298
X3.7935Y-5.3298
X3.7935Y-5.4298
X3.7935Y-5.7298
X3.7935Y-5.9298
X3.8537Y-2.1502
X3.8695Y-2.0597
X3.8935Y-2.6298
X3.8935Y-2.7298
X3.8935Y-2.8298
X3.8935Y-3.2298
X3.8935Y-3.4298
X3.8935Y-3.5298
X3.8935Y-4.1298
X3.8935Y-4.2298
X3.8935Y-4.3298
X3.8935Y-4.4298
X3.8935Y-5.1298
X3.8935Y-5.2298
X3.8935Y-5.3298
X3.8935Y-5.4298
X3.8935Y-5.9298
X3.8935Y-6.0298
X3.895Y-5.0026
X3.9915Y-5.0006
X3.9935Y-2.6298
X3.9935Y-2.7298
X3.9935Y-2.8298
X3.9935Y-3.1298
X3.9935Y-3.3298
X3.9935Y-3.4298
X3.9935Y-3.5298
X3.9935Y-3.9298
X3.9935Y-4.0298
X3.9935Y-4.1298
X3.9935Y-4.2298
X3.9935Y-4.3298
X3.9935Y-4.4298
X3.9935Y-5.2298
X3.9935Y-5.3298
X3.9935Y-5.4298
X3.9935Y-5.5298
X3.9935Y-5.9298
X3.9935Y-6.0298
X4.0935Y-2.6298
X4.0935Y-2.7298
X4.0935Y-2.8298
X4.0935Y-2.9298
X4.0935Y-3.1298
X4.0935Y-3.2298
X4.0935Y-3.3298
X4.0935Y-3.5298
X4.0935Y-3.7298
X4.0935Y-4.1298
X4.0935Y-4.2298
X4.0935Y-4.3298
X4.0935Y-5.3298
X4.0935Y-5.4298
X4.0935Y-5.6298
X4.0935Y-5.7298
X4.0935Y-6.0298
X4.1453Y-3.3884
X4.1453Y-3.6542
X4.1935Y-2.4298
X4.1935Y-2.6298
X4.1935Y-2.7298
X4.1935Y-2.8298
X4.1935Y-2.9298
X4.1935Y-4.2298
X4.1935Y-4.3298
X4.1935Y-4.4298
X4.1935Y-4.6298
X4.1935Y-4.7298
X4.1935Y-5.4298
X4.1935Y-5.9298
X4.1935Y-6.1298
X4.1962Y-3.3884
X4.2179Y-3.6542
X4.273Y-2.355
X4.2935Y-3.7298
X4.2935Y-3.8298
X4.2935Y-3.9298
X4.2935Y-4.3298
X4.2935Y-4.5298
X4.2935Y-4.6298
X4.2935Y-5.0298
X4.2935Y-5.7298
X4.2935Y-5.9298
X4.2935Y-6.0298
X4.2935Y-6.2298
X4.3935Y-2.6298
X4.3935Y-2.7298
X4.3935Y-2.8298
X4.3935Y-2.9298
X4.3935Y-3.0298
X4.3935Y-3.4298
X4.3935Y-3.7298
X4.3935Y-3.8298
X4.3935Y-3.9298
X4.3935Y-4.0298
X4.3935Y-4.3298
X4.3935Y-4.4298
X4.3935Y-4.5298
X4.3935Y-4.6298
X4.3935Y-5.0298
X4.3935Y-5.1298
X4.3935Y-5.7298
X4.3935Y-5.9298
X4.3935Y-6.0298
X4.3935Y-6.1298
X4.399Y-2.3628
X4.4935Y-2.2298
X4.4935Y-2.3298
X4.4935Y-2.6298
X4.4935Y-2.7298
X4.4935Y-2.8298
X4.4935Y-2.9298
X4.4935Y-3.0298
X4.4935Y-3.2298
X4.4935Y-3.5298
X4.4935Y-3.8298
X4.4935Y-4.1298
X4.4935Y-4.2298
X4.4935Y-4.3298
X4.4935Y-4.4298
X4.4935Y-4.5298
X4.4935Y-4.6298
X4.4935Y-5.0298
X4.4935Y-5.1298
X4.4935Y-5.2298
X4.4935Y-5.7298
X4.4935Y-6.1298
X4.4935Y-6.2298
X4.5935Y-2.2298
X4.5935Y-2.3298
X4.5935Y-2.7298
X4.5935Y-2.8298
X4.5935Y-2.9298
X4.5935Y-3.0298
X4.5935Y-3.5298
X4.5935Y-3.6298
X4.5935Y-4.3298
X4.5935Y-4.4298
X4.5935Y-4.5298
X4.5935Y-4.6298
X4.5935Y-4.8298
X4.5935Y-4.9298
X4.5935Y-5.0298
X4.5935Y-5.1298
X4.5935Y-5.2298
X4.5935Y-5.3298
X4.5935Y-5.6298
X4.5935Y-5.7298
X4.5935Y-6.2298
X4.5935Y-6.3298
X4.6935Y-2.2298
X4.6935Y-2.3298
X4.6935Y-2.4298
X4.6935Y-2.7298
X4.6935Y-2.8298
X4.6935Y-2.9298
X4.6935Y-3.0298
X4.6935Y-3.3298
X4.6935Y-3.5298
X4.6935Y-3.6298
X4.6935Y-3.7298
X4.6935Y-4.1298
X4.6935Y-4.2298
X4.6935Y-5.0298
X4.6935Y-5.1298
X4.6935Y-5.2298
X4.6935Y-5.7298
X4.6935Y-5.8298
X4.6935Y-6.3298
X4.6935Y-6.4298
X4.7935Y-2.2298
X4.7935Y-2.5298
X4.7935Y-2.7298
X4.7935Y-2.8298
X4.7935Y-2.9298
X4.7935Y-3.0298
X4.7935Y-3.1298
X4.7935Y-3.3298
X4.7935Y-3.4298
X4.7935Y-3.5298
X4.7935Y-3.6298
X4.7935Y-3.7298
X4.7935Y-3.8298
X4.7935Y-4.1298
X4.7935Y-4.4298
X4.7935Y-5.1298
X4.7935Y-5.2298
X4.7935Y-5.5298
X4.7935Y-5.7298
X4.7935Y-5.8298
X4.7935Y-5.9298
X4.7935Y-6.4298
X4.7935Y-6.5298
X4.8852Y-3.8805
X4.8852Y-3.9199
X4.8935Y-2.2298
X4.8935Y-2.3298
X4.8935Y-2.5298
X4.8935Y-2.7298
X4.8935Y-2.8298
X4.8935Y-2.9298
X4.8935Y-3.0298
X4.8935Y-3.1298
X4.8935Y-3.3298
X4.8935Y-3.4298
X4.8935Y-3.5298
X4.8935Y-3.6298
X4.8935Y-3.7298
X4.8935Y-4.3298
X4.8935Y-4.7298
X4.8935Y-4.8298
X4.8935Y-4.9298
X4.8935Y-5.0298
X4.8935Y-5.2298
X4.8935Y-5.4298
X4.8935Y-5.7298
X4.8935Y-5.8298
X4.8935Y-5.9298
X4.8935Y-6.1298
X4.8935Y-6.3298
X4.8935Y-6.5298
X4.8935Y-6.6298
X4.9165Y-3.8559
X4.9836Y-3.9199
X4.9935Y-2.2298
X4.9935Y-2.3298
X4.9935Y-4.2298
X4.9935Y-4.3298
X4.9935Y-4.6298
X4.9935Y-4.7298
X4.9935Y-4.8298
X4.9935Y-4.9298
X4.9935Y-5.0298
X4.9935Y-5.1298
X4.9935Y-5.4298
X4.9935Y-5.7298
X4.9935Y-5.8298
X4.9935Y-5.9298
X4.9935Y-6.2298
X4.9935Y-6.3298
X4.9935Y-6.4298
X4.9935Y-6.6298
X4.9935Y-6.7298
X4.9974Y-3.8496
X4.9974Y-3.8811
X5.0935Y-2.2298
X5.0935Y-2.3298
X5.0935Y-3.5298
X5.0935Y-3.6298
X5.0935Y-3.7298
X5.0935Y-3.8298
X5.0935Y-4.3298
X5.0935Y-4.5298
X5.0935Y-4.8298
X5.0935Y-4.9298
X5.0935Y-5.0298
X5.0935Y-6.0298
X5.0935Y-6.2298
X5.0935Y-6.4298
X5.0935Y-6.7298
X5.0935Y-6.8298
X5.1935Y-2.3298
X5.1935Y-2.6298
X5.1935Y-2.7298
X5.1935Y-2.8298
X5.1935Y-2.9298
X5.1935Y-3.0298
X5.1935Y-3.2298
X5.1935Y-3.3298
X5.1935Y-3.4298
X5.1935Y-3.5298
X5.1935Y-3.6298
X5.1935Y-3.7298
X5.1935Y-3.8298
X5.1935Y-3.9298
X5.1935Y-4.0298
X5.1935Y-4.1298
X5.1935Y-4.8298
X5.1935Y-4.9298
X5.1935Y-5.4298
X5.1935Y-5.6298
X5.1935Y-5.7298
X5.1935Y-6.8298
X5.2935Y-2.1298
X5.2935Y-3.3298
X5.2935Y-3.4298
X5.2935Y-4.8298
X5.2935Y-5.4298
X5.2935Y-5.5298
X5.2935Y-5.6298
X5.2935Y-5.7298
X5.2935Y-5.8298
X5.2935Y-6.3298
X5.2935Y-7.0298
X5.3935Y-4.6298
X5.3935Y-4.7298
X5.3935Y-5.3298
X5.3935Y-5.5298
X5.3935Y-5.6298
X5.3935Y-5.7298
X5.3935Y-5.8298
X5.3935Y-5.9298
X5.3935Y-6.3298
X5.3935Y-6.4298
X5.3935Y-6.5298
X5.3935Y-7.0298
X5.4935Y-2.1298
X5.4935Y-2.3298
X5.4935Y-2.4298
X5.4935Y-2.5298
X5.4935Y-2.6298
X5.4935Y-2.7298
X5.4935Y-2.8298
X5.4935Y-2.9298
X5.4935Y-3.1298
X5.4935Y-3.2298
X5.4935Y-3.3298
X5.4935Y-3.4298
X5.4935Y-3.5298
X5.4935Y-4.2298
X5.4935Y-4.9298
X5.4935Y-5.3298
X5.4935Y-5.4298
X5.4935Y-5.6298
X5.4935Y-5.7298
X5.4935Y-5.8298
X5.4935Y-5.9298
X5.4935Y-6.0298
X5.4935Y-6.3298
X5.4935Y-6.4298
X5.4935Y-6.6298
X5.5935Y-2.1298
X5.5935Y-2.3298
X5.5935Y-2.4298
X5.5935Y-2.5298
X5.5935Y-2.6298
X5.5935Y-2.7298
X5.5935Y-2.8298
X5.5935Y-2.9298
X5.5935Y-3.0298
X5.5935Y-3.2298
X5.5935Y-3.3298
X5.5935Y-3.4298
X5.5935Y-3.5298
X5.5935Y-3.6298
X5.5935Y-4.8298
X5.5935Y-5.3298
X5.5935Y-5.4298
X5.5935Y-5.6298
X5.5935Y-5.7298
X5.5935Y-5.8298
X5.5935Y-5.9298
X5.5935Y-6.0298
X5.6431Y-4.289
X5.6431Y-4.354
X5.6493Y-4.3849
X5.6849Y-4.3909
X5.6935Y-2.1298
X5.6935Y-2.3298
X5.6935Y-2.4298
X5.6935Y-2.5298
X5.6935Y-2.6298
X5.6935Y-2.7298
X5.6935Y-2.8298
X5.6935Y-2.9298
X5.6935Y-3.0298
X5.6935Y-3.1298
X5.6935Y-3.3298
X5.6935Y-3.4298
X5.6935Y-3.5298
X5.6935Y-3.6298
X5.6935Y-3.7298
X5.6935Y-4.7298
X5.6935Y-5.0298
X5.6935Y-5.3298
X5.6935Y-5.4298
X5.6935Y-5.6298
X5.6935Y-5.7298
X5.6935Y-5.8298
X5.6935Y-5.9298
X5.6935Y-6.0298
X5.6935Y-6.5298
X5.7021Y-4.2575
X5.7369Y-4.2575
X5.7935Y-2.1298
X5.7935Y-2.3298
X5.7935Y-2.4298
X5.7935Y-2.5298
X5.7935Y-2.6298
X5.7935Y-2.7298
X5.7935Y-2.8298
X5.7935Y-2.9298
X5.7935Y-3.0298
X5.7935Y-3.1298
X5.7935Y-3.2298
X5.7935Y-3.4298
X5.7935Y-3.5298
X5.7935Y-3.6298
X5.7935Y-3.7298
X5.7935Y-3.8298
X5.7935Y-4.6298
X5.7935Y-5.0298
X5.7935Y-5.3298
X5.7935Y-5.4298
X5.7935Y-5.6298
X5.7935Y-5.7298
X5.7935Y-5.8298
X5.7935Y-5.9298
X5.7935Y-6.0298
X5.8935Y-2.1298
X5.8935Y-2.3298
X5.8935Y-2.4298
X5.8935Y-2.5298
X5.8935Y-2.6298
X5.8935Y-2.7298
X5.8935Y-2.8298
X5.8935Y-2.9298
X5.8935Y-3.0298
X5.8935Y-3.1298
X5.8935Y-3.2298
X5.8935Y-3.3298
X5.8935Y-3.5298
X5.8935Y-3.6298
X5.8935Y-3.7298
X5.8935Y-3.8298
X5.8935Y-3.9298
X5.8935Y-4.9298
X5.8935Y-5.0298
X5.8935Y-5.3298
X5.8935Y-5.4298
X5.8935Y-5.6298
X5.8935Y-5.7298
X5.8935Y-5.8298
X5.8935Y-5.9298
X5.8935Y-6.0298
X5.9935Y-2.1298
X5.9935Y-2.4298
X5.9935Y-2.5298
X5.9935Y-2.6298
X5.9935Y-2.7298
X5.9935Y-2.8298
X5.9935Y-2.9298
X5.9935Y-3.0298
X5.9935Y-3.1298
X5.9935Y-3.2298
X5.9935Y-3.3298
X5.9935Y-3.4298
X5.9935Y-4.8298
X5.9935Y-4.9298
X5.9935Y-5.0298
X5.9935Y-5.3298
X5.9935Y-5.4298
X5.9935Y-5.6298
X5.9935Y-5.7298
X5.9935Y-5.8298
X5.9935Y-5.9298
X5.9935Y-6.0298
X5.9935Y-6.3298
X5.9935Y-6.4298
X6.0935Y-2.1298
X6.0935Y-2.2298
X6.0935Y-2.4298
X6.0935Y-2.5298
X6.0935Y-2.6298
X6.0935Y-2.7298
X6.0935Y-2.8298
X6.0935Y-2.9298
X6.0935Y-3.0298
X6.0935Y-3.1298
X6.0935Y-3.2298
X6.0935Y-3.3298
X6.0935Y-3.4298
X6.0935Y-3.5298
X6.0935Y-3.6298
X6.0935Y-3.7298
X6.0935Y-3.8298
X6.0935Y-3.9298
X6.0935Y-4.2298
X6.0935Y-4.7298
X6.0935Y-4.8298
X6.0935Y-4.9298
X6.0935Y-5.0298
X6.0935Y-5.3298
X6.0935Y-5.4298
X6.0935Y-5.6298
X6.0935Y-5.7298
X6.0935Y-5.8298
X6.0935Y-5.9298
X6.0935Y-6.0298
X6.0935Y-6.2298
X6.0935Y-6.4298
X6.0935Y-6.5298
X6.1034Y-4.4727
X6.1224Y-4.4544
X6.1441Y-4.4327
X6.1647Y-4.412
X6.1935Y-2.1298
X6.1935Y-2.2298
X6.1935Y-3.0298
X6.1935Y-3.1298
X6.1935Y-3.2298
X6.1935Y-3.3298
X6.1935Y-3.4298
X6.1935Y-3.5298
X6.1935Y-3.6298
X6.1935Y-3.7298
X6.1935Y-3.8298
X6.1935Y-3.9298
X6.1935Y-4.2298
X6.1935Y-4.7298
X6.1935Y-4.8298
X6.1935Y-4.9298
X6.1935Y-5.0298
X6.1935Y-5.3298
X6.1935Y-5.4298
X6.1935Y-5.6298
X6.1935Y-5.7298
X6.1935Y-5.8298
X6.1935Y-5.9298
X6.1935Y-6.0298
X6.1935Y-6.2298
X6.1935Y-6.3298
X6.1935Y-6.5298
X6.1935Y-6.9298
X6.2935Y-5.3298
X6.2935Y-5.4298
X6.2935Y-5.6298
X6.2935Y-5.7298
X6.2935Y-5.8298
X6.2935Y-5.9298
X6.2935Y-6.1298
X6.2935Y-6.2298
X6.2935Y-6.7298
X6.2935Y-6.9298
X6.2935Y-7.0298
X6.3935Y-2.1298
X6.3935Y-3.0298
X6.3935Y-3.6298
X6.3935Y-4.8298
X6.3935Y-4.9298
X6.3935Y-5.0298
X6.3935Y-5.2298
X6.3935Y-5.3298
X6.3935Y-5.4298
X6.3935Y-5.6298
X6.3935Y-5.7298
X6.3935Y-5.8298
X6.3935Y-5.9298
X6.3935Y-6.9298
X6.3935Y-7.0298
X6.4935Y-2.1298
X6.4935Y-2.4298
X6.4935Y-3.0298
X6.4935Y-4.4298
X6.4935Y-4.5298
X6.4935Y-4.8298
X6.4935Y-4.9298
X6.4935Y-5.0298
X6.4935Y-5.1298
X6.4935Y-5.2298
X6.4935Y-5.4298
X6.4935Y-5.6298
X6.4935Y-5.7298
X6.4935Y-5.8298
X6.4935Y-5.9298
X6.4935Y-6.1298
X6.4935Y-6.2298
X6.4935Y-6.7298
X6.4935Y-6.9298
X6.5935Y-2.5298
X6.5935Y-3.0298
X6.5935Y-3.1298
X6.5935Y-3.2298
X6.5935Y-3.3298
X6.5935Y-3.4298
X6.5935Y-3.5298
X6.5935Y-3.6298
X6.5935Y-3.7298
X6.5935Y-3.8298
X6.5935Y-3.9298
X6.5935Y-4.0298
X6.5935Y-4.3298
X6.5935Y-4.8298
X6.5935Y-4.9298
X6.5935Y-5.0298
X6.5935Y-5.1298
X6.5935Y-5.2298
X6.5935Y-5.3298
X6.5935Y-5.4298
X6.5935Y-5.6298
X6.5935Y-5.7298
X6.5935Y-5.8298
X6.5935Y-5.9298
X6.5935Y-6.0298
X6.5935Y-6.1298
X6.5935Y-6.2298
X6.5935Y-6.4298
X6.5935Y-6.6298
X6.5935Y-6.7298
X6.6382Y-4.1099
X6.6935Y-2.3298
X6.6935Y-2.6298
X6.6935Y-3.0298
X6.6935Y-3.1298
X6.6935Y-3.2298
X6.6935Y-3.3298
X6.6935Y-3.4298
X6.6935Y-3.5298
X6.6935Y-3.6298
X6.6935Y-4.2298
X6.6935Y-4.3298
X6.6935Y-4.5298
X6.6935Y-4.6298
X6.6935Y-4.7298
X6.6935Y-4.8298
X6.6935Y-4.9298
X6.6935Y-5.0298
X6.6935Y-5.1298
X6.6935Y-5.2298
X6.6935Y-5.4298
X6.6935Y-5.6298
X6.6935Y-5.7298
X6.6935Y-5.8298
X6.6935Y-5.9298
X6.6935Y-6.0298
X6.6935Y-6.5298
X6.6935Y-6.6298
X6.6935Y-6.7298
X6.7484Y-4.1167
X6.7935Y-2.3298
X6.7935Y-2.7298
X6.7935Y-3.8298
X6.7935Y-3.9298
X6.7935Y-4.0298
X6.7935Y-4.5298
X6.7935Y-4.8298
X6.7935Y-4.9298
X6.7935Y-5.0298
X6.7935Y-5.1298
X6.7935Y-5.2298
X6.7935Y-5.4298
X6.7935Y-5.6298
X6.7935Y-5.7298
X6.7935Y-5.8298
X6.7935Y-5.9298
X6.7935Y-6.0298
X6.7935Y-6.3298
X6.7935Y-6.4298
X6.7935Y-6.5298
X6.7935Y-6.6298
X6.8935Y-2.3298
X6.8935Y-2.7298
X6.8935Y-2.8298
X6.8935Y-3.7298
X6.8935Y-3.8298
X6.8935Y-3.9298
X6.8935Y-4.0298
X6.8935Y-4.2298
X6.8935Y-4.8298
X6.8935Y-4.9298
X6.8935Y-5.0298
X6.8935Y-5.1298
X6.8935Y-5.2298
X6.8935Y-5.5298
X6.8935Y-5.6298
X6.8935Y-5.7298
X6.8935Y-6.2298
X6.8935Y-6.3298
X6.8935Y-6.4298
X6.8935Y-6.5298
X6.9935Y-2.1298
X6.9935Y-2.2298
X6.9935Y-2.4298
X6.9935Y-2.7298
X6.9935Y-2.8298
X6.9935Y-3.1298
X6.9935Y-3.5298
X6.9935Y-3.6298
X6.9935Y-3.7298
X6.9935Y-3.8298
X6.9935Y-4.3298
X6.9935Y-4.4298
X6.9935Y-4.5298
X6.9935Y-4.6298
X6.9935Y-4.7298
X6.9935Y-4.8298
X6.9935Y-4.9298
X6.9935Y-5.0298
X6.9935Y-5.1298
X6.9935Y-5.2298
X6.9935Y-5.5298
X6.9935Y-6.2298
X6.9935Y-6.3298
X6.9935Y-6.4298
X7.0935Y-2.1298
X7.0935Y-2.2298
X7.0935Y-2.7298
X7.0935Y-2.8298
X7.0935Y-3.1298
X7.0935Y-3.2298
X7.0935Y-3.5298
X7.0935Y-3.6298
X7.0935Y-3.7298
X7.0935Y-4.4298
X7.0935Y-4.5298
X7.0935Y-4.6298
X7.0935Y-4.7298
X7.0935Y-5.0298
X7.0935Y-5.1298
X7.0935Y-5.2298
X7.0935Y-5.3298
X7.0935Y-5.4298
X7.0935Y-5.5298
X7.0935Y-5.6298
X7.0935Y-5.7298
X7.0935Y-6.1298
X7.0935Y-6.2298
X7.0935Y-6.3298
X7.1935Y-2.1298
X7.1935Y-2.2298
X7.1935Y-2.6298
X7.1935Y-2.7298
X7.1935Y-2.8298
X7.1935Y-3.5298
X7.1935Y-3.6298
X7.1935Y-3.7298
X7.1935Y-3.9298
X7.1935Y-4.2298
X7.1935Y-4.3298
X7.1935Y-4.5298
X7.1935Y-5.0298
X7.1935Y-5.1298
X7.1935Y-5.2298
X7.1935Y-5.3298
X7.1935Y-5.4298
X7.1935Y-5.5298
X7.1935Y-5.7298
X7.1935Y-5.8298
X7.1935Y-5.9298
X7.1935Y-6.1298
X7.2935Y-2.1298
X7.2935Y-2.2298
X7.2935Y-2.3298
X7.2935Y-3.3298
X7.2935Y-3.4298
X7.2935Y-3.5298
X7.2935Y-3.6298
X7.2935Y-3.7298
X7.2935Y-4.0298
X7.2935Y-4.3298
X7.2935Y-4.4298
X7.2935Y-4.7298
X7.2935Y-5.0298
X7.2935Y-5.1298
X7.2935Y-5.2298
X7.2935Y-5.3298
X7.2935Y-5.4298
X7.2935Y-5.6298
X7.2935Y-5.7298
X7.2935Y-5.8298
X7.2935Y-6.0298
X7.3458Y-3.0341
X7.3557Y-5.9967
X7.3813Y-2.9438
X7.3813Y-2.9753
X7.3813Y-3.0087
X7.3935Y-2.1298
X7.3935Y-2.2298
X7.3935Y-2.4298
X7.3935Y-2.5298
X7.3935Y-2.6298
X7.3935Y-3.7298
X7.3935Y-4.0298
X7.3935Y-4.3298
X7.3935Y-4.4298
X7.3935Y-4.5298
X7.3935Y-4.6298
X7.3935Y-4.7298
X7.3935Y-5.0298
X7.3935Y-5.1298
X7.3935Y-5.2298
X7.3935Y-5.3298
X7.3935Y-5.5298
X7.4147Y-3.0636
X7.4147Y-6.0557
X7.4443Y-2.9455
X7.4443Y-2.977
X7.4884Y-3.0234
X7.4935Y-2.1298
X7.4935Y-2.2298
X7.4935Y-2.5298
X7.4935Y-2.6298
X7.4935Y-2.8298
X7.4935Y-3.4298
X7.4935Y-3.6298
X7.4935Y-3.7298
X7.4935Y-4.0298
X7.4935Y-4.2298
X7.4935Y-4.3298
X7.4935Y-4.4298
X7.4935Y-4.5298
X7.4935Y-5.0298
X7.4935Y-5.1298
X7.4935Y-5.2298
X7.4935Y-5.4298
X7.4935Y-5.5298
X7.4935Y-5.8298
X7.4935Y-6.1298
X7.5305Y-3.8018
X7.5777Y-3.8018
X7.5935Y-2.1298
X7.5935Y-2.5298
X7.5935Y-2.6298
X7.5935Y-3.2298
X7.5935Y-3.3298
X7.5935Y-3.5298
X7.5935Y-3.7298
X7.5935Y-5.0298
X7.5935Y-5.1298
X7.5935Y-5.3298
X7.5935Y-5.4298
X7.5935Y-5.5298
X7.5935Y-5.8298
X7.5935Y-6.0298
X7.6935Y-2.2298
X7.6935Y-2.5298
X7.6935Y-2.6298
X7.6935Y-2.8298
X7.6935Y-3.3298
X7.6935Y-3.4298
X7.6935Y-3.6298
X7.6935Y-3.7298
X7.6935Y-5.3298
X7.6935Y-5.8298
X7.6935Y-6.0298
X7.7037Y-4.5794
X7.751Y-4.5794
X7.7935Y-2.5298
X7.7935Y-2.6298
X7.7935Y-2.9298
X7.7935Y-3.3298
X7.7935Y-3.4298
X7.7935Y-4.1298
X7.7935Y-4.2298
X7.7935Y-4.3298
X7.7935Y-4.4298
X7.7935Y-4.8298
X7.7935Y-4.9298
X7.7935Y-5.0298
X7.7935Y-5.3298
X7.7935Y-5.8298
X7.7935Y-6.0298
X7.8935Y-2.4298
X7.8935Y-2.5298
X7.8935Y-2.6298
X7.8935Y-2.8298
X7.8935Y-3.3298
X7.8935Y-3.4298
X7.8935Y-3.7298
X7.8935Y-4.0298
X7.8935Y-4.1298
X7.8935Y-4.2298
X7.8935Y-4.3298
X7.8935Y-4.8298
X7.8935Y-4.9298
X7.8935Y-5.0298
X7.8935Y-5.1298
X7.8935Y-5.2298
X7.8935Y-5.5298
X7.8935Y-5.7298
X7.8935Y-5.9298
X7.9935Y-2.8298
X7.9935Y-3.3298
X7.9935Y-3.4298
X7.9935Y-3.6298
X7.9935Y-3.7298
X7.9935Y-4.1298
X7.9935Y-4.2298
X7.9935Y-4.5298
X7.9935Y-4.8298
X7.9935Y-4.9298
X7.9935Y-5.0298
X7.9935Y-5.1298
X7.9935Y-5.2298
X7.9935Y-5.4298
X7.9935Y-5.5298
X7.9935Y-5.6298
X7.9935Y-5.8298
X7.9935Y-5.9298
X8.0935Y-1.8298
X8.0935Y-1.9298
X8.0935Y-2.1298
X8.0935Y-2.2298
X8.0935Y-2.3298
X8.0935Y-2.4298
X8.0935Y-2.8298
X8.0935Y-3.0298
X8.0935Y-3.2298
X8.0935Y-3.3298
X8.0935Y-3.4298
X8.0935Y-3.6298
X8.0935Y-3.8298
X8.0935Y-4.1298
X8.0935Y-4.2298
X8.0935Y-4.4298
X8.0935Y-4.5298
X8.0935Y-4.8298
X8.0935Y-4.9298
X8.0935Y-5.0298
X8.0935Y-5.1298
X8.0935Y-5.2298
X8.0935Y-5.5298
X8.0935Y-5.7298
X8.0935Y-5.8298
X8.1935Y-1.8298
X8.1935Y-1.9298
X8.1935Y-2.1298
X8.1935Y-2.2298
X8.1935Y-2.3298
X8.1935Y-2.5298
X8.1935Y-2.6298
X8.1935Y-2.7298
X8.1935Y-2.8298
X8.1935Y-3.0298
X8.1935Y-3.1298
X8.1935Y-3.2298
X8.1935Y-3.4298
X8.1935Y-3.8298
X8.1935Y-4.0298
X8.1935Y-4.1298
X8.1935Y-4.2298
X8.1935Y-4.8298
X8.1935Y-4.9298
X8.1935Y-5.0298
X8.1935Y-5.1298
X8.1935Y-5.3298
X8.1935Y-5.7298
X8.2513Y-3.5361
X8.2596Y-3.4967
X8.2596Y-3.5754
X8.2935Y-1.8298
X8.2935Y-2.2298
X8.2935Y-2.3298
X8.2935Y-2.5298
X8.2935Y-4.6298
X8.2935Y-4.7298
X8.2935Y-4.8298
X8.2935Y-4.9298
X8.2935Y-5.0298
X8.2935Y-5.8298
X8.3069Y-3.5754
X8.3104Y-3.4967
X8.3104Y-3.5361
X8.3935Y-1.9298
X8.3935Y-2.2298
X8.3935Y-2.3298
X8.3935Y-2.5298
X8.3935Y-2.6298
X8.3935Y-3.0298
X8.3935Y-3.1298
X8.3935Y-3.2298
X8.3935Y-3.3298
X8.3935Y-3.8298
X8.3935Y-3.9298
X8.3935Y-4.0298
X8.3935Y-4.1298
X8.3935Y-4.2298
X8.3935Y-4.8298
X8.3935Y-4.9298
X8.3935Y-5.0298
X8.3935Y-5.2298
X8.3935Y-5.3298
X8.3935Y-5.7298
X8.3935Y-5.8298
X8.4215Y-4.353
X8.4688Y-4.353
X8.4935Y-2.2298
X8.4935Y-2.3298
X8.4935Y-2.5298
X8.4935Y-2.6298
X8.4935Y-2.9298
X8.4935Y-3.0298
X8.4935Y-3.1298
X8.4935Y-3.2298
X8.4935Y-3.8298
X8.4935Y-3.9298
X8.4935Y-4.0298
X8.4935Y-4.1298
X8.4935Y-4.5298
X8.4935Y-5.7298
X8.4935Y-5.8298
X8.5935Y-2.1298
X8.5935Y-2.2298
X8.5935Y-2.3298
X8.5935Y-2.5298
X8.5935Y-2.7298
X8.5935Y-3.0298
X8.5935Y-3.1298
X8.5935Y-3.2298
X8.5935Y-3.8298
X8.5935Y-3.9298
X8.5935Y-4.0298
X8.5935Y-4.1298
X8.5935Y-5.5298
X8.5935Y-5.7298
X8.5935Y-5.8298
X8.6935Y-2.1298
X8.6935Y-2.2298
X8.6935Y-2.3298
X8.6935Y-2.5298
X8.6935Y-3.0298
X8.6935Y-3.1298
X8.6935Y-3.2298
X8.6935Y-3.4298
X8.6935Y-3.8298
X8.6935Y-3.9298
X8.6935Y-4.0298
X8.6935Y-4.2298
X8.6935Y-4.5298
X8.6935Y-4.6298
X8.6935Y-4.7298
X8.6935Y-4.8298
X8.6935Y-4.9298
X8.6935Y-5.0298
X8.6935Y-5.3298
X8.6935Y-5.5298
X8.6935Y-5.7298
X8.7935Y-1.8298
X8.7935Y-2.1298
X8.7935Y-2.2298
X8.7935Y-2.3298
X8.7935Y-2.5298
X8.7935Y-2.7298
X8.7935Y-2.9298
X8.7935Y-3.0298
X8.7935Y-3.1298
X8.7935Y-3.2298
X8.7935Y-3.8298
X8.7935Y-3.9298
X8.7935Y-4.1298
X8.7935Y-4.2298
X8.7935Y-4.5298
X8.7935Y-4.6298
X8.7935Y-4.7298
X8.7935Y-4.8298
X8.7935Y-4.9298
X8.7935Y-5.0298
X8.7935Y-5.2298
X8.7935Y-5.3298
X8.7935Y-5.4298
X8.7935Y-5.5298
X8.7935Y-5.7298
X8.8935Y-1.8298
X8.8935Y-1.9298
X8.8935Y-2.0298
X8.8935Y-2.1298
X8.8935Y-2.2298
X8.8935Y-2.8298
X8.8935Y-3.0298
X8.8935Y-3.1298
X8.8935Y-3.2298
X8.8935Y-3.7298
X8.8935Y-3.8298
X8.8935Y-3.9298
X8.8935Y-4.5298
X8.8935Y-4.6298
X8.8935Y-4.7298
X8.8935Y-4.8298
X8.8935Y-4.9298
X8.8935Y-5.0298
X8.8935Y-5.2298
X8.8935Y-5.3298
X8.8935Y-5.4298
X8.8935Y-5.7298
X8.9305Y-2.916
X8.9935Y-1.7298
X8.9935Y-1.9298
X8.9935Y-2.0298
X8.9935Y-2.1298
X8.9935Y-2.2298
X8.9935Y-2.5298
X8.9935Y-2.6298
X8.9935Y-2.7298
X8.9935Y-3.7298
X8.9935Y-3.8298
X8.9935Y-3.9298
X8.9935Y-4.3298
X8.9935Y-4.4298
X8.9935Y-4.5298
X8.9935Y-4.6298
X8.9935Y-4.7298
X8.9935Y-4.8298
X8.9935Y-4.9298
X8.9935Y-5.0298
X8.9935Y-5.2298
X8.9935Y-5.3298
X8.9935Y-5.7298
X9.0191Y-2.916
X9.0763Y-3.3206
X9.0773Y-3.6345
X9.0935Y-1.7298
X9.0935Y-1.8298
X9.0935Y-2.0298
X9.0935Y-2.1298
X9.0935Y-2.2298
X9.0935Y-2.4298
X9.0935Y-2.5298
X9.0935Y-2.6298
X9.0935Y-2.7298
X9.0935Y-2.8298
X9.0935Y-3.0298
X9.0935Y-4.5298
X9.0935Y-4.6298
X9.0935Y-4.8298
X9.0935Y-4.9298
X9.0935Y-5.2298
X9.0935Y-5.5298
X9.0935Y-5.7298
X9.1386Y-3.3188
X9.1411Y-3.6345
X9.1935Y-1.7298
X9.1935Y-1.8298
X9.1935Y-1.9298
X9.1935Y-2.4298
X9.1935Y-2.5298
X9.1935Y-2.6298
X9.1935Y-2.7298
X9.1935Y-2.8298
X9.1935Y-3.1298
X9.1935Y-3.2298
X9.1935Y-3.4298
X9.1935Y-3.5298
X9.1935Y-3.7298
X9.1935Y-4.0298
X9.1935Y-4.3298
X9.1935Y-4.5298
X9.1935Y-4.6298
X9.1935Y-4.7298
X9.1935Y-4.8298
X9.1935Y-5.1298
X9.1935Y-5.2298
X9.1935Y-5.7298
X9.247Y-4.4337
X9.2935Y-1.7298
X9.2935Y-1.8298
X9.2935Y-2.0298
X9.2935Y-2.4298
X9.2935Y-2.5298
X9.2935Y-2.6298
X9.2935Y-2.7298
X9.2935Y-3.2298
X9.2935Y-3.4298
X9.2935Y-3.5298
X9.2935Y-3.9298
X9.2935Y-4.0298
X9.2935Y-5.0298
X9.2935Y-5.1298
X9.2935Y-5.2298
X9.2935Y-5.7298
X9.2943Y-4.4337
X9.3935Y-1.6298
X9.3935Y-1.7298
X9.3935Y-1.8298
X9.3935Y-2.0298
X9.3935Y-2.1298
X9.3935Y-2.5298
X9.3935Y-2.6298
X9.3935Y-2.8298
X9.3935Y-3.2298
X9.3935Y-3.4298
X9.3935Y-3.5298
X9.3935Y-4.0298
X9.3935Y-4.1298
X9.3935Y-4.2298
X9.3935Y-4.3298
X9.3935Y-4.7298
X9.3935Y-4.8298
X9.3935Y-4.9298
X9.3935Y-5.0298
X9.3935Y-5.1298
X9.3935Y-5.7298
X9.4935Y-1.6298
X9.4935Y-1.7298
X9.4935Y-1.8298
X9.4935Y-2.5298
X9.4935Y-2.7298
X9.4935Y-2.8298
X9.4935Y-2.9298
X9.4935Y-3.2298
X9.4935Y-3.4298
X9.4935Y-3.6298
X9.4935Y-3.9298
X9.4935Y-4.0298
X9.4935Y-4.1298
X9.4935Y-4.2298
X9.4935Y-4.8298
X9.4935Y-4.9298
X9.4935Y-5.0298
X9.4935Y-5.1298
X9.4935Y-5.5298
X9.4935Y-5.7298
X9.5935Y-1.6298
X9.5935Y-1.7298
X9.5935Y-1.8298
X9.5935Y-2.2298
X9.5935Y-2.3298
X9.5935Y-2.5298
X9.5935Y-2.6298
X9.5935Y-2.7298
X9.5935Y-3.2298
X9.5935Y-3.5298
X9.5935Y-3.6298
X9.5935Y-3.7298
X9.5935Y-4.0298
X9.5935Y-4.1298
X9.5935Y-4.4298
X9.5935Y-4.7298
X9.5935Y-4.8298
X9.5935Y-4.9298
X9.5935Y-5.7298
X9.6935Y-1.6298
X9.6935Y-1.7298
X9.6935Y-1.8298
X9.6935Y-2.4298
X9.6935Y-2.5298
X9.6935Y-2.6298
X9.6935Y-2.7298
X9.6935Y-3.1298
X9.6935Y-3.2298
X9.6935Y-3.4298
X9.6935Y-3.5298
X9.6935Y-4.0298
X9.6935Y-4.1298
X9.6935Y-4.3298
X9.6935Y-4.5298
X9.6935Y-4.8298
X9.6935Y-4.9298
X9.6935Y-5.1298
X9.6935Y-5.2298
X9.6935Y-5.3298
X9.6935Y-5.4298
X9.6935Y-5.5298
X9.6935Y-5.7298
X9.7935Y-1.6298
X9.7935Y-1.7298
X9.7935Y-1.8298
X9.7935Y-2.1298
X9.7935Y-2.3298
X9.7935Y-2.4298
X9.7935Y-2.5298
X9.7935Y-2.6298
X9.7935Y-2.7298
X9.7935Y-2.9298
X9.7935Y-3.1298
X9.7935Y-3.2298
X9.7935Y-3.4298
X9.7935Y-3.5298
X9.7935Y-3.7298
X9.7935Y-3.9298
X9.7935Y-4.0298
X9.7935Y-4.1298
X9.7935Y-4.2298
X9.7935Y-4.3298
X9.7935Y-4.7298
X9.7935Y-4.8298
X9.7935Y-4.9298
X9.7935Y-5.3298
X9.7935Y-5.4298
X9.8935Y-2.2298
X9.8935Y-2.3298
X9.8935Y-2.4298
X9.8935Y-2.5298
X9.8935Y-2.6298
X9.8935Y-2.7298
X9.8935Y-2.9298
X9.8935Y-3.0298
X9.8935Y-3.1298
X9.8935Y-3.2298
X9.8935Y-3.4298
X9.8935Y-3.5298
X9.8935Y-3.7298
X9.8935Y-3.8298
X9.8935Y-3.9298
X9.8935Y-4.0298
X9.8935Y-4.1298
X9.8935Y-4.2298
X9.8935Y-4.3298
X9.8935Y-4.5298
X9.8935Y-4.7298
X9.8935Y-4.8298
X9.8935Y-5.0298
X9.8935Y-5.3298
X9.9639Y-2.5912
X9.9935Y-1.8298
X9.9935Y-2.7298
X9.9935Y-2.8298
X9.9935Y-2.9298
X9.9935Y-3.0298
X9.9935Y-3.1298
X9.9935Y-3.2298
X9.9935Y-3.4298
X9.9935Y-3.5298
X9.9935Y-3.7298
X9.9935Y-3.8298
X9.9935Y-3.9298
X9.9935Y-4.0298
X9.9935Y-4.1298
X9.9935Y-4.2298
X9.9935Y-4.3298
X9.9935Y-4.5298
X9.9935Y-4.6298
X9.9935Y-4.7298
X9.9935Y-4.9298
X9.9935Y-5.0298
X10.0467Y-3.3786
X10.0525Y-2.5912
X10.0683Y-4.1758
X10.0935Y-1.6298
X10.0935Y-1.7298
X10.0935Y-1.8298
X10.0935Y-2.1298
X10.0935Y-2.2298
X10.0935Y-2.3298
X10.0935Y-2.4298
X10.0935Y-2.5298
X10.0935Y-3.7298
X10.0935Y-4.3298
X10.0935Y-4.5298
X10.0935Y-4.6298
X10.0935Y-4.8298
X10.0935Y-4.9298
X10.0935Y-5.0298
X10.0935Y-5.1298
X10.094Y-3.3786
X10.1155Y-4.1758
X10.1935Y-1.6298
X10.1935Y-1.9298
X10.1935Y-2.1298
X10.1935Y-2.2298
X10.1935Y-2.3298
X10.1935Y-2.4298
X10.1935Y-2.7298
X10.1935Y-2.8298
X10.1935Y-2.9298
X10.1935Y-3.0298
X10.1935Y-3.1298
X10.1935Y-3.2298
X10.1935Y-3.5298
X10.1935Y-3.6298
X10.1935Y-3.7298
X10.1935Y-3.8298
X10.1935Y-3.9298
X10.1935Y-4.0298
X10.1935Y-4.7298
X10.1935Y-4.8298
X10.1935Y-5.3298
X10.2935Y-2.1298
X10.2935Y-2.2298
X10.2935Y-2.3298
X10.2935Y-2.4298
X10.2935Y-2.8298
X10.2935Y-2.9298
X10.2935Y-3.0298
X10.2935Y-3.1298
X10.2935Y-3.2298
X10.2935Y-3.6298
X10.2935Y-3.7298
X10.2935Y-3.8298
X10.2935Y-3.9298
X10.2935Y-4.4298
X10.2935Y-4.5298
X10.2935Y-4.6298
X10.2935Y-4.7298
X10.2935Y-4.8298
X10.2935Y-5.1298
X10.2935Y-5.3298
X10.3935Y-1.6298
X10.3935Y-2.1298
X10.3935Y-2.2298
X10.3935Y-2.3298
X10.3935Y-2.4298
X10.3935Y-2.8298
X10.3935Y-2.9298
X10.3935Y-3.0298
X10.3935Y-3.1298
X10.3935Y-3.2298
X10.3935Y-3.6298
X10.3935Y-3.7298
X10.3935Y-3.8298
X10.3935Y-4.4298
X10.3935Y-4.5298
X10.3935Y-4.6298
X10.3935Y-4.7298
X10.3935Y-4.8298
X10.3935Y-5.3298
X10.4935Y-1.6298
X10.4935Y-2.0298
X10.4935Y-2.2298
X10.4935Y-2.3298
X10.4935Y-2.4298
X10.4935Y-2.8298
X10.4935Y-2.9298
X10.4935Y-3.0298
X10.4935Y-3.1298
X10.4935Y-3.6298
X10.4935Y-3.7298
X10.4935Y-3.8298
X10.4935Y-4.1298
X10.4935Y-4.4298
X10.4935Y-4.5298
X10.4935Y-4.6298
X10.4935Y-4.7298
X10.4935Y-4.9298
X10.4935Y-5.3298
X10.5935Y-1.8298
X10.5935Y-1.9298
X10.5935Y-2.0298
X10.5935Y-2.1298
X10.5935Y-2.3298
X10.5935Y-2.6298
X10.5935Y-2.7298
X10.5935Y-2.8298
X10.5935Y-2.9298
X10.5935Y-3.0298
X10.5935Y-3.1298
X10.5935Y-3.4298
X10.5935Y-3.5298
X10.5935Y-3.6298
X10.5935Y-3.7298
X10.5935Y-3.8298
X10.5935Y-4.2298
X10.5935Y-4.3298
X10.5935Y-4.4298
X10.5935Y-4.5298
X10.5935Y-4.6298
X10.5935Y-4.7298
X10.5935Y-5.0298
X10.5935Y-5.1298
X10.5935Y-5.3298
X10.6935Y-1.8298
X10.6935Y-2.0298
X10.6935Y-2.1298
X10.6935Y-2.8298
X10.6935Y-2.9298
X10.6935Y-3.0298
X10.6935Y-3.1298
X10.6935Y-3.6298
X10.6935Y-3.7298
X10.6935Y-3.8298
X10.6935Y-4.4298
X10.6935Y-4.5298
X10.6935Y-4.6298
X10.6935Y-4.7298
X10.6935Y-4.9298
X10.6935Y-5.1298
X10.6935Y-5.3298
X10.7935Y-1.6298
X10.7935Y-2.4298
X10.7935Y-2.7298
X10.7935Y-2.8298
X10.7935Y-2.9298
X10.7935Y-3.0298
X10.7935Y-3.1298
X10.7935Y-3.4298
X10.7935Y-3.5298
X10.7935Y-3.6298
X10.7935Y-3.7298
X10.7935Y-3.8298
X10.7935Y-4.1298
X10.7935Y-4.2298
X10.7935Y-4.3298
X10.7935Y-4.4298
X10.7935Y-4.5298
X10.7935Y-4.6298
X10.7935Y-4.7298
X10.7935Y-4.9298
X10.7935Y-5.0298
X10.7935Y-5.1298
X10.7935Y-5.3298
X10.8301Y-2.5912
X10.8557Y-3.3786
X10.8935Y-1.6298
X10.8935Y-1.7298
X10.8935Y-1.8298
X10.8935Y-1.9298
X10.8935Y-2.0298
X10.8935Y-2.4298
X10.8935Y-2.7298
X10.8935Y-2.8298
X10.8935Y-2.9298
X10.8935Y-3.0298
X10.8935Y-3.1298
X10.8935Y-3.2298
X10.8935Y-3.8298
X10.8935Y-4.3298
X10.8935Y-4.4298
X10.8935Y-4.5298
X10.8935Y-4.6298
X10.8935Y-4.7298
X10.8935Y-4.9298
X10.8935Y-5.0298
X10.8935Y-5.2298
X10.8935Y-5.3298
X10.9029Y-3.3786
X10.9088Y-3.9396
X10.9187Y-2.5912
X10.9876Y-2.6109
X10.9876Y-3.9396
X10.9935Y-1.9298
X10.9935Y-2.0298
X10.9935Y-2.2298
X10.9935Y-2.3298
X10.9935Y-2.4298
X10.9935Y-2.7298
X10.9935Y-2.8298
X10.9935Y-2.9298
X10.9935Y-3.0298
X10.9935Y-3.1298
X10.9935Y-3.2298
X10.9935Y-3.5298
X10.9935Y-3.6298
X10.9935Y-3.7298
X10.9935Y-3.8298
X10.9935Y-4.3298
X10.9935Y-4.4298
X10.9935Y-4.5298
X10.9935Y-4.6298
X10.9935Y-4.7298
X10.9935Y-4.8298
X10.9935Y-5.1298
X10.9935Y-5.2298
X10.9935Y-5.3298
X11.0935Y-1.6298
X11.0935Y-2.0298
X11.0935Y-2.2298
X11.0935Y-2.3298
X11.0935Y-2.4298
X11.0935Y-2.8298
X11.0935Y-2.9298
X11.0935Y-3.0298
X11.0935Y-3.1298
X11.0935Y-3.2298
X11.0935Y-3.6298
X11.0935Y-3.7298
X11.0935Y-3.8298
X11.0935Y-3.9298
X11.0935Y-4.0298
X11.0935Y-4.4298
X11.0935Y-4.5298
X11.0935Y-4.6298
X11.0935Y-4.7298
X11.0935Y-4.8298
X11.0935Y-5.1298
X11.0935Y-5.2298
X11.0935Y-5.3298
X11.1935Y-1.6298
X11.1935Y-2.0298
X11.1935Y-2.2298
X11.1935Y-2.3298
X11.1935Y-2.4298
X11.1935Y-2.8298
X11.1935Y-2.9298
X11.1935Y-3.0298
X11.1935Y-3.1298
X11.1935Y-3.6298
X11.1935Y-3.7298
X11.1935Y-3.8298
X11.1935Y-3.9298
X11.1935Y-4.0298
X11.1935Y-4.4298
X11.1935Y-4.5298
X11.1935Y-4.6298
X11.1935Y-4.7298
X11.1935Y-4.8298
X11.1935Y-5.2298
X11.1935Y-5.3298
X11.2935Y-2.0298
X11.2935Y-2.8298
X11.2935Y-2.9298
X11.2935Y-3.0298
X11.2935Y-3.6298
X11.2935Y-3.7298
X11.2935Y-3.8298
X11.2935Y-4.4298
X11.2935Y-4.5298
X11.2935Y-4.6298
X11.2935Y-4.7298
X11.2935Y-4.9298
X11.2935Y-5.2298
X11.2935Y-5.3298
X11.3935Y-1.8298
X11.3935Y-1.9298
X11.3935Y-2.0298
X11.3935Y-2.1298
X11.3935Y-2.3298
X11.3935Y-3.9298
X11.3935Y-4.6298
X11.3935Y-4.7298
X11.3935Y-5.0298
X11.3935Y-5.1298
X11.3935Y-5.2298
X11.4935Y-1.8298
X11.4935Y-2.0298
X11.4935Y-2.1298
X11.4935Y-2.3298
X11.4935Y-2.8298
X11.4935Y-3.1298
X11.4935Y-3.6298
X11.4935Y-3.9298
X11.4935Y-4.4298
X11.4935Y-4.9298
X11.4935Y-5.1298
X11.5935Y-5.3298
T2
X5.3899Y-2.1109
X5.3899Y-2.2109
X5.3899Y-2.3109
X5.3899Y-2.4109
X5.3899Y-2.5109
X5.3899Y-2.6109
X5.3899Y-2.7109
X5.3899Y-2.8109
X5.3899Y-2.9109
X5.3899Y-3.0109
X5.3899Y-3.1109
X5.3899Y-3.2109
X5.3899Y-3.3109
X5.3899Y-3.4109
X5.3899Y-3.5109
X5.3899Y-3.6109
X5.3899Y-3.7109
X5.3899Y-3.8109
X5.3899Y-3.9109
X5.3899Y-4.0109
X5.3899Y-4.1109
X5.3899Y-4.2109
X6.2899Y-2.4109
X6.2899Y-2.5109
X6.2899Y-2.6109
X6.2899Y-2.7109
X6.2899Y-2.8109
X6.2899Y-2.9109
X6.2899Y-3.0109
X6.2899Y-3.1109
X6.2899Y-3.2109
X6.2899Y-3.3109
X6.2899Y-3.4109
X6.2899Y-3.5109
X6.2899Y-3.6109
X6.2899Y-3.7109
X6.2899Y-3.8109
X6.2899Y-3.9109
X6.2899Y-4.0109
X6.2899Y-4.1109
X6.2899Y-4.2109
X6.2901Y-2.111
X6.2901Y-2.211
X6.2901Y-2.311
T3
X5.3399Y-5.1699
X5.4399Y-5.1699
X5.5399Y-5.1699
X5.5401Y-4.1227
X5.6399Y-5.1699
X5.6401Y-4.1227
X5.7399Y-5.1699
X5.7401Y-4.1227
X5.8399Y-5.1699
X5.8401Y-4.1227
X5.9399Y-5.1699
X5.9401Y-4.1227
X6.0399Y-5.1699
X6.0401Y-4.1227
X6.1399Y-5.1699
X6.1401Y-4.1227
X6.2399Y-5.1699
X6.3399Y-5.1699
T4
X4.9423Y-5.3303
X4.9423Y-5.5075
X5.1982Y-5.3303
X5.1982Y-5.5075
X6.4895Y-5.3303
X6.4895Y-5.5075
X6.7454Y-5.3303
X6.7454Y-5.5075
T5
X1.76Y-1.7053
X1.7632Y-5.179
X4.7592Y-5.39
X5.8399Y-6.3652
X6.9206Y-5.39
X9.9167Y-5.179
X9.9198Y-1.7053
M30
