G04 #@! TF.GenerationSoftware,KiCad,Pcbnew,8.0.5*
G04 #@! TF.CreationDate,2024-12-10T13:22:40+01:00*
G04 #@! TF.ProjectId,Atreus62,41747265-7573-4363-922e-6b696361645f,rev?*
G04 #@! TF.SameCoordinates,Original*
G04 #@! TF.FileFunction,Legend,Bot*
G04 #@! TF.FilePolarity,Positive*
%FSLAX46Y46*%
G04 Gerber Fmt 4.6, Leading zero omitted, Abs format (unit mm)*
G04 Created by KiCad (PCBNEW 8.0.5) date 2024-12-10 13:22:40*
%MOMM*%
%LPD*%
G01*
G04 APERTURE LIST*
%ADD10C,0.300000*%
%ADD11C,0.150000*%
%ADD12C,0.120000*%
G04 APERTURE END LIST*
D10*
X152369849Y-150164128D02*
X151869849Y-151664128D01*
X151869849Y-151664128D02*
X151369849Y-150164128D01*
X150869850Y-151521271D02*
X150798421Y-151592700D01*
X150798421Y-151592700D02*
X150869850Y-151664128D01*
X150869850Y-151664128D02*
X150941278Y-151592700D01*
X150941278Y-151592700D02*
X150869850Y-151521271D01*
X150869850Y-151521271D02*
X150869850Y-151664128D01*
X148226992Y-151664128D02*
X149084135Y-151664128D01*
X148655564Y-151664128D02*
X148655564Y-150164128D01*
X148655564Y-150164128D02*
X148798421Y-150378414D01*
X148798421Y-150378414D02*
X148941278Y-150521271D01*
X148941278Y-150521271D02*
X149084135Y-150592700D01*
X147584136Y-151521271D02*
X147512707Y-151592700D01*
X147512707Y-151592700D02*
X147584136Y-151664128D01*
X147584136Y-151664128D02*
X147655564Y-151592700D01*
X147655564Y-151592700D02*
X147584136Y-151521271D01*
X147584136Y-151521271D02*
X147584136Y-151664128D01*
X146584135Y-150164128D02*
X146441278Y-150164128D01*
X146441278Y-150164128D02*
X146298421Y-150235557D01*
X146298421Y-150235557D02*
X146226993Y-150306985D01*
X146226993Y-150306985D02*
X146155564Y-150449842D01*
X146155564Y-150449842D02*
X146084135Y-150735557D01*
X146084135Y-150735557D02*
X146084135Y-151092700D01*
X146084135Y-151092700D02*
X146155564Y-151378414D01*
X146155564Y-151378414D02*
X146226993Y-151521271D01*
X146226993Y-151521271D02*
X146298421Y-151592700D01*
X146298421Y-151592700D02*
X146441278Y-151664128D01*
X146441278Y-151664128D02*
X146584135Y-151664128D01*
X146584135Y-151664128D02*
X146726993Y-151592700D01*
X146726993Y-151592700D02*
X146798421Y-151521271D01*
X146798421Y-151521271D02*
X146869850Y-151378414D01*
X146869850Y-151378414D02*
X146941278Y-151092700D01*
X146941278Y-151092700D02*
X146941278Y-150735557D01*
X146941278Y-150735557D02*
X146869850Y-150449842D01*
X146869850Y-150449842D02*
X146798421Y-150306985D01*
X146798421Y-150306985D02*
X146726993Y-150235557D01*
X146726993Y-150235557D02*
X146584135Y-150164128D01*
X145441279Y-151521271D02*
X145369850Y-151592700D01*
X145369850Y-151592700D02*
X145441279Y-151664128D01*
X145441279Y-151664128D02*
X145512707Y-151592700D01*
X145512707Y-151592700D02*
X145441279Y-151521271D01*
X145441279Y-151521271D02*
X145441279Y-151664128D01*
X144441278Y-150164128D02*
X144298421Y-150164128D01*
X144298421Y-150164128D02*
X144155564Y-150235557D01*
X144155564Y-150235557D02*
X144084136Y-150306985D01*
X144084136Y-150306985D02*
X144012707Y-150449842D01*
X144012707Y-150449842D02*
X143941278Y-150735557D01*
X143941278Y-150735557D02*
X143941278Y-151092700D01*
X143941278Y-151092700D02*
X144012707Y-151378414D01*
X144012707Y-151378414D02*
X144084136Y-151521271D01*
X144084136Y-151521271D02*
X144155564Y-151592700D01*
X144155564Y-151592700D02*
X144298421Y-151664128D01*
X144298421Y-151664128D02*
X144441278Y-151664128D01*
X144441278Y-151664128D02*
X144584136Y-151592700D01*
X144584136Y-151592700D02*
X144655564Y-151521271D01*
X144655564Y-151521271D02*
X144726993Y-151378414D01*
X144726993Y-151378414D02*
X144798421Y-151092700D01*
X144798421Y-151092700D02*
X144798421Y-150735557D01*
X144798421Y-150735557D02*
X144726993Y-150449842D01*
X144726993Y-150449842D02*
X144655564Y-150306985D01*
X144655564Y-150306985D02*
X144584136Y-150235557D01*
X144584136Y-150235557D02*
X144441278Y-150164128D01*
D11*
X150424611Y-110372619D02*
X149853183Y-110372619D01*
X150138897Y-111372619D02*
X150138897Y-110372619D01*
X149519849Y-111372619D02*
X149519849Y-110372619D01*
X149519849Y-110372619D02*
X149138897Y-110372619D01*
X149138897Y-110372619D02*
X149043659Y-110420238D01*
X149043659Y-110420238D02*
X148996040Y-110467857D01*
X148996040Y-110467857D02*
X148948421Y-110563095D01*
X148948421Y-110563095D02*
X148948421Y-110705952D01*
X148948421Y-110705952D02*
X148996040Y-110801190D01*
X148996040Y-110801190D02*
X149043659Y-110848809D01*
X149043659Y-110848809D02*
X149138897Y-110896428D01*
X149138897Y-110896428D02*
X149519849Y-110896428D01*
X148615087Y-110372619D02*
X147996040Y-110372619D01*
X147996040Y-110372619D02*
X148329373Y-110753571D01*
X148329373Y-110753571D02*
X148186516Y-110753571D01*
X148186516Y-110753571D02*
X148091278Y-110801190D01*
X148091278Y-110801190D02*
X148043659Y-110848809D01*
X148043659Y-110848809D02*
X147996040Y-110944047D01*
X147996040Y-110944047D02*
X147996040Y-111182142D01*
X147996040Y-111182142D02*
X148043659Y-111277380D01*
X148043659Y-111277380D02*
X148091278Y-111325000D01*
X148091278Y-111325000D02*
X148186516Y-111372619D01*
X148186516Y-111372619D02*
X148472230Y-111372619D01*
X148472230Y-111372619D02*
X148567468Y-111325000D01*
X148567468Y-111325000D02*
X148615087Y-111277380D01*
X147710325Y-110372619D02*
X147376992Y-111372619D01*
X147376992Y-111372619D02*
X147043659Y-110372619D01*
X170324611Y-58220619D02*
X169753183Y-58220619D01*
X170038897Y-59220619D02*
X170038897Y-58220619D01*
X169419849Y-59220619D02*
X169419849Y-58220619D01*
X169419849Y-58220619D02*
X169038897Y-58220619D01*
X169038897Y-58220619D02*
X168943659Y-58268238D01*
X168943659Y-58268238D02*
X168896040Y-58315857D01*
X168896040Y-58315857D02*
X168848421Y-58411095D01*
X168848421Y-58411095D02*
X168848421Y-58553952D01*
X168848421Y-58553952D02*
X168896040Y-58649190D01*
X168896040Y-58649190D02*
X168943659Y-58696809D01*
X168943659Y-58696809D02*
X169038897Y-58744428D01*
X169038897Y-58744428D02*
X169419849Y-58744428D01*
X167943659Y-58220619D02*
X168419849Y-58220619D01*
X168419849Y-58220619D02*
X168467468Y-58696809D01*
X168467468Y-58696809D02*
X168419849Y-58649190D01*
X168419849Y-58649190D02*
X168324611Y-58601571D01*
X168324611Y-58601571D02*
X168086516Y-58601571D01*
X168086516Y-58601571D02*
X167991278Y-58649190D01*
X167991278Y-58649190D02*
X167943659Y-58696809D01*
X167943659Y-58696809D02*
X167896040Y-58792047D01*
X167896040Y-58792047D02*
X167896040Y-59030142D01*
X167896040Y-59030142D02*
X167943659Y-59125380D01*
X167943659Y-59125380D02*
X167991278Y-59173000D01*
X167991278Y-59173000D02*
X168086516Y-59220619D01*
X168086516Y-59220619D02*
X168324611Y-59220619D01*
X168324611Y-59220619D02*
X168419849Y-59173000D01*
X168419849Y-59173000D02*
X168467468Y-59125380D01*
X167610325Y-58220619D02*
X167276992Y-59220619D01*
X167276992Y-59220619D02*
X166943659Y-58220619D01*
X176543659Y-58220619D02*
X175972231Y-58220619D01*
X176257945Y-59220619D02*
X176257945Y-58220619D01*
X175638897Y-59220619D02*
X175638897Y-58220619D01*
X175638897Y-58220619D02*
X175257945Y-58220619D01*
X175257945Y-58220619D02*
X175162707Y-58268238D01*
X175162707Y-58268238D02*
X175115088Y-58315857D01*
X175115088Y-58315857D02*
X175067469Y-58411095D01*
X175067469Y-58411095D02*
X175067469Y-58553952D01*
X175067469Y-58553952D02*
X175115088Y-58649190D01*
X175115088Y-58649190D02*
X175162707Y-58696809D01*
X175162707Y-58696809D02*
X175257945Y-58744428D01*
X175257945Y-58744428D02*
X175638897Y-58744428D01*
X174115088Y-58268238D02*
X174210326Y-58220619D01*
X174210326Y-58220619D02*
X174353183Y-58220619D01*
X174353183Y-58220619D02*
X174496040Y-58268238D01*
X174496040Y-58268238D02*
X174591278Y-58363476D01*
X174591278Y-58363476D02*
X174638897Y-58458714D01*
X174638897Y-58458714D02*
X174686516Y-58649190D01*
X174686516Y-58649190D02*
X174686516Y-58792047D01*
X174686516Y-58792047D02*
X174638897Y-58982523D01*
X174638897Y-58982523D02*
X174591278Y-59077761D01*
X174591278Y-59077761D02*
X174496040Y-59173000D01*
X174496040Y-59173000D02*
X174353183Y-59220619D01*
X174353183Y-59220619D02*
X174257945Y-59220619D01*
X174257945Y-59220619D02*
X174115088Y-59173000D01*
X174115088Y-59173000D02*
X174067469Y-59125380D01*
X174067469Y-59125380D02*
X174067469Y-58792047D01*
X174067469Y-58792047D02*
X174257945Y-58792047D01*
X173638897Y-59220619D02*
X173638897Y-58220619D01*
X173638897Y-58220619D02*
X173067469Y-59220619D01*
X173067469Y-59220619D02*
X173067469Y-58220619D01*
X172591278Y-59220619D02*
X172591278Y-58220619D01*
X172591278Y-58220619D02*
X172353183Y-58220619D01*
X172353183Y-58220619D02*
X172210326Y-58268238D01*
X172210326Y-58268238D02*
X172115088Y-58363476D01*
X172115088Y-58363476D02*
X172067469Y-58458714D01*
X172067469Y-58458714D02*
X172019850Y-58649190D01*
X172019850Y-58649190D02*
X172019850Y-58792047D01*
X172019850Y-58792047D02*
X172067469Y-58982523D01*
X172067469Y-58982523D02*
X172115088Y-59077761D01*
X172115088Y-59077761D02*
X172210326Y-59173000D01*
X172210326Y-59173000D02*
X172353183Y-59220619D01*
X172353183Y-59220619D02*
X172591278Y-59220619D01*
X21282230Y-45600619D02*
X21282230Y-44600619D01*
X21282230Y-44600619D02*
X21044135Y-44600619D01*
X21044135Y-44600619D02*
X20901278Y-44648238D01*
X20901278Y-44648238D02*
X20806040Y-44743476D01*
X20806040Y-44743476D02*
X20758421Y-44838714D01*
X20758421Y-44838714D02*
X20710802Y-45029190D01*
X20710802Y-45029190D02*
X20710802Y-45172047D01*
X20710802Y-45172047D02*
X20758421Y-45362523D01*
X20758421Y-45362523D02*
X20806040Y-45457761D01*
X20806040Y-45457761D02*
X20901278Y-45553000D01*
X20901278Y-45553000D02*
X21044135Y-45600619D01*
X21044135Y-45600619D02*
X21282230Y-45600619D01*
X19758421Y-45600619D02*
X20329849Y-45600619D01*
X20044135Y-45600619D02*
X20044135Y-44600619D01*
X20044135Y-44600619D02*
X20139373Y-44743476D01*
X20139373Y-44743476D02*
X20234611Y-44838714D01*
X20234611Y-44838714D02*
X20329849Y-44886333D01*
X21282230Y-65850619D02*
X21282230Y-64850619D01*
X21282230Y-64850619D02*
X21044135Y-64850619D01*
X21044135Y-64850619D02*
X20901278Y-64898238D01*
X20901278Y-64898238D02*
X20806040Y-64993476D01*
X20806040Y-64993476D02*
X20758421Y-65088714D01*
X20758421Y-65088714D02*
X20710802Y-65279190D01*
X20710802Y-65279190D02*
X20710802Y-65422047D01*
X20710802Y-65422047D02*
X20758421Y-65612523D01*
X20758421Y-65612523D02*
X20806040Y-65707761D01*
X20806040Y-65707761D02*
X20901278Y-65803000D01*
X20901278Y-65803000D02*
X21044135Y-65850619D01*
X21044135Y-65850619D02*
X21282230Y-65850619D01*
X20329849Y-64945857D02*
X20282230Y-64898238D01*
X20282230Y-64898238D02*
X20186992Y-64850619D01*
X20186992Y-64850619D02*
X19948897Y-64850619D01*
X19948897Y-64850619D02*
X19853659Y-64898238D01*
X19853659Y-64898238D02*
X19806040Y-64945857D01*
X19806040Y-64945857D02*
X19758421Y-65041095D01*
X19758421Y-65041095D02*
X19758421Y-65136333D01*
X19758421Y-65136333D02*
X19806040Y-65279190D01*
X19806040Y-65279190D02*
X20377468Y-65850619D01*
X20377468Y-65850619D02*
X19758421Y-65850619D01*
X21282230Y-85840619D02*
X21282230Y-84840619D01*
X21282230Y-84840619D02*
X21044135Y-84840619D01*
X21044135Y-84840619D02*
X20901278Y-84888238D01*
X20901278Y-84888238D02*
X20806040Y-84983476D01*
X20806040Y-84983476D02*
X20758421Y-85078714D01*
X20758421Y-85078714D02*
X20710802Y-85269190D01*
X20710802Y-85269190D02*
X20710802Y-85412047D01*
X20710802Y-85412047D02*
X20758421Y-85602523D01*
X20758421Y-85602523D02*
X20806040Y-85697761D01*
X20806040Y-85697761D02*
X20901278Y-85793000D01*
X20901278Y-85793000D02*
X21044135Y-85840619D01*
X21044135Y-85840619D02*
X21282230Y-85840619D01*
X20377468Y-84840619D02*
X19758421Y-84840619D01*
X19758421Y-84840619D02*
X20091754Y-85221571D01*
X20091754Y-85221571D02*
X19948897Y-85221571D01*
X19948897Y-85221571D02*
X19853659Y-85269190D01*
X19853659Y-85269190D02*
X19806040Y-85316809D01*
X19806040Y-85316809D02*
X19758421Y-85412047D01*
X19758421Y-85412047D02*
X19758421Y-85650142D01*
X19758421Y-85650142D02*
X19806040Y-85745380D01*
X19806040Y-85745380D02*
X19853659Y-85793000D01*
X19853659Y-85793000D02*
X19948897Y-85840619D01*
X19948897Y-85840619D02*
X20234611Y-85840619D01*
X20234611Y-85840619D02*
X20329849Y-85793000D01*
X20329849Y-85793000D02*
X20377468Y-85745380D01*
X21282230Y-105840619D02*
X21282230Y-104840619D01*
X21282230Y-104840619D02*
X21044135Y-104840619D01*
X21044135Y-104840619D02*
X20901278Y-104888238D01*
X20901278Y-104888238D02*
X20806040Y-104983476D01*
X20806040Y-104983476D02*
X20758421Y-105078714D01*
X20758421Y-105078714D02*
X20710802Y-105269190D01*
X20710802Y-105269190D02*
X20710802Y-105412047D01*
X20710802Y-105412047D02*
X20758421Y-105602523D01*
X20758421Y-105602523D02*
X20806040Y-105697761D01*
X20806040Y-105697761D02*
X20901278Y-105793000D01*
X20901278Y-105793000D02*
X21044135Y-105840619D01*
X21044135Y-105840619D02*
X21282230Y-105840619D01*
X19853659Y-105173952D02*
X19853659Y-105840619D01*
X20091754Y-104793000D02*
X20329849Y-105507285D01*
X20329849Y-105507285D02*
X19710802Y-105507285D01*
X21282230Y-125850619D02*
X21282230Y-124850619D01*
X21282230Y-124850619D02*
X21044135Y-124850619D01*
X21044135Y-124850619D02*
X20901278Y-124898238D01*
X20901278Y-124898238D02*
X20806040Y-124993476D01*
X20806040Y-124993476D02*
X20758421Y-125088714D01*
X20758421Y-125088714D02*
X20710802Y-125279190D01*
X20710802Y-125279190D02*
X20710802Y-125422047D01*
X20710802Y-125422047D02*
X20758421Y-125612523D01*
X20758421Y-125612523D02*
X20806040Y-125707761D01*
X20806040Y-125707761D02*
X20901278Y-125803000D01*
X20901278Y-125803000D02*
X21044135Y-125850619D01*
X21044135Y-125850619D02*
X21282230Y-125850619D01*
X19806040Y-124850619D02*
X20282230Y-124850619D01*
X20282230Y-124850619D02*
X20329849Y-125326809D01*
X20329849Y-125326809D02*
X20282230Y-125279190D01*
X20282230Y-125279190D02*
X20186992Y-125231571D01*
X20186992Y-125231571D02*
X19948897Y-125231571D01*
X19948897Y-125231571D02*
X19853659Y-125279190D01*
X19853659Y-125279190D02*
X19806040Y-125326809D01*
X19806040Y-125326809D02*
X19758421Y-125422047D01*
X19758421Y-125422047D02*
X19758421Y-125660142D01*
X19758421Y-125660142D02*
X19806040Y-125755380D01*
X19806040Y-125755380D02*
X19853659Y-125803000D01*
X19853659Y-125803000D02*
X19948897Y-125850619D01*
X19948897Y-125850619D02*
X20186992Y-125850619D01*
X20186992Y-125850619D02*
X20282230Y-125803000D01*
X20282230Y-125803000D02*
X20329849Y-125755380D01*
X41122230Y-50040620D02*
X41122230Y-49040620D01*
X41122230Y-49040620D02*
X40884135Y-49040620D01*
X40884135Y-49040620D02*
X40741278Y-49088239D01*
X40741278Y-49088239D02*
X40646040Y-49183477D01*
X40646040Y-49183477D02*
X40598421Y-49278715D01*
X40598421Y-49278715D02*
X40550802Y-49469191D01*
X40550802Y-49469191D02*
X40550802Y-49612048D01*
X40550802Y-49612048D02*
X40598421Y-49802524D01*
X40598421Y-49802524D02*
X40646040Y-49897762D01*
X40646040Y-49897762D02*
X40741278Y-49993001D01*
X40741278Y-49993001D02*
X40884135Y-50040620D01*
X40884135Y-50040620D02*
X41122230Y-50040620D01*
X39693659Y-49040620D02*
X39884135Y-49040620D01*
X39884135Y-49040620D02*
X39979373Y-49088239D01*
X39979373Y-49088239D02*
X40026992Y-49135858D01*
X40026992Y-49135858D02*
X40122230Y-49278715D01*
X40122230Y-49278715D02*
X40169849Y-49469191D01*
X40169849Y-49469191D02*
X40169849Y-49850143D01*
X40169849Y-49850143D02*
X40122230Y-49945381D01*
X40122230Y-49945381D02*
X40074611Y-49993001D01*
X40074611Y-49993001D02*
X39979373Y-50040620D01*
X39979373Y-50040620D02*
X39788897Y-50040620D01*
X39788897Y-50040620D02*
X39693659Y-49993001D01*
X39693659Y-49993001D02*
X39646040Y-49945381D01*
X39646040Y-49945381D02*
X39598421Y-49850143D01*
X39598421Y-49850143D02*
X39598421Y-49612048D01*
X39598421Y-49612048D02*
X39646040Y-49516810D01*
X39646040Y-49516810D02*
X39693659Y-49469191D01*
X39693659Y-49469191D02*
X39788897Y-49421572D01*
X39788897Y-49421572D02*
X39979373Y-49421572D01*
X39979373Y-49421572D02*
X40074611Y-49469191D01*
X40074611Y-49469191D02*
X40122230Y-49516810D01*
X40122230Y-49516810D02*
X40169849Y-49612048D01*
X42612230Y-65850620D02*
X42612230Y-64850620D01*
X42612230Y-64850620D02*
X42374135Y-64850620D01*
X42374135Y-64850620D02*
X42231278Y-64898239D01*
X42231278Y-64898239D02*
X42136040Y-64993477D01*
X42136040Y-64993477D02*
X42088421Y-65088715D01*
X42088421Y-65088715D02*
X42040802Y-65279191D01*
X42040802Y-65279191D02*
X42040802Y-65422048D01*
X42040802Y-65422048D02*
X42088421Y-65612524D01*
X42088421Y-65612524D02*
X42136040Y-65707762D01*
X42136040Y-65707762D02*
X42231278Y-65803001D01*
X42231278Y-65803001D02*
X42374135Y-65850620D01*
X42374135Y-65850620D02*
X42612230Y-65850620D01*
X41707468Y-64850620D02*
X41040802Y-64850620D01*
X41040802Y-64850620D02*
X41469373Y-65850620D01*
X42582230Y-85890619D02*
X42582230Y-84890619D01*
X42582230Y-84890619D02*
X42344135Y-84890619D01*
X42344135Y-84890619D02*
X42201278Y-84938238D01*
X42201278Y-84938238D02*
X42106040Y-85033476D01*
X42106040Y-85033476D02*
X42058421Y-85128714D01*
X42058421Y-85128714D02*
X42010802Y-85319190D01*
X42010802Y-85319190D02*
X42010802Y-85462047D01*
X42010802Y-85462047D02*
X42058421Y-85652523D01*
X42058421Y-85652523D02*
X42106040Y-85747761D01*
X42106040Y-85747761D02*
X42201278Y-85843000D01*
X42201278Y-85843000D02*
X42344135Y-85890619D01*
X42344135Y-85890619D02*
X42582230Y-85890619D01*
X41439373Y-85319190D02*
X41534611Y-85271571D01*
X41534611Y-85271571D02*
X41582230Y-85223952D01*
X41582230Y-85223952D02*
X41629849Y-85128714D01*
X41629849Y-85128714D02*
X41629849Y-85081095D01*
X41629849Y-85081095D02*
X41582230Y-84985857D01*
X41582230Y-84985857D02*
X41534611Y-84938238D01*
X41534611Y-84938238D02*
X41439373Y-84890619D01*
X41439373Y-84890619D02*
X41248897Y-84890619D01*
X41248897Y-84890619D02*
X41153659Y-84938238D01*
X41153659Y-84938238D02*
X41106040Y-84985857D01*
X41106040Y-84985857D02*
X41058421Y-85081095D01*
X41058421Y-85081095D02*
X41058421Y-85128714D01*
X41058421Y-85128714D02*
X41106040Y-85223952D01*
X41106040Y-85223952D02*
X41153659Y-85271571D01*
X41153659Y-85271571D02*
X41248897Y-85319190D01*
X41248897Y-85319190D02*
X41439373Y-85319190D01*
X41439373Y-85319190D02*
X41534611Y-85366809D01*
X41534611Y-85366809D02*
X41582230Y-85414428D01*
X41582230Y-85414428D02*
X41629849Y-85509666D01*
X41629849Y-85509666D02*
X41629849Y-85700142D01*
X41629849Y-85700142D02*
X41582230Y-85795380D01*
X41582230Y-85795380D02*
X41534611Y-85843000D01*
X41534611Y-85843000D02*
X41439373Y-85890619D01*
X41439373Y-85890619D02*
X41248897Y-85890619D01*
X41248897Y-85890619D02*
X41153659Y-85843000D01*
X41153659Y-85843000D02*
X41106040Y-85795380D01*
X41106040Y-85795380D02*
X41058421Y-85700142D01*
X41058421Y-85700142D02*
X41058421Y-85509666D01*
X41058421Y-85509666D02*
X41106040Y-85414428D01*
X41106040Y-85414428D02*
X41153659Y-85366809D01*
X41153659Y-85366809D02*
X41248897Y-85319190D01*
X42564730Y-105830619D02*
X42564730Y-104830619D01*
X42564730Y-104830619D02*
X42326635Y-104830619D01*
X42326635Y-104830619D02*
X42183778Y-104878238D01*
X42183778Y-104878238D02*
X42088540Y-104973476D01*
X42088540Y-104973476D02*
X42040921Y-105068714D01*
X42040921Y-105068714D02*
X41993302Y-105259190D01*
X41993302Y-105259190D02*
X41993302Y-105402047D01*
X41993302Y-105402047D02*
X42040921Y-105592523D01*
X42040921Y-105592523D02*
X42088540Y-105687761D01*
X42088540Y-105687761D02*
X42183778Y-105783000D01*
X42183778Y-105783000D02*
X42326635Y-105830619D01*
X42326635Y-105830619D02*
X42564730Y-105830619D01*
X41517111Y-105830619D02*
X41326635Y-105830619D01*
X41326635Y-105830619D02*
X41231397Y-105783000D01*
X41231397Y-105783000D02*
X41183778Y-105735380D01*
X41183778Y-105735380D02*
X41088540Y-105592523D01*
X41088540Y-105592523D02*
X41040921Y-105402047D01*
X41040921Y-105402047D02*
X41040921Y-105021095D01*
X41040921Y-105021095D02*
X41088540Y-104925857D01*
X41088540Y-104925857D02*
X41136159Y-104878238D01*
X41136159Y-104878238D02*
X41231397Y-104830619D01*
X41231397Y-104830619D02*
X41421873Y-104830619D01*
X41421873Y-104830619D02*
X41517111Y-104878238D01*
X41517111Y-104878238D02*
X41564730Y-104925857D01*
X41564730Y-104925857D02*
X41612349Y-105021095D01*
X41612349Y-105021095D02*
X41612349Y-105259190D01*
X41612349Y-105259190D02*
X41564730Y-105354428D01*
X41564730Y-105354428D02*
X41517111Y-105402047D01*
X41517111Y-105402047D02*
X41421873Y-105449666D01*
X41421873Y-105449666D02*
X41231397Y-105449666D01*
X41231397Y-105449666D02*
X41136159Y-105402047D01*
X41136159Y-105402047D02*
X41088540Y-105354428D01*
X41088540Y-105354428D02*
X41040921Y-105259190D01*
X43060921Y-125800619D02*
X43060921Y-124800619D01*
X43060921Y-124800619D02*
X42822826Y-124800619D01*
X42822826Y-124800619D02*
X42679969Y-124848238D01*
X42679969Y-124848238D02*
X42584731Y-124943476D01*
X42584731Y-124943476D02*
X42537112Y-125038714D01*
X42537112Y-125038714D02*
X42489493Y-125229190D01*
X42489493Y-125229190D02*
X42489493Y-125372047D01*
X42489493Y-125372047D02*
X42537112Y-125562523D01*
X42537112Y-125562523D02*
X42584731Y-125657761D01*
X42584731Y-125657761D02*
X42679969Y-125753000D01*
X42679969Y-125753000D02*
X42822826Y-125800619D01*
X42822826Y-125800619D02*
X43060921Y-125800619D01*
X41537112Y-125800619D02*
X42108540Y-125800619D01*
X41822826Y-125800619D02*
X41822826Y-124800619D01*
X41822826Y-124800619D02*
X41918064Y-124943476D01*
X41918064Y-124943476D02*
X42013302Y-125038714D01*
X42013302Y-125038714D02*
X42108540Y-125086333D01*
X40918064Y-124800619D02*
X40822826Y-124800619D01*
X40822826Y-124800619D02*
X40727588Y-124848238D01*
X40727588Y-124848238D02*
X40679969Y-124895857D01*
X40679969Y-124895857D02*
X40632350Y-124991095D01*
X40632350Y-124991095D02*
X40584731Y-125181571D01*
X40584731Y-125181571D02*
X40584731Y-125419666D01*
X40584731Y-125419666D02*
X40632350Y-125610142D01*
X40632350Y-125610142D02*
X40679969Y-125705380D01*
X40679969Y-125705380D02*
X40727588Y-125753000D01*
X40727588Y-125753000D02*
X40822826Y-125800619D01*
X40822826Y-125800619D02*
X40918064Y-125800619D01*
X40918064Y-125800619D02*
X41013302Y-125753000D01*
X41013302Y-125753000D02*
X41060921Y-125705380D01*
X41060921Y-125705380D02*
X41108540Y-125610142D01*
X41108540Y-125610142D02*
X41156159Y-125419666D01*
X41156159Y-125419666D02*
X41156159Y-125181571D01*
X41156159Y-125181571D02*
X41108540Y-124991095D01*
X41108540Y-124991095D02*
X41060921Y-124895857D01*
X41060921Y-124895857D02*
X41013302Y-124848238D01*
X41013302Y-124848238D02*
X40918064Y-124800619D01*
X68760921Y-55780619D02*
X68760921Y-54780619D01*
X68760921Y-54780619D02*
X68522826Y-54780619D01*
X68522826Y-54780619D02*
X68379969Y-54828238D01*
X68379969Y-54828238D02*
X68284731Y-54923476D01*
X68284731Y-54923476D02*
X68237112Y-55018714D01*
X68237112Y-55018714D02*
X68189493Y-55209190D01*
X68189493Y-55209190D02*
X68189493Y-55352047D01*
X68189493Y-55352047D02*
X68237112Y-55542523D01*
X68237112Y-55542523D02*
X68284731Y-55637761D01*
X68284731Y-55637761D02*
X68379969Y-55733000D01*
X68379969Y-55733000D02*
X68522826Y-55780619D01*
X68522826Y-55780619D02*
X68760921Y-55780619D01*
X67237112Y-55780619D02*
X67808540Y-55780619D01*
X67522826Y-55780619D02*
X67522826Y-54780619D01*
X67522826Y-54780619D02*
X67618064Y-54923476D01*
X67618064Y-54923476D02*
X67713302Y-55018714D01*
X67713302Y-55018714D02*
X67808540Y-55066333D01*
X66284731Y-55780619D02*
X66856159Y-55780619D01*
X66570445Y-55780619D02*
X66570445Y-54780619D01*
X66570445Y-54780619D02*
X66665683Y-54923476D01*
X66665683Y-54923476D02*
X66760921Y-55018714D01*
X66760921Y-55018714D02*
X66856159Y-55066333D01*
X66980921Y-75930619D02*
X66980921Y-74930619D01*
X66980921Y-74930619D02*
X66742826Y-74930619D01*
X66742826Y-74930619D02*
X66599969Y-74978238D01*
X66599969Y-74978238D02*
X66504731Y-75073476D01*
X66504731Y-75073476D02*
X66457112Y-75168714D01*
X66457112Y-75168714D02*
X66409493Y-75359190D01*
X66409493Y-75359190D02*
X66409493Y-75502047D01*
X66409493Y-75502047D02*
X66457112Y-75692523D01*
X66457112Y-75692523D02*
X66504731Y-75787761D01*
X66504731Y-75787761D02*
X66599969Y-75883000D01*
X66599969Y-75883000D02*
X66742826Y-75930619D01*
X66742826Y-75930619D02*
X66980921Y-75930619D01*
X65457112Y-75930619D02*
X66028540Y-75930619D01*
X65742826Y-75930619D02*
X65742826Y-74930619D01*
X65742826Y-74930619D02*
X65838064Y-75073476D01*
X65838064Y-75073476D02*
X65933302Y-75168714D01*
X65933302Y-75168714D02*
X66028540Y-75216333D01*
X65076159Y-75025857D02*
X65028540Y-74978238D01*
X65028540Y-74978238D02*
X64933302Y-74930619D01*
X64933302Y-74930619D02*
X64695207Y-74930619D01*
X64695207Y-74930619D02*
X64599969Y-74978238D01*
X64599969Y-74978238D02*
X64552350Y-75025857D01*
X64552350Y-75025857D02*
X64504731Y-75121095D01*
X64504731Y-75121095D02*
X64504731Y-75216333D01*
X64504731Y-75216333D02*
X64552350Y-75359190D01*
X64552350Y-75359190D02*
X65123778Y-75930619D01*
X65123778Y-75930619D02*
X64504731Y-75930619D01*
X65608421Y-95700619D02*
X65608421Y-94700619D01*
X65608421Y-94700619D02*
X65370326Y-94700619D01*
X65370326Y-94700619D02*
X65227469Y-94748238D01*
X65227469Y-94748238D02*
X65132231Y-94843476D01*
X65132231Y-94843476D02*
X65084612Y-94938714D01*
X65084612Y-94938714D02*
X65036993Y-95129190D01*
X65036993Y-95129190D02*
X65036993Y-95272047D01*
X65036993Y-95272047D02*
X65084612Y-95462523D01*
X65084612Y-95462523D02*
X65132231Y-95557761D01*
X65132231Y-95557761D02*
X65227469Y-95653000D01*
X65227469Y-95653000D02*
X65370326Y-95700619D01*
X65370326Y-95700619D02*
X65608421Y-95700619D01*
X64084612Y-95700619D02*
X64656040Y-95700619D01*
X64370326Y-95700619D02*
X64370326Y-94700619D01*
X64370326Y-94700619D02*
X64465564Y-94843476D01*
X64465564Y-94843476D02*
X64560802Y-94938714D01*
X64560802Y-94938714D02*
X64656040Y-94986333D01*
X63751278Y-94700619D02*
X63132231Y-94700619D01*
X63132231Y-94700619D02*
X63465564Y-95081571D01*
X63465564Y-95081571D02*
X63322707Y-95081571D01*
X63322707Y-95081571D02*
X63227469Y-95129190D01*
X63227469Y-95129190D02*
X63179850Y-95176809D01*
X63179850Y-95176809D02*
X63132231Y-95272047D01*
X63132231Y-95272047D02*
X63132231Y-95510142D01*
X63132231Y-95510142D02*
X63179850Y-95605380D01*
X63179850Y-95605380D02*
X63227469Y-95653000D01*
X63227469Y-95653000D02*
X63322707Y-95700619D01*
X63322707Y-95700619D02*
X63608421Y-95700619D01*
X63608421Y-95700619D02*
X63703659Y-95653000D01*
X63703659Y-95653000D02*
X63751278Y-95605380D01*
X62840921Y-115960619D02*
X62840921Y-114960619D01*
X62840921Y-114960619D02*
X62602826Y-114960619D01*
X62602826Y-114960619D02*
X62459969Y-115008238D01*
X62459969Y-115008238D02*
X62364731Y-115103476D01*
X62364731Y-115103476D02*
X62317112Y-115198714D01*
X62317112Y-115198714D02*
X62269493Y-115389190D01*
X62269493Y-115389190D02*
X62269493Y-115532047D01*
X62269493Y-115532047D02*
X62317112Y-115722523D01*
X62317112Y-115722523D02*
X62364731Y-115817761D01*
X62364731Y-115817761D02*
X62459969Y-115913000D01*
X62459969Y-115913000D02*
X62602826Y-115960619D01*
X62602826Y-115960619D02*
X62840921Y-115960619D01*
X61317112Y-115960619D02*
X61888540Y-115960619D01*
X61602826Y-115960619D02*
X61602826Y-114960619D01*
X61602826Y-114960619D02*
X61698064Y-115103476D01*
X61698064Y-115103476D02*
X61793302Y-115198714D01*
X61793302Y-115198714D02*
X61888540Y-115246333D01*
X60459969Y-115293952D02*
X60459969Y-115960619D01*
X60698064Y-114913000D02*
X60936159Y-115627285D01*
X60936159Y-115627285D02*
X60317112Y-115627285D01*
X71300921Y-136200619D02*
X71300921Y-135200619D01*
X71300921Y-135200619D02*
X71062826Y-135200619D01*
X71062826Y-135200619D02*
X70919969Y-135248238D01*
X70919969Y-135248238D02*
X70824731Y-135343476D01*
X70824731Y-135343476D02*
X70777112Y-135438714D01*
X70777112Y-135438714D02*
X70729493Y-135629190D01*
X70729493Y-135629190D02*
X70729493Y-135772047D01*
X70729493Y-135772047D02*
X70777112Y-135962523D01*
X70777112Y-135962523D02*
X70824731Y-136057761D01*
X70824731Y-136057761D02*
X70919969Y-136153000D01*
X70919969Y-136153000D02*
X71062826Y-136200619D01*
X71062826Y-136200619D02*
X71300921Y-136200619D01*
X69777112Y-136200619D02*
X70348540Y-136200619D01*
X70062826Y-136200619D02*
X70062826Y-135200619D01*
X70062826Y-135200619D02*
X70158064Y-135343476D01*
X70158064Y-135343476D02*
X70253302Y-135438714D01*
X70253302Y-135438714D02*
X70348540Y-135486333D01*
X68872350Y-135200619D02*
X69348540Y-135200619D01*
X69348540Y-135200619D02*
X69396159Y-135676809D01*
X69396159Y-135676809D02*
X69348540Y-135629190D01*
X69348540Y-135629190D02*
X69253302Y-135581571D01*
X69253302Y-135581571D02*
X69015207Y-135581571D01*
X69015207Y-135581571D02*
X68919969Y-135629190D01*
X68919969Y-135629190D02*
X68872350Y-135676809D01*
X68872350Y-135676809D02*
X68824731Y-135772047D01*
X68824731Y-135772047D02*
X68824731Y-136010142D01*
X68824731Y-136010142D02*
X68872350Y-136105380D01*
X68872350Y-136105380D02*
X68919969Y-136153000D01*
X68919969Y-136153000D02*
X69015207Y-136200619D01*
X69015207Y-136200619D02*
X69253302Y-136200619D01*
X69253302Y-136200619D02*
X69348540Y-136153000D01*
X69348540Y-136153000D02*
X69396159Y-136105380D01*
X92390921Y-55770619D02*
X92390921Y-54770619D01*
X92390921Y-54770619D02*
X92152826Y-54770619D01*
X92152826Y-54770619D02*
X92009969Y-54818238D01*
X92009969Y-54818238D02*
X91914731Y-54913476D01*
X91914731Y-54913476D02*
X91867112Y-55008714D01*
X91867112Y-55008714D02*
X91819493Y-55199190D01*
X91819493Y-55199190D02*
X91819493Y-55342047D01*
X91819493Y-55342047D02*
X91867112Y-55532523D01*
X91867112Y-55532523D02*
X91914731Y-55627761D01*
X91914731Y-55627761D02*
X92009969Y-55723000D01*
X92009969Y-55723000D02*
X92152826Y-55770619D01*
X92152826Y-55770619D02*
X92390921Y-55770619D01*
X90867112Y-55770619D02*
X91438540Y-55770619D01*
X91152826Y-55770619D02*
X91152826Y-54770619D01*
X91152826Y-54770619D02*
X91248064Y-54913476D01*
X91248064Y-54913476D02*
X91343302Y-55008714D01*
X91343302Y-55008714D02*
X91438540Y-55056333D01*
X90009969Y-54770619D02*
X90200445Y-54770619D01*
X90200445Y-54770619D02*
X90295683Y-54818238D01*
X90295683Y-54818238D02*
X90343302Y-54865857D01*
X90343302Y-54865857D02*
X90438540Y-55008714D01*
X90438540Y-55008714D02*
X90486159Y-55199190D01*
X90486159Y-55199190D02*
X90486159Y-55580142D01*
X90486159Y-55580142D02*
X90438540Y-55675380D01*
X90438540Y-55675380D02*
X90390921Y-55723000D01*
X90390921Y-55723000D02*
X90295683Y-55770619D01*
X90295683Y-55770619D02*
X90105207Y-55770619D01*
X90105207Y-55770619D02*
X90009969Y-55723000D01*
X90009969Y-55723000D02*
X89962350Y-55675380D01*
X89962350Y-55675380D02*
X89914731Y-55580142D01*
X89914731Y-55580142D02*
X89914731Y-55342047D01*
X89914731Y-55342047D02*
X89962350Y-55246809D01*
X89962350Y-55246809D02*
X90009969Y-55199190D01*
X90009969Y-55199190D02*
X90105207Y-55151571D01*
X90105207Y-55151571D02*
X90295683Y-55151571D01*
X90295683Y-55151571D02*
X90390921Y-55199190D01*
X90390921Y-55199190D02*
X90438540Y-55246809D01*
X90438540Y-55246809D02*
X90486159Y-55342047D01*
X90870921Y-71080619D02*
X90870921Y-70080619D01*
X90870921Y-70080619D02*
X90632826Y-70080619D01*
X90632826Y-70080619D02*
X90489969Y-70128238D01*
X90489969Y-70128238D02*
X90394731Y-70223476D01*
X90394731Y-70223476D02*
X90347112Y-70318714D01*
X90347112Y-70318714D02*
X90299493Y-70509190D01*
X90299493Y-70509190D02*
X90299493Y-70652047D01*
X90299493Y-70652047D02*
X90347112Y-70842523D01*
X90347112Y-70842523D02*
X90394731Y-70937761D01*
X90394731Y-70937761D02*
X90489969Y-71033000D01*
X90489969Y-71033000D02*
X90632826Y-71080619D01*
X90632826Y-71080619D02*
X90870921Y-71080619D01*
X89347112Y-71080619D02*
X89918540Y-71080619D01*
X89632826Y-71080619D02*
X89632826Y-70080619D01*
X89632826Y-70080619D02*
X89728064Y-70223476D01*
X89728064Y-70223476D02*
X89823302Y-70318714D01*
X89823302Y-70318714D02*
X89918540Y-70366333D01*
X89013778Y-70080619D02*
X88347112Y-70080619D01*
X88347112Y-70080619D02*
X88775683Y-71080619D01*
X87208421Y-90820619D02*
X87208421Y-89820619D01*
X87208421Y-89820619D02*
X86970326Y-89820619D01*
X86970326Y-89820619D02*
X86827469Y-89868238D01*
X86827469Y-89868238D02*
X86732231Y-89963476D01*
X86732231Y-89963476D02*
X86684612Y-90058714D01*
X86684612Y-90058714D02*
X86636993Y-90249190D01*
X86636993Y-90249190D02*
X86636993Y-90392047D01*
X86636993Y-90392047D02*
X86684612Y-90582523D01*
X86684612Y-90582523D02*
X86732231Y-90677761D01*
X86732231Y-90677761D02*
X86827469Y-90773000D01*
X86827469Y-90773000D02*
X86970326Y-90820619D01*
X86970326Y-90820619D02*
X87208421Y-90820619D01*
X85684612Y-90820619D02*
X86256040Y-90820619D01*
X85970326Y-90820619D02*
X85970326Y-89820619D01*
X85970326Y-89820619D02*
X86065564Y-89963476D01*
X86065564Y-89963476D02*
X86160802Y-90058714D01*
X86160802Y-90058714D02*
X86256040Y-90106333D01*
X85113183Y-90249190D02*
X85208421Y-90201571D01*
X85208421Y-90201571D02*
X85256040Y-90153952D01*
X85256040Y-90153952D02*
X85303659Y-90058714D01*
X85303659Y-90058714D02*
X85303659Y-90011095D01*
X85303659Y-90011095D02*
X85256040Y-89915857D01*
X85256040Y-89915857D02*
X85208421Y-89868238D01*
X85208421Y-89868238D02*
X85113183Y-89820619D01*
X85113183Y-89820619D02*
X84922707Y-89820619D01*
X84922707Y-89820619D02*
X84827469Y-89868238D01*
X84827469Y-89868238D02*
X84779850Y-89915857D01*
X84779850Y-89915857D02*
X84732231Y-90011095D01*
X84732231Y-90011095D02*
X84732231Y-90058714D01*
X84732231Y-90058714D02*
X84779850Y-90153952D01*
X84779850Y-90153952D02*
X84827469Y-90201571D01*
X84827469Y-90201571D02*
X84922707Y-90249190D01*
X84922707Y-90249190D02*
X85113183Y-90249190D01*
X85113183Y-90249190D02*
X85208421Y-90296809D01*
X85208421Y-90296809D02*
X85256040Y-90344428D01*
X85256040Y-90344428D02*
X85303659Y-90439666D01*
X85303659Y-90439666D02*
X85303659Y-90630142D01*
X85303659Y-90630142D02*
X85256040Y-90725380D01*
X85256040Y-90725380D02*
X85208421Y-90773000D01*
X85208421Y-90773000D02*
X85113183Y-90820619D01*
X85113183Y-90820619D02*
X84922707Y-90820619D01*
X84922707Y-90820619D02*
X84827469Y-90773000D01*
X84827469Y-90773000D02*
X84779850Y-90725380D01*
X84779850Y-90725380D02*
X84732231Y-90630142D01*
X84732231Y-90630142D02*
X84732231Y-90439666D01*
X84732231Y-90439666D02*
X84779850Y-90344428D01*
X84779850Y-90344428D02*
X84827469Y-90296809D01*
X84827469Y-90296809D02*
X84922707Y-90249190D01*
X83950921Y-110530619D02*
X83950921Y-109530619D01*
X83950921Y-109530619D02*
X83712826Y-109530619D01*
X83712826Y-109530619D02*
X83569969Y-109578238D01*
X83569969Y-109578238D02*
X83474731Y-109673476D01*
X83474731Y-109673476D02*
X83427112Y-109768714D01*
X83427112Y-109768714D02*
X83379493Y-109959190D01*
X83379493Y-109959190D02*
X83379493Y-110102047D01*
X83379493Y-110102047D02*
X83427112Y-110292523D01*
X83427112Y-110292523D02*
X83474731Y-110387761D01*
X83474731Y-110387761D02*
X83569969Y-110483000D01*
X83569969Y-110483000D02*
X83712826Y-110530619D01*
X83712826Y-110530619D02*
X83950921Y-110530619D01*
X82427112Y-110530619D02*
X82998540Y-110530619D01*
X82712826Y-110530619D02*
X82712826Y-109530619D01*
X82712826Y-109530619D02*
X82808064Y-109673476D01*
X82808064Y-109673476D02*
X82903302Y-109768714D01*
X82903302Y-109768714D02*
X82998540Y-109816333D01*
X81950921Y-110530619D02*
X81760445Y-110530619D01*
X81760445Y-110530619D02*
X81665207Y-110483000D01*
X81665207Y-110483000D02*
X81617588Y-110435380D01*
X81617588Y-110435380D02*
X81522350Y-110292523D01*
X81522350Y-110292523D02*
X81474731Y-110102047D01*
X81474731Y-110102047D02*
X81474731Y-109721095D01*
X81474731Y-109721095D02*
X81522350Y-109625857D01*
X81522350Y-109625857D02*
X81569969Y-109578238D01*
X81569969Y-109578238D02*
X81665207Y-109530619D01*
X81665207Y-109530619D02*
X81855683Y-109530619D01*
X81855683Y-109530619D02*
X81950921Y-109578238D01*
X81950921Y-109578238D02*
X81998540Y-109625857D01*
X81998540Y-109625857D02*
X82046159Y-109721095D01*
X82046159Y-109721095D02*
X82046159Y-109959190D01*
X82046159Y-109959190D02*
X81998540Y-110054428D01*
X81998540Y-110054428D02*
X81950921Y-110102047D01*
X81950921Y-110102047D02*
X81855683Y-110149666D01*
X81855683Y-110149666D02*
X81665207Y-110149666D01*
X81665207Y-110149666D02*
X81569969Y-110102047D01*
X81569969Y-110102047D02*
X81522350Y-110054428D01*
X81522350Y-110054428D02*
X81474731Y-109959190D01*
X94398421Y-137910619D02*
X94398421Y-136910619D01*
X94398421Y-136910619D02*
X94160326Y-136910619D01*
X94160326Y-136910619D02*
X94017469Y-136958238D01*
X94017469Y-136958238D02*
X93922231Y-137053476D01*
X93922231Y-137053476D02*
X93874612Y-137148714D01*
X93874612Y-137148714D02*
X93826993Y-137339190D01*
X93826993Y-137339190D02*
X93826993Y-137482047D01*
X93826993Y-137482047D02*
X93874612Y-137672523D01*
X93874612Y-137672523D02*
X93922231Y-137767761D01*
X93922231Y-137767761D02*
X94017469Y-137863000D01*
X94017469Y-137863000D02*
X94160326Y-137910619D01*
X94160326Y-137910619D02*
X94398421Y-137910619D01*
X93446040Y-137005857D02*
X93398421Y-136958238D01*
X93398421Y-136958238D02*
X93303183Y-136910619D01*
X93303183Y-136910619D02*
X93065088Y-136910619D01*
X93065088Y-136910619D02*
X92969850Y-136958238D01*
X92969850Y-136958238D02*
X92922231Y-137005857D01*
X92922231Y-137005857D02*
X92874612Y-137101095D01*
X92874612Y-137101095D02*
X92874612Y-137196333D01*
X92874612Y-137196333D02*
X92922231Y-137339190D01*
X92922231Y-137339190D02*
X93493659Y-137910619D01*
X93493659Y-137910619D02*
X92874612Y-137910619D01*
X92255564Y-136910619D02*
X92160326Y-136910619D01*
X92160326Y-136910619D02*
X92065088Y-136958238D01*
X92065088Y-136958238D02*
X92017469Y-137005857D01*
X92017469Y-137005857D02*
X91969850Y-137101095D01*
X91969850Y-137101095D02*
X91922231Y-137291571D01*
X91922231Y-137291571D02*
X91922231Y-137529666D01*
X91922231Y-137529666D02*
X91969850Y-137720142D01*
X91969850Y-137720142D02*
X92017469Y-137815380D01*
X92017469Y-137815380D02*
X92065088Y-137863000D01*
X92065088Y-137863000D02*
X92160326Y-137910619D01*
X92160326Y-137910619D02*
X92255564Y-137910619D01*
X92255564Y-137910619D02*
X92350802Y-137863000D01*
X92350802Y-137863000D02*
X92398421Y-137815380D01*
X92398421Y-137815380D02*
X92446040Y-137720142D01*
X92446040Y-137720142D02*
X92493659Y-137529666D01*
X92493659Y-137529666D02*
X92493659Y-137291571D01*
X92493659Y-137291571D02*
X92446040Y-137101095D01*
X92446040Y-137101095D02*
X92398421Y-137005857D01*
X92398421Y-137005857D02*
X92350802Y-136958238D01*
X92350802Y-136958238D02*
X92255564Y-136910619D01*
X111790921Y-59420619D02*
X111790921Y-58420619D01*
X111790921Y-58420619D02*
X111552826Y-58420619D01*
X111552826Y-58420619D02*
X111409969Y-58468238D01*
X111409969Y-58468238D02*
X111314731Y-58563476D01*
X111314731Y-58563476D02*
X111267112Y-58658714D01*
X111267112Y-58658714D02*
X111219493Y-58849190D01*
X111219493Y-58849190D02*
X111219493Y-58992047D01*
X111219493Y-58992047D02*
X111267112Y-59182523D01*
X111267112Y-59182523D02*
X111314731Y-59277761D01*
X111314731Y-59277761D02*
X111409969Y-59373000D01*
X111409969Y-59373000D02*
X111552826Y-59420619D01*
X111552826Y-59420619D02*
X111790921Y-59420619D01*
X110838540Y-58515857D02*
X110790921Y-58468238D01*
X110790921Y-58468238D02*
X110695683Y-58420619D01*
X110695683Y-58420619D02*
X110457588Y-58420619D01*
X110457588Y-58420619D02*
X110362350Y-58468238D01*
X110362350Y-58468238D02*
X110314731Y-58515857D01*
X110314731Y-58515857D02*
X110267112Y-58611095D01*
X110267112Y-58611095D02*
X110267112Y-58706333D01*
X110267112Y-58706333D02*
X110314731Y-58849190D01*
X110314731Y-58849190D02*
X110886159Y-59420619D01*
X110886159Y-59420619D02*
X110267112Y-59420619D01*
X109314731Y-59420619D02*
X109886159Y-59420619D01*
X109600445Y-59420619D02*
X109600445Y-58420619D01*
X109600445Y-58420619D02*
X109695683Y-58563476D01*
X109695683Y-58563476D02*
X109790921Y-58658714D01*
X109790921Y-58658714D02*
X109886159Y-58706333D01*
X109340921Y-78740619D02*
X109340921Y-77740619D01*
X109340921Y-77740619D02*
X109102826Y-77740619D01*
X109102826Y-77740619D02*
X108959969Y-77788238D01*
X108959969Y-77788238D02*
X108864731Y-77883476D01*
X108864731Y-77883476D02*
X108817112Y-77978714D01*
X108817112Y-77978714D02*
X108769493Y-78169190D01*
X108769493Y-78169190D02*
X108769493Y-78312047D01*
X108769493Y-78312047D02*
X108817112Y-78502523D01*
X108817112Y-78502523D02*
X108864731Y-78597761D01*
X108864731Y-78597761D02*
X108959969Y-78693000D01*
X108959969Y-78693000D02*
X109102826Y-78740619D01*
X109102826Y-78740619D02*
X109340921Y-78740619D01*
X108388540Y-77835857D02*
X108340921Y-77788238D01*
X108340921Y-77788238D02*
X108245683Y-77740619D01*
X108245683Y-77740619D02*
X108007588Y-77740619D01*
X108007588Y-77740619D02*
X107912350Y-77788238D01*
X107912350Y-77788238D02*
X107864731Y-77835857D01*
X107864731Y-77835857D02*
X107817112Y-77931095D01*
X107817112Y-77931095D02*
X107817112Y-78026333D01*
X107817112Y-78026333D02*
X107864731Y-78169190D01*
X107864731Y-78169190D02*
X108436159Y-78740619D01*
X108436159Y-78740619D02*
X107817112Y-78740619D01*
X107436159Y-77835857D02*
X107388540Y-77788238D01*
X107388540Y-77788238D02*
X107293302Y-77740619D01*
X107293302Y-77740619D02*
X107055207Y-77740619D01*
X107055207Y-77740619D02*
X106959969Y-77788238D01*
X106959969Y-77788238D02*
X106912350Y-77835857D01*
X106912350Y-77835857D02*
X106864731Y-77931095D01*
X106864731Y-77931095D02*
X106864731Y-78026333D01*
X106864731Y-78026333D02*
X106912350Y-78169190D01*
X106912350Y-78169190D02*
X107483778Y-78740619D01*
X107483778Y-78740619D02*
X106864731Y-78740619D01*
X105480921Y-98450619D02*
X105480921Y-97450619D01*
X105480921Y-97450619D02*
X105242826Y-97450619D01*
X105242826Y-97450619D02*
X105099969Y-97498238D01*
X105099969Y-97498238D02*
X105004731Y-97593476D01*
X105004731Y-97593476D02*
X104957112Y-97688714D01*
X104957112Y-97688714D02*
X104909493Y-97879190D01*
X104909493Y-97879190D02*
X104909493Y-98022047D01*
X104909493Y-98022047D02*
X104957112Y-98212523D01*
X104957112Y-98212523D02*
X105004731Y-98307761D01*
X105004731Y-98307761D02*
X105099969Y-98403000D01*
X105099969Y-98403000D02*
X105242826Y-98450619D01*
X105242826Y-98450619D02*
X105480921Y-98450619D01*
X104528540Y-97545857D02*
X104480921Y-97498238D01*
X104480921Y-97498238D02*
X104385683Y-97450619D01*
X104385683Y-97450619D02*
X104147588Y-97450619D01*
X104147588Y-97450619D02*
X104052350Y-97498238D01*
X104052350Y-97498238D02*
X104004731Y-97545857D01*
X104004731Y-97545857D02*
X103957112Y-97641095D01*
X103957112Y-97641095D02*
X103957112Y-97736333D01*
X103957112Y-97736333D02*
X104004731Y-97879190D01*
X104004731Y-97879190D02*
X104576159Y-98450619D01*
X104576159Y-98450619D02*
X103957112Y-98450619D01*
X103623778Y-97450619D02*
X103004731Y-97450619D01*
X103004731Y-97450619D02*
X103338064Y-97831571D01*
X103338064Y-97831571D02*
X103195207Y-97831571D01*
X103195207Y-97831571D02*
X103099969Y-97879190D01*
X103099969Y-97879190D02*
X103052350Y-97926809D01*
X103052350Y-97926809D02*
X103004731Y-98022047D01*
X103004731Y-98022047D02*
X103004731Y-98260142D01*
X103004731Y-98260142D02*
X103052350Y-98355380D01*
X103052350Y-98355380D02*
X103099969Y-98403000D01*
X103099969Y-98403000D02*
X103195207Y-98450619D01*
X103195207Y-98450619D02*
X103480921Y-98450619D01*
X103480921Y-98450619D02*
X103576159Y-98403000D01*
X103576159Y-98403000D02*
X103623778Y-98355380D01*
X101940921Y-118130619D02*
X101940921Y-117130619D01*
X101940921Y-117130619D02*
X101702826Y-117130619D01*
X101702826Y-117130619D02*
X101559969Y-117178238D01*
X101559969Y-117178238D02*
X101464731Y-117273476D01*
X101464731Y-117273476D02*
X101417112Y-117368714D01*
X101417112Y-117368714D02*
X101369493Y-117559190D01*
X101369493Y-117559190D02*
X101369493Y-117702047D01*
X101369493Y-117702047D02*
X101417112Y-117892523D01*
X101417112Y-117892523D02*
X101464731Y-117987761D01*
X101464731Y-117987761D02*
X101559969Y-118083000D01*
X101559969Y-118083000D02*
X101702826Y-118130619D01*
X101702826Y-118130619D02*
X101940921Y-118130619D01*
X100988540Y-117225857D02*
X100940921Y-117178238D01*
X100940921Y-117178238D02*
X100845683Y-117130619D01*
X100845683Y-117130619D02*
X100607588Y-117130619D01*
X100607588Y-117130619D02*
X100512350Y-117178238D01*
X100512350Y-117178238D02*
X100464731Y-117225857D01*
X100464731Y-117225857D02*
X100417112Y-117321095D01*
X100417112Y-117321095D02*
X100417112Y-117416333D01*
X100417112Y-117416333D02*
X100464731Y-117559190D01*
X100464731Y-117559190D02*
X101036159Y-118130619D01*
X101036159Y-118130619D02*
X100417112Y-118130619D01*
X99559969Y-117463952D02*
X99559969Y-118130619D01*
X99798064Y-117083000D02*
X100036159Y-117797285D01*
X100036159Y-117797285D02*
X99417112Y-117797285D01*
X114370921Y-144210619D02*
X114370921Y-143210619D01*
X114370921Y-143210619D02*
X114132826Y-143210619D01*
X114132826Y-143210619D02*
X113989969Y-143258238D01*
X113989969Y-143258238D02*
X113894731Y-143353476D01*
X113894731Y-143353476D02*
X113847112Y-143448714D01*
X113847112Y-143448714D02*
X113799493Y-143639190D01*
X113799493Y-143639190D02*
X113799493Y-143782047D01*
X113799493Y-143782047D02*
X113847112Y-143972523D01*
X113847112Y-143972523D02*
X113894731Y-144067761D01*
X113894731Y-144067761D02*
X113989969Y-144163000D01*
X113989969Y-144163000D02*
X114132826Y-144210619D01*
X114132826Y-144210619D02*
X114370921Y-144210619D01*
X113418540Y-143305857D02*
X113370921Y-143258238D01*
X113370921Y-143258238D02*
X113275683Y-143210619D01*
X113275683Y-143210619D02*
X113037588Y-143210619D01*
X113037588Y-143210619D02*
X112942350Y-143258238D01*
X112942350Y-143258238D02*
X112894731Y-143305857D01*
X112894731Y-143305857D02*
X112847112Y-143401095D01*
X112847112Y-143401095D02*
X112847112Y-143496333D01*
X112847112Y-143496333D02*
X112894731Y-143639190D01*
X112894731Y-143639190D02*
X113466159Y-144210619D01*
X113466159Y-144210619D02*
X112847112Y-144210619D01*
X111942350Y-143210619D02*
X112418540Y-143210619D01*
X112418540Y-143210619D02*
X112466159Y-143686809D01*
X112466159Y-143686809D02*
X112418540Y-143639190D01*
X112418540Y-143639190D02*
X112323302Y-143591571D01*
X112323302Y-143591571D02*
X112085207Y-143591571D01*
X112085207Y-143591571D02*
X111989969Y-143639190D01*
X111989969Y-143639190D02*
X111942350Y-143686809D01*
X111942350Y-143686809D02*
X111894731Y-143782047D01*
X111894731Y-143782047D02*
X111894731Y-144020142D01*
X111894731Y-144020142D02*
X111942350Y-144115380D01*
X111942350Y-144115380D02*
X111989969Y-144163000D01*
X111989969Y-144163000D02*
X112085207Y-144210619D01*
X112085207Y-144210619D02*
X112323302Y-144210619D01*
X112323302Y-144210619D02*
X112418540Y-144163000D01*
X112418540Y-144163000D02*
X112466159Y-144115380D01*
X131068421Y-64180619D02*
X131068421Y-63180619D01*
X131068421Y-63180619D02*
X130830326Y-63180619D01*
X130830326Y-63180619D02*
X130687469Y-63228238D01*
X130687469Y-63228238D02*
X130592231Y-63323476D01*
X130592231Y-63323476D02*
X130544612Y-63418714D01*
X130544612Y-63418714D02*
X130496993Y-63609190D01*
X130496993Y-63609190D02*
X130496993Y-63752047D01*
X130496993Y-63752047D02*
X130544612Y-63942523D01*
X130544612Y-63942523D02*
X130592231Y-64037761D01*
X130592231Y-64037761D02*
X130687469Y-64133000D01*
X130687469Y-64133000D02*
X130830326Y-64180619D01*
X130830326Y-64180619D02*
X131068421Y-64180619D01*
X130116040Y-63275857D02*
X130068421Y-63228238D01*
X130068421Y-63228238D02*
X129973183Y-63180619D01*
X129973183Y-63180619D02*
X129735088Y-63180619D01*
X129735088Y-63180619D02*
X129639850Y-63228238D01*
X129639850Y-63228238D02*
X129592231Y-63275857D01*
X129592231Y-63275857D02*
X129544612Y-63371095D01*
X129544612Y-63371095D02*
X129544612Y-63466333D01*
X129544612Y-63466333D02*
X129592231Y-63609190D01*
X129592231Y-63609190D02*
X130163659Y-64180619D01*
X130163659Y-64180619D02*
X129544612Y-64180619D01*
X128687469Y-63180619D02*
X128877945Y-63180619D01*
X128877945Y-63180619D02*
X128973183Y-63228238D01*
X128973183Y-63228238D02*
X129020802Y-63275857D01*
X129020802Y-63275857D02*
X129116040Y-63418714D01*
X129116040Y-63418714D02*
X129163659Y-63609190D01*
X129163659Y-63609190D02*
X129163659Y-63990142D01*
X129163659Y-63990142D02*
X129116040Y-64085380D01*
X129116040Y-64085380D02*
X129068421Y-64133000D01*
X129068421Y-64133000D02*
X128973183Y-64180619D01*
X128973183Y-64180619D02*
X128782707Y-64180619D01*
X128782707Y-64180619D02*
X128687469Y-64133000D01*
X128687469Y-64133000D02*
X128639850Y-64085380D01*
X128639850Y-64085380D02*
X128592231Y-63990142D01*
X128592231Y-63990142D02*
X128592231Y-63752047D01*
X128592231Y-63752047D02*
X128639850Y-63656809D01*
X128639850Y-63656809D02*
X128687469Y-63609190D01*
X128687469Y-63609190D02*
X128782707Y-63561571D01*
X128782707Y-63561571D02*
X128973183Y-63561571D01*
X128973183Y-63561571D02*
X129068421Y-63609190D01*
X129068421Y-63609190D02*
X129116040Y-63656809D01*
X129116040Y-63656809D02*
X129163659Y-63752047D01*
X126798421Y-83910619D02*
X126798421Y-82910619D01*
X126798421Y-82910619D02*
X126560326Y-82910619D01*
X126560326Y-82910619D02*
X126417469Y-82958238D01*
X126417469Y-82958238D02*
X126322231Y-83053476D01*
X126322231Y-83053476D02*
X126274612Y-83148714D01*
X126274612Y-83148714D02*
X126226993Y-83339190D01*
X126226993Y-83339190D02*
X126226993Y-83482047D01*
X126226993Y-83482047D02*
X126274612Y-83672523D01*
X126274612Y-83672523D02*
X126322231Y-83767761D01*
X126322231Y-83767761D02*
X126417469Y-83863000D01*
X126417469Y-83863000D02*
X126560326Y-83910619D01*
X126560326Y-83910619D02*
X126798421Y-83910619D01*
X125846040Y-83005857D02*
X125798421Y-82958238D01*
X125798421Y-82958238D02*
X125703183Y-82910619D01*
X125703183Y-82910619D02*
X125465088Y-82910619D01*
X125465088Y-82910619D02*
X125369850Y-82958238D01*
X125369850Y-82958238D02*
X125322231Y-83005857D01*
X125322231Y-83005857D02*
X125274612Y-83101095D01*
X125274612Y-83101095D02*
X125274612Y-83196333D01*
X125274612Y-83196333D02*
X125322231Y-83339190D01*
X125322231Y-83339190D02*
X125893659Y-83910619D01*
X125893659Y-83910619D02*
X125274612Y-83910619D01*
X124941278Y-82910619D02*
X124274612Y-82910619D01*
X124274612Y-82910619D02*
X124703183Y-83910619D01*
X125468421Y-103690619D02*
X125468421Y-102690619D01*
X125468421Y-102690619D02*
X125230326Y-102690619D01*
X125230326Y-102690619D02*
X125087469Y-102738238D01*
X125087469Y-102738238D02*
X124992231Y-102833476D01*
X124992231Y-102833476D02*
X124944612Y-102928714D01*
X124944612Y-102928714D02*
X124896993Y-103119190D01*
X124896993Y-103119190D02*
X124896993Y-103262047D01*
X124896993Y-103262047D02*
X124944612Y-103452523D01*
X124944612Y-103452523D02*
X124992231Y-103547761D01*
X124992231Y-103547761D02*
X125087469Y-103643000D01*
X125087469Y-103643000D02*
X125230326Y-103690619D01*
X125230326Y-103690619D02*
X125468421Y-103690619D01*
X124516040Y-102785857D02*
X124468421Y-102738238D01*
X124468421Y-102738238D02*
X124373183Y-102690619D01*
X124373183Y-102690619D02*
X124135088Y-102690619D01*
X124135088Y-102690619D02*
X124039850Y-102738238D01*
X124039850Y-102738238D02*
X123992231Y-102785857D01*
X123992231Y-102785857D02*
X123944612Y-102881095D01*
X123944612Y-102881095D02*
X123944612Y-102976333D01*
X123944612Y-102976333D02*
X123992231Y-103119190D01*
X123992231Y-103119190D02*
X124563659Y-103690619D01*
X124563659Y-103690619D02*
X123944612Y-103690619D01*
X123373183Y-103119190D02*
X123468421Y-103071571D01*
X123468421Y-103071571D02*
X123516040Y-103023952D01*
X123516040Y-103023952D02*
X123563659Y-102928714D01*
X123563659Y-102928714D02*
X123563659Y-102881095D01*
X123563659Y-102881095D02*
X123516040Y-102785857D01*
X123516040Y-102785857D02*
X123468421Y-102738238D01*
X123468421Y-102738238D02*
X123373183Y-102690619D01*
X123373183Y-102690619D02*
X123182707Y-102690619D01*
X123182707Y-102690619D02*
X123087469Y-102738238D01*
X123087469Y-102738238D02*
X123039850Y-102785857D01*
X123039850Y-102785857D02*
X122992231Y-102881095D01*
X122992231Y-102881095D02*
X122992231Y-102928714D01*
X122992231Y-102928714D02*
X123039850Y-103023952D01*
X123039850Y-103023952D02*
X123087469Y-103071571D01*
X123087469Y-103071571D02*
X123182707Y-103119190D01*
X123182707Y-103119190D02*
X123373183Y-103119190D01*
X123373183Y-103119190D02*
X123468421Y-103166809D01*
X123468421Y-103166809D02*
X123516040Y-103214428D01*
X123516040Y-103214428D02*
X123563659Y-103309666D01*
X123563659Y-103309666D02*
X123563659Y-103500142D01*
X123563659Y-103500142D02*
X123516040Y-103595380D01*
X123516040Y-103595380D02*
X123468421Y-103643000D01*
X123468421Y-103643000D02*
X123373183Y-103690619D01*
X123373183Y-103690619D02*
X123182707Y-103690619D01*
X123182707Y-103690619D02*
X123087469Y-103643000D01*
X123087469Y-103643000D02*
X123039850Y-103595380D01*
X123039850Y-103595380D02*
X122992231Y-103500142D01*
X122992231Y-103500142D02*
X122992231Y-103309666D01*
X122992231Y-103309666D02*
X123039850Y-103214428D01*
X123039850Y-103214428D02*
X123087469Y-103166809D01*
X123087469Y-103166809D02*
X123182707Y-103119190D01*
X121870921Y-123410619D02*
X121870921Y-122410619D01*
X121870921Y-122410619D02*
X121632826Y-122410619D01*
X121632826Y-122410619D02*
X121489969Y-122458238D01*
X121489969Y-122458238D02*
X121394731Y-122553476D01*
X121394731Y-122553476D02*
X121347112Y-122648714D01*
X121347112Y-122648714D02*
X121299493Y-122839190D01*
X121299493Y-122839190D02*
X121299493Y-122982047D01*
X121299493Y-122982047D02*
X121347112Y-123172523D01*
X121347112Y-123172523D02*
X121394731Y-123267761D01*
X121394731Y-123267761D02*
X121489969Y-123363000D01*
X121489969Y-123363000D02*
X121632826Y-123410619D01*
X121632826Y-123410619D02*
X121870921Y-123410619D01*
X120918540Y-122505857D02*
X120870921Y-122458238D01*
X120870921Y-122458238D02*
X120775683Y-122410619D01*
X120775683Y-122410619D02*
X120537588Y-122410619D01*
X120537588Y-122410619D02*
X120442350Y-122458238D01*
X120442350Y-122458238D02*
X120394731Y-122505857D01*
X120394731Y-122505857D02*
X120347112Y-122601095D01*
X120347112Y-122601095D02*
X120347112Y-122696333D01*
X120347112Y-122696333D02*
X120394731Y-122839190D01*
X120394731Y-122839190D02*
X120966159Y-123410619D01*
X120966159Y-123410619D02*
X120347112Y-123410619D01*
X119870921Y-123410619D02*
X119680445Y-123410619D01*
X119680445Y-123410619D02*
X119585207Y-123363000D01*
X119585207Y-123363000D02*
X119537588Y-123315380D01*
X119537588Y-123315380D02*
X119442350Y-123172523D01*
X119442350Y-123172523D02*
X119394731Y-122982047D01*
X119394731Y-122982047D02*
X119394731Y-122601095D01*
X119394731Y-122601095D02*
X119442350Y-122505857D01*
X119442350Y-122505857D02*
X119489969Y-122458238D01*
X119489969Y-122458238D02*
X119585207Y-122410619D01*
X119585207Y-122410619D02*
X119775683Y-122410619D01*
X119775683Y-122410619D02*
X119870921Y-122458238D01*
X119870921Y-122458238D02*
X119918540Y-122505857D01*
X119918540Y-122505857D02*
X119966159Y-122601095D01*
X119966159Y-122601095D02*
X119966159Y-122839190D01*
X119966159Y-122839190D02*
X119918540Y-122934428D01*
X119918540Y-122934428D02*
X119870921Y-122982047D01*
X119870921Y-122982047D02*
X119775683Y-123029666D01*
X119775683Y-123029666D02*
X119585207Y-123029666D01*
X119585207Y-123029666D02*
X119489969Y-122982047D01*
X119489969Y-122982047D02*
X119442350Y-122934428D01*
X119442350Y-122934428D02*
X119394731Y-122839190D01*
X133428421Y-157380619D02*
X133428421Y-156380619D01*
X133428421Y-156380619D02*
X133190326Y-156380619D01*
X133190326Y-156380619D02*
X133047469Y-156428238D01*
X133047469Y-156428238D02*
X132952231Y-156523476D01*
X132952231Y-156523476D02*
X132904612Y-156618714D01*
X132904612Y-156618714D02*
X132856993Y-156809190D01*
X132856993Y-156809190D02*
X132856993Y-156952047D01*
X132856993Y-156952047D02*
X132904612Y-157142523D01*
X132904612Y-157142523D02*
X132952231Y-157237761D01*
X132952231Y-157237761D02*
X133047469Y-157333000D01*
X133047469Y-157333000D02*
X133190326Y-157380619D01*
X133190326Y-157380619D02*
X133428421Y-157380619D01*
X132523659Y-156380619D02*
X131904612Y-156380619D01*
X131904612Y-156380619D02*
X132237945Y-156761571D01*
X132237945Y-156761571D02*
X132095088Y-156761571D01*
X132095088Y-156761571D02*
X131999850Y-156809190D01*
X131999850Y-156809190D02*
X131952231Y-156856809D01*
X131952231Y-156856809D02*
X131904612Y-156952047D01*
X131904612Y-156952047D02*
X131904612Y-157190142D01*
X131904612Y-157190142D02*
X131952231Y-157285380D01*
X131952231Y-157285380D02*
X131999850Y-157333000D01*
X131999850Y-157333000D02*
X132095088Y-157380619D01*
X132095088Y-157380619D02*
X132380802Y-157380619D01*
X132380802Y-157380619D02*
X132476040Y-157333000D01*
X132476040Y-157333000D02*
X132523659Y-157285380D01*
X131285564Y-156380619D02*
X131190326Y-156380619D01*
X131190326Y-156380619D02*
X131095088Y-156428238D01*
X131095088Y-156428238D02*
X131047469Y-156475857D01*
X131047469Y-156475857D02*
X130999850Y-156571095D01*
X130999850Y-156571095D02*
X130952231Y-156761571D01*
X130952231Y-156761571D02*
X130952231Y-156999666D01*
X130952231Y-156999666D02*
X130999850Y-157190142D01*
X130999850Y-157190142D02*
X131047469Y-157285380D01*
X131047469Y-157285380D02*
X131095088Y-157333000D01*
X131095088Y-157333000D02*
X131190326Y-157380619D01*
X131190326Y-157380619D02*
X131285564Y-157380619D01*
X131285564Y-157380619D02*
X131380802Y-157333000D01*
X131380802Y-157333000D02*
X131428421Y-157285380D01*
X131428421Y-157285380D02*
X131476040Y-157190142D01*
X131476040Y-157190142D02*
X131523659Y-156999666D01*
X131523659Y-156999666D02*
X131523659Y-156761571D01*
X131523659Y-156761571D02*
X131476040Y-156571095D01*
X131476040Y-156571095D02*
X131428421Y-156475857D01*
X131428421Y-156475857D02*
X131380802Y-156428238D01*
X131380802Y-156428238D02*
X131285564Y-156380619D01*
X165458955Y-153231514D02*
X164458955Y-153231514D01*
X164458955Y-153231514D02*
X164458955Y-153469609D01*
X164458955Y-153469609D02*
X164506574Y-153612466D01*
X164506574Y-153612466D02*
X164601812Y-153707704D01*
X164601812Y-153707704D02*
X164697050Y-153755323D01*
X164697050Y-153755323D02*
X164887526Y-153802942D01*
X164887526Y-153802942D02*
X165030383Y-153802942D01*
X165030383Y-153802942D02*
X165220859Y-153755323D01*
X165220859Y-153755323D02*
X165316097Y-153707704D01*
X165316097Y-153707704D02*
X165411336Y-153612466D01*
X165411336Y-153612466D02*
X165458955Y-153469609D01*
X165458955Y-153469609D02*
X165458955Y-153231514D01*
X164458955Y-154136276D02*
X164458955Y-154755323D01*
X164458955Y-154755323D02*
X164839907Y-154421990D01*
X164839907Y-154421990D02*
X164839907Y-154564847D01*
X164839907Y-154564847D02*
X164887526Y-154660085D01*
X164887526Y-154660085D02*
X164935145Y-154707704D01*
X164935145Y-154707704D02*
X165030383Y-154755323D01*
X165030383Y-154755323D02*
X165268478Y-154755323D01*
X165268478Y-154755323D02*
X165363716Y-154707704D01*
X165363716Y-154707704D02*
X165411336Y-154660085D01*
X165411336Y-154660085D02*
X165458955Y-154564847D01*
X165458955Y-154564847D02*
X165458955Y-154279133D01*
X165458955Y-154279133D02*
X165411336Y-154183895D01*
X165411336Y-154183895D02*
X165363716Y-154136276D01*
X165458955Y-155707704D02*
X165458955Y-155136276D01*
X165458955Y-155421990D02*
X164458955Y-155421990D01*
X164458955Y-155421990D02*
X164601812Y-155326752D01*
X164601812Y-155326752D02*
X164697050Y-155231514D01*
X164697050Y-155231514D02*
X164744669Y-155136276D01*
X188048421Y-74980619D02*
X188048421Y-73980619D01*
X188048421Y-73980619D02*
X187810326Y-73980619D01*
X187810326Y-73980619D02*
X187667469Y-74028238D01*
X187667469Y-74028238D02*
X187572231Y-74123476D01*
X187572231Y-74123476D02*
X187524612Y-74218714D01*
X187524612Y-74218714D02*
X187476993Y-74409190D01*
X187476993Y-74409190D02*
X187476993Y-74552047D01*
X187476993Y-74552047D02*
X187524612Y-74742523D01*
X187524612Y-74742523D02*
X187572231Y-74837761D01*
X187572231Y-74837761D02*
X187667469Y-74933000D01*
X187667469Y-74933000D02*
X187810326Y-74980619D01*
X187810326Y-74980619D02*
X188048421Y-74980619D01*
X187143659Y-73980619D02*
X186524612Y-73980619D01*
X186524612Y-73980619D02*
X186857945Y-74361571D01*
X186857945Y-74361571D02*
X186715088Y-74361571D01*
X186715088Y-74361571D02*
X186619850Y-74409190D01*
X186619850Y-74409190D02*
X186572231Y-74456809D01*
X186572231Y-74456809D02*
X186524612Y-74552047D01*
X186524612Y-74552047D02*
X186524612Y-74790142D01*
X186524612Y-74790142D02*
X186572231Y-74885380D01*
X186572231Y-74885380D02*
X186619850Y-74933000D01*
X186619850Y-74933000D02*
X186715088Y-74980619D01*
X186715088Y-74980619D02*
X187000802Y-74980619D01*
X187000802Y-74980619D02*
X187096040Y-74933000D01*
X187096040Y-74933000D02*
X187143659Y-74885380D01*
X186191278Y-73980619D02*
X185572231Y-73980619D01*
X185572231Y-73980619D02*
X185905564Y-74361571D01*
X185905564Y-74361571D02*
X185762707Y-74361571D01*
X185762707Y-74361571D02*
X185667469Y-74409190D01*
X185667469Y-74409190D02*
X185619850Y-74456809D01*
X185619850Y-74456809D02*
X185572231Y-74552047D01*
X185572231Y-74552047D02*
X185572231Y-74790142D01*
X185572231Y-74790142D02*
X185619850Y-74885380D01*
X185619850Y-74885380D02*
X185667469Y-74933000D01*
X185667469Y-74933000D02*
X185762707Y-74980619D01*
X185762707Y-74980619D02*
X186048421Y-74980619D01*
X186048421Y-74980619D02*
X186143659Y-74933000D01*
X186143659Y-74933000D02*
X186191278Y-74885380D01*
X191438421Y-95020619D02*
X191438421Y-94020619D01*
X191438421Y-94020619D02*
X191200326Y-94020619D01*
X191200326Y-94020619D02*
X191057469Y-94068238D01*
X191057469Y-94068238D02*
X190962231Y-94163476D01*
X190962231Y-94163476D02*
X190914612Y-94258714D01*
X190914612Y-94258714D02*
X190866993Y-94449190D01*
X190866993Y-94449190D02*
X190866993Y-94592047D01*
X190866993Y-94592047D02*
X190914612Y-94782523D01*
X190914612Y-94782523D02*
X190962231Y-94877761D01*
X190962231Y-94877761D02*
X191057469Y-94973000D01*
X191057469Y-94973000D02*
X191200326Y-95020619D01*
X191200326Y-95020619D02*
X191438421Y-95020619D01*
X190533659Y-94020619D02*
X189914612Y-94020619D01*
X189914612Y-94020619D02*
X190247945Y-94401571D01*
X190247945Y-94401571D02*
X190105088Y-94401571D01*
X190105088Y-94401571D02*
X190009850Y-94449190D01*
X190009850Y-94449190D02*
X189962231Y-94496809D01*
X189962231Y-94496809D02*
X189914612Y-94592047D01*
X189914612Y-94592047D02*
X189914612Y-94830142D01*
X189914612Y-94830142D02*
X189962231Y-94925380D01*
X189962231Y-94925380D02*
X190009850Y-94973000D01*
X190009850Y-94973000D02*
X190105088Y-95020619D01*
X190105088Y-95020619D02*
X190390802Y-95020619D01*
X190390802Y-95020619D02*
X190486040Y-94973000D01*
X190486040Y-94973000D02*
X190533659Y-94925380D01*
X189057469Y-94353952D02*
X189057469Y-95020619D01*
X189295564Y-93973000D02*
X189533659Y-94687285D01*
X189533659Y-94687285D02*
X188914612Y-94687285D01*
X195838421Y-116170619D02*
X195838421Y-115170619D01*
X195838421Y-115170619D02*
X195600326Y-115170619D01*
X195600326Y-115170619D02*
X195457469Y-115218238D01*
X195457469Y-115218238D02*
X195362231Y-115313476D01*
X195362231Y-115313476D02*
X195314612Y-115408714D01*
X195314612Y-115408714D02*
X195266993Y-115599190D01*
X195266993Y-115599190D02*
X195266993Y-115742047D01*
X195266993Y-115742047D02*
X195314612Y-115932523D01*
X195314612Y-115932523D02*
X195362231Y-116027761D01*
X195362231Y-116027761D02*
X195457469Y-116123000D01*
X195457469Y-116123000D02*
X195600326Y-116170619D01*
X195600326Y-116170619D02*
X195838421Y-116170619D01*
X194933659Y-115170619D02*
X194314612Y-115170619D01*
X194314612Y-115170619D02*
X194647945Y-115551571D01*
X194647945Y-115551571D02*
X194505088Y-115551571D01*
X194505088Y-115551571D02*
X194409850Y-115599190D01*
X194409850Y-115599190D02*
X194362231Y-115646809D01*
X194362231Y-115646809D02*
X194314612Y-115742047D01*
X194314612Y-115742047D02*
X194314612Y-115980142D01*
X194314612Y-115980142D02*
X194362231Y-116075380D01*
X194362231Y-116075380D02*
X194409850Y-116123000D01*
X194409850Y-116123000D02*
X194505088Y-116170619D01*
X194505088Y-116170619D02*
X194790802Y-116170619D01*
X194790802Y-116170619D02*
X194886040Y-116123000D01*
X194886040Y-116123000D02*
X194933659Y-116075380D01*
X193409850Y-115170619D02*
X193886040Y-115170619D01*
X193886040Y-115170619D02*
X193933659Y-115646809D01*
X193933659Y-115646809D02*
X193886040Y-115599190D01*
X193886040Y-115599190D02*
X193790802Y-115551571D01*
X193790802Y-115551571D02*
X193552707Y-115551571D01*
X193552707Y-115551571D02*
X193457469Y-115599190D01*
X193457469Y-115599190D02*
X193409850Y-115646809D01*
X193409850Y-115646809D02*
X193362231Y-115742047D01*
X193362231Y-115742047D02*
X193362231Y-115980142D01*
X193362231Y-115980142D02*
X193409850Y-116075380D01*
X193409850Y-116075380D02*
X193457469Y-116123000D01*
X193457469Y-116123000D02*
X193552707Y-116170619D01*
X193552707Y-116170619D02*
X193790802Y-116170619D01*
X193790802Y-116170619D02*
X193886040Y-116123000D01*
X193886040Y-116123000D02*
X193933659Y-116075380D01*
X198740921Y-133930619D02*
X198740921Y-132930619D01*
X198740921Y-132930619D02*
X198502826Y-132930619D01*
X198502826Y-132930619D02*
X198359969Y-132978238D01*
X198359969Y-132978238D02*
X198264731Y-133073476D01*
X198264731Y-133073476D02*
X198217112Y-133168714D01*
X198217112Y-133168714D02*
X198169493Y-133359190D01*
X198169493Y-133359190D02*
X198169493Y-133502047D01*
X198169493Y-133502047D02*
X198217112Y-133692523D01*
X198217112Y-133692523D02*
X198264731Y-133787761D01*
X198264731Y-133787761D02*
X198359969Y-133883000D01*
X198359969Y-133883000D02*
X198502826Y-133930619D01*
X198502826Y-133930619D02*
X198740921Y-133930619D01*
X197836159Y-132930619D02*
X197217112Y-132930619D01*
X197217112Y-132930619D02*
X197550445Y-133311571D01*
X197550445Y-133311571D02*
X197407588Y-133311571D01*
X197407588Y-133311571D02*
X197312350Y-133359190D01*
X197312350Y-133359190D02*
X197264731Y-133406809D01*
X197264731Y-133406809D02*
X197217112Y-133502047D01*
X197217112Y-133502047D02*
X197217112Y-133740142D01*
X197217112Y-133740142D02*
X197264731Y-133835380D01*
X197264731Y-133835380D02*
X197312350Y-133883000D01*
X197312350Y-133883000D02*
X197407588Y-133930619D01*
X197407588Y-133930619D02*
X197693302Y-133930619D01*
X197693302Y-133930619D02*
X197788540Y-133883000D01*
X197788540Y-133883000D02*
X197836159Y-133835380D01*
X196359969Y-132930619D02*
X196550445Y-132930619D01*
X196550445Y-132930619D02*
X196645683Y-132978238D01*
X196645683Y-132978238D02*
X196693302Y-133025857D01*
X196693302Y-133025857D02*
X196788540Y-133168714D01*
X196788540Y-133168714D02*
X196836159Y-133359190D01*
X196836159Y-133359190D02*
X196836159Y-133740142D01*
X196836159Y-133740142D02*
X196788540Y-133835380D01*
X196788540Y-133835380D02*
X196740921Y-133883000D01*
X196740921Y-133883000D02*
X196645683Y-133930619D01*
X196645683Y-133930619D02*
X196455207Y-133930619D01*
X196455207Y-133930619D02*
X196359969Y-133883000D01*
X196359969Y-133883000D02*
X196312350Y-133835380D01*
X196312350Y-133835380D02*
X196264731Y-133740142D01*
X196264731Y-133740142D02*
X196264731Y-133502047D01*
X196264731Y-133502047D02*
X196312350Y-133406809D01*
X196312350Y-133406809D02*
X196359969Y-133359190D01*
X196359969Y-133359190D02*
X196455207Y-133311571D01*
X196455207Y-133311571D02*
X196645683Y-133311571D01*
X196645683Y-133311571D02*
X196740921Y-133359190D01*
X196740921Y-133359190D02*
X196788540Y-133406809D01*
X196788540Y-133406809D02*
X196836159Y-133502047D01*
X181015294Y-141560900D02*
X181015294Y-140560900D01*
X181015294Y-140560900D02*
X180777199Y-140560900D01*
X180777199Y-140560900D02*
X180634342Y-140608519D01*
X180634342Y-140608519D02*
X180539104Y-140703757D01*
X180539104Y-140703757D02*
X180491485Y-140798995D01*
X180491485Y-140798995D02*
X180443866Y-140989471D01*
X180443866Y-140989471D02*
X180443866Y-141132328D01*
X180443866Y-141132328D02*
X180491485Y-141322804D01*
X180491485Y-141322804D02*
X180539104Y-141418042D01*
X180539104Y-141418042D02*
X180634342Y-141513281D01*
X180634342Y-141513281D02*
X180777199Y-141560900D01*
X180777199Y-141560900D02*
X181015294Y-141560900D01*
X180110532Y-140560900D02*
X179491485Y-140560900D01*
X179491485Y-140560900D02*
X179824818Y-140941852D01*
X179824818Y-140941852D02*
X179681961Y-140941852D01*
X179681961Y-140941852D02*
X179586723Y-140989471D01*
X179586723Y-140989471D02*
X179539104Y-141037090D01*
X179539104Y-141037090D02*
X179491485Y-141132328D01*
X179491485Y-141132328D02*
X179491485Y-141370423D01*
X179491485Y-141370423D02*
X179539104Y-141465661D01*
X179539104Y-141465661D02*
X179586723Y-141513281D01*
X179586723Y-141513281D02*
X179681961Y-141560900D01*
X179681961Y-141560900D02*
X179967675Y-141560900D01*
X179967675Y-141560900D02*
X180062913Y-141513281D01*
X180062913Y-141513281D02*
X180110532Y-141465661D01*
X179158151Y-140560900D02*
X178491485Y-140560900D01*
X178491485Y-140560900D02*
X178920056Y-141560900D01*
X206160921Y-70050619D02*
X206160921Y-69050619D01*
X206160921Y-69050619D02*
X205922826Y-69050619D01*
X205922826Y-69050619D02*
X205779969Y-69098238D01*
X205779969Y-69098238D02*
X205684731Y-69193476D01*
X205684731Y-69193476D02*
X205637112Y-69288714D01*
X205637112Y-69288714D02*
X205589493Y-69479190D01*
X205589493Y-69479190D02*
X205589493Y-69622047D01*
X205589493Y-69622047D02*
X205637112Y-69812523D01*
X205637112Y-69812523D02*
X205684731Y-69907761D01*
X205684731Y-69907761D02*
X205779969Y-70003000D01*
X205779969Y-70003000D02*
X205922826Y-70050619D01*
X205922826Y-70050619D02*
X206160921Y-70050619D01*
X205256159Y-69050619D02*
X204637112Y-69050619D01*
X204637112Y-69050619D02*
X204970445Y-69431571D01*
X204970445Y-69431571D02*
X204827588Y-69431571D01*
X204827588Y-69431571D02*
X204732350Y-69479190D01*
X204732350Y-69479190D02*
X204684731Y-69526809D01*
X204684731Y-69526809D02*
X204637112Y-69622047D01*
X204637112Y-69622047D02*
X204637112Y-69860142D01*
X204637112Y-69860142D02*
X204684731Y-69955380D01*
X204684731Y-69955380D02*
X204732350Y-70003000D01*
X204732350Y-70003000D02*
X204827588Y-70050619D01*
X204827588Y-70050619D02*
X205113302Y-70050619D01*
X205113302Y-70050619D02*
X205208540Y-70003000D01*
X205208540Y-70003000D02*
X205256159Y-69955380D01*
X204065683Y-69479190D02*
X204160921Y-69431571D01*
X204160921Y-69431571D02*
X204208540Y-69383952D01*
X204208540Y-69383952D02*
X204256159Y-69288714D01*
X204256159Y-69288714D02*
X204256159Y-69241095D01*
X204256159Y-69241095D02*
X204208540Y-69145857D01*
X204208540Y-69145857D02*
X204160921Y-69098238D01*
X204160921Y-69098238D02*
X204065683Y-69050619D01*
X204065683Y-69050619D02*
X203875207Y-69050619D01*
X203875207Y-69050619D02*
X203779969Y-69098238D01*
X203779969Y-69098238D02*
X203732350Y-69145857D01*
X203732350Y-69145857D02*
X203684731Y-69241095D01*
X203684731Y-69241095D02*
X203684731Y-69288714D01*
X203684731Y-69288714D02*
X203732350Y-69383952D01*
X203732350Y-69383952D02*
X203779969Y-69431571D01*
X203779969Y-69431571D02*
X203875207Y-69479190D01*
X203875207Y-69479190D02*
X204065683Y-69479190D01*
X204065683Y-69479190D02*
X204160921Y-69526809D01*
X204160921Y-69526809D02*
X204208540Y-69574428D01*
X204208540Y-69574428D02*
X204256159Y-69669666D01*
X204256159Y-69669666D02*
X204256159Y-69860142D01*
X204256159Y-69860142D02*
X204208540Y-69955380D01*
X204208540Y-69955380D02*
X204160921Y-70003000D01*
X204160921Y-70003000D02*
X204065683Y-70050619D01*
X204065683Y-70050619D02*
X203875207Y-70050619D01*
X203875207Y-70050619D02*
X203779969Y-70003000D01*
X203779969Y-70003000D02*
X203732350Y-69955380D01*
X203732350Y-69955380D02*
X203684731Y-69860142D01*
X203684731Y-69860142D02*
X203684731Y-69669666D01*
X203684731Y-69669666D02*
X203732350Y-69574428D01*
X203732350Y-69574428D02*
X203779969Y-69526809D01*
X203779969Y-69526809D02*
X203875207Y-69479190D01*
X209958421Y-87270619D02*
X209958421Y-86270619D01*
X209958421Y-86270619D02*
X209720326Y-86270619D01*
X209720326Y-86270619D02*
X209577469Y-86318238D01*
X209577469Y-86318238D02*
X209482231Y-86413476D01*
X209482231Y-86413476D02*
X209434612Y-86508714D01*
X209434612Y-86508714D02*
X209386993Y-86699190D01*
X209386993Y-86699190D02*
X209386993Y-86842047D01*
X209386993Y-86842047D02*
X209434612Y-87032523D01*
X209434612Y-87032523D02*
X209482231Y-87127761D01*
X209482231Y-87127761D02*
X209577469Y-87223000D01*
X209577469Y-87223000D02*
X209720326Y-87270619D01*
X209720326Y-87270619D02*
X209958421Y-87270619D01*
X209053659Y-86270619D02*
X208434612Y-86270619D01*
X208434612Y-86270619D02*
X208767945Y-86651571D01*
X208767945Y-86651571D02*
X208625088Y-86651571D01*
X208625088Y-86651571D02*
X208529850Y-86699190D01*
X208529850Y-86699190D02*
X208482231Y-86746809D01*
X208482231Y-86746809D02*
X208434612Y-86842047D01*
X208434612Y-86842047D02*
X208434612Y-87080142D01*
X208434612Y-87080142D02*
X208482231Y-87175380D01*
X208482231Y-87175380D02*
X208529850Y-87223000D01*
X208529850Y-87223000D02*
X208625088Y-87270619D01*
X208625088Y-87270619D02*
X208910802Y-87270619D01*
X208910802Y-87270619D02*
X209006040Y-87223000D01*
X209006040Y-87223000D02*
X209053659Y-87175380D01*
X207958421Y-87270619D02*
X207767945Y-87270619D01*
X207767945Y-87270619D02*
X207672707Y-87223000D01*
X207672707Y-87223000D02*
X207625088Y-87175380D01*
X207625088Y-87175380D02*
X207529850Y-87032523D01*
X207529850Y-87032523D02*
X207482231Y-86842047D01*
X207482231Y-86842047D02*
X207482231Y-86461095D01*
X207482231Y-86461095D02*
X207529850Y-86365857D01*
X207529850Y-86365857D02*
X207577469Y-86318238D01*
X207577469Y-86318238D02*
X207672707Y-86270619D01*
X207672707Y-86270619D02*
X207863183Y-86270619D01*
X207863183Y-86270619D02*
X207958421Y-86318238D01*
X207958421Y-86318238D02*
X208006040Y-86365857D01*
X208006040Y-86365857D02*
X208053659Y-86461095D01*
X208053659Y-86461095D02*
X208053659Y-86699190D01*
X208053659Y-86699190D02*
X208006040Y-86794428D01*
X208006040Y-86794428D02*
X207958421Y-86842047D01*
X207958421Y-86842047D02*
X207863183Y-86889666D01*
X207863183Y-86889666D02*
X207672707Y-86889666D01*
X207672707Y-86889666D02*
X207577469Y-86842047D01*
X207577469Y-86842047D02*
X207529850Y-86794428D01*
X207529850Y-86794428D02*
X207482231Y-86699190D01*
X214070921Y-110710619D02*
X214070921Y-109710619D01*
X214070921Y-109710619D02*
X213832826Y-109710619D01*
X213832826Y-109710619D02*
X213689969Y-109758238D01*
X213689969Y-109758238D02*
X213594731Y-109853476D01*
X213594731Y-109853476D02*
X213547112Y-109948714D01*
X213547112Y-109948714D02*
X213499493Y-110139190D01*
X213499493Y-110139190D02*
X213499493Y-110282047D01*
X213499493Y-110282047D02*
X213547112Y-110472523D01*
X213547112Y-110472523D02*
X213594731Y-110567761D01*
X213594731Y-110567761D02*
X213689969Y-110663000D01*
X213689969Y-110663000D02*
X213832826Y-110710619D01*
X213832826Y-110710619D02*
X214070921Y-110710619D01*
X212642350Y-110043952D02*
X212642350Y-110710619D01*
X212880445Y-109663000D02*
X213118540Y-110377285D01*
X213118540Y-110377285D02*
X212499493Y-110377285D01*
X211928064Y-109710619D02*
X211832826Y-109710619D01*
X211832826Y-109710619D02*
X211737588Y-109758238D01*
X211737588Y-109758238D02*
X211689969Y-109805857D01*
X211689969Y-109805857D02*
X211642350Y-109901095D01*
X211642350Y-109901095D02*
X211594731Y-110091571D01*
X211594731Y-110091571D02*
X211594731Y-110329666D01*
X211594731Y-110329666D02*
X211642350Y-110520142D01*
X211642350Y-110520142D02*
X211689969Y-110615380D01*
X211689969Y-110615380D02*
X211737588Y-110663000D01*
X211737588Y-110663000D02*
X211832826Y-110710619D01*
X211832826Y-110710619D02*
X211928064Y-110710619D01*
X211928064Y-110710619D02*
X212023302Y-110663000D01*
X212023302Y-110663000D02*
X212070921Y-110615380D01*
X212070921Y-110615380D02*
X212118540Y-110520142D01*
X212118540Y-110520142D02*
X212166159Y-110329666D01*
X212166159Y-110329666D02*
X212166159Y-110091571D01*
X212166159Y-110091571D02*
X212118540Y-109901095D01*
X212118540Y-109901095D02*
X212070921Y-109805857D01*
X212070921Y-109805857D02*
X212023302Y-109758238D01*
X212023302Y-109758238D02*
X211928064Y-109710619D01*
X217690921Y-130560619D02*
X217690921Y-129560619D01*
X217690921Y-129560619D02*
X217452826Y-129560619D01*
X217452826Y-129560619D02*
X217309969Y-129608238D01*
X217309969Y-129608238D02*
X217214731Y-129703476D01*
X217214731Y-129703476D02*
X217167112Y-129798714D01*
X217167112Y-129798714D02*
X217119493Y-129989190D01*
X217119493Y-129989190D02*
X217119493Y-130132047D01*
X217119493Y-130132047D02*
X217167112Y-130322523D01*
X217167112Y-130322523D02*
X217214731Y-130417761D01*
X217214731Y-130417761D02*
X217309969Y-130513000D01*
X217309969Y-130513000D02*
X217452826Y-130560619D01*
X217452826Y-130560619D02*
X217690921Y-130560619D01*
X216262350Y-129893952D02*
X216262350Y-130560619D01*
X216500445Y-129513000D02*
X216738540Y-130227285D01*
X216738540Y-130227285D02*
X216119493Y-130227285D01*
X215214731Y-130560619D02*
X215786159Y-130560619D01*
X215500445Y-130560619D02*
X215500445Y-129560619D01*
X215500445Y-129560619D02*
X215595683Y-129703476D01*
X215595683Y-129703476D02*
X215690921Y-129798714D01*
X215690921Y-129798714D02*
X215786159Y-129846333D01*
X205178421Y-136890619D02*
X205178421Y-135890619D01*
X205178421Y-135890619D02*
X204940326Y-135890619D01*
X204940326Y-135890619D02*
X204797469Y-135938238D01*
X204797469Y-135938238D02*
X204702231Y-136033476D01*
X204702231Y-136033476D02*
X204654612Y-136128714D01*
X204654612Y-136128714D02*
X204606993Y-136319190D01*
X204606993Y-136319190D02*
X204606993Y-136462047D01*
X204606993Y-136462047D02*
X204654612Y-136652523D01*
X204654612Y-136652523D02*
X204702231Y-136747761D01*
X204702231Y-136747761D02*
X204797469Y-136843000D01*
X204797469Y-136843000D02*
X204940326Y-136890619D01*
X204940326Y-136890619D02*
X205178421Y-136890619D01*
X203749850Y-136223952D02*
X203749850Y-136890619D01*
X203987945Y-135843000D02*
X204226040Y-136557285D01*
X204226040Y-136557285D02*
X203606993Y-136557285D01*
X203273659Y-135985857D02*
X203226040Y-135938238D01*
X203226040Y-135938238D02*
X203130802Y-135890619D01*
X203130802Y-135890619D02*
X202892707Y-135890619D01*
X202892707Y-135890619D02*
X202797469Y-135938238D01*
X202797469Y-135938238D02*
X202749850Y-135985857D01*
X202749850Y-135985857D02*
X202702231Y-136081095D01*
X202702231Y-136081095D02*
X202702231Y-136176333D01*
X202702231Y-136176333D02*
X202749850Y-136319190D01*
X202749850Y-136319190D02*
X203321278Y-136890619D01*
X203321278Y-136890619D02*
X202702231Y-136890619D01*
X227200921Y-63490619D02*
X227200921Y-62490619D01*
X227200921Y-62490619D02*
X226962826Y-62490619D01*
X226962826Y-62490619D02*
X226819969Y-62538238D01*
X226819969Y-62538238D02*
X226724731Y-62633476D01*
X226724731Y-62633476D02*
X226677112Y-62728714D01*
X226677112Y-62728714D02*
X226629493Y-62919190D01*
X226629493Y-62919190D02*
X226629493Y-63062047D01*
X226629493Y-63062047D02*
X226677112Y-63252523D01*
X226677112Y-63252523D02*
X226724731Y-63347761D01*
X226724731Y-63347761D02*
X226819969Y-63443000D01*
X226819969Y-63443000D02*
X226962826Y-63490619D01*
X226962826Y-63490619D02*
X227200921Y-63490619D01*
X225772350Y-62823952D02*
X225772350Y-63490619D01*
X226010445Y-62443000D02*
X226248540Y-63157285D01*
X226248540Y-63157285D02*
X225629493Y-63157285D01*
X225343778Y-62490619D02*
X224724731Y-62490619D01*
X224724731Y-62490619D02*
X225058064Y-62871571D01*
X225058064Y-62871571D02*
X224915207Y-62871571D01*
X224915207Y-62871571D02*
X224819969Y-62919190D01*
X224819969Y-62919190D02*
X224772350Y-62966809D01*
X224772350Y-62966809D02*
X224724731Y-63062047D01*
X224724731Y-63062047D02*
X224724731Y-63300142D01*
X224724731Y-63300142D02*
X224772350Y-63395380D01*
X224772350Y-63395380D02*
X224819969Y-63443000D01*
X224819969Y-63443000D02*
X224915207Y-63490619D01*
X224915207Y-63490619D02*
X225200921Y-63490619D01*
X225200921Y-63490619D02*
X225296159Y-63443000D01*
X225296159Y-63443000D02*
X225343778Y-63395380D01*
X230618421Y-83180619D02*
X230618421Y-82180619D01*
X230618421Y-82180619D02*
X230380326Y-82180619D01*
X230380326Y-82180619D02*
X230237469Y-82228238D01*
X230237469Y-82228238D02*
X230142231Y-82323476D01*
X230142231Y-82323476D02*
X230094612Y-82418714D01*
X230094612Y-82418714D02*
X230046993Y-82609190D01*
X230046993Y-82609190D02*
X230046993Y-82752047D01*
X230046993Y-82752047D02*
X230094612Y-82942523D01*
X230094612Y-82942523D02*
X230142231Y-83037761D01*
X230142231Y-83037761D02*
X230237469Y-83133000D01*
X230237469Y-83133000D02*
X230380326Y-83180619D01*
X230380326Y-83180619D02*
X230618421Y-83180619D01*
X229189850Y-82513952D02*
X229189850Y-83180619D01*
X229427945Y-82133000D02*
X229666040Y-82847285D01*
X229666040Y-82847285D02*
X229046993Y-82847285D01*
X228237469Y-82513952D02*
X228237469Y-83180619D01*
X228475564Y-82133000D02*
X228713659Y-82847285D01*
X228713659Y-82847285D02*
X228094612Y-82847285D01*
X234028421Y-102730619D02*
X234028421Y-101730619D01*
X234028421Y-101730619D02*
X233790326Y-101730619D01*
X233790326Y-101730619D02*
X233647469Y-101778238D01*
X233647469Y-101778238D02*
X233552231Y-101873476D01*
X233552231Y-101873476D02*
X233504612Y-101968714D01*
X233504612Y-101968714D02*
X233456993Y-102159190D01*
X233456993Y-102159190D02*
X233456993Y-102302047D01*
X233456993Y-102302047D02*
X233504612Y-102492523D01*
X233504612Y-102492523D02*
X233552231Y-102587761D01*
X233552231Y-102587761D02*
X233647469Y-102683000D01*
X233647469Y-102683000D02*
X233790326Y-102730619D01*
X233790326Y-102730619D02*
X234028421Y-102730619D01*
X232599850Y-102063952D02*
X232599850Y-102730619D01*
X232837945Y-101683000D02*
X233076040Y-102397285D01*
X233076040Y-102397285D02*
X232456993Y-102397285D01*
X231599850Y-101730619D02*
X232076040Y-101730619D01*
X232076040Y-101730619D02*
X232123659Y-102206809D01*
X232123659Y-102206809D02*
X232076040Y-102159190D01*
X232076040Y-102159190D02*
X231980802Y-102111571D01*
X231980802Y-102111571D02*
X231742707Y-102111571D01*
X231742707Y-102111571D02*
X231647469Y-102159190D01*
X231647469Y-102159190D02*
X231599850Y-102206809D01*
X231599850Y-102206809D02*
X231552231Y-102302047D01*
X231552231Y-102302047D02*
X231552231Y-102540142D01*
X231552231Y-102540142D02*
X231599850Y-102635380D01*
X231599850Y-102635380D02*
X231647469Y-102683000D01*
X231647469Y-102683000D02*
X231742707Y-102730619D01*
X231742707Y-102730619D02*
X231980802Y-102730619D01*
X231980802Y-102730619D02*
X232076040Y-102683000D01*
X232076040Y-102683000D02*
X232123659Y-102635380D01*
X235038421Y-122720619D02*
X235038421Y-121720619D01*
X235038421Y-121720619D02*
X234800326Y-121720619D01*
X234800326Y-121720619D02*
X234657469Y-121768238D01*
X234657469Y-121768238D02*
X234562231Y-121863476D01*
X234562231Y-121863476D02*
X234514612Y-121958714D01*
X234514612Y-121958714D02*
X234466993Y-122149190D01*
X234466993Y-122149190D02*
X234466993Y-122292047D01*
X234466993Y-122292047D02*
X234514612Y-122482523D01*
X234514612Y-122482523D02*
X234562231Y-122577761D01*
X234562231Y-122577761D02*
X234657469Y-122673000D01*
X234657469Y-122673000D02*
X234800326Y-122720619D01*
X234800326Y-122720619D02*
X235038421Y-122720619D01*
X233609850Y-122053952D02*
X233609850Y-122720619D01*
X233847945Y-121673000D02*
X234086040Y-122387285D01*
X234086040Y-122387285D02*
X233466993Y-122387285D01*
X232657469Y-121720619D02*
X232847945Y-121720619D01*
X232847945Y-121720619D02*
X232943183Y-121768238D01*
X232943183Y-121768238D02*
X232990802Y-121815857D01*
X232990802Y-121815857D02*
X233086040Y-121958714D01*
X233086040Y-121958714D02*
X233133659Y-122149190D01*
X233133659Y-122149190D02*
X233133659Y-122530142D01*
X233133659Y-122530142D02*
X233086040Y-122625380D01*
X233086040Y-122625380D02*
X233038421Y-122673000D01*
X233038421Y-122673000D02*
X232943183Y-122720619D01*
X232943183Y-122720619D02*
X232752707Y-122720619D01*
X232752707Y-122720619D02*
X232657469Y-122673000D01*
X232657469Y-122673000D02*
X232609850Y-122625380D01*
X232609850Y-122625380D02*
X232562231Y-122530142D01*
X232562231Y-122530142D02*
X232562231Y-122292047D01*
X232562231Y-122292047D02*
X232609850Y-122196809D01*
X232609850Y-122196809D02*
X232657469Y-122149190D01*
X232657469Y-122149190D02*
X232752707Y-122101571D01*
X232752707Y-122101571D02*
X232943183Y-122101571D01*
X232943183Y-122101571D02*
X233038421Y-122149190D01*
X233038421Y-122149190D02*
X233086040Y-122196809D01*
X233086040Y-122196809D02*
X233133659Y-122292047D01*
X226188421Y-133460618D02*
X226188421Y-132460618D01*
X226188421Y-132460618D02*
X225950326Y-132460618D01*
X225950326Y-132460618D02*
X225807469Y-132508237D01*
X225807469Y-132508237D02*
X225712231Y-132603475D01*
X225712231Y-132603475D02*
X225664612Y-132698713D01*
X225664612Y-132698713D02*
X225616993Y-132889189D01*
X225616993Y-132889189D02*
X225616993Y-133032046D01*
X225616993Y-133032046D02*
X225664612Y-133222522D01*
X225664612Y-133222522D02*
X225712231Y-133317760D01*
X225712231Y-133317760D02*
X225807469Y-133412999D01*
X225807469Y-133412999D02*
X225950326Y-133460618D01*
X225950326Y-133460618D02*
X226188421Y-133460618D01*
X224759850Y-132793951D02*
X224759850Y-133460618D01*
X224997945Y-132412999D02*
X225236040Y-133127284D01*
X225236040Y-133127284D02*
X224616993Y-133127284D01*
X224331278Y-132460618D02*
X223664612Y-132460618D01*
X223664612Y-132460618D02*
X224093183Y-133460618D01*
X253400921Y-54680619D02*
X253400921Y-53680619D01*
X253400921Y-53680619D02*
X253162826Y-53680619D01*
X253162826Y-53680619D02*
X253019969Y-53728238D01*
X253019969Y-53728238D02*
X252924731Y-53823476D01*
X252924731Y-53823476D02*
X252877112Y-53918714D01*
X252877112Y-53918714D02*
X252829493Y-54109190D01*
X252829493Y-54109190D02*
X252829493Y-54252047D01*
X252829493Y-54252047D02*
X252877112Y-54442523D01*
X252877112Y-54442523D02*
X252924731Y-54537761D01*
X252924731Y-54537761D02*
X253019969Y-54633000D01*
X253019969Y-54633000D02*
X253162826Y-54680619D01*
X253162826Y-54680619D02*
X253400921Y-54680619D01*
X251972350Y-54013952D02*
X251972350Y-54680619D01*
X252210445Y-53633000D02*
X252448540Y-54347285D01*
X252448540Y-54347285D02*
X251829493Y-54347285D01*
X251305683Y-54109190D02*
X251400921Y-54061571D01*
X251400921Y-54061571D02*
X251448540Y-54013952D01*
X251448540Y-54013952D02*
X251496159Y-53918714D01*
X251496159Y-53918714D02*
X251496159Y-53871095D01*
X251496159Y-53871095D02*
X251448540Y-53775857D01*
X251448540Y-53775857D02*
X251400921Y-53728238D01*
X251400921Y-53728238D02*
X251305683Y-53680619D01*
X251305683Y-53680619D02*
X251115207Y-53680619D01*
X251115207Y-53680619D02*
X251019969Y-53728238D01*
X251019969Y-53728238D02*
X250972350Y-53775857D01*
X250972350Y-53775857D02*
X250924731Y-53871095D01*
X250924731Y-53871095D02*
X250924731Y-53918714D01*
X250924731Y-53918714D02*
X250972350Y-54013952D01*
X250972350Y-54013952D02*
X251019969Y-54061571D01*
X251019969Y-54061571D02*
X251115207Y-54109190D01*
X251115207Y-54109190D02*
X251305683Y-54109190D01*
X251305683Y-54109190D02*
X251400921Y-54156809D01*
X251400921Y-54156809D02*
X251448540Y-54204428D01*
X251448540Y-54204428D02*
X251496159Y-54299666D01*
X251496159Y-54299666D02*
X251496159Y-54490142D01*
X251496159Y-54490142D02*
X251448540Y-54585380D01*
X251448540Y-54585380D02*
X251400921Y-54633000D01*
X251400921Y-54633000D02*
X251305683Y-54680619D01*
X251305683Y-54680619D02*
X251115207Y-54680619D01*
X251115207Y-54680619D02*
X251019969Y-54633000D01*
X251019969Y-54633000D02*
X250972350Y-54585380D01*
X250972350Y-54585380D02*
X250924731Y-54490142D01*
X250924731Y-54490142D02*
X250924731Y-54299666D01*
X250924731Y-54299666D02*
X250972350Y-54204428D01*
X250972350Y-54204428D02*
X251019969Y-54156809D01*
X251019969Y-54156809D02*
X251115207Y-54109190D01*
X255350921Y-74780619D02*
X255350921Y-73780619D01*
X255350921Y-73780619D02*
X255112826Y-73780619D01*
X255112826Y-73780619D02*
X254969969Y-73828238D01*
X254969969Y-73828238D02*
X254874731Y-73923476D01*
X254874731Y-73923476D02*
X254827112Y-74018714D01*
X254827112Y-74018714D02*
X254779493Y-74209190D01*
X254779493Y-74209190D02*
X254779493Y-74352047D01*
X254779493Y-74352047D02*
X254827112Y-74542523D01*
X254827112Y-74542523D02*
X254874731Y-74637761D01*
X254874731Y-74637761D02*
X254969969Y-74733000D01*
X254969969Y-74733000D02*
X255112826Y-74780619D01*
X255112826Y-74780619D02*
X255350921Y-74780619D01*
X253922350Y-74113952D02*
X253922350Y-74780619D01*
X254160445Y-73733000D02*
X254398540Y-74447285D01*
X254398540Y-74447285D02*
X253779493Y-74447285D01*
X253350921Y-74780619D02*
X253160445Y-74780619D01*
X253160445Y-74780619D02*
X253065207Y-74733000D01*
X253065207Y-74733000D02*
X253017588Y-74685380D01*
X253017588Y-74685380D02*
X252922350Y-74542523D01*
X252922350Y-74542523D02*
X252874731Y-74352047D01*
X252874731Y-74352047D02*
X252874731Y-73971095D01*
X252874731Y-73971095D02*
X252922350Y-73875857D01*
X252922350Y-73875857D02*
X252969969Y-73828238D01*
X252969969Y-73828238D02*
X253065207Y-73780619D01*
X253065207Y-73780619D02*
X253255683Y-73780619D01*
X253255683Y-73780619D02*
X253350921Y-73828238D01*
X253350921Y-73828238D02*
X253398540Y-73875857D01*
X253398540Y-73875857D02*
X253446159Y-73971095D01*
X253446159Y-73971095D02*
X253446159Y-74209190D01*
X253446159Y-74209190D02*
X253398540Y-74304428D01*
X253398540Y-74304428D02*
X253350921Y-74352047D01*
X253350921Y-74352047D02*
X253255683Y-74399666D01*
X253255683Y-74399666D02*
X253065207Y-74399666D01*
X253065207Y-74399666D02*
X252969969Y-74352047D01*
X252969969Y-74352047D02*
X252922350Y-74304428D01*
X252922350Y-74304428D02*
X252874731Y-74209190D01*
X257070921Y-94610619D02*
X257070921Y-93610619D01*
X257070921Y-93610619D02*
X256832826Y-93610619D01*
X256832826Y-93610619D02*
X256689969Y-93658238D01*
X256689969Y-93658238D02*
X256594731Y-93753476D01*
X256594731Y-93753476D02*
X256547112Y-93848714D01*
X256547112Y-93848714D02*
X256499493Y-94039190D01*
X256499493Y-94039190D02*
X256499493Y-94182047D01*
X256499493Y-94182047D02*
X256547112Y-94372523D01*
X256547112Y-94372523D02*
X256594731Y-94467761D01*
X256594731Y-94467761D02*
X256689969Y-94563000D01*
X256689969Y-94563000D02*
X256832826Y-94610619D01*
X256832826Y-94610619D02*
X257070921Y-94610619D01*
X255594731Y-93610619D02*
X256070921Y-93610619D01*
X256070921Y-93610619D02*
X256118540Y-94086809D01*
X256118540Y-94086809D02*
X256070921Y-94039190D01*
X256070921Y-94039190D02*
X255975683Y-93991571D01*
X255975683Y-93991571D02*
X255737588Y-93991571D01*
X255737588Y-93991571D02*
X255642350Y-94039190D01*
X255642350Y-94039190D02*
X255594731Y-94086809D01*
X255594731Y-94086809D02*
X255547112Y-94182047D01*
X255547112Y-94182047D02*
X255547112Y-94420142D01*
X255547112Y-94420142D02*
X255594731Y-94515380D01*
X255594731Y-94515380D02*
X255642350Y-94563000D01*
X255642350Y-94563000D02*
X255737588Y-94610619D01*
X255737588Y-94610619D02*
X255975683Y-94610619D01*
X255975683Y-94610619D02*
X256070921Y-94563000D01*
X256070921Y-94563000D02*
X256118540Y-94515380D01*
X254928064Y-93610619D02*
X254832826Y-93610619D01*
X254832826Y-93610619D02*
X254737588Y-93658238D01*
X254737588Y-93658238D02*
X254689969Y-93705857D01*
X254689969Y-93705857D02*
X254642350Y-93801095D01*
X254642350Y-93801095D02*
X254594731Y-93991571D01*
X254594731Y-93991571D02*
X254594731Y-94229666D01*
X254594731Y-94229666D02*
X254642350Y-94420142D01*
X254642350Y-94420142D02*
X254689969Y-94515380D01*
X254689969Y-94515380D02*
X254737588Y-94563000D01*
X254737588Y-94563000D02*
X254832826Y-94610619D01*
X254832826Y-94610619D02*
X254928064Y-94610619D01*
X254928064Y-94610619D02*
X255023302Y-94563000D01*
X255023302Y-94563000D02*
X255070921Y-94515380D01*
X255070921Y-94515380D02*
X255118540Y-94420142D01*
X255118540Y-94420142D02*
X255166159Y-94229666D01*
X255166159Y-94229666D02*
X255166159Y-93991571D01*
X255166159Y-93991571D02*
X255118540Y-93801095D01*
X255118540Y-93801095D02*
X255070921Y-93705857D01*
X255070921Y-93705857D02*
X255023302Y-93658238D01*
X255023302Y-93658238D02*
X254928064Y-93610619D01*
X258738421Y-114900619D02*
X258738421Y-113900619D01*
X258738421Y-113900619D02*
X258500326Y-113900619D01*
X258500326Y-113900619D02*
X258357469Y-113948238D01*
X258357469Y-113948238D02*
X258262231Y-114043476D01*
X258262231Y-114043476D02*
X258214612Y-114138714D01*
X258214612Y-114138714D02*
X258166993Y-114329190D01*
X258166993Y-114329190D02*
X258166993Y-114472047D01*
X258166993Y-114472047D02*
X258214612Y-114662523D01*
X258214612Y-114662523D02*
X258262231Y-114757761D01*
X258262231Y-114757761D02*
X258357469Y-114853000D01*
X258357469Y-114853000D02*
X258500326Y-114900619D01*
X258500326Y-114900619D02*
X258738421Y-114900619D01*
X257262231Y-113900619D02*
X257738421Y-113900619D01*
X257738421Y-113900619D02*
X257786040Y-114376809D01*
X257786040Y-114376809D02*
X257738421Y-114329190D01*
X257738421Y-114329190D02*
X257643183Y-114281571D01*
X257643183Y-114281571D02*
X257405088Y-114281571D01*
X257405088Y-114281571D02*
X257309850Y-114329190D01*
X257309850Y-114329190D02*
X257262231Y-114376809D01*
X257262231Y-114376809D02*
X257214612Y-114472047D01*
X257214612Y-114472047D02*
X257214612Y-114710142D01*
X257214612Y-114710142D02*
X257262231Y-114805380D01*
X257262231Y-114805380D02*
X257309850Y-114853000D01*
X257309850Y-114853000D02*
X257405088Y-114900619D01*
X257405088Y-114900619D02*
X257643183Y-114900619D01*
X257643183Y-114900619D02*
X257738421Y-114853000D01*
X257738421Y-114853000D02*
X257786040Y-114805380D01*
X256262231Y-114900619D02*
X256833659Y-114900619D01*
X256547945Y-114900619D02*
X256547945Y-113900619D01*
X256547945Y-113900619D02*
X256643183Y-114043476D01*
X256643183Y-114043476D02*
X256738421Y-114138714D01*
X256738421Y-114138714D02*
X256833659Y-114186333D01*
X246440921Y-130730619D02*
X246440921Y-129730619D01*
X246440921Y-129730619D02*
X246202826Y-129730619D01*
X246202826Y-129730619D02*
X246059969Y-129778238D01*
X246059969Y-129778238D02*
X245964731Y-129873476D01*
X245964731Y-129873476D02*
X245917112Y-129968714D01*
X245917112Y-129968714D02*
X245869493Y-130159190D01*
X245869493Y-130159190D02*
X245869493Y-130302047D01*
X245869493Y-130302047D02*
X245917112Y-130492523D01*
X245917112Y-130492523D02*
X245964731Y-130587761D01*
X245964731Y-130587761D02*
X246059969Y-130683000D01*
X246059969Y-130683000D02*
X246202826Y-130730619D01*
X246202826Y-130730619D02*
X246440921Y-130730619D01*
X244964731Y-129730619D02*
X245440921Y-129730619D01*
X245440921Y-129730619D02*
X245488540Y-130206809D01*
X245488540Y-130206809D02*
X245440921Y-130159190D01*
X245440921Y-130159190D02*
X245345683Y-130111571D01*
X245345683Y-130111571D02*
X245107588Y-130111571D01*
X245107588Y-130111571D02*
X245012350Y-130159190D01*
X245012350Y-130159190D02*
X244964731Y-130206809D01*
X244964731Y-130206809D02*
X244917112Y-130302047D01*
X244917112Y-130302047D02*
X244917112Y-130540142D01*
X244917112Y-130540142D02*
X244964731Y-130635380D01*
X244964731Y-130635380D02*
X245012350Y-130683000D01*
X245012350Y-130683000D02*
X245107588Y-130730619D01*
X245107588Y-130730619D02*
X245345683Y-130730619D01*
X245345683Y-130730619D02*
X245440921Y-130683000D01*
X245440921Y-130683000D02*
X245488540Y-130635380D01*
X244536159Y-129825857D02*
X244488540Y-129778238D01*
X244488540Y-129778238D02*
X244393302Y-129730619D01*
X244393302Y-129730619D02*
X244155207Y-129730619D01*
X244155207Y-129730619D02*
X244059969Y-129778238D01*
X244059969Y-129778238D02*
X244012350Y-129825857D01*
X244012350Y-129825857D02*
X243964731Y-129921095D01*
X243964731Y-129921095D02*
X243964731Y-130016333D01*
X243964731Y-130016333D02*
X244012350Y-130159190D01*
X244012350Y-130159190D02*
X244583778Y-130730619D01*
X244583778Y-130730619D02*
X243964731Y-130730619D01*
X276298421Y-56770619D02*
X276298421Y-55770619D01*
X276298421Y-55770619D02*
X276060326Y-55770619D01*
X276060326Y-55770619D02*
X275917469Y-55818238D01*
X275917469Y-55818238D02*
X275822231Y-55913476D01*
X275822231Y-55913476D02*
X275774612Y-56008714D01*
X275774612Y-56008714D02*
X275726993Y-56199190D01*
X275726993Y-56199190D02*
X275726993Y-56342047D01*
X275726993Y-56342047D02*
X275774612Y-56532523D01*
X275774612Y-56532523D02*
X275822231Y-56627761D01*
X275822231Y-56627761D02*
X275917469Y-56723000D01*
X275917469Y-56723000D02*
X276060326Y-56770619D01*
X276060326Y-56770619D02*
X276298421Y-56770619D01*
X274822231Y-55770619D02*
X275298421Y-55770619D01*
X275298421Y-55770619D02*
X275346040Y-56246809D01*
X275346040Y-56246809D02*
X275298421Y-56199190D01*
X275298421Y-56199190D02*
X275203183Y-56151571D01*
X275203183Y-56151571D02*
X274965088Y-56151571D01*
X274965088Y-56151571D02*
X274869850Y-56199190D01*
X274869850Y-56199190D02*
X274822231Y-56246809D01*
X274822231Y-56246809D02*
X274774612Y-56342047D01*
X274774612Y-56342047D02*
X274774612Y-56580142D01*
X274774612Y-56580142D02*
X274822231Y-56675380D01*
X274822231Y-56675380D02*
X274869850Y-56723000D01*
X274869850Y-56723000D02*
X274965088Y-56770619D01*
X274965088Y-56770619D02*
X275203183Y-56770619D01*
X275203183Y-56770619D02*
X275298421Y-56723000D01*
X275298421Y-56723000D02*
X275346040Y-56675380D01*
X274441278Y-55770619D02*
X273822231Y-55770619D01*
X273822231Y-55770619D02*
X274155564Y-56151571D01*
X274155564Y-56151571D02*
X274012707Y-56151571D01*
X274012707Y-56151571D02*
X273917469Y-56199190D01*
X273917469Y-56199190D02*
X273869850Y-56246809D01*
X273869850Y-56246809D02*
X273822231Y-56342047D01*
X273822231Y-56342047D02*
X273822231Y-56580142D01*
X273822231Y-56580142D02*
X273869850Y-56675380D01*
X273869850Y-56675380D02*
X273917469Y-56723000D01*
X273917469Y-56723000D02*
X274012707Y-56770619D01*
X274012707Y-56770619D02*
X274298421Y-56770619D01*
X274298421Y-56770619D02*
X274393659Y-56723000D01*
X274393659Y-56723000D02*
X274441278Y-56675380D01*
X277430921Y-65850619D02*
X277430921Y-64850619D01*
X277430921Y-64850619D02*
X277192826Y-64850619D01*
X277192826Y-64850619D02*
X277049969Y-64898238D01*
X277049969Y-64898238D02*
X276954731Y-64993476D01*
X276954731Y-64993476D02*
X276907112Y-65088714D01*
X276907112Y-65088714D02*
X276859493Y-65279190D01*
X276859493Y-65279190D02*
X276859493Y-65422047D01*
X276859493Y-65422047D02*
X276907112Y-65612523D01*
X276907112Y-65612523D02*
X276954731Y-65707761D01*
X276954731Y-65707761D02*
X277049969Y-65803000D01*
X277049969Y-65803000D02*
X277192826Y-65850619D01*
X277192826Y-65850619D02*
X277430921Y-65850619D01*
X275954731Y-64850619D02*
X276430921Y-64850619D01*
X276430921Y-64850619D02*
X276478540Y-65326809D01*
X276478540Y-65326809D02*
X276430921Y-65279190D01*
X276430921Y-65279190D02*
X276335683Y-65231571D01*
X276335683Y-65231571D02*
X276097588Y-65231571D01*
X276097588Y-65231571D02*
X276002350Y-65279190D01*
X276002350Y-65279190D02*
X275954731Y-65326809D01*
X275954731Y-65326809D02*
X275907112Y-65422047D01*
X275907112Y-65422047D02*
X275907112Y-65660142D01*
X275907112Y-65660142D02*
X275954731Y-65755380D01*
X275954731Y-65755380D02*
X276002350Y-65803000D01*
X276002350Y-65803000D02*
X276097588Y-65850619D01*
X276097588Y-65850619D02*
X276335683Y-65850619D01*
X276335683Y-65850619D02*
X276430921Y-65803000D01*
X276430921Y-65803000D02*
X276478540Y-65755380D01*
X275049969Y-65183952D02*
X275049969Y-65850619D01*
X275288064Y-64803000D02*
X275526159Y-65517285D01*
X275526159Y-65517285D02*
X274907112Y-65517285D01*
X277550921Y-85870619D02*
X277550921Y-84870619D01*
X277550921Y-84870619D02*
X277312826Y-84870619D01*
X277312826Y-84870619D02*
X277169969Y-84918238D01*
X277169969Y-84918238D02*
X277074731Y-85013476D01*
X277074731Y-85013476D02*
X277027112Y-85108714D01*
X277027112Y-85108714D02*
X276979493Y-85299190D01*
X276979493Y-85299190D02*
X276979493Y-85442047D01*
X276979493Y-85442047D02*
X277027112Y-85632523D01*
X277027112Y-85632523D02*
X277074731Y-85727761D01*
X277074731Y-85727761D02*
X277169969Y-85823000D01*
X277169969Y-85823000D02*
X277312826Y-85870619D01*
X277312826Y-85870619D02*
X277550921Y-85870619D01*
X276074731Y-84870619D02*
X276550921Y-84870619D01*
X276550921Y-84870619D02*
X276598540Y-85346809D01*
X276598540Y-85346809D02*
X276550921Y-85299190D01*
X276550921Y-85299190D02*
X276455683Y-85251571D01*
X276455683Y-85251571D02*
X276217588Y-85251571D01*
X276217588Y-85251571D02*
X276122350Y-85299190D01*
X276122350Y-85299190D02*
X276074731Y-85346809D01*
X276074731Y-85346809D02*
X276027112Y-85442047D01*
X276027112Y-85442047D02*
X276027112Y-85680142D01*
X276027112Y-85680142D02*
X276074731Y-85775380D01*
X276074731Y-85775380D02*
X276122350Y-85823000D01*
X276122350Y-85823000D02*
X276217588Y-85870619D01*
X276217588Y-85870619D02*
X276455683Y-85870619D01*
X276455683Y-85870619D02*
X276550921Y-85823000D01*
X276550921Y-85823000D02*
X276598540Y-85775380D01*
X275122350Y-84870619D02*
X275598540Y-84870619D01*
X275598540Y-84870619D02*
X275646159Y-85346809D01*
X275646159Y-85346809D02*
X275598540Y-85299190D01*
X275598540Y-85299190D02*
X275503302Y-85251571D01*
X275503302Y-85251571D02*
X275265207Y-85251571D01*
X275265207Y-85251571D02*
X275169969Y-85299190D01*
X275169969Y-85299190D02*
X275122350Y-85346809D01*
X275122350Y-85346809D02*
X275074731Y-85442047D01*
X275074731Y-85442047D02*
X275074731Y-85680142D01*
X275074731Y-85680142D02*
X275122350Y-85775380D01*
X275122350Y-85775380D02*
X275169969Y-85823000D01*
X275169969Y-85823000D02*
X275265207Y-85870619D01*
X275265207Y-85870619D02*
X275503302Y-85870619D01*
X275503302Y-85870619D02*
X275598540Y-85823000D01*
X275598540Y-85823000D02*
X275646159Y-85775380D01*
X277490921Y-105860619D02*
X277490921Y-104860619D01*
X277490921Y-104860619D02*
X277252826Y-104860619D01*
X277252826Y-104860619D02*
X277109969Y-104908238D01*
X277109969Y-104908238D02*
X277014731Y-105003476D01*
X277014731Y-105003476D02*
X276967112Y-105098714D01*
X276967112Y-105098714D02*
X276919493Y-105289190D01*
X276919493Y-105289190D02*
X276919493Y-105432047D01*
X276919493Y-105432047D02*
X276967112Y-105622523D01*
X276967112Y-105622523D02*
X277014731Y-105717761D01*
X277014731Y-105717761D02*
X277109969Y-105813000D01*
X277109969Y-105813000D02*
X277252826Y-105860619D01*
X277252826Y-105860619D02*
X277490921Y-105860619D01*
X276014731Y-104860619D02*
X276490921Y-104860619D01*
X276490921Y-104860619D02*
X276538540Y-105336809D01*
X276538540Y-105336809D02*
X276490921Y-105289190D01*
X276490921Y-105289190D02*
X276395683Y-105241571D01*
X276395683Y-105241571D02*
X276157588Y-105241571D01*
X276157588Y-105241571D02*
X276062350Y-105289190D01*
X276062350Y-105289190D02*
X276014731Y-105336809D01*
X276014731Y-105336809D02*
X275967112Y-105432047D01*
X275967112Y-105432047D02*
X275967112Y-105670142D01*
X275967112Y-105670142D02*
X276014731Y-105765380D01*
X276014731Y-105765380D02*
X276062350Y-105813000D01*
X276062350Y-105813000D02*
X276157588Y-105860619D01*
X276157588Y-105860619D02*
X276395683Y-105860619D01*
X276395683Y-105860619D02*
X276490921Y-105813000D01*
X276490921Y-105813000D02*
X276538540Y-105765380D01*
X275109969Y-104860619D02*
X275300445Y-104860619D01*
X275300445Y-104860619D02*
X275395683Y-104908238D01*
X275395683Y-104908238D02*
X275443302Y-104955857D01*
X275443302Y-104955857D02*
X275538540Y-105098714D01*
X275538540Y-105098714D02*
X275586159Y-105289190D01*
X275586159Y-105289190D02*
X275586159Y-105670142D01*
X275586159Y-105670142D02*
X275538540Y-105765380D01*
X275538540Y-105765380D02*
X275490921Y-105813000D01*
X275490921Y-105813000D02*
X275395683Y-105860619D01*
X275395683Y-105860619D02*
X275205207Y-105860619D01*
X275205207Y-105860619D02*
X275109969Y-105813000D01*
X275109969Y-105813000D02*
X275062350Y-105765380D01*
X275062350Y-105765380D02*
X275014731Y-105670142D01*
X275014731Y-105670142D02*
X275014731Y-105432047D01*
X275014731Y-105432047D02*
X275062350Y-105336809D01*
X275062350Y-105336809D02*
X275109969Y-105289190D01*
X275109969Y-105289190D02*
X275205207Y-105241571D01*
X275205207Y-105241571D02*
X275395683Y-105241571D01*
X275395683Y-105241571D02*
X275490921Y-105289190D01*
X275490921Y-105289190D02*
X275538540Y-105336809D01*
X275538540Y-105336809D02*
X275586159Y-105432047D01*
X277418421Y-125790619D02*
X277418421Y-124790619D01*
X277418421Y-124790619D02*
X277180326Y-124790619D01*
X277180326Y-124790619D02*
X277037469Y-124838238D01*
X277037469Y-124838238D02*
X276942231Y-124933476D01*
X276942231Y-124933476D02*
X276894612Y-125028714D01*
X276894612Y-125028714D02*
X276846993Y-125219190D01*
X276846993Y-125219190D02*
X276846993Y-125362047D01*
X276846993Y-125362047D02*
X276894612Y-125552523D01*
X276894612Y-125552523D02*
X276942231Y-125647761D01*
X276942231Y-125647761D02*
X277037469Y-125743000D01*
X277037469Y-125743000D02*
X277180326Y-125790619D01*
X277180326Y-125790619D02*
X277418421Y-125790619D01*
X275942231Y-124790619D02*
X276418421Y-124790619D01*
X276418421Y-124790619D02*
X276466040Y-125266809D01*
X276466040Y-125266809D02*
X276418421Y-125219190D01*
X276418421Y-125219190D02*
X276323183Y-125171571D01*
X276323183Y-125171571D02*
X276085088Y-125171571D01*
X276085088Y-125171571D02*
X275989850Y-125219190D01*
X275989850Y-125219190D02*
X275942231Y-125266809D01*
X275942231Y-125266809D02*
X275894612Y-125362047D01*
X275894612Y-125362047D02*
X275894612Y-125600142D01*
X275894612Y-125600142D02*
X275942231Y-125695380D01*
X275942231Y-125695380D02*
X275989850Y-125743000D01*
X275989850Y-125743000D02*
X276085088Y-125790619D01*
X276085088Y-125790619D02*
X276323183Y-125790619D01*
X276323183Y-125790619D02*
X276418421Y-125743000D01*
X276418421Y-125743000D02*
X276466040Y-125695380D01*
X275561278Y-124790619D02*
X274894612Y-124790619D01*
X274894612Y-124790619D02*
X275323183Y-125790619D01*
X291998421Y-54890619D02*
X291998421Y-53890619D01*
X291998421Y-53890619D02*
X291760326Y-53890619D01*
X291760326Y-53890619D02*
X291617469Y-53938238D01*
X291617469Y-53938238D02*
X291522231Y-54033476D01*
X291522231Y-54033476D02*
X291474612Y-54128714D01*
X291474612Y-54128714D02*
X291426993Y-54319190D01*
X291426993Y-54319190D02*
X291426993Y-54462047D01*
X291426993Y-54462047D02*
X291474612Y-54652523D01*
X291474612Y-54652523D02*
X291522231Y-54747761D01*
X291522231Y-54747761D02*
X291617469Y-54843000D01*
X291617469Y-54843000D02*
X291760326Y-54890619D01*
X291760326Y-54890619D02*
X291998421Y-54890619D01*
X290522231Y-53890619D02*
X290998421Y-53890619D01*
X290998421Y-53890619D02*
X291046040Y-54366809D01*
X291046040Y-54366809D02*
X290998421Y-54319190D01*
X290998421Y-54319190D02*
X290903183Y-54271571D01*
X290903183Y-54271571D02*
X290665088Y-54271571D01*
X290665088Y-54271571D02*
X290569850Y-54319190D01*
X290569850Y-54319190D02*
X290522231Y-54366809D01*
X290522231Y-54366809D02*
X290474612Y-54462047D01*
X290474612Y-54462047D02*
X290474612Y-54700142D01*
X290474612Y-54700142D02*
X290522231Y-54795380D01*
X290522231Y-54795380D02*
X290569850Y-54843000D01*
X290569850Y-54843000D02*
X290665088Y-54890619D01*
X290665088Y-54890619D02*
X290903183Y-54890619D01*
X290903183Y-54890619D02*
X290998421Y-54843000D01*
X290998421Y-54843000D02*
X291046040Y-54795380D01*
X289903183Y-54319190D02*
X289998421Y-54271571D01*
X289998421Y-54271571D02*
X290046040Y-54223952D01*
X290046040Y-54223952D02*
X290093659Y-54128714D01*
X290093659Y-54128714D02*
X290093659Y-54081095D01*
X290093659Y-54081095D02*
X290046040Y-53985857D01*
X290046040Y-53985857D02*
X289998421Y-53938238D01*
X289998421Y-53938238D02*
X289903183Y-53890619D01*
X289903183Y-53890619D02*
X289712707Y-53890619D01*
X289712707Y-53890619D02*
X289617469Y-53938238D01*
X289617469Y-53938238D02*
X289569850Y-53985857D01*
X289569850Y-53985857D02*
X289522231Y-54081095D01*
X289522231Y-54081095D02*
X289522231Y-54128714D01*
X289522231Y-54128714D02*
X289569850Y-54223952D01*
X289569850Y-54223952D02*
X289617469Y-54271571D01*
X289617469Y-54271571D02*
X289712707Y-54319190D01*
X289712707Y-54319190D02*
X289903183Y-54319190D01*
X289903183Y-54319190D02*
X289998421Y-54366809D01*
X289998421Y-54366809D02*
X290046040Y-54414428D01*
X290046040Y-54414428D02*
X290093659Y-54509666D01*
X290093659Y-54509666D02*
X290093659Y-54700142D01*
X290093659Y-54700142D02*
X290046040Y-54795380D01*
X290046040Y-54795380D02*
X289998421Y-54843000D01*
X289998421Y-54843000D02*
X289903183Y-54890619D01*
X289903183Y-54890619D02*
X289712707Y-54890619D01*
X289712707Y-54890619D02*
X289617469Y-54843000D01*
X289617469Y-54843000D02*
X289569850Y-54795380D01*
X289569850Y-54795380D02*
X289522231Y-54700142D01*
X289522231Y-54700142D02*
X289522231Y-54509666D01*
X289522231Y-54509666D02*
X289569850Y-54414428D01*
X289569850Y-54414428D02*
X289617469Y-54366809D01*
X289617469Y-54366809D02*
X289712707Y-54319190D01*
X294018421Y-74970619D02*
X294018421Y-73970619D01*
X294018421Y-73970619D02*
X293780326Y-73970619D01*
X293780326Y-73970619D02*
X293637469Y-74018238D01*
X293637469Y-74018238D02*
X293542231Y-74113476D01*
X293542231Y-74113476D02*
X293494612Y-74208714D01*
X293494612Y-74208714D02*
X293446993Y-74399190D01*
X293446993Y-74399190D02*
X293446993Y-74542047D01*
X293446993Y-74542047D02*
X293494612Y-74732523D01*
X293494612Y-74732523D02*
X293542231Y-74827761D01*
X293542231Y-74827761D02*
X293637469Y-74923000D01*
X293637469Y-74923000D02*
X293780326Y-74970619D01*
X293780326Y-74970619D02*
X294018421Y-74970619D01*
X292542231Y-73970619D02*
X293018421Y-73970619D01*
X293018421Y-73970619D02*
X293066040Y-74446809D01*
X293066040Y-74446809D02*
X293018421Y-74399190D01*
X293018421Y-74399190D02*
X292923183Y-74351571D01*
X292923183Y-74351571D02*
X292685088Y-74351571D01*
X292685088Y-74351571D02*
X292589850Y-74399190D01*
X292589850Y-74399190D02*
X292542231Y-74446809D01*
X292542231Y-74446809D02*
X292494612Y-74542047D01*
X292494612Y-74542047D02*
X292494612Y-74780142D01*
X292494612Y-74780142D02*
X292542231Y-74875380D01*
X292542231Y-74875380D02*
X292589850Y-74923000D01*
X292589850Y-74923000D02*
X292685088Y-74970619D01*
X292685088Y-74970619D02*
X292923183Y-74970619D01*
X292923183Y-74970619D02*
X293018421Y-74923000D01*
X293018421Y-74923000D02*
X293066040Y-74875380D01*
X292018421Y-74970619D02*
X291827945Y-74970619D01*
X291827945Y-74970619D02*
X291732707Y-74923000D01*
X291732707Y-74923000D02*
X291685088Y-74875380D01*
X291685088Y-74875380D02*
X291589850Y-74732523D01*
X291589850Y-74732523D02*
X291542231Y-74542047D01*
X291542231Y-74542047D02*
X291542231Y-74161095D01*
X291542231Y-74161095D02*
X291589850Y-74065857D01*
X291589850Y-74065857D02*
X291637469Y-74018238D01*
X291637469Y-74018238D02*
X291732707Y-73970619D01*
X291732707Y-73970619D02*
X291923183Y-73970619D01*
X291923183Y-73970619D02*
X292018421Y-74018238D01*
X292018421Y-74018238D02*
X292066040Y-74065857D01*
X292066040Y-74065857D02*
X292113659Y-74161095D01*
X292113659Y-74161095D02*
X292113659Y-74399190D01*
X292113659Y-74399190D02*
X292066040Y-74494428D01*
X292066040Y-74494428D02*
X292018421Y-74542047D01*
X292018421Y-74542047D02*
X291923183Y-74589666D01*
X291923183Y-74589666D02*
X291732707Y-74589666D01*
X291732707Y-74589666D02*
X291637469Y-74542047D01*
X291637469Y-74542047D02*
X291589850Y-74494428D01*
X291589850Y-74494428D02*
X291542231Y-74399190D01*
X293948421Y-94870619D02*
X293948421Y-93870619D01*
X293948421Y-93870619D02*
X293710326Y-93870619D01*
X293710326Y-93870619D02*
X293567469Y-93918238D01*
X293567469Y-93918238D02*
X293472231Y-94013476D01*
X293472231Y-94013476D02*
X293424612Y-94108714D01*
X293424612Y-94108714D02*
X293376993Y-94299190D01*
X293376993Y-94299190D02*
X293376993Y-94442047D01*
X293376993Y-94442047D02*
X293424612Y-94632523D01*
X293424612Y-94632523D02*
X293472231Y-94727761D01*
X293472231Y-94727761D02*
X293567469Y-94823000D01*
X293567469Y-94823000D02*
X293710326Y-94870619D01*
X293710326Y-94870619D02*
X293948421Y-94870619D01*
X292519850Y-93870619D02*
X292710326Y-93870619D01*
X292710326Y-93870619D02*
X292805564Y-93918238D01*
X292805564Y-93918238D02*
X292853183Y-93965857D01*
X292853183Y-93965857D02*
X292948421Y-94108714D01*
X292948421Y-94108714D02*
X292996040Y-94299190D01*
X292996040Y-94299190D02*
X292996040Y-94680142D01*
X292996040Y-94680142D02*
X292948421Y-94775380D01*
X292948421Y-94775380D02*
X292900802Y-94823000D01*
X292900802Y-94823000D02*
X292805564Y-94870619D01*
X292805564Y-94870619D02*
X292615088Y-94870619D01*
X292615088Y-94870619D02*
X292519850Y-94823000D01*
X292519850Y-94823000D02*
X292472231Y-94775380D01*
X292472231Y-94775380D02*
X292424612Y-94680142D01*
X292424612Y-94680142D02*
X292424612Y-94442047D01*
X292424612Y-94442047D02*
X292472231Y-94346809D01*
X292472231Y-94346809D02*
X292519850Y-94299190D01*
X292519850Y-94299190D02*
X292615088Y-94251571D01*
X292615088Y-94251571D02*
X292805564Y-94251571D01*
X292805564Y-94251571D02*
X292900802Y-94299190D01*
X292900802Y-94299190D02*
X292948421Y-94346809D01*
X292948421Y-94346809D02*
X292996040Y-94442047D01*
X291805564Y-93870619D02*
X291710326Y-93870619D01*
X291710326Y-93870619D02*
X291615088Y-93918238D01*
X291615088Y-93918238D02*
X291567469Y-93965857D01*
X291567469Y-93965857D02*
X291519850Y-94061095D01*
X291519850Y-94061095D02*
X291472231Y-94251571D01*
X291472231Y-94251571D02*
X291472231Y-94489666D01*
X291472231Y-94489666D02*
X291519850Y-94680142D01*
X291519850Y-94680142D02*
X291567469Y-94775380D01*
X291567469Y-94775380D02*
X291615088Y-94823000D01*
X291615088Y-94823000D02*
X291710326Y-94870619D01*
X291710326Y-94870619D02*
X291805564Y-94870619D01*
X291805564Y-94870619D02*
X291900802Y-94823000D01*
X291900802Y-94823000D02*
X291948421Y-94775380D01*
X291948421Y-94775380D02*
X291996040Y-94680142D01*
X291996040Y-94680142D02*
X292043659Y-94489666D01*
X292043659Y-94489666D02*
X292043659Y-94251571D01*
X292043659Y-94251571D02*
X291996040Y-94061095D01*
X291996040Y-94061095D02*
X291948421Y-93965857D01*
X291948421Y-93965857D02*
X291900802Y-93918238D01*
X291900802Y-93918238D02*
X291805564Y-93870619D01*
X293988421Y-114950619D02*
X293988421Y-113950619D01*
X293988421Y-113950619D02*
X293750326Y-113950619D01*
X293750326Y-113950619D02*
X293607469Y-113998238D01*
X293607469Y-113998238D02*
X293512231Y-114093476D01*
X293512231Y-114093476D02*
X293464612Y-114188714D01*
X293464612Y-114188714D02*
X293416993Y-114379190D01*
X293416993Y-114379190D02*
X293416993Y-114522047D01*
X293416993Y-114522047D02*
X293464612Y-114712523D01*
X293464612Y-114712523D02*
X293512231Y-114807761D01*
X293512231Y-114807761D02*
X293607469Y-114903000D01*
X293607469Y-114903000D02*
X293750326Y-114950619D01*
X293750326Y-114950619D02*
X293988421Y-114950619D01*
X292559850Y-113950619D02*
X292750326Y-113950619D01*
X292750326Y-113950619D02*
X292845564Y-113998238D01*
X292845564Y-113998238D02*
X292893183Y-114045857D01*
X292893183Y-114045857D02*
X292988421Y-114188714D01*
X292988421Y-114188714D02*
X293036040Y-114379190D01*
X293036040Y-114379190D02*
X293036040Y-114760142D01*
X293036040Y-114760142D02*
X292988421Y-114855380D01*
X292988421Y-114855380D02*
X292940802Y-114903000D01*
X292940802Y-114903000D02*
X292845564Y-114950619D01*
X292845564Y-114950619D02*
X292655088Y-114950619D01*
X292655088Y-114950619D02*
X292559850Y-114903000D01*
X292559850Y-114903000D02*
X292512231Y-114855380D01*
X292512231Y-114855380D02*
X292464612Y-114760142D01*
X292464612Y-114760142D02*
X292464612Y-114522047D01*
X292464612Y-114522047D02*
X292512231Y-114426809D01*
X292512231Y-114426809D02*
X292559850Y-114379190D01*
X292559850Y-114379190D02*
X292655088Y-114331571D01*
X292655088Y-114331571D02*
X292845564Y-114331571D01*
X292845564Y-114331571D02*
X292940802Y-114379190D01*
X292940802Y-114379190D02*
X292988421Y-114426809D01*
X292988421Y-114426809D02*
X293036040Y-114522047D01*
X291512231Y-114950619D02*
X292083659Y-114950619D01*
X291797945Y-114950619D02*
X291797945Y-113950619D01*
X291797945Y-113950619D02*
X291893183Y-114093476D01*
X291893183Y-114093476D02*
X291988421Y-114188714D01*
X291988421Y-114188714D02*
X292083659Y-114236333D01*
X294048421Y-117520619D02*
X294048421Y-116520619D01*
X294048421Y-116520619D02*
X293810326Y-116520619D01*
X293810326Y-116520619D02*
X293667469Y-116568238D01*
X293667469Y-116568238D02*
X293572231Y-116663476D01*
X293572231Y-116663476D02*
X293524612Y-116758714D01*
X293524612Y-116758714D02*
X293476993Y-116949190D01*
X293476993Y-116949190D02*
X293476993Y-117092047D01*
X293476993Y-117092047D02*
X293524612Y-117282523D01*
X293524612Y-117282523D02*
X293572231Y-117377761D01*
X293572231Y-117377761D02*
X293667469Y-117473000D01*
X293667469Y-117473000D02*
X293810326Y-117520619D01*
X293810326Y-117520619D02*
X294048421Y-117520619D01*
X292619850Y-116520619D02*
X292810326Y-116520619D01*
X292810326Y-116520619D02*
X292905564Y-116568238D01*
X292905564Y-116568238D02*
X292953183Y-116615857D01*
X292953183Y-116615857D02*
X293048421Y-116758714D01*
X293048421Y-116758714D02*
X293096040Y-116949190D01*
X293096040Y-116949190D02*
X293096040Y-117330142D01*
X293096040Y-117330142D02*
X293048421Y-117425380D01*
X293048421Y-117425380D02*
X293000802Y-117473000D01*
X293000802Y-117473000D02*
X292905564Y-117520619D01*
X292905564Y-117520619D02*
X292715088Y-117520619D01*
X292715088Y-117520619D02*
X292619850Y-117473000D01*
X292619850Y-117473000D02*
X292572231Y-117425380D01*
X292572231Y-117425380D02*
X292524612Y-117330142D01*
X292524612Y-117330142D02*
X292524612Y-117092047D01*
X292524612Y-117092047D02*
X292572231Y-116996809D01*
X292572231Y-116996809D02*
X292619850Y-116949190D01*
X292619850Y-116949190D02*
X292715088Y-116901571D01*
X292715088Y-116901571D02*
X292905564Y-116901571D01*
X292905564Y-116901571D02*
X293000802Y-116949190D01*
X293000802Y-116949190D02*
X293048421Y-116996809D01*
X293048421Y-116996809D02*
X293096040Y-117092047D01*
X292143659Y-116615857D02*
X292096040Y-116568238D01*
X292096040Y-116568238D02*
X292000802Y-116520619D01*
X292000802Y-116520619D02*
X291762707Y-116520619D01*
X291762707Y-116520619D02*
X291667469Y-116568238D01*
X291667469Y-116568238D02*
X291619850Y-116615857D01*
X291619850Y-116615857D02*
X291572231Y-116711095D01*
X291572231Y-116711095D02*
X291572231Y-116806333D01*
X291572231Y-116806333D02*
X291619850Y-116949190D01*
X291619850Y-116949190D02*
X292191278Y-117520619D01*
X292191278Y-117520619D02*
X291572231Y-117520619D01*
X174038955Y-106351514D02*
X173038955Y-106351514D01*
X173038955Y-106351514D02*
X173038955Y-106589609D01*
X173038955Y-106589609D02*
X173086574Y-106732466D01*
X173086574Y-106732466D02*
X173181812Y-106827704D01*
X173181812Y-106827704D02*
X173277050Y-106875323D01*
X173277050Y-106875323D02*
X173467526Y-106922942D01*
X173467526Y-106922942D02*
X173610383Y-106922942D01*
X173610383Y-106922942D02*
X173800859Y-106875323D01*
X173800859Y-106875323D02*
X173896097Y-106827704D01*
X173896097Y-106827704D02*
X173991336Y-106732466D01*
X173991336Y-106732466D02*
X174038955Y-106589609D01*
X174038955Y-106589609D02*
X174038955Y-106351514D01*
X173038955Y-107780085D02*
X173038955Y-107589609D01*
X173038955Y-107589609D02*
X173086574Y-107494371D01*
X173086574Y-107494371D02*
X173134193Y-107446752D01*
X173134193Y-107446752D02*
X173277050Y-107351514D01*
X173277050Y-107351514D02*
X173467526Y-107303895D01*
X173467526Y-107303895D02*
X173848478Y-107303895D01*
X173848478Y-107303895D02*
X173943716Y-107351514D01*
X173943716Y-107351514D02*
X173991336Y-107399133D01*
X173991336Y-107399133D02*
X174038955Y-107494371D01*
X174038955Y-107494371D02*
X174038955Y-107684847D01*
X174038955Y-107684847D02*
X173991336Y-107780085D01*
X173991336Y-107780085D02*
X173943716Y-107827704D01*
X173943716Y-107827704D02*
X173848478Y-107875323D01*
X173848478Y-107875323D02*
X173610383Y-107875323D01*
X173610383Y-107875323D02*
X173515145Y-107827704D01*
X173515145Y-107827704D02*
X173467526Y-107780085D01*
X173467526Y-107780085D02*
X173419907Y-107684847D01*
X173419907Y-107684847D02*
X173419907Y-107494371D01*
X173419907Y-107494371D02*
X173467526Y-107399133D01*
X173467526Y-107399133D02*
X173515145Y-107351514D01*
X173515145Y-107351514D02*
X173610383Y-107303895D01*
X173372288Y-108732466D02*
X174038955Y-108732466D01*
X172991336Y-108494371D02*
X173705621Y-108256276D01*
X173705621Y-108256276D02*
X173705621Y-108875323D01*
X142438421Y-116710619D02*
X142438421Y-115710619D01*
X142438421Y-115710619D02*
X142200326Y-115710619D01*
X142200326Y-115710619D02*
X142057469Y-115758238D01*
X142057469Y-115758238D02*
X141962231Y-115853476D01*
X141962231Y-115853476D02*
X141914612Y-115948714D01*
X141914612Y-115948714D02*
X141866993Y-116139190D01*
X141866993Y-116139190D02*
X141866993Y-116282047D01*
X141866993Y-116282047D02*
X141914612Y-116472523D01*
X141914612Y-116472523D02*
X141962231Y-116567761D01*
X141962231Y-116567761D02*
X142057469Y-116663000D01*
X142057469Y-116663000D02*
X142200326Y-116710619D01*
X142200326Y-116710619D02*
X142438421Y-116710619D01*
X141009850Y-115710619D02*
X141200326Y-115710619D01*
X141200326Y-115710619D02*
X141295564Y-115758238D01*
X141295564Y-115758238D02*
X141343183Y-115805857D01*
X141343183Y-115805857D02*
X141438421Y-115948714D01*
X141438421Y-115948714D02*
X141486040Y-116139190D01*
X141486040Y-116139190D02*
X141486040Y-116520142D01*
X141486040Y-116520142D02*
X141438421Y-116615380D01*
X141438421Y-116615380D02*
X141390802Y-116663000D01*
X141390802Y-116663000D02*
X141295564Y-116710619D01*
X141295564Y-116710619D02*
X141105088Y-116710619D01*
X141105088Y-116710619D02*
X141009850Y-116663000D01*
X141009850Y-116663000D02*
X140962231Y-116615380D01*
X140962231Y-116615380D02*
X140914612Y-116520142D01*
X140914612Y-116520142D02*
X140914612Y-116282047D01*
X140914612Y-116282047D02*
X140962231Y-116186809D01*
X140962231Y-116186809D02*
X141009850Y-116139190D01*
X141009850Y-116139190D02*
X141105088Y-116091571D01*
X141105088Y-116091571D02*
X141295564Y-116091571D01*
X141295564Y-116091571D02*
X141390802Y-116139190D01*
X141390802Y-116139190D02*
X141438421Y-116186809D01*
X141438421Y-116186809D02*
X141486040Y-116282047D01*
X140009850Y-115710619D02*
X140486040Y-115710619D01*
X140486040Y-115710619D02*
X140533659Y-116186809D01*
X140533659Y-116186809D02*
X140486040Y-116139190D01*
X140486040Y-116139190D02*
X140390802Y-116091571D01*
X140390802Y-116091571D02*
X140152707Y-116091571D01*
X140152707Y-116091571D02*
X140057469Y-116139190D01*
X140057469Y-116139190D02*
X140009850Y-116186809D01*
X140009850Y-116186809D02*
X139962231Y-116282047D01*
X139962231Y-116282047D02*
X139962231Y-116520142D01*
X139962231Y-116520142D02*
X140009850Y-116615380D01*
X140009850Y-116615380D02*
X140057469Y-116663000D01*
X140057469Y-116663000D02*
X140152707Y-116710619D01*
X140152707Y-116710619D02*
X140390802Y-116710619D01*
X140390802Y-116710619D02*
X140486040Y-116663000D01*
X140486040Y-116663000D02*
X140533659Y-116615380D01*
X145038955Y-156741514D02*
X144038955Y-156741514D01*
X144038955Y-156741514D02*
X144038955Y-156979609D01*
X144038955Y-156979609D02*
X144086574Y-157122466D01*
X144086574Y-157122466D02*
X144181812Y-157217704D01*
X144181812Y-157217704D02*
X144277050Y-157265323D01*
X144277050Y-157265323D02*
X144467526Y-157312942D01*
X144467526Y-157312942D02*
X144610383Y-157312942D01*
X144610383Y-157312942D02*
X144800859Y-157265323D01*
X144800859Y-157265323D02*
X144896097Y-157217704D01*
X144896097Y-157217704D02*
X144991336Y-157122466D01*
X144991336Y-157122466D02*
X145038955Y-156979609D01*
X145038955Y-156979609D02*
X145038955Y-156741514D01*
X144038955Y-158170085D02*
X144038955Y-157979609D01*
X144038955Y-157979609D02*
X144086574Y-157884371D01*
X144086574Y-157884371D02*
X144134193Y-157836752D01*
X144134193Y-157836752D02*
X144277050Y-157741514D01*
X144277050Y-157741514D02*
X144467526Y-157693895D01*
X144467526Y-157693895D02*
X144848478Y-157693895D01*
X144848478Y-157693895D02*
X144943716Y-157741514D01*
X144943716Y-157741514D02*
X144991336Y-157789133D01*
X144991336Y-157789133D02*
X145038955Y-157884371D01*
X145038955Y-157884371D02*
X145038955Y-158074847D01*
X145038955Y-158074847D02*
X144991336Y-158170085D01*
X144991336Y-158170085D02*
X144943716Y-158217704D01*
X144943716Y-158217704D02*
X144848478Y-158265323D01*
X144848478Y-158265323D02*
X144610383Y-158265323D01*
X144610383Y-158265323D02*
X144515145Y-158217704D01*
X144515145Y-158217704D02*
X144467526Y-158170085D01*
X144467526Y-158170085D02*
X144419907Y-158074847D01*
X144419907Y-158074847D02*
X144419907Y-157884371D01*
X144419907Y-157884371D02*
X144467526Y-157789133D01*
X144467526Y-157789133D02*
X144515145Y-157741514D01*
X144515145Y-157741514D02*
X144610383Y-157693895D01*
X144038955Y-158598657D02*
X144038955Y-159217704D01*
X144038955Y-159217704D02*
X144419907Y-158884371D01*
X144419907Y-158884371D02*
X144419907Y-159027228D01*
X144419907Y-159027228D02*
X144467526Y-159122466D01*
X144467526Y-159122466D02*
X144515145Y-159170085D01*
X144515145Y-159170085D02*
X144610383Y-159217704D01*
X144610383Y-159217704D02*
X144848478Y-159217704D01*
X144848478Y-159217704D02*
X144943716Y-159170085D01*
X144943716Y-159170085D02*
X144991336Y-159122466D01*
X144991336Y-159122466D02*
X145038955Y-159027228D01*
X145038955Y-159027228D02*
X145038955Y-158741514D01*
X145038955Y-158741514D02*
X144991336Y-158646276D01*
X144991336Y-158646276D02*
X144943716Y-158598657D01*
D12*
X146534136Y-111615800D02*
X150934136Y-111615800D01*
X150934136Y-111615800D02*
X150934136Y-116015800D01*
X146534136Y-116015800D02*
X146534136Y-111615800D01*
X150934136Y-116015800D02*
X146534136Y-116015800D01*
X166584136Y-53415800D02*
X170984136Y-53415800D01*
X170984136Y-53415800D02*
X170984136Y-57815800D01*
X166584136Y-57815800D02*
X166584136Y-53415800D01*
X170984136Y-57815800D02*
X166584136Y-57815800D01*
X171984136Y-53415800D02*
X176384136Y-53415800D01*
X176384136Y-53415800D02*
X176384136Y-57815800D01*
X171984136Y-57815800D02*
X171984136Y-53415800D01*
X176384136Y-57815800D02*
X171984136Y-57815800D01*
D11*
X280265824Y-43532688D02*
X280265824Y-44532688D01*
X280265824Y-47132688D02*
X280265824Y-46772688D01*
X280265824Y-47132688D02*
X281425824Y-47132688D01*
X283165824Y-47132688D02*
X283545824Y-47132688D01*
X285765824Y-45232688D02*
X290765824Y-45232688D01*
X287905824Y-41622688D02*
X282365823Y-41632688D01*
X290765824Y-41632688D02*
X289775824Y-41632688D01*
X290765824Y-41982688D02*
X290765824Y-41632688D01*
X290765824Y-45232688D02*
X290765824Y-44232688D01*
X280265824Y-43532689D02*
G75*
G02*
X282365823Y-41632687I1999999J-99997D01*
G01*
X283549506Y-47111217D02*
G75*
G02*
X285765824Y-45232688I2151317J-291470D01*
G01*
X208185766Y-135827957D02*
X208359414Y-136812765D01*
X208810899Y-139373266D02*
X208748386Y-139018734D01*
X208810899Y-139373266D02*
X209953276Y-139171834D01*
X211666842Y-138869686D02*
X212041069Y-138803699D01*
X213897409Y-136547066D02*
X218821449Y-135678825D01*
X215378029Y-132620303D02*
X209923931Y-133592162D01*
X218196317Y-132133516D02*
X217221356Y-132305429D01*
X218257093Y-132478200D02*
X218196317Y-132133516D01*
X218821449Y-135678825D02*
X218647801Y-134694018D01*
X208185766Y-135827958D02*
G75*
G02*
X209923931Y-133592162I1986980J248816D01*
G01*
X212040966Y-138781916D02*
G75*
G02*
X213897409Y-136547066I2169241J86536D01*
G01*
X94098974Y-58589348D02*
X94161488Y-58234817D01*
X94098974Y-58589348D02*
X95241351Y-58790780D01*
X94724108Y-55044040D02*
X94550460Y-56028848D01*
X96954917Y-59092928D02*
X97329144Y-59158914D01*
X99845347Y-57673278D02*
X104769387Y-58541519D01*
X102579707Y-54489730D02*
X97122136Y-53537567D01*
X104769387Y-58541519D02*
X104943035Y-57556712D01*
X105333744Y-55340894D02*
X105394521Y-54996210D01*
X105394521Y-54996210D02*
X104419561Y-54824300D01*
X94724108Y-55044041D02*
G75*
G02*
X97122136Y-53537567I1952250J-445776D01*
G01*
X97336498Y-59138409D02*
G75*
G02*
X99845347Y-57673279I2068018J-660610D01*
G01*
X280361939Y-83790449D02*
X280361939Y-84790449D01*
X280361939Y-87390449D02*
X280361939Y-87030449D01*
X280361939Y-87390449D02*
X281521939Y-87390449D01*
X283261939Y-87390449D02*
X283641939Y-87390449D01*
X285861939Y-85490449D02*
X290861939Y-85490449D01*
X288001939Y-81880449D02*
X282461938Y-81890449D01*
X290861939Y-81890449D02*
X289871939Y-81890449D01*
X290861939Y-82240449D02*
X290861939Y-81890449D01*
X290861939Y-85490449D02*
X290861939Y-84490449D01*
X280361939Y-83790450D02*
G75*
G02*
X282461938Y-81890448I1999999J-99997D01*
G01*
X283645621Y-87368978D02*
G75*
G02*
X285861939Y-85490449I2151317J-291470D01*
G01*
X280361893Y-103790402D02*
X280361893Y-104790402D01*
X280361893Y-107390402D02*
X280361893Y-107030402D01*
X280361893Y-107390402D02*
X281521893Y-107390402D01*
X283261893Y-107390402D02*
X283641893Y-107390402D01*
X285861893Y-105490402D02*
X290861893Y-105490402D01*
X288001893Y-101880402D02*
X282461892Y-101890402D01*
X290861893Y-101890402D02*
X289871893Y-101890402D01*
X290861893Y-102240402D02*
X290861893Y-101890402D01*
X290861893Y-105490402D02*
X290861893Y-104490402D01*
X280361893Y-103790403D02*
G75*
G02*
X282461892Y-101890401I1999999J-99997D01*
G01*
X283645575Y-107368931D02*
G75*
G02*
X285861893Y-105490402I2151317J-291470D01*
G01*
X24585985Y-63798196D02*
X24585985Y-64798196D01*
X24585985Y-67398196D02*
X24585985Y-67038196D01*
X24585985Y-67398196D02*
X25745985Y-67398196D01*
X27485985Y-67398196D02*
X27865985Y-67398196D01*
X30085985Y-65498196D02*
X35085985Y-65498196D01*
X32225985Y-61888196D02*
X26685984Y-61898196D01*
X35085985Y-61898196D02*
X34095985Y-61898196D01*
X35085985Y-62248196D02*
X35085985Y-61898196D01*
X35085985Y-65498196D02*
X35085985Y-64498196D01*
X24585985Y-63798197D02*
G75*
G02*
X26685984Y-61898195I1999999J-99997D01*
G01*
X27869667Y-67376725D02*
G75*
G02*
X30085985Y-65498196I2151317J-291470D01*
G01*
X260245604Y-123798182D02*
X260245604Y-124798182D01*
X260245604Y-127398182D02*
X260245604Y-127038182D01*
X260245604Y-127398182D02*
X261405604Y-127398182D01*
X263145604Y-127398182D02*
X263525604Y-127398182D01*
X265745604Y-125498182D02*
X270745604Y-125498182D01*
X267885604Y-121888182D02*
X262345603Y-121898182D01*
X270745604Y-121898182D02*
X269755604Y-121898182D01*
X270745604Y-122248182D02*
X270745604Y-121898182D01*
X270745604Y-125498182D02*
X270745604Y-124498182D01*
X260245604Y-123798183D02*
G75*
G02*
X262345603Y-121898181I1999999J-99997D01*
G01*
X263529286Y-127376711D02*
G75*
G02*
X265745604Y-125498182I2151317J-291470D01*
G01*
X231713237Y-134197161D02*
X231713237Y-135197161D01*
X231713237Y-137797161D02*
X231713237Y-137437161D01*
X231713237Y-137797161D02*
X232873237Y-137797161D01*
X234613237Y-137797161D02*
X234993237Y-137797161D01*
X237213237Y-135897161D02*
X242213237Y-135897161D01*
X239353237Y-132287161D02*
X233813236Y-132297161D01*
X242213237Y-132297161D02*
X241223237Y-132297161D01*
X242213237Y-132647161D02*
X242213237Y-132297161D01*
X242213237Y-135897161D02*
X242213237Y-134897161D01*
X231713237Y-134197162D02*
G75*
G02*
X233813236Y-132297160I1999999J-99997D01*
G01*
X234996919Y-137775690D02*
G75*
G02*
X237213237Y-135897161I2151317J-291470D01*
G01*
X24586031Y-103798149D02*
X24586031Y-104798149D01*
X24586031Y-107398149D02*
X24586031Y-107038149D01*
X24586031Y-107398149D02*
X25746031Y-107398149D01*
X27486031Y-107398149D02*
X27866031Y-107398149D01*
X30086031Y-105498149D02*
X35086031Y-105498149D01*
X32226031Y-101888149D02*
X26686030Y-101898149D01*
X35086031Y-101898149D02*
X34096031Y-101898149D01*
X35086031Y-102248149D02*
X35086031Y-101898149D01*
X35086031Y-105498149D02*
X35086031Y-104498149D01*
X24586031Y-103798150D02*
G75*
G02*
X26686030Y-101898148I1999999J-99997D01*
G01*
X27869713Y-107376678D02*
G75*
G02*
X30086031Y-105498149I2151317J-291470D01*
G01*
X72599364Y-70585067D02*
X72661878Y-70230536D01*
X72599364Y-70585067D02*
X73741741Y-70786499D01*
X73224498Y-67039759D02*
X73050850Y-68024567D01*
X75455307Y-71088647D02*
X75829534Y-71154633D01*
X78345737Y-69668997D02*
X83269777Y-70537238D01*
X81080097Y-66485449D02*
X75622526Y-65533286D01*
X83269777Y-70537238D02*
X83443425Y-69552431D01*
X83834134Y-67336613D02*
X83894911Y-66991929D01*
X83894911Y-66991929D02*
X82919951Y-66820019D01*
X73224498Y-67039760D02*
G75*
G02*
X75622526Y-65533286I1952250J-445776D01*
G01*
X75836888Y-71134128D02*
G75*
G02*
X78345737Y-69668998I2068018J-660610D01*
G01*
X24585960Y-123798182D02*
X24585960Y-124798182D01*
X24585960Y-127398182D02*
X24585960Y-127038182D01*
X24585960Y-127398182D02*
X25745960Y-127398182D01*
X27485960Y-127398182D02*
X27865960Y-127398182D01*
X30085960Y-125498182D02*
X35085960Y-125498182D01*
X32225960Y-121888182D02*
X26685959Y-121898182D01*
X35085960Y-121898182D02*
X34095960Y-121898182D01*
X35085960Y-122248182D02*
X35085960Y-121898182D01*
X35085960Y-125498182D02*
X35085960Y-124498182D01*
X24585960Y-123798183D02*
G75*
G02*
X26685959Y-121898181I1999999J-99997D01*
G01*
X27869642Y-127376711D02*
G75*
G02*
X30085960Y-125498182I2151317J-291470D01*
G01*
X234201056Y-53779265D02*
X234288213Y-54775460D01*
X234514817Y-57365566D02*
X234483441Y-57006936D01*
X234514817Y-57365566D02*
X235670402Y-57264466D01*
X237403781Y-57112814D02*
X237782335Y-57079695D01*
X239828292Y-54993440D02*
X244809265Y-54557658D01*
X241645516Y-51210663D02*
X236127468Y-51703468D01*
X244495505Y-50971359D02*
X243509272Y-51057643D01*
X244526009Y-51320028D02*
X244495505Y-50971359D01*
X244809265Y-54557658D02*
X244722110Y-53561466D01*
X234201056Y-53779266D02*
G75*
G02*
X236127468Y-51703468I2001105J74693D01*
G01*
X237784133Y-57057984D02*
G75*
G02*
X239828292Y-54993440I2168535J-102864D01*
G01*
X280361964Y-123790435D02*
X280361964Y-124790435D01*
X280361964Y-127390435D02*
X280361964Y-127030435D01*
X280361964Y-127390435D02*
X281521964Y-127390435D01*
X283261964Y-127390435D02*
X283641964Y-127390435D01*
X285861964Y-125490435D02*
X290861964Y-125490435D01*
X288001964Y-121880435D02*
X282461963Y-121890435D01*
X290861964Y-121890435D02*
X289871964Y-121890435D01*
X290861964Y-122240435D02*
X290861964Y-121890435D01*
X290861964Y-125490435D02*
X290861964Y-124490435D01*
X280361964Y-123790436D02*
G75*
G02*
X282461963Y-121890434I1999999J-99997D01*
G01*
X283645646Y-127368964D02*
G75*
G02*
X285861964Y-125490435I2151317J-291470D01*
G01*
X178947952Y-101686362D02*
X179121600Y-102671170D01*
X179573085Y-105231671D02*
X179510572Y-104877139D01*
X179573085Y-105231671D02*
X180715462Y-105030239D01*
X182429028Y-104728091D02*
X182803255Y-104662104D01*
X184659595Y-102405471D02*
X189583635Y-101537230D01*
X186140215Y-98478708D02*
X180686117Y-99450567D01*
X188958503Y-97991921D02*
X187983542Y-98163834D01*
X189019279Y-98336605D02*
X188958503Y-97991921D01*
X189583635Y-101537230D02*
X189409987Y-100552423D01*
X178947952Y-101686363D02*
G75*
G02*
X180686117Y-99450567I1986980J248816D01*
G01*
X182803152Y-104640321D02*
G75*
G02*
X184659595Y-102405471I2169241J86536D01*
G01*
X95888591Y-141555791D02*
X96011718Y-141217502D01*
X95888591Y-141555791D02*
X96978634Y-141952535D01*
X97119863Y-138172898D02*
X96777843Y-139112590D01*
X98613699Y-142547650D02*
X98970782Y-142677617D01*
X101706738Y-141651486D02*
X106405201Y-143361587D01*
X104952373Y-138991119D02*
X99743055Y-137105724D01*
X106405201Y-143361587D02*
X106747222Y-142421894D01*
X107516767Y-140307586D02*
X107636474Y-139978693D01*
X107636474Y-139978693D02*
X106706178Y-139640093D01*
X97119863Y-138172899D02*
G75*
G02*
X99743055Y-137105723I1845183J-778006D01*
G01*
X98981586Y-142658701D02*
G75*
G02*
X101706738Y-141651486I1921888J-1009685D01*
G01*
X87073696Y-97913692D02*
X87136210Y-97559161D01*
X87073696Y-97913692D02*
X88216073Y-98115124D01*
X87698830Y-94368384D02*
X87525182Y-95353192D01*
X89929639Y-98417272D02*
X90303866Y-98483258D01*
X92820069Y-96997622D02*
X97744109Y-97865863D01*
X95554429Y-93814074D02*
X90096858Y-92861911D01*
X97744109Y-97865863D02*
X97917757Y-96881056D01*
X98308466Y-94665238D02*
X98369243Y-94320554D01*
X98369243Y-94320554D02*
X97394283Y-94148644D01*
X87698830Y-94368385D02*
G75*
G02*
X90096858Y-92861911I1952250J-445776D01*
G01*
X90311220Y-98462753D02*
G75*
G02*
X92820069Y-96997623I2068018J-660610D01*
G01*
X215259298Y-88784962D02*
X215432946Y-89769770D01*
X215884431Y-92330271D02*
X215821918Y-91975739D01*
X215884431Y-92330271D02*
X217026808Y-92128839D01*
X218740374Y-91826691D02*
X219114601Y-91760704D01*
X220970941Y-89504071D02*
X225894981Y-88635830D01*
X222451561Y-85577308D02*
X216997463Y-86549167D01*
X225269849Y-85090521D02*
X224294888Y-85262434D01*
X225330625Y-85435205D02*
X225269849Y-85090521D01*
X225894981Y-88635830D02*
X225721333Y-87651023D01*
X215259298Y-88784963D02*
G75*
G02*
X216997463Y-86549167I1986980J248816D01*
G01*
X219114498Y-91738921D02*
G75*
G02*
X220970941Y-89504071I2169241J86536D01*
G01*
X44746033Y-116463793D02*
X44777409Y-116105163D01*
X44746033Y-116463793D02*
X45901618Y-116564894D01*
X45059793Y-112877492D02*
X44972638Y-113873687D01*
X47634997Y-116716545D02*
X48013551Y-116749664D01*
X50390699Y-115050380D02*
X55371673Y-115486158D01*
X52837188Y-111640630D02*
X47317397Y-111167749D01*
X55371673Y-115486158D02*
X55458829Y-114489964D01*
X55654929Y-112248526D02*
X55685434Y-111899857D01*
X55685434Y-111899857D02*
X54699201Y-111813573D01*
X45059793Y-112877493D02*
G75*
G02*
X47317397Y-111167749I1983674J-273930D01*
G01*
X48019091Y-116728595D02*
G75*
G02*
X50390699Y-115050380I2117730J-477865D01*
G01*
X236015177Y-73807365D02*
X236102334Y-74803560D01*
X236328938Y-77393666D02*
X236297562Y-77035036D01*
X236328938Y-77393666D02*
X237484523Y-77292566D01*
X239217902Y-77140914D02*
X239596456Y-77107795D01*
X241642413Y-75021540D02*
X246623386Y-74585758D01*
X243459637Y-71238763D02*
X237941589Y-71731568D01*
X246309626Y-70999459D02*
X245323393Y-71085743D01*
X246340130Y-71348128D02*
X246309626Y-70999459D01*
X246623386Y-74585758D02*
X246536231Y-73589566D01*
X236015177Y-73807366D02*
G75*
G02*
X237941589Y-71731568I2001105J74693D01*
G01*
X239598254Y-77086084D02*
G75*
G02*
X241642413Y-75021540I2168535J-102864D01*
G01*
X280361939Y-63790449D02*
X280361939Y-64790449D01*
X280361939Y-67390449D02*
X280361939Y-67030449D01*
X280361939Y-67390449D02*
X281521939Y-67390449D01*
X283261939Y-67390449D02*
X283641939Y-67390449D01*
X285861939Y-65490449D02*
X290861939Y-65490449D01*
X288001939Y-61880449D02*
X282461938Y-61890449D01*
X290861939Y-61890449D02*
X289871939Y-61890449D01*
X290861939Y-62240449D02*
X290861939Y-61890449D01*
X290861939Y-65490449D02*
X290861939Y-64490449D01*
X280361939Y-63790450D02*
G75*
G02*
X282461938Y-61890448I1999999J-99997D01*
G01*
X283645621Y-67368978D02*
G75*
G02*
X285861939Y-65490449I2151317J-291470D01*
G01*
X239816673Y-113905930D02*
X239903830Y-114902125D01*
X240130434Y-117492231D02*
X240099058Y-117133601D01*
X240130434Y-117492231D02*
X241286019Y-117391131D01*
X243019398Y-117239479D02*
X243397952Y-117206360D01*
X245443909Y-115120105D02*
X250424882Y-114684323D01*
X247261133Y-111337328D02*
X241743085Y-111830133D01*
X250111122Y-111098024D02*
X249124889Y-111184308D01*
X250141626Y-111446693D02*
X250111122Y-111098024D01*
X250424882Y-114684323D02*
X250337727Y-113688131D01*
X239816673Y-113905931D02*
G75*
G02*
X241743085Y-111830133I2001105J74693D01*
G01*
X243399750Y-117184649D02*
G75*
G02*
X245443909Y-115120105I2168535J-102864D01*
G01*
X83600732Y-117609847D02*
X83663246Y-117255316D01*
X83600732Y-117609847D02*
X84743109Y-117811279D01*
X84225866Y-114064539D02*
X84052218Y-115049347D01*
X86456675Y-118113427D02*
X86830902Y-118179413D01*
X89347105Y-116693777D02*
X94271145Y-117562018D01*
X92081465Y-113510229D02*
X86623894Y-112558066D01*
X94271145Y-117562018D02*
X94444793Y-116577211D01*
X94835502Y-114361393D02*
X94896279Y-114016709D01*
X94896279Y-114016709D02*
X93921319Y-113844799D01*
X84225866Y-114064540D02*
G75*
G02*
X86623894Y-112558066I1952250J-445776D01*
G01*
X86838256Y-118158908D02*
G75*
G02*
X89347105Y-116693778I2068018J-660610D01*
G01*
X188423328Y-142208736D02*
X188765348Y-143148428D01*
X189654600Y-145591629D02*
X189531473Y-145253340D01*
X189654600Y-145591629D02*
X190744644Y-145194886D01*
X192379709Y-144599771D02*
X192736792Y-144469803D01*
X194173072Y-141925102D02*
X198871534Y-140215002D01*
X194949321Y-137800889D02*
X189746843Y-139705078D01*
X197640262Y-136832108D02*
X196709966Y-137170708D01*
X197759969Y-137161000D02*
X197640262Y-136832108D01*
X198871534Y-140215002D02*
X198529515Y-139275308D01*
X188423328Y-142208736D02*
G75*
G02*
X189746843Y-139705078I1913586J590072D01*
G01*
X192732909Y-144448368D02*
G75*
G02*
X194173072Y-141925102I2121267J461901D01*
G01*
X175457624Y-81891727D02*
X175631272Y-82876535D01*
X176082757Y-85437036D02*
X176020244Y-85082504D01*
X176082757Y-85437036D02*
X177225134Y-85235604D01*
X178938700Y-84933456D02*
X179312927Y-84867469D01*
X181169267Y-82610836D02*
X186093307Y-81742595D01*
X182649887Y-78684073D02*
X177195789Y-79655932D01*
X185468175Y-78197286D02*
X184493214Y-78369199D01*
X185528951Y-78541970D02*
X185468175Y-78197286D01*
X186093307Y-81742595D02*
X185919659Y-80757788D01*
X175457624Y-81891728D02*
G75*
G02*
X177195789Y-79655932I1986980J248816D01*
G01*
X179312824Y-84845686D02*
G75*
G02*
X181169267Y-82610836I2169241J86536D01*
G01*
X260149464Y-43540435D02*
X260149464Y-44540435D01*
X260149464Y-47140435D02*
X260149464Y-46780435D01*
X260149464Y-47140435D02*
X261309464Y-47140435D01*
X263049464Y-47140435D02*
X263429464Y-47140435D01*
X265649464Y-45240435D02*
X270649464Y-45240435D01*
X267789464Y-41630435D02*
X262249463Y-41640435D01*
X270649464Y-41640435D02*
X269659464Y-41640435D01*
X270649464Y-41990435D02*
X270649464Y-41640435D01*
X270649464Y-45240435D02*
X270649464Y-44240435D01*
X260149464Y-43540436D02*
G75*
G02*
X262249463Y-41640434I1999999J-99997D01*
G01*
X263433146Y-47118964D02*
G75*
G02*
X265649464Y-45240435I2151317J-291470D01*
G01*
X237758308Y-93731263D02*
X237845465Y-94727458D01*
X238072069Y-97317564D02*
X238040693Y-96958934D01*
X238072069Y-97317564D02*
X239227654Y-97216464D01*
X240961033Y-97064812D02*
X241339587Y-97031693D01*
X243385544Y-94945438D02*
X248366517Y-94509656D01*
X245202768Y-91162661D02*
X239684720Y-91655466D01*
X248052757Y-90923357D02*
X247066524Y-91009641D01*
X248083261Y-91272026D02*
X248052757Y-90923357D01*
X248366517Y-94509656D02*
X248279362Y-93513464D01*
X237758308Y-93731264D02*
G75*
G02*
X239684720Y-91655466I2001105J74693D01*
G01*
X241341385Y-97009982D02*
G75*
G02*
X243385544Y-94945438I2168535J-102864D01*
G01*
X105437747Y-103182622D02*
X105500261Y-102828091D01*
X105437747Y-103182622D02*
X106580124Y-103384054D01*
X106062881Y-99637314D02*
X105889233Y-100622122D01*
X108293690Y-103686202D02*
X108667917Y-103752188D01*
X111184120Y-102266552D02*
X116108160Y-103134793D01*
X113918480Y-99083004D02*
X108460909Y-98130841D01*
X116108160Y-103134793D02*
X116281808Y-102149986D01*
X116672517Y-99934168D02*
X116733294Y-99589484D01*
X116733294Y-99589484D02*
X115758334Y-99417574D01*
X106062881Y-99637315D02*
G75*
G02*
X108460909Y-98130841I1952250J-445776D01*
G01*
X108675271Y-103731683D02*
G75*
G02*
X111184120Y-102266553I2068018J-660610D01*
G01*
X24585985Y-83798196D02*
X24585985Y-84798196D01*
X24585985Y-87398196D02*
X24585985Y-87038196D01*
X24585985Y-87398196D02*
X25745985Y-87398196D01*
X27485985Y-87398196D02*
X27865985Y-87398196D01*
X30085985Y-85498196D02*
X35085985Y-85498196D01*
X32225985Y-81888196D02*
X26685984Y-81898196D01*
X35085985Y-81898196D02*
X34095985Y-81898196D01*
X35085985Y-82248196D02*
X35085985Y-81898196D01*
X35085985Y-85498196D02*
X35085985Y-84498196D01*
X24585985Y-83798197D02*
G75*
G02*
X26685984Y-81898195I1999999J-99997D01*
G01*
X27869667Y-87376725D02*
G75*
G02*
X30085985Y-85498196I2151317J-291470D01*
G01*
X90546660Y-78217537D02*
X90609174Y-77863006D01*
X90546660Y-78217537D02*
X91689037Y-78418969D01*
X91171794Y-74672229D02*
X90998146Y-75657037D01*
X93402603Y-78721117D02*
X93776830Y-78787103D01*
X96293033Y-77301467D02*
X101217073Y-78169708D01*
X99027393Y-74117919D02*
X93569822Y-73165756D01*
X101217073Y-78169708D02*
X101390721Y-77184901D01*
X101781430Y-74969083D02*
X101842207Y-74624399D01*
X101842207Y-74624399D02*
X100867247Y-74452489D01*
X91171794Y-74672230D02*
G75*
G02*
X93569822Y-73165756I1952250J-445776D01*
G01*
X93784184Y-78766598D02*
G75*
G02*
X96293033Y-77301468I2068018J-660610D01*
G01*
X65653437Y-109977377D02*
X65715951Y-109622846D01*
X65653437Y-109977377D02*
X66795814Y-110178809D01*
X66278571Y-106432069D02*
X66104923Y-107416877D01*
X68509380Y-110480957D02*
X68883607Y-110546943D01*
X71399810Y-109061307D02*
X76323850Y-109929548D01*
X74134170Y-105877759D02*
X68676599Y-104925596D01*
X76323850Y-109929548D02*
X76497498Y-108944741D01*
X76888207Y-106728923D02*
X76948984Y-106384239D01*
X76948984Y-106384239D02*
X75974024Y-106212329D01*
X66278571Y-106432070D02*
G75*
G02*
X68676599Y-104925596I1952250J-445776D01*
G01*
X68890961Y-110526438D02*
G75*
G02*
X71399810Y-109061308I2068018J-660610D01*
G01*
X46804398Y-96289126D02*
X46835774Y-95930496D01*
X46804398Y-96289126D02*
X47959983Y-96390227D01*
X47118158Y-92702825D02*
X47031003Y-93699020D01*
X49693362Y-96541878D02*
X50071916Y-96574997D01*
X52449064Y-94875713D02*
X57430038Y-95311491D01*
X54895553Y-91465963D02*
X49375762Y-90993082D01*
X57430038Y-95311491D02*
X57517194Y-94315297D01*
X57713294Y-92073859D02*
X57743799Y-91725190D01*
X57743799Y-91725190D02*
X56757566Y-91638906D01*
X47118158Y-92702826D02*
G75*
G02*
X49375762Y-90993082I1983674J-273930D01*
G01*
X50077456Y-96553928D02*
G75*
G02*
X52449064Y-94875713I2117730J-477865D01*
G01*
X4469625Y-63790449D02*
X4469625Y-64790449D01*
X4469625Y-67390449D02*
X4469625Y-67030449D01*
X4469625Y-67390449D02*
X5629625Y-67390449D01*
X7369625Y-67390449D02*
X7749625Y-67390449D01*
X9969625Y-65490449D02*
X14969625Y-65490449D01*
X12109625Y-61880449D02*
X6569624Y-61890449D01*
X14969625Y-61890449D02*
X13979625Y-61890449D01*
X14969625Y-62240449D02*
X14969625Y-61890449D01*
X14969625Y-65490449D02*
X14969625Y-64490449D01*
X4469625Y-63790450D02*
G75*
G02*
X6569624Y-61890448I1999999J-99997D01*
G01*
X7753307Y-67368978D02*
G75*
G02*
X9969625Y-65490449I2151317J-291470D01*
G01*
X197312003Y-96417432D02*
X197485651Y-97402240D01*
X197937136Y-99962741D02*
X197874623Y-99608209D01*
X197937136Y-99962741D02*
X199079513Y-99761309D01*
X200793079Y-99459161D02*
X201167306Y-99393174D01*
X203023646Y-97136541D02*
X207947686Y-96268300D01*
X204504266Y-93209778D02*
X199050168Y-94181637D01*
X207322554Y-92722991D02*
X206347593Y-92894904D01*
X207383330Y-93067675D02*
X207322554Y-92722991D01*
X207947686Y-96268300D02*
X207774038Y-95283493D01*
X197312003Y-96417433D02*
G75*
G02*
X199050168Y-94181637I1986980J248816D01*
G01*
X201167203Y-99371391D02*
G75*
G02*
X203023646Y-97136541I2169241J86536D01*
G01*
X260245579Y-63798196D02*
X260245579Y-64798196D01*
X260245579Y-67398196D02*
X260245579Y-67038196D01*
X260245579Y-67398196D02*
X261405579Y-67398196D01*
X263145579Y-67398196D02*
X263525579Y-67398196D01*
X265745579Y-65498196D02*
X270745579Y-65498196D01*
X267885579Y-61888196D02*
X262345578Y-61898196D01*
X270745579Y-61898196D02*
X269755579Y-61898196D01*
X270745579Y-62248196D02*
X270745579Y-61898196D01*
X270745579Y-65498196D02*
X270745579Y-64498196D01*
X260245579Y-63798197D02*
G75*
G02*
X262345578Y-61898195I1999999J-99997D01*
G01*
X263529261Y-67376725D02*
G75*
G02*
X265745579Y-65498196I2151317J-291470D01*
G01*
X4565740Y-43532688D02*
X4565740Y-44532688D01*
X4565740Y-47132688D02*
X4565740Y-46772688D01*
X4565740Y-47132688D02*
X5725740Y-47132688D01*
X7465740Y-47132688D02*
X7845740Y-47132688D01*
X10065740Y-45232688D02*
X15065740Y-45232688D01*
X12205740Y-41622688D02*
X6665739Y-41632688D01*
X15065740Y-41632688D02*
X14075740Y-41632688D01*
X15065740Y-41982688D02*
X15065740Y-41632688D01*
X15065740Y-45232688D02*
X15065740Y-44232688D01*
X4565740Y-43532689D02*
G75*
G02*
X6665739Y-41632687I1999999J-99997D01*
G01*
X7849422Y-47111217D02*
G75*
G02*
X10065740Y-45232688I2151317J-291470D01*
G01*
X101964783Y-122878778D02*
X102027297Y-122524247D01*
X101964783Y-122878778D02*
X103107160Y-123080210D01*
X102589917Y-119333470D02*
X102416269Y-120318278D01*
X104820726Y-123382358D02*
X105194953Y-123448344D01*
X107711156Y-121962708D02*
X112635196Y-122830949D01*
X110445516Y-118779160D02*
X104987945Y-117826997D01*
X112635196Y-122830949D02*
X112808844Y-121846142D01*
X113199553Y-119630324D02*
X113260330Y-119285640D01*
X113260330Y-119285640D02*
X112285370Y-119113730D01*
X102589917Y-119333471D02*
G75*
G02*
X104987945Y-117826997I1952250J-445776D01*
G01*
X105202307Y-123427839D02*
G75*
G02*
X107711156Y-121962709I2068018J-660610D01*
G01*
X193839039Y-76721277D02*
X194012687Y-77706085D01*
X194464172Y-80266586D02*
X194401659Y-79912054D01*
X194464172Y-80266586D02*
X195606549Y-80065154D01*
X197320115Y-79763006D02*
X197694342Y-79697019D01*
X199550682Y-77440386D02*
X204474722Y-76572145D01*
X201031302Y-73513623D02*
X195577204Y-74485482D01*
X203849590Y-73026836D02*
X202874629Y-73198749D01*
X203910366Y-73371520D02*
X203849590Y-73026836D01*
X204474722Y-76572145D02*
X204301074Y-75587338D01*
X193839039Y-76721278D02*
G75*
G02*
X195577204Y-74485482I1986980J248816D01*
G01*
X197694239Y-79675236D02*
G75*
G02*
X199550682Y-77440386I2169241J86536D01*
G01*
X218732262Y-108481117D02*
X218905910Y-109465925D01*
X219357395Y-112026426D02*
X219294882Y-111671894D01*
X219357395Y-112026426D02*
X220499772Y-111824994D01*
X222213338Y-111522846D02*
X222587565Y-111456859D01*
X224443905Y-109200226D02*
X229367945Y-108331985D01*
X225924525Y-105273463D02*
X220470427Y-106245322D01*
X228742813Y-104786676D02*
X227767852Y-104958589D01*
X228803589Y-105131360D02*
X228742813Y-104786676D01*
X229367945Y-108331985D02*
X229194297Y-107347178D01*
X218732262Y-108481118D02*
G75*
G02*
X220470427Y-106245322I1986980J248816D01*
G01*
X222587462Y-111435076D02*
G75*
G02*
X224443905Y-109200226I2169241J86536D01*
G01*
X200784967Y-116113587D02*
X200958615Y-117098395D01*
X201410100Y-119658896D02*
X201347587Y-119304364D01*
X201410100Y-119658896D02*
X202552477Y-119457464D01*
X204266043Y-119155316D02*
X204640270Y-119089329D01*
X206496610Y-116832696D02*
X211420650Y-115964455D01*
X207977230Y-112905933D02*
X202523132Y-113877792D01*
X210795518Y-112419146D02*
X209820557Y-112591059D01*
X210856294Y-112763830D02*
X210795518Y-112419146D01*
X211420650Y-115964455D02*
X211247002Y-114979648D01*
X200784967Y-116113588D02*
G75*
G02*
X202523132Y-113877792I1986980J248816D01*
G01*
X204640167Y-119067546D02*
G75*
G02*
X206496610Y-116832696I2169241J86536D01*
G01*
X69126401Y-90281222D02*
X69188915Y-89926691D01*
X69126401Y-90281222D02*
X70268778Y-90482654D01*
X69751535Y-86735914D02*
X69577887Y-87720722D01*
X71982344Y-90784802D02*
X72356571Y-90850788D01*
X74872774Y-89365152D02*
X79796814Y-90233393D01*
X77607134Y-86181604D02*
X72149563Y-85229441D01*
X79796814Y-90233393D02*
X79970462Y-89248586D01*
X80361171Y-87032768D02*
X80421948Y-86688084D01*
X80421948Y-86688084D02*
X79446988Y-86516174D01*
X69751535Y-86735915D02*
G75*
G02*
X72149563Y-85229441I1952250J-445776D01*
G01*
X72363925Y-90830283D02*
G75*
G02*
X74872774Y-89365153I2068018J-660610D01*
G01*
X50361650Y-56337128D02*
X50393026Y-55978498D01*
X50361650Y-56337128D02*
X51517235Y-56438229D01*
X50675410Y-52750827D02*
X50588255Y-53747022D01*
X53250614Y-56589880D02*
X53629168Y-56622999D01*
X56006316Y-54923715D02*
X60987290Y-55359493D01*
X58452805Y-51513965D02*
X52933014Y-51041084D01*
X60987290Y-55359493D02*
X61074446Y-54363299D01*
X61270546Y-52121861D02*
X61301051Y-51773192D01*
X61301051Y-51773192D02*
X60314818Y-51686908D01*
X50675410Y-52750828D02*
G75*
G02*
X52933014Y-51041084I1983674J-273930D01*
G01*
X53634708Y-56601930D02*
G75*
G02*
X56006316Y-54923715I2117730J-477865D01*
G01*
X260245579Y-83798196D02*
X260245579Y-84798196D01*
X260245579Y-87398196D02*
X260245579Y-87038196D01*
X260245579Y-87398196D02*
X261405579Y-87398196D01*
X263145579Y-87398196D02*
X263525579Y-87398196D01*
X265745579Y-85498196D02*
X270745579Y-85498196D01*
X267885579Y-81888196D02*
X262345578Y-81898196D01*
X270745579Y-81898196D02*
X269755579Y-81898196D01*
X270745579Y-82248196D02*
X270745579Y-81898196D01*
X270745579Y-85498196D02*
X270745579Y-84498196D01*
X260245579Y-83798197D02*
G75*
G02*
X262345578Y-81898195I1999999J-99997D01*
G01*
X263529261Y-87376725D02*
G75*
G02*
X265745579Y-85498196I2151317J-291470D01*
G01*
X130830731Y-163512065D02*
X131062135Y-163236289D01*
X130830731Y-163512065D02*
X131719343Y-164257699D01*
X133052260Y-165376149D02*
X133343357Y-165620409D01*
X133144767Y-160754305D02*
X132501979Y-161520350D01*
X136265272Y-165591913D02*
X140095494Y-168805851D01*
X140095494Y-168805851D02*
X140738282Y-168039806D01*
X140225070Y-164202058D02*
X135974756Y-160648674D01*
X142184554Y-166316206D02*
X142409530Y-166048091D01*
X142409530Y-166048091D02*
X141651146Y-165411731D01*
X133144766Y-160754306D02*
G75*
G02*
X135974755Y-160648675I1467810J-1362172D01*
G01*
X133359979Y-165606328D02*
G75*
G02*
X136265272Y-165591913I1460651J-1606118D01*
G01*
X53118327Y-134197161D02*
X53118327Y-135197161D01*
X53118327Y-137797161D02*
X53118327Y-137437161D01*
X53118327Y-137797161D02*
X54278327Y-137797161D01*
X56018327Y-137797161D02*
X56398327Y-137797161D01*
X58618327Y-135897161D02*
X63618327Y-135897161D01*
X60758327Y-132287161D02*
X55218326Y-132297161D01*
X63618327Y-132297161D02*
X62628327Y-132297161D01*
X63618327Y-132647161D02*
X63618327Y-132297161D01*
X63618327Y-135897161D02*
X63618327Y-134897161D01*
X53118327Y-134197162D02*
G75*
G02*
X55218326Y-132297160I1999999J-99997D01*
G01*
X56402009Y-137775690D02*
G75*
G02*
X58618327Y-135897161I2151317J-291470D01*
G01*
X182420916Y-121382518D02*
X182594564Y-122367326D01*
X183046049Y-124927827D02*
X182983536Y-124573295D01*
X183046049Y-124927827D02*
X184188426Y-124726395D01*
X185901992Y-124424247D02*
X186276219Y-124358260D01*
X188132559Y-122101627D02*
X193056599Y-121233386D01*
X189613179Y-118174864D02*
X184159081Y-119146723D01*
X192431467Y-117688077D02*
X191456506Y-117859990D01*
X192492243Y-118032761D02*
X192431467Y-117688077D01*
X193056599Y-121233386D02*
X192882951Y-120248579D01*
X182420916Y-121382519D02*
G75*
G02*
X184159081Y-119146723I1986980J248816D01*
G01*
X186276116Y-124336477D02*
G75*
G02*
X188132559Y-122101627I2169241J86536D01*
G01*
X160211725Y-114718088D02*
X160385373Y-115702896D01*
X160836858Y-118263397D02*
X160774345Y-117908865D01*
X160836858Y-118263397D02*
X161979235Y-118061965D01*
X163692801Y-117759817D02*
X164067028Y-117693830D01*
X165923368Y-115437197D02*
X170847408Y-114568956D01*
X167403988Y-111510434D02*
X161949890Y-112482293D01*
X170222276Y-111023647D02*
X169247315Y-111195560D01*
X170283052Y-111368331D02*
X170222276Y-111023647D01*
X170847408Y-114568956D02*
X170673760Y-113584149D01*
X160211725Y-114718089D02*
G75*
G02*
X161949890Y-112482293I1986980J248816D01*
G01*
X164066925Y-117672047D02*
G75*
G02*
X165923368Y-115437197I2169241J86536D01*
G01*
X190286725Y-57093088D02*
X190460373Y-58077896D01*
X190911858Y-60638397D02*
X190849345Y-60283865D01*
X190911858Y-60638397D02*
X192054235Y-60436965D01*
X193767801Y-60134817D02*
X194142028Y-60068830D01*
X195998368Y-57812197D02*
X200922408Y-56943956D01*
X197478988Y-53885434D02*
X192024890Y-54857293D01*
X200297276Y-53398647D02*
X199322315Y-53570560D01*
X200358052Y-53743331D02*
X200297276Y-53398647D01*
X200922408Y-56943956D02*
X200748760Y-55959149D01*
X190286725Y-57093089D02*
G75*
G02*
X192024890Y-54857293I1986980J248816D01*
G01*
X194141925Y-60047047D02*
G75*
G02*
X195998368Y-57812197I2169241J86536D01*
G01*
X76199933Y-137324217D02*
X76262447Y-136969686D01*
X76199933Y-137324217D02*
X77342310Y-137525649D01*
X76825067Y-133778909D02*
X76651419Y-134763717D01*
X79055876Y-137827797D02*
X79430103Y-137893783D01*
X81946306Y-136408147D02*
X86870346Y-137276388D01*
X84680666Y-133224599D02*
X79223095Y-132272436D01*
X86870346Y-137276388D02*
X87043994Y-136291581D01*
X87434703Y-134075763D02*
X87495480Y-133731079D01*
X87495480Y-133731079D02*
X86520520Y-133559169D01*
X76825067Y-133778910D02*
G75*
G02*
X79223095Y-132272436I1952250J-445776D01*
G01*
X79437457Y-137873278D02*
G75*
G02*
X81946306Y-136408148I2068018J-660610D01*
G01*
X4469600Y-123790435D02*
X4469600Y-124790435D01*
X4469600Y-127390435D02*
X4469600Y-127030435D01*
X4469600Y-127390435D02*
X5629600Y-127390435D01*
X7369600Y-127390435D02*
X7749600Y-127390435D01*
X9969600Y-125490435D02*
X14969600Y-125490435D01*
X12109600Y-121880435D02*
X6569599Y-121890435D01*
X14969600Y-121890435D02*
X13979600Y-121890435D01*
X14969600Y-122240435D02*
X14969600Y-121890435D01*
X14969600Y-125490435D02*
X14969600Y-124490435D01*
X4469600Y-123790436D02*
G75*
G02*
X6569599Y-121890434I1999999J-99997D01*
G01*
X7753282Y-127368964D02*
G75*
G02*
X9969600Y-125490435I2151317J-291470D01*
G01*
X260245533Y-103798149D02*
X260245533Y-104798149D01*
X260245533Y-107398149D02*
X260245533Y-107038149D01*
X260245533Y-107398149D02*
X261405533Y-107398149D01*
X263145533Y-107398149D02*
X263525533Y-107398149D01*
X265745533Y-105498149D02*
X270745533Y-105498149D01*
X267885533Y-101888149D02*
X262345532Y-101898149D01*
X270745533Y-101898149D02*
X269755533Y-101898149D01*
X270745533Y-102248149D02*
X270745533Y-101898149D01*
X270745533Y-105498149D02*
X270745533Y-104498149D01*
X260245533Y-103798150D02*
G75*
G02*
X262345532Y-101898148I1999999J-99997D01*
G01*
X263529215Y-107376678D02*
G75*
G02*
X265745533Y-105498149I2151317J-291470D01*
G01*
X24682100Y-43540435D02*
X24682100Y-44540435D01*
X24682100Y-47140435D02*
X24682100Y-46780435D01*
X24682100Y-47140435D02*
X25842100Y-47140435D01*
X27582100Y-47140435D02*
X27962100Y-47140435D01*
X30182100Y-45240435D02*
X35182100Y-45240435D01*
X32322100Y-41630435D02*
X26782099Y-41640435D01*
X35182100Y-41640435D02*
X34192100Y-41640435D01*
X35182100Y-41990435D02*
X35182100Y-41640435D01*
X35182100Y-45240435D02*
X35182100Y-44240435D01*
X24682100Y-43540436D02*
G75*
G02*
X26782099Y-41640434I1999999J-99997D01*
G01*
X27965782Y-47118964D02*
G75*
G02*
X30182100Y-45240435I2151317J-291470D01*
G01*
X108928075Y-83387987D02*
X108990589Y-83033456D01*
X108928075Y-83387987D02*
X110070452Y-83589419D01*
X109553209Y-79842679D02*
X109379561Y-80827487D01*
X111784018Y-83891567D02*
X112158245Y-83957553D01*
X114674448Y-82471917D02*
X119598488Y-83340158D01*
X117408808Y-79288369D02*
X111951237Y-78336206D01*
X119598488Y-83340158D02*
X119772136Y-82355351D01*
X120162845Y-80139533D02*
X120223622Y-79794849D01*
X120223622Y-79794849D02*
X119248662Y-79622939D01*
X109553209Y-79842680D02*
G75*
G02*
X111951237Y-78336206I1952250J-445776D01*
G01*
X112165599Y-83937048D02*
G75*
G02*
X114674448Y-82471918I2068018J-660610D01*
G01*
X76173974Y-50814348D02*
X76236488Y-50459817D01*
X76173974Y-50814348D02*
X77316351Y-51015780D01*
X76799108Y-47269040D02*
X76625460Y-48253848D01*
X79029917Y-51317928D02*
X79404144Y-51383914D01*
X81920347Y-49898278D02*
X86844387Y-50766519D01*
X84654707Y-46714730D02*
X79197136Y-45762567D01*
X86844387Y-50766519D02*
X87018035Y-49781712D01*
X87408744Y-47565894D02*
X87469521Y-47221210D01*
X87469521Y-47221210D02*
X86494561Y-47049300D01*
X76799108Y-47269041D02*
G75*
G02*
X79197136Y-45762567I1952250J-445776D01*
G01*
X79411498Y-51363409D02*
G75*
G02*
X81920347Y-49898279I2068018J-660610D01*
G01*
X169712859Y-155385512D02*
X170355647Y-156151556D01*
X172026894Y-158143272D02*
X171795491Y-157867496D01*
X172026894Y-158143272D02*
X172915506Y-157397638D01*
X174248423Y-156279188D02*
X174539521Y-156034929D01*
X174337714Y-149011470D02*
X170100255Y-152580174D01*
X175018843Y-153152456D02*
X178849065Y-149938518D01*
X176535030Y-147180757D02*
X175776645Y-147817117D01*
X176760005Y-147448873D02*
X176535030Y-147180757D01*
X178849065Y-149938518D02*
X178206277Y-149172473D01*
X169712860Y-155385513D02*
G75*
G02*
X170100254Y-152580173I1596365J1208973D01*
G01*
X174528540Y-156016114D02*
G75*
G02*
X175018843Y-153152457I1835348J1159562D01*
G01*
X211786335Y-69088807D02*
X211959983Y-70073615D01*
X212411468Y-72634116D02*
X212348955Y-72279584D01*
X212411468Y-72634116D02*
X213553845Y-72432684D01*
X215267411Y-72130536D02*
X215641638Y-72064549D01*
X217497978Y-69807916D02*
X222422018Y-68939675D01*
X218978598Y-65881153D02*
X213524500Y-66853012D01*
X221796886Y-65394366D02*
X220821925Y-65566279D01*
X221857662Y-65739050D02*
X221796886Y-65394366D01*
X222422018Y-68939675D02*
X222248370Y-67954868D01*
X211786335Y-69088808D02*
G75*
G02*
X213524500Y-66853012I1986980J248816D01*
G01*
X215641535Y-72042766D02*
G75*
G02*
X217497978Y-69807916I2169241J86536D01*
G01*
X208211725Y-49318088D02*
X208385373Y-50302896D01*
X208836858Y-52863397D02*
X208774345Y-52508865D01*
X208836858Y-52863397D02*
X209979235Y-52661965D01*
X211692801Y-52359817D02*
X212067028Y-52293830D01*
X213923368Y-50037197D02*
X218847408Y-49168956D01*
X215403988Y-46110434D02*
X209949890Y-47082293D01*
X218222276Y-45623647D02*
X217247315Y-45795560D01*
X218283052Y-45968331D02*
X218222276Y-45623647D01*
X218847408Y-49168956D02*
X218673760Y-48184149D01*
X208211725Y-49318089D02*
G75*
G02*
X209949890Y-47082293I1986980J248816D01*
G01*
X212066925Y-52272047D02*
G75*
G02*
X213923368Y-50037197I2169241J86536D01*
G01*
X154447473Y-168339199D02*
X155090261Y-169105243D01*
X156761508Y-171096959D02*
X156530105Y-170821183D01*
X156761508Y-171096959D02*
X157650120Y-170351325D01*
X158983037Y-169232875D02*
X159274135Y-168988616D01*
X159072328Y-161965157D02*
X154834869Y-165533861D01*
X159753457Y-166106143D02*
X163583679Y-162892205D01*
X161269644Y-160134444D02*
X160511259Y-160770804D01*
X161494619Y-160402560D02*
X161269644Y-160134444D01*
X163583679Y-162892205D02*
X162940891Y-162126160D01*
X154447474Y-168339200D02*
G75*
G02*
X154834868Y-165533860I1596365J1208973D01*
G01*
X159263154Y-168969801D02*
G75*
G02*
X159753457Y-166106144I1835348J1159562D01*
G01*
X112573974Y-63664348D02*
X112636488Y-63309817D01*
X112573974Y-63664348D02*
X113716351Y-63865780D01*
X113199108Y-60119040D02*
X113025460Y-61103848D01*
X115429917Y-64167928D02*
X115804144Y-64233914D01*
X118320347Y-62748278D02*
X123244387Y-63616519D01*
X121054707Y-59564730D02*
X115597136Y-58612567D01*
X123244387Y-63616519D02*
X123418035Y-62631712D01*
X123808744Y-60415894D02*
X123869521Y-60071210D01*
X123869521Y-60071210D02*
X122894561Y-59899300D01*
X113199108Y-60119041D02*
G75*
G02*
X115597136Y-58612567I1952250J-445776D01*
G01*
X115811498Y-64213409D02*
G75*
G02*
X118320347Y-62748279I2068018J-660610D01*
G01*
X171811725Y-62168088D02*
X171985373Y-63152896D01*
X172436858Y-65713397D02*
X172374345Y-65358865D01*
X172436858Y-65713397D02*
X173579235Y-65511965D01*
X175292801Y-65209817D02*
X175667028Y-65143830D01*
X177523368Y-62887197D02*
X182447408Y-62018956D01*
X179003988Y-58960434D02*
X173549890Y-59932293D01*
X181822276Y-58473647D02*
X180847315Y-58645560D01*
X181883052Y-58818331D02*
X181822276Y-58473647D01*
X182447408Y-62018956D02*
X182273760Y-61034149D01*
X171811725Y-62168089D02*
G75*
G02*
X173549890Y-59932293I1986980J248816D01*
G01*
X175666925Y-65122047D02*
G75*
G02*
X177523368Y-62887197I2169241J86536D01*
G01*
X115565345Y-150558378D02*
X115796749Y-150282602D01*
X115565345Y-150558378D02*
X116453957Y-151304012D01*
X117786874Y-152422462D02*
X118077971Y-152666722D01*
X117879381Y-147800618D02*
X117236593Y-148566663D01*
X120999886Y-152638226D02*
X124830108Y-155852164D01*
X124830108Y-155852164D02*
X125472896Y-155086119D01*
X124959684Y-151248371D02*
X120709370Y-147694987D01*
X126919168Y-153362519D02*
X127144144Y-153094404D01*
X127144144Y-153094404D02*
X126385760Y-152458044D01*
X117879380Y-147800619D02*
G75*
G02*
X120709369Y-147694988I1467810J-1362172D01*
G01*
X118094593Y-152652641D02*
G75*
G02*
X120999886Y-152638226I1460651J-1606118D01*
G01*
X124173974Y-116214348D02*
X124236488Y-115859817D01*
X124173974Y-116214348D02*
X125316351Y-116415780D01*
X124799108Y-112669040D02*
X124625460Y-113653848D01*
X127029917Y-116717928D02*
X127404144Y-116783914D01*
X129920347Y-115298278D02*
X134844387Y-116166519D01*
X132654707Y-112114730D02*
X127197136Y-111162567D01*
X134844387Y-116166519D02*
X135018035Y-115181712D01*
X135408744Y-112965894D02*
X135469521Y-112621210D01*
X135469521Y-112621210D02*
X134494561Y-112449300D01*
X124799108Y-112669041D02*
G75*
G02*
X127197136Y-111162567I1952250J-445776D01*
G01*
X127411498Y-116763409D02*
G75*
G02*
X129920347Y-115298279I2068018J-660610D01*
G01*
X4469671Y-103790402D02*
X4469671Y-104790402D01*
X4469671Y-107390402D02*
X4469671Y-107030402D01*
X4469671Y-107390402D02*
X5629671Y-107390402D01*
X7369671Y-107390402D02*
X7749671Y-107390402D01*
X9969671Y-105490402D02*
X14969671Y-105490402D01*
X12109671Y-101880402D02*
X6569670Y-101890402D01*
X14969671Y-101890402D02*
X13979671Y-101890402D01*
X14969671Y-102240402D02*
X14969671Y-101890402D01*
X14969671Y-105490402D02*
X14969671Y-104490402D01*
X4469671Y-103790403D02*
G75*
G02*
X6569670Y-101890401I1999999J-99997D01*
G01*
X7753353Y-107368931D02*
G75*
G02*
X9969671Y-105490402I2151317J-291470D01*
G01*
X48547529Y-76365228D02*
X48578905Y-76006598D01*
X48547529Y-76365228D02*
X49703114Y-76466329D01*
X48861289Y-72778927D02*
X48774134Y-73775122D01*
X51436493Y-76617980D02*
X51815047Y-76651099D01*
X54192195Y-74951815D02*
X59173169Y-75387593D01*
X56638684Y-71542065D02*
X51118893Y-71069184D01*
X59173169Y-75387593D02*
X59260325Y-74391399D01*
X59456425Y-72149961D02*
X59486930Y-71801292D01*
X59486930Y-71801292D02*
X58500697Y-71715008D01*
X48861289Y-72778928D02*
G75*
G02*
X51118893Y-71069184I1983674J-273930D01*
G01*
X51820587Y-76630030D02*
G75*
G02*
X54192195Y-74951815I2117730J-477865D01*
G01*
X4469625Y-83790449D02*
X4469625Y-84790449D01*
X4469625Y-87390449D02*
X4469625Y-87030449D01*
X4469625Y-87390449D02*
X5629625Y-87390449D01*
X7369625Y-87390449D02*
X7749625Y-87390449D01*
X9969625Y-85490449D02*
X14969625Y-85490449D01*
X12109625Y-81880449D02*
X6569624Y-81890449D01*
X14969625Y-81890449D02*
X13979625Y-81890449D01*
X14969625Y-82240449D02*
X14969625Y-81890449D01*
X14969625Y-85490449D02*
X14969625Y-84490449D01*
X4469625Y-83790450D02*
G75*
G02*
X6569624Y-81890448I1999999J-99997D01*
G01*
X7753307Y-87368978D02*
G75*
G02*
X9969625Y-85490449I2151317J-291470D01*
G01*
D12*
X18184136Y-42145800D02*
X22194136Y-42145800D01*
X18184136Y-44145800D02*
X18184136Y-42145800D01*
X18184136Y-44145800D02*
X22194136Y-44145800D01*
X18184136Y-62395800D02*
X22194136Y-62395800D01*
X18184136Y-64395800D02*
X18184136Y-62395800D01*
X18184136Y-64395800D02*
X22194136Y-64395800D01*
X18184136Y-82385800D02*
X22194136Y-82385800D01*
X18184136Y-84385800D02*
X18184136Y-82385800D01*
X18184136Y-84385800D02*
X22194136Y-84385800D01*
X18184136Y-102385800D02*
X22194136Y-102385800D01*
X18184136Y-104385800D02*
X18184136Y-102385800D01*
X18184136Y-104385800D02*
X22194136Y-104385800D01*
X18184136Y-122395800D02*
X22194136Y-122395800D01*
X18184136Y-124395800D02*
X18184136Y-122395800D01*
X18184136Y-124395800D02*
X22194136Y-124395800D01*
X38024136Y-46585801D02*
X42034136Y-46585801D01*
X38024136Y-48585801D02*
X38024136Y-46585801D01*
X38024136Y-48585801D02*
X42034136Y-48585801D01*
X39514136Y-62395801D02*
X43524136Y-62395801D01*
X39514136Y-64395801D02*
X39514136Y-62395801D01*
X39514136Y-64395801D02*
X43524136Y-64395801D01*
X39484136Y-82435800D02*
X43494136Y-82435800D01*
X39484136Y-84435800D02*
X39484136Y-82435800D01*
X39484136Y-84435800D02*
X43494136Y-84435800D01*
X39466636Y-102375800D02*
X43476636Y-102375800D01*
X39466636Y-104375800D02*
X39466636Y-102375800D01*
X39466636Y-104375800D02*
X43476636Y-104375800D01*
X39486636Y-122345800D02*
X43496636Y-122345800D01*
X39486636Y-124345800D02*
X39486636Y-122345800D01*
X39486636Y-124345800D02*
X43496636Y-124345800D01*
X65186636Y-52325800D02*
X69196636Y-52325800D01*
X65186636Y-54325800D02*
X65186636Y-52325800D01*
X65186636Y-54325800D02*
X69196636Y-54325800D01*
X63406636Y-72475800D02*
X67416636Y-72475800D01*
X63406636Y-74475800D02*
X63406636Y-72475800D01*
X63406636Y-74475800D02*
X67416636Y-74475800D01*
X62034136Y-92245800D02*
X66044136Y-92245800D01*
X62034136Y-94245800D02*
X62034136Y-92245800D01*
X62034136Y-94245800D02*
X66044136Y-94245800D01*
X59266636Y-112505800D02*
X63276636Y-112505800D01*
X59266636Y-114505800D02*
X59266636Y-112505800D01*
X59266636Y-114505800D02*
X63276636Y-114505800D01*
X67726636Y-132745800D02*
X71736636Y-132745800D01*
X67726636Y-134745800D02*
X67726636Y-132745800D01*
X67726636Y-134745800D02*
X71736636Y-134745800D01*
X88816636Y-52315800D02*
X92826636Y-52315800D01*
X88816636Y-54315800D02*
X88816636Y-52315800D01*
X88816636Y-54315800D02*
X92826636Y-54315800D01*
X87296636Y-67625800D02*
X91306636Y-67625800D01*
X87296636Y-69625800D02*
X87296636Y-67625800D01*
X87296636Y-69625800D02*
X91306636Y-69625800D01*
X83634136Y-87365800D02*
X87644136Y-87365800D01*
X83634136Y-89365800D02*
X83634136Y-87365800D01*
X83634136Y-89365800D02*
X87644136Y-89365800D01*
X80376636Y-107075800D02*
X84386636Y-107075800D01*
X80376636Y-109075800D02*
X80376636Y-107075800D01*
X80376636Y-109075800D02*
X84386636Y-109075800D01*
X90824136Y-134455800D02*
X94834136Y-134455800D01*
X90824136Y-136455800D02*
X90824136Y-134455800D01*
X90824136Y-136455800D02*
X94834136Y-136455800D01*
X108216636Y-55965800D02*
X112226636Y-55965800D01*
X108216636Y-57965800D02*
X108216636Y-55965800D01*
X108216636Y-57965800D02*
X112226636Y-57965800D01*
X105766636Y-75285800D02*
X109776636Y-75285800D01*
X105766636Y-77285800D02*
X105766636Y-75285800D01*
X105766636Y-77285800D02*
X109776636Y-77285800D01*
X101906636Y-94995800D02*
X105916636Y-94995800D01*
X101906636Y-96995800D02*
X101906636Y-94995800D01*
X101906636Y-96995800D02*
X105916636Y-96995800D01*
X98366636Y-114675800D02*
X102376636Y-114675800D01*
X98366636Y-116675800D02*
X98366636Y-114675800D01*
X98366636Y-116675800D02*
X102376636Y-116675800D01*
X110796636Y-140755800D02*
X114806636Y-140755800D01*
X110796636Y-142755800D02*
X110796636Y-140755800D01*
X110796636Y-142755800D02*
X114806636Y-142755800D01*
X127494136Y-60725800D02*
X131504136Y-60725800D01*
X127494136Y-62725800D02*
X127494136Y-60725800D01*
X127494136Y-62725800D02*
X131504136Y-62725800D01*
X123224136Y-80455800D02*
X127234136Y-80455800D01*
X123224136Y-82455800D02*
X123224136Y-80455800D01*
X123224136Y-82455800D02*
X127234136Y-82455800D01*
X121894136Y-100235800D02*
X125904136Y-100235800D01*
X121894136Y-102235800D02*
X121894136Y-100235800D01*
X121894136Y-102235800D02*
X125904136Y-102235800D01*
X118296636Y-119955800D02*
X122306636Y-119955800D01*
X118296636Y-121955800D02*
X118296636Y-119955800D01*
X118296636Y-121955800D02*
X122306636Y-121955800D01*
X129854136Y-153925800D02*
X133864136Y-153925800D01*
X129854136Y-155925800D02*
X129854136Y-153925800D01*
X129854136Y-155925800D02*
X133864136Y-155925800D01*
X162004136Y-156805800D02*
X162004136Y-152795800D01*
X164004136Y-156805800D02*
X162004136Y-156805800D01*
X164004136Y-156805800D02*
X164004136Y-152795800D01*
X184474136Y-71525800D02*
X188484136Y-71525800D01*
X184474136Y-73525800D02*
X184474136Y-71525800D01*
X184474136Y-73525800D02*
X188484136Y-73525800D01*
X187864136Y-91565800D02*
X191874136Y-91565800D01*
X187864136Y-93565800D02*
X187864136Y-91565800D01*
X187864136Y-93565800D02*
X191874136Y-93565800D01*
X192264136Y-112715800D02*
X196274136Y-112715800D01*
X192264136Y-114715800D02*
X192264136Y-112715800D01*
X192264136Y-114715800D02*
X196274136Y-114715800D01*
X195166636Y-130475800D02*
X199176636Y-130475800D01*
X195166636Y-132475800D02*
X195166636Y-130475800D01*
X195166636Y-132475800D02*
X199176636Y-132475800D01*
X177686636Y-142295800D02*
X181696636Y-142295800D01*
X177686636Y-144295800D02*
X177686636Y-142295800D01*
X177686636Y-144295800D02*
X181696636Y-144295800D01*
X202586636Y-66595800D02*
X206596636Y-66595800D01*
X202586636Y-68595800D02*
X202586636Y-66595800D01*
X202586636Y-68595800D02*
X206596636Y-68595800D01*
X206384136Y-83815800D02*
X210394136Y-83815800D01*
X206384136Y-85815800D02*
X206384136Y-83815800D01*
X206384136Y-85815800D02*
X210394136Y-85815800D01*
X210496636Y-107255800D02*
X214506636Y-107255800D01*
X210496636Y-109255800D02*
X210496636Y-107255800D01*
X210496636Y-109255800D02*
X214506636Y-109255800D01*
X214116636Y-127105800D02*
X218126636Y-127105800D01*
X214116636Y-129105800D02*
X214116636Y-127105800D01*
X214116636Y-129105800D02*
X218126636Y-129105800D01*
X201604136Y-133435800D02*
X205614136Y-133435800D01*
X201604136Y-135435800D02*
X201604136Y-133435800D01*
X201604136Y-135435800D02*
X205614136Y-135435800D01*
X223626636Y-60035800D02*
X227636636Y-60035800D01*
X223626636Y-62035800D02*
X223626636Y-60035800D01*
X223626636Y-62035800D02*
X227636636Y-62035800D01*
X227044136Y-79725800D02*
X231054136Y-79725800D01*
X227044136Y-81725800D02*
X227044136Y-79725800D01*
X227044136Y-81725800D02*
X231054136Y-81725800D01*
X230454136Y-99275800D02*
X234464136Y-99275800D01*
X230454136Y-101275800D02*
X230454136Y-99275800D01*
X230454136Y-101275800D02*
X234464136Y-101275800D01*
X231464136Y-119265800D02*
X235474136Y-119265800D01*
X231464136Y-121265800D02*
X231464136Y-119265800D01*
X231464136Y-121265800D02*
X235474136Y-121265800D01*
X222614136Y-130005799D02*
X226624136Y-130005799D01*
X222614136Y-132005799D02*
X222614136Y-130005799D01*
X222614136Y-132005799D02*
X226624136Y-132005799D01*
X249826636Y-51225800D02*
X253836636Y-51225800D01*
X249826636Y-53225800D02*
X249826636Y-51225800D01*
X249826636Y-53225800D02*
X253836636Y-53225800D01*
X251776636Y-71325800D02*
X255786636Y-71325800D01*
X251776636Y-73325800D02*
X251776636Y-71325800D01*
X251776636Y-73325800D02*
X255786636Y-73325800D01*
X253496636Y-91155800D02*
X257506636Y-91155800D01*
X253496636Y-93155800D02*
X253496636Y-91155800D01*
X253496636Y-93155800D02*
X257506636Y-93155800D01*
X255164136Y-111445800D02*
X259174136Y-111445800D01*
X255164136Y-113445800D02*
X255164136Y-111445800D01*
X255164136Y-113445800D02*
X259174136Y-113445800D01*
X242866636Y-127275800D02*
X246876636Y-127275800D01*
X242866636Y-129275800D02*
X242866636Y-127275800D01*
X242866636Y-129275800D02*
X246876636Y-129275800D01*
X272724136Y-53315800D02*
X276734136Y-53315800D01*
X272724136Y-55315800D02*
X272724136Y-53315800D01*
X272724136Y-55315800D02*
X276734136Y-55315800D01*
X273856636Y-62395800D02*
X277866636Y-62395800D01*
X273856636Y-64395800D02*
X273856636Y-62395800D01*
X273856636Y-64395800D02*
X277866636Y-64395800D01*
X273976636Y-82415800D02*
X277986636Y-82415800D01*
X273976636Y-84415800D02*
X273976636Y-82415800D01*
X273976636Y-84415800D02*
X277986636Y-84415800D01*
X273916636Y-102405800D02*
X277926636Y-102405800D01*
X273916636Y-104405800D02*
X273916636Y-102405800D01*
X273916636Y-104405800D02*
X277926636Y-104405800D01*
X273844136Y-122335800D02*
X277854136Y-122335800D01*
X273844136Y-124335800D02*
X273844136Y-122335800D01*
X273844136Y-124335800D02*
X277854136Y-124335800D01*
X293144136Y-55435800D02*
X289134136Y-55435800D01*
X293144136Y-55435800D02*
X293144136Y-57435800D01*
X293144136Y-57435800D02*
X289134136Y-57435800D01*
X295164136Y-75515800D02*
X291154136Y-75515800D01*
X295164136Y-75515800D02*
X295164136Y-77515800D01*
X295164136Y-77515800D02*
X291154136Y-77515800D01*
X295094136Y-95415800D02*
X291084136Y-95415800D01*
X295094136Y-95415800D02*
X295094136Y-97415800D01*
X295094136Y-97415800D02*
X291084136Y-97415800D01*
X295134136Y-115495800D02*
X291124136Y-115495800D01*
X295134136Y-115495800D02*
X295134136Y-117495800D01*
X295134136Y-117495800D02*
X291124136Y-117495800D01*
X295194136Y-118065800D02*
X291184136Y-118065800D01*
X295194136Y-118065800D02*
X295194136Y-120065800D01*
X295194136Y-120065800D02*
X291184136Y-120065800D01*
X170584136Y-109815800D02*
X170584136Y-105915800D01*
X172584136Y-109815800D02*
X170584136Y-109815800D01*
X172584136Y-109815800D02*
X172584136Y-105915800D01*
X138864136Y-113255800D02*
X138864136Y-115255800D01*
X142874136Y-113255800D02*
X138864136Y-113255800D01*
X142874136Y-115255800D02*
X138864136Y-115255800D01*
X141584136Y-156305800D02*
X141584136Y-160315800D01*
X141584136Y-160315800D02*
X143584136Y-160315800D01*
X143584136Y-156305800D02*
X143584136Y-160315800D01*
M02*
