%TF.GenerationSoftware,KiCad,Pcbnew,8.0.5*%
%TF.CreationDate,2024-12-11T09:00:09+01:00*%
%TF.ProjectId,Atreus62,41747265-7573-4363-922e-6b696361645f,rev?*%
%TF.SameCoordinates,Original*%
%TF.FileFunction,Drillmap*%
%TF.FilePolarity,Positive*%
%FSLAX45Y45*%
G04 Gerber Fmt 4.5, Leading zero omitted, Abs format (unit mm)*
G04 Created by KiCad (PCBNEW 8.0.5) date 2024-12-11 09:00:09*
%MOMM*%
%LPD*%
G01*
G04 APERTURE LIST*
%ADD10C,0.250000*%
%ADD11C,0.200000*%
%ADD12C,0.180000*%
%ADD13C,0.300000*%
%ADD14C,0.400000*%
G04 APERTURE END LIST*
D10*
X27597172Y-3807999D02*
X27608683Y-3802340D01*
X22089Y-3840149D02*
X52285Y-3809952D01*
X2101038Y-3794385D02*
X4030093Y-3794239D01*
X-3856Y-13841567D02*
X-4002Y-11912512D01*
X9366806Y-4469957D02*
X9391301Y-4504942D01*
X16051264Y-18275320D02*
X16013388Y-18255603D01*
X29670997Y-7832081D02*
X29668917Y-7853198D01*
X24809691Y-14885701D02*
X24795283Y-14920483D01*
X14476Y-5846178D02*
X5747Y-5825104D01*
X4030093Y-3794239D02*
X7414846Y-4109182D01*
X2041908Y-3795545D02*
X2058314Y-3802340D01*
X20275696Y-4504942D02*
X20300190Y-4469960D01*
X27618286Y-13918826D02*
X27608148Y-13913941D01*
X29659964Y-11869776D02*
X29670853Y-11896063D01*
X6886865Y-14967021D02*
X4957810Y-14967167D01*
X2058849Y-13913941D02*
X2048711Y-13918826D01*
X29670851Y-5903026D02*
X29670997Y-7832081D01*
X8887951Y-15159576D02*
X7795431Y-14967021D01*
X29659966Y-7874428D02*
X29670851Y-7900705D01*
X-4002Y-11912512D02*
X-1922Y-11891395D01*
X27608148Y-13913941D02*
X27596636Y-13919600D01*
X5747Y-5825104D02*
X5601Y-3896048D01*
X7795431Y-14967021D02*
X6886865Y-14967021D01*
X4936693Y-14965087D02*
X4901911Y-14950679D01*
X91736Y-3793611D02*
X2020791Y-3793465D01*
X17666727Y-16965478D02*
X17642612Y-16977567D01*
X20300190Y-4469960D02*
X20336204Y-4447015D01*
X27629758Y-3793611D02*
X29558813Y-3793465D01*
X11105040Y-5220614D02*
X18545784Y-5223613D01*
X24725636Y-14967021D02*
X22796581Y-14967167D01*
X16129715Y-18267720D02*
X16093807Y-18279043D01*
X21870155Y-14967237D02*
X20777527Y-15159982D01*
X-1922Y-11891395D02*
X4874Y-11874989D01*
X19760Y-5857029D02*
X14476Y-5846178D01*
X29670851Y-7900705D02*
X29670997Y-9829761D01*
X17624870Y-17015666D02*
X17609046Y-17028940D01*
X2079964Y-3803114D02*
X2101038Y-3794385D01*
X-3849Y-11843884D02*
X-3995Y-9914829D01*
X27608683Y-3802340D02*
X27629758Y-3793611D01*
X27655809Y-13927702D02*
X27634692Y-13925622D01*
X29662117Y-11864958D02*
X29659964Y-11869776D01*
X52285Y-3809952D02*
X91736Y-3793611D01*
X4876Y-5881951D02*
X19760Y-5857029D01*
X19084755Y-15776245D02*
X17671995Y-16961874D01*
X13615735Y-18275320D02*
X13573191Y-18279043D01*
X12054631Y-17026342D02*
X12039790Y-17011175D01*
X4901911Y-14950679D02*
X4871714Y-14920483D01*
X2058314Y-3802340D02*
X2069825Y-3807999D01*
X7031Y-7874807D02*
X-3853Y-7848529D01*
X29670853Y-11896063D02*
X29670999Y-13825118D01*
X22235930Y-4111894D02*
X25620456Y-3794385D01*
X-3999Y-7917154D02*
X-1919Y-7896037D01*
X13573191Y-18279043D02*
X13532465Y-18266202D01*
X14833414Y-16849580D02*
X13664294Y-18243096D01*
X2048711Y-13918826D02*
X2027637Y-13927556D01*
X29668917Y-7853198D02*
X29662121Y-7869604D01*
X24795283Y-14920483D02*
X24765087Y-14950679D01*
X4881Y-9877306D02*
X7033Y-9872489D01*
X12031590Y-16995423D02*
X12024385Y-16977567D01*
X2107884Y-13928475D02*
X2086767Y-13926396D01*
X10581574Y-15775860D02*
X8887951Y-15159576D01*
X2086767Y-13926396D02*
X2070361Y-13919600D01*
X17609046Y-17028940D02*
X16147228Y-18255740D01*
X29662121Y-7869604D02*
X29659966Y-7874428D01*
X13664294Y-18243096D02*
X13649130Y-18257934D01*
X27596636Y-13919600D02*
X27575562Y-13928330D01*
X11992462Y-16959554D02*
X10581574Y-15775860D01*
X16093807Y-18279043D02*
X16051264Y-18275320D01*
X29659964Y-9872110D02*
X29670846Y-9898380D01*
X-1919Y-5898357D02*
X4876Y-5881951D01*
X12039790Y-17011175D02*
X12031590Y-16995423D01*
X-3853Y-9846209D02*
X-3999Y-7917154D01*
X4855373Y-14881032D02*
X4036939Y-13928330D01*
X29624315Y-13911214D02*
X29584864Y-13927556D01*
X29661396Y-5808655D02*
X29659317Y-5829772D01*
X4957810Y-14967167D02*
X4936693Y-14965087D01*
X29659317Y-5829772D02*
X29652521Y-5846178D01*
X-1915Y-9893712D02*
X4881Y-9877306D01*
X22796581Y-14967167D02*
X21870155Y-14967237D01*
X29558813Y-3793465D02*
X29579930Y-3795545D01*
X29670999Y-13825118D02*
X29668919Y-13846235D01*
X42682Y-13911214D02*
X12486Y-13881018D01*
X-3999Y-5919474D02*
X-1919Y-5898357D01*
X29614712Y-3809952D02*
X29644909Y-3840149D01*
X27570628Y-3796319D02*
X27587034Y-3803114D01*
X7033Y-9872489D02*
X-3853Y-9846209D01*
X9314620Y-4444016D02*
X9335057Y-4449731D01*
X16013388Y-18255603D02*
X14833414Y-16849580D01*
X2020791Y-3793465D02*
X2041908Y-3795545D01*
X9336686Y-4908943D02*
X11105040Y-5220614D01*
X29670846Y-9898380D02*
X29670992Y-11827435D01*
X25646507Y-13928475D02*
X24811771Y-14864584D01*
X4874Y-11874989D02*
X7033Y-11870155D01*
X9400544Y-4546630D02*
X9336686Y-4908943D01*
X29661250Y-3879600D02*
X29661396Y-5808655D01*
X20269166Y-4562851D02*
X20267548Y-4541694D01*
X24765087Y-14950679D02*
X24725636Y-14967021D01*
X13532465Y-18266202D02*
X12054631Y-17026342D01*
X29670992Y-11827435D02*
X29668912Y-11848552D01*
X7681Y-3874931D02*
X22089Y-3840149D01*
X29668912Y-11848552D02*
X29662117Y-11864958D01*
X20330199Y-4908834D02*
X20269166Y-4562851D01*
X18545784Y-5223613D02*
X20330199Y-4908834D01*
X9349071Y-4458660D02*
X9366806Y-4469957D01*
X29670997Y-9829761D02*
X29668917Y-9850878D01*
X12024385Y-16977567D02*
X11992462Y-16959554D01*
X29644909Y-3840149D02*
X29661250Y-3879600D01*
X5601Y-3896048D02*
X7681Y-3874931D01*
X29668919Y-13846235D02*
X29654512Y-13881018D01*
X-1919Y-7896037D02*
X4876Y-7879631D01*
X27549511Y-3794239D02*
X27570628Y-3796319D01*
X17635408Y-16995421D02*
X17624870Y-17015666D01*
X4876Y-7879631D02*
X7031Y-7874807D01*
X29584864Y-13927556D02*
X27655809Y-13927702D01*
X7033Y-11870155D02*
X-3849Y-11843884D01*
X4036939Y-13928330D02*
X2107884Y-13928475D01*
X12486Y-13881018D02*
X-3856Y-13841567D01*
X20777527Y-15159982D02*
X19084755Y-15776245D01*
X-3995Y-9914829D02*
X-1915Y-9893712D01*
X4871714Y-14920483D02*
X4855373Y-14881032D01*
X17671995Y-16961874D02*
X17666727Y-16965478D01*
X24811771Y-14864584D02*
X24809691Y-14885701D01*
X29579930Y-3795545D02*
X29614712Y-3809952D01*
X98581Y-13927702D02*
X77465Y-13925622D01*
X17642612Y-16977567D02*
X17635408Y-16995421D01*
X20267548Y-4541694D02*
X20275696Y-4504942D01*
X2070361Y-13919600D02*
X2058849Y-13913941D01*
X29654512Y-13881018D02*
X29624315Y-13911214D01*
X29662121Y-5881951D02*
X29670851Y-5903026D01*
X27575562Y-13928330D02*
X25646507Y-13928475D01*
X27634692Y-13925622D02*
X27618286Y-13918826D01*
X16147228Y-18255740D02*
X16129715Y-18267720D01*
X2027637Y-13927556D02*
X98581Y-13927702D01*
X9335057Y-4449731D02*
X9349071Y-4458660D01*
X29647238Y-5857029D02*
X29662121Y-5881951D01*
X77465Y-13925622D02*
X42682Y-13911214D01*
X9391301Y-4504942D02*
X9400544Y-4546630D01*
X27587034Y-3803114D02*
X27597172Y-3807999D01*
X7414846Y-4109182D02*
X9314620Y-4444016D01*
X20336204Y-4447015D02*
X22235930Y-4111894D01*
X25620456Y-3794385D02*
X27549511Y-3794239D01*
X29668917Y-9850878D02*
X29662121Y-9867283D01*
X13649130Y-18257934D02*
X13615735Y-18275320D01*
X2069825Y-3807999D02*
X2079964Y-3803114D01*
X29662121Y-9867283D02*
X29659964Y-9872110D01*
X-3853Y-7848529D02*
X-3999Y-5919474D01*
X29652521Y-5846178D02*
X29647238Y-5857029D01*
D11*
D12*
X438960Y-12759043D02*
X618960Y-12939043D01*
X618960Y-12759043D02*
X438960Y-12939043D01*
X438962Y-6759045D02*
X618963Y-6939045D01*
X618963Y-6759045D02*
X438962Y-6939045D01*
X438962Y-8759045D02*
X618963Y-8939045D01*
X618963Y-8759045D02*
X438962Y-8939045D01*
X438967Y-10759040D02*
X618967Y-10939040D01*
X618967Y-10759040D02*
X438967Y-10939040D01*
X448574Y-4733269D02*
X628574Y-4913269D01*
X628574Y-4733269D02*
X448574Y-4913269D01*
X1454960Y-12759043D02*
X1634960Y-12939043D01*
X1634960Y-12759043D02*
X1454960Y-12939043D01*
X1454962Y-6759045D02*
X1634962Y-6939045D01*
X1634962Y-6759045D02*
X1454962Y-6939045D01*
X1454962Y-8759045D02*
X1634962Y-8939045D01*
X1634962Y-8759045D02*
X1454962Y-8939045D01*
X1454967Y-10759040D02*
X1634967Y-10939040D01*
X1634967Y-10759040D02*
X1454967Y-10939040D01*
X1464574Y-4733269D02*
X1644574Y-4913269D01*
X1644574Y-4733269D02*
X1464574Y-4913269D01*
X2450596Y-12759818D02*
X2630596Y-12939818D01*
X2630596Y-12759818D02*
X2450596Y-12939818D01*
X2450599Y-6759820D02*
X2630599Y-6939820D01*
X2630599Y-6759820D02*
X2450599Y-6939820D01*
X2450599Y-8759820D02*
X2630599Y-8939820D01*
X2630599Y-8759820D02*
X2450599Y-8939820D01*
X2450603Y-10759815D02*
X2630603Y-10939815D01*
X2630603Y-10759815D02*
X2450603Y-10939815D01*
X2460210Y-4734044D02*
X2640210Y-4914044D01*
X2640210Y-4734044D02*
X2460210Y-4914044D01*
X3466596Y-12759818D02*
X3646596Y-12939818D01*
X3646596Y-12759818D02*
X3466596Y-12939818D01*
X3466598Y-6759820D02*
X3646598Y-6939820D01*
X3646598Y-6759820D02*
X3466598Y-6939820D01*
X3466598Y-8759820D02*
X3646598Y-8939820D01*
X3646598Y-8759820D02*
X3466598Y-8939820D01*
X3466603Y-10759815D02*
X3646603Y-10939815D01*
X3646603Y-10759815D02*
X3466603Y-10939815D01*
X3476210Y-4734044D02*
X3656210Y-4914044D01*
X3656210Y-4734044D02*
X3476210Y-4914044D01*
X4456704Y-11673107D02*
X4636704Y-11853107D01*
X4636704Y-11673107D02*
X4456704Y-11853107D01*
X4662541Y-9655641D02*
X4842541Y-9835641D01*
X4842541Y-9655641D02*
X4662541Y-9835641D01*
X4836854Y-7663251D02*
X5016854Y-7843251D01*
X5016854Y-7663251D02*
X4836854Y-7843251D01*
X5018266Y-5660441D02*
X5198266Y-5840441D01*
X5198266Y-5660441D02*
X5018266Y-5840441D01*
X5303833Y-13799716D02*
X5483833Y-13979716D01*
X5483833Y-13799716D02*
X5303833Y-13979716D01*
X5468838Y-11761658D02*
X5648838Y-11941658D01*
X5648838Y-11761658D02*
X5468838Y-11941658D01*
X5674674Y-9744191D02*
X5854674Y-9924191D01*
X5854674Y-9744191D02*
X5674674Y-9924191D01*
X5848987Y-7751801D02*
X6028987Y-7931801D01*
X6028987Y-7751801D02*
X5848987Y-7931801D01*
X6030400Y-5748991D02*
X6210400Y-5928991D01*
X6210400Y-5748991D02*
X6030400Y-5928991D01*
X6319833Y-13799716D02*
X6499833Y-13979716D01*
X6499833Y-13799716D02*
X6319833Y-13979716D01*
X6536997Y-11030306D02*
X6716997Y-11210306D01*
X6716997Y-11030306D02*
X6536997Y-11210306D01*
X6884293Y-9060690D02*
X7064293Y-9240690D01*
X7064293Y-9060690D02*
X6884293Y-9240690D01*
X7231589Y-7091075D02*
X7411589Y-7271075D01*
X7411589Y-7091075D02*
X7231589Y-7271075D01*
X7537561Y-11206732D02*
X7717561Y-11386732D01*
X7717561Y-11206732D02*
X7537561Y-11386732D01*
X7589050Y-5114003D02*
X7769050Y-5294003D01*
X7769050Y-5114003D02*
X7589050Y-5294003D01*
X7591646Y-13764990D02*
X7771646Y-13944990D01*
X7771646Y-13764990D02*
X7591646Y-13944990D01*
X7884858Y-9237117D02*
X8064858Y-9417117D01*
X8064858Y-9237117D02*
X7884858Y-9417117D01*
X8232154Y-7267501D02*
X8412154Y-7447501D01*
X8412154Y-7267501D02*
X8232154Y-7447501D01*
X8331726Y-11793553D02*
X8511726Y-11973553D01*
X8511726Y-11793553D02*
X8331726Y-11973553D01*
X8589615Y-5290429D02*
X8769615Y-5470429D01*
X8769615Y-5290429D02*
X8589615Y-5470429D01*
X8592211Y-13941416D02*
X8772211Y-14121416D01*
X8772211Y-13941416D02*
X8592211Y-14121416D01*
X8679023Y-9823937D02*
X8859023Y-10003937D01*
X8859023Y-9823937D02*
X8679023Y-10003937D01*
X9026319Y-7854322D02*
X9206319Y-8034322D01*
X9206319Y-7854322D02*
X9026319Y-8034322D01*
X9332291Y-11969979D02*
X9512291Y-12149979D01*
X9512291Y-11969979D02*
X9332291Y-12149979D01*
X9381550Y-5891503D02*
X9561550Y-6071503D01*
X9561550Y-5891503D02*
X9381550Y-6071503D01*
X9538292Y-14196991D02*
X9718292Y-14376991D01*
X9718292Y-14196991D02*
X9538292Y-14376991D01*
X9679587Y-10000364D02*
X9859587Y-10180364D01*
X9859587Y-10000364D02*
X9679587Y-10180364D01*
X10026884Y-8030748D02*
X10206884Y-8210748D01*
X10206884Y-8030748D02*
X10026884Y-8210748D01*
X10168131Y-12320446D02*
X10348131Y-12500446D01*
X10348131Y-12320446D02*
X10168131Y-12500446D01*
X10382115Y-6067929D02*
X10562115Y-6247929D01*
X10562115Y-6067929D02*
X10382115Y-6247929D01*
X10493019Y-14544483D02*
X10673019Y-14724483D01*
X10673019Y-14544483D02*
X10493019Y-14724483D01*
X10515428Y-10350830D02*
X10695428Y-10530830D01*
X10695428Y-10350830D02*
X10515428Y-10530830D01*
X10864461Y-8371367D02*
X11044461Y-8551367D01*
X11044461Y-8371367D02*
X10864461Y-8551367D01*
X11168696Y-12496872D02*
X11348696Y-12676872D01*
X11348696Y-12496872D02*
X11168696Y-12676872D01*
X11229050Y-6399003D02*
X11409050Y-6579003D01*
X11409050Y-6399003D02*
X11229050Y-6579003D01*
X11458643Y-15102811D02*
X11638643Y-15282811D01*
X11638643Y-15102811D02*
X11458643Y-15282811D01*
X11515992Y-10527257D02*
X11695992Y-10707257D01*
X11695992Y-10527257D02*
X11515992Y-10707257D01*
X11865025Y-8547793D02*
X12045025Y-8727793D01*
X12045025Y-8547793D02*
X11865025Y-8727793D01*
X12229615Y-6575429D02*
X12409615Y-6755429D01*
X12409615Y-6575429D02*
X12229615Y-6755429D01*
X12236945Y-15755883D02*
X12416945Y-15935883D01*
X12416945Y-15755883D02*
X12236945Y-15935883D01*
X12389050Y-11654003D02*
X12569050Y-11834003D01*
X12569050Y-11654003D02*
X12389050Y-11834003D01*
X12985182Y-16398180D02*
X13165182Y-16578180D01*
X13165182Y-16398180D02*
X12985182Y-16578180D01*
X13389615Y-11830429D02*
X13569615Y-12010429D01*
X13569615Y-11830429D02*
X13389615Y-12010429D01*
X13763483Y-17051252D02*
X13943483Y-17231252D01*
X13943483Y-17051252D02*
X13763483Y-17231252D01*
X15719673Y-17051252D02*
X15899673Y-17231252D01*
X15899673Y-17051252D02*
X15719673Y-17231252D01*
X16093541Y-11830429D02*
X16273541Y-12010429D01*
X16273541Y-11830429D02*
X16093541Y-12010429D01*
X16497974Y-16398180D02*
X16677974Y-16578180D01*
X16677974Y-16398180D02*
X16497974Y-16578180D01*
X17094106Y-11654003D02*
X17274106Y-11834003D01*
X17274106Y-11654003D02*
X17094106Y-11834003D01*
X17246212Y-15755883D02*
X17426212Y-15935883D01*
X17426212Y-15755883D02*
X17246212Y-15935883D01*
X17253541Y-6575429D02*
X17433541Y-6755429D01*
X17433541Y-6575429D02*
X17253541Y-6755429D01*
X17618131Y-8547793D02*
X17798131Y-8727793D01*
X17798131Y-8547793D02*
X17618131Y-8727793D01*
X17967164Y-10527257D02*
X18147164Y-10707257D01*
X18147164Y-10527257D02*
X17967164Y-10707257D01*
X18024513Y-15102811D02*
X18204513Y-15282811D01*
X18204513Y-15102811D02*
X18024513Y-15282811D01*
X18254106Y-6399003D02*
X18434106Y-6579003D01*
X18434106Y-6399003D02*
X18254106Y-6579003D01*
X18314461Y-12496872D02*
X18494461Y-12676872D01*
X18494461Y-12496872D02*
X18314461Y-12676872D01*
X18618696Y-8371367D02*
X18798696Y-8551367D01*
X18798696Y-8371367D02*
X18618696Y-8551367D01*
X18967729Y-10350830D02*
X19147729Y-10530830D01*
X19147729Y-10350830D02*
X18967729Y-10530830D01*
X18990137Y-14544483D02*
X19170137Y-14724483D01*
X19170137Y-14544483D02*
X18990137Y-14724483D01*
X19101041Y-6067929D02*
X19281041Y-6247929D01*
X19281041Y-6067929D02*
X19101041Y-6247929D01*
X19315025Y-12320446D02*
X19495025Y-12500446D01*
X19495025Y-12320446D02*
X19315025Y-12500446D01*
X19456273Y-8030748D02*
X19636273Y-8210748D01*
X19636273Y-8030748D02*
X19456273Y-8210748D01*
X19803569Y-10000364D02*
X19983569Y-10180364D01*
X19983569Y-10000364D02*
X19803569Y-10180364D01*
X19944865Y-14196991D02*
X20124865Y-14376991D01*
X20124865Y-14196991D02*
X19944865Y-14376991D01*
X20101606Y-5891503D02*
X20281606Y-6071503D01*
X20281606Y-5891503D02*
X20101606Y-6071503D01*
X20150866Y-11969979D02*
X20330866Y-12149979D01*
X20330866Y-11969979D02*
X20150866Y-12149979D01*
X20456837Y-7854322D02*
X20636837Y-8034322D01*
X20636837Y-7854322D02*
X20456837Y-8034322D01*
X20804134Y-9823937D02*
X20984134Y-10003937D01*
X20984134Y-9823937D02*
X20804134Y-10003937D01*
X20890946Y-13941416D02*
X21070946Y-14121416D01*
X21070946Y-13941416D02*
X20890946Y-14121416D01*
X20893541Y-5290429D02*
X21073541Y-5470429D01*
X21073541Y-5290429D02*
X20893541Y-5470429D01*
X21151430Y-11793553D02*
X21331430Y-11973553D01*
X21331430Y-11793553D02*
X21151430Y-11973553D01*
X21251002Y-7267501D02*
X21431002Y-7447501D01*
X21431002Y-7267501D02*
X21251002Y-7447501D01*
X21598299Y-9237117D02*
X21778299Y-9417117D01*
X21778299Y-9237117D02*
X21598299Y-9417117D01*
X21891510Y-13764990D02*
X22071510Y-13944990D01*
X22071510Y-13764990D02*
X21891510Y-13944990D01*
X21894106Y-5114003D02*
X22074106Y-5294003D01*
X22074106Y-5114003D02*
X21894106Y-5294003D01*
X21945595Y-11206732D02*
X22125595Y-11386732D01*
X22125595Y-11206732D02*
X21945595Y-11386732D01*
X22251567Y-7091075D02*
X22431567Y-7271075D01*
X22431567Y-7091075D02*
X22251567Y-7271075D01*
X22598863Y-9060690D02*
X22778863Y-9240690D01*
X22778863Y-9060690D02*
X22598863Y-9240690D01*
X22946160Y-11030306D02*
X23126160Y-11210306D01*
X23126160Y-11030306D02*
X22946160Y-11210306D01*
X23163324Y-13799716D02*
X23343324Y-13979716D01*
X23343324Y-13799716D02*
X23163324Y-13979716D01*
X23452757Y-5748991D02*
X23632757Y-5928991D01*
X23632757Y-5748991D02*
X23452757Y-5928991D01*
X23634169Y-7751801D02*
X23814169Y-7931801D01*
X23814169Y-7751801D02*
X23634169Y-7931801D01*
X23808482Y-9744191D02*
X23988482Y-9924191D01*
X23988482Y-9744191D02*
X23808482Y-9924191D01*
X24014318Y-11761658D02*
X24194318Y-11941658D01*
X24194318Y-11761658D02*
X24014318Y-11941658D01*
X24179324Y-13799716D02*
X24359324Y-13979716D01*
X24359324Y-13799716D02*
X24179324Y-13979716D01*
X24464891Y-5660441D02*
X24644891Y-5840441D01*
X24644891Y-5660441D02*
X24464891Y-5840441D01*
X24646303Y-7663251D02*
X24826303Y-7843251D01*
X24826303Y-7663251D02*
X24646303Y-7843251D01*
X24820616Y-9655641D02*
X25000616Y-9835641D01*
X25000616Y-9655641D02*
X24820616Y-9835641D01*
X25026452Y-11673107D02*
X25206452Y-11853107D01*
X25206452Y-11673107D02*
X25026452Y-11853107D01*
X26006946Y-4734044D02*
X26186946Y-4914044D01*
X26186946Y-4734044D02*
X26006946Y-4914044D01*
X26016553Y-10759815D02*
X26196553Y-10939815D01*
X26196553Y-10759815D02*
X26016553Y-10939815D01*
X26016558Y-6759820D02*
X26196558Y-6939820D01*
X26196558Y-6759820D02*
X26016558Y-6939820D01*
X26016558Y-8759820D02*
X26196558Y-8939820D01*
X26196558Y-8759820D02*
X26016558Y-8939820D01*
X26016560Y-12759818D02*
X26196560Y-12939818D01*
X26196560Y-12759818D02*
X26016560Y-12939818D01*
X27022946Y-4734044D02*
X27202946Y-4914044D01*
X27202946Y-4734044D02*
X27022946Y-4914044D01*
X27032553Y-10759815D02*
X27212553Y-10939815D01*
X27212553Y-10759815D02*
X27032553Y-10939815D01*
X27032558Y-6759820D02*
X27212558Y-6939820D01*
X27212558Y-6759820D02*
X27032558Y-6939820D01*
X27032558Y-8759820D02*
X27212558Y-8939820D01*
X27212558Y-8759820D02*
X27032558Y-8939820D01*
X27032560Y-12759818D02*
X27212560Y-12939818D01*
X27212560Y-12759818D02*
X27032560Y-12939818D01*
X28018582Y-4733269D02*
X28198582Y-4913269D01*
X28198582Y-4733269D02*
X28018582Y-4913269D01*
X28028189Y-10759040D02*
X28208189Y-10939040D01*
X28208189Y-10759040D02*
X28028189Y-10939040D01*
X28028194Y-6759045D02*
X28208194Y-6939045D01*
X28208194Y-6759045D02*
X28028194Y-6939045D01*
X28028194Y-8759045D02*
X28208194Y-8939045D01*
X28208194Y-8759045D02*
X28028194Y-8939045D01*
X28028196Y-12759043D02*
X28208196Y-12939043D01*
X28208196Y-12759043D02*
X28028196Y-12939043D01*
X29034582Y-4733269D02*
X29214582Y-4913269D01*
X29214582Y-4733269D02*
X29034582Y-4913269D01*
X29044189Y-10759040D02*
X29224189Y-10939040D01*
X29224189Y-10759040D02*
X29044189Y-10939040D01*
X29044194Y-6759045D02*
X29224194Y-6939045D01*
X29224194Y-6759045D02*
X29044194Y-6939045D01*
X29044194Y-8759045D02*
X29224194Y-8939045D01*
X29224194Y-8759045D02*
X29044194Y-8939045D01*
X29044196Y-12759043D02*
X29224196Y-12939043D01*
X29224196Y-12759043D02*
X29044196Y-12939043D01*
D13*
X805960Y-12595043D02*
G75*
G02*
X505960Y-12595043I-150000J0D01*
G01*
X505960Y-12595043D02*
G75*
G02*
X805960Y-12595043I150000J0D01*
G01*
X805962Y-6595045D02*
G75*
G02*
X505962Y-6595045I-150000J0D01*
G01*
X505962Y-6595045D02*
G75*
G02*
X805962Y-6595045I150000J0D01*
G01*
X805962Y-8595045D02*
G75*
G02*
X505962Y-8595045I-150000J0D01*
G01*
X505962Y-8595045D02*
G75*
G02*
X805962Y-8595045I150000J0D01*
G01*
X805967Y-10595040D02*
G75*
G02*
X505967Y-10595040I-150000J0D01*
G01*
X505967Y-10595040D02*
G75*
G02*
X805967Y-10595040I150000J0D01*
G01*
X815574Y-4569269D02*
G75*
G02*
X515574Y-4569269I-150000J0D01*
G01*
X515574Y-4569269D02*
G75*
G02*
X815574Y-4569269I150000J0D01*
G01*
X1440960Y-12341043D02*
G75*
G02*
X1140960Y-12341043I-150000J0D01*
G01*
X1140960Y-12341043D02*
G75*
G02*
X1440960Y-12341043I150000J0D01*
G01*
X1440962Y-6341045D02*
G75*
G02*
X1140963Y-6341045I-150000J0D01*
G01*
X1140963Y-6341045D02*
G75*
G02*
X1440962Y-6341045I150000J0D01*
G01*
X1440962Y-8341045D02*
G75*
G02*
X1140963Y-8341045I-150000J0D01*
G01*
X1140963Y-8341045D02*
G75*
G02*
X1440962Y-8341045I150000J0D01*
G01*
X1440967Y-10341040D02*
G75*
G02*
X1140967Y-10341040I-150000J0D01*
G01*
X1140967Y-10341040D02*
G75*
G02*
X1440967Y-10341040I150000J0D01*
G01*
X1450574Y-4315269D02*
G75*
G02*
X1150574Y-4315269I-150000J0D01*
G01*
X1150574Y-4315269D02*
G75*
G02*
X1450574Y-4315269I150000J0D01*
G01*
X2817596Y-12595818D02*
G75*
G02*
X2517596Y-12595818I-150000J0D01*
G01*
X2517596Y-12595818D02*
G75*
G02*
X2817596Y-12595818I150000J0D01*
G01*
X2817598Y-6595820D02*
G75*
G02*
X2517599Y-6595820I-150000J0D01*
G01*
X2517599Y-6595820D02*
G75*
G02*
X2817598Y-6595820I150000J0D01*
G01*
X2817598Y-8595820D02*
G75*
G02*
X2517599Y-8595820I-150000J0D01*
G01*
X2517599Y-8595820D02*
G75*
G02*
X2817598Y-8595820I150000J0D01*
G01*
X2817603Y-10595815D02*
G75*
G02*
X2517603Y-10595815I-150000J0D01*
G01*
X2517603Y-10595815D02*
G75*
G02*
X2817603Y-10595815I150000J0D01*
G01*
X2827210Y-4570044D02*
G75*
G02*
X2527210Y-4570044I-150000J0D01*
G01*
X2527210Y-4570044D02*
G75*
G02*
X2827210Y-4570044I150000J0D01*
G01*
X3452596Y-12341818D02*
G75*
G02*
X3152596Y-12341818I-150000J0D01*
G01*
X3152596Y-12341818D02*
G75*
G02*
X3452596Y-12341818I150000J0D01*
G01*
X3452598Y-6341820D02*
G75*
G02*
X3152598Y-6341820I-150000J0D01*
G01*
X3152598Y-6341820D02*
G75*
G02*
X3452598Y-6341820I150000J0D01*
G01*
X3452598Y-8341820D02*
G75*
G02*
X3152598Y-8341820I-150000J0D01*
G01*
X3152598Y-8341820D02*
G75*
G02*
X3452598Y-8341820I150000J0D01*
G01*
X3452603Y-10341815D02*
G75*
G02*
X3152603Y-10341815I-150000J0D01*
G01*
X3152603Y-10341815D02*
G75*
G02*
X3452603Y-10341815I150000J0D01*
G01*
X3462210Y-4316044D02*
G75*
G02*
X3162210Y-4316044I-150000J0D01*
G01*
X3162210Y-4316044D02*
G75*
G02*
X3462210Y-4316044I150000J0D01*
G01*
X4845358Y-11521143D02*
G75*
G02*
X4545358Y-11521143I-150000J0D01*
G01*
X4545358Y-11521143D02*
G75*
G02*
X4845358Y-11521143I150000J0D01*
G01*
X5051195Y-9503676D02*
G75*
G02*
X4751195Y-9503676I-150000J0D01*
G01*
X4751195Y-9503676D02*
G75*
G02*
X5051195Y-9503676I150000J0D01*
G01*
X5225508Y-7511286D02*
G75*
G02*
X4925508Y-7511286I-150000J0D01*
G01*
X4925508Y-7511286D02*
G75*
G02*
X5225508Y-7511286I150000J0D01*
G01*
X5406920Y-5508476D02*
G75*
G02*
X5106920Y-5508476I-150000J0D01*
G01*
X5106920Y-5508476D02*
G75*
G02*
X5406920Y-5508476I150000J0D01*
G01*
X5500080Y-11323453D02*
G75*
G02*
X5200080Y-11323453I-150000J0D01*
G01*
X5200080Y-11323453D02*
G75*
G02*
X5500080Y-11323453I150000J0D01*
G01*
X5670833Y-13635716D02*
G75*
G02*
X5370833Y-13635716I-150000J0D01*
G01*
X5370833Y-13635716D02*
G75*
G02*
X5670833Y-13635716I150000J0D01*
G01*
X5705916Y-9305987D02*
G75*
G02*
X5405916Y-9305987I-150000J0D01*
G01*
X5405916Y-9305987D02*
G75*
G02*
X5705916Y-9305987I150000J0D01*
G01*
X5880229Y-7313597D02*
G75*
G02*
X5580229Y-7313597I-150000J0D01*
G01*
X5580229Y-7313597D02*
G75*
G02*
X5880229Y-7313597I150000J0D01*
G01*
X6061641Y-5310787D02*
G75*
G02*
X5761641Y-5310787I-150000J0D01*
G01*
X5761641Y-5310787D02*
G75*
G02*
X6061641Y-5310787I150000J0D01*
G01*
X6305833Y-13381716D02*
G75*
G02*
X6005833Y-13381716I-150000J0D01*
G01*
X6005833Y-13381716D02*
G75*
G02*
X6305833Y-13381716I150000J0D01*
G01*
X6946174Y-10892218D02*
G75*
G02*
X6646174Y-10892218I-150000J0D01*
G01*
X6646174Y-10892218D02*
G75*
G02*
X6946174Y-10892218I150000J0D01*
G01*
X7293470Y-8922602D02*
G75*
G02*
X6993470Y-8922602I-150000J0D01*
G01*
X6993470Y-8922602D02*
G75*
G02*
X7293470Y-8922602I150000J0D01*
G01*
X7615633Y-10752343D02*
G75*
G02*
X7315633Y-10752343I-150000J0D01*
G01*
X7315633Y-10752343D02*
G75*
G02*
X7615633Y-10752343I150000J0D01*
G01*
X7640767Y-6952987D02*
G75*
G02*
X7340767Y-6952987I-150000J0D01*
G01*
X7340767Y-6952987D02*
G75*
G02*
X7640767Y-6952987I150000J0D01*
G01*
X7962930Y-8782728D02*
G75*
G02*
X7662930Y-8782728I-150000J0D01*
G01*
X7662930Y-8782728D02*
G75*
G02*
X7962930Y-8782728I150000J0D01*
G01*
X7998228Y-4975915D02*
G75*
G02*
X7698228Y-4975915I-150000J0D01*
G01*
X7698228Y-4975915D02*
G75*
G02*
X7998228Y-4975915I150000J0D01*
G01*
X8000823Y-13626902D02*
G75*
G02*
X7700823Y-13626902I-150000J0D01*
G01*
X7700823Y-13626902D02*
G75*
G02*
X8000823Y-13626902I150000J0D01*
G01*
X8310226Y-6813112D02*
G75*
G02*
X8010226Y-6813112I-150000J0D01*
G01*
X8010226Y-6813112D02*
G75*
G02*
X8310226Y-6813112I150000J0D01*
G01*
X8667687Y-4836040D02*
G75*
G02*
X8367687Y-4836040I-150000J0D01*
G01*
X8367687Y-4836040D02*
G75*
G02*
X8667687Y-4836040I150000J0D01*
G01*
X8670283Y-13487027D02*
G75*
G02*
X8370283Y-13487027I-150000J0D01*
G01*
X8370283Y-13487027D02*
G75*
G02*
X8670283Y-13487027I150000J0D01*
G01*
X8740903Y-11655465D02*
G75*
G02*
X8440903Y-11655465I-150000J0D01*
G01*
X8440903Y-11655465D02*
G75*
G02*
X8740903Y-11655465I150000J0D01*
G01*
X9088200Y-9685849D02*
G75*
G02*
X8788200Y-9685849I-150000J0D01*
G01*
X8788200Y-9685849D02*
G75*
G02*
X9088200Y-9685849I150000J0D01*
G01*
X9410363Y-11515590D02*
G75*
G02*
X9110363Y-11515590I-150000J0D01*
G01*
X9110363Y-11515590D02*
G75*
G02*
X9410363Y-11515590I150000J0D01*
G01*
X9435496Y-7716234D02*
G75*
G02*
X9135496Y-7716234I-150000J0D01*
G01*
X9135496Y-7716234D02*
G75*
G02*
X9435496Y-7716234I150000J0D01*
G01*
X9757659Y-9545975D02*
G75*
G02*
X9457659Y-9545975I-150000J0D01*
G01*
X9457659Y-9545975D02*
G75*
G02*
X9757659Y-9545975I150000J0D01*
G01*
X9790728Y-5753415D02*
G75*
G02*
X9490728Y-5753415I-150000J0D01*
G01*
X9490728Y-5753415D02*
G75*
G02*
X9790728Y-5753415I150000J0D01*
G01*
X9984506Y-14091746D02*
G75*
G02*
X9684506Y-14091746I-150000J0D01*
G01*
X9684506Y-14091746D02*
G75*
G02*
X9984506Y-14091746I150000J0D01*
G01*
X10104956Y-7576359D02*
G75*
G02*
X9804956Y-7576359I-150000J0D01*
G01*
X9804956Y-7576359D02*
G75*
G02*
X10104956Y-7576359I150000J0D01*
G01*
X10460187Y-5613540D02*
G75*
G02*
X10160187Y-5613540I-150000J0D01*
G01*
X10160187Y-5613540D02*
G75*
G02*
X10460187Y-5613540I150000J0D01*
G01*
X10577309Y-12182358D02*
G75*
G02*
X10277309Y-12182358I-150000J0D01*
G01*
X10277309Y-12182358D02*
G75*
G02*
X10577309Y-12182358I150000J0D01*
G01*
X10668084Y-14070246D02*
G75*
G02*
X10368084Y-14070246I-150000J0D01*
G01*
X10368084Y-14070246D02*
G75*
G02*
X10668084Y-14070246I150000J0D01*
G01*
X10924605Y-10212742D02*
G75*
G02*
X10624605Y-10212742I-150000J0D01*
G01*
X10624605Y-10212742D02*
G75*
G02*
X10924605Y-10212742I150000J0D01*
G01*
X11246768Y-12042483D02*
G75*
G02*
X10946768Y-12042483I-150000J0D01*
G01*
X10946768Y-12042483D02*
G75*
G02*
X11246768Y-12042483I150000J0D01*
G01*
X11273638Y-8233279D02*
G75*
G02*
X10973638Y-8233279I-150000J0D01*
G01*
X10973638Y-8233279D02*
G75*
G02*
X11273638Y-8233279I150000J0D01*
G01*
X11594064Y-10072868D02*
G75*
G02*
X11294064Y-10072868I-150000J0D01*
G01*
X11294064Y-10072868D02*
G75*
G02*
X11594064Y-10072868I150000J0D01*
G01*
X11638228Y-6260915D02*
G75*
G02*
X11338228Y-6260915I-150000J0D01*
G01*
X11338228Y-6260915D02*
G75*
G02*
X11638228Y-6260915I150000J0D01*
G01*
X11943097Y-8093404D02*
G75*
G02*
X11643097Y-8093404I-150000J0D01*
G01*
X11643097Y-8093404D02*
G75*
G02*
X11943097Y-8093404I150000J0D01*
G01*
X11959199Y-15079870D02*
G75*
G02*
X11659199Y-15079870I-150000J0D01*
G01*
X11659199Y-15079870D02*
G75*
G02*
X11959199Y-15079870I150000J0D01*
G01*
X12307687Y-6121040D02*
G75*
G02*
X12007687Y-6121040I-150000J0D01*
G01*
X12007687Y-6121040D02*
G75*
G02*
X12307687Y-6121040I150000J0D01*
G01*
X12608905Y-15293465D02*
G75*
G02*
X12308905Y-15293465I-150000J0D01*
G01*
X12308905Y-15293465D02*
G75*
G02*
X12608905Y-15293465I150000J0D01*
G01*
X12798228Y-11515915D02*
G75*
G02*
X12498228Y-11515915I-150000J0D01*
G01*
X12498228Y-11515915D02*
G75*
G02*
X12798228Y-11515915I150000J0D01*
G01*
X13467687Y-11376040D02*
G75*
G02*
X13167687Y-11376040I-150000J0D01*
G01*
X13167687Y-11376040D02*
G75*
G02*
X13467687Y-11376040I150000J0D01*
G01*
X13485738Y-16375239D02*
G75*
G02*
X13185738Y-16375239I-150000J0D01*
G01*
X13185738Y-16375239D02*
G75*
G02*
X13485738Y-16375239I150000J0D01*
G01*
X14135444Y-16588834D02*
G75*
G02*
X13835444Y-16588834I-150000J0D01*
G01*
X13835444Y-16588834D02*
G75*
G02*
X14135444Y-16588834I150000J0D01*
G01*
X15893693Y-16865043D02*
G75*
G02*
X15593693Y-16865043I-150000J0D01*
G01*
X15593693Y-16865043D02*
G75*
G02*
X15893693Y-16865043I150000J0D01*
G01*
X16216863Y-16262297D02*
G75*
G02*
X15916863Y-16262297I-150000J0D01*
G01*
X15916863Y-16262297D02*
G75*
G02*
X16216863Y-16262297I150000J0D01*
G01*
X16414505Y-11648235D02*
G75*
G02*
X16114505Y-11648235I-150000J0D01*
G01*
X16114505Y-11648235D02*
G75*
G02*
X16414505Y-11648235I150000J0D01*
G01*
X16995752Y-11287827D02*
G75*
G02*
X16695752Y-11287827I-150000J0D01*
G01*
X16695752Y-11287827D02*
G75*
G02*
X16995752Y-11287827I150000J0D01*
G01*
X17420231Y-15569674D02*
G75*
G02*
X17120231Y-15569674I-150000J0D01*
G01*
X17120231Y-15569674D02*
G75*
G02*
X17420231Y-15569674I150000J0D01*
G01*
X17574505Y-6393235D02*
G75*
G02*
X17274505Y-6393235I-150000J0D01*
G01*
X17274505Y-6393235D02*
G75*
G02*
X17574505Y-6393235I150000J0D01*
G01*
X17743402Y-14966929D02*
G75*
G02*
X17443402Y-14966929I-150000J0D01*
G01*
X17443402Y-14966929D02*
G75*
G02*
X17743402Y-14966929I150000J0D01*
G01*
X17939095Y-8365599D02*
G75*
G02*
X17639095Y-8365599I-150000J0D01*
G01*
X17639095Y-8365599D02*
G75*
G02*
X17939095Y-8365599I150000J0D01*
G01*
X18155752Y-6032827D02*
G75*
G02*
X17855752Y-6032827I-150000J0D01*
G01*
X17855752Y-6032827D02*
G75*
G02*
X18155752Y-6032827I150000J0D01*
G01*
X18288128Y-10345062D02*
G75*
G02*
X17988128Y-10345062I-150000J0D01*
G01*
X17988128Y-10345062D02*
G75*
G02*
X18288128Y-10345062I150000J0D01*
G01*
X18520342Y-8005191D02*
G75*
G02*
X18220342Y-8005191I-150000J0D01*
G01*
X18220342Y-8005191D02*
G75*
G02*
X18520342Y-8005191I150000J0D01*
G01*
X18635424Y-12314678D02*
G75*
G02*
X18335424Y-12314678I-150000J0D01*
G01*
X18335424Y-12314678D02*
G75*
G02*
X18635424Y-12314678I150000J0D01*
G01*
X18869374Y-9984655D02*
G75*
G02*
X18569374Y-9984655I-150000J0D01*
G01*
X18569374Y-9984655D02*
G75*
G02*
X18869374Y-9984655I150000J0D01*
G01*
X19216671Y-11954270D02*
G75*
G02*
X18916671Y-11954270I-150000J0D01*
G01*
X18916671Y-11954270D02*
G75*
G02*
X19216671Y-11954270I150000J0D01*
G01*
X19262605Y-14352365D02*
G75*
G02*
X18962605Y-14352365I-150000J0D01*
G01*
X18962605Y-14352365D02*
G75*
G02*
X19262605Y-14352365I150000J0D01*
G01*
X19422005Y-5885735D02*
G75*
G02*
X19122005Y-5885735I-150000J0D01*
G01*
X19122005Y-5885735D02*
G75*
G02*
X19422005Y-5885735I150000J0D01*
G01*
X19772437Y-13896500D02*
G75*
G02*
X19472437Y-13896500I-150000J0D01*
G01*
X19472437Y-13896500D02*
G75*
G02*
X19772437Y-13896500I150000J0D01*
G01*
X19777237Y-7848554D02*
G75*
G02*
X19477237Y-7848554I-150000J0D01*
G01*
X19477237Y-7848554D02*
G75*
G02*
X19777237Y-7848554I150000J0D01*
G01*
X20003252Y-5525327D02*
G75*
G02*
X19703252Y-5525327I-150000J0D01*
G01*
X19703252Y-5525327D02*
G75*
G02*
X20003252Y-5525327I150000J0D01*
G01*
X20124533Y-9818169D02*
G75*
G02*
X19824533Y-9818169I-150000J0D01*
G01*
X19824533Y-9818169D02*
G75*
G02*
X20124533Y-9818169I150000J0D01*
G01*
X20358483Y-7488146D02*
G75*
G02*
X20058483Y-7488146I-150000J0D01*
G01*
X20058483Y-7488146D02*
G75*
G02*
X20358483Y-7488146I150000J0D01*
G01*
X20471830Y-11787785D02*
G75*
G02*
X20171830Y-11787785I-150000J0D01*
G01*
X20171830Y-11787785D02*
G75*
G02*
X20471830Y-11787785I150000J0D01*
G01*
X20705779Y-9457762D02*
G75*
G02*
X20405779Y-9457762I-150000J0D01*
G01*
X20405779Y-9457762D02*
G75*
G02*
X20705779Y-9457762I150000J0D01*
G01*
X21053076Y-11427377D02*
G75*
G02*
X20753076Y-11427377I-150000J0D01*
G01*
X20753076Y-11427377D02*
G75*
G02*
X21053076Y-11427377I150000J0D01*
G01*
X21211909Y-13759222D02*
G75*
G02*
X20911909Y-13759222I-150000J0D01*
G01*
X20911909Y-13759222D02*
G75*
G02*
X21211909Y-13759222I150000J0D01*
G01*
X21214505Y-5108235D02*
G75*
G02*
X20914505Y-5108235I-150000J0D01*
G01*
X20914505Y-5108235D02*
G75*
G02*
X21214505Y-5108235I150000J0D01*
G01*
X21571966Y-7085307D02*
G75*
G02*
X21271966Y-7085307I-150000J0D01*
G01*
X21271966Y-7085307D02*
G75*
G02*
X21571966Y-7085307I150000J0D01*
G01*
X21793156Y-13398814D02*
G75*
G02*
X21493156Y-13398814I-150000J0D01*
G01*
X21493156Y-13398814D02*
G75*
G02*
X21793156Y-13398814I150000J0D01*
G01*
X21795752Y-4747827D02*
G75*
G02*
X21495752Y-4747827I-150000J0D01*
G01*
X21495752Y-4747827D02*
G75*
G02*
X21795752Y-4747827I150000J0D01*
G01*
X21919263Y-9054922D02*
G75*
G02*
X21619263Y-9054922I-150000J0D01*
G01*
X21619263Y-9054922D02*
G75*
G02*
X21919263Y-9054922I150000J0D01*
G01*
X22153213Y-6724899D02*
G75*
G02*
X21853213Y-6724899I-150000J0D01*
G01*
X21853213Y-6724899D02*
G75*
G02*
X22153213Y-6724899I150000J0D01*
G01*
X22266559Y-11024538D02*
G75*
G02*
X21966559Y-11024538I-150000J0D01*
G01*
X21966559Y-11024538D02*
G75*
G02*
X22266559Y-11024538I150000J0D01*
G01*
X22500509Y-8694515D02*
G75*
G02*
X22200509Y-8694515I-150000J0D01*
G01*
X22200509Y-8694515D02*
G75*
G02*
X22500509Y-8694515I150000J0D01*
G01*
X22847805Y-10664130D02*
G75*
G02*
X22547805Y-10664130I-150000J0D01*
G01*
X22547805Y-10664130D02*
G75*
G02*
X22847805Y-10664130I150000J0D01*
G01*
X23530324Y-13635716D02*
G75*
G02*
X23230324Y-13635716I-150000J0D01*
G01*
X23230324Y-13635716D02*
G75*
G02*
X23530324Y-13635716I150000J0D01*
G01*
X23797136Y-5574889D02*
G75*
G02*
X23497136Y-5574889I-150000J0D01*
G01*
X23497136Y-5574889D02*
G75*
G02*
X23797136Y-5574889I150000J0D01*
G01*
X23978548Y-7577699D02*
G75*
G02*
X23678548Y-7577699I-150000J0D01*
G01*
X23678548Y-7577699D02*
G75*
G02*
X23978548Y-7577699I150000J0D01*
G01*
X24152861Y-9570089D02*
G75*
G02*
X23852861Y-9570089I-150000J0D01*
G01*
X23852861Y-9570089D02*
G75*
G02*
X24152861Y-9570089I150000J0D01*
G01*
X24165324Y-13381716D02*
G75*
G02*
X23865324Y-13381716I-150000J0D01*
G01*
X23865324Y-13381716D02*
G75*
G02*
X24165324Y-13381716I150000J0D01*
G01*
X24358698Y-11587555D02*
G75*
G02*
X24058698Y-11587555I-150000J0D01*
G01*
X24058698Y-11587555D02*
G75*
G02*
X24358698Y-11587555I150000J0D01*
G01*
X24407582Y-5266512D02*
G75*
G02*
X24107582Y-5266512I-150000J0D01*
G01*
X24107582Y-5266512D02*
G75*
G02*
X24407582Y-5266512I150000J0D01*
G01*
X24588994Y-7269322D02*
G75*
G02*
X24288994Y-7269322I-150000J0D01*
G01*
X24288994Y-7269322D02*
G75*
G02*
X24588994Y-7269322I150000J0D01*
G01*
X24763307Y-9261712D02*
G75*
G02*
X24463307Y-9261712I-150000J0D01*
G01*
X24463307Y-9261712D02*
G75*
G02*
X24763307Y-9261712I150000J0D01*
G01*
X24969144Y-11279178D02*
G75*
G02*
X24669144Y-11279178I-150000J0D01*
G01*
X24669144Y-11279178D02*
G75*
G02*
X24969144Y-11279178I150000J0D01*
G01*
X26373946Y-4570044D02*
G75*
G02*
X26073946Y-4570044I-150000J0D01*
G01*
X26073946Y-4570044D02*
G75*
G02*
X26373946Y-4570044I150000J0D01*
G01*
X26383553Y-10595815D02*
G75*
G02*
X26083553Y-10595815I-150000J0D01*
G01*
X26083553Y-10595815D02*
G75*
G02*
X26383553Y-10595815I150000J0D01*
G01*
X26383558Y-6595820D02*
G75*
G02*
X26083558Y-6595820I-150000J0D01*
G01*
X26083558Y-6595820D02*
G75*
G02*
X26383558Y-6595820I150000J0D01*
G01*
X26383558Y-8595820D02*
G75*
G02*
X26083558Y-8595820I-150000J0D01*
G01*
X26083558Y-8595820D02*
G75*
G02*
X26383558Y-8595820I150000J0D01*
G01*
X26383560Y-12595818D02*
G75*
G02*
X26083560Y-12595818I-150000J0D01*
G01*
X26083560Y-12595818D02*
G75*
G02*
X26383560Y-12595818I150000J0D01*
G01*
X27008946Y-4316044D02*
G75*
G02*
X26708946Y-4316044I-150000J0D01*
G01*
X26708946Y-4316044D02*
G75*
G02*
X27008946Y-4316044I150000J0D01*
G01*
X27018553Y-10341815D02*
G75*
G02*
X26718553Y-10341815I-150000J0D01*
G01*
X26718553Y-10341815D02*
G75*
G02*
X27018553Y-10341815I150000J0D01*
G01*
X27018558Y-6341820D02*
G75*
G02*
X26718558Y-6341820I-150000J0D01*
G01*
X26718558Y-6341820D02*
G75*
G02*
X27018558Y-6341820I150000J0D01*
G01*
X27018558Y-8341820D02*
G75*
G02*
X26718558Y-8341820I-150000J0D01*
G01*
X26718558Y-8341820D02*
G75*
G02*
X27018558Y-8341820I150000J0D01*
G01*
X27018560Y-12341818D02*
G75*
G02*
X26718560Y-12341818I-150000J0D01*
G01*
X26718560Y-12341818D02*
G75*
G02*
X27018560Y-12341818I150000J0D01*
G01*
X28385582Y-4569269D02*
G75*
G02*
X28085582Y-4569269I-150000J0D01*
G01*
X28085582Y-4569269D02*
G75*
G02*
X28385582Y-4569269I150000J0D01*
G01*
X28395189Y-10595040D02*
G75*
G02*
X28095189Y-10595040I-150000J0D01*
G01*
X28095189Y-10595040D02*
G75*
G02*
X28395189Y-10595040I150000J0D01*
G01*
X28395194Y-6595045D02*
G75*
G02*
X28095194Y-6595045I-150000J0D01*
G01*
X28095194Y-6595045D02*
G75*
G02*
X28395194Y-6595045I150000J0D01*
G01*
X28395194Y-8595045D02*
G75*
G02*
X28095194Y-8595045I-150000J0D01*
G01*
X28095194Y-8595045D02*
G75*
G02*
X28395194Y-8595045I150000J0D01*
G01*
X28395196Y-12595043D02*
G75*
G02*
X28095196Y-12595043I-150000J0D01*
G01*
X28095196Y-12595043D02*
G75*
G02*
X28395196Y-12595043I150000J0D01*
G01*
X29020582Y-4315269D02*
G75*
G02*
X28720582Y-4315269I-150000J0D01*
G01*
X28720582Y-4315269D02*
G75*
G02*
X29020582Y-4315269I150000J0D01*
G01*
X29030189Y-10341040D02*
G75*
G02*
X28730189Y-10341040I-150000J0D01*
G01*
X28730189Y-10341040D02*
G75*
G02*
X29030189Y-10341040I150000J0D01*
G01*
X29030194Y-6341045D02*
G75*
G02*
X28730194Y-6341045I-150000J0D01*
G01*
X28730194Y-6341045D02*
G75*
G02*
X29030194Y-6341045I150000J0D01*
G01*
X29030194Y-8341045D02*
G75*
G02*
X28730194Y-8341045I-150000J0D01*
G01*
X28730194Y-8341045D02*
G75*
G02*
X29030194Y-8341045I150000J0D01*
G01*
X29030196Y-12341043D02*
G75*
G02*
X28730196Y-12341043I-150000J0D01*
G01*
X28730196Y-12341043D02*
G75*
G02*
X29030196Y-12341043I150000J0D01*
G01*
D14*
X1036960Y-12649043D02*
X1036960Y-13049043D01*
X836960Y-12849043D02*
X1236960Y-12849043D01*
X1036962Y-6649045D02*
X1036962Y-7049045D01*
X836962Y-6849045D02*
X1236963Y-6849045D01*
X1036962Y-8649045D02*
X1036962Y-9049045D01*
X836962Y-8849045D02*
X1236963Y-8849045D01*
X1036967Y-10649040D02*
X1036967Y-11049040D01*
X836967Y-10849040D02*
X1236967Y-10849040D01*
X1046574Y-4623269D02*
X1046574Y-5023269D01*
X846574Y-4823269D02*
X1246574Y-4823269D01*
X3048596Y-12649818D02*
X3048596Y-13049818D01*
X2848596Y-12849818D02*
X3248596Y-12849818D01*
X3048598Y-6649820D02*
X3048598Y-7049820D01*
X2848598Y-6849820D02*
X3248598Y-6849820D01*
X3048598Y-8649820D02*
X3048598Y-9049820D01*
X2848598Y-8849820D02*
X3248598Y-8849820D01*
X3048603Y-10649815D02*
X3048603Y-11049815D01*
X2848603Y-10849815D02*
X3248603Y-10849815D01*
X3058210Y-4624044D02*
X3058210Y-5024044D01*
X2858210Y-4824044D02*
X3258210Y-4824044D01*
X5052771Y-11607383D02*
X5052771Y-12007383D01*
X4852771Y-11807383D02*
X5252771Y-11807383D01*
X5258608Y-9589916D02*
X5258608Y-9989916D01*
X5058608Y-9789916D02*
X5458608Y-9789916D01*
X5432921Y-7597526D02*
X5432921Y-7997526D01*
X5232921Y-7797526D02*
X5632921Y-7797526D01*
X5614333Y-5594716D02*
X5614333Y-5994716D01*
X5414333Y-5794716D02*
X5814333Y-5794716D01*
X5901833Y-13689716D02*
X5901833Y-14089716D01*
X5701833Y-13889716D02*
X6101833Y-13889716D01*
X7127279Y-11008519D02*
X7127279Y-11408519D01*
X6927279Y-11208519D02*
X7327279Y-11208519D01*
X7474575Y-9038904D02*
X7474575Y-9438904D01*
X7274575Y-9238904D02*
X7674575Y-9238904D01*
X7821872Y-7069288D02*
X7821872Y-7469288D01*
X7621872Y-7269288D02*
X8021872Y-7269288D01*
X8179333Y-5092216D02*
X8179333Y-5492216D01*
X7979333Y-5292216D02*
X8379333Y-5292216D01*
X8181929Y-13743203D02*
X8181929Y-14143203D01*
X7981929Y-13943203D02*
X8381929Y-13943203D01*
X8922009Y-11771766D02*
X8922009Y-12171766D01*
X8722009Y-11971766D02*
X9122009Y-11971766D01*
X9269305Y-9802151D02*
X9269305Y-10202151D01*
X9069305Y-10002151D02*
X9469305Y-10002151D01*
X9616601Y-7832535D02*
X9616601Y-8232535D01*
X9416601Y-8032535D02*
X9816601Y-8032535D01*
X9971833Y-5869716D02*
X9971833Y-6269716D01*
X9771833Y-6069716D02*
X10171833Y-6069716D01*
X10105656Y-14260737D02*
X10105656Y-14660737D01*
X9905656Y-14460737D02*
X10305656Y-14460737D01*
X10758414Y-12298659D02*
X10758414Y-12698659D01*
X10558414Y-12498659D02*
X10958414Y-12498659D01*
X11105710Y-10329044D02*
X11105710Y-10729044D01*
X10905710Y-10529044D02*
X11305710Y-10529044D01*
X11454743Y-8349580D02*
X11454743Y-8749580D01*
X11254743Y-8549580D02*
X11654743Y-8549580D01*
X11819333Y-6377216D02*
X11819333Y-6777216D01*
X11619333Y-6577216D02*
X12019333Y-6577216D01*
X11937794Y-15319347D02*
X11937794Y-15719347D01*
X11737794Y-15519347D02*
X12137794Y-15519347D01*
X12979333Y-11632216D02*
X12979333Y-12032216D01*
X12779333Y-11832216D02*
X13179333Y-11832216D01*
X13464333Y-16614716D02*
X13464333Y-17014716D01*
X13264333Y-16814716D02*
X13664333Y-16814716D01*
X16198824Y-16614716D02*
X16198824Y-17014716D01*
X15998824Y-16814716D02*
X16398824Y-16814716D01*
X16683824Y-11632216D02*
X16683824Y-12032216D01*
X16483824Y-11832216D02*
X16883824Y-11832216D01*
X17725362Y-15319347D02*
X17725362Y-15719347D01*
X17525362Y-15519347D02*
X17925362Y-15519347D01*
X17843824Y-6377216D02*
X17843824Y-6777216D01*
X17643824Y-6577216D02*
X18043824Y-6577216D01*
X18208414Y-8349580D02*
X18208414Y-8749580D01*
X18008414Y-8549580D02*
X18408414Y-8549580D01*
X18557446Y-10329044D02*
X18557446Y-10729044D01*
X18357446Y-10529044D02*
X18757446Y-10529044D01*
X18904743Y-12298659D02*
X18904743Y-12698659D01*
X18704743Y-12498659D02*
X19104743Y-12498659D01*
X19557501Y-14260737D02*
X19557501Y-14660737D01*
X19357501Y-14460737D02*
X19757501Y-14460737D01*
X19691324Y-5869716D02*
X19691324Y-6269716D01*
X19491324Y-6069716D02*
X19891324Y-6069716D01*
X20046555Y-7832535D02*
X20046555Y-8232535D01*
X19846555Y-8032535D02*
X20246555Y-8032535D01*
X20393852Y-9802151D02*
X20393852Y-10202151D01*
X20193852Y-10002151D02*
X20593852Y-10002151D01*
X20741148Y-11771766D02*
X20741148Y-12171766D01*
X20541148Y-11971766D02*
X20941148Y-11971766D01*
X21481228Y-13743203D02*
X21481228Y-14143203D01*
X21281228Y-13943203D02*
X21681228Y-13943203D01*
X21483824Y-5092216D02*
X21483824Y-5492216D01*
X21283824Y-5292216D02*
X21683824Y-5292216D01*
X21841285Y-7069288D02*
X21841285Y-7469288D01*
X21641285Y-7269288D02*
X22041285Y-7269288D01*
X22188581Y-9038904D02*
X22188581Y-9438904D01*
X21988581Y-9238904D02*
X22388581Y-9238904D01*
X22535877Y-11008519D02*
X22535877Y-11408519D01*
X22335877Y-11208519D02*
X22735877Y-11208519D01*
X23761324Y-13689716D02*
X23761324Y-14089716D01*
X23561324Y-13889716D02*
X23961324Y-13889716D01*
X24048824Y-5594716D02*
X24048824Y-5994716D01*
X23848824Y-5794716D02*
X24248824Y-5794716D01*
X24230236Y-7597526D02*
X24230236Y-7997526D01*
X24030236Y-7797526D02*
X24430236Y-7797526D01*
X24404549Y-9589916D02*
X24404549Y-9989916D01*
X24204549Y-9789916D02*
X24604549Y-9789916D01*
X24610385Y-11607383D02*
X24610385Y-12007383D01*
X24410385Y-11807383D02*
X24810385Y-11807383D01*
X26604946Y-4624044D02*
X26604946Y-5024044D01*
X26404946Y-4824044D02*
X26804946Y-4824044D01*
X26614553Y-10649815D02*
X26614553Y-11049815D01*
X26414553Y-10849815D02*
X26814553Y-10849815D01*
X26614558Y-6649820D02*
X26614558Y-7049820D01*
X26414558Y-6849820D02*
X26814558Y-6849820D01*
X26614558Y-8649820D02*
X26614558Y-9049820D01*
X26414558Y-8849820D02*
X26814558Y-8849820D01*
X26614560Y-12649818D02*
X26614560Y-13049818D01*
X26414560Y-12849818D02*
X26814560Y-12849818D01*
X28616582Y-4623269D02*
X28616582Y-5023269D01*
X28416582Y-4823269D02*
X28816582Y-4823269D01*
X28626189Y-10649040D02*
X28626189Y-11049040D01*
X28426189Y-10849040D02*
X28826189Y-10849040D01*
X28626194Y-6649045D02*
X28626194Y-7049045D01*
X28426194Y-6849045D02*
X28826194Y-6849045D01*
X28626194Y-8649045D02*
X28626194Y-9049045D01*
X28426194Y-8849045D02*
X28826194Y-8849045D01*
X28626196Y-12649043D02*
X28626196Y-13049043D01*
X28426196Y-12849043D02*
X28826196Y-12849043D01*
D11*
X244275Y-18603026D02*
X244275Y-18403026D01*
X244275Y-18403026D02*
X291894Y-18403026D01*
X291894Y-18403026D02*
X320466Y-18412550D01*
X320466Y-18412550D02*
X339513Y-18431598D01*
X339513Y-18431598D02*
X349037Y-18450645D01*
X349037Y-18450645D02*
X358561Y-18488741D01*
X358561Y-18488741D02*
X358561Y-18517312D01*
X358561Y-18517312D02*
X349037Y-18555407D01*
X349037Y-18555407D02*
X339513Y-18574455D01*
X339513Y-18574455D02*
X320466Y-18593503D01*
X320466Y-18593503D02*
X291894Y-18603026D01*
X291894Y-18603026D02*
X244275Y-18603026D01*
X444275Y-18603026D02*
X444275Y-18469693D01*
X444275Y-18507788D02*
X453799Y-18488741D01*
X453799Y-18488741D02*
X463323Y-18479217D01*
X463323Y-18479217D02*
X482370Y-18469693D01*
X482370Y-18469693D02*
X501418Y-18469693D01*
X568085Y-18603026D02*
X568085Y-18469693D01*
X568085Y-18403026D02*
X558561Y-18412550D01*
X558561Y-18412550D02*
X568085Y-18422074D01*
X568085Y-18422074D02*
X577608Y-18412550D01*
X577608Y-18412550D02*
X568085Y-18403026D01*
X568085Y-18403026D02*
X568085Y-18422074D01*
X691894Y-18603026D02*
X672847Y-18593503D01*
X672847Y-18593503D02*
X663323Y-18574455D01*
X663323Y-18574455D02*
X663323Y-18403026D01*
X796656Y-18603026D02*
X777608Y-18593503D01*
X777608Y-18593503D02*
X768085Y-18574455D01*
X768085Y-18574455D02*
X768085Y-18403026D01*
X1025227Y-18603026D02*
X1025227Y-18403026D01*
X1025227Y-18403026D02*
X1091894Y-18545884D01*
X1091894Y-18545884D02*
X1158561Y-18403026D01*
X1158561Y-18403026D02*
X1158561Y-18603026D01*
X1339513Y-18603026D02*
X1339513Y-18498265D01*
X1339513Y-18498265D02*
X1329989Y-18479217D01*
X1329989Y-18479217D02*
X1310942Y-18469693D01*
X1310942Y-18469693D02*
X1272847Y-18469693D01*
X1272847Y-18469693D02*
X1253799Y-18479217D01*
X1339513Y-18593503D02*
X1320466Y-18603026D01*
X1320466Y-18603026D02*
X1272847Y-18603026D01*
X1272847Y-18603026D02*
X1253799Y-18593503D01*
X1253799Y-18593503D02*
X1244275Y-18574455D01*
X1244275Y-18574455D02*
X1244275Y-18555407D01*
X1244275Y-18555407D02*
X1253799Y-18536360D01*
X1253799Y-18536360D02*
X1272847Y-18526836D01*
X1272847Y-18526836D02*
X1320466Y-18526836D01*
X1320466Y-18526836D02*
X1339513Y-18517312D01*
X1434751Y-18469693D02*
X1434751Y-18669693D01*
X1434751Y-18479217D02*
X1453799Y-18469693D01*
X1453799Y-18469693D02*
X1491894Y-18469693D01*
X1491894Y-18469693D02*
X1510942Y-18479217D01*
X1510942Y-18479217D02*
X1520466Y-18488741D01*
X1520466Y-18488741D02*
X1529989Y-18507788D01*
X1529989Y-18507788D02*
X1529989Y-18564931D01*
X1529989Y-18564931D02*
X1520466Y-18583979D01*
X1520466Y-18583979D02*
X1510942Y-18593503D01*
X1510942Y-18593503D02*
X1491894Y-18603026D01*
X1491894Y-18603026D02*
X1453799Y-18603026D01*
X1453799Y-18603026D02*
X1434751Y-18593503D01*
X1615704Y-18583979D02*
X1625227Y-18593503D01*
X1625227Y-18593503D02*
X1615704Y-18603026D01*
X1615704Y-18603026D02*
X1606180Y-18593503D01*
X1606180Y-18593503D02*
X1615704Y-18583979D01*
X1615704Y-18583979D02*
X1615704Y-18603026D01*
X1615704Y-18479217D02*
X1625227Y-18488741D01*
X1625227Y-18488741D02*
X1615704Y-18498265D01*
X1615704Y-18498265D02*
X1606180Y-18488741D01*
X1606180Y-18488741D02*
X1615704Y-18479217D01*
X1615704Y-18479217D02*
X1615704Y-18498265D01*
D12*
X-196502Y-18841543D02*
X-16502Y-19021543D01*
X-16502Y-18841543D02*
X-196502Y-19021543D01*
D11*
X349037Y-19023026D02*
X234751Y-19023026D01*
X291894Y-19023026D02*
X291894Y-18823026D01*
X291894Y-18823026D02*
X272847Y-18851598D01*
X272847Y-18851598D02*
X253799Y-18870645D01*
X253799Y-18870645D02*
X234751Y-18880169D01*
X434751Y-19003979D02*
X444275Y-19013503D01*
X444275Y-19013503D02*
X434751Y-19023026D01*
X434751Y-19023026D02*
X425227Y-19013503D01*
X425227Y-19013503D02*
X434751Y-19003979D01*
X434751Y-19003979D02*
X434751Y-19023026D01*
X558561Y-18908741D02*
X539513Y-18899217D01*
X539513Y-18899217D02*
X529989Y-18889693D01*
X529989Y-18889693D02*
X520466Y-18870645D01*
X520466Y-18870645D02*
X520466Y-18861122D01*
X520466Y-18861122D02*
X529989Y-18842074D01*
X529989Y-18842074D02*
X539513Y-18832550D01*
X539513Y-18832550D02*
X558561Y-18823026D01*
X558561Y-18823026D02*
X596656Y-18823026D01*
X596656Y-18823026D02*
X615704Y-18832550D01*
X615704Y-18832550D02*
X625228Y-18842074D01*
X625228Y-18842074D02*
X634751Y-18861122D01*
X634751Y-18861122D02*
X634751Y-18870645D01*
X634751Y-18870645D02*
X625228Y-18889693D01*
X625228Y-18889693D02*
X615704Y-18899217D01*
X615704Y-18899217D02*
X596656Y-18908741D01*
X596656Y-18908741D02*
X558561Y-18908741D01*
X558561Y-18908741D02*
X539513Y-18918265D01*
X539513Y-18918265D02*
X529989Y-18927788D01*
X529989Y-18927788D02*
X520466Y-18946836D01*
X520466Y-18946836D02*
X520466Y-18984931D01*
X520466Y-18984931D02*
X529989Y-19003979D01*
X529989Y-19003979D02*
X539513Y-19013503D01*
X539513Y-19013503D02*
X558561Y-19023026D01*
X558561Y-19023026D02*
X596656Y-19023026D01*
X596656Y-19023026D02*
X615704Y-19013503D01*
X615704Y-19013503D02*
X625228Y-19003979D01*
X625228Y-19003979D02*
X634751Y-18984931D01*
X634751Y-18984931D02*
X634751Y-18946836D01*
X634751Y-18946836D02*
X625228Y-18927788D01*
X625228Y-18927788D02*
X615704Y-18918265D01*
X615704Y-18918265D02*
X596656Y-18908741D01*
X758561Y-18823026D02*
X777608Y-18823026D01*
X777608Y-18823026D02*
X796656Y-18832550D01*
X796656Y-18832550D02*
X806180Y-18842074D01*
X806180Y-18842074D02*
X815704Y-18861122D01*
X815704Y-18861122D02*
X825227Y-18899217D01*
X825227Y-18899217D02*
X825227Y-18946836D01*
X825227Y-18946836D02*
X815704Y-18984931D01*
X815704Y-18984931D02*
X806180Y-19003979D01*
X806180Y-19003979D02*
X796656Y-19013503D01*
X796656Y-19013503D02*
X777608Y-19023026D01*
X777608Y-19023026D02*
X758561Y-19023026D01*
X758561Y-19023026D02*
X739513Y-19013503D01*
X739513Y-19013503D02*
X729989Y-19003979D01*
X729989Y-19003979D02*
X720466Y-18984931D01*
X720466Y-18984931D02*
X710942Y-18946836D01*
X710942Y-18946836D02*
X710942Y-18899217D01*
X710942Y-18899217D02*
X720466Y-18861122D01*
X720466Y-18861122D02*
X729989Y-18842074D01*
X729989Y-18842074D02*
X739513Y-18832550D01*
X739513Y-18832550D02*
X758561Y-18823026D01*
X949037Y-18823026D02*
X968085Y-18823026D01*
X968085Y-18823026D02*
X987132Y-18832550D01*
X987132Y-18832550D02*
X996656Y-18842074D01*
X996656Y-18842074D02*
X1006180Y-18861122D01*
X1006180Y-18861122D02*
X1015704Y-18899217D01*
X1015704Y-18899217D02*
X1015704Y-18946836D01*
X1015704Y-18946836D02*
X1006180Y-18984931D01*
X1006180Y-18984931D02*
X996656Y-19003979D01*
X996656Y-19003979D02*
X987132Y-19013503D01*
X987132Y-19013503D02*
X968085Y-19023026D01*
X968085Y-19023026D02*
X949037Y-19023026D01*
X949037Y-19023026D02*
X929989Y-19013503D01*
X929989Y-19013503D02*
X920466Y-19003979D01*
X920466Y-19003979D02*
X910942Y-18984931D01*
X910942Y-18984931D02*
X901418Y-18946836D01*
X901418Y-18946836D02*
X901418Y-18899217D01*
X901418Y-18899217D02*
X910942Y-18861122D01*
X910942Y-18861122D02*
X920466Y-18842074D01*
X920466Y-18842074D02*
X929989Y-18832550D01*
X929989Y-18832550D02*
X949037Y-18823026D01*
X1101418Y-19023026D02*
X1101418Y-18889693D01*
X1101418Y-18908741D02*
X1110942Y-18899217D01*
X1110942Y-18899217D02*
X1129989Y-18889693D01*
X1129989Y-18889693D02*
X1158561Y-18889693D01*
X1158561Y-18889693D02*
X1177609Y-18899217D01*
X1177609Y-18899217D02*
X1187132Y-18918265D01*
X1187132Y-18918265D02*
X1187132Y-19023026D01*
X1187132Y-18918265D02*
X1196656Y-18899217D01*
X1196656Y-18899217D02*
X1215704Y-18889693D01*
X1215704Y-18889693D02*
X1244275Y-18889693D01*
X1244275Y-18889693D02*
X1263323Y-18899217D01*
X1263323Y-18899217D02*
X1272847Y-18918265D01*
X1272847Y-18918265D02*
X1272847Y-19023026D01*
X1368085Y-19023026D02*
X1368085Y-18889693D01*
X1368085Y-18908741D02*
X1377609Y-18899217D01*
X1377609Y-18899217D02*
X1396656Y-18889693D01*
X1396656Y-18889693D02*
X1425228Y-18889693D01*
X1425228Y-18889693D02*
X1444275Y-18899217D01*
X1444275Y-18899217D02*
X1453799Y-18918265D01*
X1453799Y-18918265D02*
X1453799Y-19023026D01*
X1453799Y-18918265D02*
X1463323Y-18899217D01*
X1463323Y-18899217D02*
X1482370Y-18889693D01*
X1482370Y-18889693D02*
X1510942Y-18889693D01*
X1510942Y-18889693D02*
X1529989Y-18899217D01*
X1529989Y-18899217D02*
X1539513Y-18918265D01*
X1539513Y-18918265D02*
X1539513Y-19023026D01*
X1929989Y-18813503D02*
X1758561Y-19070645D01*
X2187132Y-18823026D02*
X2206180Y-18823026D01*
X2206180Y-18823026D02*
X2225228Y-18832550D01*
X2225228Y-18832550D02*
X2234752Y-18842074D01*
X2234752Y-18842074D02*
X2244275Y-18861122D01*
X2244275Y-18861122D02*
X2253799Y-18899217D01*
X2253799Y-18899217D02*
X2253799Y-18946836D01*
X2253799Y-18946836D02*
X2244275Y-18984931D01*
X2244275Y-18984931D02*
X2234752Y-19003979D01*
X2234752Y-19003979D02*
X2225228Y-19013503D01*
X2225228Y-19013503D02*
X2206180Y-19023026D01*
X2206180Y-19023026D02*
X2187132Y-19023026D01*
X2187132Y-19023026D02*
X2168085Y-19013503D01*
X2168085Y-19013503D02*
X2158561Y-19003979D01*
X2158561Y-19003979D02*
X2149037Y-18984931D01*
X2149037Y-18984931D02*
X2139513Y-18946836D01*
X2139513Y-18946836D02*
X2139513Y-18899217D01*
X2139513Y-18899217D02*
X2149037Y-18861122D01*
X2149037Y-18861122D02*
X2158561Y-18842074D01*
X2158561Y-18842074D02*
X2168085Y-18832550D01*
X2168085Y-18832550D02*
X2187132Y-18823026D01*
X2339513Y-19003979D02*
X2349037Y-19013503D01*
X2349037Y-19013503D02*
X2339513Y-19023026D01*
X2339513Y-19023026D02*
X2329990Y-19013503D01*
X2329990Y-19013503D02*
X2339513Y-19003979D01*
X2339513Y-19003979D02*
X2339513Y-19023026D01*
X2472847Y-18823026D02*
X2491894Y-18823026D01*
X2491894Y-18823026D02*
X2510942Y-18832550D01*
X2510942Y-18832550D02*
X2520466Y-18842074D01*
X2520466Y-18842074D02*
X2529990Y-18861122D01*
X2529990Y-18861122D02*
X2539513Y-18899217D01*
X2539513Y-18899217D02*
X2539513Y-18946836D01*
X2539513Y-18946836D02*
X2529990Y-18984931D01*
X2529990Y-18984931D02*
X2520466Y-19003979D01*
X2520466Y-19003979D02*
X2510942Y-19013503D01*
X2510942Y-19013503D02*
X2491894Y-19023026D01*
X2491894Y-19023026D02*
X2472847Y-19023026D01*
X2472847Y-19023026D02*
X2453799Y-19013503D01*
X2453799Y-19013503D02*
X2444275Y-19003979D01*
X2444275Y-19003979D02*
X2434752Y-18984931D01*
X2434752Y-18984931D02*
X2425228Y-18946836D01*
X2425228Y-18946836D02*
X2425228Y-18899217D01*
X2425228Y-18899217D02*
X2434752Y-18861122D01*
X2434752Y-18861122D02*
X2444275Y-18842074D01*
X2444275Y-18842074D02*
X2453799Y-18832550D01*
X2453799Y-18832550D02*
X2472847Y-18823026D01*
X2606180Y-18823026D02*
X2739513Y-18823026D01*
X2739513Y-18823026D02*
X2653799Y-19023026D01*
X2853799Y-18823026D02*
X2872847Y-18823026D01*
X2872847Y-18823026D02*
X2891894Y-18832550D01*
X2891894Y-18832550D02*
X2901418Y-18842074D01*
X2901418Y-18842074D02*
X2910942Y-18861122D01*
X2910942Y-18861122D02*
X2920466Y-18899217D01*
X2920466Y-18899217D02*
X2920466Y-18946836D01*
X2920466Y-18946836D02*
X2910942Y-18984931D01*
X2910942Y-18984931D02*
X2901418Y-19003979D01*
X2901418Y-19003979D02*
X2891894Y-19013503D01*
X2891894Y-19013503D02*
X2872847Y-19023026D01*
X2872847Y-19023026D02*
X2853799Y-19023026D01*
X2853799Y-19023026D02*
X2834751Y-19013503D01*
X2834751Y-19013503D02*
X2825228Y-19003979D01*
X2825228Y-19003979D02*
X2815704Y-18984931D01*
X2815704Y-18984931D02*
X2806180Y-18946836D01*
X2806180Y-18946836D02*
X2806180Y-18899217D01*
X2806180Y-18899217D02*
X2815704Y-18861122D01*
X2815704Y-18861122D02*
X2825228Y-18842074D01*
X2825228Y-18842074D02*
X2834751Y-18832550D01*
X2834751Y-18832550D02*
X2853799Y-18823026D01*
X3015704Y-19023026D02*
X3053799Y-19023026D01*
X3053799Y-19023026D02*
X3072847Y-19013503D01*
X3072847Y-19013503D02*
X3082371Y-19003979D01*
X3082371Y-19003979D02*
X3101418Y-18975407D01*
X3101418Y-18975407D02*
X3110942Y-18937312D01*
X3110942Y-18937312D02*
X3110942Y-18861122D01*
X3110942Y-18861122D02*
X3101418Y-18842074D01*
X3101418Y-18842074D02*
X3091894Y-18832550D01*
X3091894Y-18832550D02*
X3072847Y-18823026D01*
X3072847Y-18823026D02*
X3034751Y-18823026D01*
X3034751Y-18823026D02*
X3015704Y-18832550D01*
X3015704Y-18832550D02*
X3006180Y-18842074D01*
X3006180Y-18842074D02*
X2996656Y-18861122D01*
X2996656Y-18861122D02*
X2996656Y-18908741D01*
X2996656Y-18908741D02*
X3006180Y-18927788D01*
X3006180Y-18927788D02*
X3015704Y-18937312D01*
X3015704Y-18937312D02*
X3034751Y-18946836D01*
X3034751Y-18946836D02*
X3072847Y-18946836D01*
X3072847Y-18946836D02*
X3091894Y-18937312D01*
X3091894Y-18937312D02*
X3101418Y-18927788D01*
X3101418Y-18927788D02*
X3110942Y-18908741D01*
X3187132Y-18823026D02*
X3187132Y-18861122D01*
X3263323Y-18823026D02*
X3263323Y-18861122D01*
X3558561Y-19099217D02*
X3549037Y-19089693D01*
X3549037Y-19089693D02*
X3529990Y-19061122D01*
X3529990Y-19061122D02*
X3520466Y-19042074D01*
X3520466Y-19042074D02*
X3510942Y-19013503D01*
X3510942Y-19013503D02*
X3501418Y-18965884D01*
X3501418Y-18965884D02*
X3501418Y-18927788D01*
X3501418Y-18927788D02*
X3510942Y-18880169D01*
X3510942Y-18880169D02*
X3520466Y-18851598D01*
X3520466Y-18851598D02*
X3529990Y-18832550D01*
X3529990Y-18832550D02*
X3549037Y-18803979D01*
X3549037Y-18803979D02*
X3558561Y-18794455D01*
X3739513Y-19023026D02*
X3625228Y-19023026D01*
X3682371Y-19023026D02*
X3682371Y-18823026D01*
X3682371Y-18823026D02*
X3663323Y-18851598D01*
X3663323Y-18851598D02*
X3644275Y-18870645D01*
X3644275Y-18870645D02*
X3625228Y-18880169D01*
X3815704Y-18842074D02*
X3825228Y-18832550D01*
X3825228Y-18832550D02*
X3844275Y-18823026D01*
X3844275Y-18823026D02*
X3891894Y-18823026D01*
X3891894Y-18823026D02*
X3910942Y-18832550D01*
X3910942Y-18832550D02*
X3920466Y-18842074D01*
X3920466Y-18842074D02*
X3929990Y-18861122D01*
X3929990Y-18861122D02*
X3929990Y-18880169D01*
X3929990Y-18880169D02*
X3920466Y-18908741D01*
X3920466Y-18908741D02*
X3806180Y-19023026D01*
X3806180Y-19023026D02*
X3929990Y-19023026D01*
X4044275Y-18908741D02*
X4025228Y-18899217D01*
X4025228Y-18899217D02*
X4015704Y-18889693D01*
X4015704Y-18889693D02*
X4006180Y-18870645D01*
X4006180Y-18870645D02*
X4006180Y-18861122D01*
X4006180Y-18861122D02*
X4015704Y-18842074D01*
X4015704Y-18842074D02*
X4025228Y-18832550D01*
X4025228Y-18832550D02*
X4044275Y-18823026D01*
X4044275Y-18823026D02*
X4082371Y-18823026D01*
X4082371Y-18823026D02*
X4101418Y-18832550D01*
X4101418Y-18832550D02*
X4110942Y-18842074D01*
X4110942Y-18842074D02*
X4120466Y-18861122D01*
X4120466Y-18861122D02*
X4120466Y-18870645D01*
X4120466Y-18870645D02*
X4110942Y-18889693D01*
X4110942Y-18889693D02*
X4101418Y-18899217D01*
X4101418Y-18899217D02*
X4082371Y-18908741D01*
X4082371Y-18908741D02*
X4044275Y-18908741D01*
X4044275Y-18908741D02*
X4025228Y-18918265D01*
X4025228Y-18918265D02*
X4015704Y-18927788D01*
X4015704Y-18927788D02*
X4006180Y-18946836D01*
X4006180Y-18946836D02*
X4006180Y-18984931D01*
X4006180Y-18984931D02*
X4015704Y-19003979D01*
X4015704Y-19003979D02*
X4025228Y-19013503D01*
X4025228Y-19013503D02*
X4044275Y-19023026D01*
X4044275Y-19023026D02*
X4082371Y-19023026D01*
X4082371Y-19023026D02*
X4101418Y-19013503D01*
X4101418Y-19013503D02*
X4110942Y-19003979D01*
X4110942Y-19003979D02*
X4120466Y-18984931D01*
X4120466Y-18984931D02*
X4120466Y-18946836D01*
X4120466Y-18946836D02*
X4110942Y-18927788D01*
X4110942Y-18927788D02*
X4101418Y-18918265D01*
X4101418Y-18918265D02*
X4082371Y-18908741D01*
X4358561Y-19023026D02*
X4358561Y-18823026D01*
X4444276Y-19023026D02*
X4444276Y-18918265D01*
X4444276Y-18918265D02*
X4434752Y-18899217D01*
X4434752Y-18899217D02*
X4415704Y-18889693D01*
X4415704Y-18889693D02*
X4387133Y-18889693D01*
X4387133Y-18889693D02*
X4368085Y-18899217D01*
X4368085Y-18899217D02*
X4358561Y-18908741D01*
X4568085Y-19023026D02*
X4549037Y-19013503D01*
X4549037Y-19013503D02*
X4539514Y-19003979D01*
X4539514Y-19003979D02*
X4529990Y-18984931D01*
X4529990Y-18984931D02*
X4529990Y-18927788D01*
X4529990Y-18927788D02*
X4539514Y-18908741D01*
X4539514Y-18908741D02*
X4549037Y-18899217D01*
X4549037Y-18899217D02*
X4568085Y-18889693D01*
X4568085Y-18889693D02*
X4596657Y-18889693D01*
X4596657Y-18889693D02*
X4615704Y-18899217D01*
X4615704Y-18899217D02*
X4625228Y-18908741D01*
X4625228Y-18908741D02*
X4634752Y-18927788D01*
X4634752Y-18927788D02*
X4634752Y-18984931D01*
X4634752Y-18984931D02*
X4625228Y-19003979D01*
X4625228Y-19003979D02*
X4615704Y-19013503D01*
X4615704Y-19013503D02*
X4596657Y-19023026D01*
X4596657Y-19023026D02*
X4568085Y-19023026D01*
X4749037Y-19023026D02*
X4729990Y-19013503D01*
X4729990Y-19013503D02*
X4720466Y-18994455D01*
X4720466Y-18994455D02*
X4720466Y-18823026D01*
X4901418Y-19013503D02*
X4882371Y-19023026D01*
X4882371Y-19023026D02*
X4844276Y-19023026D01*
X4844276Y-19023026D02*
X4825228Y-19013503D01*
X4825228Y-19013503D02*
X4815704Y-18994455D01*
X4815704Y-18994455D02*
X4815704Y-18918265D01*
X4815704Y-18918265D02*
X4825228Y-18899217D01*
X4825228Y-18899217D02*
X4844276Y-18889693D01*
X4844276Y-18889693D02*
X4882371Y-18889693D01*
X4882371Y-18889693D02*
X4901418Y-18899217D01*
X4901418Y-18899217D02*
X4910942Y-18918265D01*
X4910942Y-18918265D02*
X4910942Y-18937312D01*
X4910942Y-18937312D02*
X4815704Y-18956360D01*
X4987133Y-19013503D02*
X5006180Y-19023026D01*
X5006180Y-19023026D02*
X5044276Y-19023026D01*
X5044276Y-19023026D02*
X5063323Y-19013503D01*
X5063323Y-19013503D02*
X5072847Y-18994455D01*
X5072847Y-18994455D02*
X5072847Y-18984931D01*
X5072847Y-18984931D02*
X5063323Y-18965884D01*
X5063323Y-18965884D02*
X5044276Y-18956360D01*
X5044276Y-18956360D02*
X5015704Y-18956360D01*
X5015704Y-18956360D02*
X4996657Y-18946836D01*
X4996657Y-18946836D02*
X4987133Y-18927788D01*
X4987133Y-18927788D02*
X4987133Y-18918265D01*
X4987133Y-18918265D02*
X4996657Y-18899217D01*
X4996657Y-18899217D02*
X5015704Y-18889693D01*
X5015704Y-18889693D02*
X5044276Y-18889693D01*
X5044276Y-18889693D02*
X5063323Y-18899217D01*
X5139514Y-19099217D02*
X5149038Y-19089693D01*
X5149038Y-19089693D02*
X5168085Y-19061122D01*
X5168085Y-19061122D02*
X5177609Y-19042074D01*
X5177609Y-19042074D02*
X5187133Y-19013503D01*
X5187133Y-19013503D02*
X5196657Y-18965884D01*
X5196657Y-18965884D02*
X5196657Y-18927788D01*
X5196657Y-18927788D02*
X5187133Y-18880169D01*
X5187133Y-18880169D02*
X5177609Y-18851598D01*
X5177609Y-18851598D02*
X5168085Y-18832550D01*
X5168085Y-18832550D02*
X5149038Y-18803979D01*
X5149038Y-18803979D02*
X5139514Y-18794455D01*
X5501419Y-19099217D02*
X5491895Y-19089693D01*
X5491895Y-19089693D02*
X5472847Y-19061122D01*
X5472847Y-19061122D02*
X5463323Y-19042074D01*
X5463323Y-19042074D02*
X5453799Y-19013503D01*
X5453799Y-19013503D02*
X5444276Y-18965884D01*
X5444276Y-18965884D02*
X5444276Y-18927788D01*
X5444276Y-18927788D02*
X5453799Y-18880169D01*
X5453799Y-18880169D02*
X5463323Y-18851598D01*
X5463323Y-18851598D02*
X5472847Y-18832550D01*
X5472847Y-18832550D02*
X5491895Y-18803979D01*
X5491895Y-18803979D02*
X5501419Y-18794455D01*
X5577609Y-18889693D02*
X5577609Y-19023026D01*
X5577609Y-18908741D02*
X5587133Y-18899217D01*
X5587133Y-18899217D02*
X5606180Y-18889693D01*
X5606180Y-18889693D02*
X5634752Y-18889693D01*
X5634752Y-18889693D02*
X5653799Y-18899217D01*
X5653799Y-18899217D02*
X5663323Y-18918265D01*
X5663323Y-18918265D02*
X5663323Y-19023026D01*
X5787133Y-19023026D02*
X5768085Y-19013503D01*
X5768085Y-19013503D02*
X5758561Y-19003979D01*
X5758561Y-19003979D02*
X5749037Y-18984931D01*
X5749037Y-18984931D02*
X5749037Y-18927788D01*
X5749037Y-18927788D02*
X5758561Y-18908741D01*
X5758561Y-18908741D02*
X5768085Y-18899217D01*
X5768085Y-18899217D02*
X5787133Y-18889693D01*
X5787133Y-18889693D02*
X5815704Y-18889693D01*
X5815704Y-18889693D02*
X5834752Y-18899217D01*
X5834752Y-18899217D02*
X5844276Y-18908741D01*
X5844276Y-18908741D02*
X5853799Y-18927788D01*
X5853799Y-18927788D02*
X5853799Y-18984931D01*
X5853799Y-18984931D02*
X5844276Y-19003979D01*
X5844276Y-19003979D02*
X5834752Y-19013503D01*
X5834752Y-19013503D02*
X5815704Y-19023026D01*
X5815704Y-19023026D02*
X5787133Y-19023026D01*
X5910942Y-18889693D02*
X5987133Y-18889693D01*
X5939514Y-18823026D02*
X5939514Y-18994455D01*
X5939514Y-18994455D02*
X5949037Y-19013503D01*
X5949037Y-19013503D02*
X5968085Y-19023026D01*
X5968085Y-19023026D02*
X5987133Y-19023026D01*
X6206180Y-18889693D02*
X6206180Y-19089693D01*
X6206180Y-18899217D02*
X6225228Y-18889693D01*
X6225228Y-18889693D02*
X6263323Y-18889693D01*
X6263323Y-18889693D02*
X6282371Y-18899217D01*
X6282371Y-18899217D02*
X6291895Y-18908741D01*
X6291895Y-18908741D02*
X6301418Y-18927788D01*
X6301418Y-18927788D02*
X6301418Y-18984931D01*
X6301418Y-18984931D02*
X6291895Y-19003979D01*
X6291895Y-19003979D02*
X6282371Y-19013503D01*
X6282371Y-19013503D02*
X6263323Y-19023026D01*
X6263323Y-19023026D02*
X6225228Y-19023026D01*
X6225228Y-19023026D02*
X6206180Y-19013503D01*
X6415704Y-19023026D02*
X6396657Y-19013503D01*
X6396657Y-19013503D02*
X6387133Y-18994455D01*
X6387133Y-18994455D02*
X6387133Y-18823026D01*
X6577609Y-19023026D02*
X6577609Y-18918265D01*
X6577609Y-18918265D02*
X6568085Y-18899217D01*
X6568085Y-18899217D02*
X6549038Y-18889693D01*
X6549038Y-18889693D02*
X6510942Y-18889693D01*
X6510942Y-18889693D02*
X6491895Y-18899217D01*
X6577609Y-19013503D02*
X6558561Y-19023026D01*
X6558561Y-19023026D02*
X6510942Y-19023026D01*
X6510942Y-19023026D02*
X6491895Y-19013503D01*
X6491895Y-19013503D02*
X6482371Y-18994455D01*
X6482371Y-18994455D02*
X6482371Y-18975407D01*
X6482371Y-18975407D02*
X6491895Y-18956360D01*
X6491895Y-18956360D02*
X6510942Y-18946836D01*
X6510942Y-18946836D02*
X6558561Y-18946836D01*
X6558561Y-18946836D02*
X6577609Y-18937312D01*
X6644276Y-18889693D02*
X6720466Y-18889693D01*
X6672847Y-18823026D02*
X6672847Y-18994455D01*
X6672847Y-18994455D02*
X6682371Y-19013503D01*
X6682371Y-19013503D02*
X6701418Y-19023026D01*
X6701418Y-19023026D02*
X6720466Y-19023026D01*
X6863323Y-19013503D02*
X6844276Y-19023026D01*
X6844276Y-19023026D02*
X6806180Y-19023026D01*
X6806180Y-19023026D02*
X6787133Y-19013503D01*
X6787133Y-19013503D02*
X6777609Y-18994455D01*
X6777609Y-18994455D02*
X6777609Y-18918265D01*
X6777609Y-18918265D02*
X6787133Y-18899217D01*
X6787133Y-18899217D02*
X6806180Y-18889693D01*
X6806180Y-18889693D02*
X6844276Y-18889693D01*
X6844276Y-18889693D02*
X6863323Y-18899217D01*
X6863323Y-18899217D02*
X6872847Y-18918265D01*
X6872847Y-18918265D02*
X6872847Y-18937312D01*
X6872847Y-18937312D02*
X6777609Y-18956360D01*
X7044276Y-19023026D02*
X7044276Y-18823026D01*
X7044276Y-19013503D02*
X7025228Y-19023026D01*
X7025228Y-19023026D02*
X6987133Y-19023026D01*
X6987133Y-19023026D02*
X6968085Y-19013503D01*
X6968085Y-19013503D02*
X6958561Y-19003979D01*
X6958561Y-19003979D02*
X6949038Y-18984931D01*
X6949038Y-18984931D02*
X6949038Y-18927788D01*
X6949038Y-18927788D02*
X6958561Y-18908741D01*
X6958561Y-18908741D02*
X6968085Y-18899217D01*
X6968085Y-18899217D02*
X6987133Y-18889693D01*
X6987133Y-18889693D02*
X7025228Y-18889693D01*
X7025228Y-18889693D02*
X7044276Y-18899217D01*
X7120466Y-19099217D02*
X7129990Y-19089693D01*
X7129990Y-19089693D02*
X7149038Y-19061122D01*
X7149038Y-19061122D02*
X7158561Y-19042074D01*
X7158561Y-19042074D02*
X7168085Y-19013503D01*
X7168085Y-19013503D02*
X7177609Y-18965884D01*
X7177609Y-18965884D02*
X7177609Y-18927788D01*
X7177609Y-18927788D02*
X7168085Y-18880169D01*
X7168085Y-18880169D02*
X7158561Y-18851598D01*
X7158561Y-18851598D02*
X7149038Y-18832550D01*
X7149038Y-18832550D02*
X7129990Y-18803979D01*
X7129990Y-18803979D02*
X7120466Y-18794455D01*
X-16502Y-19231543D02*
G75*
G02*
X-216502Y-19231543I-100000J0D01*
G01*
X-216502Y-19231543D02*
G75*
G02*
X-16502Y-19231543I100000J0D01*
G01*
X225227Y-19123026D02*
X349037Y-19123026D01*
X349037Y-19123026D02*
X282370Y-19199217D01*
X282370Y-19199217D02*
X310942Y-19199217D01*
X310942Y-19199217D02*
X329989Y-19208741D01*
X329989Y-19208741D02*
X339513Y-19218265D01*
X339513Y-19218265D02*
X349037Y-19237312D01*
X349037Y-19237312D02*
X349037Y-19284931D01*
X349037Y-19284931D02*
X339513Y-19303979D01*
X339513Y-19303979D02*
X329989Y-19313503D01*
X329989Y-19313503D02*
X310942Y-19323026D01*
X310942Y-19323026D02*
X253799Y-19323026D01*
X253799Y-19323026D02*
X234751Y-19313503D01*
X234751Y-19313503D02*
X225227Y-19303979D01*
X434751Y-19303979D02*
X444275Y-19313503D01*
X444275Y-19313503D02*
X434751Y-19323026D01*
X434751Y-19323026D02*
X425227Y-19313503D01*
X425227Y-19313503D02*
X434751Y-19303979D01*
X434751Y-19303979D02*
X434751Y-19323026D01*
X568085Y-19123026D02*
X587132Y-19123026D01*
X587132Y-19123026D02*
X606180Y-19132550D01*
X606180Y-19132550D02*
X615704Y-19142074D01*
X615704Y-19142074D02*
X625228Y-19161122D01*
X625228Y-19161122D02*
X634751Y-19199217D01*
X634751Y-19199217D02*
X634751Y-19246836D01*
X634751Y-19246836D02*
X625228Y-19284931D01*
X625228Y-19284931D02*
X615704Y-19303979D01*
X615704Y-19303979D02*
X606180Y-19313503D01*
X606180Y-19313503D02*
X587132Y-19323026D01*
X587132Y-19323026D02*
X568085Y-19323026D01*
X568085Y-19323026D02*
X549037Y-19313503D01*
X549037Y-19313503D02*
X539513Y-19303979D01*
X539513Y-19303979D02*
X529989Y-19284931D01*
X529989Y-19284931D02*
X520466Y-19246836D01*
X520466Y-19246836D02*
X520466Y-19199217D01*
X520466Y-19199217D02*
X529989Y-19161122D01*
X529989Y-19161122D02*
X539513Y-19142074D01*
X539513Y-19142074D02*
X549037Y-19132550D01*
X549037Y-19132550D02*
X568085Y-19123026D01*
X758561Y-19123026D02*
X777608Y-19123026D01*
X777608Y-19123026D02*
X796656Y-19132550D01*
X796656Y-19132550D02*
X806180Y-19142074D01*
X806180Y-19142074D02*
X815704Y-19161122D01*
X815704Y-19161122D02*
X825227Y-19199217D01*
X825227Y-19199217D02*
X825227Y-19246836D01*
X825227Y-19246836D02*
X815704Y-19284931D01*
X815704Y-19284931D02*
X806180Y-19303979D01*
X806180Y-19303979D02*
X796656Y-19313503D01*
X796656Y-19313503D02*
X777608Y-19323026D01*
X777608Y-19323026D02*
X758561Y-19323026D01*
X758561Y-19323026D02*
X739513Y-19313503D01*
X739513Y-19313503D02*
X729989Y-19303979D01*
X729989Y-19303979D02*
X720466Y-19284931D01*
X720466Y-19284931D02*
X710942Y-19246836D01*
X710942Y-19246836D02*
X710942Y-19199217D01*
X710942Y-19199217D02*
X720466Y-19161122D01*
X720466Y-19161122D02*
X729989Y-19142074D01*
X729989Y-19142074D02*
X739513Y-19132550D01*
X739513Y-19132550D02*
X758561Y-19123026D01*
X949037Y-19123026D02*
X968085Y-19123026D01*
X968085Y-19123026D02*
X987132Y-19132550D01*
X987132Y-19132550D02*
X996656Y-19142074D01*
X996656Y-19142074D02*
X1006180Y-19161122D01*
X1006180Y-19161122D02*
X1015704Y-19199217D01*
X1015704Y-19199217D02*
X1015704Y-19246836D01*
X1015704Y-19246836D02*
X1006180Y-19284931D01*
X1006180Y-19284931D02*
X996656Y-19303979D01*
X996656Y-19303979D02*
X987132Y-19313503D01*
X987132Y-19313503D02*
X968085Y-19323026D01*
X968085Y-19323026D02*
X949037Y-19323026D01*
X949037Y-19323026D02*
X929989Y-19313503D01*
X929989Y-19313503D02*
X920466Y-19303979D01*
X920466Y-19303979D02*
X910942Y-19284931D01*
X910942Y-19284931D02*
X901418Y-19246836D01*
X901418Y-19246836D02*
X901418Y-19199217D01*
X901418Y-19199217D02*
X910942Y-19161122D01*
X910942Y-19161122D02*
X920466Y-19142074D01*
X920466Y-19142074D02*
X929989Y-19132550D01*
X929989Y-19132550D02*
X949037Y-19123026D01*
X1101418Y-19323026D02*
X1101418Y-19189693D01*
X1101418Y-19208741D02*
X1110942Y-19199217D01*
X1110942Y-19199217D02*
X1129989Y-19189693D01*
X1129989Y-19189693D02*
X1158561Y-19189693D01*
X1158561Y-19189693D02*
X1177609Y-19199217D01*
X1177609Y-19199217D02*
X1187132Y-19218265D01*
X1187132Y-19218265D02*
X1187132Y-19323026D01*
X1187132Y-19218265D02*
X1196656Y-19199217D01*
X1196656Y-19199217D02*
X1215704Y-19189693D01*
X1215704Y-19189693D02*
X1244275Y-19189693D01*
X1244275Y-19189693D02*
X1263323Y-19199217D01*
X1263323Y-19199217D02*
X1272847Y-19218265D01*
X1272847Y-19218265D02*
X1272847Y-19323026D01*
X1368085Y-19323026D02*
X1368085Y-19189693D01*
X1368085Y-19208741D02*
X1377609Y-19199217D01*
X1377609Y-19199217D02*
X1396656Y-19189693D01*
X1396656Y-19189693D02*
X1425228Y-19189693D01*
X1425228Y-19189693D02*
X1444275Y-19199217D01*
X1444275Y-19199217D02*
X1453799Y-19218265D01*
X1453799Y-19218265D02*
X1453799Y-19323026D01*
X1453799Y-19218265D02*
X1463323Y-19199217D01*
X1463323Y-19199217D02*
X1482370Y-19189693D01*
X1482370Y-19189693D02*
X1510942Y-19189693D01*
X1510942Y-19189693D02*
X1529989Y-19199217D01*
X1529989Y-19199217D02*
X1539513Y-19218265D01*
X1539513Y-19218265D02*
X1539513Y-19323026D01*
X1929989Y-19113503D02*
X1758561Y-19370645D01*
X2187132Y-19123026D02*
X2206180Y-19123026D01*
X2206180Y-19123026D02*
X2225228Y-19132550D01*
X2225228Y-19132550D02*
X2234752Y-19142074D01*
X2234752Y-19142074D02*
X2244275Y-19161122D01*
X2244275Y-19161122D02*
X2253799Y-19199217D01*
X2253799Y-19199217D02*
X2253799Y-19246836D01*
X2253799Y-19246836D02*
X2244275Y-19284931D01*
X2244275Y-19284931D02*
X2234752Y-19303979D01*
X2234752Y-19303979D02*
X2225228Y-19313503D01*
X2225228Y-19313503D02*
X2206180Y-19323026D01*
X2206180Y-19323026D02*
X2187132Y-19323026D01*
X2187132Y-19323026D02*
X2168085Y-19313503D01*
X2168085Y-19313503D02*
X2158561Y-19303979D01*
X2158561Y-19303979D02*
X2149037Y-19284931D01*
X2149037Y-19284931D02*
X2139513Y-19246836D01*
X2139513Y-19246836D02*
X2139513Y-19199217D01*
X2139513Y-19199217D02*
X2149037Y-19161122D01*
X2149037Y-19161122D02*
X2158561Y-19142074D01*
X2158561Y-19142074D02*
X2168085Y-19132550D01*
X2168085Y-19132550D02*
X2187132Y-19123026D01*
X2339513Y-19303979D02*
X2349037Y-19313503D01*
X2349037Y-19313503D02*
X2339513Y-19323026D01*
X2339513Y-19323026D02*
X2329990Y-19313503D01*
X2329990Y-19313503D02*
X2339513Y-19303979D01*
X2339513Y-19303979D02*
X2339513Y-19323026D01*
X2539513Y-19323026D02*
X2425228Y-19323026D01*
X2482371Y-19323026D02*
X2482371Y-19123026D01*
X2482371Y-19123026D02*
X2463323Y-19151598D01*
X2463323Y-19151598D02*
X2444275Y-19170645D01*
X2444275Y-19170645D02*
X2425228Y-19180169D01*
X2729990Y-19323026D02*
X2615704Y-19323026D01*
X2672847Y-19323026D02*
X2672847Y-19123026D01*
X2672847Y-19123026D02*
X2653799Y-19151598D01*
X2653799Y-19151598D02*
X2634752Y-19170645D01*
X2634752Y-19170645D02*
X2615704Y-19180169D01*
X2844275Y-19208741D02*
X2825228Y-19199217D01*
X2825228Y-19199217D02*
X2815704Y-19189693D01*
X2815704Y-19189693D02*
X2806180Y-19170645D01*
X2806180Y-19170645D02*
X2806180Y-19161122D01*
X2806180Y-19161122D02*
X2815704Y-19142074D01*
X2815704Y-19142074D02*
X2825228Y-19132550D01*
X2825228Y-19132550D02*
X2844275Y-19123026D01*
X2844275Y-19123026D02*
X2882371Y-19123026D01*
X2882371Y-19123026D02*
X2901418Y-19132550D01*
X2901418Y-19132550D02*
X2910942Y-19142074D01*
X2910942Y-19142074D02*
X2920466Y-19161122D01*
X2920466Y-19161122D02*
X2920466Y-19170645D01*
X2920466Y-19170645D02*
X2910942Y-19189693D01*
X2910942Y-19189693D02*
X2901418Y-19199217D01*
X2901418Y-19199217D02*
X2882371Y-19208741D01*
X2882371Y-19208741D02*
X2844275Y-19208741D01*
X2844275Y-19208741D02*
X2825228Y-19218265D01*
X2825228Y-19218265D02*
X2815704Y-19227788D01*
X2815704Y-19227788D02*
X2806180Y-19246836D01*
X2806180Y-19246836D02*
X2806180Y-19284931D01*
X2806180Y-19284931D02*
X2815704Y-19303979D01*
X2815704Y-19303979D02*
X2825228Y-19313503D01*
X2825228Y-19313503D02*
X2844275Y-19323026D01*
X2844275Y-19323026D02*
X2882371Y-19323026D01*
X2882371Y-19323026D02*
X2901418Y-19313503D01*
X2901418Y-19313503D02*
X2910942Y-19303979D01*
X2910942Y-19303979D02*
X2920466Y-19284931D01*
X2920466Y-19284931D02*
X2920466Y-19246836D01*
X2920466Y-19246836D02*
X2910942Y-19227788D01*
X2910942Y-19227788D02*
X2901418Y-19218265D01*
X2901418Y-19218265D02*
X2882371Y-19208741D01*
X3110942Y-19323026D02*
X2996656Y-19323026D01*
X3053799Y-19323026D02*
X3053799Y-19123026D01*
X3053799Y-19123026D02*
X3034751Y-19151598D01*
X3034751Y-19151598D02*
X3015704Y-19170645D01*
X3015704Y-19170645D02*
X2996656Y-19180169D01*
X3187132Y-19123026D02*
X3187132Y-19161122D01*
X3263323Y-19123026D02*
X3263323Y-19161122D01*
X3558561Y-19399217D02*
X3549037Y-19389693D01*
X3549037Y-19389693D02*
X3529990Y-19361122D01*
X3529990Y-19361122D02*
X3520466Y-19342074D01*
X3520466Y-19342074D02*
X3510942Y-19313503D01*
X3510942Y-19313503D02*
X3501418Y-19265884D01*
X3501418Y-19265884D02*
X3501418Y-19227788D01*
X3501418Y-19227788D02*
X3510942Y-19180169D01*
X3510942Y-19180169D02*
X3520466Y-19151598D01*
X3520466Y-19151598D02*
X3529990Y-19132550D01*
X3529990Y-19132550D02*
X3549037Y-19103979D01*
X3549037Y-19103979D02*
X3558561Y-19094455D01*
X3739513Y-19323026D02*
X3625228Y-19323026D01*
X3682371Y-19323026D02*
X3682371Y-19123026D01*
X3682371Y-19123026D02*
X3663323Y-19151598D01*
X3663323Y-19151598D02*
X3644275Y-19170645D01*
X3644275Y-19170645D02*
X3625228Y-19180169D01*
X3815704Y-19142074D02*
X3825228Y-19132550D01*
X3825228Y-19132550D02*
X3844275Y-19123026D01*
X3844275Y-19123026D02*
X3891894Y-19123026D01*
X3891894Y-19123026D02*
X3910942Y-19132550D01*
X3910942Y-19132550D02*
X3920466Y-19142074D01*
X3920466Y-19142074D02*
X3929990Y-19161122D01*
X3929990Y-19161122D02*
X3929990Y-19180169D01*
X3929990Y-19180169D02*
X3920466Y-19208741D01*
X3920466Y-19208741D02*
X3806180Y-19323026D01*
X3806180Y-19323026D02*
X3929990Y-19323026D01*
X4044275Y-19208741D02*
X4025228Y-19199217D01*
X4025228Y-19199217D02*
X4015704Y-19189693D01*
X4015704Y-19189693D02*
X4006180Y-19170645D01*
X4006180Y-19170645D02*
X4006180Y-19161122D01*
X4006180Y-19161122D02*
X4015704Y-19142074D01*
X4015704Y-19142074D02*
X4025228Y-19132550D01*
X4025228Y-19132550D02*
X4044275Y-19123026D01*
X4044275Y-19123026D02*
X4082371Y-19123026D01*
X4082371Y-19123026D02*
X4101418Y-19132550D01*
X4101418Y-19132550D02*
X4110942Y-19142074D01*
X4110942Y-19142074D02*
X4120466Y-19161122D01*
X4120466Y-19161122D02*
X4120466Y-19170645D01*
X4120466Y-19170645D02*
X4110942Y-19189693D01*
X4110942Y-19189693D02*
X4101418Y-19199217D01*
X4101418Y-19199217D02*
X4082371Y-19208741D01*
X4082371Y-19208741D02*
X4044275Y-19208741D01*
X4044275Y-19208741D02*
X4025228Y-19218265D01*
X4025228Y-19218265D02*
X4015704Y-19227788D01*
X4015704Y-19227788D02*
X4006180Y-19246836D01*
X4006180Y-19246836D02*
X4006180Y-19284931D01*
X4006180Y-19284931D02*
X4015704Y-19303979D01*
X4015704Y-19303979D02*
X4025228Y-19313503D01*
X4025228Y-19313503D02*
X4044275Y-19323026D01*
X4044275Y-19323026D02*
X4082371Y-19323026D01*
X4082371Y-19323026D02*
X4101418Y-19313503D01*
X4101418Y-19313503D02*
X4110942Y-19303979D01*
X4110942Y-19303979D02*
X4120466Y-19284931D01*
X4120466Y-19284931D02*
X4120466Y-19246836D01*
X4120466Y-19246836D02*
X4110942Y-19227788D01*
X4110942Y-19227788D02*
X4101418Y-19218265D01*
X4101418Y-19218265D02*
X4082371Y-19208741D01*
X4358561Y-19323026D02*
X4358561Y-19123026D01*
X4444276Y-19323026D02*
X4444276Y-19218265D01*
X4444276Y-19218265D02*
X4434752Y-19199217D01*
X4434752Y-19199217D02*
X4415704Y-19189693D01*
X4415704Y-19189693D02*
X4387133Y-19189693D01*
X4387133Y-19189693D02*
X4368085Y-19199217D01*
X4368085Y-19199217D02*
X4358561Y-19208741D01*
X4568085Y-19323026D02*
X4549037Y-19313503D01*
X4549037Y-19313503D02*
X4539514Y-19303979D01*
X4539514Y-19303979D02*
X4529990Y-19284931D01*
X4529990Y-19284931D02*
X4529990Y-19227788D01*
X4529990Y-19227788D02*
X4539514Y-19208741D01*
X4539514Y-19208741D02*
X4549037Y-19199217D01*
X4549037Y-19199217D02*
X4568085Y-19189693D01*
X4568085Y-19189693D02*
X4596657Y-19189693D01*
X4596657Y-19189693D02*
X4615704Y-19199217D01*
X4615704Y-19199217D02*
X4625228Y-19208741D01*
X4625228Y-19208741D02*
X4634752Y-19227788D01*
X4634752Y-19227788D02*
X4634752Y-19284931D01*
X4634752Y-19284931D02*
X4625228Y-19303979D01*
X4625228Y-19303979D02*
X4615704Y-19313503D01*
X4615704Y-19313503D02*
X4596657Y-19323026D01*
X4596657Y-19323026D02*
X4568085Y-19323026D01*
X4749037Y-19323026D02*
X4729990Y-19313503D01*
X4729990Y-19313503D02*
X4720466Y-19294455D01*
X4720466Y-19294455D02*
X4720466Y-19123026D01*
X4901418Y-19313503D02*
X4882371Y-19323026D01*
X4882371Y-19323026D02*
X4844276Y-19323026D01*
X4844276Y-19323026D02*
X4825228Y-19313503D01*
X4825228Y-19313503D02*
X4815704Y-19294455D01*
X4815704Y-19294455D02*
X4815704Y-19218265D01*
X4815704Y-19218265D02*
X4825228Y-19199217D01*
X4825228Y-19199217D02*
X4844276Y-19189693D01*
X4844276Y-19189693D02*
X4882371Y-19189693D01*
X4882371Y-19189693D02*
X4901418Y-19199217D01*
X4901418Y-19199217D02*
X4910942Y-19218265D01*
X4910942Y-19218265D02*
X4910942Y-19237312D01*
X4910942Y-19237312D02*
X4815704Y-19256360D01*
X4987133Y-19313503D02*
X5006180Y-19323026D01*
X5006180Y-19323026D02*
X5044276Y-19323026D01*
X5044276Y-19323026D02*
X5063323Y-19313503D01*
X5063323Y-19313503D02*
X5072847Y-19294455D01*
X5072847Y-19294455D02*
X5072847Y-19284931D01*
X5072847Y-19284931D02*
X5063323Y-19265884D01*
X5063323Y-19265884D02*
X5044276Y-19256360D01*
X5044276Y-19256360D02*
X5015704Y-19256360D01*
X5015704Y-19256360D02*
X4996657Y-19246836D01*
X4996657Y-19246836D02*
X4987133Y-19227788D01*
X4987133Y-19227788D02*
X4987133Y-19218265D01*
X4987133Y-19218265D02*
X4996657Y-19199217D01*
X4996657Y-19199217D02*
X5015704Y-19189693D01*
X5015704Y-19189693D02*
X5044276Y-19189693D01*
X5044276Y-19189693D02*
X5063323Y-19199217D01*
X5139514Y-19399217D02*
X5149038Y-19389693D01*
X5149038Y-19389693D02*
X5168085Y-19361122D01*
X5168085Y-19361122D02*
X5177609Y-19342074D01*
X5177609Y-19342074D02*
X5187133Y-19313503D01*
X5187133Y-19313503D02*
X5196657Y-19265884D01*
X5196657Y-19265884D02*
X5196657Y-19227788D01*
X5196657Y-19227788D02*
X5187133Y-19180169D01*
X5187133Y-19180169D02*
X5177609Y-19151598D01*
X5177609Y-19151598D02*
X5168085Y-19132550D01*
X5168085Y-19132550D02*
X5149038Y-19103979D01*
X5149038Y-19103979D02*
X5139514Y-19094455D01*
X5501419Y-19399217D02*
X5491895Y-19389693D01*
X5491895Y-19389693D02*
X5472847Y-19361122D01*
X5472847Y-19361122D02*
X5463323Y-19342074D01*
X5463323Y-19342074D02*
X5453799Y-19313503D01*
X5453799Y-19313503D02*
X5444276Y-19265884D01*
X5444276Y-19265884D02*
X5444276Y-19227788D01*
X5444276Y-19227788D02*
X5453799Y-19180169D01*
X5453799Y-19180169D02*
X5463323Y-19151598D01*
X5463323Y-19151598D02*
X5472847Y-19132550D01*
X5472847Y-19132550D02*
X5491895Y-19103979D01*
X5491895Y-19103979D02*
X5501419Y-19094455D01*
X5577609Y-19189693D02*
X5577609Y-19323026D01*
X5577609Y-19208741D02*
X5587133Y-19199217D01*
X5587133Y-19199217D02*
X5606180Y-19189693D01*
X5606180Y-19189693D02*
X5634752Y-19189693D01*
X5634752Y-19189693D02*
X5653799Y-19199217D01*
X5653799Y-19199217D02*
X5663323Y-19218265D01*
X5663323Y-19218265D02*
X5663323Y-19323026D01*
X5787133Y-19323026D02*
X5768085Y-19313503D01*
X5768085Y-19313503D02*
X5758561Y-19303979D01*
X5758561Y-19303979D02*
X5749037Y-19284931D01*
X5749037Y-19284931D02*
X5749037Y-19227788D01*
X5749037Y-19227788D02*
X5758561Y-19208741D01*
X5758561Y-19208741D02*
X5768085Y-19199217D01*
X5768085Y-19199217D02*
X5787133Y-19189693D01*
X5787133Y-19189693D02*
X5815704Y-19189693D01*
X5815704Y-19189693D02*
X5834752Y-19199217D01*
X5834752Y-19199217D02*
X5844276Y-19208741D01*
X5844276Y-19208741D02*
X5853799Y-19227788D01*
X5853799Y-19227788D02*
X5853799Y-19284931D01*
X5853799Y-19284931D02*
X5844276Y-19303979D01*
X5844276Y-19303979D02*
X5834752Y-19313503D01*
X5834752Y-19313503D02*
X5815704Y-19323026D01*
X5815704Y-19323026D02*
X5787133Y-19323026D01*
X5910942Y-19189693D02*
X5987133Y-19189693D01*
X5939514Y-19123026D02*
X5939514Y-19294455D01*
X5939514Y-19294455D02*
X5949037Y-19313503D01*
X5949037Y-19313503D02*
X5968085Y-19323026D01*
X5968085Y-19323026D02*
X5987133Y-19323026D01*
X6206180Y-19189693D02*
X6206180Y-19389693D01*
X6206180Y-19199217D02*
X6225228Y-19189693D01*
X6225228Y-19189693D02*
X6263323Y-19189693D01*
X6263323Y-19189693D02*
X6282371Y-19199217D01*
X6282371Y-19199217D02*
X6291895Y-19208741D01*
X6291895Y-19208741D02*
X6301418Y-19227788D01*
X6301418Y-19227788D02*
X6301418Y-19284931D01*
X6301418Y-19284931D02*
X6291895Y-19303979D01*
X6291895Y-19303979D02*
X6282371Y-19313503D01*
X6282371Y-19313503D02*
X6263323Y-19323026D01*
X6263323Y-19323026D02*
X6225228Y-19323026D01*
X6225228Y-19323026D02*
X6206180Y-19313503D01*
X6415704Y-19323026D02*
X6396657Y-19313503D01*
X6396657Y-19313503D02*
X6387133Y-19294455D01*
X6387133Y-19294455D02*
X6387133Y-19123026D01*
X6577609Y-19323026D02*
X6577609Y-19218265D01*
X6577609Y-19218265D02*
X6568085Y-19199217D01*
X6568085Y-19199217D02*
X6549038Y-19189693D01*
X6549038Y-19189693D02*
X6510942Y-19189693D01*
X6510942Y-19189693D02*
X6491895Y-19199217D01*
X6577609Y-19313503D02*
X6558561Y-19323026D01*
X6558561Y-19323026D02*
X6510942Y-19323026D01*
X6510942Y-19323026D02*
X6491895Y-19313503D01*
X6491895Y-19313503D02*
X6482371Y-19294455D01*
X6482371Y-19294455D02*
X6482371Y-19275407D01*
X6482371Y-19275407D02*
X6491895Y-19256360D01*
X6491895Y-19256360D02*
X6510942Y-19246836D01*
X6510942Y-19246836D02*
X6558561Y-19246836D01*
X6558561Y-19246836D02*
X6577609Y-19237312D01*
X6644276Y-19189693D02*
X6720466Y-19189693D01*
X6672847Y-19123026D02*
X6672847Y-19294455D01*
X6672847Y-19294455D02*
X6682371Y-19313503D01*
X6682371Y-19313503D02*
X6701418Y-19323026D01*
X6701418Y-19323026D02*
X6720466Y-19323026D01*
X6863323Y-19313503D02*
X6844276Y-19323026D01*
X6844276Y-19323026D02*
X6806180Y-19323026D01*
X6806180Y-19323026D02*
X6787133Y-19313503D01*
X6787133Y-19313503D02*
X6777609Y-19294455D01*
X6777609Y-19294455D02*
X6777609Y-19218265D01*
X6777609Y-19218265D02*
X6787133Y-19199217D01*
X6787133Y-19199217D02*
X6806180Y-19189693D01*
X6806180Y-19189693D02*
X6844276Y-19189693D01*
X6844276Y-19189693D02*
X6863323Y-19199217D01*
X6863323Y-19199217D02*
X6872847Y-19218265D01*
X6872847Y-19218265D02*
X6872847Y-19237312D01*
X6872847Y-19237312D02*
X6777609Y-19256360D01*
X7044276Y-19323026D02*
X7044276Y-19123026D01*
X7044276Y-19313503D02*
X7025228Y-19323026D01*
X7025228Y-19323026D02*
X6987133Y-19323026D01*
X6987133Y-19323026D02*
X6968085Y-19313503D01*
X6968085Y-19313503D02*
X6958561Y-19303979D01*
X6958561Y-19303979D02*
X6949038Y-19284931D01*
X6949038Y-19284931D02*
X6949038Y-19227788D01*
X6949038Y-19227788D02*
X6958561Y-19208741D01*
X6958561Y-19208741D02*
X6968085Y-19199217D01*
X6968085Y-19199217D02*
X6987133Y-19189693D01*
X6987133Y-19189693D02*
X7025228Y-19189693D01*
X7025228Y-19189693D02*
X7044276Y-19199217D01*
X7120466Y-19399217D02*
X7129990Y-19389693D01*
X7129990Y-19389693D02*
X7149038Y-19361122D01*
X7149038Y-19361122D02*
X7158561Y-19342074D01*
X7158561Y-19342074D02*
X7168085Y-19313503D01*
X7168085Y-19313503D02*
X7177609Y-19265884D01*
X7177609Y-19265884D02*
X7177609Y-19227788D01*
X7177609Y-19227788D02*
X7168085Y-19180169D01*
X7168085Y-19180169D02*
X7158561Y-19151598D01*
X7158561Y-19151598D02*
X7149038Y-19132550D01*
X7149038Y-19132550D02*
X7129990Y-19103979D01*
X7129990Y-19103979D02*
X7120466Y-19094455D01*
X-116502Y-19451543D02*
X-116502Y-19651543D01*
X-216502Y-19551543D02*
X-16502Y-19551543D01*
X329989Y-19509693D02*
X329989Y-19643026D01*
X282370Y-19433503D02*
X234751Y-19576360D01*
X234751Y-19576360D02*
X358561Y-19576360D01*
X434751Y-19623979D02*
X444275Y-19633503D01*
X444275Y-19633503D02*
X434751Y-19643026D01*
X434751Y-19643026D02*
X425227Y-19633503D01*
X425227Y-19633503D02*
X434751Y-19623979D01*
X434751Y-19623979D02*
X434751Y-19643026D01*
X568085Y-19443026D02*
X587132Y-19443026D01*
X587132Y-19443026D02*
X606180Y-19452550D01*
X606180Y-19452550D02*
X615704Y-19462074D01*
X615704Y-19462074D02*
X625228Y-19481122D01*
X625228Y-19481122D02*
X634751Y-19519217D01*
X634751Y-19519217D02*
X634751Y-19566836D01*
X634751Y-19566836D02*
X625228Y-19604931D01*
X625228Y-19604931D02*
X615704Y-19623979D01*
X615704Y-19623979D02*
X606180Y-19633503D01*
X606180Y-19633503D02*
X587132Y-19643026D01*
X587132Y-19643026D02*
X568085Y-19643026D01*
X568085Y-19643026D02*
X549037Y-19633503D01*
X549037Y-19633503D02*
X539513Y-19623979D01*
X539513Y-19623979D02*
X529989Y-19604931D01*
X529989Y-19604931D02*
X520466Y-19566836D01*
X520466Y-19566836D02*
X520466Y-19519217D01*
X520466Y-19519217D02*
X529989Y-19481122D01*
X529989Y-19481122D02*
X539513Y-19462074D01*
X539513Y-19462074D02*
X549037Y-19452550D01*
X549037Y-19452550D02*
X568085Y-19443026D01*
X758561Y-19443026D02*
X777608Y-19443026D01*
X777608Y-19443026D02*
X796656Y-19452550D01*
X796656Y-19452550D02*
X806180Y-19462074D01*
X806180Y-19462074D02*
X815704Y-19481122D01*
X815704Y-19481122D02*
X825227Y-19519217D01*
X825227Y-19519217D02*
X825227Y-19566836D01*
X825227Y-19566836D02*
X815704Y-19604931D01*
X815704Y-19604931D02*
X806180Y-19623979D01*
X806180Y-19623979D02*
X796656Y-19633503D01*
X796656Y-19633503D02*
X777608Y-19643026D01*
X777608Y-19643026D02*
X758561Y-19643026D01*
X758561Y-19643026D02*
X739513Y-19633503D01*
X739513Y-19633503D02*
X729989Y-19623979D01*
X729989Y-19623979D02*
X720466Y-19604931D01*
X720466Y-19604931D02*
X710942Y-19566836D01*
X710942Y-19566836D02*
X710942Y-19519217D01*
X710942Y-19519217D02*
X720466Y-19481122D01*
X720466Y-19481122D02*
X729989Y-19462074D01*
X729989Y-19462074D02*
X739513Y-19452550D01*
X739513Y-19452550D02*
X758561Y-19443026D01*
X949037Y-19443026D02*
X968085Y-19443026D01*
X968085Y-19443026D02*
X987132Y-19452550D01*
X987132Y-19452550D02*
X996656Y-19462074D01*
X996656Y-19462074D02*
X1006180Y-19481122D01*
X1006180Y-19481122D02*
X1015704Y-19519217D01*
X1015704Y-19519217D02*
X1015704Y-19566836D01*
X1015704Y-19566836D02*
X1006180Y-19604931D01*
X1006180Y-19604931D02*
X996656Y-19623979D01*
X996656Y-19623979D02*
X987132Y-19633503D01*
X987132Y-19633503D02*
X968085Y-19643026D01*
X968085Y-19643026D02*
X949037Y-19643026D01*
X949037Y-19643026D02*
X929989Y-19633503D01*
X929989Y-19633503D02*
X920466Y-19623979D01*
X920466Y-19623979D02*
X910942Y-19604931D01*
X910942Y-19604931D02*
X901418Y-19566836D01*
X901418Y-19566836D02*
X901418Y-19519217D01*
X901418Y-19519217D02*
X910942Y-19481122D01*
X910942Y-19481122D02*
X920466Y-19462074D01*
X920466Y-19462074D02*
X929989Y-19452550D01*
X929989Y-19452550D02*
X949037Y-19443026D01*
X1101418Y-19643026D02*
X1101418Y-19509693D01*
X1101418Y-19528741D02*
X1110942Y-19519217D01*
X1110942Y-19519217D02*
X1129989Y-19509693D01*
X1129989Y-19509693D02*
X1158561Y-19509693D01*
X1158561Y-19509693D02*
X1177609Y-19519217D01*
X1177609Y-19519217D02*
X1187132Y-19538265D01*
X1187132Y-19538265D02*
X1187132Y-19643026D01*
X1187132Y-19538265D02*
X1196656Y-19519217D01*
X1196656Y-19519217D02*
X1215704Y-19509693D01*
X1215704Y-19509693D02*
X1244275Y-19509693D01*
X1244275Y-19509693D02*
X1263323Y-19519217D01*
X1263323Y-19519217D02*
X1272847Y-19538265D01*
X1272847Y-19538265D02*
X1272847Y-19643026D01*
X1368085Y-19643026D02*
X1368085Y-19509693D01*
X1368085Y-19528741D02*
X1377609Y-19519217D01*
X1377609Y-19519217D02*
X1396656Y-19509693D01*
X1396656Y-19509693D02*
X1425228Y-19509693D01*
X1425228Y-19509693D02*
X1444275Y-19519217D01*
X1444275Y-19519217D02*
X1453799Y-19538265D01*
X1453799Y-19538265D02*
X1453799Y-19643026D01*
X1453799Y-19538265D02*
X1463323Y-19519217D01*
X1463323Y-19519217D02*
X1482370Y-19509693D01*
X1482370Y-19509693D02*
X1510942Y-19509693D01*
X1510942Y-19509693D02*
X1529989Y-19519217D01*
X1529989Y-19519217D02*
X1539513Y-19538265D01*
X1539513Y-19538265D02*
X1539513Y-19643026D01*
X1929989Y-19433503D02*
X1758561Y-19690645D01*
X2187132Y-19443026D02*
X2206180Y-19443026D01*
X2206180Y-19443026D02*
X2225228Y-19452550D01*
X2225228Y-19452550D02*
X2234752Y-19462074D01*
X2234752Y-19462074D02*
X2244275Y-19481122D01*
X2244275Y-19481122D02*
X2253799Y-19519217D01*
X2253799Y-19519217D02*
X2253799Y-19566836D01*
X2253799Y-19566836D02*
X2244275Y-19604931D01*
X2244275Y-19604931D02*
X2234752Y-19623979D01*
X2234752Y-19623979D02*
X2225228Y-19633503D01*
X2225228Y-19633503D02*
X2206180Y-19643026D01*
X2206180Y-19643026D02*
X2187132Y-19643026D01*
X2187132Y-19643026D02*
X2168085Y-19633503D01*
X2168085Y-19633503D02*
X2158561Y-19623979D01*
X2158561Y-19623979D02*
X2149037Y-19604931D01*
X2149037Y-19604931D02*
X2139513Y-19566836D01*
X2139513Y-19566836D02*
X2139513Y-19519217D01*
X2139513Y-19519217D02*
X2149037Y-19481122D01*
X2149037Y-19481122D02*
X2158561Y-19462074D01*
X2158561Y-19462074D02*
X2168085Y-19452550D01*
X2168085Y-19452550D02*
X2187132Y-19443026D01*
X2339513Y-19623979D02*
X2349037Y-19633503D01*
X2349037Y-19633503D02*
X2339513Y-19643026D01*
X2339513Y-19643026D02*
X2329990Y-19633503D01*
X2329990Y-19633503D02*
X2339513Y-19623979D01*
X2339513Y-19623979D02*
X2339513Y-19643026D01*
X2539513Y-19643026D02*
X2425228Y-19643026D01*
X2482371Y-19643026D02*
X2482371Y-19443026D01*
X2482371Y-19443026D02*
X2463323Y-19471598D01*
X2463323Y-19471598D02*
X2444275Y-19490645D01*
X2444275Y-19490645D02*
X2425228Y-19500169D01*
X2720466Y-19443026D02*
X2625228Y-19443026D01*
X2625228Y-19443026D02*
X2615704Y-19538265D01*
X2615704Y-19538265D02*
X2625228Y-19528741D01*
X2625228Y-19528741D02*
X2644275Y-19519217D01*
X2644275Y-19519217D02*
X2691894Y-19519217D01*
X2691894Y-19519217D02*
X2710942Y-19528741D01*
X2710942Y-19528741D02*
X2720466Y-19538265D01*
X2720466Y-19538265D02*
X2729990Y-19557312D01*
X2729990Y-19557312D02*
X2729990Y-19604931D01*
X2729990Y-19604931D02*
X2720466Y-19623979D01*
X2720466Y-19623979D02*
X2710942Y-19633503D01*
X2710942Y-19633503D02*
X2691894Y-19643026D01*
X2691894Y-19643026D02*
X2644275Y-19643026D01*
X2644275Y-19643026D02*
X2625228Y-19633503D01*
X2625228Y-19633503D02*
X2615704Y-19623979D01*
X2796656Y-19443026D02*
X2929990Y-19443026D01*
X2929990Y-19443026D02*
X2844275Y-19643026D01*
X3101418Y-19443026D02*
X3006180Y-19443026D01*
X3006180Y-19443026D02*
X2996656Y-19538265D01*
X2996656Y-19538265D02*
X3006180Y-19528741D01*
X3006180Y-19528741D02*
X3025228Y-19519217D01*
X3025228Y-19519217D02*
X3072847Y-19519217D01*
X3072847Y-19519217D02*
X3091894Y-19528741D01*
X3091894Y-19528741D02*
X3101418Y-19538265D01*
X3101418Y-19538265D02*
X3110942Y-19557312D01*
X3110942Y-19557312D02*
X3110942Y-19604931D01*
X3110942Y-19604931D02*
X3101418Y-19623979D01*
X3101418Y-19623979D02*
X3091894Y-19633503D01*
X3091894Y-19633503D02*
X3072847Y-19643026D01*
X3072847Y-19643026D02*
X3025228Y-19643026D01*
X3025228Y-19643026D02*
X3006180Y-19633503D01*
X3006180Y-19633503D02*
X2996656Y-19623979D01*
X3187132Y-19443026D02*
X3187132Y-19481122D01*
X3263323Y-19443026D02*
X3263323Y-19481122D01*
X3558561Y-19719217D02*
X3549037Y-19709693D01*
X3549037Y-19709693D02*
X3529990Y-19681122D01*
X3529990Y-19681122D02*
X3520466Y-19662074D01*
X3520466Y-19662074D02*
X3510942Y-19633503D01*
X3510942Y-19633503D02*
X3501418Y-19585884D01*
X3501418Y-19585884D02*
X3501418Y-19547788D01*
X3501418Y-19547788D02*
X3510942Y-19500169D01*
X3510942Y-19500169D02*
X3520466Y-19471598D01*
X3520466Y-19471598D02*
X3529990Y-19452550D01*
X3529990Y-19452550D02*
X3549037Y-19423979D01*
X3549037Y-19423979D02*
X3558561Y-19414455D01*
X3720466Y-19443026D02*
X3682371Y-19443026D01*
X3682371Y-19443026D02*
X3663323Y-19452550D01*
X3663323Y-19452550D02*
X3653799Y-19462074D01*
X3653799Y-19462074D02*
X3634752Y-19490645D01*
X3634752Y-19490645D02*
X3625228Y-19528741D01*
X3625228Y-19528741D02*
X3625228Y-19604931D01*
X3625228Y-19604931D02*
X3634752Y-19623979D01*
X3634752Y-19623979D02*
X3644275Y-19633503D01*
X3644275Y-19633503D02*
X3663323Y-19643026D01*
X3663323Y-19643026D02*
X3701418Y-19643026D01*
X3701418Y-19643026D02*
X3720466Y-19633503D01*
X3720466Y-19633503D02*
X3729990Y-19623979D01*
X3729990Y-19623979D02*
X3739513Y-19604931D01*
X3739513Y-19604931D02*
X3739513Y-19557312D01*
X3739513Y-19557312D02*
X3729990Y-19538265D01*
X3729990Y-19538265D02*
X3720466Y-19528741D01*
X3720466Y-19528741D02*
X3701418Y-19519217D01*
X3701418Y-19519217D02*
X3663323Y-19519217D01*
X3663323Y-19519217D02*
X3644275Y-19528741D01*
X3644275Y-19528741D02*
X3634752Y-19538265D01*
X3634752Y-19538265D02*
X3625228Y-19557312D01*
X3910942Y-19509693D02*
X3910942Y-19643026D01*
X3863323Y-19433503D02*
X3815704Y-19576360D01*
X3815704Y-19576360D02*
X3939513Y-19576360D01*
X4168085Y-19643026D02*
X4168085Y-19443026D01*
X4253799Y-19643026D02*
X4253799Y-19538265D01*
X4253799Y-19538265D02*
X4244276Y-19519217D01*
X4244276Y-19519217D02*
X4225228Y-19509693D01*
X4225228Y-19509693D02*
X4196656Y-19509693D01*
X4196656Y-19509693D02*
X4177609Y-19519217D01*
X4177609Y-19519217D02*
X4168085Y-19528741D01*
X4377609Y-19643026D02*
X4358561Y-19633503D01*
X4358561Y-19633503D02*
X4349037Y-19623979D01*
X4349037Y-19623979D02*
X4339514Y-19604931D01*
X4339514Y-19604931D02*
X4339514Y-19547788D01*
X4339514Y-19547788D02*
X4349037Y-19528741D01*
X4349037Y-19528741D02*
X4358561Y-19519217D01*
X4358561Y-19519217D02*
X4377609Y-19509693D01*
X4377609Y-19509693D02*
X4406180Y-19509693D01*
X4406180Y-19509693D02*
X4425228Y-19519217D01*
X4425228Y-19519217D02*
X4434752Y-19528741D01*
X4434752Y-19528741D02*
X4444276Y-19547788D01*
X4444276Y-19547788D02*
X4444276Y-19604931D01*
X4444276Y-19604931D02*
X4434752Y-19623979D01*
X4434752Y-19623979D02*
X4425228Y-19633503D01*
X4425228Y-19633503D02*
X4406180Y-19643026D01*
X4406180Y-19643026D02*
X4377609Y-19643026D01*
X4558561Y-19643026D02*
X4539514Y-19633503D01*
X4539514Y-19633503D02*
X4529990Y-19614455D01*
X4529990Y-19614455D02*
X4529990Y-19443026D01*
X4710942Y-19633503D02*
X4691895Y-19643026D01*
X4691895Y-19643026D02*
X4653799Y-19643026D01*
X4653799Y-19643026D02*
X4634752Y-19633503D01*
X4634752Y-19633503D02*
X4625228Y-19614455D01*
X4625228Y-19614455D02*
X4625228Y-19538265D01*
X4625228Y-19538265D02*
X4634752Y-19519217D01*
X4634752Y-19519217D02*
X4653799Y-19509693D01*
X4653799Y-19509693D02*
X4691895Y-19509693D01*
X4691895Y-19509693D02*
X4710942Y-19519217D01*
X4710942Y-19519217D02*
X4720466Y-19538265D01*
X4720466Y-19538265D02*
X4720466Y-19557312D01*
X4720466Y-19557312D02*
X4625228Y-19576360D01*
X4796657Y-19633503D02*
X4815704Y-19643026D01*
X4815704Y-19643026D02*
X4853799Y-19643026D01*
X4853799Y-19643026D02*
X4872847Y-19633503D01*
X4872847Y-19633503D02*
X4882371Y-19614455D01*
X4882371Y-19614455D02*
X4882371Y-19604931D01*
X4882371Y-19604931D02*
X4872847Y-19585884D01*
X4872847Y-19585884D02*
X4853799Y-19576360D01*
X4853799Y-19576360D02*
X4825228Y-19576360D01*
X4825228Y-19576360D02*
X4806180Y-19566836D01*
X4806180Y-19566836D02*
X4796657Y-19547788D01*
X4796657Y-19547788D02*
X4796657Y-19538265D01*
X4796657Y-19538265D02*
X4806180Y-19519217D01*
X4806180Y-19519217D02*
X4825228Y-19509693D01*
X4825228Y-19509693D02*
X4853799Y-19509693D01*
X4853799Y-19509693D02*
X4872847Y-19519217D01*
X4949038Y-19719217D02*
X4958561Y-19709693D01*
X4958561Y-19709693D02*
X4977609Y-19681122D01*
X4977609Y-19681122D02*
X4987133Y-19662074D01*
X4987133Y-19662074D02*
X4996657Y-19633503D01*
X4996657Y-19633503D02*
X5006180Y-19585884D01*
X5006180Y-19585884D02*
X5006180Y-19547788D01*
X5006180Y-19547788D02*
X4996657Y-19500169D01*
X4996657Y-19500169D02*
X4987133Y-19471598D01*
X4987133Y-19471598D02*
X4977609Y-19452550D01*
X4977609Y-19452550D02*
X4958561Y-19423979D01*
X4958561Y-19423979D02*
X4949038Y-19414455D01*
X5310942Y-19719217D02*
X5301418Y-19709693D01*
X5301418Y-19709693D02*
X5282371Y-19681122D01*
X5282371Y-19681122D02*
X5272847Y-19662074D01*
X5272847Y-19662074D02*
X5263323Y-19633503D01*
X5263323Y-19633503D02*
X5253799Y-19585884D01*
X5253799Y-19585884D02*
X5253799Y-19547788D01*
X5253799Y-19547788D02*
X5263323Y-19500169D01*
X5263323Y-19500169D02*
X5272847Y-19471598D01*
X5272847Y-19471598D02*
X5282371Y-19452550D01*
X5282371Y-19452550D02*
X5301418Y-19423979D01*
X5301418Y-19423979D02*
X5310942Y-19414455D01*
X5387133Y-19509693D02*
X5387133Y-19643026D01*
X5387133Y-19528741D02*
X5396657Y-19519217D01*
X5396657Y-19519217D02*
X5415704Y-19509693D01*
X5415704Y-19509693D02*
X5444276Y-19509693D01*
X5444276Y-19509693D02*
X5463323Y-19519217D01*
X5463323Y-19519217D02*
X5472847Y-19538265D01*
X5472847Y-19538265D02*
X5472847Y-19643026D01*
X5596656Y-19643026D02*
X5577609Y-19633503D01*
X5577609Y-19633503D02*
X5568085Y-19623979D01*
X5568085Y-19623979D02*
X5558561Y-19604931D01*
X5558561Y-19604931D02*
X5558561Y-19547788D01*
X5558561Y-19547788D02*
X5568085Y-19528741D01*
X5568085Y-19528741D02*
X5577609Y-19519217D01*
X5577609Y-19519217D02*
X5596656Y-19509693D01*
X5596656Y-19509693D02*
X5625228Y-19509693D01*
X5625228Y-19509693D02*
X5644276Y-19519217D01*
X5644276Y-19519217D02*
X5653799Y-19528741D01*
X5653799Y-19528741D02*
X5663323Y-19547788D01*
X5663323Y-19547788D02*
X5663323Y-19604931D01*
X5663323Y-19604931D02*
X5653799Y-19623979D01*
X5653799Y-19623979D02*
X5644276Y-19633503D01*
X5644276Y-19633503D02*
X5625228Y-19643026D01*
X5625228Y-19643026D02*
X5596656Y-19643026D01*
X5720466Y-19509693D02*
X5796656Y-19509693D01*
X5749037Y-19443026D02*
X5749037Y-19614455D01*
X5749037Y-19614455D02*
X5758561Y-19633503D01*
X5758561Y-19633503D02*
X5777609Y-19643026D01*
X5777609Y-19643026D02*
X5796656Y-19643026D01*
X6015704Y-19509693D02*
X6015704Y-19709693D01*
X6015704Y-19519217D02*
X6034752Y-19509693D01*
X6034752Y-19509693D02*
X6072847Y-19509693D01*
X6072847Y-19509693D02*
X6091895Y-19519217D01*
X6091895Y-19519217D02*
X6101418Y-19528741D01*
X6101418Y-19528741D02*
X6110942Y-19547788D01*
X6110942Y-19547788D02*
X6110942Y-19604931D01*
X6110942Y-19604931D02*
X6101418Y-19623979D01*
X6101418Y-19623979D02*
X6091895Y-19633503D01*
X6091895Y-19633503D02*
X6072847Y-19643026D01*
X6072847Y-19643026D02*
X6034752Y-19643026D01*
X6034752Y-19643026D02*
X6015704Y-19633503D01*
X6225228Y-19643026D02*
X6206180Y-19633503D01*
X6206180Y-19633503D02*
X6196657Y-19614455D01*
X6196657Y-19614455D02*
X6196657Y-19443026D01*
X6387133Y-19643026D02*
X6387133Y-19538265D01*
X6387133Y-19538265D02*
X6377609Y-19519217D01*
X6377609Y-19519217D02*
X6358561Y-19509693D01*
X6358561Y-19509693D02*
X6320466Y-19509693D01*
X6320466Y-19509693D02*
X6301418Y-19519217D01*
X6387133Y-19633503D02*
X6368085Y-19643026D01*
X6368085Y-19643026D02*
X6320466Y-19643026D01*
X6320466Y-19643026D02*
X6301418Y-19633503D01*
X6301418Y-19633503D02*
X6291895Y-19614455D01*
X6291895Y-19614455D02*
X6291895Y-19595407D01*
X6291895Y-19595407D02*
X6301418Y-19576360D01*
X6301418Y-19576360D02*
X6320466Y-19566836D01*
X6320466Y-19566836D02*
X6368085Y-19566836D01*
X6368085Y-19566836D02*
X6387133Y-19557312D01*
X6453799Y-19509693D02*
X6529990Y-19509693D01*
X6482371Y-19443026D02*
X6482371Y-19614455D01*
X6482371Y-19614455D02*
X6491895Y-19633503D01*
X6491895Y-19633503D02*
X6510942Y-19643026D01*
X6510942Y-19643026D02*
X6529990Y-19643026D01*
X6672847Y-19633503D02*
X6653799Y-19643026D01*
X6653799Y-19643026D02*
X6615704Y-19643026D01*
X6615704Y-19643026D02*
X6596657Y-19633503D01*
X6596657Y-19633503D02*
X6587133Y-19614455D01*
X6587133Y-19614455D02*
X6587133Y-19538265D01*
X6587133Y-19538265D02*
X6596657Y-19519217D01*
X6596657Y-19519217D02*
X6615704Y-19509693D01*
X6615704Y-19509693D02*
X6653799Y-19509693D01*
X6653799Y-19509693D02*
X6672847Y-19519217D01*
X6672847Y-19519217D02*
X6682371Y-19538265D01*
X6682371Y-19538265D02*
X6682371Y-19557312D01*
X6682371Y-19557312D02*
X6587133Y-19576360D01*
X6853799Y-19643026D02*
X6853799Y-19443026D01*
X6853799Y-19633503D02*
X6834752Y-19643026D01*
X6834752Y-19643026D02*
X6796657Y-19643026D01*
X6796657Y-19643026D02*
X6777609Y-19633503D01*
X6777609Y-19633503D02*
X6768085Y-19623979D01*
X6768085Y-19623979D02*
X6758561Y-19604931D01*
X6758561Y-19604931D02*
X6758561Y-19547788D01*
X6758561Y-19547788D02*
X6768085Y-19528741D01*
X6768085Y-19528741D02*
X6777609Y-19519217D01*
X6777609Y-19519217D02*
X6796657Y-19509693D01*
X6796657Y-19509693D02*
X6834752Y-19509693D01*
X6834752Y-19509693D02*
X6853799Y-19519217D01*
X6929990Y-19719217D02*
X6939514Y-19709693D01*
X6939514Y-19709693D02*
X6958561Y-19681122D01*
X6958561Y-19681122D02*
X6968085Y-19662074D01*
X6968085Y-19662074D02*
X6977609Y-19633503D01*
X6977609Y-19633503D02*
X6987133Y-19585884D01*
X6987133Y-19585884D02*
X6987133Y-19547788D01*
X6987133Y-19547788D02*
X6977609Y-19500169D01*
X6977609Y-19500169D02*
X6968085Y-19471598D01*
X6968085Y-19471598D02*
X6958561Y-19452550D01*
X6958561Y-19452550D02*
X6939514Y-19423979D01*
X6939514Y-19423979D02*
X6929990Y-19414455D01*
M02*
