G04 #@! TF.GenerationSoftware,KiCad,Pcbnew,9.0.1*
G04 #@! TF.CreationDate,2025-05-03T10:40:41+02:00*
G04 #@! TF.ProjectId,Atreus62,41747265-7573-4363-922e-6b696361645f,rev?*
G04 #@! TF.SameCoordinates,Original*
G04 #@! TF.FileFunction,Paste,Bot*
G04 #@! TF.FilePolarity,Positive*
%FSLAX46Y46*%
G04 Gerber Fmt 4.6, Leading zero omitted, Abs format (unit mm)*
G04 Created by KiCad (PCBNEW 9.0.1) date 2025-05-03 10:40:41*
%MOMM*%
%LPD*%
G01*
G04 APERTURE LIST*
G04 Aperture macros list*
%AMRoundRect*
0 Rectangle with rounded corners*
0 $1 Rounding radius*
0 $2 $3 $4 $5 $6 $7 $8 $9 X,Y pos of 4 corners*
0 Add a 4 corners polygon primitive as box body*
4,1,4,$2,$3,$4,$5,$6,$7,$8,$9,$2,$3,0*
0 Add four circle primitives for the rounded corners*
1,1,$1+$1,$2,$3*
1,1,$1+$1,$4,$5*
1,1,$1+$1,$6,$7*
1,1,$1+$1,$8,$9*
0 Add four rect primitives between the rounded corners*
20,1,$1+$1,$2,$3,$4,$5,0*
20,1,$1+$1,$4,$5,$6,$7,0*
20,1,$1+$1,$6,$7,$8,$9,0*
20,1,$1+$1,$8,$9,$2,$3,0*%
%AMRotRect*
0 Rectangle, with rotation*
0 The origin of the aperture is its center*
0 $1 length*
0 $2 width*
0 $3 Rotation angle, in degrees counterclockwise*
0 Add horizontal line*
21,1,$1,$2,0,0,$3*%
G04 Aperture macros list end*
%ADD10R,2.300000X2.000000*%
%ADD11RotRect,2.300000X2.000000X190.000000*%
%ADD12RotRect,2.300000X2.000000X170.000000*%
%ADD13RotRect,2.300000X2.000000X185.000000*%
%ADD14RotRect,2.300000X2.000000X160.000000*%
%ADD15RotRect,2.300000X2.000000X175.000000*%
%ADD16RotRect,2.300000X2.000000X200.000000*%
%ADD17RotRect,2.300000X2.000000X140.000000*%
%ADD18RotRect,2.300000X2.000000X220.000000*%
%ADD19RoundRect,0.225000X-0.225000X-0.375000X0.225000X-0.375000X0.225000X0.375000X-0.225000X0.375000X0*%
%ADD20RoundRect,0.225000X0.375000X-0.225000X0.375000X0.225000X-0.375000X0.225000X-0.375000X-0.225000X0*%
%ADD21RoundRect,0.225000X0.225000X0.375000X-0.225000X0.375000X-0.225000X-0.375000X0.225000X-0.375000X0*%
%ADD22R,1.200000X0.900000*%
G04 APERTURE END LIST*
D10*
X343305836Y-103002700D03*
X356005836Y-100462700D03*
D11*
X271610669Y-195456733D03*
X283676662Y-190749990D03*
D12*
X157412694Y-114290859D03*
X170360819Y-113994779D03*
D10*
X343401936Y-143260400D03*
X356101936Y-140720400D03*
X343401936Y-163260400D03*
X356101936Y-160720400D03*
X87626036Y-123268200D03*
X100326036Y-120728200D03*
X323285636Y-183268200D03*
X335985636Y-180728200D03*
X294753236Y-193667200D03*
X307453236Y-191127200D03*
X87626036Y-163268100D03*
X100326036Y-160728100D03*
D12*
X135913094Y-126286559D03*
X148861219Y-125990479D03*
D10*
X87626036Y-183268200D03*
X100326036Y-180728200D03*
D13*
X297430011Y-113337107D03*
X309860308Y-109699896D03*
D10*
X343402036Y-183260400D03*
X356102036Y-180720400D03*
D11*
X242372869Y-161315133D03*
X254438862Y-156608390D03*
D14*
X159501200Y-197138852D03*
X172304027Y-199095689D03*
D12*
X150387394Y-153615159D03*
X163335519Y-153319079D03*
D11*
X278684169Y-148413733D03*
X290750162Y-143706990D03*
D15*
X107919235Y-172243527D03*
X120792283Y-170820071D03*
D13*
X299244211Y-133365207D03*
X311674508Y-129727996D03*
D10*
X343401936Y-123260400D03*
X356101936Y-120720400D03*
D13*
X303045711Y-173463707D03*
X315476008Y-169826496D03*
D12*
X146914494Y-173311359D03*
X159862619Y-173015279D03*
D16*
X252254776Y-201927134D03*
X263320141Y-195196659D03*
D11*
X238882469Y-141520533D03*
X250948462Y-136813790D03*
D10*
X323189536Y-103010400D03*
X335889536Y-100470400D03*
D13*
X300987311Y-153289107D03*
X313417608Y-149651896D03*
D12*
X168751494Y-158884059D03*
X181699619Y-158587979D03*
D10*
X87626036Y-143268200D03*
X100326036Y-140728200D03*
D12*
X153860394Y-133918959D03*
X166808519Y-133622879D03*
X128967194Y-165678859D03*
X141915319Y-165382779D03*
D15*
X109977635Y-152068927D03*
X122850683Y-150645471D03*
D10*
X67509636Y-123260400D03*
X80209636Y-120720400D03*
D11*
X260736869Y-156046233D03*
X272802862Y-151339490D03*
D10*
X323285636Y-123268200D03*
X335985636Y-120728200D03*
X67605736Y-103002700D03*
X80305736Y-100462700D03*
D12*
X165278494Y-178580259D03*
X178226619Y-178284179D03*
D11*
X257263969Y-136350033D03*
X269329962Y-131643290D03*
X282157169Y-168109933D03*
X294223162Y-163403190D03*
X264209869Y-175742433D03*
X276275862Y-171035690D03*
D12*
X132440194Y-145982659D03*
X145388319Y-145686579D03*
D15*
X113534835Y-112116927D03*
X126407883Y-110693471D03*
D10*
X323285636Y-143268200D03*
X335985636Y-140728200D03*
D17*
X195079417Y-219021292D03*
X206440862Y-225238942D03*
D10*
X116158336Y-193667200D03*
X128858336Y-191127200D03*
D11*
X245845769Y-181011333D03*
X257911762Y-176304590D03*
X223636569Y-174346933D03*
X235702562Y-169640190D03*
X253711569Y-116721933D03*
X265777562Y-112015190D03*
D12*
X139513694Y-193025659D03*
X152461819Y-192729579D03*
D10*
X67509636Y-183260400D03*
X80209636Y-180720400D03*
X323285536Y-163268100D03*
X335985536Y-160728100D03*
X87722136Y-103010400D03*
X100422136Y-100470400D03*
D12*
X172241794Y-139089459D03*
X185189919Y-138793379D03*
X139487694Y-106515859D03*
X152435819Y-106219779D03*
D18*
X234372933Y-215066619D03*
X242469017Y-204957463D03*
D11*
X275211169Y-128717633D03*
X287277162Y-124010890D03*
X271636569Y-108946933D03*
X283702562Y-104240190D03*
D18*
X219107533Y-228020319D03*
X227203617Y-217911163D03*
D12*
X175887694Y-119365859D03*
X188835819Y-119069779D03*
D11*
X235236569Y-121796933D03*
X247302562Y-117090190D03*
D17*
X179814017Y-206067592D03*
X191175462Y-212285242D03*
D12*
X187487694Y-171915859D03*
X200435819Y-171619779D03*
D10*
X67509736Y-163260400D03*
X80209736Y-160720400D03*
D15*
X111720735Y-132145027D03*
X124593783Y-130721571D03*
D10*
X67509636Y-143260400D03*
X80209636Y-140720400D03*
D19*
X83034136Y-100495801D03*
X86334136Y-100495799D03*
X83034136Y-120745801D03*
X86334136Y-120745799D03*
X83034136Y-140735801D03*
X86334136Y-140735799D03*
X83034136Y-160735801D03*
X86334136Y-160735799D03*
X83034136Y-180745801D03*
X86334136Y-180745799D03*
X102874136Y-104935801D03*
X106174136Y-104935799D03*
X104364136Y-120745801D03*
X107664136Y-120745799D03*
X104334136Y-140785801D03*
X107634136Y-140785799D03*
X104316636Y-160725801D03*
X107616636Y-160725799D03*
X104336636Y-180695801D03*
X107636636Y-180695799D03*
X130036636Y-110675801D03*
X133336636Y-110675799D03*
X128256636Y-130825801D03*
X131556636Y-130825799D03*
X126884136Y-150595801D03*
X130184136Y-150595799D03*
X124116636Y-170855801D03*
X127416636Y-170855799D03*
X132576636Y-191095801D03*
X135876636Y-191095799D03*
X153666636Y-110665801D03*
X156966636Y-110665799D03*
X152146636Y-125975801D03*
X155446636Y-125975799D03*
X148484136Y-145715801D03*
X151784136Y-145715799D03*
X145226636Y-165425801D03*
X148526636Y-165425799D03*
X155674136Y-192805801D03*
X158974136Y-192805799D03*
X173066636Y-114315801D03*
X176366636Y-114315799D03*
X170616636Y-133635801D03*
X173916636Y-133635799D03*
X166756636Y-153345801D03*
X170056636Y-153345799D03*
X163216636Y-173025801D03*
X166516636Y-173025799D03*
X175646636Y-199105801D03*
X178946636Y-199105799D03*
X192344136Y-119075801D03*
X195644136Y-119075799D03*
X188074136Y-138805801D03*
X191374136Y-138805799D03*
X186744136Y-158585801D03*
X190044136Y-158585799D03*
X183146636Y-178305801D03*
X186446636Y-178305799D03*
X194704136Y-212275801D03*
X198004136Y-212275799D03*
D20*
X227144137Y-213445800D03*
X227144135Y-210145800D03*
D19*
X249324136Y-129875799D03*
X252624136Y-129875801D03*
X252714136Y-149915799D03*
X256014136Y-149915801D03*
X257114136Y-171065799D03*
X260414136Y-171065801D03*
X260016636Y-188825799D03*
X263316636Y-188825801D03*
X242536636Y-200645799D03*
X245836636Y-200645801D03*
X267436636Y-124945799D03*
X270736636Y-124945801D03*
X271234136Y-142165799D03*
X274534136Y-142165801D03*
X275346636Y-165605799D03*
X278646636Y-165605801D03*
X278966636Y-185455799D03*
X282266636Y-185455801D03*
X266454136Y-191785799D03*
X269754136Y-191785801D03*
X288476636Y-118385799D03*
X291776636Y-118385801D03*
X291894136Y-138075799D03*
X295194136Y-138075801D03*
X295304136Y-157625799D03*
X298604136Y-157625801D03*
X296314136Y-177615799D03*
X299614136Y-177615801D03*
X287464136Y-188355799D03*
X290764136Y-188355801D03*
X314676636Y-109575799D03*
X317976636Y-109575801D03*
X316626636Y-129675799D03*
X319926636Y-129675801D03*
X318346636Y-149505799D03*
X321646636Y-149505801D03*
X320014136Y-169795799D03*
X323314136Y-169795801D03*
X307716636Y-185625799D03*
X311016636Y-185625801D03*
X337574136Y-111665799D03*
X340874136Y-111665801D03*
X338706636Y-120745799D03*
X342006636Y-120745801D03*
X338826636Y-140765799D03*
X342126636Y-140765801D03*
X338766636Y-160755799D03*
X342066636Y-160755801D03*
X338694136Y-180685799D03*
X341994136Y-180685801D03*
D21*
X356574136Y-113785801D03*
X353274136Y-113785799D03*
X358594136Y-133865801D03*
X355294136Y-133865799D03*
X358524136Y-153765801D03*
X355224136Y-153765799D03*
X358564136Y-173845801D03*
X355264136Y-173845799D03*
X358624136Y-176415801D03*
X355324136Y-176415799D03*
D22*
X235724136Y-166565800D03*
X235724136Y-163265800D03*
D19*
X203714136Y-171605800D03*
X207014136Y-171605800D03*
D20*
X206724136Y-216955800D03*
X206724136Y-213655800D03*
M02*
