M48
; DRILL file {KiCad 8.0.3} date 2024-07-30T15:13:17+0200
; FORMAT={-:-/ absolute / inch / decimal}
; #@! TF.CreationDate,2024-07-30T15:13:17+02:00
; #@! TF.GenerationSoftware,Kicad,Pcbnew,8.0.3
; #@! TF.FileFunction,Plated,1,2,PTH
FMAT,2
INCH
; #@! TA.AperFunction,Plated,PTH,ViaDrill
T1C0.0157
; #@! TA.AperFunction,Plated,PTH,ComponentDrill
T2C0.0236
; #@! TA.AperFunction,Plated,PTH,ComponentDrill
T3C0.0360
; #@! TA.AperFunction,Plated,PTH,ComponentDrill
T4C0.0394
; #@! TA.AperFunction,Plated,PTH,ComponentDrill
T5C0.1260
%
G90
G05
T1
X0.0722Y-1.5903
X0.0722Y-1.6691
X0.151Y-1.5903
X0.151Y-1.6691
X0.151Y-1.984
X0.151Y-2.0628
X0.151Y-2.1415
X0.151Y-2.2203
X0.151Y-2.299
X0.151Y-2.3777
X0.151Y-2.4565
X0.151Y-3.0864
X0.151Y-3.1651
X0.151Y-3.2439
X0.151Y-3.7163
X0.151Y-3.7951
X0.151Y-3.8738
X0.151Y-3.9525
X0.151Y-4.0313
X0.151Y-4.5037
X0.151Y-4.5825
X0.151Y-4.6612
X0.151Y-4.7399
X0.151Y-4.8187
X0.151Y-5.2124
X0.151Y-5.2911
X0.2297Y-1.5903
X0.2297Y-1.984
X0.2297Y-2.0628
X0.2297Y-2.1415
X0.2297Y-2.2203
X0.2297Y-2.299
X0.2297Y-2.3777
X0.2297Y-2.4565
X0.2297Y-2.7714
X0.2297Y-2.8502
X0.2297Y-2.9289
X0.2297Y-3.1651
X0.2297Y-3.2439
X0.2297Y-3.5588
X0.2297Y-3.7163
X0.2297Y-3.7951
X0.2297Y-3.8738
X0.2297Y-3.9525
X0.2297Y-4.0313
X0.2297Y-4.3462
X0.2297Y-4.5037
X0.2297Y-4.5825
X0.2297Y-4.6612
X0.2297Y-4.7399
X0.2297Y-4.8187
X0.2297Y-5.2911
X0.2297Y-5.3699
X0.3084Y-1.984
X0.3084Y-2.0628
X0.3084Y-2.1415
X0.3084Y-2.2203
X0.3084Y-2.299
X0.3084Y-2.3777
X0.3084Y-2.4565
X0.3084Y-2.7714
X0.3084Y-2.8502
X0.3084Y-2.9289
X0.3084Y-3.0077
X0.3084Y-3.1651
X0.3084Y-3.2439
X0.3084Y-3.5588
X0.3084Y-3.6376
X0.3084Y-3.7163
X0.3084Y-3.7951
X0.3084Y-3.8738
X0.3084Y-3.9525
X0.3084Y-4.0313
X0.3084Y-4.3462
X0.3084Y-4.5037
X0.3084Y-4.5825
X0.3084Y-4.6612
X0.3084Y-4.7399
X0.3084Y-4.8187
X0.3084Y-5.1336
X0.3084Y-5.2911
X0.3084Y-5.3699
X0.3872Y-1.6691
X0.3872Y-1.7478
X0.3872Y-2.0628
X0.3872Y-2.1415
X0.3872Y-2.2203
X0.3872Y-2.299
X0.3872Y-2.3777
X0.3872Y-2.4565
X0.3872Y-2.5352
X0.3872Y-2.8502
X0.3872Y-2.9289
X0.3872Y-3.0077
X0.3872Y-3.1651
X0.3872Y-3.2439
X0.3872Y-3.3226
X0.3872Y-3.6376
X0.3872Y-3.7163
X0.3872Y-3.7951
X0.3872Y-3.8738
X0.3872Y-3.9525
X0.3872Y-4.0313
X0.3872Y-4.11
X0.3872Y-4.5037
X0.3872Y-4.5825
X0.3872Y-4.6612
X0.3872Y-4.7399
X0.3872Y-4.8187
X0.3872Y-4.8974
X0.3872Y-5.2911
X0.3872Y-5.3699
X0.4659Y-2.0628
X0.4659Y-2.1415
X0.4659Y-2.2203
X0.4659Y-2.299
X0.4659Y-2.3777
X0.4659Y-2.8502
X0.4659Y-2.9289
X0.4659Y-3.0077
X0.4659Y-3.1651
X0.4659Y-3.6376
X0.4659Y-3.7163
X0.4659Y-3.7951
X0.4659Y-3.8738
X0.4659Y-3.9525
X0.4659Y-4.5037
X0.4659Y-4.5825
X0.4659Y-4.6612
X0.4659Y-4.7399
X0.4659Y-5.2911
X0.4659Y-5.3699
X0.5447Y-1.8266
X0.5447Y-1.9053
X0.5447Y-1.984
X0.5447Y-2.0628
X0.5447Y-2.1415
X0.5447Y-2.2203
X0.5447Y-2.299
X0.5447Y-2.3777
X0.5447Y-2.614
X0.5447Y-2.7714
X0.5447Y-2.8502
X0.5447Y-2.9289
X0.5447Y-3.0077
X0.5447Y-3.1651
X0.5447Y-3.4014
X0.5447Y-3.5588
X0.5447Y-3.6376
X0.5447Y-3.7163
X0.5447Y-3.7951
X0.5447Y-3.8738
X0.5447Y-3.9525
X0.5447Y-4.1888
X0.5447Y-4.3462
X0.5447Y-4.5037
X0.5447Y-4.5825
X0.5447Y-4.6612
X0.5447Y-4.7399
X0.5447Y-4.9762
X0.5447Y-5.1336
X0.5447Y-5.2911
X0.5447Y-5.3699
X0.6234Y-1.8266
X0.6234Y-1.984
X0.6234Y-2.0628
X0.6234Y-2.1415
X0.6234Y-2.2203
X0.6234Y-2.299
X0.6234Y-2.3777
X0.6234Y-2.614
X0.6234Y-2.7714
X0.6234Y-2.8502
X0.6234Y-2.9289
X0.6234Y-3.0077
X0.6234Y-3.1651
X0.6234Y-3.4014
X0.6234Y-3.5588
X0.6234Y-3.6376
X0.6234Y-3.7163
X0.6234Y-3.7951
X0.6234Y-3.8738
X0.6234Y-3.9525
X0.6234Y-4.1888
X0.6234Y-4.3462
X0.6234Y-4.5037
X0.6234Y-4.5825
X0.6234Y-4.6612
X0.6234Y-4.7399
X0.6234Y-4.9762
X0.6234Y-5.1336
X0.6234Y-5.2911
X0.6234Y-5.3699
X0.7021Y-1.8266
X0.7021Y-1.9053
X0.7021Y-1.984
X0.7021Y-2.0628
X0.7021Y-2.1415
X0.7021Y-2.2203
X0.7021Y-2.299
X0.7021Y-2.3777
X0.7021Y-2.614
X0.7021Y-2.6927
X0.7021Y-2.7714
X0.7021Y-2.8502
X0.7021Y-2.9289
X0.7021Y-3.0077
X0.7021Y-3.1651
X0.7021Y-3.4014
X0.7021Y-3.4801
X0.7021Y-3.5588
X0.7021Y-3.6376
X0.7021Y-3.7163
X0.7021Y-3.7951
X0.7021Y-3.8738
X0.7021Y-3.9525
X0.7021Y-4.1888
X0.7021Y-4.2675
X0.7021Y-4.3462
X0.7021Y-4.5037
X0.7021Y-4.5825
X0.7021Y-4.6612
X0.7021Y-4.7399
X0.7021Y-4.9762
X0.7021Y-5.0549
X0.7021Y-5.1336
X0.7021Y-5.2911
X0.7021Y-5.3699
X0.7809Y-1.8266
X0.7809Y-1.9053
X0.7809Y-1.984
X0.7809Y-2.0628
X0.7809Y-2.1415
X0.7809Y-2.2203
X0.7809Y-2.299
X0.7809Y-2.3777
X0.7809Y-2.614
X0.7809Y-2.6927
X0.7809Y-2.7714
X0.7809Y-2.8502
X0.7809Y-2.9289
X0.7809Y-3.0077
X0.7809Y-3.1651
X0.7809Y-3.4014
X0.7809Y-3.4801
X0.7809Y-3.5588
X0.7809Y-3.6376
X0.7809Y-3.7163
X0.7809Y-3.7951
X0.7809Y-3.8738
X0.7809Y-3.9525
X0.7809Y-4.1888
X0.7809Y-4.2675
X0.7809Y-4.3462
X0.7809Y-4.5037
X0.7809Y-4.5825
X0.7809Y-4.6612
X0.7809Y-4.7399
X0.7809Y-4.9762
X0.7809Y-5.0549
X0.7809Y-5.2911
X0.7809Y-5.3699
X0.8492Y-3.0833
X0.8492Y-3.6739
X0.8492Y-4.4416
X0.8596Y-5.2124
X0.8596Y-5.2911
X0.8596Y-5.3699
X0.8984Y-4.4416
X0.899Y-3.0833
X0.899Y-3.6739
X0.9384Y-1.5903
X0.9384Y-1.984
X0.9384Y-2.1415
X0.9384Y-2.2203
X0.9384Y-2.299
X0.9384Y-2.3777
X0.9384Y-2.4565
X0.9384Y-3.1651
X0.9384Y-3.2439
X0.9384Y-3.7951
X0.9384Y-3.8738
X0.9384Y-3.9525
X0.9384Y-4.0313
X0.9384Y-4.5037
X0.9384Y-4.5825
X0.9384Y-4.6612
X0.9384Y-4.7399
X0.9384Y-4.8187
X0.9384Y-5.2124
X0.9384Y-5.2911
X0.9384Y-5.3699
X1.0171Y-1.984
X1.0171Y-2.1415
X1.0171Y-2.2203
X1.0171Y-2.299
X1.0171Y-2.3777
X1.0171Y-2.4565
X1.0171Y-2.7714
X1.0171Y-2.8502
X1.0171Y-2.9289
X1.0171Y-3.0077
X1.0171Y-3.1651
X1.0171Y-3.2439
X1.0171Y-3.5588
X1.0171Y-3.6376
X1.0171Y-3.7163
X1.0171Y-3.7951
X1.0171Y-3.8738
X1.0171Y-3.9525
X1.0171Y-4.0313
X1.0171Y-4.3462
X1.0171Y-4.5037
X1.0171Y-4.5825
X1.0171Y-4.6612
X1.0171Y-4.7399
X1.0171Y-4.8187
X1.0171Y-5.2911
X1.0171Y-5.3699
X1.0958Y-1.6691
X1.0958Y-1.984
X1.0958Y-2.1415
X1.0958Y-2.2203
X1.0958Y-2.299
X1.0958Y-2.3777
X1.0958Y-2.4565
X1.0958Y-2.7714
X1.0958Y-2.8502
X1.0958Y-2.9289
X1.0958Y-3.0077
X1.0958Y-3.1651
X1.0958Y-3.2439
X1.0958Y-3.5588
X1.0958Y-3.6376
X1.0958Y-3.7163
X1.0958Y-3.7951
X1.0958Y-3.8738
X1.0958Y-3.9525
X1.0958Y-4.0313
X1.0958Y-4.3462
X1.0958Y-4.5037
X1.0958Y-4.5825
X1.0958Y-4.6612
X1.0958Y-4.7399
X1.0958Y-4.8187
X1.0958Y-5.1336
X1.0958Y-5.3699
X1.1746Y-1.6691
X1.1746Y-1.7478
X1.1746Y-2.1415
X1.1746Y-2.2203
X1.1746Y-2.299
X1.1746Y-2.3777
X1.1746Y-2.4565
X1.1746Y-2.5352
X1.1746Y-2.8502
X1.1746Y-2.9289
X1.1746Y-3.0077
X1.1746Y-3.1651
X1.1746Y-3.2439
X1.1746Y-3.3226
X1.1746Y-3.6376
X1.1746Y-3.7163
X1.1746Y-3.7951
X1.1746Y-3.8738
X1.1746Y-3.9525
X1.1746Y-4.0313
X1.1746Y-4.11
X1.1746Y-4.5037
X1.1746Y-4.5825
X1.1746Y-4.6612
X1.1746Y-4.7399
X1.1746Y-4.8187
X1.1746Y-4.8974
X1.1746Y-5.2124
X1.2533Y-2.1415
X1.2533Y-2.2203
X1.2533Y-2.299
X1.2533Y-2.3777
X1.2533Y-2.8502
X1.2533Y-2.9289
X1.2533Y-3.0077
X1.2533Y-3.1651
X1.2533Y-3.6376
X1.2533Y-3.7163
X1.2533Y-3.7951
X1.2533Y-3.8738
X1.2533Y-3.9525
X1.2533Y-4.5037
X1.2533Y-4.5825
X1.2533Y-4.6612
X1.2533Y-4.7399
X1.2533Y-5.2124
X1.2533Y-5.2911
X1.3321Y-1.8266
X1.3321Y-1.9053
X1.3321Y-1.984
X1.3321Y-2.1415
X1.3321Y-2.2203
X1.3321Y-2.299
X1.3321Y-2.3777
X1.3321Y-2.614
X1.3321Y-2.6927
X1.3321Y-2.7714
X1.3321Y-2.8502
X1.3321Y-2.9289
X1.3321Y-3.0077
X1.3321Y-3.1651
X1.3321Y-3.4014
X1.3321Y-3.4801
X1.3321Y-3.5588
X1.3321Y-3.6376
X1.3321Y-3.7163
X1.3321Y-3.7951
X1.3321Y-3.8738
X1.3321Y-3.9525
X1.3321Y-4.1888
X1.3321Y-4.2675
X1.3321Y-4.3462
X1.3321Y-4.5037
X1.3321Y-4.5825
X1.3321Y-4.6612
X1.3321Y-4.7399
X1.3321Y-4.9762
X1.3321Y-5.0549
X1.3321Y-5.1336
X1.3321Y-5.2124
X1.3321Y-5.2911
X1.4108Y-1.8266
X1.4108Y-1.984
X1.4108Y-2.1415
X1.4108Y-2.2203
X1.4108Y-2.299
X1.4108Y-2.3777
X1.4108Y-2.614
X1.4108Y-2.7714
X1.4108Y-2.8502
X1.4108Y-2.9289
X1.4108Y-3.0077
X1.4108Y-3.1651
X1.4108Y-3.4014
X1.4108Y-3.5588
X1.4108Y-3.6376
X1.4108Y-3.7163
X1.4108Y-3.7951
X1.4108Y-3.8738
X1.4108Y-3.9525
X1.4108Y-4.1888
X1.4108Y-4.3462
X1.4108Y-4.5037
X1.4108Y-4.5825
X1.4108Y-4.6612
X1.4108Y-4.7399
X1.4108Y-4.9762
X1.4108Y-5.1336
X1.4108Y-5.2124
X1.4108Y-5.2911
X1.4895Y-1.984
X1.4895Y-2.1415
X1.4895Y-2.2203
X1.4895Y-2.299
X1.4895Y-2.3777
X1.4895Y-2.614
X1.4895Y-2.6927
X1.4895Y-2.7714
X1.4895Y-2.8502
X1.4895Y-2.9289
X1.4895Y-3.0077
X1.4895Y-3.1651
X1.4895Y-3.4014
X1.4895Y-3.4801
X1.4895Y-3.5588
X1.4895Y-3.6376
X1.4895Y-3.7163
X1.4895Y-3.7951
X1.4895Y-3.8738
X1.4895Y-3.9525
X1.4895Y-4.1888
X1.4895Y-4.2675
X1.4895Y-4.3462
X1.4895Y-4.5037
X1.4895Y-4.5825
X1.4895Y-4.6612
X1.4895Y-4.7399
X1.4895Y-4.9762
X1.4895Y-5.0549
X1.4895Y-5.1336
X1.4895Y-5.2124
X1.4895Y-5.2911
X1.5683Y-1.5903
X1.5683Y-1.984
X1.5683Y-2.1415
X1.5683Y-2.2203
X1.5683Y-2.299
X1.5683Y-2.3777
X1.5683Y-2.614
X1.5683Y-2.6927
X1.5683Y-2.7714
X1.5683Y-2.8502
X1.5683Y-2.9289
X1.5683Y-3.0077
X1.5683Y-3.1651
X1.5683Y-3.4014
X1.5683Y-3.4801
X1.5683Y-3.5588
X1.5683Y-3.7163
X1.5683Y-3.7951
X1.5683Y-3.8738
X1.5683Y-3.9525
X1.5683Y-4.1888
X1.5683Y-4.2675
X1.5683Y-4.5037
X1.5683Y-4.5825
X1.5683Y-4.6612
X1.5683Y-4.7399
X1.5683Y-4.9762
X1.5683Y-5.0549
X1.5683Y-5.1336
X1.5683Y-5.2124
X1.5683Y-5.2911
X1.6177Y-4.3431
X1.647Y-1.5903
X1.647Y-2.1415
X1.647Y-2.2203
X1.647Y-2.299
X1.647Y-2.3777
X1.647Y-2.4565
X1.647Y-2.5352
X1.647Y-2.614
X1.647Y-2.6927
X1.647Y-2.7714
X1.647Y-2.8502
X1.647Y-2.9289
X1.647Y-3.0077
X1.647Y-3.1651
X1.647Y-3.2439
X1.647Y-3.3226
X1.647Y-3.4014
X1.647Y-3.4801
X1.647Y-3.7163
X1.647Y-3.7951
X1.647Y-3.8738
X1.647Y-3.9525
X1.647Y-4.0313
X1.647Y-4.11
X1.647Y-4.8187
X1.647Y-4.8974
X1.647Y-4.9762
X1.647Y-5.0549
X1.647Y-5.2911
X1.6669Y-4.3431
X1.6871Y-3.5656
X1.6878Y-3.0833
X1.7258Y-4.2675
X1.7258Y-4.9762
X1.734Y-1.9651
X1.7363Y-3.5656
X1.737Y-3.0833
X1.77Y-1.9662
X1.7851Y-1.9118
X1.8045Y-2.0628
X1.8045Y-2.1415
X1.8045Y-2.2203
X1.8045Y-2.299
X1.8045Y-2.3777
X1.8045Y-2.4565
X1.8045Y-2.5352
X1.8045Y-2.614
X1.8045Y-2.6927
X1.8045Y-2.7714
X1.8045Y-2.8502
X1.8045Y-3.1651
X1.8045Y-3.2439
X1.8045Y-3.3226
X1.8045Y-3.4014
X1.8045Y-3.4801
X1.8045Y-3.9525
X1.8045Y-4.0313
X1.8045Y-4.11
X1.8045Y-4.1888
X1.8045Y-4.2675
X1.8045Y-4.425
X1.8045Y-4.7399
X1.8045Y-4.8187
X1.8045Y-4.8974
X1.8045Y-4.9762
X1.8045Y-5.4486
X1.8074Y-1.934
X1.8832Y-1.5903
X1.8832Y-1.8266
X1.8832Y-2.299
X1.8832Y-2.3777
X1.8832Y-2.4565
X1.8832Y-2.5352
X1.8832Y-2.614
X1.8832Y-2.6927
X1.8832Y-2.7714
X1.8832Y-2.8502
X1.8832Y-3.2439
X1.8832Y-3.3226
X1.8832Y-3.4014
X1.8832Y-3.4801
X1.8832Y-3.6376
X1.8832Y-3.9525
X1.8832Y-4.0313
X1.8832Y-4.11
X1.8832Y-4.1888
X1.8832Y-4.2675
X1.8832Y-4.425
X1.8832Y-4.7399
X1.8832Y-4.8187
X1.8832Y-4.8974
X1.8832Y-4.9762
X1.8832Y-5.0549
X1.8832Y-5.2911
X1.8832Y-5.4486
X1.8832Y-5.5273
X1.962Y-1.6691
X1.962Y-1.7478
X1.962Y-1.8266
X1.962Y-1.984
X1.962Y-2.3777
X1.962Y-2.4565
X1.962Y-2.5352
X1.962Y-2.614
X1.962Y-2.6927
X1.962Y-2.7714
X1.962Y-2.8502
X1.962Y-3.2439
X1.962Y-3.3226
X1.962Y-3.4014
X1.962Y-3.4801
X1.962Y-3.6376
X1.962Y-3.9525
X1.962Y-4.0313
X1.962Y-4.11
X1.962Y-4.1888
X1.962Y-4.2675
X1.962Y-4.425
X1.962Y-4.5037
X1.962Y-4.8187
X1.962Y-4.8974
X1.962Y-4.9762
X1.962Y-5.0549
X1.962Y-5.1336
X1.962Y-5.2124
X1.962Y-5.2911
X1.962Y-5.4486
X1.962Y-5.5273
X1.962Y-5.6061
X2.0407Y-1.6691
X2.0407Y-1.7478
X2.0407Y-1.8266
X2.0407Y-1.984
X2.0407Y-2.3777
X2.0407Y-2.4565
X2.0407Y-2.5352
X2.0407Y-2.614
X2.0407Y-2.6927
X2.0407Y-2.7714
X2.0407Y-2.8502
X2.0407Y-3.2439
X2.0407Y-3.3226
X2.0407Y-3.4014
X2.0407Y-3.4801
X2.0407Y-3.6376
X2.0407Y-3.7163
X2.0407Y-4.0313
X2.0407Y-4.11
X2.0407Y-4.1888
X2.0407Y-4.2675
X2.0407Y-4.8187
X2.0407Y-4.8974
X2.0407Y-4.9762
X2.0407Y-5.0549
X2.0407Y-5.1336
X2.0407Y-5.2124
X2.0407Y-5.2911
X2.0407Y-5.6848
X2.1195Y-1.6691
X2.1195Y-1.7478
X2.1195Y-1.8266
X2.1195Y-2.0628
X2.1195Y-2.3777
X2.1195Y-2.4565
X2.1195Y-2.5352
X2.1195Y-2.614
X2.1195Y-2.6927
X2.1195Y-2.7714
X2.1195Y-2.8502
X2.1195Y-2.9289
X2.1195Y-3.2439
X2.1195Y-3.3226
X2.1195Y-3.4014
X2.1195Y-3.4801
X2.1195Y-4.0313
X2.1195Y-4.11
X2.1195Y-4.1888
X2.1195Y-4.2675
X2.1195Y-4.5825
X2.1195Y-4.6612
X2.1195Y-4.7399
X2.1195Y-4.8187
X2.1195Y-4.8974
X2.1195Y-4.9762
X2.1195Y-5.0549
X2.1195Y-5.1336
X2.1195Y-5.2124
X2.1195Y-5.6848
X2.1195Y-5.7636
X2.1982Y-1.6691
X2.1982Y-1.7478
X2.1982Y-1.8266
X2.1982Y-1.984
X2.1982Y-2.0628
X2.1982Y-2.1415
X2.1982Y-2.4565
X2.1982Y-2.5352
X2.1982Y-2.614
X2.1982Y-2.6927
X2.1982Y-2.7714
X2.1982Y-3.2439
X2.1982Y-3.3226
X2.1982Y-3.4014
X2.1982Y-3.4801
X2.1982Y-3.7951
X2.1982Y-3.8738
X2.1982Y-3.9525
X2.1982Y-4.0313
X2.1982Y-4.11
X2.1982Y-4.1888
X2.1982Y-4.2675
X2.1982Y-4.5825
X2.1982Y-4.7399
X2.1982Y-4.8187
X2.1982Y-4.8974
X2.1982Y-4.9762
X2.1982Y-5.0549
X2.1982Y-5.1336
X2.1982Y-5.2124
X2.1982Y-5.5273
X2.1982Y-5.6848
X2.1982Y-5.7636
X2.2769Y-1.6691
X2.2769Y-1.7478
X2.2769Y-1.8266
X2.2769Y-1.984
X2.2769Y-2.4565
X2.2769Y-2.5352
X2.2769Y-2.614
X2.2769Y-2.6927
X2.2769Y-2.7714
X2.2769Y-3.0077
X2.2769Y-3.2439
X2.2769Y-3.3226
X2.2769Y-3.4014
X2.2769Y-3.4801
X2.2769Y-3.7951
X2.2769Y-3.9525
X2.2769Y-4.0313
X2.2769Y-4.11
X2.2769Y-4.1888
X2.2769Y-4.2675
X2.2769Y-4.5825
X2.2769Y-4.6612
X2.2769Y-4.7399
X2.2769Y-4.8187
X2.2769Y-4.8974
X2.2769Y-4.9762
X2.2769Y-5.0549
X2.2769Y-5.1336
X2.2769Y-5.2124
X2.2769Y-5.2911
X2.2769Y-5.6848
X2.2769Y-5.7636
X2.3557Y-1.6691
X2.3557Y-1.7478
X2.3557Y-1.8266
X2.3557Y-1.984
X2.3557Y-2.2203
X2.3557Y-2.3777
X2.3557Y-2.4565
X2.3557Y-2.5352
X2.3557Y-2.614
X2.3557Y-2.6927
X2.3557Y-2.7714
X2.3557Y-3.0077
X2.3557Y-3.2439
X2.3557Y-3.3226
X2.3557Y-3.4014
X2.3557Y-3.7951
X2.3557Y-3.8738
X2.3557Y-3.9525
X2.3557Y-4.0313
X2.3557Y-4.11
X2.3557Y-4.1888
X2.3557Y-4.2675
X2.3557Y-4.5825
X2.3557Y-4.6612
X2.3557Y-4.7399
X2.3557Y-4.8187
X2.3557Y-4.8974
X2.3557Y-4.9762
X2.3557Y-5.0549
X2.3557Y-5.1336
X2.3557Y-5.6848
X2.3557Y-5.7636
X2.4344Y-1.6691
X2.4344Y-1.7478
X2.4344Y-1.8266
X2.4344Y-1.984
X2.4344Y-2.2203
X2.4344Y-2.3777
X2.4344Y-2.4565
X2.4344Y-2.5352
X2.4344Y-2.614
X2.4344Y-2.6927
X2.4344Y-2.7714
X2.4344Y-3.0077
X2.4344Y-3.0864
X2.4344Y-3.2439
X2.4344Y-3.3226
X2.4344Y-3.5588
X2.4344Y-3.7951
X2.4344Y-3.8738
X2.4344Y-3.9525
X2.4344Y-4.0313
X2.4344Y-4.11
X2.4344Y-4.1888
X2.4344Y-4.2675
X2.4344Y-4.5037
X2.4344Y-4.5825
X2.4344Y-4.6612
X2.4344Y-4.7399
X2.4344Y-4.8187
X2.4344Y-4.8974
X2.4344Y-4.9762
X2.4344Y-5.0549
X2.4344Y-5.1336
X2.4344Y-5.3699
X2.4344Y-5.4486
X2.4344Y-5.5273
X2.4344Y-5.6848
X2.4344Y-5.7636
X2.4634Y-4.3727
X2.5126Y-4.3727
X2.5132Y-1.6691
X2.5132Y-1.7478
X2.5132Y-1.8266
X2.5132Y-1.984
X2.5132Y-2.2203
X2.5132Y-2.299
X2.5132Y-2.3777
X2.5132Y-2.4565
X2.5132Y-2.5352
X2.5132Y-2.614
X2.5132Y-2.6927
X2.5132Y-2.7714
X2.5132Y-3.0077
X2.5132Y-3.0864
X2.5132Y-3.2439
X2.5132Y-3.4801
X2.5132Y-3.5588
X2.5132Y-4.5825
X2.5132Y-4.6612
X2.5132Y-4.7399
X2.5132Y-4.8187
X2.5132Y-4.8974
X2.5132Y-4.9762
X2.5132Y-5.0549
X2.5132Y-5.1336
X2.5132Y-5.3699
X2.5132Y-5.6848
X2.5132Y-5.7636
X2.5919Y-1.6691
X2.5919Y-1.7478
X2.5919Y-1.8266
X2.5919Y-1.984
X2.5919Y-2.2203
X2.5919Y-2.299
X2.5919Y-2.3777
X2.5919Y-2.4565
X2.5919Y-2.5352
X2.5919Y-2.614
X2.5919Y-2.6927
X2.5919Y-2.7714
X2.5919Y-2.8502
X2.5919Y-2.9289
X2.5919Y-3.0077
X2.5919Y-3.0864
X2.5919Y-3.2439
X2.5919Y-3.8738
X2.5919Y-3.9525
X2.5919Y-4.0313
X2.5919Y-4.11
X2.5919Y-4.1888
X2.5919Y-4.6612
X2.5919Y-4.7399
X2.5919Y-4.8187
X2.5919Y-4.8974
X2.5919Y-4.9762
X2.5919Y-5.0549
X2.5919Y-5.1336
X2.5919Y-5.3699
X2.5919Y-5.4486
X2.5919Y-5.5273
X2.5919Y-5.6848
X2.5919Y-5.7636
X2.6046Y-3.3421
X2.6296Y-3.1522
X2.6706Y-1.6691
X2.6706Y-1.7478
X2.6706Y-1.984
X2.6706Y-2.0628
X2.6706Y-2.1415
X2.6706Y-2.2203
X2.6706Y-2.299
X2.6706Y-2.3777
X2.6706Y-2.4565
X2.6706Y-2.5352
X2.6706Y-2.614
X2.6706Y-3.349
X2.6706Y-3.6376
X2.6706Y-3.7163
X2.6706Y-3.7951
X2.6706Y-3.8738
X2.6706Y-3.9525
X2.6706Y-4.0313
X2.6706Y-4.11
X2.6706Y-4.1888
X2.6706Y-4.7399
X2.6706Y-4.8187
X2.6706Y-4.8974
X2.6706Y-4.9762
X2.6706Y-5.0549
X2.6706Y-5.1336
X2.6706Y-5.3699
X2.6706Y-5.4486
X2.6706Y-5.5273
X2.6706Y-5.6848
X2.6706Y-5.7636
X2.6805Y-3.1522
X2.7297Y-1.9111
X2.7297Y-1.9603
X2.7494Y-1.6691
X2.7494Y-3.2439
X2.7494Y-3.4014
X2.7494Y-3.7163
X2.7494Y-3.7951
X2.7494Y-3.8738
X2.7494Y-3.9525
X2.7494Y-4.0313
X2.7494Y-4.11
X2.7494Y-4.1888
X2.7494Y-4.8187
X2.7494Y-4.8974
X2.7494Y-4.9762
X2.7494Y-5.0549
X2.7494Y-5.1336
X2.7494Y-5.2124
X2.7494Y-5.2911
X2.7494Y-5.3699
X2.7494Y-5.4486
X2.7494Y-5.6848
X2.7494Y-5.7636
X2.8281Y-1.984
X2.8281Y-2.0628
X2.8281Y-2.1415
X2.8281Y-2.2203
X2.8281Y-2.299
X2.8281Y-2.3777
X2.8281Y-2.4565
X2.8281Y-2.5352
X2.8281Y-2.614
X2.8281Y-2.9289
X2.8281Y-3.0077
X2.8281Y-3.0864
X2.8281Y-3.2439
X2.8281Y-3.4014
X2.8281Y-3.6376
X2.8281Y-3.7163
X2.8281Y-3.7951
X2.8281Y-3.8738
X2.8281Y-3.9525
X2.8281Y-4.0313
X2.8281Y-4.11
X2.8281Y-4.1888
X2.8281Y-4.2675
X2.8281Y-4.5825
X2.8281Y-5.3699
X2.8281Y-5.6061
X2.8281Y-5.6848
X2.8281Y-5.7636
X2.9069Y-2.0628
X2.9069Y-2.1415
X2.9069Y-2.2203
X2.9069Y-2.299
X2.9069Y-2.3777
X2.9069Y-2.4565
X2.9069Y-2.5352
X2.9069Y-2.614
X2.9069Y-2.9289
X2.9069Y-3.0077
X2.9069Y-3.0864
X2.9069Y-3.2439
X2.9069Y-3.4014
X2.9069Y-3.4801
X2.9069Y-3.7951
X2.9069Y-3.8738
X2.9069Y-3.9525
X2.9069Y-4.0313
X2.9069Y-4.11
X2.9069Y-4.5037
X2.9069Y-4.5825
X2.9069Y-4.7399
X2.9069Y-4.8187
X2.9069Y-4.8974
X2.9069Y-4.9762
X2.9069Y-5.0549
X2.9069Y-5.1336
X2.9069Y-5.2124
X2.9069Y-5.6061
X2.9069Y-5.6848
X2.9069Y-5.7636
X2.9856Y-2.1415
X2.9856Y-2.2203
X2.9856Y-2.299
X2.9856Y-2.3777
X2.9856Y-2.4565
X2.9856Y-2.5352
X2.9856Y-2.614
X2.9856Y-3.0077
X2.9856Y-3.0864
X2.9856Y-3.2439
X2.9856Y-3.4014
X2.9856Y-3.7951
X2.9856Y-3.8738
X2.9856Y-3.9525
X2.9856Y-4.0313
X2.9856Y-4.11
X2.9856Y-4.3462
X2.9856Y-4.5825
X2.9856Y-4.7399
X2.9856Y-4.8187
X2.9856Y-4.8974
X2.9856Y-4.9762
X2.9856Y-5.0549
X2.9856Y-5.1336
X2.9856Y-5.2124
X2.9856Y-5.6848
X2.9856Y-5.7636
X3.0643Y-2.1415
X3.0643Y-2.2203
X3.0643Y-2.299
X3.0643Y-2.3777
X3.0643Y-2.4565
X3.0643Y-2.5352
X3.0643Y-2.614
X3.0643Y-2.6927
X3.0643Y-3.0077
X3.0643Y-3.0864
X3.0643Y-3.2439
X3.0643Y-3.5588
X3.0643Y-3.6376
X3.0643Y-3.7163
X3.0643Y-3.7951
X3.0643Y-3.8738
X3.0643Y-3.9525
X3.0643Y-4.0313
X3.0643Y-4.11
X3.0643Y-4.3462
X3.0643Y-4.5037
X3.0643Y-4.5825
X3.0643Y-4.7399
X3.0643Y-4.8187
X3.0643Y-4.8974
X3.0643Y-4.9762
X3.0643Y-5.0549
X3.0643Y-5.1336
X3.0643Y-5.2124
X3.0643Y-5.5273
X3.0643Y-5.7636
X3.0917Y-4.6679
X3.1409Y-4.6679
X3.1431Y-2.2203
X3.1431Y-2.299
X3.1431Y-2.3777
X3.1431Y-2.4565
X3.1431Y-2.5352
X3.1431Y-3.0077
X3.1431Y-3.0864
X3.1431Y-3.2439
X3.1431Y-3.5588
X3.1431Y-3.7951
X3.1431Y-3.8738
X3.1431Y-3.9525
X3.1431Y-4.0313
X3.1431Y-4.11
X3.1431Y-4.1888
X3.1431Y-4.3462
X3.1431Y-4.425
X3.1431Y-4.8187
X3.1431Y-4.8974
X3.1431Y-4.9762
X3.1431Y-5.0549
X3.1431Y-5.1336
X3.1431Y-5.2124
X3.1431Y-5.6061
X3.1431Y-5.7636
X3.2218Y-1.9053
X3.2218Y-2.2203
X3.2218Y-2.299
X3.2218Y-2.3777
X3.2218Y-2.4565
X3.2218Y-2.5352
X3.2218Y-3.0077
X3.2218Y-3.0864
X3.2218Y-3.2439
X3.2218Y-3.4014
X3.2218Y-3.5588
X3.2218Y-3.6376
X3.2218Y-3.7163
X3.2218Y-3.7951
X3.2218Y-3.8738
X3.2218Y-3.9525
X3.2218Y-4.0313
X3.2218Y-4.11
X3.2218Y-4.1888
X3.2218Y-4.3462
X3.2218Y-4.8974
X3.2218Y-4.9762
X3.2218Y-5.0549
X3.2218Y-5.1336
X3.2218Y-5.2124
X3.2218Y-5.2911
X3.2218Y-5.3699
X3.2218Y-5.6061
X3.2218Y-5.7636
X3.3006Y-2.2203
X3.3006Y-2.299
X3.3006Y-2.3777
X3.3006Y-2.4565
X3.3006Y-2.5352
X3.3006Y-2.614
X3.3006Y-3.0077
X3.3006Y-3.0864
X3.3006Y-3.2439
X3.3006Y-3.4014
X3.3006Y-3.5588
X3.3006Y-3.6376
X3.3006Y-4.9762
X3.3006Y-5.0549
X3.3006Y-5.1336
X3.3006Y-5.2124
X3.3006Y-5.6061
X3.3006Y-5.7636
X3.3793Y-2.2203
X3.3793Y-2.299
X3.3793Y-2.3777
X3.3793Y-2.4565
X3.3793Y-2.5352
X3.3793Y-2.614
X3.3793Y-2.8502
X3.3793Y-2.9289
X3.3793Y-3.0077
X3.3793Y-3.0864
X3.3793Y-3.2439
X3.3793Y-3.4801
X3.3793Y-3.5588
X3.3793Y-3.8738
X3.3793Y-3.9525
X3.3793Y-4.0313
X3.3793Y-4.11
X3.3793Y-4.1888
X3.3793Y-4.2675
X3.3793Y-4.3462
X3.3793Y-4.425
X3.3793Y-4.7399
X3.3793Y-4.8187
X3.3793Y-5.0549
X3.3793Y-5.1336
X3.3793Y-5.2124
X3.3793Y-5.4486
X3.3793Y-5.6061
X3.3793Y-5.7636
X3.426Y-3.1522
X3.426Y-3.349
X3.458Y-2.2203
X3.458Y-2.299
X3.458Y-2.3777
X3.458Y-2.4565
X3.458Y-2.5352
X3.458Y-2.614
X3.458Y-2.7714
X3.458Y-4.0313
X3.458Y-4.11
X3.458Y-4.1888
X3.458Y-4.2675
X3.458Y-4.3462
X3.458Y-4.425
X3.458Y-4.5037
X3.458Y-4.8974
X3.458Y-5.1336
X3.458Y-5.2124
X3.458Y-5.4486
X3.458Y-5.6061
X3.458Y-5.7636
X3.4752Y-3.1522
X3.4777Y-3.349
X3.5368Y-2.2203
X3.5368Y-2.299
X3.5368Y-2.3777
X3.5368Y-2.4565
X3.5368Y-2.5352
X3.5368Y-2.614
X3.5368Y-2.6927
X3.5368Y-2.9289
X3.5368Y-3.4801
X3.5368Y-3.5588
X3.5368Y-3.9525
X3.5368Y-4.0313
X3.5368Y-4.11
X3.5368Y-4.1888
X3.5368Y-4.2675
X3.5368Y-4.3462
X3.5368Y-4.425
X3.5368Y-4.5037
X3.5368Y-4.5825
X3.5368Y-4.8974
X3.5368Y-5.2124
X3.5368Y-5.4486
X3.5368Y-5.5273
X3.5368Y-5.6061
X3.5368Y-5.7636
X3.6155Y-2.8502
X3.6155Y-2.9289
X3.6155Y-3.5588
X3.6155Y-3.7163
X3.6155Y-3.7951
X3.6155Y-4.11
X3.6155Y-4.1888
X3.6155Y-4.2675
X3.6155Y-4.3462
X3.6155Y-4.425
X3.6155Y-4.8187
X3.6155Y-4.8974
X3.6155Y-5.0549
X3.6155Y-5.4486
X3.6155Y-5.5273
X3.6155Y-5.9211
X3.6943Y-2.4565
X3.6943Y-2.614
X3.6943Y-2.6927
X3.6943Y-2.7714
X3.6943Y-2.8502
X3.6943Y-2.9289
X3.6943Y-3.4014
X3.6943Y-4.11
X3.6943Y-4.1888
X3.6943Y-4.2675
X3.6943Y-4.3462
X3.6943Y-4.425
X3.6943Y-4.6612
X3.6943Y-4.8187
X3.6943Y-4.8974
X3.6943Y-5.0549
X3.6943Y-5.1336
X3.6943Y-5.6848
X3.6943Y-5.9211
X3.773Y-2.4565
X3.773Y-2.614
X3.773Y-2.6927
X3.773Y-2.7714
X3.773Y-2.8502
X3.773Y-2.9289
X3.773Y-3.0077
X3.773Y-3.4014
X3.773Y-3.4801
X3.773Y-3.8738
X3.773Y-3.9525
X3.773Y-4.0313
X3.773Y-4.11
X3.773Y-4.1888
X3.773Y-4.2675
X3.773Y-4.3462
X3.773Y-4.425
X3.773Y-4.6612
X3.773Y-4.8187
X3.773Y-4.8974
X3.773Y-5.0549
X3.773Y-5.1336
X3.773Y-5.2124
X3.773Y-5.7636
X3.773Y-5.9211
X3.773Y-5.9998
X3.8517Y-2.614
X3.8517Y-2.6927
X3.8517Y-2.7714
X3.8517Y-2.8502
X3.8517Y-3.4014
X3.8517Y-3.4801
X3.8517Y-3.5588
X3.8517Y-3.8738
X3.8517Y-4.11
X3.8517Y-4.1888
X3.8517Y-4.2675
X3.8517Y-4.3462
X3.8517Y-4.425
X3.8517Y-4.6612
X3.8517Y-4.7399
X3.8517Y-4.8187
X3.8517Y-4.8974
X3.8517Y-5.1336
X3.8517Y-5.2124
X3.8517Y-5.2911
X3.8517Y-5.3699
X3.8517Y-5.4486
X3.8517Y-5.6848
X3.8517Y-5.7636
X3.8517Y-5.9211
X3.8517Y-5.9998
X3.895Y-5.0026
X3.9305Y-2.614
X3.9305Y-2.6927
X3.9305Y-2.7714
X3.9305Y-2.8502
X3.9305Y-3.0864
X3.9305Y-3.3226
X3.9305Y-3.4801
X3.9305Y-3.5588
X3.9305Y-3.8738
X3.9305Y-3.9525
X3.9305Y-4.0313
X3.9305Y-4.11
X3.9305Y-4.1888
X3.9305Y-4.2675
X3.9305Y-4.3462
X3.9305Y-4.425
X3.9305Y-5.1336
X3.9305Y-5.2124
X3.9305Y-5.2911
X3.9305Y-5.3699
X3.9305Y-5.4486
X3.9305Y-5.9211
X3.9305Y-5.9998
X3.9915Y-5.0006
X4.0092Y-2.614
X4.0092Y-2.6927
X4.0092Y-2.7714
X4.0092Y-2.8502
X4.0092Y-3.0864
X4.0092Y-3.3226
X4.0092Y-3.4801
X4.0092Y-3.5588
X4.0092Y-3.7163
X4.0092Y-5.2124
X4.0092Y-5.2911
X4.0092Y-5.3699
X4.0092Y-5.4486
X4.0092Y-5.5273
X4.0092Y-5.9211
X4.0092Y-5.9998
X4.0092Y-6.0785
X4.088Y-2.614
X4.088Y-2.6927
X4.088Y-2.7714
X4.088Y-2.8502
X4.088Y-2.9289
X4.088Y-3.0864
X4.088Y-3.1651
X4.088Y-3.2439
X4.088Y-3.3226
X4.088Y-3.4801
X4.088Y-3.5588
X4.088Y-3.7163
X4.088Y-4.11
X4.088Y-4.1888
X4.088Y-4.2675
X4.088Y-4.3462
X4.088Y-5.2911
X4.088Y-5.3699
X4.088Y-5.4486
X4.088Y-5.7636
X4.088Y-5.9998
X4.088Y-6.0785
X4.1453Y-3.3884
X4.1453Y-3.6542
X4.1667Y-2.614
X4.1667Y-2.6927
X4.1667Y-2.7714
X4.1667Y-2.8502
X4.1667Y-2.9289
X4.1667Y-3.0864
X4.1667Y-4.1888
X4.1667Y-4.2675
X4.1667Y-4.3462
X4.1667Y-4.425
X4.1667Y-4.6612
X4.1667Y-5.3699
X4.1667Y-5.4486
X4.1667Y-5.6848
X4.1667Y-6.0785
X4.1962Y-3.3884
X4.2179Y-3.6542
X4.2454Y-2.614
X4.2454Y-2.6927
X4.2454Y-2.7714
X4.2454Y-2.8502
X4.2454Y-2.9289
X4.2454Y-3.0077
X4.2454Y-3.0864
X4.2454Y-3.5588
X4.2454Y-4.1888
X4.2454Y-4.2675
X4.2454Y-4.3462
X4.2454Y-4.5825
X4.2454Y-4.6612
X4.2454Y-4.7399
X4.2454Y-5.0549
X4.2454Y-5.4486
X4.2454Y-5.6848
X4.2454Y-5.7636
X4.2454Y-5.9211
X4.2454Y-6.1573
X4.273Y-2.355
X4.3242Y-3.4014
X4.3242Y-3.7163
X4.3242Y-3.7951
X4.3242Y-3.8738
X4.3242Y-3.9525
X4.3242Y-4.2675
X4.3242Y-4.3462
X4.3242Y-4.5037
X4.3242Y-4.5825
X4.3242Y-5.0549
X4.3242Y-5.1336
X4.3242Y-5.6848
X4.3242Y-5.7636
X4.3242Y-5.9211
X4.3242Y-5.9998
X4.399Y-2.3628
X4.4029Y-2.6927
X4.4029Y-2.7714
X4.4029Y-2.8502
X4.4029Y-2.9289
X4.4029Y-3.0077
X4.4029Y-3.0864
X4.4029Y-3.4801
X4.4029Y-3.7163
X4.4029Y-3.7951
X4.4029Y-3.8738
X4.4029Y-3.9525
X4.4029Y-4.0313
X4.4029Y-4.2675
X4.4029Y-4.3462
X4.4029Y-4.425
X4.4029Y-4.5037
X4.4029Y-4.5825
X4.4029Y-5.0549
X4.4029Y-5.1336
X4.4029Y-5.2124
X4.4029Y-5.6848
X4.4029Y-5.7636
X4.4029Y-5.9211
X4.4029Y-5.9998
X4.4029Y-6.0785
X4.4029Y-6.1573
X4.4817Y-2.2203
X4.4817Y-2.299
X4.4817Y-2.6927
X4.4817Y-2.7714
X4.4817Y-2.8502
X4.4817Y-2.9289
X4.4817Y-3.0077
X4.4817Y-3.0864
X4.4817Y-3.2439
X4.4817Y-3.4801
X4.4817Y-3.5588
X4.4817Y-3.7951
X4.4817Y-3.8738
X4.4817Y-4.2675
X4.4817Y-4.3462
X4.4817Y-4.425
X4.4817Y-4.5037
X4.4817Y-4.5825
X4.4817Y-4.6612
X4.4817Y-5.0549
X4.4817Y-5.1336
X4.4817Y-5.2124
X4.4817Y-5.2911
X4.4817Y-5.6848
X4.4817Y-5.7636
X4.4817Y-6.1573
X4.4817Y-6.236
X4.5604Y-2.2203
X4.5604Y-2.299
X4.5604Y-2.6927
X4.5604Y-2.7714
X4.5604Y-2.8502
X4.5604Y-2.9289
X4.5604Y-3.0077
X4.5604Y-3.4801
X4.5604Y-3.5588
X4.5604Y-3.6376
X4.5604Y-3.8738
X4.5604Y-4.11
X4.5604Y-4.2675
X4.5604Y-4.3462
X4.5604Y-4.425
X4.5604Y-4.5037
X4.5604Y-4.5825
X4.5604Y-4.6612
X4.5604Y-4.8974
X4.5604Y-4.9762
X4.5604Y-5.0549
X4.5604Y-5.1336
X4.5604Y-5.2124
X4.5604Y-5.2911
X4.5604Y-5.3699
X4.5604Y-5.6848
X4.5604Y-5.7636
X4.5604Y-6.236
X4.5604Y-6.3148
X4.6391Y-2.2203
X4.6391Y-2.299
X4.6391Y-2.3777
X4.6391Y-2.4565
X4.6391Y-2.7714
X4.6391Y-2.8502
X4.6391Y-2.9289
X4.6391Y-3.0077
X4.6391Y-3.3226
X4.6391Y-3.4014
X4.6391Y-3.4801
X4.6391Y-3.5588
X4.6391Y-3.6376
X4.6391Y-3.7163
X4.6391Y-4.11
X4.6391Y-4.1888
X4.6391Y-4.2675
X4.6391Y-4.3462
X4.6391Y-4.425
X4.6391Y-4.5037
X4.6391Y-4.5825
X4.6391Y-4.6612
X4.6391Y-4.8187
X4.6391Y-4.8974
X4.6391Y-4.9762
X4.6391Y-5.0549
X4.6391Y-5.1336
X4.6391Y-5.2124
X4.6391Y-5.2911
X4.6391Y-5.6848
X4.6391Y-5.7636
X4.6391Y-6.3148
X4.6391Y-6.3935
X4.7179Y-2.2203
X4.7179Y-2.299
X4.7179Y-2.7714
X4.7179Y-2.8502
X4.7179Y-2.9289
X4.7179Y-3.0077
X4.7179Y-3.3226
X4.7179Y-3.4801
X4.7179Y-3.5588
X4.7179Y-3.6376
X4.7179Y-3.7163
X4.7179Y-3.7951
X4.7179Y-4.0313
X4.7179Y-4.11
X4.7179Y-4.1888
X4.7179Y-4.2675
X4.7179Y-5.1336
X4.7179Y-5.2124
X4.7179Y-5.5273
X4.7179Y-5.6848
X4.7179Y-5.7636
X4.7179Y-5.8423
X4.7179Y-6.3935
X4.7179Y-6.4722
X4.7966Y-2.2203
X4.7966Y-2.299
X4.7966Y-2.5352
X4.7966Y-2.6927
X4.7966Y-2.7714
X4.7966Y-2.8502
X4.7966Y-2.9289
X4.7966Y-3.0077
X4.7966Y-3.3226
X4.7966Y-3.4014
X4.7966Y-3.4801
X4.7966Y-3.5588
X4.7966Y-3.6376
X4.7966Y-3.7163
X4.7966Y-3.7951
X4.7966Y-4.11
X4.7966Y-4.1888
X4.7966Y-4.425
X4.7966Y-5.2124
X4.7966Y-5.5273
X4.7966Y-5.6848
X4.7966Y-5.7636
X4.7966Y-5.8423
X4.7966Y-5.9211
X4.7966Y-5.9998
X4.7966Y-6.4722
X4.7966Y-6.551
X4.8754Y-2.2203
X4.8754Y-2.299
X4.8754Y-2.5352
X4.8754Y-2.6927
X4.8754Y-2.7714
X4.8754Y-2.8502
X4.8754Y-2.9289
X4.8754Y-3.0077
X4.8754Y-3.3226
X4.8754Y-3.4014
X4.8754Y-3.4801
X4.8754Y-3.5588
X4.8754Y-3.6376
X4.8754Y-3.7163
X4.8754Y-3.7951
X4.8754Y-4.3462
X4.8754Y-4.7399
X4.8754Y-4.8187
X4.8754Y-4.8974
X4.8754Y-4.9762
X4.8754Y-5.0549
X4.8754Y-5.2911
X4.8754Y-5.5273
X4.8754Y-5.6848
X4.8754Y-5.7636
X4.8754Y-5.8423
X4.8754Y-5.9211
X4.8754Y-6.1573
X4.8754Y-6.3148
X4.8754Y-6.551
X4.8754Y-6.6297
X4.8852Y-3.8805
X4.8852Y-3.9199
X4.9165Y-3.8559
X4.9541Y-2.2203
X4.9541Y-2.299
X4.9541Y-2.5352
X4.9541Y-2.614
X4.9541Y-2.6927
X4.9541Y-2.7714
X4.9541Y-2.8502
X4.9541Y-2.9289
X4.9541Y-4.2675
X4.9541Y-4.3462
X4.9541Y-4.7399
X4.9541Y-4.8187
X4.9541Y-4.8974
X4.9541Y-4.9762
X4.9541Y-5.0549
X4.9541Y-5.1336
X4.9541Y-5.3699
X4.9541Y-5.4486
X4.9541Y-5.5273
X4.9541Y-5.6848
X4.9541Y-5.7636
X4.9541Y-5.8423
X4.9541Y-5.9211
X4.9541Y-6.236
X4.9541Y-6.3148
X4.9541Y-6.3935
X4.9541Y-6.6297
X4.9541Y-6.7085
X4.9836Y-3.9199
X4.9974Y-3.8496
X4.9974Y-3.8811
X5.0328Y-2.2203
X5.0328Y-2.299
X5.0328Y-3.3226
X5.0328Y-3.5588
X5.0328Y-3.6376
X5.0328Y-3.7163
X5.0328Y-4.0313
X5.0328Y-4.11
X5.0328Y-4.1888
X5.0328Y-4.2675
X5.0328Y-4.3462
X5.0328Y-4.8187
X5.0328Y-4.8974
X5.0328Y-4.9762
X5.0328Y-5.0549
X5.0328Y-5.1336
X5.0328Y-5.2124
X5.0328Y-5.9211
X5.0328Y-5.9998
X5.0328Y-6.236
X5.0328Y-6.3148
X5.0328Y-6.3935
X5.0328Y-6.4722
X5.0328Y-6.7085
X5.0328Y-6.7872
X5.0624Y-2.6207
X5.0697Y-2.5719
X5.1116Y-2.2203
X5.1116Y-2.299
X5.1116Y-2.3777
X5.1116Y-2.4565
X5.1116Y-3.4801
X5.1116Y-3.5588
X5.1116Y-3.6376
X5.1116Y-3.7163
X5.1116Y-3.7951
X5.1116Y-3.8738
X5.1116Y-4.11
X5.1116Y-4.1888
X5.1116Y-4.2675
X5.1116Y-4.3462
X5.1116Y-4.5037
X5.1116Y-4.8187
X5.1116Y-4.8974
X5.1116Y-4.9762
X5.1116Y-5.9998
X5.1116Y-6.1573
X5.1116Y-6.236
X5.1116Y-6.7872
X5.1116Y-6.8659
X5.1225Y-2.5725
X5.1505Y-3.2696
X5.1675Y-3.2198
X5.1903Y-2.2203
X5.1903Y-2.6927
X5.1903Y-2.7714
X5.1903Y-3.4014
X5.1903Y-3.4801
X5.1903Y-3.5588
X5.1903Y-3.6376
X5.1903Y-3.7163
X5.1903Y-3.7951
X5.1903Y-3.8738
X5.1903Y-3.9525
X5.1903Y-4.1888
X5.1903Y-4.2675
X5.1903Y-4.3462
X5.1903Y-4.8187
X5.1903Y-4.8974
X5.1903Y-5.1336
X5.1903Y-5.2124
X5.1903Y-5.2911
X5.1903Y-5.3699
X5.1903Y-5.4486
X5.1903Y-5.5273
X5.1903Y-5.6061
X5.1903Y-5.6848
X5.1903Y-5.7636
X5.1903Y-6.6297
X5.1903Y-6.8659
X5.1913Y-2.5868
X5.2691Y-2.9289
X5.2691Y-3.0077
X5.2691Y-3.0864
X5.2691Y-3.1651
X5.2691Y-3.4014
X5.2691Y-3.4801
X5.2691Y-3.5588
X5.2691Y-3.6376
X5.2691Y-3.7163
X5.2691Y-3.7951
X5.2691Y-3.8738
X5.2691Y-3.9525
X5.2691Y-4.0313
X5.2691Y-4.2675
X5.2691Y-4.3462
X5.2691Y-4.5825
X5.2691Y-4.8187
X5.2691Y-5.0549
X5.2691Y-5.1336
X5.2691Y-5.2124
X5.2691Y-5.2911
X5.2691Y-5.3699
X5.2691Y-5.4486
X5.2691Y-5.5273
X5.2691Y-5.6061
X5.2691Y-5.6848
X5.2691Y-5.7636
X5.2691Y-5.8423
X5.2691Y-6.3148
X5.2691Y-6.8659
X5.2691Y-7.0234
X5.3478Y-3.4014
X5.3478Y-3.5588
X5.3478Y-3.6376
X5.3478Y-3.7163
X5.3478Y-3.7951
X5.3478Y-3.8738
X5.3478Y-3.9525
X5.3478Y-4.0313
X5.3478Y-4.11
X5.3478Y-4.3462
X5.3478Y-4.5825
X5.3478Y-4.9762
X5.3478Y-5.0549
X5.3478Y-5.1336
X5.3478Y-5.2124
X5.3478Y-5.2911
X5.3478Y-5.3699
X5.3478Y-5.4486
X5.3478Y-5.5273
X5.3478Y-5.6061
X5.3478Y-5.6848
X5.3478Y-5.7636
X5.3478Y-5.8423
X5.3478Y-5.9211
X5.3478Y-6.1573
X5.3478Y-6.3148
X5.3478Y-6.3935
X5.3478Y-6.4722
X5.3478Y-6.8659
X5.3478Y-7.0234
X5.3478Y-7.1022
X5.3596Y-2.9219
X5.4265Y-2.1415
X5.4265Y-3.2439
X5.4265Y-3.4014
X5.4265Y-3.5588
X5.4265Y-3.6376
X5.4265Y-3.7163
X5.4265Y-3.7951
X5.4265Y-3.8738
X5.4265Y-3.9525
X5.4265Y-4.0313
X5.4265Y-4.11
X5.4265Y-4.1888
X5.4265Y-4.5825
X5.4265Y-4.6612
X5.4265Y-4.8974
X5.4265Y-4.9762
X5.4265Y-5.0549
X5.4265Y-5.1336
X5.4265Y-5.2124
X5.4265Y-5.2911
X5.4265Y-5.3699
X5.4265Y-5.4486
X5.4265Y-5.5273
X5.4265Y-5.6061
X5.4265Y-5.6848
X5.4265Y-5.7636
X5.4265Y-5.8423
X5.4265Y-5.9211
X5.4265Y-5.9998
X5.4265Y-6.3148
X5.4265Y-6.3935
X5.4265Y-6.6297
X5.4265Y-6.8659
X5.4265Y-7.0234
X5.5053Y-2.1415
X5.5053Y-2.2203
X5.5053Y-3.0864
X5.5053Y-3.1651
X5.5053Y-3.2439
X5.5053Y-3.6376
X5.5053Y-3.7163
X5.5053Y-3.7951
X5.5053Y-3.8738
X5.5053Y-3.9525
X5.5053Y-4.0313
X5.5053Y-4.11
X5.5053Y-4.1888
X5.5053Y-4.8187
X5.5053Y-4.8974
X5.5053Y-4.9762
X5.5053Y-5.0549
X5.5053Y-5.1336
X5.5053Y-5.2124
X5.5053Y-5.2911
X5.5053Y-5.3699
X5.5053Y-5.4486
X5.5053Y-5.5273
X5.5053Y-5.6061
X5.5053Y-5.6848
X5.5053Y-5.7636
X5.5053Y-5.8423
X5.5053Y-5.9211
X5.5053Y-5.9998
X5.5053Y-6.0785
X5.5053Y-6.3148
X5.5053Y-6.3935
X5.5053Y-6.6297
X5.5053Y-6.8659
X5.5171Y-2.8353
X5.584Y-2.1415
X5.584Y-2.2203
X5.584Y-2.299
X5.584Y-3.2439
X5.584Y-3.6376
X5.584Y-3.7163
X5.584Y-3.7951
X5.584Y-3.8738
X5.584Y-3.9525
X5.584Y-4.0313
X5.584Y-4.11
X5.584Y-4.1888
X5.584Y-4.425
X5.584Y-4.5825
X5.584Y-4.7399
X5.584Y-4.8187
X5.584Y-4.8974
X5.584Y-4.9762
X5.584Y-5.0549
X5.584Y-5.1336
X5.584Y-5.2124
X5.584Y-5.2911
X5.584Y-5.3699
X5.584Y-5.4486
X5.584Y-5.5273
X5.584Y-5.6061
X5.584Y-5.6848
X5.584Y-5.7636
X5.584Y-5.8423
X5.584Y-5.9211
X5.584Y-5.9998
X5.584Y-6.0785
X5.5927Y-3.3211
X5.6116Y-2.9849
X5.6332Y-3.1325
X5.6431Y-3.3211
X5.6431Y-4.289
X5.6431Y-4.354
X5.6628Y-2.3777
X5.6628Y-2.5912
X5.6628Y-3.7163
X5.6628Y-3.7951
X5.6628Y-3.8738
X5.6628Y-3.9525
X5.6628Y-4.0313
X5.6628Y-4.11
X5.6628Y-4.1888
X5.6628Y-4.425
X5.6628Y-4.5825
X5.6628Y-4.6612
X5.6628Y-4.7399
X5.6628Y-4.8187
X5.6628Y-4.8974
X5.6628Y-4.9762
X5.6628Y-5.0549
X5.6628Y-5.1336
X5.6628Y-5.2124
X5.6628Y-5.2911
X5.6628Y-5.3699
X5.6628Y-5.4486
X5.6628Y-5.5273
X5.6628Y-5.6061
X5.6628Y-5.6848
X5.6628Y-5.7636
X5.6628Y-5.8423
X5.6628Y-5.9211
X5.6628Y-5.9998
X5.6628Y-6.0785
X5.6628Y-6.4722
X5.6903Y-2.9849
X5.6923Y-3.1916
X5.6982Y-3.3077
X5.7376Y-2.4809
X5.7415Y-2.1415
X5.7415Y-3.7163
X5.7415Y-3.7951
X5.7415Y-3.8738
X5.7415Y-3.9525
X5.7415Y-4.0313
X5.7415Y-4.11
X5.7415Y-4.1888
X5.7415Y-4.425
X5.7415Y-4.5825
X5.7415Y-4.6612
X5.7415Y-4.7399
X5.7415Y-4.8187
X5.7415Y-4.8974
X5.7415Y-4.9762
X5.7415Y-5.0549
X5.7415Y-5.1336
X5.7415Y-5.2124
X5.7415Y-5.2911
X5.7415Y-5.3699
X5.7415Y-5.4486
X5.7415Y-5.5273
X5.7415Y-5.6061
X5.7415Y-5.6848
X5.7415Y-5.7636
X5.7415Y-5.8423
X5.7415Y-5.9211
X5.7415Y-5.9998
X5.7415Y-6.0785
X5.7454Y-2.7487
X5.7454Y-2.9376
X5.7513Y-3.0439
X5.7533Y-2.8195
X5.7612Y-3.3211
X5.7927Y-2.6148
X5.8202Y-2.1415
X5.8202Y-3.7163
X5.8202Y-3.7951
X5.8202Y-3.8738
X5.8202Y-3.9525
X5.8202Y-4.0313
X5.8202Y-4.11
X5.8202Y-4.1888
X5.8202Y-4.425
X5.8202Y-4.5825
X5.8202Y-4.6612
X5.8202Y-4.7399
X5.8202Y-4.8187
X5.8202Y-4.8974
X5.8202Y-4.9762
X5.8202Y-5.0549
X5.8202Y-5.1336
X5.8202Y-5.2124
X5.8202Y-5.2911
X5.8202Y-5.3699
X5.8202Y-5.4486
X5.8202Y-5.5273
X5.8202Y-5.6061
X5.8202Y-5.6848
X5.8202Y-5.7636
X5.8202Y-5.8423
X5.8202Y-5.9211
X5.8202Y-5.9998
X5.8202Y-6.0785
X5.8403Y-3.1762
X5.8478Y-2.7565
X5.8478Y-2.8195
X5.8596Y-2.5223
X5.8639Y-3.1997
X5.8695Y-2.6109
X5.8718Y-3.1138
X5.8872Y-3.2605
X5.8923Y-3.1377
X5.899Y-2.1415
X5.899Y-3.7163
X5.899Y-3.7951
X5.899Y-3.8738
X5.899Y-3.9525
X5.899Y-4.0313
X5.899Y-4.11
X5.899Y-4.1888
X5.899Y-4.425
X5.899Y-4.5825
X5.899Y-4.6612
X5.899Y-4.7399
X5.899Y-4.8187
X5.899Y-4.8974
X5.899Y-4.9762
X5.899Y-5.0549
X5.899Y-5.1336
X5.899Y-5.2124
X5.899Y-5.2911
X5.899Y-5.3699
X5.899Y-5.4486
X5.899Y-5.5273
X5.899Y-5.6061
X5.899Y-5.6848
X5.899Y-5.7636
X5.899Y-5.8423
X5.899Y-5.9211
X5.899Y-5.9998
X5.899Y-6.0785
X5.9191Y-3.0479
X5.9265Y-2.8195
X5.9265Y-3.1345
X5.9265Y-3.2132
X5.9265Y-3.3077
X5.933Y-3.0761
X5.9344Y-2.7487
X5.9344Y-2.9376
X5.9642Y-3.0691
X5.9777Y-2.4565
X5.9777Y-3.7163
X5.9777Y-3.7951
X5.9777Y-3.8738
X5.9777Y-3.9525
X5.9777Y-4.0313
X5.9777Y-4.11
X5.9777Y-4.1888
X5.9777Y-4.425
X5.9777Y-4.6612
X5.9777Y-4.7399
X5.9777Y-4.8187
X5.9777Y-4.8974
X5.9777Y-4.9762
X5.9777Y-5.0549
X5.9777Y-5.1336
X5.9777Y-5.2124
X5.9777Y-5.2911
X5.9777Y-5.3699
X5.9777Y-5.4486
X5.9777Y-5.5273
X5.9777Y-5.6061
X5.9777Y-5.6848
X5.9777Y-5.7636
X5.9777Y-5.8423
X5.9777Y-5.9211
X5.9777Y-5.9998
X5.9777Y-6.0785
X5.9777Y-6.3148
X5.9777Y-6.3935
X5.9777Y-6.4722
X5.9974Y-2.6935
X6.0553Y-3.5727
X6.0565Y-3.7163
X6.0565Y-3.7951
X6.0565Y-3.8738
X6.0565Y-3.9525
X6.0565Y-4.0313
X6.0565Y-4.11
X6.0565Y-4.1888
X6.0565Y-4.425
X6.0565Y-4.5037
X6.0565Y-4.7399
X6.0565Y-4.8187
X6.0565Y-4.8974
X6.0565Y-4.9762
X6.0565Y-5.0549
X6.0565Y-5.1336
X6.0565Y-5.2124
X6.0565Y-5.2911
X6.0565Y-5.3699
X6.0565Y-5.4486
X6.0565Y-5.5273
X6.0565Y-5.6061
X6.0565Y-5.6848
X6.0565Y-5.7636
X6.0565Y-5.8423
X6.0565Y-5.9211
X6.0565Y-5.9998
X6.0565Y-6.0785
X6.0565Y-6.3935
X6.0565Y-6.4722
X6.0565Y-6.551
X6.0663Y-2.6305
X6.0761Y-3.5518
X6.1352Y-3.6376
X6.1352Y-3.7163
X6.1352Y-3.8738
X6.1352Y-3.9525
X6.1352Y-4.0313
X6.1352Y-4.11
X6.1352Y-4.1888
X6.1352Y-4.425
X6.1352Y-4.5037
X6.1352Y-4.5825
X6.1352Y-4.8187
X6.1352Y-4.8974
X6.1352Y-4.9762
X6.1352Y-5.0549
X6.1352Y-5.1336
X6.1352Y-5.2124
X6.1352Y-5.2911
X6.1352Y-5.3699
X6.1352Y-5.4486
X6.1352Y-5.5273
X6.1352Y-5.6061
X6.1352Y-5.6848
X6.1352Y-5.7636
X6.1352Y-5.8423
X6.1352Y-5.9211
X6.1352Y-5.9998
X6.1352Y-6.0785
X6.1352Y-6.236
X6.1352Y-6.4722
X6.1352Y-6.551
X6.147Y-3.4809
X6.1706Y-3.4573
X6.1943Y-2.6305
X6.2029Y-2.8301
X6.2041Y-2.7683
X6.2139Y-3.5588
X6.2139Y-3.6376
X6.2139Y-3.7951
X6.2139Y-3.8738
X6.2139Y-3.9525
X6.2139Y-4.0313
X6.2139Y-4.11
X6.2139Y-4.8187
X6.2139Y-4.8974
X6.2139Y-4.9762
X6.2139Y-5.0549
X6.2139Y-5.1336
X6.2139Y-5.2124
X6.2139Y-5.2911
X6.2139Y-5.3699
X6.2139Y-5.4486
X6.2139Y-5.5273
X6.2139Y-5.6061
X6.2139Y-5.6848
X6.2139Y-5.7636
X6.2139Y-5.8423
X6.2139Y-5.9211
X6.2139Y-5.9998
X6.2139Y-6.236
X6.2139Y-6.3148
X6.2139Y-6.9447
X6.2927Y-2.4565
X6.2927Y-2.7979
X6.2927Y-3.5588
X6.2927Y-3.6376
X6.2927Y-3.7951
X6.2927Y-3.8738
X6.2927Y-3.9525
X6.2927Y-4.0313
X6.2927Y-4.3462
X6.2927Y-4.425
X6.2927Y-4.5037
X6.2927Y-4.7399
X6.2927Y-4.8187
X6.2927Y-4.8974
X6.2927Y-4.9762
X6.2927Y-5.0549
X6.2927Y-5.1336
X6.2927Y-5.2124
X6.2927Y-5.2911
X6.2927Y-5.3699
X6.2927Y-5.4486
X6.2927Y-5.5273
X6.2927Y-5.6061
X6.2927Y-5.6848
X6.2927Y-5.7636
X6.2927Y-5.8423
X6.2927Y-5.9211
X6.2927Y-6.236
X6.2927Y-6.9447
X6.2927Y-7.0234
X6.3008Y-2.7103
X6.3222Y-4.1364
X6.3714Y-3.5588
X6.3714Y-3.6376
X6.3714Y-3.7163
X6.3714Y-3.7951
X6.3714Y-3.8738
X6.3714Y-3.9525
X6.3714Y-4.0313
X6.3714Y-4.2675
X6.3714Y-4.3462
X6.3714Y-4.425
X6.3714Y-4.8187
X6.3714Y-4.8974
X6.3714Y-4.9762
X6.3714Y-5.0549
X6.3714Y-5.1336
X6.3714Y-5.2124
X6.3714Y-5.2911
X6.3714Y-5.3699
X6.3714Y-5.4486
X6.3714Y-5.5273
X6.3714Y-5.6061
X6.3714Y-5.6848
X6.3714Y-5.7636
X6.3714Y-5.8423
X6.3714Y-5.9211
X6.3714Y-6.236
X6.3714Y-6.9447
X6.3714Y-7.0234
X6.4305Y-2.6227
X6.4305Y-2.8963
X6.4384Y-3.1896
X6.4403Y-4.1364
X6.4502Y-3.5588
X6.4502Y-3.6376
X6.4502Y-3.7163
X6.4502Y-3.7951
X6.4502Y-3.8738
X6.4502Y-3.9525
X6.4502Y-4.2675
X6.4502Y-4.3462
X6.4502Y-4.425
X6.4502Y-4.7399
X6.4502Y-4.8187
X6.4502Y-4.8974
X6.4502Y-4.9762
X6.4502Y-5.0549
X6.4502Y-5.1336
X6.4502Y-5.2124
X6.4502Y-5.2911
X6.4502Y-5.3699
X6.4502Y-5.4486
X6.4502Y-5.5273
X6.4502Y-5.6061
X6.4502Y-5.6848
X6.4502Y-5.7636
X6.4502Y-5.8423
X6.4502Y-5.9211
X6.4502Y-6.7872
X6.4502Y-6.9447
X6.4502Y-7.0234
X6.4541Y-2.6463
X6.4777Y-3.1896
X6.4797Y-3.0833
X6.5289Y-2.4565
X6.5289Y-3.6376
X6.5289Y-3.7163
X6.5289Y-3.7951
X6.5289Y-3.8738
X6.5289Y-4.1888
X6.5289Y-4.2675
X6.5289Y-4.3462
X6.5289Y-4.425
X6.5289Y-4.5037
X6.5289Y-4.8187
X6.5289Y-4.8974
X6.5289Y-4.9762
X6.5289Y-5.0549
X6.5289Y-5.1336
X6.5289Y-5.2124
X6.5289Y-5.2911
X6.5289Y-5.3699
X6.5289Y-5.4486
X6.5289Y-5.5273
X6.5289Y-5.6061
X6.5289Y-5.6848
X6.5289Y-5.7636
X6.5289Y-5.8423
X6.5289Y-5.9211
X6.5289Y-6.0785
X6.5289Y-6.1573
X6.5289Y-6.236
X6.5289Y-6.7085
X6.5289Y-6.7872
X6.5289Y-6.9447
X6.5387Y-3.29
X6.5584Y-2.8963
X6.6076Y-2.4565
X6.6076Y-2.614
X6.6076Y-3.4801
X6.6076Y-3.5588
X6.6076Y-3.6376
X6.6076Y-3.7163
X6.6076Y-3.7951
X6.6076Y-4.0313
X6.6076Y-4.1888
X6.6076Y-4.2675
X6.6076Y-4.3462
X6.6076Y-4.8187
X6.6076Y-4.8974
X6.6076Y-4.9762
X6.6076Y-5.0549
X6.6076Y-5.1336
X6.6076Y-5.2124
X6.6076Y-5.2911
X6.6076Y-5.3699
X6.6076Y-5.4486
X6.6076Y-5.5273
X6.6076Y-5.6061
X6.6076Y-5.6848
X6.6076Y-5.7636
X6.6076Y-5.8423
X6.6076Y-5.9211
X6.6076Y-6.0785
X6.6076Y-6.1573
X6.6076Y-6.3935
X6.6076Y-6.6297
X6.6076Y-6.7085
X6.6076Y-6.7872
X6.651Y-3.2998
X6.6864Y-2.4565
X6.6864Y-3.4801
X6.6864Y-3.5588
X6.6864Y-3.6376
X6.6864Y-3.7163
X6.6864Y-3.9525
X6.6864Y-4.0313
X6.6864Y-4.1888
X6.6864Y-4.2675
X6.6864Y-4.3462
X6.6864Y-4.5825
X6.6864Y-4.6612
X6.6864Y-4.7399
X6.6864Y-4.8187
X6.6864Y-4.8974
X6.6864Y-4.9762
X6.6864Y-5.0549
X6.6864Y-5.1336
X6.6864Y-5.2124
X6.6864Y-5.2911
X6.6864Y-5.3699
X6.6864Y-5.4486
X6.6864Y-5.5273
X6.6864Y-5.6061
X6.6864Y-5.6848
X6.6864Y-5.7636
X6.6864Y-5.8423
X6.6864Y-5.9211
X6.6864Y-6.0785
X6.6864Y-6.551
X6.6864Y-6.6297
X6.6864Y-6.7085
X6.7061Y-2.3313
X6.7356Y-3.2408
X6.7454Y-2.3313
X6.7553Y-2.9061
X6.7651Y-2.6927
X6.7651Y-2.7714
X6.7651Y-2.8502
X6.7651Y-3.4801
X6.7651Y-3.5588
X6.7651Y-3.6376
X6.7651Y-3.8738
X6.7651Y-3.9525
X6.7651Y-4.0313
X6.7651Y-4.5037
X6.7651Y-4.7399
X6.7651Y-4.8187
X6.7651Y-4.8974
X6.7651Y-4.9762
X6.7651Y-5.0549
X6.7651Y-5.1336
X6.7651Y-5.2124
X6.7651Y-5.2911
X6.7651Y-5.3699
X6.7651Y-5.4486
X6.7651Y-5.5273
X6.7651Y-5.6061
X6.7651Y-5.6848
X6.7651Y-5.7636
X6.7651Y-5.8423
X6.7651Y-5.9211
X6.7651Y-6.3935
X6.7651Y-6.4722
X6.7651Y-6.551
X6.7651Y-6.6297
X6.8439Y-2.6927
X6.8439Y-2.7714
X6.8439Y-2.8502
X6.8439Y-3.7951
X6.8439Y-3.8738
X6.8439Y-3.9525
X6.8439Y-4.0313
X6.8439Y-4.8187
X6.8439Y-4.8974
X6.8439Y-4.9762
X6.8439Y-5.0549
X6.8439Y-5.1336
X6.8439Y-5.2124
X6.8439Y-5.5273
X6.8439Y-5.6061
X6.8439Y-5.6848
X6.8439Y-5.7636
X6.8439Y-6.3935
X6.8439Y-6.4722
X6.8439Y-6.551
X6.9226Y-2.1415
X6.9226Y-2.6927
X6.9226Y-2.7714
X6.9226Y-2.8502
X6.9226Y-3.4801
X6.9226Y-3.5588
X6.9226Y-3.6376
X6.9226Y-3.7163
X6.9226Y-3.7951
X6.9226Y-3.8738
X6.9226Y-3.9525
X6.9226Y-4.0313
X6.9226Y-4.2675
X6.9226Y-4.3462
X6.9226Y-4.425
X6.9226Y-4.5037
X6.9226Y-4.5825
X6.9226Y-4.6612
X6.9226Y-4.7399
X6.9226Y-4.8187
X6.9226Y-4.8974
X6.9226Y-4.9762
X6.9226Y-5.0549
X6.9226Y-5.1336
X6.9226Y-5.2124
X6.9226Y-5.5273
X6.9226Y-5.6061
X6.9226Y-5.6848
X6.9226Y-5.7636
X6.9226Y-6.236
X6.9226Y-6.3935
X6.9226Y-6.4722
X7.0013Y-2.1415
X7.0013Y-2.2203
X7.0013Y-2.4565
X7.0013Y-2.7714
X7.0013Y-2.8502
X7.0013Y-3.1651
X7.0013Y-3.4801
X7.0013Y-3.5588
X7.0013Y-3.6376
X7.0013Y-3.7163
X7.0013Y-3.7951
X7.0013Y-3.8738
X7.0013Y-4.3462
X7.0013Y-4.425
X7.0013Y-4.5037
X7.0013Y-4.5825
X7.0013Y-4.6612
X7.0013Y-4.7399
X7.0013Y-4.8187
X7.0013Y-4.8974
X7.0013Y-4.9762
X7.0013Y-5.0549
X7.0013Y-5.1336
X7.0013Y-5.2124
X7.0013Y-5.5273
X7.0013Y-6.236
X7.0013Y-6.3935
X7.0801Y-2.1415
X7.0801Y-2.2203
X7.0801Y-2.7714
X7.0801Y-2.8502
X7.0801Y-3.1651
X7.0801Y-3.4801
X7.0801Y-3.5588
X7.0801Y-3.6376
X7.0801Y-3.7163
X7.0801Y-3.7951
X7.0801Y-3.9525
X7.0801Y-4.425
X7.0801Y-4.5037
X7.0801Y-4.5825
X7.0801Y-4.6612
X7.0801Y-4.7399
X7.0801Y-4.9762
X7.0801Y-5.0549
X7.0801Y-5.1336
X7.0801Y-5.2124
X7.0801Y-5.2911
X7.0801Y-5.3699
X7.0801Y-5.4486
X7.0801Y-5.5273
X7.0801Y-5.6061
X7.0801Y-5.6848
X7.0801Y-6.236
X7.1588Y-2.1415
X7.1588Y-2.2203
X7.1588Y-2.4565
X7.1588Y-2.614
X7.1588Y-2.6927
X7.1588Y-2.7714
X7.1588Y-2.8502
X7.1588Y-3.2439
X7.1588Y-3.4801
X7.1588Y-3.5588
X7.1588Y-3.6376
X7.1588Y-3.7163
X7.1588Y-3.8738
X7.1588Y-3.9525
X7.1588Y-4.2675
X7.1588Y-4.5037
X7.1588Y-4.5825
X7.1588Y-4.9762
X7.1588Y-5.0549
X7.1588Y-5.1336
X7.1588Y-5.2124
X7.1588Y-5.2911
X7.1588Y-5.3699
X7.1588Y-5.4486
X7.1588Y-5.5273
X7.1588Y-5.7636
X7.1588Y-6.0785
X7.1588Y-6.1573
X7.2376Y-2.1415
X7.2376Y-2.2203
X7.2376Y-2.4565
X7.2376Y-2.6927
X7.2376Y-2.7714
X7.2376Y-2.8502
X7.2376Y-3.2439
X7.2376Y-3.4801
X7.2376Y-3.5588
X7.2376Y-3.6376
X7.2376Y-3.7163
X7.2376Y-3.8738
X7.2376Y-3.9525
X7.2376Y-4.0313
X7.2376Y-4.2675
X7.2376Y-4.3462
X7.2376Y-4.7399
X7.2376Y-5.0549
X7.2376Y-5.1336
X7.2376Y-5.2124
X7.2376Y-5.2911
X7.2376Y-5.3699
X7.2376Y-5.4486
X7.2376Y-5.5273
X7.2376Y-5.6848
X7.2376Y-5.7636
X7.2376Y-5.9998
X7.2376Y-6.0785
X7.3163Y-2.1415
X7.3163Y-2.2203
X7.3163Y-2.3777
X7.3163Y-3.2439
X7.3163Y-3.4014
X7.3163Y-3.4801
X7.3163Y-3.5588
X7.3163Y-3.6376
X7.3163Y-3.7163
X7.3163Y-4.0313
X7.3163Y-4.2675
X7.3163Y-4.3462
X7.3163Y-4.425
X7.3163Y-4.6612
X7.3163Y-4.7399
X7.3163Y-4.9762
X7.3163Y-5.0549
X7.3163Y-5.1336
X7.3163Y-5.2124
X7.3163Y-5.2911
X7.3163Y-5.3699
X7.3163Y-5.4486
X7.3163Y-5.6061
X7.3163Y-5.6848
X7.3163Y-5.7636
X7.3163Y-5.8423
X7.3458Y-3.0341
X7.3557Y-5.9967
X7.3813Y-2.9438
X7.3813Y-2.9753
X7.3813Y-3.0087
X7.395Y-2.1415
X7.395Y-2.2203
X7.395Y-2.4565
X7.395Y-2.5352
X7.395Y-2.614
X7.395Y-3.7163
X7.395Y-4.0313
X7.395Y-4.2675
X7.395Y-4.3462
X7.395Y-4.425
X7.395Y-4.5037
X7.395Y-4.6612
X7.395Y-4.7399
X7.395Y-5.0549
X7.395Y-5.1336
X7.395Y-5.2124
X7.395Y-5.2911
X7.395Y-5.3699
X7.395Y-5.5273
X7.395Y-5.6061
X7.4147Y-3.0636
X7.4147Y-6.0557
X7.4443Y-2.9455
X7.4443Y-2.977
X7.4738Y-2.1415
X7.4738Y-2.2203
X7.4738Y-2.4565
X7.4738Y-2.5352
X7.4738Y-2.614
X7.4738Y-2.8502
X7.4738Y-3.5588
X7.4738Y-3.6376
X7.4738Y-3.7163
X7.4738Y-4.0313
X7.4738Y-4.1888
X7.4738Y-4.2675
X7.4738Y-4.3462
X7.4738Y-4.425
X7.4738Y-4.5037
X7.4738Y-5.0549
X7.4738Y-5.1336
X7.4738Y-5.2124
X7.4738Y-5.2911
X7.4738Y-5.4486
X7.4738Y-5.5273
X7.4738Y-5.8423
X7.4738Y-5.9211
X7.4738Y-6.1573
X7.4884Y-3.0234
X7.5305Y-3.8018
X7.5525Y-2.1415
X7.5525Y-2.5352
X7.5525Y-2.614
X7.5525Y-2.9289
X7.5525Y-3.0077
X7.5525Y-3.2439
X7.5525Y-3.4801
X7.5525Y-4.1888
X7.5525Y-4.2675
X7.5525Y-4.3462
X7.5525Y-4.8187
X7.5525Y-4.9762
X7.5525Y-5.0549
X7.5525Y-5.1336
X7.5525Y-5.2124
X7.5525Y-5.3699
X7.5525Y-5.4486
X7.5525Y-5.5273
X7.5525Y-5.8423
X7.5525Y-5.9211
X7.5525Y-6.0785
X7.5777Y-3.8018
X7.6313Y-2.0628
X7.6313Y-2.4565
X7.6313Y-2.5352
X7.6313Y-2.614
X7.6313Y-2.7714
X7.6313Y-3.2439
X7.6313Y-3.3226
X7.6313Y-3.5588
X7.6313Y-3.6376
X7.6313Y-3.7163
X7.6313Y-4.8187
X7.6313Y-4.9762
X7.6313Y-5.0549
X7.6313Y-5.1336
X7.6313Y-5.2124
X7.6313Y-5.2911
X7.6313Y-5.3699
X7.6313Y-5.4486
X7.6313Y-5.5273
X7.6313Y-5.8423
X7.6313Y-5.9211
X7.6313Y-6.0785
X7.7037Y-4.5794
X7.71Y-2.2203
X7.71Y-2.5352
X7.71Y-2.614
X7.71Y-2.7714
X7.71Y-3.3226
X7.71Y-3.4014
X7.71Y-3.6376
X7.71Y-5.2911
X7.71Y-5.3699
X7.71Y-5.8423
X7.71Y-5.9211
X7.751Y-4.5794
X7.7887Y-2.5352
X7.7887Y-2.614
X7.7887Y-2.9289
X7.7887Y-3.2439
X7.7887Y-3.3226
X7.7887Y-3.4014
X7.7887Y-3.4801
X7.7887Y-4.11
X7.7887Y-4.1888
X7.7887Y-4.2675
X7.7887Y-4.3462
X7.7887Y-4.425
X7.7887Y-4.5037
X7.7887Y-4.6612
X7.7887Y-4.8187
X7.7887Y-4.8974
X7.7887Y-4.9762
X7.7887Y-5.0549
X7.7887Y-5.1336
X7.7887Y-5.2124
X7.7887Y-5.2911
X7.7887Y-5.6061
X7.7887Y-5.8423
X7.8675Y-2.299
X7.8675Y-2.3777
X7.8675Y-2.4565
X7.8675Y-2.5352
X7.8675Y-2.614
X7.8675Y-2.8502
X7.8675Y-3.0077
X7.8675Y-3.3226
X7.8675Y-3.4014
X7.8675Y-3.4801
X7.8675Y-3.7163
X7.8675Y-4.11
X7.8675Y-4.1888
X7.8675Y-4.2675
X7.8675Y-4.3462
X7.8675Y-4.425
X7.8675Y-4.7399
X7.8675Y-5.5273
X7.8675Y-5.7636
X7.9462Y-2.4565
X7.9462Y-2.5352
X7.9462Y-2.614
X7.9462Y-2.8502
X7.9462Y-3.3226
X7.9462Y-3.4014
X7.9462Y-3.4801
X7.9462Y-3.6376
X7.9462Y-3.7163
X7.9462Y-3.7951
X7.9462Y-4.0313
X7.9462Y-4.11
X7.9462Y-4.1888
X7.9462Y-4.2675
X7.9462Y-4.3462
X7.9462Y-4.5037
X7.9462Y-4.8187
X7.9462Y-4.8974
X7.9462Y-4.9762
X7.9462Y-5.0549
X7.9462Y-5.1336
X7.9462Y-5.2124
X7.9462Y-5.3699
X7.9462Y-5.4486
X7.9462Y-5.5273
X7.9462Y-5.6848
X7.9462Y-5.9211
X8.025Y-2.1415
X8.025Y-2.8502
X8.025Y-3.2439
X8.025Y-3.3226
X8.025Y-3.4014
X8.025Y-3.4801
X8.025Y-3.6376
X8.025Y-4.11
X8.025Y-4.1888
X8.025Y-4.2675
X8.025Y-4.425
X8.025Y-4.5037
X8.025Y-4.8187
X8.025Y-4.8974
X8.025Y-4.9762
X8.025Y-5.0549
X8.025Y-5.1336
X8.025Y-5.2124
X8.025Y-5.2911
X8.025Y-5.3699
X8.025Y-5.4486
X8.025Y-5.5273
X8.025Y-5.6061
X8.025Y-5.8423
X8.1037Y-1.8266
X8.1037Y-1.9053
X8.1037Y-2.1415
X8.1037Y-2.2203
X8.1037Y-2.299
X8.1037Y-2.3777
X8.1037Y-3.2439
X8.1037Y-3.3226
X8.1037Y-3.4014
X8.1037Y-3.4801
X8.1037Y-4.11
X8.1037Y-4.1888
X8.1037Y-4.2675
X8.1037Y-4.425
X8.1037Y-4.5037
X8.1037Y-4.5825
X8.1037Y-4.8187
X8.1037Y-4.8974
X8.1037Y-4.9762
X8.1037Y-5.0549
X8.1037Y-5.1336
X8.1037Y-5.2124
X8.1037Y-5.3699
X8.1037Y-5.5273
X8.1037Y-5.7636
X8.1824Y-1.8266
X8.1824Y-1.9053
X8.1824Y-2.1415
X8.1824Y-2.2203
X8.1824Y-2.299
X8.1824Y-2.3777
X8.1824Y-2.5352
X8.1824Y-2.7714
X8.1824Y-3.4014
X8.1824Y-3.7951
X8.1824Y-4.0313
X8.1824Y-4.11
X8.1824Y-4.1888
X8.1824Y-4.2675
X8.1824Y-4.8974
X8.1824Y-4.9762
X8.1824Y-5.0549
X8.1824Y-5.1336
X8.1824Y-5.2124
X8.2513Y-3.5361
X8.2596Y-3.4967
X8.2596Y-3.5754
X8.2612Y-1.8266
X8.2612Y-2.2203
X8.2612Y-2.299
X8.2612Y-2.3777
X8.2612Y-2.5352
X8.2612Y-2.6927
X8.2612Y-4.0313
X8.2612Y-4.11
X8.2612Y-4.1888
X8.2612Y-4.2675
X8.2612Y-4.8187
X8.2612Y-4.8974
X8.2612Y-4.9762
X8.2612Y-5.0549
X8.2612Y-5.1336
X8.2612Y-5.2911
X8.2612Y-5.6061
X8.2612Y-5.8423
X8.3069Y-3.5754
X8.3104Y-3.4967
X8.3104Y-3.5361
X8.3399Y-2.1415
X8.3399Y-2.2203
X8.3399Y-2.299
X8.3399Y-2.3777
X8.3399Y-2.5352
X8.3399Y-3.0864
X8.3399Y-3.1651
X8.3399Y-3.2439
X8.3399Y-3.3226
X8.3399Y-3.4014
X8.3399Y-4.5825
X8.3399Y-4.8187
X8.3399Y-4.8974
X8.3399Y-4.9762
X8.3399Y-5.0549
X8.3399Y-5.2124
X8.3399Y-5.2911
X8.3399Y-5.5273
X8.3399Y-5.6061
X8.3399Y-5.7636
X8.3399Y-5.8423
X8.4187Y-1.9053
X8.4187Y-2.2203
X8.4187Y-2.299
X8.4187Y-2.3777
X8.4187Y-2.5352
X8.4187Y-2.614
X8.4187Y-2.6927
X8.4187Y-3.0864
X8.4187Y-3.1651
X8.4187Y-3.2439
X8.4187Y-3.3226
X8.4187Y-4.7399
X8.4187Y-4.8187
X8.4187Y-4.8974
X8.4187Y-4.9762
X8.4187Y-5.2124
X8.4187Y-5.2911
X8.4187Y-5.3699
X8.4187Y-5.6061
X8.4187Y-5.7636
X8.4187Y-5.8423
X8.4215Y-4.353
X8.4688Y-4.353
X8.4974Y-2.2203
X8.4974Y-2.299
X8.4974Y-2.3777
X8.4974Y-2.5352
X8.4974Y-2.614
X8.4974Y-2.6927
X8.4974Y-3.0864
X8.4974Y-3.1651
X8.4974Y-3.2439
X8.4974Y-3.7951
X8.4974Y-3.8738
X8.4974Y-3.9525
X8.4974Y-4.0313
X8.4974Y-4.11
X8.4974Y-4.1888
X8.4974Y-4.2675
X8.4974Y-4.5825
X8.4974Y-4.6612
X8.4974Y-4.7399
X8.4974Y-4.8187
X8.4974Y-4.8974
X8.4974Y-4.9762
X8.4974Y-5.3699
X8.4974Y-5.6061
X8.4974Y-5.7636
X8.4974Y-5.8423
X8.5761Y-1.984
X8.5761Y-2.0628
X8.5761Y-2.1415
X8.5761Y-2.2203
X8.5761Y-2.299
X8.5761Y-2.3777
X8.5761Y-2.5352
X8.5761Y-3.0864
X8.5761Y-3.1651
X8.5761Y-3.2439
X8.5761Y-3.7951
X8.5761Y-3.8738
X8.5761Y-3.9525
X8.5761Y-4.0313
X8.5761Y-4.11
X8.5761Y-4.1888
X8.5761Y-5.3699
X8.5761Y-5.4486
X8.5761Y-5.5273
X8.5761Y-5.6061
X8.5761Y-5.7636
X8.6549Y-2.1415
X8.6549Y-2.2203
X8.6549Y-2.299
X8.6549Y-2.3777
X8.6549Y-2.5352
X8.6549Y-3.0864
X8.6549Y-3.1651
X8.6549Y-3.2439
X8.6549Y-3.4014
X8.6549Y-3.7951
X8.6549Y-3.8738
X8.6549Y-3.9525
X8.6549Y-4.0313
X8.6549Y-4.11
X8.6549Y-4.5825
X8.6549Y-4.6612
X8.6549Y-4.7399
X8.6549Y-4.8187
X8.6549Y-4.8974
X8.6549Y-4.9762
X8.6549Y-5.0549
X8.6549Y-5.3699
X8.6549Y-5.5273
X8.6549Y-5.6061
X8.6549Y-5.7636
X8.7336Y-1.8266
X8.7336Y-2.0628
X8.7336Y-2.1415
X8.7336Y-2.2203
X8.7336Y-2.299
X8.7336Y-2.3777
X8.7336Y-2.5352
X8.7336Y-2.7714
X8.7336Y-2.9289
X8.7336Y-3.0864
X8.7336Y-3.1651
X8.7336Y-3.2439
X8.7336Y-3.7951
X8.7336Y-3.8738
X8.7336Y-3.9525
X8.7336Y-4.0313
X8.7336Y-4.1888
X8.7336Y-4.5037
X8.7336Y-4.5825
X8.7336Y-4.6612
X8.7336Y-4.7399
X8.7336Y-4.8187
X8.7336Y-4.8974
X8.7336Y-4.9762
X8.7336Y-5.0549
X8.7336Y-5.2124
X8.7336Y-5.2911
X8.7336Y-5.3699
X8.7336Y-5.4486
X8.7336Y-5.5273
X8.7336Y-5.6061
X8.7336Y-5.7636
X8.8124Y-1.8266
X8.8124Y-1.9053
X8.8124Y-2.5352
X8.8124Y-2.9289
X8.8124Y-3.0864
X8.8124Y-3.1651
X8.8124Y-3.2439
X8.8124Y-3.7951
X8.8124Y-3.8738
X8.8124Y-3.9525
X8.8124Y-4.11
X8.8124Y-4.1888
X8.8124Y-4.2675
X8.8124Y-4.5825
X8.8124Y-4.6612
X8.8124Y-4.7399
X8.8124Y-4.8187
X8.8124Y-4.8974
X8.8124Y-4.9762
X8.8124Y-5.0549
X8.8124Y-5.2911
X8.8124Y-5.3699
X8.8124Y-5.4486
X8.8124Y-5.5273
X8.8124Y-5.6061
X8.8124Y-5.7636
X8.8911Y-1.8266
X8.8911Y-1.9053
X8.8911Y-1.984
X8.8911Y-2.0628
X8.8911Y-2.1415
X8.8911Y-2.2203
X8.8911Y-2.8502
X8.8911Y-3.0864
X8.8911Y-3.1651
X8.8911Y-3.2439
X8.8911Y-3.4801
X8.8911Y-3.7163
X8.8911Y-3.7951
X8.8911Y-3.8738
X8.8911Y-3.9525
X8.8911Y-4.5825
X8.8911Y-4.6612
X8.8911Y-4.7399
X8.8911Y-4.8187
X8.8911Y-4.8974
X8.8911Y-4.9762
X8.8911Y-5.0549
X8.8911Y-5.2911
X8.8911Y-5.3699
X8.8911Y-5.4486
X8.8911Y-5.5273
X8.8911Y-5.7636
X8.9305Y-2.916
X8.9698Y-1.6691
X8.9698Y-1.7478
X8.9698Y-1.9053
X8.9698Y-1.984
X8.9698Y-2.0628
X8.9698Y-2.1415
X8.9698Y-2.2203
X8.9698Y-2.5352
X8.9698Y-2.614
X8.9698Y-2.6927
X8.9698Y-3.2439
X8.9698Y-3.7163
X8.9698Y-3.7951
X8.9698Y-3.8738
X8.9698Y-3.9525
X8.9698Y-4.5037
X8.9698Y-4.5825
X8.9698Y-4.6612
X8.9698Y-4.7399
X8.9698Y-4.8187
X8.9698Y-4.8974
X8.9698Y-4.9762
X8.9698Y-5.0549
X8.9698Y-5.2124
X8.9698Y-5.2911
X8.9698Y-5.3699
X8.9698Y-5.4486
X8.9698Y-5.6061
X8.9698Y-5.7636
X9.0191Y-2.916
X9.0486Y-1.6691
X9.0486Y-1.7478
X9.0486Y-1.8266
X9.0486Y-1.984
X9.0486Y-2.0628
X9.0486Y-2.1415
X9.0486Y-2.2203
X9.0486Y-2.3777
X9.0486Y-2.4565
X9.0486Y-2.5352
X9.0486Y-2.614
X9.0486Y-2.6927
X9.0486Y-2.7714
X9.0486Y-2.8502
X9.0486Y-3.2439
X9.0486Y-3.4014
X9.0486Y-3.7163
X9.0486Y-3.7951
X9.0486Y-3.8738
X9.0486Y-3.9525
X9.0486Y-4.2675
X9.0486Y-4.5037
X9.0486Y-4.5825
X9.0486Y-4.6612
X9.0486Y-4.7399
X9.0486Y-4.8187
X9.0486Y-4.8974
X9.0486Y-4.9762
X9.0486Y-5.0549
X9.0486Y-5.2124
X9.0486Y-5.2911
X9.0486Y-5.5273
X9.0486Y-5.6061
X9.0486Y-5.7636
X9.0763Y-3.3206
X9.0773Y-3.6345
X9.1273Y-1.6691
X9.1273Y-1.7478
X9.1273Y-1.8266
X9.1273Y-1.9053
X9.1273Y-2.0628
X9.1273Y-2.3777
X9.1273Y-2.4565
X9.1273Y-2.5352
X9.1273Y-2.614
X9.1273Y-2.6927
X9.1273Y-2.7714
X9.1273Y-2.8502
X9.1273Y-2.9289
X9.1273Y-4.8187
X9.1273Y-4.8974
X9.1273Y-4.9762
X9.1273Y-5.1336
X9.1273Y-5.2124
X9.1273Y-5.2911
X9.1273Y-5.6061
X9.1273Y-5.7636
X9.1386Y-3.3188
X9.1411Y-3.6345
X9.2061Y-1.6691
X9.2061Y-1.7478
X9.2061Y-1.8266
X9.2061Y-1.9053
X9.2061Y-2.4565
X9.2061Y-2.5352
X9.2061Y-2.614
X9.2061Y-2.6927
X9.2061Y-2.7714
X9.2061Y-2.8502
X9.2061Y-3.0864
X9.2061Y-3.1651
X9.2061Y-3.2439
X9.2061Y-3.4014
X9.2061Y-3.4801
X9.2061Y-3.5588
X9.2061Y-3.7163
X9.2061Y-4.5037
X9.2061Y-4.5825
X9.2061Y-4.6612
X9.2061Y-4.7399
X9.2061Y-4.8187
X9.2061Y-4.8974
X9.2061Y-5.0549
X9.2061Y-5.1336
X9.2061Y-5.2124
X9.2061Y-5.6061
X9.2061Y-5.7636
X9.247Y-4.4337
X9.2848Y-1.6691
X9.2848Y-1.7478
X9.2848Y-1.8266
X9.2848Y-2.0628
X9.2848Y-2.4565
X9.2848Y-2.5352
X9.2848Y-2.614
X9.2848Y-2.6927
X9.2848Y-2.7714
X9.2848Y-3.1651
X9.2848Y-3.2439
X9.2848Y-3.4014
X9.2848Y-3.4801
X9.2848Y-3.5588
X9.2848Y-3.8738
X9.2848Y-3.9525
X9.2848Y-4.0313
X9.2848Y-4.9762
X9.2848Y-5.0549
X9.2848Y-5.1336
X9.2848Y-5.2124
X9.2848Y-5.2911
X9.2848Y-5.6061
X9.2848Y-5.7636
X9.2943Y-4.4337
X9.3635Y-1.6691
X9.3635Y-1.7478
X9.3635Y-1.8266
X9.3635Y-1.984
X9.3635Y-2.0628
X9.3635Y-2.4565
X9.3635Y-2.5352
X9.3635Y-2.614
X9.3635Y-2.6927
X9.3635Y-2.8502
X9.3635Y-3.1651
X9.3635Y-3.2439
X9.3635Y-3.4014
X9.3635Y-3.4801
X9.3635Y-3.5588
X9.3635Y-3.9525
X9.3635Y-4.0313
X9.3635Y-4.11
X9.3635Y-4.1888
X9.3635Y-4.2675
X9.3635Y-4.3462
X9.3635Y-4.425
X9.3635Y-4.6612
X9.3635Y-4.7399
X9.3635Y-4.8187
X9.3635Y-4.8974
X9.3635Y-4.9762
X9.3635Y-5.0549
X9.3635Y-5.1336
X9.3635Y-5.2124
X9.3635Y-5.2911
X9.3635Y-5.6061
X9.3635Y-5.7636
X9.4423Y-1.6691
X9.4423Y-1.7478
X9.4423Y-1.8266
X9.4423Y-1.984
X9.4423Y-2.0628
X9.4423Y-2.1415
X9.4423Y-2.5352
X9.4423Y-2.614
X9.4423Y-2.7714
X9.4423Y-2.8502
X9.4423Y-3.1651
X9.4423Y-3.2439
X9.4423Y-3.4014
X9.4423Y-3.4801
X9.4423Y-3.9525
X9.4423Y-4.0313
X9.4423Y-4.11
X9.4423Y-4.1888
X9.4423Y-4.2675
X9.4423Y-4.7399
X9.4423Y-4.8187
X9.4423Y-4.8974
X9.4423Y-4.9762
X9.4423Y-5.0549
X9.4423Y-5.1336
X9.4423Y-5.3699
X9.4423Y-5.6061
X9.4423Y-5.7636
X9.521Y-1.6691
X9.521Y-1.7478
X9.521Y-1.8266
X9.521Y-2.5352
X9.521Y-2.6927
X9.521Y-2.7714
X9.521Y-2.8502
X9.521Y-2.9289
X9.521Y-3.2439
X9.521Y-3.4014
X9.521Y-3.6376
X9.521Y-3.9525
X9.521Y-4.0313
X9.521Y-4.11
X9.521Y-4.1888
X9.521Y-4.425
X9.521Y-4.7399
X9.521Y-4.8187
X9.521Y-4.8974
X9.521Y-4.9762
X9.521Y-5.0549
X9.521Y-5.1336
X9.521Y-5.3699
X9.521Y-5.6061
X9.521Y-5.7636
X9.5998Y-1.6691
X9.5998Y-1.7478
X9.5998Y-1.8266
X9.5998Y-1.984
X9.5998Y-2.2203
X9.5998Y-2.299
X9.5998Y-2.5352
X9.5998Y-2.6927
X9.5998Y-3.2439
X9.5998Y-3.5588
X9.5998Y-3.7163
X9.5998Y-4.0313
X9.5998Y-4.11
X9.5998Y-4.3462
X9.5998Y-4.425
X9.5998Y-4.7399
X9.5998Y-4.8187
X9.5998Y-4.8974
X9.5998Y-4.9762
X9.5998Y-5.3699
X9.5998Y-5.6061
X9.5998Y-5.7636
X9.6785Y-1.6691
X9.6785Y-1.7478
X9.6785Y-1.8266
X9.6785Y-1.984
X9.6785Y-2.1415
X9.6785Y-2.4565
X9.6785Y-2.5352
X9.6785Y-2.6927
X9.6785Y-2.7714
X9.6785Y-3.1651
X9.6785Y-3.2439
X9.6785Y-3.4801
X9.6785Y-4.0313
X9.6785Y-4.11
X9.6785Y-4.2675
X9.6785Y-4.3462
X9.6785Y-4.425
X9.6785Y-4.5037
X9.6785Y-4.8187
X9.6785Y-4.8974
X9.6785Y-4.9762
X9.6785Y-5.1336
X9.6785Y-5.2124
X9.6785Y-5.2911
X9.6785Y-5.3699
X9.6785Y-5.4486
X9.6785Y-5.5273
X9.6785Y-5.6061
X9.6785Y-5.7636
X9.7572Y-1.5903
X9.7572Y-1.6691
X9.7572Y-1.7478
X9.7572Y-1.8266
X9.7572Y-1.984
X9.7572Y-2.1415
X9.7572Y-2.3777
X9.7572Y-2.4565
X9.7572Y-2.5352
X9.7572Y-2.6927
X9.7572Y-2.7714
X9.7572Y-2.9289
X9.7572Y-3.1651
X9.7572Y-3.2439
X9.7572Y-3.4801
X9.7572Y-3.5588
X9.7572Y-3.9525
X9.7572Y-4.0313
X9.7572Y-4.11
X9.7572Y-4.2675
X9.7572Y-4.3462
X9.7572Y-4.8187
X9.7572Y-4.8974
X9.7572Y-5.1336
X9.7572Y-5.2124
X9.7572Y-5.2911
X9.7572Y-5.3699
X9.7572Y-5.4486
X9.7572Y-5.5273
X9.7572Y-5.7636
X9.836Y-1.5903
X9.836Y-1.8266
X9.836Y-1.984
X9.836Y-2.299
X9.836Y-2.3777
X9.836Y-2.4565
X9.836Y-2.5352
X9.836Y-2.6927
X9.836Y-2.7714
X9.836Y-2.9289
X9.836Y-3.0077
X9.836Y-3.0864
X9.836Y-3.1651
X9.836Y-3.2439
X9.836Y-3.4801
X9.836Y-3.5588
X9.836Y-3.7163
X9.836Y-3.9525
X9.836Y-4.0313
X9.836Y-4.11
X9.836Y-4.2675
X9.836Y-4.3462
X9.836Y-4.7399
X9.836Y-4.8187
X9.836Y-5.0549
X9.836Y-5.3699
X9.836Y-5.4486
X9.9147Y-2.2203
X9.9147Y-2.299
X9.9147Y-2.3777
X9.9147Y-2.4565
X9.9147Y-2.5352
X9.9147Y-2.6927
X9.9147Y-2.7714
X9.9147Y-2.9289
X9.9147Y-3.0077
X9.9147Y-3.0864
X9.9147Y-3.1651
X9.9147Y-3.2439
X9.9147Y-3.4801
X9.9147Y-3.5588
X9.9147Y-3.7163
X9.9147Y-3.7951
X9.9147Y-3.8738
X9.9147Y-3.9525
X9.9147Y-4.0313
X9.9147Y-4.11
X9.9147Y-4.2675
X9.9147Y-4.3462
X9.9147Y-4.5037
X9.9147Y-4.7399
X9.9147Y-4.9762
X9.9147Y-5.3699
X9.9639Y-2.5912
X9.9935Y-1.8266
X9.9935Y-2.7714
X9.9935Y-2.8502
X9.9935Y-2.9289
X9.9935Y-3.0077
X9.9935Y-3.0864
X9.9935Y-3.1651
X9.9935Y-3.2439
X9.9935Y-3.4801
X9.9935Y-3.5588
X9.9935Y-3.7163
X9.9935Y-3.7951
X9.9935Y-3.8738
X9.9935Y-3.9525
X9.9935Y-4.0313
X9.9935Y-4.11
X9.9935Y-4.2675
X9.9935Y-4.3462
X9.9935Y-4.5037
X9.9935Y-4.5825
X9.9935Y-4.6612
X9.9935Y-4.8974
X9.9935Y-4.9762
X9.9935Y-5.0549
X10.0467Y-3.3786
X10.0525Y-2.5912
X10.0683Y-4.1758
X10.0722Y-1.5903
X10.0722Y-1.6691
X10.0722Y-1.7478
X10.0722Y-1.8266
X10.0722Y-2.0628
X10.0722Y-2.1415
X10.0722Y-2.2203
X10.0722Y-2.299
X10.0722Y-2.3777
X10.0722Y-2.4565
X10.0722Y-2.5352
X10.0722Y-3.6376
X10.0722Y-3.7163
X10.0722Y-3.7951
X10.0722Y-4.3462
X10.0722Y-4.5037
X10.0722Y-4.5825
X10.0722Y-4.8187
X10.0722Y-4.8974
X10.0722Y-4.9762
X10.0722Y-5.0549
X10.0722Y-5.1336
X10.0722Y-5.2124
X10.094Y-3.3786
X10.1155Y-4.1758
X10.151Y-1.5903
X10.151Y-1.6691
X10.151Y-2.0628
X10.151Y-2.1415
X10.151Y-2.2203
X10.151Y-2.299
X10.151Y-2.3777
X10.151Y-2.4565
X10.151Y-2.6927
X10.151Y-2.7714
X10.151Y-2.8502
X10.151Y-2.9289
X10.151Y-3.0077
X10.151Y-3.0864
X10.151Y-3.1651
X10.151Y-3.2439
X10.151Y-3.4801
X10.151Y-3.9525
X10.151Y-4.0313
X10.151Y-4.425
X10.151Y-4.5037
X10.151Y-4.7399
X10.151Y-4.8187
X10.151Y-5.0549
X10.151Y-5.1336
X10.2297Y-1.5903
X10.2297Y-2.0628
X10.2297Y-2.1415
X10.2297Y-2.2203
X10.2297Y-2.299
X10.2297Y-2.3777
X10.2297Y-2.4565
X10.2297Y-2.7714
X10.2297Y-2.8502
X10.2297Y-2.9289
X10.2297Y-3.0077
X10.2297Y-3.0864
X10.2297Y-3.1651
X10.2297Y-3.2439
X10.2297Y-3.5588
X10.2297Y-3.6376
X10.2297Y-3.7163
X10.2297Y-3.7951
X10.2297Y-3.8738
X10.2297Y-3.9525
X10.2297Y-4.0313
X10.2297Y-4.6612
X10.2297Y-4.7399
X10.2297Y-4.8187
X10.2297Y-5.2911
X10.3084Y-2.0628
X10.3084Y-2.1415
X10.3084Y-2.2203
X10.3084Y-2.299
X10.3084Y-2.3777
X10.3084Y-2.4565
X10.3084Y-2.7714
X10.3084Y-2.8502
X10.3084Y-2.9289
X10.3084Y-3.0077
X10.3084Y-3.0864
X10.3084Y-3.1651
X10.3084Y-3.2439
X10.3084Y-3.5588
X10.3084Y-3.6376
X10.3084Y-3.7163
X10.3084Y-3.7951
X10.3084Y-3.8738
X10.3084Y-3.9525
X10.3084Y-4.3462
X10.3084Y-4.425
X10.3084Y-4.5037
X10.3084Y-4.5825
X10.3084Y-4.6612
X10.3084Y-4.7399
X10.3084Y-4.8187
X10.3084Y-5.1336
X10.3084Y-5.2124
X10.3084Y-5.2911
X10.3872Y-1.6691
X10.3872Y-2.1415
X10.3872Y-2.2203
X10.3872Y-2.299
X10.3872Y-2.3777
X10.3872Y-2.4565
X10.3872Y-2.8502
X10.3872Y-2.9289
X10.3872Y-3.0077
X10.3872Y-3.0864
X10.3872Y-3.1651
X10.3872Y-3.2439
X10.3872Y-3.6376
X10.3872Y-3.7163
X10.3872Y-3.7951
X10.3872Y-3.8738
X10.3872Y-4.425
X10.3872Y-4.5037
X10.3872Y-4.5825
X10.3872Y-4.6612
X10.3872Y-4.7399
X10.3872Y-4.8187
X10.3872Y-5.2124
X10.3872Y-5.2911
X10.4659Y-1.6691
X10.4659Y-1.7478
X10.4659Y-2.2203
X10.4659Y-2.299
X10.4659Y-2.3777
X10.4659Y-2.4565
X10.4659Y-2.8502
X10.4659Y-2.9289
X10.4659Y-3.0077
X10.4659Y-3.0864
X10.4659Y-3.1651
X10.4659Y-3.2439
X10.4659Y-3.6376
X10.4659Y-3.7163
X10.4659Y-3.7951
X10.4659Y-3.8738
X10.4659Y-4.0313
X10.4659Y-4.11
X10.4659Y-4.425
X10.4659Y-4.5037
X10.4659Y-4.5825
X10.4659Y-4.6612
X10.4659Y-4.7399
X10.4659Y-4.8187
X10.4659Y-4.8974
X10.4659Y-5.2124
X10.4659Y-5.2911
X10.5447Y-2.0628
X10.5447Y-2.299
X10.5447Y-2.3777
X10.5447Y-2.8502
X10.5447Y-2.9289
X10.5447Y-3.0077
X10.5447Y-3.0864
X10.5447Y-3.1651
X10.5447Y-3.6376
X10.5447Y-3.7163
X10.5447Y-3.7951
X10.5447Y-3.8738
X10.5447Y-4.425
X10.5447Y-4.5037
X10.5447Y-4.5825
X10.5447Y-4.6612
X10.5447Y-4.7399
X10.5447Y-5.2124
X10.5447Y-5.2911
X10.6234Y-1.8266
X10.6234Y-1.984
X10.6234Y-2.0628
X10.6234Y-2.1415
X10.6234Y-2.3777
X10.6234Y-2.7714
X10.6234Y-2.8502
X10.6234Y-2.9289
X10.6234Y-3.0077
X10.6234Y-3.0864
X10.6234Y-3.1651
X10.6234Y-3.5588
X10.6234Y-3.6376
X10.6234Y-3.7163
X10.6234Y-3.7951
X10.6234Y-3.8738
X10.6234Y-4.1888
X10.6234Y-4.3462
X10.6234Y-4.425
X10.6234Y-4.5037
X10.6234Y-4.5825
X10.6234Y-4.6612
X10.6234Y-4.7399
X10.6234Y-4.9762
X10.6234Y-5.1336
X10.6234Y-5.2124
X10.6234Y-5.2911
X10.7021Y-1.8266
X10.7021Y-1.984
X10.7021Y-2.0628
X10.7021Y-2.1415
X10.7021Y-2.3777
X10.7021Y-2.7714
X10.7021Y-2.8502
X10.7021Y-2.9289
X10.7021Y-3.0077
X10.7021Y-3.0864
X10.7021Y-3.1651
X10.7021Y-3.5588
X10.7021Y-3.6376
X10.7021Y-3.7163
X10.7021Y-3.7951
X10.7021Y-3.8738
X10.7021Y-4.1888
X10.7021Y-4.3462
X10.7021Y-4.425
X10.7021Y-4.5037
X10.7021Y-4.5825
X10.7021Y-4.6612
X10.7021Y-4.7399
X10.7021Y-4.9762
X10.7021Y-5.1336
X10.7021Y-5.2124
X10.7021Y-5.2911
X10.7809Y-1.6691
X10.7809Y-2.299
X10.7809Y-2.3777
X10.7809Y-2.6927
X10.7809Y-2.7714
X10.7809Y-2.8502
X10.7809Y-2.9289
X10.7809Y-3.0077
X10.7809Y-3.0864
X10.7809Y-3.1651
X10.7809Y-3.4801
X10.7809Y-3.5588
X10.7809Y-3.6376
X10.7809Y-3.7163
X10.7809Y-3.7951
X10.7809Y-3.8738
X10.7809Y-4.1888
X10.7809Y-4.2675
X10.7809Y-4.3462
X10.7809Y-4.425
X10.7809Y-4.5037
X10.7809Y-4.5825
X10.7809Y-4.6612
X10.7809Y-4.7399
X10.7809Y-4.9762
X10.7809Y-5.0549
X10.7809Y-5.1336
X10.7809Y-5.2911
X10.8301Y-2.5912
X10.8557Y-3.3786
X10.8596Y-1.6691
X10.8596Y-1.7478
X10.8596Y-1.8266
X10.8596Y-1.9053
X10.8596Y-1.984
X10.8596Y-2.0628
X10.8596Y-2.4565
X10.8596Y-2.6927
X10.8596Y-2.7714
X10.8596Y-2.8502
X10.8596Y-2.9289
X10.8596Y-3.0077
X10.8596Y-3.0864
X10.8596Y-3.1651
X10.8596Y-3.7951
X10.8596Y-3.8738
X10.8596Y-4.2675
X10.8596Y-4.3462
X10.8596Y-4.425
X10.8596Y-4.5037
X10.8596Y-4.5825
X10.8596Y-4.6612
X10.8596Y-4.7399
X10.8596Y-4.8187
X10.8596Y-4.8974
X10.8596Y-4.9762
X10.8596Y-5.0549
X10.8596Y-5.2911
X10.9029Y-3.3786
X10.9088Y-3.9396
X10.9187Y-2.5912
X10.9384Y-1.6691
X10.9384Y-1.9053
X10.9384Y-1.984
X10.9384Y-2.0628
X10.9384Y-2.2203
X10.9384Y-2.299
X10.9384Y-3.4801
X10.9384Y-3.5588
X10.9384Y-3.6376
X10.9384Y-5.2124
X10.9384Y-5.2911
X10.9876Y-2.6109
X10.9876Y-3.9396
X11.0171Y-1.984
X11.0171Y-2.0628
X11.0171Y-2.1415
X11.0171Y-2.2203
X11.0171Y-2.299
X11.0171Y-2.3777
X11.0171Y-2.4565
X11.0171Y-2.7714
X11.0171Y-2.8502
X11.0171Y-2.9289
X11.0171Y-3.0077
X11.0171Y-3.0864
X11.0171Y-3.1651
X11.0171Y-3.2439
X11.0171Y-3.5588
X11.0171Y-3.6376
X11.0171Y-3.7163
X11.0171Y-3.7951
X11.0171Y-3.8738
X11.0171Y-4.3462
X11.0171Y-4.425
X11.0171Y-4.5037
X11.0171Y-4.5825
X11.0171Y-4.6612
X11.0171Y-4.7399
X11.0171Y-4.8187
X11.0171Y-5.1336
X11.0171Y-5.2124
X11.0171Y-5.2911
X11.0958Y-1.6691
X11.0958Y-1.984
X11.0958Y-2.0628
X11.0958Y-2.1415
X11.0958Y-2.2203
X11.0958Y-2.299
X11.0958Y-2.3777
X11.0958Y-2.4565
X11.0958Y-2.7714
X11.0958Y-2.8502
X11.0958Y-2.9289
X11.0958Y-3.0077
X11.0958Y-3.0864
X11.0958Y-3.1651
X11.0958Y-3.2439
X11.0958Y-3.5588
X11.0958Y-3.6376
X11.0958Y-3.7163
X11.0958Y-3.7951
X11.0958Y-3.8738
X11.0958Y-3.9525
X11.0958Y-4.0313
X11.0958Y-4.3462
X11.0958Y-4.425
X11.0958Y-4.5037
X11.0958Y-4.5825
X11.0958Y-4.6612
X11.0958Y-4.7399
X11.0958Y-4.8187
X11.0958Y-5.1336
X11.0958Y-5.2124
X11.0958Y-5.2911
X11.1746Y-1.6691
X11.1746Y-1.984
X11.1746Y-2.0628
X11.1746Y-2.1415
X11.1746Y-2.2203
X11.1746Y-2.299
X11.1746Y-2.3777
X11.1746Y-2.4565
X11.1746Y-2.8502
X11.1746Y-2.9289
X11.1746Y-3.0077
X11.1746Y-3.0864
X11.1746Y-3.1651
X11.1746Y-3.2439
X11.1746Y-3.6376
X11.1746Y-3.7163
X11.1746Y-3.7951
X11.1746Y-3.8738
X11.1746Y-3.9525
X11.1746Y-4.0313
X11.1746Y-4.425
X11.1746Y-4.5037
X11.1746Y-4.5825
X11.1746Y-4.6612
X11.1746Y-4.7399
X11.1746Y-4.8187
X11.1746Y-5.2124
X11.1746Y-5.2911
X11.2533Y-1.6691
X11.2533Y-1.7478
X11.2533Y-2.0628
X11.2533Y-2.2203
X11.2533Y-2.8502
X11.2533Y-2.9289
X11.2533Y-3.0077
X11.2533Y-3.0864
X11.2533Y-3.6376
X11.2533Y-3.7163
X11.2533Y-3.7951
X11.2533Y-3.8738
X11.2533Y-4.425
X11.2533Y-4.5037
X11.2533Y-4.5825
X11.2533Y-4.6612
X11.2533Y-4.7399
X11.2533Y-4.8187
X11.2533Y-4.8974
X11.2533Y-5.2124
X11.2533Y-5.2911
X11.3321Y-2.0628
X11.3321Y-2.3777
X11.3321Y-2.8502
X11.3321Y-2.9289
X11.3321Y-3.0077
X11.3321Y-3.6376
X11.3321Y-3.7163
X11.3321Y-3.7951
X11.3321Y-3.9525
X11.3321Y-4.425
X11.3321Y-4.5037
X11.3321Y-4.5825
X11.3321Y-4.6612
X11.3321Y-4.7399
X11.3321Y-5.2124
X11.3321Y-5.2911
X11.4108Y-1.8266
X11.4108Y-1.984
X11.4108Y-2.0628
X11.4108Y-2.1415
X11.4108Y-2.299
X11.4108Y-2.3777
X11.4108Y-3.1651
X11.4108Y-3.8738
X11.4108Y-3.9525
X11.4108Y-4.5825
X11.4108Y-4.6612
X11.4108Y-4.7399
X11.4108Y-4.9762
X11.4108Y-5.1336
X11.4108Y-5.2124
X11.4108Y-5.2911
X11.4895Y-1.8266
X11.4895Y-1.984
X11.4895Y-2.0628
X11.4895Y-2.1415
X11.4895Y-2.299
X11.4895Y-2.3777
X11.4895Y-2.614
X11.4895Y-2.7714
X11.4895Y-2.8502
X11.4895Y-3.0864
X11.4895Y-3.1651
X11.4895Y-3.4014
X11.4895Y-3.5588
X11.4895Y-3.6376
X11.4895Y-3.8738
X11.4895Y-3.9525
X11.4895Y-4.1888
X11.4895Y-4.3462
X11.4895Y-4.425
X11.4895Y-4.9762
X11.4895Y-5.1336
X11.4895Y-5.2124
X11.4895Y-5.3699
X11.5683Y-1.6691
X11.5683Y-1.9053
X11.5683Y-1.984
X11.5683Y-2.0628
X11.5683Y-2.299
X11.5683Y-2.3777
X11.5683Y-3.0864
X11.5683Y-3.1651
X11.5683Y-3.8738
X11.5683Y-3.9525
X11.5683Y-4.9762
X11.5683Y-5.0549
X11.5683Y-5.1336
X11.5683Y-5.2911
X11.5683Y-5.3699
T3
X6.0655Y-3.0605
X6.0655Y-3.1605
X6.0655Y-3.2605
X6.0655Y-3.3605
X6.0655Y-3.4605
X6.1655Y-3.0605
X6.1655Y-3.1605
X6.1655Y-3.2605
X6.1655Y-3.3605
T4
X5.3045Y-2.525
X5.3045Y-2.625
X5.3045Y-2.725
X5.3045Y-2.825
X5.4045Y-2.525
X5.4045Y-2.625
X5.4045Y-2.725
X5.4045Y-2.825
X5.4927Y-3.4573
X5.4927Y-3.5573
X5.5927Y-3.4573
X5.5927Y-3.5573
X5.6927Y-3.4573
X5.6927Y-3.5573
X5.7927Y-3.4573
X5.7927Y-3.5573
X5.8927Y-3.4573
X5.8927Y-3.5573
X6.4957Y-2.5321
X6.5957Y-2.5321
T5
X1.76Y-1.7053
X1.7632Y-5.179
X4.7592Y-5.39
X5.8399Y-6.3652
X6.9206Y-5.39
X9.9167Y-5.179
X9.9198Y-1.7053
T2
G00X5.6698Y-2.1
M15
G01X5.6698Y-2.1315
M16
G05
G00X5.6698Y-2.2587
M15
G01X5.6698Y-2.302
M16
G05
G00X6.01Y-2.1
M15
G01X6.01Y-2.1315
M16
G05
G00X6.01Y-2.2587
M15
G01X6.01Y-2.302
M16
G05
M30
