  0
SECTION
  2
HEADER
  9
$ANGBASE
  50
0.0
  9
$ANGDIR
  70
1
  9
$MEASUREMENT
  70
0
  0
ENDSEC
  0
SECTION
  2
TABLES
  0
TABLE
  2
LTYPE
  70
4
  0
LTYPE
  5
40F
  2
CONTINUOUS
  70
0
  3
Solid line
  72
65
  73
0
  40
0.0
  0
LTYPE
  5
410
  2
DASHDOT
 70
0
  3
Dash Dot ____ _ ____ _
 72
65
 73
4
 40
2.0
 49
1.25
 49
-0.25
 49
0.25
 49
-0.25
  0
LTYPE
  5
411
  2
DASHED
 70
0
  3
Dashed __ __ __ __ __
 72
65
 73
2
 40
0.75
 49
0.5
 49
-0.25
  0
LTYPE
  5
43B
  2
DOTTED
 70
0
  3
Dotted .  .  .  .
 72
65
 73
2
 40
0.2
 49
0.0
 49
-0.2
  0
ENDTAB
  0
TABLE
  2
STYLE
  70
4
  0
STYLE
  2
KICAD
  70
0
  40
0
  41
1
  42
1
  50
0
  71
0
  3
isocp.shx
  0
STYLE
  2
KICADB
  70
0
  40
0
  41
1
  42
1
  50
0
  71
0
  3
isocp.shx
  0
STYLE
  2
KICADI
  70
0
  40
0
  41
1
  42
1
  50
15
  71
0
  3
isocp.shx
  0
STYLE
  2
KICADBI
  70
0
  40
0
  41
1
  42
1
  50
15
  71
0
  3
isocp.shx
  0
ENDTAB
  0
TABLE
  2
LAYER
  70
1
  0
LAYER
  2
BLACK
  70
0
  62
7
  6
CONTINUOUS
  0
ENDTAB
  0
ENDSEC
  0
SECTION
  2
ENTITIES
0
LINE
8
BLACK
6
CONTINUOUS
10
3.0414829527559055
20
-9.2969568110236214
11
3.0420156299212597
21
-9.297489488188976
0
LINE
8
BLACK
6
CONTINUOUS
10
3.0420156299212597
20
-9.297489488188976
11
3.0420905511811025
21
-9.2978661417322837
0
LINE
8
BLACK
6
CONTINUOUS
10
3.0420905511811025
20
-9.2978661417322837
11
3.0420905511811025
21
-9.4376299212598429
0
LINE
8
BLACK
6
CONTINUOUS
10
3.0420905511811025
20
-9.4376299212598429
11
3.0420156299212597
21
-9.4380065748031488
0
LINE
8
BLACK
6
CONTINUOUS
10
3.0420156299212597
20
-9.4380065748031488
11
3.0414829527559055
21
-9.4385392519685034
0
LINE
8
BLACK
6
CONTINUOUS
10
3.0414829527559055
20
-9.4385392519685034
11
3.0411062992125983
21
-9.4386141732283466
0
LINE
8
BLACK
6
CONTINUOUS
10
3.0411062992125983
20
-9.4386141732283466
11
2.7005551181102363
21
-9.4386141732283466
0
LINE
8
BLACK
6
CONTINUOUS
10
2.7005551181102363
20
-9.4386141732283466
11
2.7001784645669291
21
-9.4385392519685034
0
LINE
8
BLACK
6
CONTINUOUS
10
2.7001784645669291
20
-9.4385392519685034
11
2.6996457874015749
21
-9.4380065748031488
0
LINE
8
BLACK
6
CONTINUOUS
10
2.6996457874015749
20
-9.4380065748031488
11
2.6995708661417321
21
-9.4376299212598429
0
LINE
8
BLACK
6
CONTINUOUS
10
2.6995708661417321
20
-9.4376299212598429
11
2.6995708661417321
21
-9.2978661417322837
0
LINE
8
BLACK
6
CONTINUOUS
10
2.6995708661417321
20
-9.2978661417322837
11
2.6996457874015749
21
-9.297489488188976
0
LINE
8
BLACK
6
CONTINUOUS
10
2.6996457874015749
20
-9.297489488188976
11
2.7001784645669291
21
-9.2969568110236214
0
LINE
8
BLACK
6
CONTINUOUS
10
2.7001784645669291
20
-9.2969568110236214
11
2.7005551181102363
21
-9.2968818897637799
0
LINE
8
BLACK
6
CONTINUOUS
10
2.7005551181102363
20
-9.2968818897637799
11
3.0411062992125983
21
-9.2968818897637799
0
LINE
8
BLACK
6
CONTINUOUS
10
3.0411062992125983
20
-9.2968818897637799
11
3.0414829527559055
21
-9.2969568110236214
0
LINE
8
BLACK
6
CONTINUOUS
10
2.70153937007874
20
-9.2988503937007874
11
2.70153937007874
21
-9.4366456692913392
0
LINE
8
BLACK
6
CONTINUOUS
10
2.70153937007874
20
-9.4366456692913392
11
3.0401220472440946
21
-9.4366456692913392
0
LINE
8
BLACK
6
CONTINUOUS
10
3.0401220472440946
20
-9.4366456692913392
11
3.0401220472440946
21
-9.2988503937007874
0
LINE
8
BLACK
6
CONTINUOUS
10
3.0401220472440946
20
-9.2988503937007874
11
2.70153937007874
21
-9.2988503937007874
0
LINE
8
BLACK
6
CONTINUOUS
10
3.5422703543307086
20
-9.3087678346456695
11
3.5428030314960628
21
-9.3093005118110241
0
LINE
8
BLACK
6
CONTINUOUS
10
3.5428030314960628
20
-9.3093005118110241
11
3.5428779527559056
21
-9.30967716535433
0
LINE
8
BLACK
6
CONTINUOUS
10
3.5428779527559056
20
-9.30967716535433
11
3.5428779527559056
21
-9.4277874015748022
0
LINE
8
BLACK
6
CONTINUOUS
10
3.5428779527559056
20
-9.4277874015748022
11
3.5428030314960628
21
-9.4281640551181098
0
LINE
8
BLACK
6
CONTINUOUS
10
3.5428030314960628
20
-9.4281640551181098
11
3.5422703543307086
21
-9.4286967322834645
0
LINE
8
BLACK
6
CONTINUOUS
10
3.5422703543307086
20
-9.4286967322834645
11
3.5418937007874014
21
-9.4287716535433077
0
LINE
8
BLACK
6
CONTINUOUS
10
3.5418937007874014
20
-9.4287716535433077
11
3.0592165354330709
21
-9.4287716535433077
0
LINE
8
BLACK
6
CONTINUOUS
10
3.0592165354330709
20
-9.4287716535433077
11
3.0588398818897637
21
-9.4286967322834645
0
LINE
8
BLACK
6
CONTINUOUS
10
3.0588398818897637
20
-9.4286967322834645
11
3.0583072047244095
21
-9.4281640551181098
0
LINE
8
BLACK
6
CONTINUOUS
10
3.0583072047244095
20
-9.4281640551181098
11
3.0582322834645668
21
-9.4277874015748022
0
LINE
8
BLACK
6
CONTINUOUS
10
3.0582322834645668
20
-9.4277874015748022
11
3.0582322834645668
21
-9.30967716535433
0
LINE
8
BLACK
6
CONTINUOUS
10
3.0582322834645668
20
-9.30967716535433
11
3.0583072047244095
21
-9.3093005118110241
0
LINE
8
BLACK
6
CONTINUOUS
10
3.0583072047244095
20
-9.3093005118110241
11
3.0588398818897637
21
-9.3087678346456695
0
LINE
8
BLACK
6
CONTINUOUS
10
3.0588398818897637
20
-9.3087678346456695
11
3.0592165354330709
21
-9.3086929133858263
0
LINE
8
BLACK
6
CONTINUOUS
10
3.0592165354330709
20
-9.3086929133858263
11
3.5418937007874014
21
-9.3086929133858263
0
LINE
8
BLACK
6
CONTINUOUS
10
3.5418937007874014
20
-9.3086929133858263
11
3.5422703543307086
21
-9.3087678346456695
0
LINE
8
BLACK
6
CONTINUOUS
10
3.0602007874015746
20
-9.3106614173228337
11
3.0602007874015746
21
-9.4268031496062985
0
LINE
8
BLACK
6
CONTINUOUS
10
3.0602007874015746
20
-9.4268031496062985
11
3.5409094488188977
21
-9.4268031496062985
0
LINE
8
BLACK
6
CONTINUOUS
10
3.5409094488188977
20
-9.4268031496062985
11
3.5409094488188977
21
-9.3106614173228337
0
LINE
8
BLACK
6
CONTINUOUS
10
3.5409094488188977
20
-9.3106614173228337
11
3.0602007874015746
21
-9.3106614173228337
0
LINE
8
BLACK
6
CONTINUOUS
10
5.0249475196850391
20
-8.2729410629921265
11
5.0254801968503937
21
-8.2734737401574794
0
LINE
8
BLACK
6
CONTINUOUS
10
5.0254801968503937
20
-8.2734737401574794
11
5.025555118110236
21
-8.273850393700787
0
LINE
8
BLACK
6
CONTINUOUS
10
5.025555118110236
20
-8.273850393700787
11
5.025555118110236
21
-9.2722755905511818
0
LINE
8
BLACK
6
CONTINUOUS
10
5.025555118110236
20
-9.2722755905511818
11
5.0254801968503937
21
-9.2726522440944876
0
LINE
8
BLACK
6
CONTINUOUS
10
5.0254801968503937
20
-9.2726522440944876
11
5.0249475196850391
21
-9.2731849212598423
0
LINE
8
BLACK
6
CONTINUOUS
10
5.0249475196850391
20
-9.2731849212598423
11
5.0245708661417323
21
-9.2732598425196855
0
LINE
8
BLACK
6
CONTINUOUS
10
5.0245708661417323
20
-9.2732598425196855
11
2.5286149606299211
21
-9.2732598425196855
0
LINE
8
BLACK
6
CONTINUOUS
10
2.5286149606299211
20
-9.2732598425196855
11
2.5282383070866139
21
-9.2731849212598423
0
LINE
8
BLACK
6
CONTINUOUS
10
2.5282383070866139
20
-9.2731849212598423
11
2.5277056299212597
21
-9.2726522440944876
0
LINE
8
BLACK
6
CONTINUOUS
10
2.5277056299212597
20
-9.2726522440944876
11
2.5276307086614174
21
-9.2722755905511818
0
LINE
8
BLACK
6
CONTINUOUS
10
2.5276307086614174
20
-9.2722755905511818
11
2.5276307086614174
21
-8.273850393700787
0
LINE
8
BLACK
6
CONTINUOUS
10
2.5276307086614174
20
-8.273850393700787
11
2.5277056299212597
21
-8.2734737401574794
0
LINE
8
BLACK
6
CONTINUOUS
10
2.5277056299212597
20
-8.2734737401574794
11
2.5282383070866139
21
-8.2729410629921265
0
LINE
8
BLACK
6
CONTINUOUS
10
2.5282383070866139
20
-8.2729410629921265
11
2.5286149606299211
21
-8.2728661417322833
0
LINE
8
BLACK
6
CONTINUOUS
10
2.5286149606299211
20
-8.2728661417322833
11
5.0245708661417323
21
-8.2728661417322833
0
LINE
8
BLACK
6
CONTINUOUS
10
5.0245708661417323
20
-8.2728661417322833
11
5.0249475196850391
21
-8.2729410629921265
0
LINE
8
BLACK
6
CONTINUOUS
10
2.5295992125984252
20
-8.2748346456692907
11
2.5295992125984252
21
-9.2712913385826763
0
LINE
8
BLACK
6
CONTINUOUS
10
2.5295992125984252
20
-9.2712913385826763
11
5.0235866141732286
21
-9.2712913385826763
0
LINE
8
BLACK
6
CONTINUOUS
10
5.0235866141732286
20
-9.2712913385826763
11
5.0235866141732286
21
-8.2748346456692907
0
LINE
8
BLACK
6
CONTINUOUS
10
5.0235866141732286
20
-8.2748346456692907
11
2.5295992125984252
21
-8.2748346456692907
0
LINE
8
BLACK
6
CONTINUOUS
10
10.0639238976377943
20
-9.0646733464566935
11
10.0644565748031489
21
-9.0652060236220464
0
LINE
8
BLACK
6
CONTINUOUS
10
10.0644565748031489
20
-9.0652060236220464
11
10.0645314960629921
21
-9.065582677165354
0
LINE
8
BLACK
6
CONTINUOUS
10
10.0645314960629921
20
-9.065582677165354
11
10.0645314960629921
21
-9.1836929133858263
0
LINE
8
BLACK
6
CONTINUOUS
10
10.0645314960629921
20
-9.1836929133858263
11
10.0644565748031489
21
-9.1840695669291339
0
LINE
8
BLACK
6
CONTINUOUS
10
10.0644565748031489
20
-9.1840695669291339
11
10.0639238976377943
21
-9.1846022440944886
0
LINE
8
BLACK
6
CONTINUOUS
10
10.0639238976377943
20
-9.1846022440944886
11
10.0635472440944884
21
-9.18467716535433
0
LINE
8
BLACK
6
CONTINUOUS
10
10.0635472440944884
20
-9.18467716535433
11
9.5808700787401566
21
-9.18467716535433
0
LINE
8
BLACK
6
CONTINUOUS
10
9.5808700787401566
20
-9.18467716535433
11
9.5804934251968508
21
-9.1846022440944886
0
LINE
8
BLACK
6
CONTINUOUS
10
9.5804934251968508
20
-9.1846022440944886
11
9.5799607480314961
21
-9.1840695669291339
0
LINE
8
BLACK
6
CONTINUOUS
10
9.5799607480314961
20
-9.1840695669291339
11
9.5798858267716529
21
-9.1836929133858263
0
LINE
8
BLACK
6
CONTINUOUS
10
9.5798858267716529
20
-9.1836929133858263
11
9.5798858267716529
21
-9.065582677165354
0
LINE
8
BLACK
6
CONTINUOUS
10
9.5798858267716529
20
-9.065582677165354
11
9.5799607480314961
21
-9.0652060236220464
0
LINE
8
BLACK
6
CONTINUOUS
10
9.5799607480314961
20
-9.0652060236220464
11
9.5804934251968508
21
-9.0646733464566935
0
LINE
8
BLACK
6
CONTINUOUS
10
9.5804934251968508
20
-9.0646733464566935
11
9.5808700787401566
21
-9.0645984251968503
0
LINE
8
BLACK
6
CONTINUOUS
10
9.5808700787401566
20
-9.0645984251968503
11
10.0635472440944884
21
-9.0645984251968503
0
LINE
8
BLACK
6
CONTINUOUS
10
10.0635472440944884
20
-9.0645984251968503
11
10.0639238976377943
21
-9.0646733464566935
0
LINE
8
BLACK
6
CONTINUOUS
10
9.5818543307086603
20
-9.0665669291338578
11
9.5818543307086603
21
-9.1827086614173226
0
LINE
8
BLACK
6
CONTINUOUS
10
9.5818543307086603
20
-9.1827086614173226
11
10.0625629921259847
21
-9.1827086614173226
0
LINE
8
BLACK
6
CONTINUOUS
10
10.0625629921259847
20
-9.1827086614173226
11
10.0625629921259847
21
-9.0665669291338578
0
LINE
8
BLACK
6
CONTINUOUS
10
10.0625629921259847
20
-9.0665669291338578
11
9.5818543307086603
21
-9.0665669291338578
0
LINE
8
BLACK
6
CONTINUOUS
10
10.0639238976377943
20
-8.9308150787401566
11
10.0644565748031489
21
-8.9313477559055112
0
LINE
8
BLACK
6
CONTINUOUS
10
10.0644565748031489
20
-8.9313477559055112
11
10.0645314960629921
21
-8.9317244094488188
0
LINE
8
BLACK
6
CONTINUOUS
10
10.0645314960629921
20
-8.9317244094488188
11
10.0645314960629921
21
-9.0498346456692911
0
LINE
8
BLACK
6
CONTINUOUS
10
10.0645314960629921
20
-9.0498346456692911
11
10.0644565748031489
21
-9.0502112992125987
0
LINE
8
BLACK
6
CONTINUOUS
10
10.0644565748031489
20
-9.0502112992125987
11
10.0639238976377943
21
-9.0507439763779534
0
LINE
8
BLACK
6
CONTINUOUS
10
10.0639238976377943
20
-9.0507439763779534
11
10.0635472440944884
21
-9.0508188976377948
0
LINE
8
BLACK
6
CONTINUOUS
10
10.0635472440944884
20
-9.0508188976377948
11
9.5808700787401566
21
-9.0508188976377948
0
LINE
8
BLACK
6
CONTINUOUS
10
9.5808700787401566
20
-9.0508188976377948
11
9.5804934251968508
21
-9.0507439763779534
0
LINE
8
BLACK
6
CONTINUOUS
10
9.5804934251968508
20
-9.0507439763779534
11
9.5799607480314961
21
-9.0502112992125987
0
LINE
8
BLACK
6
CONTINUOUS
10
9.5799607480314961
20
-9.0502112992125987
11
9.5798858267716529
21
-9.0498346456692911
0
LINE
8
BLACK
6
CONTINUOUS
10
9.5798858267716529
20
-9.0498346456692911
11
9.5798858267716529
21
-8.9317244094488188
0
LINE
8
BLACK
6
CONTINUOUS
10
9.5798858267716529
20
-8.9317244094488188
11
9.5799607480314961
21
-8.9313477559055112
0
LINE
8
BLACK
6
CONTINUOUS
10
9.5799607480314961
20
-8.9313477559055112
11
9.5804934251968508
21
-8.9308150787401566
0
LINE
8
BLACK
6
CONTINUOUS
10
9.5804934251968508
20
-8.9308150787401566
11
9.5808700787401566
21
-8.9307401574803151
0
LINE
8
BLACK
6
CONTINUOUS
10
9.5808700787401566
20
-8.9307401574803151
11
10.0635472440944884
21
-8.9307401574803151
0
LINE
8
BLACK
6
CONTINUOUS
10
10.0635472440944884
20
-8.9307401574803151
11
10.0639238976377943
21
-8.9308150787401566
0
LINE
8
BLACK
6
CONTINUOUS
10
9.5818543307086603
20
-8.9327086614173226
11
9.5818543307086603
21
-9.0488503937007874
0
LINE
8
BLACK
6
CONTINUOUS
10
9.5818543307086603
20
-9.0488503937007874
11
10.0625629921259847
21
-9.0488503937007874
0
LINE
8
BLACK
6
CONTINUOUS
10
10.0625629921259847
20
-9.0488503937007874
11
10.0625629921259847
21
-8.9327086614173226
0
LINE
8
BLACK
6
CONTINUOUS
10
10.0625629921259847
20
-8.9327086614173226
11
9.5818543307086603
21
-8.9327086614173226
0
LINE
8
BLACK
6
CONTINUOUS
10
10.1897112992125987
20
-8.4377048425196843
11
10.1902439763779533
21
-8.438237519685039
0
LINE
8
BLACK
6
CONTINUOUS
10
10.1902439763779533
20
-8.438237519685039
11
10.1903188976377947
21
-8.4386141732283466
0
LINE
8
BLACK
6
CONTINUOUS
10
10.1903188976377947
20
-8.4386141732283466
11
10.1903188976377947
21
-8.7791653543307078
0
LINE
8
BLACK
6
CONTINUOUS
10
10.1903188976377947
20
-8.7791653543307078
11
10.1902439763779533
21
-8.7795420078740154
0
LINE
8
BLACK
6
CONTINUOUS
10
10.1902439763779533
20
-8.7795420078740154
11
10.1897112992125987
21
-8.7800746850393701
0
LINE
8
BLACK
6
CONTINUOUS
10
10.1897112992125987
20
-8.7800746850393701
11
10.189334645669291
21
-8.7801496062992133
0
LINE
8
BLACK
6
CONTINUOUS
10
10.189334645669291
20
-8.7801496062992133
11
10.0495708661417318
21
-8.7801496062992133
0
LINE
8
BLACK
6
CONTINUOUS
10
10.0495708661417318
20
-8.7801496062992133
11
10.0491942125984242
21
-8.7800746850393701
0
LINE
8
BLACK
6
CONTINUOUS
10
10.0491942125984242
20
-8.7800746850393701
11
10.0486615354330713
21
-8.7795420078740154
0
LINE
8
BLACK
6
CONTINUOUS
10
10.0486615354330713
20
-8.7795420078740154
11
10.0485866141732281
21
-8.7791653543307078
0
LINE
8
BLACK
6
CONTINUOUS
10
10.0485866141732281
20
-8.7791653543307078
11
10.0485866141732281
21
-8.4386141732283466
0
LINE
8
BLACK
6
CONTINUOUS
10
10.0485866141732281
20
-8.4386141732283466
11
10.0486615354330713
21
-8.438237519685039
0
LINE
8
BLACK
6
CONTINUOUS
10
10.0486615354330713
20
-8.438237519685039
11
10.0491942125984242
21
-8.4377048425196843
0
LINE
8
BLACK
6
CONTINUOUS
10
10.0491942125984242
20
-8.4377048425196843
11
10.0495708661417318
21
-8.4376299212598429
0
LINE
8
BLACK
6
CONTINUOUS
10
10.0495708661417318
20
-8.4376299212598429
11
10.189334645669291
21
-8.4376299212598429
0
LINE
8
BLACK
6
CONTINUOUS
10
10.189334645669291
20
-8.4376299212598429
11
10.1897112992125987
21
-8.4377048425196843
0
LINE
8
BLACK
6
CONTINUOUS
10
10.0505551181102355
20
-8.4395984251968503
11
10.0505551181102355
21
-8.7781811023622041
0
LINE
8
BLACK
6
CONTINUOUS
10
10.0505551181102355
20
-8.7781811023622041
11
10.1883503937007873
21
-8.7781811023622041
0
LINE
8
BLACK
6
CONTINUOUS
10
10.1883503937007873
20
-8.7781811023622041
11
10.1883503937007873
21
-8.4395984251968503
0
LINE
8
BLACK
6
CONTINUOUS
10
10.1883503937007873
20
-8.4395984251968503
11
10.0505551181102355
21
-8.4395984251968503
0
LINE
8
BLACK
6
CONTINUOUS
10
8.3844116535433066
20
-8.5095325590551187
11
8.3970017322834636
21
-8.5124061811023619
0
LINE
8
BLACK
6
CONTINUOUS
10
8.3970017322834636
20
-8.5124061811023619
11
8.4091909055118101
21
-8.5166713385826771
0
LINE
8
BLACK
6
CONTINUOUS
10
8.4091909055118101
20
-8.5166713385826771
11
8.4208259055118102
21
-8.522274448818898
0
LINE
8
BLACK
6
CONTINUOUS
10
8.4208259055118102
20
-8.522274448818898
11
8.4317603937007863
21
-8.5291450393700785
0
LINE
8
BLACK
6
CONTINUOUS
10
8.4317603937007863
20
-8.5291450393700785
11
8.4418568503936999
21
-8.5371967322834639
0
LINE
8
BLACK
6
CONTINUOUS
10
8.4418568503936999
20
-8.5371967322834639
11
8.4509883070866145
21
-8.5463281889763785
0
LINE
8
BLACK
6
CONTINUOUS
10
8.4509883070866145
20
-8.5463281889763785
11
8.4590399999999999
21
-8.5564246456692903
0
LINE
8
BLACK
6
CONTINUOUS
10
8.4590399999999999
20
-8.5564246456692903
11
8.4659105905511804
21
-8.5673591338582682
0
LINE
8
BLACK
6
CONTINUOUS
10
8.4659105905511804
20
-8.5673591338582682
11
8.4715137007874013
21
-8.5789941338582683
0
LINE
8
BLACK
6
CONTINUOUS
10
8.4715137007874013
20
-8.5789941338582683
11
8.4757788582677165
21
-8.5911833070866148
0
LINE
8
BLACK
6
CONTINUOUS
10
8.4757788582677165
20
-8.5911833070866148
11
8.4786524803149597
21
-8.6037733858267718
0
LINE
8
BLACK
6
CONTINUOUS
10
8.4786524803149597
20
-8.6037733858267718
11
8.4800983464566926
21
-8.6166060629921262
0
LINE
8
BLACK
6
CONTINUOUS
10
8.4800983464566926
20
-8.6166060629921262
11
8.4800983464566926
21
-8.6295199212598419
0
LINE
8
BLACK
6
CONTINUOUS
10
8.4800983464566926
20
-8.6295199212598419
11
8.4786524803149597
21
-8.6423525984251963
0
LINE
8
BLACK
6
CONTINUOUS
10
8.4786524803149597
20
-8.6423525984251963
11
8.4757788582677165
21
-8.6549426771653533
0
LINE
8
BLACK
6
CONTINUOUS
10
8.4757788582677165
20
-8.6549426771653533
11
8.4715137007874013
21
-8.6671318503936998
0
LINE
8
BLACK
6
CONTINUOUS
10
8.4715137007874013
20
-8.6671318503936998
11
8.4659105905511804
21
-8.6787668503936999
0
LINE
8
BLACK
6
CONTINUOUS
10
8.4659105905511804
20
-8.6787668503936999
11
8.4590399999999999
21
-8.6897013385826778
0
LINE
8
BLACK
6
CONTINUOUS
10
8.4590399999999999
20
-8.6897013385826778
11
8.4509883070866145
21
-8.6997977952755896
0
LINE
8
BLACK
6
CONTINUOUS
10
8.4509883070866145
20
-8.6997977952755896
11
8.4418568503936999
21
-8.7089292519685042
0
LINE
8
BLACK
6
CONTINUOUS
10
8.4418568503936999
20
-8.7089292519685042
11
8.4317603937007863
21
-8.7169809448818896
0
LINE
8
BLACK
6
CONTINUOUS
10
8.4317603937007863
20
-8.7169809448818896
11
8.4208259055118102
21
-8.7238515354330701
0
LINE
8
BLACK
6
CONTINUOUS
10
8.4208259055118102
20
-8.7238515354330701
11
8.4091909055118101
21
-8.729454645669291
0
LINE
8
BLACK
6
CONTINUOUS
10
8.4091909055118101
20
-8.729454645669291
11
8.3970017322834636
21
-8.7337198031496062
0
LINE
8
BLACK
6
CONTINUOUS
10
8.3970017322834636
20
-8.7337198031496062
11
8.3844116535433066
21
-8.7365934251968493
0
LINE
8
BLACK
6
CONTINUOUS
10
8.3844116535433066
20
-8.7365934251968493
11
8.3715789763779522
21
-8.7380392913385823
0
LINE
8
BLACK
6
CONTINUOUS
10
8.3715789763779522
20
-8.7380392913385823
11
8.3586651181102365
21
-8.7380392913385823
0
LINE
8
BLACK
6
CONTINUOUS
10
8.3586651181102365
20
-8.7380392913385823
11
8.3458324409448821
21
-8.7365934251968493
0
LINE
8
BLACK
6
CONTINUOUS
10
8.3458324409448821
20
-8.7365934251968493
11
8.3332423622047234
21
-8.7337198031496062
0
LINE
8
BLACK
6
CONTINUOUS
10
8.3332423622047234
20
-8.7337198031496062
11
8.3210531889763786
21
-8.729454645669291
0
LINE
8
BLACK
6
CONTINUOUS
10
8.3210531889763786
20
-8.729454645669291
11
8.3094181889763785
21
-8.7238515354330701
0
LINE
8
BLACK
6
CONTINUOUS
10
8.3094181889763785
20
-8.7238515354330701
11
8.2984837007874006
21
-8.7169809448818896
0
LINE
8
BLACK
6
CONTINUOUS
10
8.2984837007874006
20
-8.7169809448818896
11
8.2883872440944888
21
-8.7089292519685042
0
LINE
8
BLACK
6
CONTINUOUS
10
8.2883872440944888
20
-8.7089292519685042
11
8.2792557874015742
21
-8.6997977952755896
0
LINE
8
BLACK
6
CONTINUOUS
10
8.2792557874015742
20
-8.6997977952755896
11
8.2712040944881888
21
-8.6897013385826778
0
LINE
8
BLACK
6
CONTINUOUS
10
8.2712040944881888
20
-8.6897013385826778
11
8.2643335039370083
21
-8.6787668503936999
0
LINE
8
BLACK
6
CONTINUOUS
10
8.2643335039370083
20
-8.6787668503936999
11
8.2587303937007874
21
-8.6671318503936998
0
LINE
8
BLACK
6
CONTINUOUS
10
8.2587303937007874
20
-8.6671318503936998
11
8.2544652362204722
21
-8.6549426771653533
0
LINE
8
BLACK
6
CONTINUOUS
10
8.2544652362204722
20
-8.6549426771653533
11
8.2515916141732273
21
-8.6423525984251963
0
LINE
8
BLACK
6
CONTINUOUS
10
8.2515916141732273
20
-8.6423525984251963
11
8.2501457480314961
21
-8.6295199212598419
0
LINE
8
BLACK
6
CONTINUOUS
10
8.2501457480314961
20
-8.6295199212598419
11
8.2501457480314961
21
-8.6167064173228347
0
LINE
8
BLACK
6
CONTINUOUS
10
8.2501457480314961
20
-8.6167064173228347
11
8.2501457480314961
21
-8.6166060629921262
0
LINE
8
BLACK
6
CONTINUOUS
10
8.2501457480314961
20
-8.6166060629921262
11
8.2515916141732273
21
-8.6037733858267718
0
LINE
8
BLACK
6
CONTINUOUS
10
8.2515916141732273
20
-8.6037733858267718
11
8.2544652362204722
21
-8.5911833070866148
0
LINE
8
BLACK
6
CONTINUOUS
10
8.2544652362204722
20
-8.5911833070866148
11
8.2587303937007874
21
-8.5789941338582683
0
LINE
8
BLACK
6
CONTINUOUS
10
8.2587303937007874
20
-8.5789941338582683
11
8.2643335039370083
21
-8.5673591338582682
0
LINE
8
BLACK
6
CONTINUOUS
10
8.2643335039370083
20
-8.5673591338582682
11
8.2712040944881888
21
-8.5564246456692903
0
LINE
8
BLACK
6
CONTINUOUS
10
8.2712040944881888
20
-8.5564246456692903
11
8.2792557874015742
21
-8.5463281889763785
0
LINE
8
BLACK
6
CONTINUOUS
10
8.2792557874015742
20
-8.5463281889763785
11
8.2883872440944888
21
-8.5371967322834639
0
LINE
8
BLACK
6
CONTINUOUS
10
8.2883872440944888
20
-8.5371967322834639
11
8.2984837007874006
21
-8.5291450393700785
0
LINE
8
BLACK
6
CONTINUOUS
10
8.2984837007874006
20
-8.5291450393700785
11
8.3094181889763785
21
-8.522274448818898
0
LINE
8
BLACK
6
CONTINUOUS
10
8.3094181889763785
20
-8.522274448818898
11
8.3210531889763786
21
-8.5166713385826771
0
LINE
8
BLACK
6
CONTINUOUS
10
8.3210531889763786
20
-8.5166713385826771
11
8.3332423622047234
21
-8.5124061811023619
0
LINE
8
BLACK
6
CONTINUOUS
10
8.3332423622047234
20
-8.5124061811023619
11
8.3458324409448821
21
-8.5095325590551187
0
LINE
8
BLACK
6
CONTINUOUS
10
8.3458324409448821
20
-8.5095325590551187
11
8.3586651181102365
21
-8.5080866929133858
0
LINE
8
BLACK
6
CONTINUOUS
10
8.3586651181102365
20
-8.5080866929133858
11
8.3715789763779522
21
-8.5080866929133858
0
LINE
8
BLACK
6
CONTINUOUS
10
8.3715789763779522
20
-8.5080866929133858
11
8.3844116535433066
21
-8.5095325590551187
0
LINE
8
BLACK
6
CONTINUOUS
10
8.2519330708661407
20
-8.6294195669291334
11
8.2533564960629917
21
-8.6420527165354333
0
LINE
8
BLACK
6
CONTINUOUS
10
8.2533564960629917
20
-8.6420527165354333
11
8.2561854330708666
21
-8.6544470866141729
0
LINE
8
BLACK
6
CONTINUOUS
10
8.2561854330708666
20
-8.6544470866141729
11
8.2603842913385819
21
-8.6664467716535434
0
LINE
8
BLACK
6
CONTINUOUS
10
8.2603842913385819
20
-8.6664467716535434
11
8.2659003149606303
21
-8.6779009055118106
0
LINE
8
BLACK
6
CONTINUOUS
10
8.2659003149606303
20
-8.6779009055118106
11
8.2726640944881886
21
-8.6886653937007878
0
LINE
8
BLACK
6
CONTINUOUS
10
8.2726640944881886
20
-8.6886653937007878
11
8.2805905905511814
21
-8.6986049212598431
0
LINE
8
BLACK
6
CONTINUOUS
10
8.2805905905511814
20
-8.6986049212598431
11
8.2895801181102353
21
-8.707594448818897
0
LINE
8
BLACK
6
CONTINUOUS
10
8.2895801181102353
20
-8.707594448818897
11
8.2995196456692906
21
-8.7155209448818898
0
LINE
8
BLACK
6
CONTINUOUS
10
8.2995196456692906
20
-8.7155209448818898
11
8.3102841338582678
21
-8.7222847244094481
0
LINE
8
BLACK
6
CONTINUOUS
10
8.3102841338582678
20
-8.7222847244094481
11
8.321738267716535
21
-8.7278007480314965
0
LINE
8
BLACK
6
CONTINUOUS
10
8.321738267716535
20
-8.7278007480314965
11
8.3337379527559055
21
-8.7319996062992118
0
LINE
8
BLACK
6
CONTINUOUS
10
8.3337379527559055
20
-8.7319996062992118
11
8.3461323228346451
21
-8.7348285433070867
0
LINE
8
BLACK
6
CONTINUOUS
10
8.3461323228346451
20
-8.7348285433070867
11
8.358765472440945
21
-8.7362519685039359
0
LINE
8
BLACK
6
CONTINUOUS
10
8.358765472440945
20
-8.7362519685039359
11
8.3714786220472437
21
-8.7362519685039359
0
LINE
8
BLACK
6
CONTINUOUS
10
8.3714786220472437
20
-8.7362519685039359
11
8.3841117716535436
21
-8.7348285433070867
0
LINE
8
BLACK
6
CONTINUOUS
10
8.3841117716535436
20
-8.7348285433070867
11
8.3965061417322833
21
-8.7319996062992118
0
LINE
8
BLACK
6
CONTINUOUS
10
8.3965061417322833
20
-8.7319996062992118
11
8.4085058267716537
21
-8.7278007480314965
0
LINE
8
BLACK
6
CONTINUOUS
10
8.4085058267716537
20
-8.7278007480314965
11
8.4199599606299209
21
-8.7222847244094481
0
LINE
8
BLACK
6
CONTINUOUS
10
8.4199599606299209
20
-8.7222847244094481
11
8.4307244488188982
21
-8.7155209448818898
0
LINE
8
BLACK
6
CONTINUOUS
10
8.4307244488188982
20
-8.7155209448818898
11
8.4406639763779534
21
-8.707594448818897
0
LINE
8
BLACK
6
CONTINUOUS
10
8.4406639763779534
20
-8.707594448818897
11
8.4496535039370073
21
-8.6986049212598431
0
LINE
8
BLACK
6
CONTINUOUS
10
8.4496535039370073
20
-8.6986049212598431
11
8.4575800000000001
21
-8.6886653937007878
0
LINE
8
BLACK
6
CONTINUOUS
10
8.4575800000000001
20
-8.6886653937007878
11
8.4643437795275585
21
-8.6779009055118106
0
LINE
8
BLACK
6
CONTINUOUS
10
8.4643437795275585
20
-8.6779009055118106
11
8.4698598031496068
21
-8.6664467716535434
0
LINE
8
BLACK
6
CONTINUOUS
10
8.4698598031496068
20
-8.6664467716535434
11
8.4740586614173221
21
-8.6544470866141729
0
LINE
8
BLACK
6
CONTINUOUS
10
8.4740586614173221
20
-8.6544470866141729
11
8.476887598425197
21
-8.6420527165354333
0
LINE
8
BLACK
6
CONTINUOUS
10
8.476887598425197
20
-8.6420527165354333
11
8.4783110236220462
21
-8.6294195669291334
0
LINE
8
BLACK
6
CONTINUOUS
10
8.4783110236220462
20
-8.6294195669291334
11
8.4783110236220462
21
-8.6167064173228347
0
LINE
8
BLACK
6
CONTINUOUS
10
8.4783110236220462
20
-8.6167064173228347
11
8.476887598425197
21
-8.6040732677165348
0
LINE
8
BLACK
6
CONTINUOUS
10
8.476887598425197
20
-8.6040732677165348
11
8.4740586614173221
21
-8.5916788976377951
0
LINE
8
BLACK
6
CONTINUOUS
10
8.4740586614173221
20
-8.5916788976377951
11
8.4698598031496068
21
-8.5796792125984247
0
LINE
8
BLACK
6
CONTINUOUS
10
8.4698598031496068
20
-8.5796792125984247
11
8.4643437795275585
21
-8.5682250787401575
0
LINE
8
BLACK
6
CONTINUOUS
10
8.4643437795275585
20
-8.5682250787401575
11
8.4575800000000001
21
-8.5574605905511802
0
LINE
8
BLACK
6
CONTINUOUS
10
8.4575800000000001
20
-8.5574605905511802
11
8.4496535039370073
21
-8.547521062992125
0
LINE
8
BLACK
6
CONTINUOUS
10
8.4496535039370073
20
-8.547521062992125
11
8.4406639763779534
21
-8.5385315354330711
0
LINE
8
BLACK
6
CONTINUOUS
10
8.4406639763779534
20
-8.5385315354330711
11
8.4307244488188982
21
-8.5306050393700783
0
LINE
8
BLACK
6
CONTINUOUS
10
8.4307244488188982
20
-8.5306050393700783
11
8.4199599606299209
21
-8.5238412598425199
0
LINE
8
BLACK
6
CONTINUOUS
10
8.4199599606299209
20
-8.5238412598425199
11
8.4085058267716537
21
-8.5183252362204716
0
LINE
8
BLACK
6
CONTINUOUS
10
8.4085058267716537
20
-8.5183252362204716
11
8.3965061417322833
21
-8.5141263779527563
0
LINE
8
BLACK
6
CONTINUOUS
10
8.3965061417322833
20
-8.5141263779527563
11
8.3841117716535436
21
-8.5112974409448814
0
LINE
8
BLACK
6
CONTINUOUS
10
8.3841117716535436
20
-8.5112974409448814
11
8.3714786220472437
21
-8.5098740157480321
0
LINE
8
BLACK
6
CONTINUOUS
10
8.3714786220472437
20
-8.5098740157480321
11
8.358765472440945
21
-8.5098740157480321
0
LINE
8
BLACK
6
CONTINUOUS
10
8.358765472440945
20
-8.5098740157480321
11
8.3461323228346451
21
-8.5112974409448814
0
LINE
8
BLACK
6
CONTINUOUS
10
8.3461323228346451
20
-8.5112974409448814
11
8.3337379527559055
21
-8.5141263779527563
0
LINE
8
BLACK
6
CONTINUOUS
10
8.3337379527559055
20
-8.5141263779527563
11
8.321738267716535
21
-8.5183252362204716
0
LINE
8
BLACK
6
CONTINUOUS
10
8.321738267716535
20
-8.5183252362204716
11
8.3102841338582678
21
-8.5238412598425199
0
LINE
8
BLACK
6
CONTINUOUS
10
8.3102841338582678
20
-8.5238412598425199
11
8.2995196456692906
21
-8.5306050393700783
0
LINE
8
BLACK
6
CONTINUOUS
10
8.2995196456692906
20
-8.5306050393700783
11
8.2895801181102353
21
-8.5385315354330711
0
LINE
8
BLACK
6
CONTINUOUS
10
8.2895801181102353
20
-8.5385315354330711
11
8.2805905905511814
21
-8.547521062992125
0
LINE
8
BLACK
6
CONTINUOUS
10
8.2805905905511814
20
-8.547521062992125
11
8.2726640944881886
21
-8.5574605905511802
0
LINE
8
BLACK
6
CONTINUOUS
10
8.2726640944881886
20
-8.5574605905511802
11
8.2659003149606303
21
-8.5682250787401575
0
LINE
8
BLACK
6
CONTINUOUS
10
8.2659003149606303
20
-8.5682250787401575
11
8.2603842913385819
21
-8.5796792125984247
0
LINE
8
BLACK
6
CONTINUOUS
10
8.2603842913385819
20
-8.5796792125984247
11
8.2561854330708666
21
-8.5916788976377951
0
LINE
8
BLACK
6
CONTINUOUS
10
8.2561854330708666
20
-8.5916788976377951
11
8.2533564960629917
21
-8.6040732677165348
0
LINE
8
BLACK
6
CONTINUOUS
10
8.2533564960629917
20
-8.6040732677165348
11
8.2519330708661407
21
-8.6167064173228347
0
LINE
8
BLACK
6
CONTINUOUS
10
8.2519330708661407
20
-8.6167064173228347
11
8.2519330708661407
21
-8.6294195669291334
0
LINE
8
BLACK
6
CONTINUOUS
10
10.4602403149606289
20
-8.377280944881889
11
10.469200472440944
21
-8.3801922834645666
0
LINE
8
BLACK
6
CONTINUOUS
10
10.469200472440944
20
-8.3801922834645666
11
10.4775948818897628
21
-8.3844694488188978
0
LINE
8
BLACK
6
CONTINUOUS
10
10.4775948818897628
20
-8.3844694488188978
11
10.4852168503936998
21
-8.3900071259842512
0
LINE
8
BLACK
6
CONTINUOUS
10
10.4852168503936998
20
-8.3900071259842512
11
10.4918787007874013
21
-8.3966689763779527
0
LINE
8
BLACK
6
CONTINUOUS
10
10.4918787007874013
20
-8.3966689763779527
11
10.4974163779527565
21
-8.4042909448818897
0
LINE
8
BLACK
6
CONTINUOUS
10
10.4974163779527565
20
-8.4042909448818897
11
10.5016935433070859
21
-8.4126853543307085
0
LINE
8
BLACK
6
CONTINUOUS
10
10.5016935433070859
20
-8.4126853543307085
11
10.5046048818897635
21
-8.4216455118110236
0
LINE
8
BLACK
6
CONTINUOUS
10
10.5046048818897635
20
-8.4216455118110236
11
10.5060787007874019
21
-8.4309507874015743
0
LINE
8
BLACK
6
CONTINUOUS
10
10.5060787007874019
20
-8.4309507874015743
11
10.5060787007874019
21
-8.4403720472440948
0
LINE
8
BLACK
6
CONTINUOUS
10
10.5060787007874019
20
-8.4403720472440948
11
10.5046048818897635
21
-8.4496773228346456
0
LINE
8
BLACK
6
CONTINUOUS
10
10.5046048818897635
20
-8.4496773228346456
11
10.5016935433070859
21
-8.4586374803149607
0
LINE
8
BLACK
6
CONTINUOUS
10
10.5016935433070859
20
-8.4586374803149607
11
10.4974163779527565
21
-8.4670318897637795
0
LINE
8
BLACK
6
CONTINUOUS
10
10.4974163779527565
20
-8.4670318897637795
11
10.4918787007874013
21
-8.4746538582677164
0
LINE
8
BLACK
6
CONTINUOUS
10
10.4918787007874013
20
-8.4746538582677164
11
10.4852168503936998
21
-8.4813157086614179
0
LINE
8
BLACK
6
CONTINUOUS
10
10.4852168503936998
20
-8.4813157086614179
11
10.4775948818897628
21
-8.4868533858267714
0
LINE
8
BLACK
6
CONTINUOUS
10
10.4775948818897628
20
-8.4868533858267714
11
10.469200472440944
21
-8.4911305511811026
0
LINE
8
BLACK
6
CONTINUOUS
10
10.469200472440944
20
-8.4911305511811026
11
10.4602403149606289
21
-8.4940418897637802
0
LINE
8
BLACK
6
CONTINUOUS
10
10.4602403149606289
20
-8.4940418897637802
11
10.4509350393700782
21
-8.4955157086614168
0
LINE
8
BLACK
6
CONTINUOUS
10
10.4509350393700782
20
-8.4955157086614168
11
10.4415137795275594
21
-8.4955157086614168
0
LINE
8
BLACK
6
CONTINUOUS
10
10.4415137795275594
20
-8.4955157086614168
11
10.4322085039370069
21
-8.4940418897637802
0
LINE
8
BLACK
6
CONTINUOUS
10
10.4322085039370069
20
-8.4940418897637802
11
10.4232483464566918
21
-8.4911305511811026
0
LINE
8
BLACK
6
CONTINUOUS
10
10.4232483464566918
20
-8.4911305511811026
11
10.414853937007873
21
-8.4868533858267714
0
LINE
8
BLACK
6
CONTINUOUS
10
10.414853937007873
20
-8.4868533858267714
11
10.4072319685039361
21
-8.4813157086614179
0
LINE
8
BLACK
6
CONTINUOUS
10
10.4072319685039361
20
-8.4813157086614179
11
10.4005701181102364
21
-8.4746538582677164
0
LINE
8
BLACK
6
CONTINUOUS
10
10.4005701181102364
20
-8.4746538582677164
11
10.3950324409448811
21
-8.4670318897637795
0
LINE
8
BLACK
6
CONTINUOUS
10
10.3950324409448811
20
-8.4670318897637795
11
10.3907552755905517
21
-8.4586374803149607
0
LINE
8
BLACK
6
CONTINUOUS
10
10.3907552755905517
20
-8.4586374803149607
11
10.3878439370078741
21
-8.4496773228346456
0
LINE
8
BLACK
6
CONTINUOUS
10
10.3878439370078741
20
-8.4496773228346456
11
10.3863701181102357
21
-8.4403720472440948
0
LINE
8
BLACK
6
CONTINUOUS
10
10.3863701181102357
20
-8.4403720472440948
11
10.3863701181102357
21
-8.4310911417322831
0
LINE
8
BLACK
6
CONTINUOUS
10
10.3863701181102357
20
-8.4310911417322831
11
10.3863701181102357
21
-8.4309507874015743
0
LINE
8
BLACK
6
CONTINUOUS
10
10.3863701181102357
20
-8.4309507874015743
11
10.3878439370078741
21
-8.4216455118110236
0
LINE
8
BLACK
6
CONTINUOUS
10
10.3878439370078741
20
-8.4216455118110236
11
10.3907552755905517
21
-8.4126853543307085
0
LINE
8
BLACK
6
CONTINUOUS
10
10.3907552755905517
20
-8.4126853543307085
11
10.3950324409448811
21
-8.4042909448818897
0
LINE
8
BLACK
6
CONTINUOUS
10
10.3950324409448811
20
-8.4042909448818897
11
10.4005701181102364
21
-8.3966689763779527
0
LINE
8
BLACK
6
CONTINUOUS
10
10.4005701181102364
20
-8.3966689763779527
11
10.4072319685039361
21
-8.3900071259842512
0
LINE
8
BLACK
6
CONTINUOUS
10
10.4072319685039361
20
-8.3900071259842512
11
10.414853937007873
21
-8.3844694488188978
0
LINE
8
BLACK
6
CONTINUOUS
10
10.414853937007873
20
-8.3844694488188978
11
10.4232483464566918
21
-8.3801922834645666
0
LINE
8
BLACK
6
CONTINUOUS
10
10.4232483464566918
20
-8.3801922834645666
11
10.4322085039370069
21
-8.377280944881889
0
LINE
8
BLACK
6
CONTINUOUS
10
10.4322085039370069
20
-8.377280944881889
11
10.4415137795275594
21
-8.3758071259842524
0
LINE
8
BLACK
6
CONTINUOUS
10
10.4415137795275594
20
-8.3758071259842524
11
10.4509350393700782
21
-8.3758071259842524
0
LINE
8
BLACK
6
CONTINUOUS
10
10.4509350393700782
20
-8.3758071259842524
11
10.4602403149606289
21
-8.377280944881889
0
LINE
8
BLACK
6
CONTINUOUS
10
10.3881535433070855
20
-8.440231692913386
11
10.3895834251968502
21
-8.4492597244094494
0
LINE
8
BLACK
6
CONTINUOUS
10
10.3895834251968502
20
-8.4492597244094494
11
10.3924080314960623
21
-8.4579528740157475
0
LINE
8
BLACK
6
CONTINUOUS
10
10.3924080314960623
20
-8.4579528740157475
11
10.396557755905512
21
-8.4660971653543307
0
LINE
8
BLACK
6
CONTINUOUS
10
10.396557755905512
20
-8.4660971653543307
11
10.4019304330708664
21
-8.4734920472440951
0
LINE
8
BLACK
6
CONTINUOUS
10
10.4019304330708664
20
-8.4734920472440951
11
10.4083937795275592
21
-8.4799553937007879
0
LINE
8
BLACK
6
CONTINUOUS
10
10.4083937795275592
20
-8.4799553937007879
11
10.4157886614173218
21
-8.4853280708661423
0
LINE
8
BLACK
6
CONTINUOUS
10
10.4157886614173218
20
-8.4853280708661423
11
10.423932952755905
21
-8.4894777952755902
0
LINE
8
BLACK
6
CONTINUOUS
10
10.423932952755905
20
-8.4894777952755902
11
10.4326261023622049
21
-8.4923024015748023
0
LINE
8
BLACK
6
CONTINUOUS
10
10.4326261023622049
20
-8.4923024015748023
11
10.4416541338582682
21
-8.493732283464567
0
LINE
8
BLACK
6
CONTINUOUS
10
10.4416541338582682
20
-8.493732283464567
11
10.4507946850393694
21
-8.493732283464567
0
LINE
8
BLACK
6
CONTINUOUS
10
10.4507946850393694
20
-8.493732283464567
11
10.4598227165354327
21
-8.4923024015748023
0
LINE
8
BLACK
6
CONTINUOUS
10
10.4598227165354327
20
-8.4923024015748023
11
10.4685158661417326
21
-8.4894777952755902
0
LINE
8
BLACK
6
CONTINUOUS
10
10.4685158661417326
20
-8.4894777952755902
11
10.476660157480314
21
-8.4853280708661423
0
LINE
8
BLACK
6
CONTINUOUS
10
10.476660157480314
20
-8.4853280708661423
11
10.4840550393700784
21
-8.4799553937007879
0
LINE
8
BLACK
6
CONTINUOUS
10
10.4840550393700784
20
-8.4799553937007879
11
10.4905183858267712
21
-8.4734920472440951
0
LINE
8
BLACK
6
CONTINUOUS
10
10.4905183858267712
20
-8.4734920472440951
11
10.4958910629921256
21
-8.4660971653543307
0
LINE
8
BLACK
6
CONTINUOUS
10
10.4958910629921256
20
-8.4660971653543307
11
10.5000407874015753
21
-8.4579528740157475
0
LINE
8
BLACK
6
CONTINUOUS
10
10.5000407874015753
20
-8.4579528740157475
11
10.5028653937007874
21
-8.4492597244094494
0
LINE
8
BLACK
6
CONTINUOUS
10
10.5028653937007874
20
-8.4492597244094494
11
10.5042952755905503
21
-8.440231692913386
0
LINE
8
BLACK
6
CONTINUOUS
10
10.5042952755905503
20
-8.440231692913386
11
10.5042952755905503
21
-8.4310911417322831
0
LINE
8
BLACK
6
CONTINUOUS
10
10.5042952755905503
20
-8.4310911417322831
11
10.5028653937007874
21
-8.4220631102362198
0
LINE
8
BLACK
6
CONTINUOUS
10
10.5028653937007874
20
-8.4220631102362198
11
10.5000407874015753
21
-8.4133699606299217
0
LINE
8
BLACK
6
CONTINUOUS
10
10.5000407874015753
20
-8.4133699606299217
11
10.4958910629921256
21
-8.4052256692913385
0
LINE
8
BLACK
6
CONTINUOUS
10
10.4958910629921256
20
-8.4052256692913385
11
10.4905183858267712
21
-8.3978307874015741
0
LINE
8
BLACK
6
CONTINUOUS
10
10.4905183858267712
20
-8.3978307874015741
11
10.4840550393700784
21
-8.3913674409448813
0
LINE
8
BLACK
6
CONTINUOUS
10
10.4840550393700784
20
-8.3913674409448813
11
10.476660157480314
21
-8.3859947637795269
0
LINE
8
BLACK
6
CONTINUOUS
10
10.476660157480314
20
-8.3859947637795269
11
10.4685158661417326
21
-8.381845039370079
0
LINE
8
BLACK
6
CONTINUOUS
10
10.4685158661417326
20
-8.381845039370079
11
10.4598227165354327
21
-8.3790204330708651
0
LINE
8
BLACK
6
CONTINUOUS
10
10.4598227165354327
20
-8.3790204330708651
11
10.4507946850393694
21
-8.3775905511811022
0
LINE
8
BLACK
6
CONTINUOUS
10
10.4507946850393694
20
-8.3775905511811022
11
10.4416541338582682
21
-8.3775905511811022
0
LINE
8
BLACK
6
CONTINUOUS
10
10.4416541338582682
20
-8.3775905511811022
11
10.4326261023622049
21
-8.3790204330708651
0
LINE
8
BLACK
6
CONTINUOUS
10
10.4326261023622049
20
-8.3790204330708651
11
10.423932952755905
21
-8.381845039370079
0
LINE
8
BLACK
6
CONTINUOUS
10
10.423932952755905
20
-8.381845039370079
11
10.4157886614173218
21
-8.3859947637795269
0
LINE
8
BLACK
6
CONTINUOUS
10
10.4157886614173218
20
-8.3859947637795269
11
10.4083937795275592
21
-8.3913674409448813
0
LINE
8
BLACK
6
CONTINUOUS
10
10.4083937795275592
20
-8.3913674409448813
11
10.4019304330708664
21
-8.3978307874015741
0
LINE
8
BLACK
6
CONTINUOUS
10
10.4019304330708664
20
-8.3978307874015741
11
10.396557755905512
21
-8.4052256692913385
0
LINE
8
BLACK
6
CONTINUOUS
10
10.396557755905512
20
-8.4052256692913385
11
10.3924080314960623
21
-8.4133699606299217
0
LINE
8
BLACK
6
CONTINUOUS
10
10.3924080314960623
20
-8.4133699606299217
11
10.3895834251968502
21
-8.4220631102362198
0
LINE
8
BLACK
6
CONTINUOUS
10
10.3895834251968502
20
-8.4220631102362198
11
10.3881535433070855
21
-8.4310911417322831
0
LINE
8
BLACK
6
CONTINUOUS
10
10.3881535433070855
20
-8.4310911417322831
11
10.3881535433070855
21
-8.440231692913386
0
LINE
8
BLACK
6
CONTINUOUS
10
10.5842560629921252
20
-8.377280944881889
11
10.5932162204724403
21
-8.3801922834645666
0
LINE
8
BLACK
6
CONTINUOUS
10
10.5932162204724403
20
-8.3801922834645666
11
10.6016106299212591
21
-8.3844694488188978
0
LINE
8
BLACK
6
CONTINUOUS
10
10.6016106299212591
20
-8.3844694488188978
11
10.6092325984251961
21
-8.3900071259842512
0
LINE
8
BLACK
6
CONTINUOUS
10
10.6092325984251961
20
-8.3900071259842512
11
10.6158944488188975
21
-8.3966689763779527
0
LINE
8
BLACK
6
CONTINUOUS
10
10.6158944488188975
20
-8.3966689763779527
11
10.621432125984251
21
-8.4042909448818897
0
LINE
8
BLACK
6
CONTINUOUS
10
10.621432125984251
20
-8.4042909448818897
11
10.6257092913385822
21
-8.4126853543307085
0
LINE
8
BLACK
6
CONTINUOUS
10
10.6257092913385822
20
-8.4126853543307085
11
10.6286206299212598
21
-8.4216455118110236
0
LINE
8
BLACK
6
CONTINUOUS
10
10.6286206299212598
20
-8.4216455118110236
11
10.6300944488188982
21
-8.4309507874015743
0
LINE
8
BLACK
6
CONTINUOUS
10
10.6300944488188982
20
-8.4309507874015743
11
10.6300944488188982
21
-8.4403720472440948
0
LINE
8
BLACK
6
CONTINUOUS
10
10.6300944488188982
20
-8.4403720472440948
11
10.6286206299212598
21
-8.4496773228346456
0
LINE
8
BLACK
6
CONTINUOUS
10
10.6286206299212598
20
-8.4496773228346456
11
10.6257092913385822
21
-8.4586374803149607
0
LINE
8
BLACK
6
CONTINUOUS
10
10.6257092913385822
20
-8.4586374803149607
11
10.621432125984251
21
-8.4670318897637795
0
LINE
8
BLACK
6
CONTINUOUS
10
10.621432125984251
20
-8.4670318897637795
11
10.6158944488188975
21
-8.4746538582677164
0
LINE
8
BLACK
6
CONTINUOUS
10
10.6158944488188975
20
-8.4746538582677164
11
10.6092325984251961
21
-8.4813157086614179
0
LINE
8
BLACK
6
CONTINUOUS
10
10.6092325984251961
20
-8.4813157086614179
11
10.6016106299212591
21
-8.4868533858267714
0
LINE
8
BLACK
6
CONTINUOUS
10
10.6016106299212591
20
-8.4868533858267714
11
10.5932162204724403
21
-8.4911305511811026
0
LINE
8
BLACK
6
CONTINUOUS
10
10.5932162204724403
20
-8.4911305511811026
11
10.5842560629921252
21
-8.4940418897637802
0
LINE
8
BLACK
6
CONTINUOUS
10
10.5842560629921252
20
-8.4940418897637802
11
10.5749507874015745
21
-8.4955157086614168
0
LINE
8
BLACK
6
CONTINUOUS
10
10.5749507874015745
20
-8.4955157086614168
11
10.5655295275590557
21
-8.4955157086614168
0
LINE
8
BLACK
6
CONTINUOUS
10
10.5655295275590557
20
-8.4955157086614168
11
10.5562242519685032
21
-8.4940418897637802
0
LINE
8
BLACK
6
CONTINUOUS
10
10.5562242519685032
20
-8.4940418897637802
11
10.5472640944881881
21
-8.4911305511811026
0
LINE
8
BLACK
6
CONTINUOUS
10
10.5472640944881881
20
-8.4911305511811026
11
10.5388696850393693
21
-8.4868533858267714
0
LINE
8
BLACK
6
CONTINUOUS
10
10.5388696850393693
20
-8.4868533858267714
11
10.5312477165354323
21
-8.4813157086614179
0
LINE
8
BLACK
6
CONTINUOUS
10
10.5312477165354323
20
-8.4813157086614179
11
10.5245858661417326
21
-8.4746538582677164
0
LINE
8
BLACK
6
CONTINUOUS
10
10.5245858661417326
20
-8.4746538582677164
11
10.5190481889763774
21
-8.4670318897637795
0
LINE
8
BLACK
6
CONTINUOUS
10
10.5190481889763774
20
-8.4670318897637795
11
10.5147710236220462
21
-8.4586374803149607
0
LINE
8
BLACK
6
CONTINUOUS
10
10.5147710236220462
20
-8.4586374803149607
11
10.5118596850393704
21
-8.4496773228346456
0
LINE
8
BLACK
6
CONTINUOUS
10
10.5118596850393704
20
-8.4496773228346456
11
10.510385866141732
21
-8.4403720472440948
0
LINE
8
BLACK
6
CONTINUOUS
10
10.510385866141732
20
-8.4403720472440948
11
10.510385866141732
21
-8.4310911417322831
0
LINE
8
BLACK
6
CONTINUOUS
10
10.510385866141732
20
-8.4310911417322831
11
10.510385866141732
21
-8.4309507874015743
0
LINE
8
BLACK
6
CONTINUOUS
10
10.510385866141732
20
-8.4309507874015743
11
10.5118596850393704
21
-8.4216455118110236
0
LINE
8
BLACK
6
CONTINUOUS
10
10.5118596850393704
20
-8.4216455118110236
11
10.5147710236220462
21
-8.4126853543307085
0
LINE
8
BLACK
6
CONTINUOUS
10
10.5147710236220462
20
-8.4126853543307085
11
10.5190481889763774
21
-8.4042909448818897
0
LINE
8
BLACK
6
CONTINUOUS
10
10.5190481889763774
20
-8.4042909448818897
11
10.5245858661417326
21
-8.3966689763779527
0
LINE
8
BLACK
6
CONTINUOUS
10
10.5245858661417326
20
-8.3966689763779527
11
10.5312477165354323
21
-8.3900071259842512
0
LINE
8
BLACK
6
CONTINUOUS
10
10.5312477165354323
20
-8.3900071259842512
11
10.5388696850393693
21
-8.3844694488188978
0
LINE
8
BLACK
6
CONTINUOUS
10
10.5388696850393693
20
-8.3844694488188978
11
10.5472640944881881
21
-8.3801922834645666
0
LINE
8
BLACK
6
CONTINUOUS
10
10.5472640944881881
20
-8.3801922834645666
11
10.5562242519685032
21
-8.377280944881889
0
LINE
8
BLACK
6
CONTINUOUS
10
10.5562242519685032
20
-8.377280944881889
11
10.5655295275590557
21
-8.3758071259842524
0
LINE
8
BLACK
6
CONTINUOUS
10
10.5655295275590557
20
-8.3758071259842524
11
10.5749507874015745
21
-8.3758071259842524
0
LINE
8
BLACK
6
CONTINUOUS
10
10.5749507874015745
20
-8.3758071259842524
11
10.5842560629921252
21
-8.377280944881889
0
LINE
8
BLACK
6
CONTINUOUS
10
10.5121692913385818
20
-8.440231692913386
11
10.5135991732283465
21
-8.4492597244094494
0
LINE
8
BLACK
6
CONTINUOUS
10
10.5135991732283465
20
-8.4492597244094494
11
10.5164237795275586
21
-8.4579528740157475
0
LINE
8
BLACK
6
CONTINUOUS
10
10.5164237795275586
20
-8.4579528740157475
11
10.5205735039370083
21
-8.4660971653543307
0
LINE
8
BLACK
6
CONTINUOUS
10
10.5205735039370083
20
-8.4660971653543307
11
10.5259461811023627
21
-8.4734920472440951
0
LINE
8
BLACK
6
CONTINUOUS
10
10.5259461811023627
20
-8.4734920472440951
11
10.5324095275590555
21
-8.4799553937007879
0
LINE
8
BLACK
6
CONTINUOUS
10
10.5324095275590555
20
-8.4799553937007879
11
10.5398044094488181
21
-8.4853280708661423
0
LINE
8
BLACK
6
CONTINUOUS
10
10.5398044094488181
20
-8.4853280708661423
11
10.5479487007874013
21
-8.4894777952755902
0
LINE
8
BLACK
6
CONTINUOUS
10
10.5479487007874013
20
-8.4894777952755902
11
10.5566418503937012
21
-8.4923024015748023
0
LINE
8
BLACK
6
CONTINUOUS
10
10.5566418503937012
20
-8.4923024015748023
11
10.5656698818897627
21
-8.493732283464567
0
LINE
8
BLACK
6
CONTINUOUS
10
10.5656698818897627
20
-8.493732283464567
11
10.5748104330708657
21
-8.493732283464567
0
LINE
8
BLACK
6
CONTINUOUS
10
10.5748104330708657
20
-8.493732283464567
11
10.583838464566929
21
-8.4923024015748023
0
LINE
8
BLACK
6
CONTINUOUS
10
10.583838464566929
20
-8.4923024015748023
11
10.5925316141732289
21
-8.4894777952755902
0
LINE
8
BLACK
6
CONTINUOUS
10
10.5925316141732289
20
-8.4894777952755902
11
10.6006759055118103
21
-8.4853280708661423
0
LINE
8
BLACK
6
CONTINUOUS
10
10.6006759055118103
20
-8.4853280708661423
11
10.6080707874015747
21
-8.4799553937007879
0
LINE
8
BLACK
6
CONTINUOUS
10
10.6080707874015747
20
-8.4799553937007879
11
10.6145341338582675
21
-8.4734920472440951
0
LINE
8
BLACK
6
CONTINUOUS
10
10.6145341338582675
20
-8.4734920472440951
11
10.6199068110236219
21
-8.4660971653543307
0
LINE
8
BLACK
6
CONTINUOUS
10
10.6199068110236219
20
-8.4660971653543307
11
10.6240565354330698
21
-8.4579528740157475
0
LINE
8
BLACK
6
CONTINUOUS
10
10.6240565354330698
20
-8.4579528740157475
11
10.6268811417322837
21
-8.4492597244094494
0
LINE
8
BLACK
6
CONTINUOUS
10
10.6268811417322837
20
-8.4492597244094494
11
10.6283110236220466
21
-8.440231692913386
0
LINE
8
BLACK
6
CONTINUOUS
10
10.6283110236220466
20
-8.440231692913386
11
10.6283110236220466
21
-8.4310911417322831
0
LINE
8
BLACK
6
CONTINUOUS
10
10.6283110236220466
20
-8.4310911417322831
11
10.6268811417322837
21
-8.4220631102362198
0
LINE
8
BLACK
6
CONTINUOUS
10
10.6268811417322837
20
-8.4220631102362198
11
10.6240565354330698
21
-8.4133699606299217
0
LINE
8
BLACK
6
CONTINUOUS
10
10.6240565354330698
20
-8.4133699606299217
11
10.6199068110236219
21
-8.4052256692913385
0
LINE
8
BLACK
6
CONTINUOUS
10
10.6199068110236219
20
-8.4052256692913385
11
10.6145341338582675
21
-8.3978307874015741
0
LINE
8
BLACK
6
CONTINUOUS
10
10.6145341338582675
20
-8.3978307874015741
11
10.6080707874015747
21
-8.3913674409448813
0
LINE
8
BLACK
6
CONTINUOUS
10
10.6080707874015747
20
-8.3913674409448813
11
10.6006759055118103
21
-8.3859947637795269
0
LINE
8
BLACK
6
CONTINUOUS
10
10.6006759055118103
20
-8.3859947637795269
11
10.5925316141732289
21
-8.381845039370079
0
LINE
8
BLACK
6
CONTINUOUS
10
10.5925316141732289
20
-8.381845039370079
11
10.583838464566929
21
-8.3790204330708651
0
LINE
8
BLACK
6
CONTINUOUS
10
10.583838464566929
20
-8.3790204330708651
11
10.5748104330708657
21
-8.3775905511811022
0
LINE
8
BLACK
6
CONTINUOUS
10
10.5748104330708657
20
-8.3775905511811022
11
10.5656698818897627
21
-8.3775905511811022
0
LINE
8
BLACK
6
CONTINUOUS
10
10.5656698818897627
20
-8.3775905511811022
11
10.5566418503937012
21
-8.3790204330708651
0
LINE
8
BLACK
6
CONTINUOUS
10
10.5566418503937012
20
-8.3790204330708651
11
10.5479487007874013
21
-8.381845039370079
0
LINE
8
BLACK
6
CONTINUOUS
10
10.5479487007874013
20
-8.381845039370079
11
10.5398044094488181
21
-8.3859947637795269
0
LINE
8
BLACK
6
CONTINUOUS
10
10.5398044094488181
20
-8.3859947637795269
11
10.5324095275590555
21
-8.3913674409448813
0
LINE
8
BLACK
6
CONTINUOUS
10
10.5324095275590555
20
-8.3913674409448813
11
10.5259461811023627
21
-8.3978307874015741
0
LINE
8
BLACK
6
CONTINUOUS
10
10.5259461811023627
20
-8.3978307874015741
11
10.5205735039370083
21
-8.4052256692913385
0
LINE
8
BLACK
6
CONTINUOUS
10
10.5205735039370083
20
-8.4052256692913385
11
10.5164237795275586
21
-8.4133699606299217
0
LINE
8
BLACK
6
CONTINUOUS
10
10.5164237795275586
20
-8.4133699606299217
11
10.5135991732283465
21
-8.4220631102362198
0
LINE
8
BLACK
6
CONTINUOUS
10
10.5135991732283465
20
-8.4220631102362198
11
10.5121692913385818
21
-8.4310911417322831
0
LINE
8
BLACK
6
CONTINUOUS
10
10.5121692913385818
20
-8.4310911417322831
11
10.5121692913385818
21
-8.440231692913386
0
LINE
8
BLACK
6
CONTINUOUS
10
7.3037029921259844
20
-7.5343357086614171
11
7.3162930708661413
21
-7.5372093307086612
0
LINE
8
BLACK
6
CONTINUOUS
10
7.3162930708661413
20
-7.5372093307086612
11
7.3284822440944879
21
-7.5414744881889764
0
LINE
8
BLACK
6
CONTINUOUS
10
7.3284822440944879
20
-7.5414744881889764
11
7.340117244094488
21
-7.5470775984251963
0
LINE
8
BLACK
6
CONTINUOUS
10
7.340117244094488
20
-7.5470775984251963
11
7.3510517322834641
21
-7.5539481889763778
0
LINE
8
BLACK
6
CONTINUOUS
10
7.3510517322834641
20
-7.5539481889763778
11
7.3611481889763777
21
-7.561999881889764
0
LINE
8
BLACK
6
CONTINUOUS
10
7.3611481889763777
20
-7.561999881889764
11
7.3702796456692914
21
-7.5711313385826768
0
LINE
8
BLACK
6
CONTINUOUS
10
7.3702796456692914
20
-7.5711313385826768
11
7.3783313385826768
21
-7.5812277952755904
0
LINE
8
BLACK
6
CONTINUOUS
10
7.3783313385826768
20
-7.5812277952755904
11
7.3852019291338582
21
-7.5921622834645666
0
LINE
8
BLACK
6
CONTINUOUS
10
7.3852019291338582
20
-7.5921622834645666
11
7.3908050393700782
21
-7.6037972834645666
0
LINE
8
BLACK
6
CONTINUOUS
10
7.3908050393700782
20
-7.6037972834645666
11
7.3950701968503934
21
-7.6159864566929132
0
LINE
8
BLACK
6
CONTINUOUS
10
7.3950701968503934
20
-7.6159864566929132
11
7.3979438188976374
21
-7.628576535433071
0
LINE
8
BLACK
6
CONTINUOUS
10
7.3979438188976374
20
-7.628576535433071
11
7.3993896850393703
21
-7.6414092125984254
0
LINE
8
BLACK
6
CONTINUOUS
10
7.3993896850393703
20
-7.6414092125984254
11
7.3993896850393703
21
-7.6543230708661412
0
LINE
8
BLACK
6
CONTINUOUS
10
7.3993896850393703
20
-7.6543230708661412
11
7.3979438188976374
21
-7.6671557480314956
0
LINE
8
BLACK
6
CONTINUOUS
10
7.3979438188976374
20
-7.6671557480314956
11
7.3950701968503934
21
-7.6797458267716534
0
LINE
8
BLACK
6
CONTINUOUS
10
7.3950701968503934
20
-7.6797458267716534
11
7.3908050393700782
21
-7.691935
0
LINE
8
BLACK
6
CONTINUOUS
10
7.3908050393700782
20
-7.691935
11
7.3852019291338582
21
-7.70357
0
LINE
8
BLACK
6
CONTINUOUS
10
7.3852019291338582
20
-7.70357
11
7.3783313385826768
21
-7.7145044881889762
0
LINE
8
BLACK
6
CONTINUOUS
10
7.3783313385826768
20
-7.7145044881889762
11
7.3702796456692914
21
-7.7246009448818898
0
LINE
8
BLACK
6
CONTINUOUS
10
7.3702796456692914
20
-7.7246009448818898
11
7.3611481889763777
21
-7.7337324015748026
0
LINE
8
BLACK
6
CONTINUOUS
10
7.3611481889763777
20
-7.7337324015748026
11
7.3510517322834641
21
-7.7417840944881888
0
LINE
8
BLACK
6
CONTINUOUS
10
7.3510517322834641
20
-7.7417840944881888
11
7.340117244094488
21
-7.7486546850393703
0
LINE
8
BLACK
6
CONTINUOUS
10
7.340117244094488
20
-7.7486546850393703
11
7.3284822440944879
21
-7.7542577952755902
0
LINE
8
BLACK
6
CONTINUOUS
10
7.3284822440944879
20
-7.7542577952755902
11
7.3162930708661413
21
-7.7585229527559054
0
LINE
8
BLACK
6
CONTINUOUS
10
7.3162930708661413
20
-7.7585229527559054
11
7.3037029921259844
21
-7.7613965748031495
0
LINE
8
BLACK
6
CONTINUOUS
10
7.3037029921259844
20
-7.7613965748031495
11
7.29087031496063
21
-7.7628424409448815
0
LINE
8
BLACK
6
CONTINUOUS
10
7.29087031496063
20
-7.7628424409448815
11
7.2779564566929134
21
-7.7628424409448815
0
LINE
8
BLACK
6
CONTINUOUS
10
7.2779564566929134
20
-7.7628424409448815
11
7.2651237795275589
21
-7.7613965748031495
0
LINE
8
BLACK
6
CONTINUOUS
10
7.2651237795275589
20
-7.7613965748031495
11
7.2525337007874011
21
-7.7585229527559054
0
LINE
8
BLACK
6
CONTINUOUS
10
7.2525337007874011
20
-7.7585229527559054
11
7.2403445275590546
21
-7.7542577952755902
0
LINE
8
BLACK
6
CONTINUOUS
10
7.2403445275590546
20
-7.7542577952755902
11
7.2287095275590554
21
-7.7486546850393703
0
LINE
8
BLACK
6
CONTINUOUS
10
7.2287095275590554
20
-7.7486546850393703
11
7.2177750393700784
21
-7.7417840944881888
0
LINE
8
BLACK
6
CONTINUOUS
10
7.2177750393700784
20
-7.7417840944881888
11
7.2076785826771648
21
-7.7337324015748026
0
LINE
8
BLACK
6
CONTINUOUS
10
7.2076785826771648
20
-7.7337324015748026
11
7.1985471259842519
21
-7.7246009448818898
0
LINE
8
BLACK
6
CONTINUOUS
10
7.1985471259842519
20
-7.7246009448818898
11
7.1904954330708657
21
-7.7145044881889762
0
LINE
8
BLACK
6
CONTINUOUS
10
7.1904954330708657
20
-7.7145044881889762
11
7.1836248425196851
21
-7.70357
0
LINE
8
BLACK
6
CONTINUOUS
10
7.1836248425196851
20
-7.70357
11
7.1780217322834643
21
-7.691935
0
LINE
8
BLACK
6
CONTINUOUS
10
7.1780217322834643
20
-7.691935
11
7.1737565748031491
21
-7.6797458267716534
0
LINE
8
BLACK
6
CONTINUOUS
10
7.1737565748031491
20
-7.6797458267716534
11
7.170882952755905
21
-7.6671557480314956
0
LINE
8
BLACK
6
CONTINUOUS
10
7.170882952755905
20
-7.6671557480314956
11
7.169437086614173
21
-7.6543230708661412
0
LINE
8
BLACK
6
CONTINUOUS
10
7.169437086614173
20
-7.6543230708661412
11
7.169437086614173
21
-7.641509566929134
0
LINE
8
BLACK
6
CONTINUOUS
10
7.169437086614173
20
-7.641509566929134
11
7.169437086614173
21
-7.6414092125984254
0
LINE
8
BLACK
6
CONTINUOUS
10
7.169437086614173
20
-7.6414092125984254
11
7.170882952755905
21
-7.628576535433071
0
LINE
8
BLACK
6
CONTINUOUS
10
7.170882952755905
20
-7.628576535433071
11
7.1737565748031491
21
-7.6159864566929132
0
LINE
8
BLACK
6
CONTINUOUS
10
7.1737565748031491
20
-7.6159864566929132
11
7.1780217322834643
21
-7.6037972834645666
0
LINE
8
BLACK
6
CONTINUOUS
10
7.1780217322834643
20
-7.6037972834645666
11
7.1836248425196851
21
-7.5921622834645666
0
LINE
8
BLACK
6
CONTINUOUS
10
7.1836248425196851
20
-7.5921622834645666
11
7.1904954330708657
21
-7.5812277952755904
0
LINE
8
BLACK
6
CONTINUOUS
10
7.1904954330708657
20
-7.5812277952755904
11
7.1985471259842519
21
-7.5711313385826768
0
LINE
8
BLACK
6
CONTINUOUS
10
7.1985471259842519
20
-7.5711313385826768
11
7.2076785826771648
21
-7.561999881889764
0
LINE
8
BLACK
6
CONTINUOUS
10
7.2076785826771648
20
-7.561999881889764
11
7.2177750393700784
21
-7.5539481889763778
0
LINE
8
BLACK
6
CONTINUOUS
10
7.2177750393700784
20
-7.5539481889763778
11
7.2287095275590554
21
-7.5470775984251963
0
LINE
8
BLACK
6
CONTINUOUS
10
7.2287095275590554
20
-7.5470775984251963
11
7.2403445275590546
21
-7.5414744881889764
0
LINE
8
BLACK
6
CONTINUOUS
10
7.2403445275590546
20
-7.5414744881889764
11
7.2525337007874011
21
-7.5372093307086612
0
LINE
8
BLACK
6
CONTINUOUS
10
7.2525337007874011
20
-7.5372093307086612
11
7.2651237795275589
21
-7.5343357086614171
0
LINE
8
BLACK
6
CONTINUOUS
10
7.2651237795275589
20
-7.5343357086614171
11
7.2779564566929134
21
-7.5328898425196851
0
LINE
8
BLACK
6
CONTINUOUS
10
7.2779564566929134
20
-7.5328898425196851
11
7.29087031496063
21
-7.5328898425196851
0
LINE
8
BLACK
6
CONTINUOUS
10
7.29087031496063
20
-7.5328898425196851
11
7.3037029921259844
21
-7.5343357086614171
0
LINE
8
BLACK
6
CONTINUOUS
10
7.1712244094488184
20
-7.6542227165354326
11
7.1726478346456695
21
-7.6668558661417325
0
LINE
8
BLACK
6
CONTINUOUS
10
7.1726478346456695
20
-7.6668558661417325
11
7.1754767716535435
21
-7.6792502362204722
0
LINE
8
BLACK
6
CONTINUOUS
10
7.1754767716535435
20
-7.6792502362204722
11
7.1796756299212596
21
-7.6912499212598426
0
LINE
8
BLACK
6
CONTINUOUS
10
7.1796756299212596
20
-7.6912499212598426
11
7.1851916535433071
21
-7.7027040551181098
0
LINE
8
BLACK
6
CONTINUOUS
10
7.1851916535433071
20
-7.7027040551181098
11
7.1919554330708664
21
-7.7134685433070862
0
LINE
8
BLACK
6
CONTINUOUS
10
7.1919554330708664
20
-7.7134685433070862
11
7.1998819291338583
21
-7.7234080708661415
0
LINE
8
BLACK
6
CONTINUOUS
10
7.1998819291338583
20
-7.7234080708661415
11
7.2088714566929131
21
-7.7323975984251963
0
LINE
8
BLACK
6
CONTINUOUS
10
7.2088714566929131
20
-7.7323975984251963
11
7.2188109842519683
21
-7.740324094488189
0
LINE
8
BLACK
6
CONTINUOUS
10
7.2188109842519683
20
-7.740324094488189
11
7.2295754724409447
21
-7.7470878740157483
0
LINE
8
BLACK
6
CONTINUOUS
10
7.2295754724409447
20
-7.7470878740157483
11
7.2410296062992128
21
-7.7526038976377949
0
LINE
8
BLACK
6
CONTINUOUS
10
7.2410296062992128
20
-7.7526038976377949
11
7.2530292913385823
21
-7.7568027559055119
0
LINE
8
BLACK
6
CONTINUOUS
10
7.2530292913385823
20
-7.7568027559055119
11
7.2654236614173229
21
-7.7596316929133859
0
LINE
8
BLACK
6
CONTINUOUS
10
7.2654236614173229
20
-7.7596316929133859
11
7.2780568110236219
21
-7.7610551181102361
0
LINE
8
BLACK
6
CONTINUOUS
10
7.2780568110236219
20
-7.7610551181102361
11
7.2907699606299214
21
-7.7610551181102361
0
LINE
8
BLACK
6
CONTINUOUS
10
7.2907699606299214
20
-7.7610551181102361
11
7.3034031102362205
21
-7.7596316929133859
0
LINE
8
BLACK
6
CONTINUOUS
10
7.3034031102362205
20
-7.7596316929133859
11
7.3157974803149601
21
-7.7568027559055119
0
LINE
8
BLACK
6
CONTINUOUS
10
7.3157974803149601
20
-7.7568027559055119
11
7.3277971653543306
21
-7.7526038976377949
0
LINE
8
BLACK
6
CONTINUOUS
10
7.3277971653543306
20
-7.7526038976377949
11
7.3392512992125987
21
-7.7470878740157483
0
LINE
8
BLACK
6
CONTINUOUS
10
7.3392512992125987
20
-7.7470878740157483
11
7.350015787401575
21
-7.740324094488189
0
LINE
8
BLACK
6
CONTINUOUS
10
7.350015787401575
20
-7.740324094488189
11
7.3599553149606294
21
-7.7323975984251963
0
LINE
8
BLACK
6
CONTINUOUS
10
7.3599553149606294
20
-7.7323975984251963
11
7.3689448425196851
21
-7.7234080708661415
0
LINE
8
BLACK
6
CONTINUOUS
10
7.3689448425196851
20
-7.7234080708661415
11
7.376871338582677
21
-7.7134685433070862
0
LINE
8
BLACK
6
CONTINUOUS
10
7.376871338582677
20
-7.7134685433070862
11
7.3836351181102362
21
-7.7027040551181098
0
LINE
8
BLACK
6
CONTINUOUS
10
7.3836351181102362
20
-7.7027040551181098
11
7.3891511417322837
21
-7.6912499212598426
0
LINE
8
BLACK
6
CONTINUOUS
10
7.3891511417322837
20
-7.6912499212598426
11
7.3933499999999999
21
-7.6792502362204722
0
LINE
8
BLACK
6
CONTINUOUS
10
7.3933499999999999
20
-7.6792502362204722
11
7.3961789370078739
21
-7.6668558661417325
0
LINE
8
BLACK
6
CONTINUOUS
10
7.3961789370078739
20
-7.6668558661417325
11
7.397602362204724
21
-7.6542227165354326
0
LINE
8
BLACK
6
CONTINUOUS
10
7.397602362204724
20
-7.6542227165354326
11
7.397602362204724
21
-7.641509566929134
0
LINE
8
BLACK
6
CONTINUOUS
10
7.397602362204724
20
-7.641509566929134
11
7.3961789370078739
21
-7.6288764173228341
0
LINE
8
BLACK
6
CONTINUOUS
10
7.3961789370078739
20
-7.6288764173228341
11
7.3933499999999999
21
-7.6164820472440944
0
LINE
8
BLACK
6
CONTINUOUS
10
7.3933499999999999
20
-7.6164820472440944
11
7.3891511417322837
21
-7.604482362204724
0
LINE
8
BLACK
6
CONTINUOUS
10
7.3891511417322837
20
-7.604482362204724
11
7.3836351181102362
21
-7.5930282283464567
0
LINE
8
BLACK
6
CONTINUOUS
10
7.3836351181102362
20
-7.5930282283464567
11
7.376871338582677
21
-7.5822637401574804
0
LINE
8
BLACK
6
CONTINUOUS
10
7.376871338582677
20
-7.5822637401574804
11
7.3689448425196851
21
-7.5723242125984251
0
LINE
8
BLACK
6
CONTINUOUS
10
7.3689448425196851
20
-7.5723242125984251
11
7.3599553149606294
21
-7.5633346850393703
0
LINE
8
BLACK
6
CONTINUOUS
10
7.3599553149606294
20
-7.5633346850393703
11
7.350015787401575
21
-7.5554081889763776
0
LINE
8
BLACK
6
CONTINUOUS
10
7.350015787401575
20
-7.5554081889763776
11
7.3392512992125987
21
-7.5486444094488183
0
LINE
8
BLACK
6
CONTINUOUS
10
7.3392512992125987
20
-7.5486444094488183
11
7.3277971653543306
21
-7.5431283858267717
0
LINE
8
BLACK
6
CONTINUOUS
10
7.3277971653543306
20
-7.5431283858267717
11
7.3157974803149601
21
-7.5389295275590547
0
LINE
8
BLACK
6
CONTINUOUS
10
7.3157974803149601
20
-7.5389295275590547
11
7.3034031102362205
21
-7.5361005905511806
0
LINE
8
BLACK
6
CONTINUOUS
10
7.3034031102362205
20
-7.5361005905511806
11
7.2907699606299214
21
-7.5346771653543305
0
LINE
8
BLACK
6
CONTINUOUS
10
7.2907699606299214
20
-7.5346771653543305
11
7.2780568110236219
21
-7.5346771653543305
0
LINE
8
BLACK
6
CONTINUOUS
10
7.2780568110236219
20
-7.5346771653543305
11
7.2654236614173229
21
-7.5361005905511806
0
LINE
8
BLACK
6
CONTINUOUS
10
7.2654236614173229
20
-7.5361005905511806
11
7.2530292913385823
21
-7.5389295275590547
0
LINE
8
BLACK
6
CONTINUOUS
10
7.2530292913385823
20
-7.5389295275590547
11
7.2410296062992128
21
-7.5431283858267717
0
LINE
8
BLACK
6
CONTINUOUS
10
7.2410296062992128
20
-7.5431283858267717
11
7.2295754724409447
21
-7.5486444094488183
0
LINE
8
BLACK
6
CONTINUOUS
10
7.2295754724409447
20
-7.5486444094488183
11
7.2188109842519683
21
-7.5554081889763776
0
LINE
8
BLACK
6
CONTINUOUS
10
7.2188109842519683
20
-7.5554081889763776
11
7.2088714566929131
21
-7.5633346850393703
0
LINE
8
BLACK
6
CONTINUOUS
10
7.2088714566929131
20
-7.5633346850393703
11
7.1998819291338583
21
-7.5723242125984251
0
LINE
8
BLACK
6
CONTINUOUS
10
7.1998819291338583
20
-7.5723242125984251
11
7.1919554330708664
21
-7.5822637401574804
0
LINE
8
BLACK
6
CONTINUOUS
10
7.1919554330708664
20
-7.5822637401574804
11
7.1851916535433071
21
-7.5930282283464567
0
LINE
8
BLACK
6
CONTINUOUS
10
7.1851916535433071
20
-7.5930282283464567
11
7.1796756299212596
21
-7.604482362204724
0
LINE
8
BLACK
6
CONTINUOUS
10
7.1796756299212596
20
-7.604482362204724
11
7.1754767716535435
21
-7.6164820472440944
0
LINE
8
BLACK
6
CONTINUOUS
10
7.1754767716535435
20
-7.6164820472440944
11
7.1726478346456695
21
-7.6288764173228341
0
LINE
8
BLACK
6
CONTINUOUS
10
7.1726478346456695
20
-7.6288764173228341
11
7.1712244094488184
21
-7.641509566929134
0
LINE
8
BLACK
6
CONTINUOUS
10
7.1712244094488184
20
-7.641509566929134
11
7.1712244094488184
21
-7.6542227165354326
0
LINE
8
BLACK
6
CONTINUOUS
10
9.4651203149606289
20
-7.5343357086614171
11
9.4777103937007876
21
-7.5372093307086612
0
LINE
8
BLACK
6
CONTINUOUS
10
9.4777103937007876
20
-7.5372093307086612
11
9.4898995669291342
21
-7.5414744881889764
0
LINE
8
BLACK
6
CONTINUOUS
10
9.4898995669291342
20
-7.5414744881889764
11
9.5015345669291342
21
-7.5470775984251963
0
LINE
8
BLACK
6
CONTINUOUS
10
9.5015345669291342
20
-7.5470775984251963
11
9.5124690551181104
21
-7.5539481889763778
0
LINE
8
BLACK
6
CONTINUOUS
10
9.5124690551181104
20
-7.5539481889763778
11
9.522565511811024
21
-7.561999881889764
0
LINE
8
BLACK
6
CONTINUOUS
10
9.522565511811024
20
-7.561999881889764
11
9.5316969685039368
21
-7.5711313385826768
0
LINE
8
BLACK
6
CONTINUOUS
10
9.5316969685039368
20
-7.5711313385826768
11
9.5397486614173221
21
-7.5812277952755904
0
LINE
8
BLACK
6
CONTINUOUS
10
9.5397486614173221
20
-7.5812277952755904
11
9.5466192519685045
21
-7.5921622834645666
0
LINE
8
BLACK
6
CONTINUOUS
10
9.5466192519685045
20
-7.5921622834645666
11
9.5522223622047235
21
-7.6037972834645666
0
LINE
8
BLACK
6
CONTINUOUS
10
9.5522223622047235
20
-7.6037972834645666
11
9.5564875196850387
21
-7.6159864566929132
0
LINE
8
BLACK
6
CONTINUOUS
10
9.5564875196850387
20
-7.6159864566929132
11
9.5593611417322837
21
-7.628576535433071
0
LINE
8
BLACK
6
CONTINUOUS
10
9.5593611417322837
20
-7.628576535433071
11
9.5608070078740148
21
-7.6414092125984254
0
LINE
8
BLACK
6
CONTINUOUS
10
9.5608070078740148
20
-7.6414092125984254
11
9.5608070078740148
21
-7.6543230708661412
0
LINE
8
BLACK
6
CONTINUOUS
10
9.5608070078740148
20
-7.6543230708661412
11
9.5593611417322837
21
-7.6671557480314956
0
LINE
8
BLACK
6
CONTINUOUS
10
9.5593611417322837
20
-7.6671557480314956
11
9.5564875196850387
21
-7.6797458267716534
0
LINE
8
BLACK
6
CONTINUOUS
10
9.5564875196850387
20
-7.6797458267716534
11
9.5522223622047235
21
-7.691935
0
LINE
8
BLACK
6
CONTINUOUS
10
9.5522223622047235
20
-7.691935
11
9.5466192519685045
21
-7.70357
0
LINE
8
BLACK
6
CONTINUOUS
10
9.5466192519685045
20
-7.70357
11
9.5397486614173221
21
-7.7145044881889762
0
LINE
8
BLACK
6
CONTINUOUS
10
9.5397486614173221
20
-7.7145044881889762
11
9.5316969685039368
21
-7.7246009448818898
0
LINE
8
BLACK
6
CONTINUOUS
10
9.5316969685039368
20
-7.7246009448818898
11
9.522565511811024
21
-7.7337324015748026
0
LINE
8
BLACK
6
CONTINUOUS
10
9.522565511811024
20
-7.7337324015748026
11
9.5124690551181104
21
-7.7417840944881888
0
LINE
8
BLACK
6
CONTINUOUS
10
9.5124690551181104
20
-7.7417840944881888
11
9.5015345669291342
21
-7.7486546850393703
0
LINE
8
BLACK
6
CONTINUOUS
10
9.5015345669291342
20
-7.7486546850393703
11
9.4898995669291342
21
-7.7542577952755902
0
LINE
8
BLACK
6
CONTINUOUS
10
9.4898995669291342
20
-7.7542577952755902
11
9.4777103937007876
21
-7.7585229527559054
0
LINE
8
BLACK
6
CONTINUOUS
10
9.4777103937007876
20
-7.7585229527559054
11
9.4651203149606289
21
-7.7613965748031495
0
LINE
8
BLACK
6
CONTINUOUS
10
9.4651203149606289
20
-7.7613965748031495
11
9.4522876377952763
21
-7.7628424409448815
0
LINE
8
BLACK
6
CONTINUOUS
10
9.4522876377952763
20
-7.7628424409448815
11
9.4393737795275587
21
-7.7628424409448815
0
LINE
8
BLACK
6
CONTINUOUS
10
9.4393737795275587
20
-7.7628424409448815
11
9.4265411023622043
21
-7.7613965748031495
0
LINE
8
BLACK
6
CONTINUOUS
10
9.4265411023622043
20
-7.7613965748031495
11
9.4139510236220474
21
-7.7585229527559054
0
LINE
8
BLACK
6
CONTINUOUS
10
9.4139510236220474
20
-7.7585229527559054
11
9.4017618503937008
21
-7.7542577952755902
0
LINE
8
BLACK
6
CONTINUOUS
10
9.4017618503937008
20
-7.7542577952755902
11
9.3901268503937008
21
-7.7486546850393703
0
LINE
8
BLACK
6
CONTINUOUS
10
9.3901268503937008
20
-7.7486546850393703
11
9.3791923622047246
21
-7.7417840944881888
0
LINE
8
BLACK
6
CONTINUOUS
10
9.3791923622047246
20
-7.7417840944881888
11
9.369095905511811
21
-7.7337324015748026
0
LINE
8
BLACK
6
CONTINUOUS
10
9.369095905511811
20
-7.7337324015748026
11
9.3599644488188982
21
-7.7246009448818898
0
LINE
8
BLACK
6
CONTINUOUS
10
9.3599644488188982
20
-7.7246009448818898
11
9.3519127559055111
21
-7.7145044881889762
0
LINE
8
BLACK
6
CONTINUOUS
10
9.3519127559055111
20
-7.7145044881889762
11
9.3450421653543305
21
-7.70357
0
LINE
8
BLACK
6
CONTINUOUS
10
9.3450421653543305
20
-7.70357
11
9.3394390551181097
21
-7.691935
0
LINE
8
BLACK
6
CONTINUOUS
10
9.3394390551181097
20
-7.691935
11
9.3351738976377945
21
-7.6797458267716534
0
LINE
8
BLACK
6
CONTINUOUS
10
9.3351738976377945
20
-7.6797458267716534
11
9.3323002755905513
21
-7.6671557480314956
0
LINE
8
BLACK
6
CONTINUOUS
10
9.3323002755905513
20
-7.6671557480314956
11
9.3308544094488184
21
-7.6543230708661412
0
LINE
8
BLACK
6
CONTINUOUS
10
9.3308544094488184
20
-7.6543230708661412
11
9.3308544094488184
21
-7.641509566929134
0
LINE
8
BLACK
6
CONTINUOUS
10
9.3308544094488184
20
-7.641509566929134
11
9.3308544094488184
21
-7.6414092125984254
0
LINE
8
BLACK
6
CONTINUOUS
10
9.3308544094488184
20
-7.6414092125984254
11
9.3323002755905513
21
-7.628576535433071
0
LINE
8
BLACK
6
CONTINUOUS
10
9.3323002755905513
20
-7.628576535433071
11
9.3351738976377945
21
-7.6159864566929132
0
LINE
8
BLACK
6
CONTINUOUS
10
9.3351738976377945
20
-7.6159864566929132
11
9.3394390551181097
21
-7.6037972834645666
0
LINE
8
BLACK
6
CONTINUOUS
10
9.3394390551181097
20
-7.6037972834645666
11
9.3450421653543305
21
-7.5921622834645666
0
LINE
8
BLACK
6
CONTINUOUS
10
9.3450421653543305
20
-7.5921622834645666
11
9.3519127559055111
21
-7.5812277952755904
0
LINE
8
BLACK
6
CONTINUOUS
10
9.3519127559055111
20
-7.5812277952755904
11
9.3599644488188982
21
-7.5711313385826768
0
LINE
8
BLACK
6
CONTINUOUS
10
9.3599644488188982
20
-7.5711313385826768
11
9.369095905511811
21
-7.561999881889764
0
LINE
8
BLACK
6
CONTINUOUS
10
9.369095905511811
20
-7.561999881889764
11
9.3791923622047246
21
-7.5539481889763778
0
LINE
8
BLACK
6
CONTINUOUS
10
9.3791923622047246
20
-7.5539481889763778
11
9.3901268503937008
21
-7.5470775984251963
0
LINE
8
BLACK
6
CONTINUOUS
10
9.3901268503937008
20
-7.5470775984251963
11
9.4017618503937008
21
-7.5414744881889764
0
LINE
8
BLACK
6
CONTINUOUS
10
9.4017618503937008
20
-7.5414744881889764
11
9.4139510236220474
21
-7.5372093307086612
0
LINE
8
BLACK
6
CONTINUOUS
10
9.4139510236220474
20
-7.5372093307086612
11
9.4265411023622043
21
-7.5343357086614171
0
LINE
8
BLACK
6
CONTINUOUS
10
9.4265411023622043
20
-7.5343357086614171
11
9.4393737795275587
21
-7.5328898425196851
0
LINE
8
BLACK
6
CONTINUOUS
10
9.4393737795275587
20
-7.5328898425196851
11
9.4522876377952763
21
-7.5328898425196851
0
LINE
8
BLACK
6
CONTINUOUS
10
9.4522876377952763
20
-7.5328898425196851
11
9.4651203149606289
21
-7.5343357086614171
0
LINE
8
BLACK
6
CONTINUOUS
10
9.3326417322834647
20
-7.6542227165354326
11
9.334065157480314
21
-7.6668558661417325
0
LINE
8
BLACK
6
CONTINUOUS
10
9.334065157480314
20
-7.6668558661417325
11
9.3368940944881889
21
-7.6792502362204722
0
LINE
8
BLACK
6
CONTINUOUS
10
9.3368940944881889
20
-7.6792502362204722
11
9.3410929527559059
21
-7.6912499212598426
0
LINE
8
BLACK
6
CONTINUOUS
10
9.3410929527559059
20
-7.6912499212598426
11
9.3466089763779525
21
-7.7027040551181098
0
LINE
8
BLACK
6
CONTINUOUS
10
9.3466089763779525
20
-7.7027040551181098
11
9.3533727559055109
21
-7.7134685433070862
0
LINE
8
BLACK
6
CONTINUOUS
10
9.3533727559055109
20
-7.7134685433070862
11
9.3612992519685037
21
-7.7234080708661415
0
LINE
8
BLACK
6
CONTINUOUS
10
9.3612992519685037
20
-7.7234080708661415
11
9.3702887795275593
21
-7.7323975984251963
0
LINE
8
BLACK
6
CONTINUOUS
10
9.3702887795275593
20
-7.7323975984251963
11
9.3802283070866146
21
-7.740324094488189
0
LINE
8
BLACK
6
CONTINUOUS
10
9.3802283070866146
20
-7.740324094488189
11
9.3909927952755901
21
-7.7470878740157483
0
LINE
8
BLACK
6
CONTINUOUS
10
9.3909927952755901
20
-7.7470878740157483
11
9.4024469291338573
21
-7.7526038976377949
0
LINE
8
BLACK
6
CONTINUOUS
10
9.4024469291338573
20
-7.7526038976377949
11
9.4144466141732277
21
-7.7568027559055119
0
LINE
8
BLACK
6
CONTINUOUS
10
9.4144466141732277
20
-7.7568027559055119
11
9.4268409842519691
21
-7.7596316929133859
0
LINE
8
BLACK
6
CONTINUOUS
10
9.4268409842519691
20
-7.7596316929133859
11
9.4394741338582673
21
-7.7610551181102361
0
LINE
8
BLACK
6
CONTINUOUS
10
9.4394741338582673
20
-7.7610551181102361
11
9.4521872834645659
21
-7.7610551181102361
0
LINE
8
BLACK
6
CONTINUOUS
10
9.4521872834645659
20
-7.7610551181102361
11
9.4648204330708658
21
-7.7596316929133859
0
LINE
8
BLACK
6
CONTINUOUS
10
9.4648204330708658
20
-7.7596316929133859
11
9.4772148031496055
21
-7.7568027559055119
0
LINE
8
BLACK
6
CONTINUOUS
10
9.4772148031496055
20
-7.7568027559055119
11
9.4892144881889759
21
-7.7526038976377949
0
LINE
8
BLACK
6
CONTINUOUS
10
9.4892144881889759
20
-7.7526038976377949
11
9.5006686220472432
21
-7.7470878740157483
0
LINE
8
BLACK
6
CONTINUOUS
10
9.5006686220472432
20
-7.7470878740157483
11
9.5114331102362204
21
-7.740324094488189
0
LINE
8
BLACK
6
CONTINUOUS
10
9.5114331102362204
20
-7.740324094488189
11
9.5213726377952757
21
-7.7323975984251963
0
LINE
8
BLACK
6
CONTINUOUS
10
9.5213726377952757
20
-7.7323975984251963
11
9.5303621653543313
21
-7.7234080708661415
0
LINE
8
BLACK
6
CONTINUOUS
10
9.5303621653543313
20
-7.7234080708661415
11
9.5382886614173223
21
-7.7134685433070862
0
LINE
8
BLACK
6
CONTINUOUS
10
9.5382886614173223
20
-7.7134685433070862
11
9.5450524409448825
21
-7.7027040551181098
0
LINE
8
BLACK
6
CONTINUOUS
10
9.5450524409448825
20
-7.7027040551181098
11
9.5505684645669291
21
-7.6912499212598426
0
LINE
8
BLACK
6
CONTINUOUS
10
9.5505684645669291
20
-7.6912499212598426
11
9.5547673228346461
21
-7.6792502362204722
0
LINE
8
BLACK
6
CONTINUOUS
10
9.5547673228346461
20
-7.6792502362204722
11
9.5575962598425193
21
-7.6668558661417325
0
LINE
8
BLACK
6
CONTINUOUS
10
9.5575962598425193
20
-7.6668558661417325
11
9.5590196850393703
21
-7.6542227165354326
0
LINE
8
BLACK
6
CONTINUOUS
10
9.5590196850393703
20
-7.6542227165354326
11
9.5590196850393703
21
-7.641509566929134
0
LINE
8
BLACK
6
CONTINUOUS
10
9.5590196850393703
20
-7.641509566929134
11
9.5575962598425193
21
-7.6288764173228341
0
LINE
8
BLACK
6
CONTINUOUS
10
9.5575962598425193
20
-7.6288764173228341
11
9.5547673228346461
21
-7.6164820472440944
0
LINE
8
BLACK
6
CONTINUOUS
10
9.5547673228346461
20
-7.6164820472440944
11
9.5505684645669291
21
-7.604482362204724
0
LINE
8
BLACK
6
CONTINUOUS
10
9.5505684645669291
20
-7.604482362204724
11
9.5450524409448825
21
-7.5930282283464567
0
LINE
8
BLACK
6
CONTINUOUS
10
9.5450524409448825
20
-7.5930282283464567
11
9.5382886614173223
21
-7.5822637401574804
0
LINE
8
BLACK
6
CONTINUOUS
10
9.5382886614173223
20
-7.5822637401574804
11
9.5303621653543313
21
-7.5723242125984251
0
LINE
8
BLACK
6
CONTINUOUS
10
9.5303621653543313
20
-7.5723242125984251
11
9.5213726377952757
21
-7.5633346850393703
0
LINE
8
BLACK
6
CONTINUOUS
10
9.5213726377952757
20
-7.5633346850393703
11
9.5114331102362204
21
-7.5554081889763776
0
LINE
8
BLACK
6
CONTINUOUS
10
9.5114331102362204
20
-7.5554081889763776
11
9.5006686220472432
21
-7.5486444094488183
0
LINE
8
BLACK
6
CONTINUOUS
10
9.5006686220472432
20
-7.5486444094488183
11
9.4892144881889759
21
-7.5431283858267717
0
LINE
8
BLACK
6
CONTINUOUS
10
9.4892144881889759
20
-7.5431283858267717
11
9.4772148031496055
21
-7.5389295275590547
0
LINE
8
BLACK
6
CONTINUOUS
10
9.4772148031496055
20
-7.5389295275590547
11
9.4648204330708658
21
-7.5361005905511806
0
LINE
8
BLACK
6
CONTINUOUS
10
9.4648204330708658
20
-7.5361005905511806
11
9.4521872834645659
21
-7.5346771653543305
0
LINE
8
BLACK
6
CONTINUOUS
10
9.4521872834645659
20
-7.5346771653543305
11
9.4394741338582673
21
-7.5346771653543305
0
LINE
8
BLACK
6
CONTINUOUS
10
9.4394741338582673
20
-7.5346771653543305
11
9.4268409842519691
21
-7.5361005905511806
0
LINE
8
BLACK
6
CONTINUOUS
10
9.4268409842519691
20
-7.5361005905511806
11
9.4144466141732277
21
-7.5389295275590547
0
LINE
8
BLACK
6
CONTINUOUS
10
9.4144466141732277
20
-7.5389295275590547
11
9.4024469291338573
21
-7.5431283858267717
0
LINE
8
BLACK
6
CONTINUOUS
10
9.4024469291338573
20
-7.5431283858267717
11
9.3909927952755901
21
-7.5486444094488183
0
LINE
8
BLACK
6
CONTINUOUS
10
9.3909927952755901
20
-7.5486444094488183
11
9.3802283070866146
21
-7.5554081889763776
0
LINE
8
BLACK
6
CONTINUOUS
10
9.3802283070866146
20
-7.5554081889763776
11
9.3702887795275593
21
-7.5633346850393703
0
LINE
8
BLACK
6
CONTINUOUS
10
9.3702887795275593
20
-7.5633346850393703
11
9.3612992519685037
21
-7.5723242125984251
0
LINE
8
BLACK
6
CONTINUOUS
10
9.3612992519685037
20
-7.5723242125984251
11
9.3533727559055109
21
-7.5822637401574804
0
LINE
8
BLACK
6
CONTINUOUS
10
9.3533727559055109
20
-7.5822637401574804
11
9.3466089763779525
21
-7.5930282283464567
0
LINE
8
BLACK
6
CONTINUOUS
10
9.3466089763779525
20
-7.5930282283464567
11
9.3410929527559059
21
-7.604482362204724
0
LINE
8
BLACK
6
CONTINUOUS
10
9.3410929527559059
20
-7.604482362204724
11
9.3368940944881889
21
-7.6164820472440944
0
LINE
8
BLACK
6
CONTINUOUS
10
9.3368940944881889
20
-7.6164820472440944
11
9.334065157480314
21
-7.6288764173228341
0
LINE
8
BLACK
6
CONTINUOUS
10
9.334065157480314
20
-7.6288764173228341
11
9.3326417322834647
21
-7.641509566929134
0
LINE
8
BLACK
6
CONTINUOUS
10
9.3326417322834647
20
-7.641509566929134
11
9.3326417322834647
21
-7.6542227165354326
0
LINE
8
BLACK
6
CONTINUOUS
10
4.3076400000000001
20
-7.3233120866141732
11
4.3202300787401571
21
-7.3261857086614173
0
LINE
8
BLACK
6
CONTINUOUS
10
4.3202300787401571
20
-7.3261857086614173
11
4.3324192519685036
21
-7.3304508661417325
0
LINE
8
BLACK
6
CONTINUOUS
10
4.3324192519685036
20
-7.3304508661417325
11
4.3440542519685037
21
-7.3360539763779524
0
LINE
8
BLACK
6
CONTINUOUS
10
4.3440542519685037
20
-7.3360539763779524
11
4.3549887401574798
21
-7.3429245669291339
0
LINE
8
BLACK
6
CONTINUOUS
10
4.3549887401574798
20
-7.3429245669291339
11
4.3650851968503934
21
-7.3509762598425192
0
LINE
8
BLACK
6
CONTINUOUS
10
4.3650851968503934
20
-7.3509762598425192
11
4.3742166535433071
21
-7.3601077165354329
0
LINE
8
BLACK
6
CONTINUOUS
10
4.3742166535433071
20
-7.3601077165354329
11
4.3822683464566925
21
-7.3702041732283465
0
LINE
8
BLACK
6
CONTINUOUS
10
4.3822683464566925
20
-7.3702041732283465
11
4.3891389370078739
21
-7.3811386614173227
0
LINE
8
BLACK
6
CONTINUOUS
10
4.3891389370078739
20
-7.3811386614173227
11
4.3947420472440948
21
-7.3927736614173227
0
LINE
8
BLACK
6
CONTINUOUS
10
4.3947420472440948
20
-7.3927736614173227
11
4.3990072047244091
21
-7.4049628346456693
0
LINE
8
BLACK
6
CONTINUOUS
10
4.3990072047244091
20
-7.4049628346456693
11
4.4018808267716532
21
-7.4175529133858262
0
LINE
8
BLACK
6
CONTINUOUS
10
4.4018808267716532
20
-7.4175529133858262
11
4.4033266929133861
21
-7.4303855905511806
0
LINE
8
BLACK
6
CONTINUOUS
10
4.4033266929133861
20
-7.4303855905511806
11
4.4033266929133861
21
-7.4432994488188973
0
LINE
8
BLACK
6
CONTINUOUS
10
4.4033266929133861
20
-7.4432994488188973
11
4.4018808267716532
21
-7.4561321259842517
0
LINE
8
BLACK
6
CONTINUOUS
10
4.4018808267716532
20
-7.4561321259842517
11
4.3990072047244091
21
-7.4687222047244095
0
LINE
8
BLACK
6
CONTINUOUS
10
4.3990072047244091
20
-7.4687222047244095
11
4.3947420472440948
21
-7.4809113779527561
0
LINE
8
BLACK
6
CONTINUOUS
10
4.3947420472440948
20
-7.4809113779527561
11
4.3891389370078739
21
-7.4925463779527561
0
LINE
8
BLACK
6
CONTINUOUS
10
4.3891389370078739
20
-7.4925463779527561
11
4.3822683464566925
21
-7.5034808661417323
0
LINE
8
BLACK
6
CONTINUOUS
10
4.3822683464566925
20
-7.5034808661417323
11
4.3742166535433071
21
-7.5135773228346459
0
LINE
8
BLACK
6
CONTINUOUS
10
4.3742166535433071
20
-7.5135773228346459
11
4.3650851968503934
21
-7.5227087795275587
0
LINE
8
BLACK
6
CONTINUOUS
10
4.3650851968503934
20
-7.5227087795275587
11
4.3549887401574798
21
-7.5307604724409449
0
LINE
8
BLACK
6
CONTINUOUS
10
4.3549887401574798
20
-7.5307604724409449
11
4.3440542519685037
21
-7.5376310629921255
0
LINE
8
BLACK
6
CONTINUOUS
10
4.3440542519685037
20
-7.5376310629921255
11
4.3324192519685036
21
-7.5432341732283463
0
LINE
8
BLACK
6
CONTINUOUS
10
4.3324192519685036
20
-7.5432341732283463
11
4.3202300787401571
21
-7.5474993307086615
0
LINE
8
BLACK
6
CONTINUOUS
10
4.3202300787401571
20
-7.5474993307086615
11
4.3076400000000001
21
-7.5503729527559056
0
LINE
8
BLACK
6
CONTINUOUS
10
4.3076400000000001
20
-7.5503729527559056
11
4.2948073228346457
21
-7.5518188188976376
0
LINE
8
BLACK
6
CONTINUOUS
10
4.2948073228346457
20
-7.5518188188976376
11
4.2818934645669291
21
-7.5518188188976376
0
LINE
8
BLACK
6
CONTINUOUS
10
4.2818934645669291
20
-7.5518188188976376
11
4.2690607874015747
21
-7.5503729527559056
0
LINE
8
BLACK
6
CONTINUOUS
10
4.2690607874015747
20
-7.5503729527559056
11
4.2564707086614169
21
-7.5474993307086615
0
LINE
8
BLACK
6
CONTINUOUS
10
4.2564707086614169
20
-7.5474993307086615
11
4.2442815354330712
21
-7.5432341732283463
0
LINE
8
BLACK
6
CONTINUOUS
10
4.2442815354330712
20
-7.5432341732283463
11
4.2326465354330711
21
-7.5376310629921255
0
LINE
8
BLACK
6
CONTINUOUS
10
4.2326465354330711
20
-7.5376310629921255
11
4.2217120472440941
21
-7.5307604724409449
0
LINE
8
BLACK
6
CONTINUOUS
10
4.2217120472440941
20
-7.5307604724409449
11
4.2116155905511814
21
-7.5227087795275587
0
LINE
8
BLACK
6
CONTINUOUS
10
4.2116155905511814
20
-7.5227087795275587
11
4.2024841338582677
21
-7.5135773228346459
0
LINE
8
BLACK
6
CONTINUOUS
10
4.2024841338582677
20
-7.5135773228346459
11
4.1944324409448814
21
-7.5034808661417323
0
LINE
8
BLACK
6
CONTINUOUS
10
4.1944324409448814
20
-7.5034808661417323
11
4.1875618503937009
21
-7.4925463779527561
0
LINE
8
BLACK
6
CONTINUOUS
10
4.1875618503937009
20
-7.4925463779527561
11
4.18195874015748
21
-7.4809113779527561
0
LINE
8
BLACK
6
CONTINUOUS
10
4.18195874015748
20
-7.4809113779527561
11
4.1776935826771648
21
-7.4687222047244095
0
LINE
8
BLACK
6
CONTINUOUS
10
4.1776935826771648
20
-7.4687222047244095
11
4.1748199606299208
21
-7.4561321259842517
0
LINE
8
BLACK
6
CONTINUOUS
10
4.1748199606299208
20
-7.4561321259842517
11
4.1733740944881887
21
-7.4432994488188973
0
LINE
8
BLACK
6
CONTINUOUS
10
4.1733740944881887
20
-7.4432994488188973
11
4.1733740944881887
21
-7.4304859448818892
0
LINE
8
BLACK
6
CONTINUOUS
10
4.1733740944881887
20
-7.4304859448818892
11
4.1733740944881887
21
-7.4303855905511806
0
LINE
8
BLACK
6
CONTINUOUS
10
4.1733740944881887
20
-7.4303855905511806
11
4.1748199606299208
21
-7.4175529133858262
0
LINE
8
BLACK
6
CONTINUOUS
10
4.1748199606299208
20
-7.4175529133858262
11
4.1776935826771648
21
-7.4049628346456693
0
LINE
8
BLACK
6
CONTINUOUS
10
4.1776935826771648
20
-7.4049628346456693
11
4.18195874015748
21
-7.3927736614173227
0
LINE
8
BLACK
6
CONTINUOUS
10
4.18195874015748
20
-7.3927736614173227
11
4.1875618503937009
21
-7.3811386614173227
0
LINE
8
BLACK
6
CONTINUOUS
10
4.1875618503937009
20
-7.3811386614173227
11
4.1944324409448814
21
-7.3702041732283465
0
LINE
8
BLACK
6
CONTINUOUS
10
4.1944324409448814
20
-7.3702041732283465
11
4.2024841338582677
21
-7.3601077165354329
0
LINE
8
BLACK
6
CONTINUOUS
10
4.2024841338582677
20
-7.3601077165354329
11
4.2116155905511814
21
-7.3509762598425192
0
LINE
8
BLACK
6
CONTINUOUS
10
4.2116155905511814
20
-7.3509762598425192
11
4.2217120472440941
21
-7.3429245669291339
0
LINE
8
BLACK
6
CONTINUOUS
10
4.2217120472440941
20
-7.3429245669291339
11
4.2326465354330711
21
-7.3360539763779524
0
LINE
8
BLACK
6
CONTINUOUS
10
4.2326465354330711
20
-7.3360539763779524
11
4.2442815354330712
21
-7.3304508661417325
0
LINE
8
BLACK
6
CONTINUOUS
10
4.2442815354330712
20
-7.3304508661417325
11
4.2564707086614169
21
-7.3261857086614173
0
LINE
8
BLACK
6
CONTINUOUS
10
4.2564707086614169
20
-7.3261857086614173
11
4.2690607874015747
21
-7.3233120866141732
0
LINE
8
BLACK
6
CONTINUOUS
10
4.2690607874015747
20
-7.3233120866141732
11
4.2818934645669291
21
-7.3218662204724412
0
LINE
8
BLACK
6
CONTINUOUS
10
4.2818934645669291
20
-7.3218662204724412
11
4.2948073228346457
21
-7.3218662204724412
0
LINE
8
BLACK
6
CONTINUOUS
10
4.2948073228346457
20
-7.3218662204724412
11
4.3076400000000001
21
-7.3233120866141732
0
LINE
8
BLACK
6
CONTINUOUS
10
4.1751614173228342
20
-7.4431990944881887
11
4.1765848425196852
21
-7.4558322440944877
0
LINE
8
BLACK
6
CONTINUOUS
10
4.1765848425196852
20
-7.4558322440944877
11
4.1794137795275592
21
-7.4682266141732283
0
LINE
8
BLACK
6
CONTINUOUS
10
4.1794137795275592
20
-7.4682266141732283
11
4.1836126377952754
21
-7.4802262992125979
0
LINE
8
BLACK
6
CONTINUOUS
10
4.1836126377952754
20
-7.4802262992125979
11
4.1891286614173229
21
-7.491680433070866
0
LINE
8
BLACK
6
CONTINUOUS
10
4.1891286614173229
20
-7.491680433070866
11
4.1958924409448821
21
-7.5024449212598423
0
LINE
8
BLACK
6
CONTINUOUS
10
4.1958924409448821
20
-7.5024449212598423
11
4.203818937007874
21
-7.5123844488188976
0
LINE
8
BLACK
6
CONTINUOUS
10
4.203818937007874
20
-7.5123844488188976
11
4.2128084645669288
21
-7.5213739763779524
0
LINE
8
BLACK
6
CONTINUOUS
10
4.2128084645669288
20
-7.5213739763779524
11
4.2227479921259841
21
-7.5293004724409451
0
LINE
8
BLACK
6
CONTINUOUS
10
4.2227479921259841
20
-7.5293004724409451
11
4.2335124803149604
21
-7.5360642519685035
0
LINE
8
BLACK
6
CONTINUOUS
10
4.2335124803149604
20
-7.5360642519685035
11
4.2449666141732285
21
-7.541580275590551
0
LINE
8
BLACK
6
CONTINUOUS
10
4.2449666141732285
20
-7.541580275590551
11
4.2569662992125981
21
-7.5457791338582672
0
LINE
8
BLACK
6
CONTINUOUS
10
4.2569662992125981
20
-7.5457791338582672
11
4.2693606692913386
21
-7.5486080708661412
0
LINE
8
BLACK
6
CONTINUOUS
10
4.2693606692913386
20
-7.5486080708661412
11
4.2819938188976376
21
-7.5500314960629922
0
LINE
8
BLACK
6
CONTINUOUS
10
4.2819938188976376
20
-7.5500314960629922
11
4.2947069685039372
21
-7.5500314960629922
0
LINE
8
BLACK
6
CONTINUOUS
10
4.2947069685039372
20
-7.5500314960629922
11
4.3073401181102362
21
-7.5486080708661412
0
LINE
8
BLACK
6
CONTINUOUS
10
4.3073401181102362
20
-7.5486080708661412
11
4.3197344881889759
21
-7.5457791338582672
0
LINE
8
BLACK
6
CONTINUOUS
10
4.3197344881889759
20
-7.5457791338582672
11
4.3317341732283463
21
-7.541580275590551
0
LINE
8
BLACK
6
CONTINUOUS
10
4.3317341732283463
20
-7.541580275590551
11
4.3431883070866144
21
-7.5360642519685035
0
LINE
8
BLACK
6
CONTINUOUS
10
4.3431883070866144
20
-7.5360642519685035
11
4.3539527952755908
21
-7.5293004724409451
0
LINE
8
BLACK
6
CONTINUOUS
10
4.3539527952755908
20
-7.5293004724409451
11
4.363892322834646
21
-7.5213739763779524
0
LINE
8
BLACK
6
CONTINUOUS
10
4.363892322834646
20
-7.5213739763779524
11
4.3728818503937008
21
-7.5123844488188976
0
LINE
8
BLACK
6
CONTINUOUS
10
4.3728818503937008
20
-7.5123844488188976
11
4.3808083464566927
21
-7.5024449212598423
0
LINE
8
BLACK
6
CONTINUOUS
10
4.3808083464566927
20
-7.5024449212598423
11
4.3875721259842519
21
-7.491680433070866
0
LINE
8
BLACK
6
CONTINUOUS
10
4.3875721259842519
20
-7.491680433070866
11
4.3930881496062995
21
-7.4802262992125979
0
LINE
8
BLACK
6
CONTINUOUS
10
4.3930881496062995
20
-7.4802262992125979
11
4.3972870078740156
21
-7.4682266141732283
0
LINE
8
BLACK
6
CONTINUOUS
10
4.3972870078740156
20
-7.4682266141732283
11
4.4001159448818896
21
-7.4558322440944877
0
LINE
8
BLACK
6
CONTINUOUS
10
4.4001159448818896
20
-7.4558322440944877
11
4.4015393700787397
21
-7.4431990944881887
0
LINE
8
BLACK
6
CONTINUOUS
10
4.4015393700787397
20
-7.4431990944881887
11
4.4015393700787397
21
-7.4304859448818892
0
LINE
8
BLACK
6
CONTINUOUS
10
4.4015393700787397
20
-7.4304859448818892
11
4.4001159448818896
21
-7.4178527952755902
0
LINE
8
BLACK
6
CONTINUOUS
10
4.4001159448818896
20
-7.4178527952755902
11
4.3972870078740156
21
-7.4054584251968505
0
LINE
8
BLACK
6
CONTINUOUS
10
4.3972870078740156
20
-7.4054584251968505
11
4.3930881496062995
21
-7.3934587401574801
0
LINE
8
BLACK
6
CONTINUOUS
10
4.3930881496062995
20
-7.3934587401574801
11
4.3875721259842519
21
-7.3820046062992128
0
LINE
8
BLACK
6
CONTINUOUS
10
4.3875721259842519
20
-7.3820046062992128
11
4.3808083464566927
21
-7.3712401181102365
0
LINE
8
BLACK
6
CONTINUOUS
10
4.3808083464566927
20
-7.3712401181102365
11
4.3728818503937008
21
-7.3613005905511812
0
LINE
8
BLACK
6
CONTINUOUS
10
4.3728818503937008
20
-7.3613005905511812
11
4.363892322834646
21
-7.3523110629921256
0
LINE
8
BLACK
6
CONTINUOUS
10
4.363892322834646
20
-7.3523110629921256
11
4.3539527952755908
21
-7.3443845669291337
0
LINE
8
BLACK
6
CONTINUOUS
10
4.3539527952755908
20
-7.3443845669291337
11
4.3431883070866144
21
-7.3376207874015744
0
LINE
8
BLACK
6
CONTINUOUS
10
4.3431883070866144
20
-7.3376207874015744
11
4.3317341732283463
21
-7.3321047637795278
0
LINE
8
BLACK
6
CONTINUOUS
10
4.3317341732283463
20
-7.3321047637795278
11
4.3197344881889759
21
-7.3279059055118108
0
LINE
8
BLACK
6
CONTINUOUS
10
4.3197344881889759
20
-7.3279059055118108
11
4.3073401181102362
21
-7.3250769685039367
0
LINE
8
BLACK
6
CONTINUOUS
10
4.3073401181102362
20
-7.3250769685039367
11
4.2947069685039372
21
-7.3236535433070866
0
LINE
8
BLACK
6
CONTINUOUS
10
4.2947069685039372
20
-7.3236535433070866
11
4.2819938188976376
21
-7.3236535433070866
0
LINE
8
BLACK
6
CONTINUOUS
10
4.2819938188976376
20
-7.3236535433070866
11
4.2693606692913386
21
-7.3250769685039367
0
LINE
8
BLACK
6
CONTINUOUS
10
4.2693606692913386
20
-7.3250769685039367
11
4.2569662992125981
21
-7.3279059055118108
0
LINE
8
BLACK
6
CONTINUOUS
10
4.2569662992125981
20
-7.3279059055118108
11
4.2449666141732285
21
-7.3321047637795278
0
LINE
8
BLACK
6
CONTINUOUS
10
4.2449666141732285
20
-7.3321047637795278
11
4.2335124803149604
21
-7.3376207874015744
0
LINE
8
BLACK
6
CONTINUOUS
10
4.2335124803149604
20
-7.3376207874015744
11
4.2227479921259841
21
-7.3443845669291337
0
LINE
8
BLACK
6
CONTINUOUS
10
4.2227479921259841
20
-7.3443845669291337
11
4.2128084645669288
21
-7.3523110629921256
0
LINE
8
BLACK
6
CONTINUOUS
10
4.2128084645669288
20
-7.3523110629921256
11
4.203818937007874
21
-7.3613005905511812
0
LINE
8
BLACK
6
CONTINUOUS
10
4.203818937007874
20
-7.3613005905511812
11
4.1958924409448821
21
-7.3712401181102365
0
LINE
8
BLACK
6
CONTINUOUS
10
4.1958924409448821
20
-7.3712401181102365
11
4.1891286614173229
21
-7.3820046062992128
0
LINE
8
BLACK
6
CONTINUOUS
10
4.1891286614173229
20
-7.3820046062992128
11
4.1836126377952754
21
-7.3934587401574801
0
LINE
8
BLACK
6
CONTINUOUS
10
4.1836126377952754
20
-7.3934587401574801
11
4.1794137795275592
21
-7.4054584251968505
0
LINE
8
BLACK
6
CONTINUOUS
10
4.1794137795275592
20
-7.4054584251968505
11
4.1765848425196852
21
-7.4178527952755902
0
LINE
8
BLACK
6
CONTINUOUS
10
4.1765848425196852
20
-7.4178527952755902
11
4.1751614173228342
21
-7.4304859448818892
0
LINE
8
BLACK
6
CONTINUOUS
10
4.1751614173228342
20
-7.4304859448818892
11
4.1751614173228342
21
-7.4431990944881887
0
LINE
8
BLACK
6
CONTINUOUS
10
12.461183307086614
20
-7.3233120866141732
11
12.473773385826771
21
-7.3261857086614173
0
LINE
8
BLACK
6
CONTINUOUS
10
12.473773385826771
20
-7.3261857086614173
11
12.4859625590551175
21
-7.3304508661417325
0
LINE
8
BLACK
6
CONTINUOUS
10
12.4859625590551175
20
-7.3304508661417325
11
12.4975975590551176
21
-7.3360539763779524
0
LINE
8
BLACK
6
CONTINUOUS
10
12.4975975590551176
20
-7.3360539763779524
11
12.5085320472440937
21
-7.3429245669291339
0
LINE
8
BLACK
6
CONTINUOUS
10
12.5085320472440937
20
-7.3429245669291339
11
12.5186285039370073
21
-7.3509762598425192
0
LINE
8
BLACK
6
CONTINUOUS
10
12.5186285039370073
20
-7.3509762598425192
11
12.5277599606299201
21
-7.3601077165354329
0
LINE
8
BLACK
6
CONTINUOUS
10
12.5277599606299201
20
-7.3601077165354329
11
12.5358116535433073
21
-7.3702041732283465
0
LINE
8
BLACK
6
CONTINUOUS
10
12.5358116535433073
20
-7.3702041732283465
11
12.5426822440944878
21
-7.3811386614173227
0
LINE
8
BLACK
6
CONTINUOUS
10
12.5426822440944878
20
-7.3811386614173227
11
12.5482853543307087
21
-7.3927736614173227
0
LINE
8
BLACK
6
CONTINUOUS
10
12.5482853543307087
20
-7.3927736614173227
11
12.5525505118110239
21
-7.4049628346456693
0
LINE
8
BLACK
6
CONTINUOUS
10
12.5525505118110239
20
-7.4049628346456693
11
12.5554241338582671
21
-7.4175529133858262
0
LINE
8
BLACK
6
CONTINUOUS
10
12.5554241338582671
20
-7.4175529133858262
11
12.55687
21
-7.4303855905511806
0
LINE
8
BLACK
6
CONTINUOUS
10
12.55687
20
-7.4303855905511806
11
12.55687
21
-7.4432994488188973
0
LINE
8
BLACK
6
CONTINUOUS
10
12.55687
20
-7.4432994488188973
11
12.5554241338582671
21
-7.4561321259842517
0
LINE
8
BLACK
6
CONTINUOUS
10
12.5554241338582671
20
-7.4561321259842517
11
12.5525505118110239
21
-7.4687222047244095
0
LINE
8
BLACK
6
CONTINUOUS
10
12.5525505118110239
20
-7.4687222047244095
11
12.5482853543307087
21
-7.4809113779527561
0
LINE
8
BLACK
6
CONTINUOUS
10
12.5482853543307087
20
-7.4809113779527561
11
12.5426822440944878
21
-7.4925463779527561
0
LINE
8
BLACK
6
CONTINUOUS
10
12.5426822440944878
20
-7.4925463779527561
11
12.5358116535433073
21
-7.5034808661417323
0
LINE
8
BLACK
6
CONTINUOUS
10
12.5358116535433073
20
-7.5034808661417323
11
12.5277599606299201
21
-7.5135773228346459
0
LINE
8
BLACK
6
CONTINUOUS
10
12.5277599606299201
20
-7.5135773228346459
11
12.5186285039370073
21
-7.5227087795275587
0
LINE
8
BLACK
6
CONTINUOUS
10
12.5186285039370073
20
-7.5227087795275587
11
12.5085320472440937
21
-7.5307604724409449
0
LINE
8
BLACK
6
CONTINUOUS
10
12.5085320472440937
20
-7.5307604724409449
11
12.4975975590551176
21
-7.5376310629921255
0
LINE
8
BLACK
6
CONTINUOUS
10
12.4975975590551176
20
-7.5376310629921255
11
12.4859625590551175
21
-7.5432341732283463
0
LINE
8
BLACK
6
CONTINUOUS
10
12.4859625590551175
20
-7.5432341732283463
11
12.473773385826771
21
-7.5474993307086615
0
LINE
8
BLACK
6
CONTINUOUS
10
12.473773385826771
20
-7.5474993307086615
11
12.461183307086614
21
-7.5503729527559056
0
LINE
8
BLACK
6
CONTINUOUS
10
12.461183307086614
20
-7.5503729527559056
11
12.4483506299212596
21
-7.5518188188976376
0
LINE
8
BLACK
6
CONTINUOUS
10
12.4483506299212596
20
-7.5518188188976376
11
12.4354367716535439
21
-7.5518188188976376
0
LINE
8
BLACK
6
CONTINUOUS
10
12.4354367716535439
20
-7.5518188188976376
11
12.4226040944881895
21
-7.5503729527559056
0
LINE
8
BLACK
6
CONTINUOUS
10
12.4226040944881895
20
-7.5503729527559056
11
12.4100140157480308
21
-7.5474993307086615
0
LINE
8
BLACK
6
CONTINUOUS
10
12.4100140157480308
20
-7.5474993307086615
11
12.3978248425196842
21
-7.5432341732283463
0
LINE
8
BLACK
6
CONTINUOUS
10
12.3978248425196842
20
-7.5432341732283463
11
12.3861898425196841
21
-7.5376310629921255
0
LINE
8
BLACK
6
CONTINUOUS
10
12.3861898425196841
20
-7.5376310629921255
11
12.375255354330708
21
-7.5307604724409449
0
LINE
8
BLACK
6
CONTINUOUS
10
12.375255354330708
20
-7.5307604724409449
11
12.3651588976377944
21
-7.5227087795275587
0
LINE
8
BLACK
6
CONTINUOUS
10
12.3651588976377944
20
-7.5227087795275587
11
12.3560274409448816
21
-7.5135773228346459
0
LINE
8
BLACK
6
CONTINUOUS
10
12.3560274409448816
20
-7.5135773228346459
11
12.3479757480314962
21
-7.5034808661417323
0
LINE
8
BLACK
6
CONTINUOUS
10
12.3479757480314962
20
-7.5034808661417323
11
12.3411051574803139
21
-7.4925463779527561
0
LINE
8
BLACK
6
CONTINUOUS
10
12.3411051574803139
20
-7.4925463779527561
11
12.3355020472440948
21
-7.4809113779527561
0
LINE
8
BLACK
6
CONTINUOUS
10
12.3355020472440948
20
-7.4809113779527561
11
12.3312368897637796
21
-7.4687222047244095
0
LINE
8
BLACK
6
CONTINUOUS
10
12.3312368897637796
20
-7.4687222047244095
11
12.3283632677165347
21
-7.4561321259842517
0
LINE
8
BLACK
6
CONTINUOUS
10
12.3283632677165347
20
-7.4561321259842517
11
12.3269174015748035
21
-7.4432994488188973
0
LINE
8
BLACK
6
CONTINUOUS
10
12.3269174015748035
20
-7.4432994488188973
11
12.3269174015748035
21
-7.4304859448818892
0
LINE
8
BLACK
6
CONTINUOUS
10
12.3269174015748035
20
-7.4304859448818892
11
12.3269174015748035
21
-7.4303855905511806
0
LINE
8
BLACK
6
CONTINUOUS
10
12.3269174015748035
20
-7.4303855905511806
11
12.3283632677165347
21
-7.4175529133858262
0
LINE
8
BLACK
6
CONTINUOUS
10
12.3283632677165347
20
-7.4175529133858262
11
12.3312368897637796
21
-7.4049628346456693
0
LINE
8
BLACK
6
CONTINUOUS
10
12.3312368897637796
20
-7.4049628346456693
11
12.3355020472440948
21
-7.3927736614173227
0
LINE
8
BLACK
6
CONTINUOUS
10
12.3355020472440948
20
-7.3927736614173227
11
12.3411051574803139
21
-7.3811386614173227
0
LINE
8
BLACK
6
CONTINUOUS
10
12.3411051574803139
20
-7.3811386614173227
11
12.3479757480314962
21
-7.3702041732283465
0
LINE
8
BLACK
6
CONTINUOUS
10
12.3479757480314962
20
-7.3702041732283465
11
12.3560274409448816
21
-7.3601077165354329
0
LINE
8
BLACK
6
CONTINUOUS
10
12.3560274409448816
20
-7.3601077165354329
11
12.3651588976377944
21
-7.3509762598425192
0
LINE
8
BLACK
6
CONTINUOUS
10
12.3651588976377944
20
-7.3509762598425192
11
12.375255354330708
21
-7.3429245669291339
0
LINE
8
BLACK
6
CONTINUOUS
10
12.375255354330708
20
-7.3429245669291339
11
12.3861898425196841
21
-7.3360539763779524
0
LINE
8
BLACK
6
CONTINUOUS
10
12.3861898425196841
20
-7.3360539763779524
11
12.3978248425196842
21
-7.3304508661417325
0
LINE
8
BLACK
6
CONTINUOUS
10
12.3978248425196842
20
-7.3304508661417325
11
12.4100140157480308
21
-7.3261857086614173
0
LINE
8
BLACK
6
CONTINUOUS
10
12.4100140157480308
20
-7.3261857086614173
11
12.4226040944881895
21
-7.3233120866141732
0
LINE
8
BLACK
6
CONTINUOUS
10
12.4226040944881895
20
-7.3233120866141732
11
12.4354367716535439
21
-7.3218662204724412
0
LINE
8
BLACK
6
CONTINUOUS
10
12.4354367716535439
20
-7.3218662204724412
11
12.4483506299212596
21
-7.3218662204724412
0
LINE
8
BLACK
6
CONTINUOUS
10
12.4483506299212596
20
-7.3218662204724412
11
12.461183307086614
21
-7.3233120866141732
0
LINE
8
BLACK
6
CONTINUOUS
10
12.3287047244094481
20
-7.4431990944881887
11
12.3301281496062991
21
-7.4558322440944877
0
LINE
8
BLACK
6
CONTINUOUS
10
12.3301281496062991
20
-7.4558322440944877
11
12.3329570866141722
21
-7.4682266141732283
0
LINE
8
BLACK
6
CONTINUOUS
10
12.3329570866141722
20
-7.4682266141732283
11
12.3371559448818893
21
-7.4802262992125979
0
LINE
8
BLACK
6
CONTINUOUS
10
12.3371559448818893
20
-7.4802262992125979
11
12.3426719685039359
21
-7.491680433070866
0
LINE
8
BLACK
6
CONTINUOUS
10
12.3426719685039359
20
-7.491680433070866
11
12.349435748031496
21
-7.5024449212598423
0
LINE
8
BLACK
6
CONTINUOUS
10
12.349435748031496
20
-7.5024449212598423
11
12.357362244094487
21
-7.5123844488188976
0
LINE
8
BLACK
6
CONTINUOUS
10
12.357362244094487
20
-7.5123844488188976
11
12.3663517716535427
21
-7.5213739763779524
0
LINE
8
BLACK
6
CONTINUOUS
10
12.3663517716535427
20
-7.5213739763779524
11
12.376291299212598
21
-7.5293004724409451
0
LINE
8
BLACK
6
CONTINUOUS
10
12.376291299212598
20
-7.5293004724409451
11
12.3870557874015752
21
-7.5360642519685035
0
LINE
8
BLACK
6
CONTINUOUS
10
12.3870557874015752
20
-7.5360642519685035
11
12.3985099212598424
21
-7.541580275590551
0
LINE
8
BLACK
6
CONTINUOUS
10
12.3985099212598424
20
-7.541580275590551
11
12.4105096062992128
21
-7.5457791338582672
0
LINE
8
BLACK
6
CONTINUOUS
10
12.4105096062992128
20
-7.5457791338582672
11
12.4229039763779525
21
-7.5486080708661412
0
LINE
8
BLACK
6
CONTINUOUS
10
12.4229039763779525
20
-7.5486080708661412
11
12.4355371259842524
21
-7.5500314960629922
0
LINE
8
BLACK
6
CONTINUOUS
10
12.4355371259842524
20
-7.5500314960629922
11
12.4482502755905511
21
-7.5500314960629922
0
LINE
8
BLACK
6
CONTINUOUS
10
12.4482502755905511
20
-7.5500314960629922
11
12.460883425196851
21
-7.5486080708661412
0
LINE
8
BLACK
6
CONTINUOUS
10
12.460883425196851
20
-7.5486080708661412
11
12.4732777952755907
21
-7.5457791338582672
0
LINE
8
BLACK
6
CONTINUOUS
10
12.4732777952755907
20
-7.5457791338582672
11
12.4852774803149611
21
-7.541580275590551
0
LINE
8
BLACK
6
CONTINUOUS
10
12.4852774803149611
20
-7.541580275590551
11
12.4967316141732283
21
-7.5360642519685035
0
LINE
8
BLACK
6
CONTINUOUS
10
12.4967316141732283
20
-7.5360642519685035
11
12.5074961023622038
21
-7.5293004724409451
0
LINE
8
BLACK
6
CONTINUOUS
10
12.5074961023622038
20
-7.5293004724409451
11
12.517435629921259
21
-7.5213739763779524
0
LINE
8
BLACK
6
CONTINUOUS
10
12.517435629921259
20
-7.5213739763779524
11
12.5264251574803147
21
-7.5123844488188976
0
LINE
8
BLACK
6
CONTINUOUS
10
12.5264251574803147
20
-7.5123844488188976
11
12.5343516535433075
21
-7.5024449212598423
0
LINE
8
BLACK
6
CONTINUOUS
10
12.5343516535433075
20
-7.5024449212598423
11
12.5411154330708658
21
-7.491680433070866
0
LINE
8
BLACK
6
CONTINUOUS
10
12.5411154330708658
20
-7.491680433070866
11
12.5466314566929125
21
-7.4802262992125979
0
LINE
8
BLACK
6
CONTINUOUS
10
12.5466314566929125
20
-7.4802262992125979
11
12.5508303149606295
21
-7.4682266141732283
0
LINE
8
BLACK
6
CONTINUOUS
10
12.5508303149606295
20
-7.4682266141732283
11
12.5536592519685044
21
-7.4558322440944877
0
LINE
8
BLACK
6
CONTINUOUS
10
12.5536592519685044
20
-7.4558322440944877
11
12.5550826771653536
21
-7.4431990944881887
0
LINE
8
BLACK
6
CONTINUOUS
10
12.5550826771653536
20
-7.4431990944881887
11
12.5550826771653536
21
-7.4304859448818892
0
LINE
8
BLACK
6
CONTINUOUS
10
12.5550826771653536
20
-7.4304859448818892
11
12.5536592519685044
21
-7.4178527952755902
0
LINE
8
BLACK
6
CONTINUOUS
10
12.5536592519685044
20
-7.4178527952755902
11
12.5508303149606295
21
-7.4054584251968505
0
LINE
8
BLACK
6
CONTINUOUS
10
12.5508303149606295
20
-7.4054584251968505
11
12.5466314566929125
21
-7.3934587401574801
0
LINE
8
BLACK
6
CONTINUOUS
10
12.5466314566929125
20
-7.3934587401574801
11
12.5411154330708658
21
-7.3820046062992128
0
LINE
8
BLACK
6
CONTINUOUS
10
12.5411154330708658
20
-7.3820046062992128
11
12.5343516535433075
21
-7.3712401181102365
0
LINE
8
BLACK
6
CONTINUOUS
10
12.5343516535433075
20
-7.3712401181102365
11
12.5264251574803147
21
-7.3613005905511812
0
LINE
8
BLACK
6
CONTINUOUS
10
12.5264251574803147
20
-7.3613005905511812
11
12.517435629921259
21
-7.3523110629921256
0
LINE
8
BLACK
6
CONTINUOUS
10
12.517435629921259
20
-7.3523110629921256
11
12.5074961023622038
21
-7.3443845669291337
0
LINE
8
BLACK
6
CONTINUOUS
10
12.5074961023622038
20
-7.3443845669291337
11
12.4967316141732283
21
-7.3376207874015744
0
LINE
8
BLACK
6
CONTINUOUS
10
12.4967316141732283
20
-7.3376207874015744
11
12.4852774803149611
21
-7.3321047637795278
0
LINE
8
BLACK
6
CONTINUOUS
10
12.4852774803149611
20
-7.3321047637795278
11
12.4732777952755907
21
-7.3279059055118108
0
LINE
8
BLACK
6
CONTINUOUS
10
12.4732777952755907
20
-7.3279059055118108
11
12.460883425196851
21
-7.3250769685039367
0
LINE
8
BLACK
6
CONTINUOUS
10
12.460883425196851
20
-7.3250769685039367
11
12.4482502755905511
21
-7.3236535433070866
0
LINE
8
BLACK
6
CONTINUOUS
10
12.4482502755905511
20
-7.3236535433070866
11
12.4355371259842524
21
-7.3236535433070866
0
LINE
8
BLACK
6
CONTINUOUS
10
12.4355371259842524
20
-7.3236535433070866
11
12.4229039763779525
21
-7.3250769685039367
0
LINE
8
BLACK
6
CONTINUOUS
10
12.4229039763779525
20
-7.3250769685039367
11
12.4105096062992128
21
-7.3279059055118108
0
LINE
8
BLACK
6
CONTINUOUS
10
12.4105096062992128
20
-7.3279059055118108
11
12.3985099212598424
21
-7.3321047637795278
0
LINE
8
BLACK
6
CONTINUOUS
10
12.3985099212598424
20
-7.3321047637795278
11
12.3870557874015752
21
-7.3376207874015744
0
LINE
8
BLACK
6
CONTINUOUS
10
12.3870557874015752
20
-7.3376207874015744
11
12.376291299212598
21
-7.3443845669291337
0
LINE
8
BLACK
6
CONTINUOUS
10
12.376291299212598
20
-7.3443845669291337
11
12.3663517716535427
21
-7.3523110629921256
0
LINE
8
BLACK
6
CONTINUOUS
10
12.3663517716535427
20
-7.3523110629921256
11
12.357362244094487
21
-7.3613005905511812
0
LINE
8
BLACK
6
CONTINUOUS
10
12.357362244094487
20
-7.3613005905511812
11
12.349435748031496
21
-7.3712401181102365
0
LINE
8
BLACK
6
CONTINUOUS
10
12.349435748031496
20
-7.3712401181102365
11
12.3426719685039359
21
-7.3820046062992128
0
LINE
8
BLACK
6
CONTINUOUS
10
12.3426719685039359
20
-7.3820046062992128
11
12.3371559448818893
21
-7.3934587401574801
0
LINE
8
BLACK
6
CONTINUOUS
10
12.3371559448818893
20
-7.3934587401574801
11
12.3329570866141722
21
-7.4054584251968505
0
LINE
8
BLACK
6
CONTINUOUS
10
12.3329570866141722
20
-7.4054584251968505
11
12.3301281496062991
21
-7.4178527952755902
0
LINE
8
BLACK
6
CONTINUOUS
10
12.3301281496062991
20
-7.4178527952755902
11
12.3287047244094481
21
-7.4304859448818892
0
LINE
8
BLACK
6
CONTINUOUS
10
12.3287047244094481
20
-7.4304859448818892
11
12.3287047244094481
21
-7.4431990944881887
0
LINE
8
BLACK
6
CONTINUOUS
10
8.7365616929133854
20
-6.3087678346456695
11
8.73709437007874
21
-6.3093005118110232
0
LINE
8
BLACK
6
CONTINUOUS
10
8.73709437007874
20
-6.3093005118110232
11
8.7371692913385832
21
-6.3096771653543309
0
LINE
8
BLACK
6
CONTINUOUS
10
8.7371692913385832
20
-6.3096771653543309
11
8.7371692913385832
21
-6.4514094488188976
0
LINE
8
BLACK
6
CONTINUOUS
10
8.7371692913385832
20
-6.4514094488188976
11
8.73709437007874
21
-6.4517861023622043
0
LINE
8
BLACK
6
CONTINUOUS
10
8.73709437007874
20
-6.4517861023622043
11
8.7365616929133854
21
-6.4523187795275589
0
LINE
8
BLACK
6
CONTINUOUS
10
8.7365616929133854
20
-6.4523187795275589
11
8.7361850393700777
21
-6.4523937007874013
0
LINE
8
BLACK
6
CONTINUOUS
10
8.7361850393700777
20
-6.4523937007874013
11
7.9940590551181101
21
-6.4523937007874013
0
LINE
8
BLACK
6
CONTINUOUS
10
7.9940590551181101
20
-6.4523937007874013
11
7.9936824015748034
21
-6.4523187795275589
0
LINE
8
BLACK
6
CONTINUOUS
10
7.9936824015748034
20
-6.4523187795275589
11
7.9931497244094487
21
-6.4517861023622043
0
LINE
8
BLACK
6
CONTINUOUS
10
7.9931497244094487
20
-6.4517861023622043
11
7.9930748031496064
21
-6.4514094488188976
0
LINE
8
BLACK
6
CONTINUOUS
10
7.9930748031496064
20
-6.4514094488188976
11
7.9930748031496064
21
-6.3096771653543309
0
LINE
8
BLACK
6
CONTINUOUS
10
7.9930748031496064
20
-6.3096771653543309
11
7.9931497244094487
21
-6.3093005118110232
0
LINE
8
BLACK
6
CONTINUOUS
10
7.9931497244094487
20
-6.3093005118110232
11
7.9936824015748034
21
-6.3087678346456695
0
LINE
8
BLACK
6
CONTINUOUS
10
7.9936824015748034
20
-6.3087678346456695
11
7.9940590551181101
21
-6.3086929133858263
0
LINE
8
BLACK
6
CONTINUOUS
10
7.9940590551181101
20
-6.3086929133858263
11
8.7361850393700777
21
-6.3086929133858263
0
LINE
8
BLACK
6
CONTINUOUS
10
8.7361850393700777
20
-6.3086929133858263
11
8.7365616929133854
21
-6.3087678346456695
0
LINE
8
BLACK
6
CONTINUOUS
10
7.9950433070866138
20
-6.3106614173228346
11
7.9950433070866138
21
-6.4504251968503938
0
LINE
8
BLACK
6
CONTINUOUS
10
7.9950433070866138
20
-6.4504251968503938
11
8.735200787401574
21
-6.4504251968503938
0
LINE
8
BLACK
6
CONTINUOUS
10
8.735200787401574
20
-6.4504251968503938
11
8.735200787401574
21
-6.3106614173228346
0
LINE
8
BLACK
6
CONTINUOUS
10
8.735200787401574
20
-6.3106614173228346
11
7.9950433070866138
21
-6.3106614173228346
0
LINE
8
BLACK
6
CONTINUOUS
10
8.5855774409448813
20
-6.1662481496062993
11
8.5861101181102359
21
-6.1667808267716531
0
LINE
8
BLACK
6
CONTINUOUS
10
8.5861101181102359
20
-6.1667808267716531
11
8.5861850393700792
21
-6.1671574803149607
0
LINE
8
BLACK
6
CONTINUOUS
10
8.5861850393700792
20
-6.1671574803149607
11
8.5861850393700792
21
-6.3065275590551177
0
LINE
8
BLACK
6
CONTINUOUS
10
8.5861850393700792
20
-6.3065275590551177
11
8.5861101181102359
21
-6.3069042125984254
0
LINE
8
BLACK
6
CONTINUOUS
10
8.5861101181102359
20
-6.3069042125984254
11
8.5855774409448813
21
-6.3074368897637791
0
LINE
8
BLACK
6
CONTINUOUS
10
8.5855774409448813
20
-6.3074368897637791
11
8.5852007874015754
21
-6.3075118110236215
0
LINE
8
BLACK
6
CONTINUOUS
10
8.5852007874015754
20
-6.3075118110236215
11
8.1458307086614177
21
-6.3075118110236215
0
LINE
8
BLACK
6
CONTINUOUS
10
8.1458307086614177
20
-6.3075118110236215
11
8.14545405511811
21
-6.3074368897637791
0
LINE
8
BLACK
6
CONTINUOUS
10
8.14545405511811
20
-6.3074368897637791
11
8.1449213779527554
21
-6.3069042125984254
0
LINE
8
BLACK
6
CONTINUOUS
10
8.1449213779527554
20
-6.3069042125984254
11
8.144846456692914
21
-6.3065275590551177
0
LINE
8
BLACK
6
CONTINUOUS
10
8.144846456692914
20
-6.3065275590551177
11
8.144846456692914
21
-6.1671574803149607
0
LINE
8
BLACK
6
CONTINUOUS
10
8.144846456692914
20
-6.1671574803149607
11
8.1449213779527554
21
-6.1667808267716531
0
LINE
8
BLACK
6
CONTINUOUS
10
8.1449213779527554
20
-6.1667808267716531
11
8.14545405511811
21
-6.1662481496062993
0
LINE
8
BLACK
6
CONTINUOUS
10
8.14545405511811
20
-6.1662481496062993
11
8.1458307086614177
21
-6.166173228346457
0
LINE
8
BLACK
6
CONTINUOUS
10
8.1458307086614177
20
-6.166173228346457
11
8.5852007874015754
21
-6.166173228346457
0
LINE
8
BLACK
6
CONTINUOUS
10
8.5852007874015754
20
-6.166173228346457
11
8.5855774409448813
21
-6.1662481496062993
0
LINE
8
BLACK
6
CONTINUOUS
10
8.1468149606299214
20
-6.1681417322834644
11
8.1468149606299214
21
-6.305543307086614
0
LINE
8
BLACK
6
CONTINUOUS
10
8.1468149606299214
20
-6.305543307086614
11
8.58421653543307
21
-6.305543307086614
0
LINE
8
BLACK
6
CONTINUOUS
10
8.58421653543307
20
-6.305543307086614
11
8.58421653543307
21
-6.1681417322834644
0
LINE
8
BLACK
6
CONTINUOUS
10
8.58421653543307
20
-6.1681417322834644
11
8.1468149606299214
21
-6.1681417322834644
0
LINE
8
BLACK
6
CONTINUOUS
10
8.6759317716535431
20
-4.5386694094488185
11
8.6764644488188978
21
-4.5392020866141731
0
LINE
8
BLACK
6
CONTINUOUS
10
8.6764644488188978
20
-4.5392020866141731
11
8.6765393700787392
21
-4.5395787401574799
0
LINE
8
BLACK
6
CONTINUOUS
10
8.6765393700787392
20
-4.5395787401574799
11
8.6765393700787392
21
-5.7009960629921261
0
LINE
8
BLACK
6
CONTINUOUS
10
8.6765393700787392
20
-5.7009960629921261
11
8.6764644488188978
21
-5.7013727165354329
0
LINE
8
BLACK
6
CONTINUOUS
10
8.6764644488188978
20
-5.7013727165354329
11
8.6759317716535431
21
-5.7019053937007875
0
LINE
8
BLACK
6
CONTINUOUS
10
8.6759317716535431
20
-5.7019053937007875
11
8.6755551181102355
21
-5.7019803149606298
0
LINE
8
BLACK
6
CONTINUOUS
10
8.6755551181102355
20
-5.7019803149606298
11
8.0554763779527558
21
-5.7019803149606298
0
LINE
8
BLACK
6
CONTINUOUS
10
8.0554763779527558
20
-5.7019803149606298
11
8.0550997244094482
21
-5.7019053937007875
0
LINE
8
BLACK
6
CONTINUOUS
10
8.0550997244094482
20
-5.7019053937007875
11
8.0545670472440936
21
-5.7013727165354329
0
LINE
8
BLACK
6
CONTINUOUS
10
8.0545670472440936
20
-5.7013727165354329
11
8.0544921259842521
21
-5.7009960629921261
0
LINE
8
BLACK
6
CONTINUOUS
10
8.0544921259842521
20
-5.7009960629921261
11
8.0544921259842521
21
-4.5395787401574799
0
LINE
8
BLACK
6
CONTINUOUS
10
8.0544921259842521
20
-4.5395787401574799
11
8.0545670472440936
21
-4.5392020866141731
0
LINE
8
BLACK
6
CONTINUOUS
10
8.0545670472440936
20
-4.5392020866141731
11
8.0550997244094482
21
-4.5386694094488185
0
LINE
8
BLACK
6
CONTINUOUS
10
8.0550997244094482
20
-4.5386694094488185
11
8.0554763779527558
21
-4.5385944881889762
0
LINE
8
BLACK
6
CONTINUOUS
10
8.0554763779527558
20
-4.5385944881889762
11
8.6755551181102355
21
-4.5385944881889762
0
LINE
8
BLACK
6
CONTINUOUS
10
8.6755551181102355
20
-4.5385944881889762
11
8.6759317716535431
21
-4.5386694094488185
0
LINE
8
BLACK
6
CONTINUOUS
10
8.0564606299212596
20
-4.5405629921259845
11
8.0564606299212596
21
-5.7000118110236215
0
LINE
8
BLACK
6
CONTINUOUS
10
8.0564606299212596
20
-5.7000118110236215
11
8.6745708661417318
21
-5.7000118110236215
0
LINE
8
BLACK
6
CONTINUOUS
10
8.6745708661417318
20
-5.7000118110236215
11
8.6745708661417318
21
-4.5405629921259845
0
LINE
8
BLACK
6
CONTINUOUS
10
8.6745708661417318
20
-4.5405629921259845
11
8.0564606299212596
21
-4.5405629921259845
0
LINE
8
BLACK
6
CONTINUOUS
10
4.304490393700787
20
-3.8496900393700786
11
4.3170804724409448
21
-3.8525636614173226
0
LINE
8
BLACK
6
CONTINUOUS
10
4.3170804724409448
20
-3.8525636614173226
11
4.3292696456692914
21
-3.8568288188976378
0
LINE
8
BLACK
6
CONTINUOUS
10
4.3292696456692914
20
-3.8568288188976378
11
4.3409046456692915
21
-3.8624319291338582
0
LINE
8
BLACK
6
CONTINUOUS
10
4.3409046456692915
20
-3.8624319291338582
11
4.3518391338582676
21
-3.8693025196850392
0
LINE
8
BLACK
6
CONTINUOUS
10
4.3518391338582676
20
-3.8693025196850392
11
4.3619355905511812
21
-3.8773542125984251
0
LINE
8
BLACK
6
CONTINUOUS
10
4.3619355905511812
20
-3.8773542125984251
11
4.371067047244094
21
-3.8864856692913383
0
LINE
8
BLACK
6
CONTINUOUS
10
4.371067047244094
20
-3.8864856692913383
11
4.3791187401574803
21
-3.8965821259842519
0
LINE
8
BLACK
6
CONTINUOUS
10
4.3791187401574803
20
-3.8965821259842519
11
4.3859893307086617
21
-3.907516614173228
0
LINE
8
BLACK
6
CONTINUOUS
10
4.3859893307086617
20
-3.907516614173228
11
4.3915924409448817
21
-3.9191516141732281
0
LINE
8
BLACK
6
CONTINUOUS
10
4.3915924409448817
20
-3.9191516141732281
11
4.3958575984251969
21
-3.9313407874015747
0
LINE
8
BLACK
6
CONTINUOUS
10
4.3958575984251969
20
-3.9313407874015747
11
4.3987312204724409
21
-3.9439308661417321
0
LINE
8
BLACK
6
CONTINUOUS
10
4.3987312204724409
20
-3.9439308661417321
11
4.4001770866141729
21
-3.9567635433070865
0
LINE
8
BLACK
6
CONTINUOUS
10
4.4001770866141729
20
-3.9567635433070865
11
4.4001770866141729
21
-3.9696774015748031
0
LINE
8
BLACK
6
CONTINUOUS
10
4.4001770866141729
20
-3.9696774015748031
11
4.3987312204724409
21
-3.9825100787401575
0
LINE
8
BLACK
6
CONTINUOUS
10
4.3987312204724409
20
-3.9825100787401575
11
4.3958575984251969
21
-3.9951001574803149
0
LINE
8
BLACK
6
CONTINUOUS
10
4.3958575984251969
20
-3.9951001574803149
11
4.3915924409448817
21
-4.0072893307086614
0
LINE
8
BLACK
6
CONTINUOUS
10
4.3915924409448817
20
-4.0072893307086614
11
4.3859893307086617
21
-4.0189243307086615
0
LINE
8
BLACK
6
CONTINUOUS
10
4.3859893307086617
20
-4.0189243307086615
11
4.3791187401574803
21
-4.0298588188976376
0
LINE
8
BLACK
6
CONTINUOUS
10
4.3791187401574803
20
-4.0298588188976376
11
4.371067047244094
21
-4.0399552755905512
0
LINE
8
BLACK
6
CONTINUOUS
10
4.371067047244094
20
-4.0399552755905512
11
4.3619355905511812
21
-4.0490867322834641
0
LINE
8
BLACK
6
CONTINUOUS
10
4.3619355905511812
20
-4.0490867322834641
11
4.3518391338582676
21
-4.0571384251968503
0
LINE
8
BLACK
6
CONTINUOUS
10
4.3518391338582676
20
-4.0571384251968503
11
4.3409046456692915
21
-4.0640090157480318
0
LINE
8
BLACK
6
CONTINUOUS
10
4.3409046456692915
20
-4.0640090157480318
11
4.3292696456692914
21
-4.0696121259842517
0
LINE
8
BLACK
6
CONTINUOUS
10
4.3292696456692914
20
-4.0696121259842517
11
4.3170804724409448
21
-4.0738772834645669
0
LINE
8
BLACK
6
CONTINUOUS
10
4.3170804724409448
20
-4.0738772834645669
11
4.304490393700787
21
-4.076750905511811
0
LINE
8
BLACK
6
CONTINUOUS
10
4.304490393700787
20
-4.076750905511811
11
4.2916577165354326
21
-4.078196771653543
0
LINE
8
BLACK
6
CONTINUOUS
10
4.2916577165354326
20
-4.078196771653543
11
4.2787438582677169
21
-4.078196771653543
0
LINE
8
BLACK
6
CONTINUOUS
10
4.2787438582677169
20
-4.078196771653543
11
4.2659111811023624
21
-4.076750905511811
0
LINE
8
BLACK
6
CONTINUOUS
10
4.2659111811023624
20
-4.076750905511811
11
4.2533211023622046
21
-4.0738772834645669
0
LINE
8
BLACK
6
CONTINUOUS
10
4.2533211023622046
20
-4.0738772834645669
11
4.2411319291338581
21
-4.0696121259842517
0
LINE
8
BLACK
6
CONTINUOUS
10
4.2411319291338581
20
-4.0696121259842517
11
4.229496929133858
21
-4.0640090157480318
0
LINE
8
BLACK
6
CONTINUOUS
10
4.229496929133858
20
-4.0640090157480318
11
4.2185624409448819
21
-4.0571384251968503
0
LINE
8
BLACK
6
CONTINUOUS
10
4.2185624409448819
20
-4.0571384251968503
11
4.2084659842519683
21
-4.0490867322834641
0
LINE
8
BLACK
6
CONTINUOUS
10
4.2084659842519683
20
-4.0490867322834641
11
4.1993345275590555
21
-4.0399552755905512
0
LINE
8
BLACK
6
CONTINUOUS
10
4.1993345275590555
20
-4.0399552755905512
11
4.1912828346456692
21
-4.0298588188976376
0
LINE
8
BLACK
6
CONTINUOUS
10
4.1912828346456692
20
-4.0298588188976376
11
4.1844122440944878
21
-4.0189243307086615
0
LINE
8
BLACK
6
CONTINUOUS
10
4.1844122440944878
20
-4.0189243307086615
11
4.1788091338582678
21
-4.0072893307086614
0
LINE
8
BLACK
6
CONTINUOUS
10
4.1788091338582678
20
-4.0072893307086614
11
4.1745439763779526
21
-3.9951001574803149
0
LINE
8
BLACK
6
CONTINUOUS
10
4.1745439763779526
20
-3.9951001574803149
11
4.1716703543307085
21
-3.9825100787401575
0
LINE
8
BLACK
6
CONTINUOUS
10
4.1716703543307085
20
-3.9825100787401575
11
4.1702244881889765
21
-3.9696774015748031
0
LINE
8
BLACK
6
CONTINUOUS
10
4.1702244881889765
20
-3.9696774015748031
11
4.1702244881889765
21
-3.956863897637795
0
LINE
8
BLACK
6
CONTINUOUS
10
4.1702244881889765
20
-3.956863897637795
11
4.1702244881889765
21
-3.9567635433070865
0
LINE
8
BLACK
6
CONTINUOUS
10
4.1702244881889765
20
-3.9567635433070865
11
4.1716703543307085
21
-3.9439308661417321
0
LINE
8
BLACK
6
CONTINUOUS
10
4.1716703543307085
20
-3.9439308661417321
11
4.1745439763779526
21
-3.9313407874015747
0
LINE
8
BLACK
6
CONTINUOUS
10
4.1745439763779526
20
-3.9313407874015747
11
4.1788091338582678
21
-3.9191516141732281
0
LINE
8
BLACK
6
CONTINUOUS
10
4.1788091338582678
20
-3.9191516141732281
11
4.1844122440944878
21
-3.907516614173228
0
LINE
8
BLACK
6
CONTINUOUS
10
4.1844122440944878
20
-3.907516614173228
11
4.1912828346456692
21
-3.8965821259842519
0
LINE
8
BLACK
6
CONTINUOUS
10
4.1912828346456692
20
-3.8965821259842519
11
4.1993345275590555
21
-3.8864856692913383
0
LINE
8
BLACK
6
CONTINUOUS
10
4.1993345275590555
20
-3.8864856692913383
11
4.2084659842519683
21
-3.8773542125984251
0
LINE
8
BLACK
6
CONTINUOUS
10
4.2084659842519683
20
-3.8773542125984251
11
4.2185624409448819
21
-3.8693025196850392
0
LINE
8
BLACK
6
CONTINUOUS
10
4.2185624409448819
20
-3.8693025196850392
11
4.229496929133858
21
-3.8624319291338582
0
LINE
8
BLACK
6
CONTINUOUS
10
4.229496929133858
20
-3.8624319291338582
11
4.2411319291338581
21
-3.8568288188976378
0
LINE
8
BLACK
6
CONTINUOUS
10
4.2411319291338581
20
-3.8568288188976378
11
4.2533211023622046
21
-3.8525636614173226
0
LINE
8
BLACK
6
CONTINUOUS
10
4.2533211023622046
20
-3.8525636614173226
11
4.2659111811023624
21
-3.8496900393700786
0
LINE
8
BLACK
6
CONTINUOUS
10
4.2659111811023624
20
-3.8496900393700786
11
4.2787438582677169
21
-3.8482441732283466
0
LINE
8
BLACK
6
CONTINUOUS
10
4.2787438582677169
20
-3.8482441732283466
11
4.2916577165354326
21
-3.8482441732283466
0
LINE
8
BLACK
6
CONTINUOUS
10
4.2916577165354326
20
-3.8482441732283466
11
4.304490393700787
21
-3.8496900393700786
0
LINE
8
BLACK
6
CONTINUOUS
10
4.172011811023622
20
-3.9695770472440945
11
4.1734352362204721
21
-3.9822101968503936
0
LINE
8
BLACK
6
CONTINUOUS
10
4.1734352362204721
20
-3.9822101968503936
11
4.1762641732283461
21
-3.9946045669291337
0
LINE
8
BLACK
6
CONTINUOUS
10
4.1762641732283461
20
-3.9946045669291337
11
4.1804630314960631
21
-4.0066042519685041
0
LINE
8
BLACK
6
CONTINUOUS
10
4.1804630314960631
20
-4.0066042519685041
11
4.1859790551181097
21
-4.0180583858267713
0
LINE
8
BLACK
6
CONTINUOUS
10
4.1859790551181097
20
-4.0180583858267713
11
4.192742834645669
21
-4.0288228740157477
0
LINE
8
BLACK
6
CONTINUOUS
10
4.192742834645669
20
-4.0288228740157477
11
4.2006693307086609
21
-4.0387624015748029
0
LINE
8
BLACK
6
CONTINUOUS
10
4.2006693307086609
20
-4.0387624015748029
11
4.2096588582677166
21
-4.0477519291338586
0
LINE
8
BLACK
6
CONTINUOUS
10
4.2096588582677166
20
-4.0477519291338586
11
4.2195983858267718
21
-4.0556784251968505
0
LINE
8
BLACK
6
CONTINUOUS
10
4.2195983858267718
20
-4.0556784251968505
11
4.2303628740157482
21
-4.0624422047244098
0
LINE
8
BLACK
6
CONTINUOUS
10
4.2303628740157482
20
-4.0624422047244098
11
4.2418170078740154
21
-4.0679582283464564
0
LINE
8
BLACK
6
CONTINUOUS
10
4.2418170078740154
20
-4.0679582283464564
11
4.2538166929133858
21
-4.0721570866141734
0
LINE
8
BLACK
6
CONTINUOUS
10
4.2538166929133858
20
-4.0721570866141734
11
4.2662110629921255
21
-4.0749860236220474
0
LINE
8
BLACK
6
CONTINUOUS
10
4.2662110629921255
20
-4.0749860236220474
11
4.2788442125984254
21
-4.0764094488188976
0
LINE
8
BLACK
6
CONTINUOUS
10
4.2788442125984254
20
-4.0764094488188976
11
4.2915573622047241
21
-4.0764094488188976
0
LINE
8
BLACK
6
CONTINUOUS
10
4.2915573622047241
20
-4.0764094488188976
11
4.304190511811024
21
-4.0749860236220474
0
LINE
8
BLACK
6
CONTINUOUS
10
4.304190511811024
20
-4.0749860236220474
11
4.3165848818897636
21
-4.0721570866141734
0
LINE
8
BLACK
6
CONTINUOUS
10
4.3165848818897636
20
-4.0721570866141734
11
4.3285845669291341
21
-4.0679582283464564
0
LINE
8
BLACK
6
CONTINUOUS
10
4.3285845669291341
20
-4.0679582283464564
11
4.3400387007874013
21
-4.0624422047244098
0
LINE
8
BLACK
6
CONTINUOUS
10
4.3400387007874013
20
-4.0624422047244098
11
4.3508031889763776
21
-4.0556784251968505
0
LINE
8
BLACK
6
CONTINUOUS
10
4.3508031889763776
20
-4.0556784251968505
11
4.3607427165354329
21
-4.0477519291338586
0
LINE
8
BLACK
6
CONTINUOUS
10
4.3607427165354329
20
-4.0477519291338586
11
4.3697322440944877
21
-4.0387624015748029
0
LINE
8
BLACK
6
CONTINUOUS
10
4.3697322440944877
20
-4.0387624015748029
11
4.3776587401574805
21
-4.0288228740157477
0
LINE
8
BLACK
6
CONTINUOUS
10
4.3776587401574805
20
-4.0288228740157477
11
4.3844225196850397
21
-4.0180583858267713
0
LINE
8
BLACK
6
CONTINUOUS
10
4.3844225196850397
20
-4.0180583858267713
11
4.3899385433070863
21
-4.0066042519685041
0
LINE
8
BLACK
6
CONTINUOUS
10
4.3899385433070863
20
-4.0066042519685041
11
4.3941374015748034
21
-3.9946045669291337
0
LINE
8
BLACK
6
CONTINUOUS
10
4.3941374015748034
20
-3.9946045669291337
11
4.3969663385826774
21
-3.9822101968503936
0
LINE
8
BLACK
6
CONTINUOUS
10
4.3969663385826774
20
-3.9822101968503936
11
4.3983897637795275
21
-3.9695770472440945
0
LINE
8
BLACK
6
CONTINUOUS
10
4.3983897637795275
20
-3.9695770472440945
11
4.3983897637795275
21
-3.956863897637795
0
LINE
8
BLACK
6
CONTINUOUS
10
4.3983897637795275
20
-3.956863897637795
11
4.3969663385826774
21
-3.944230748031496
0
LINE
8
BLACK
6
CONTINUOUS
10
4.3969663385826774
20
-3.944230748031496
11
4.3941374015748034
21
-3.9318363779527559
0
LINE
8
BLACK
6
CONTINUOUS
10
4.3941374015748034
20
-3.9318363779527559
11
4.3899385433070863
21
-3.9198366929133859
0
LINE
8
BLACK
6
CONTINUOUS
10
4.3899385433070863
20
-3.9198366929133859
11
4.3844225196850397
21
-3.9083825590551182
0
LINE
8
BLACK
6
CONTINUOUS
10
4.3844225196850397
20
-3.9083825590551182
11
4.3776587401574805
21
-3.8976180708661414
0
LINE
8
BLACK
6
CONTINUOUS
10
4.3776587401574805
20
-3.8976180708661414
11
4.3697322440944877
21
-3.8876785433070866
0
LINE
8
BLACK
6
CONTINUOUS
10
4.3697322440944877
20
-3.8876785433070866
11
4.3607427165354329
21
-3.8786890157480314
0
LINE
8
BLACK
6
CONTINUOUS
10
4.3607427165354329
20
-3.8786890157480314
11
4.3508031889763776
21
-3.8707625196850395
0
LINE
8
BLACK
6
CONTINUOUS
10
4.3508031889763776
20
-3.8707625196850395
11
4.3400387007874013
21
-3.8639987401574802
0
LINE
8
BLACK
6
CONTINUOUS
10
4.3400387007874013
20
-3.8639987401574802
11
4.3285845669291341
21
-3.8584827165354332
0
LINE
8
BLACK
6
CONTINUOUS
10
4.3285845669291341
20
-3.8584827165354332
11
4.3165848818897636
21
-3.8542838582677166
0
LINE
8
BLACK
6
CONTINUOUS
10
4.3165848818897636
20
-3.8542838582677166
11
4.304190511811024
21
-3.8514549212598426
0
LINE
8
BLACK
6
CONTINUOUS
10
4.304190511811024
20
-3.8514549212598426
11
4.2915573622047241
21
-3.850031496062992
0
LINE
8
BLACK
6
CONTINUOUS
10
4.2915573622047241
20
-3.850031496062992
11
4.2788442125984254
21
-3.850031496062992
0
LINE
8
BLACK
6
CONTINUOUS
10
4.2788442125984254
20
-3.850031496062992
11
4.2662110629921255
21
-3.8514549212598426
0
LINE
8
BLACK
6
CONTINUOUS
10
4.2662110629921255
20
-3.8514549212598426
11
4.2538166929133858
21
-3.8542838582677166
0
LINE
8
BLACK
6
CONTINUOUS
10
4.2538166929133858
20
-3.8542838582677166
11
4.2418170078740154
21
-3.8584827165354332
0
LINE
8
BLACK
6
CONTINUOUS
10
4.2418170078740154
20
-3.8584827165354332
11
4.2303628740157482
21
-3.8639987401574802
0
LINE
8
BLACK
6
CONTINUOUS
10
4.2303628740157482
20
-3.8639987401574802
11
4.2195983858267718
21
-3.8707625196850395
0
LINE
8
BLACK
6
CONTINUOUS
10
4.2195983858267718
20
-3.8707625196850395
11
4.2096588582677166
21
-3.8786890157480314
0
LINE
8
BLACK
6
CONTINUOUS
10
4.2096588582677166
20
-3.8786890157480314
11
4.2006693307086609
21
-3.8876785433070866
0
LINE
8
BLACK
6
CONTINUOUS
10
4.2006693307086609
20
-3.8876785433070866
11
4.192742834645669
21
-3.8976180708661414
0
LINE
8
BLACK
6
CONTINUOUS
10
4.192742834645669
20
-3.8976180708661414
11
4.1859790551181097
21
-3.9083825590551182
0
LINE
8
BLACK
6
CONTINUOUS
10
4.1859790551181097
20
-3.9083825590551182
11
4.1804630314960631
21
-3.9198366929133859
0
LINE
8
BLACK
6
CONTINUOUS
10
4.1804630314960631
20
-3.9198366929133859
11
4.1762641732283461
21
-3.9318363779527559
0
LINE
8
BLACK
6
CONTINUOUS
10
4.1762641732283461
20
-3.9318363779527559
11
4.1734352362204721
21
-3.944230748031496
0
LINE
8
BLACK
6
CONTINUOUS
10
4.1734352362204721
20
-3.944230748031496
11
4.172011811023622
21
-3.956863897637795
0
LINE
8
BLACK
6
CONTINUOUS
10
4.172011811023622
20
-3.956863897637795
11
4.172011811023622
21
-3.9695770472440945
0
LINE
8
BLACK
6
CONTINUOUS
10
12.4643329133858263
20
-3.8496900393700786
11
12.4769229921259832
21
-3.8525636614173226
0
LINE
8
BLACK
6
CONTINUOUS
10
12.4769229921259832
20
-3.8525636614173226
11
12.4891121653543298
21
-3.8568288188976378
0
LINE
8
BLACK
6
CONTINUOUS
10
12.4891121653543298
20
-3.8568288188976378
11
12.5007471653543298
21
-3.8624319291338582
0
LINE
8
BLACK
6
CONTINUOUS
10
12.5007471653543298
20
-3.8624319291338582
11
12.511681653543306
21
-3.8693025196850392
0
LINE
8
BLACK
6
CONTINUOUS
10
12.511681653543306
20
-3.8693025196850392
11
12.5217781102362196
21
-3.8773542125984251
0
LINE
8
BLACK
6
CONTINUOUS
10
12.5217781102362196
20
-3.8773542125984251
11
12.5309095669291342
21
-3.8864856692913383
0
LINE
8
BLACK
6
CONTINUOUS
10
12.5309095669291342
20
-3.8864856692913383
11
12.5389612598425195
21
-3.8965821259842519
0
LINE
8
BLACK
6
CONTINUOUS
10
12.5389612598425195
20
-3.8965821259842519
11
12.5458318503937001
21
-3.907516614173228
0
LINE
8
BLACK
6
CONTINUOUS
10
12.5458318503937001
20
-3.907516614173228
11
12.5514349606299209
21
-3.9191516141732281
0
LINE
8
BLACK
6
CONTINUOUS
10
12.5514349606299209
20
-3.9191516141732281
11
12.5557001181102361
21
-3.9313407874015747
0
LINE
8
BLACK
6
CONTINUOUS
10
12.5557001181102361
20
-3.9313407874015747
11
12.5585737401574793
21
-3.9439308661417321
0
LINE
8
BLACK
6
CONTINUOUS
10
12.5585737401574793
20
-3.9439308661417321
11
12.5600196062992122
21
-3.9567635433070865
0
LINE
8
BLACK
6
CONTINUOUS
10
12.5600196062992122
20
-3.9567635433070865
11
12.5600196062992122
21
-3.9696774015748031
0
LINE
8
BLACK
6
CONTINUOUS
10
12.5600196062992122
20
-3.9696774015748031
11
12.5585737401574793
21
-3.9825100787401575
0
LINE
8
BLACK
6
CONTINUOUS
10
12.5585737401574793
20
-3.9825100787401575
11
12.5557001181102361
21
-3.9951001574803149
0
LINE
8
BLACK
6
CONTINUOUS
10
12.5557001181102361
20
-3.9951001574803149
11
12.5514349606299209
21
-4.0072893307086614
0
LINE
8
BLACK
6
CONTINUOUS
10
12.5514349606299209
20
-4.0072893307086614
11
12.5458318503937001
21
-4.0189243307086615
0
LINE
8
BLACK
6
CONTINUOUS
10
12.5458318503937001
20
-4.0189243307086615
11
12.5389612598425195
21
-4.0298588188976376
0
LINE
8
BLACK
6
CONTINUOUS
10
12.5389612598425195
20
-4.0298588188976376
11
12.5309095669291342
21
-4.0399552755905512
0
LINE
8
BLACK
6
CONTINUOUS
10
12.5309095669291342
20
-4.0399552755905512
11
12.5217781102362196
21
-4.0490867322834641
0
LINE
8
BLACK
6
CONTINUOUS
10
12.5217781102362196
20
-4.0490867322834641
11
12.511681653543306
21
-4.0571384251968503
0
LINE
8
BLACK
6
CONTINUOUS
10
12.511681653543306
20
-4.0571384251968503
11
12.5007471653543298
21
-4.0640090157480318
0
LINE
8
BLACK
6
CONTINUOUS
10
12.5007471653543298
20
-4.0640090157480318
11
12.4891121653543298
21
-4.0696121259842517
0
LINE
8
BLACK
6
CONTINUOUS
10
12.4891121653543298
20
-4.0696121259842517
11
12.4769229921259832
21
-4.0738772834645669
0
LINE
8
BLACK
6
CONTINUOUS
10
12.4769229921259832
20
-4.0738772834645669
11
12.4643329133858263
21
-4.076750905511811
0
LINE
8
BLACK
6
CONTINUOUS
10
12.4643329133858263
20
-4.076750905511811
11
12.4515002362204719
21
-4.078196771653543
0
LINE
8
BLACK
6
CONTINUOUS
10
12.4515002362204719
20
-4.078196771653543
11
12.4385863779527561
21
-4.078196771653543
0
LINE
8
BLACK
6
CONTINUOUS
10
12.4385863779527561
20
-4.078196771653543
11
12.4257537007874017
21
-4.076750905511811
0
LINE
8
BLACK
6
CONTINUOUS
10
12.4257537007874017
20
-4.076750905511811
11
12.413163622047243
21
-4.0738772834645669
0
LINE
8
BLACK
6
CONTINUOUS
10
12.413163622047243
20
-4.0738772834645669
11
12.4009744488188982
21
-4.0696121259842517
0
LINE
8
BLACK
6
CONTINUOUS
10
12.4009744488188982
20
-4.0696121259842517
11
12.3893394488188981
21
-4.0640090157480318
0
LINE
8
BLACK
6
CONTINUOUS
10
12.3893394488188981
20
-4.0640090157480318
11
12.3784049606299202
21
-4.0571384251968503
0
LINE
8
BLACK
6
CONTINUOUS
10
12.3784049606299202
20
-4.0571384251968503
11
12.3683085039370084
21
-4.0490867322834641
0
LINE
8
BLACK
6
CONTINUOUS
10
12.3683085039370084
20
-4.0490867322834641
11
12.3591770472440938
21
-4.0399552755905512
0
LINE
8
BLACK
6
CONTINUOUS
10
12.3591770472440938
20
-4.0399552755905512
11
12.3511253543307085
21
-4.0298588188976376
0
LINE
8
BLACK
6
CONTINUOUS
10
12.3511253543307085
20
-4.0298588188976376
11
12.3442547637795279
21
-4.0189243307086615
0
LINE
8
BLACK
6
CONTINUOUS
10
12.3442547637795279
20
-4.0189243307086615
11
12.3386516535433071
21
-4.0072893307086614
0
LINE
8
BLACK
6
CONTINUOUS
10
12.3386516535433071
20
-4.0072893307086614
11
12.3343864960629919
21
-3.9951001574803149
0
LINE
8
BLACK
6
CONTINUOUS
10
12.3343864960629919
20
-3.9951001574803149
11
12.3315128740157469
21
-3.9825100787401575
0
LINE
8
BLACK
6
CONTINUOUS
10
12.3315128740157469
20
-3.9825100787401575
11
12.3300670078740158
21
-3.9696774015748031
0
LINE
8
BLACK
6
CONTINUOUS
10
12.3300670078740158
20
-3.9696774015748031
11
12.3300670078740158
21
-3.956863897637795
0
LINE
8
BLACK
6
CONTINUOUS
10
12.3300670078740158
20
-3.956863897637795
11
12.3300670078740158
21
-3.9567635433070865
0
LINE
8
BLACK
6
CONTINUOUS
10
12.3300670078740158
20
-3.9567635433070865
11
12.3315128740157469
21
-3.9439308661417321
0
LINE
8
BLACK
6
CONTINUOUS
10
12.3315128740157469
20
-3.9439308661417321
11
12.3343864960629919
21
-3.9313407874015747
0
LINE
8
BLACK
6
CONTINUOUS
10
12.3343864960629919
20
-3.9313407874015747
11
12.3386516535433071
21
-3.9191516141732281
0
LINE
8
BLACK
6
CONTINUOUS
10
12.3386516535433071
20
-3.9191516141732281
11
12.3442547637795279
21
-3.907516614173228
0
LINE
8
BLACK
6
CONTINUOUS
10
12.3442547637795279
20
-3.907516614173228
11
12.3511253543307085
21
-3.8965821259842519
0
LINE
8
BLACK
6
CONTINUOUS
10
12.3511253543307085
20
-3.8965821259842519
11
12.3591770472440938
21
-3.8864856692913383
0
LINE
8
BLACK
6
CONTINUOUS
10
12.3591770472440938
20
-3.8864856692913383
11
12.3683085039370084
21
-3.8773542125984251
0
LINE
8
BLACK
6
CONTINUOUS
10
12.3683085039370084
20
-3.8773542125984251
11
12.3784049606299202
21
-3.8693025196850392
0
LINE
8
BLACK
6
CONTINUOUS
10
12.3784049606299202
20
-3.8693025196850392
11
12.3893394488188981
21
-3.8624319291338582
0
LINE
8
BLACK
6
CONTINUOUS
10
12.3893394488188981
20
-3.8624319291338582
11
12.4009744488188982
21
-3.8568288188976378
0
LINE
8
BLACK
6
CONTINUOUS
10
12.4009744488188982
20
-3.8568288188976378
11
12.413163622047243
21
-3.8525636614173226
0
LINE
8
BLACK
6
CONTINUOUS
10
12.413163622047243
20
-3.8525636614173226
11
12.4257537007874017
21
-3.8496900393700786
0
LINE
8
BLACK
6
CONTINUOUS
10
12.4257537007874017
20
-3.8496900393700786
11
12.4385863779527561
21
-3.8482441732283466
0
LINE
8
BLACK
6
CONTINUOUS
10
12.4385863779527561
20
-3.8482441732283466
11
12.4515002362204719
21
-3.8482441732283466
0
LINE
8
BLACK
6
CONTINUOUS
10
12.4515002362204719
20
-3.8482441732283466
11
12.4643329133858263
21
-3.8496900393700786
0
LINE
8
BLACK
6
CONTINUOUS
10
12.3318543307086603
20
-3.9695770472440945
11
12.3332777559055113
21
-3.9822101968503936
0
LINE
8
BLACK
6
CONTINUOUS
10
12.3332777559055113
20
-3.9822101968503936
11
12.3361066929133862
21
-3.9946045669291337
0
LINE
8
BLACK
6
CONTINUOUS
10
12.3361066929133862
20
-3.9946045669291337
11
12.3403055511811015
21
-4.0066042519685041
0
LINE
8
BLACK
6
CONTINUOUS
10
12.3403055511811015
20
-4.0066042519685041
11
12.3458215748031499
21
-4.0180583858267713
0
LINE
8
BLACK
6
CONTINUOUS
10
12.3458215748031499
20
-4.0180583858267713
11
12.3525853543307083
21
-4.0288228740157477
0
LINE
8
BLACK
6
CONTINUOUS
10
12.3525853543307083
20
-4.0288228740157477
11
12.360511850393701
21
-4.0387624015748029
0
LINE
8
BLACK
6
CONTINUOUS
10
12.360511850393701
20
-4.0387624015748029
11
12.369501377952755
21
-4.0477519291338586
0
LINE
8
BLACK
6
CONTINUOUS
10
12.369501377952755
20
-4.0477519291338586
11
12.3794409055118102
21
-4.0556784251968505
0
LINE
8
BLACK
6
CONTINUOUS
10
12.3794409055118102
20
-4.0556784251968505
11
12.3902053937007874
21
-4.0624422047244098
0
LINE
8
BLACK
6
CONTINUOUS
10
12.3902053937007874
20
-4.0624422047244098
11
12.4016595275590547
21
-4.0679582283464564
0
LINE
8
BLACK
6
CONTINUOUS
10
12.4016595275590547
20
-4.0679582283464564
11
12.4136592125984251
21
-4.0721570866141734
0
LINE
8
BLACK
6
CONTINUOUS
10
12.4136592125984251
20
-4.0721570866141734
11
12.4260535826771648
21
-4.0749860236220474
0
LINE
8
BLACK
6
CONTINUOUS
10
12.4260535826771648
20
-4.0749860236220474
11
12.4386867322834647
21
-4.0764094488188976
0
LINE
8
BLACK
6
CONTINUOUS
10
12.4386867322834647
20
-4.0764094488188976
11
12.4513998818897633
21
-4.0764094488188976
0
LINE
8
BLACK
6
CONTINUOUS
10
12.4513998818897633
20
-4.0764094488188976
11
12.4640330314960632
21
-4.0749860236220474
0
LINE
8
BLACK
6
CONTINUOUS
10
12.4640330314960632
20
-4.0749860236220474
11
12.4764274015748029
21
-4.0721570866141734
0
LINE
8
BLACK
6
CONTINUOUS
10
12.4764274015748029
20
-4.0721570866141734
11
12.4884270866141733
21
-4.0679582283464564
0
LINE
8
BLACK
6
CONTINUOUS
10
12.4884270866141733
20
-4.0679582283464564
11
12.4998812204724405
21
-4.0624422047244098
0
LINE
8
BLACK
6
CONTINUOUS
10
12.4998812204724405
20
-4.0624422047244098
11
12.5106457086614178
21
-4.0556784251968505
0
LINE
8
BLACK
6
CONTINUOUS
10
12.5106457086614178
20
-4.0556784251968505
11
12.520585236220473
21
-4.0477519291338586
0
LINE
8
BLACK
6
CONTINUOUS
10
12.520585236220473
20
-4.0477519291338586
11
12.5295747637795269
21
-4.0387624015748029
0
LINE
8
BLACK
6
CONTINUOUS
10
12.5295747637795269
20
-4.0387624015748029
11
12.5375012598425197
21
-4.0288228740157477
0
LINE
8
BLACK
6
CONTINUOUS
10
12.5375012598425197
20
-4.0288228740157477
11
12.5442650393700781
21
-4.0180583858267713
0
LINE
8
BLACK
6
CONTINUOUS
10
12.5442650393700781
20
-4.0180583858267713
11
12.5497810629921265
21
-4.0066042519685041
0
LINE
8
BLACK
6
CONTINUOUS
10
12.5497810629921265
20
-4.0066042519685041
11
12.5539799212598417
21
-3.9946045669291337
0
LINE
8
BLACK
6
CONTINUOUS
10
12.5539799212598417
20
-3.9946045669291337
11
12.5568088582677166
21
-3.9822101968503936
0
LINE
8
BLACK
6
CONTINUOUS
10
12.5568088582677166
20
-3.9822101968503936
11
12.5582322834645659
21
-3.9695770472440945
0
LINE
8
BLACK
6
CONTINUOUS
10
12.5582322834645659
20
-3.9695770472440945
11
12.5582322834645659
21
-3.956863897637795
0
LINE
8
BLACK
6
CONTINUOUS
10
12.5582322834645659
20
-3.956863897637795
11
12.5568088582677166
21
-3.944230748031496
0
LINE
8
BLACK
6
CONTINUOUS
10
12.5568088582677166
20
-3.944230748031496
11
12.5539799212598417
21
-3.9318363779527559
0
LINE
8
BLACK
6
CONTINUOUS
10
12.5539799212598417
20
-3.9318363779527559
11
12.5497810629921265
21
-3.9198366929133859
0
LINE
8
BLACK
6
CONTINUOUS
10
12.5497810629921265
20
-3.9198366929133859
11
12.5442650393700781
21
-3.9083825590551182
0
LINE
8
BLACK
6
CONTINUOUS
10
12.5442650393700781
20
-3.9083825590551182
11
12.5375012598425197
21
-3.8976180708661414
0
LINE
8
BLACK
6
CONTINUOUS
10
12.5375012598425197
20
-3.8976180708661414
11
12.5295747637795269
21
-3.8876785433070866
0
LINE
8
BLACK
6
CONTINUOUS
10
12.5295747637795269
20
-3.8876785433070866
11
12.520585236220473
21
-3.8786890157480314
0
LINE
8
BLACK
6
CONTINUOUS
10
12.520585236220473
20
-3.8786890157480314
11
12.5106457086614178
21
-3.8707625196850395
0
LINE
8
BLACK
6
CONTINUOUS
10
12.5106457086614178
20
-3.8707625196850395
11
12.4998812204724405
21
-3.8639987401574802
0
LINE
8
BLACK
6
CONTINUOUS
10
12.4998812204724405
20
-3.8639987401574802
11
12.4884270866141733
21
-3.8584827165354332
0
LINE
8
BLACK
6
CONTINUOUS
10
12.4884270866141733
20
-3.8584827165354332
11
12.4764274015748029
21
-3.8542838582677166
0
LINE
8
BLACK
6
CONTINUOUS
10
12.4764274015748029
20
-3.8542838582677166
11
12.4640330314960632
21
-3.8514549212598426
0
LINE
8
BLACK
6
CONTINUOUS
10
12.4640330314960632
20
-3.8514549212598426
11
12.4513998818897633
21
-3.850031496062992
0
LINE
8
BLACK
6
CONTINUOUS
10
12.4513998818897633
20
-3.850031496062992
11
12.4386867322834647
21
-3.850031496062992
0
LINE
8
BLACK
6
CONTINUOUS
10
12.4386867322834647
20
-3.850031496062992
11
12.4260535826771648
21
-3.8514549212598426
0
LINE
8
BLACK
6
CONTINUOUS
10
12.4260535826771648
20
-3.8514549212598426
11
12.4136592125984251
21
-3.8542838582677166
0
LINE
8
BLACK
6
CONTINUOUS
10
12.4136592125984251
20
-3.8542838582677166
11
12.4016595275590547
21
-3.8584827165354332
0
LINE
8
BLACK
6
CONTINUOUS
10
12.4016595275590547
20
-3.8584827165354332
11
12.3902053937007874
21
-3.8639987401574802
0
LINE
8
BLACK
6
CONTINUOUS
10
12.3902053937007874
20
-3.8639987401574802
11
12.3794409055118102
21
-3.8707625196850395
0
LINE
8
BLACK
6
CONTINUOUS
10
12.3794409055118102
20
-3.8707625196850395
11
12.369501377952755
21
-3.8786890157480314
0
LINE
8
BLACK
6
CONTINUOUS
10
12.369501377952755
20
-3.8786890157480314
11
12.360511850393701
21
-3.8876785433070866
0
LINE
8
BLACK
6
CONTINUOUS
10
12.360511850393701
20
-3.8876785433070866
11
12.3525853543307083
21
-3.8976180708661414
0
LINE
8
BLACK
6
CONTINUOUS
10
12.3525853543307083
20
-3.8976180708661414
11
12.3458215748031499
21
-3.9083825590551182
0
LINE
8
BLACK
6
CONTINUOUS
10
12.3458215748031499
20
-3.9083825590551182
11
12.3403055511811015
21
-3.9198366929133859
0
LINE
8
BLACK
6
CONTINUOUS
10
12.3403055511811015
20
-3.9198366929133859
11
12.3361066929133862
21
-3.9318363779527559
0
LINE
8
BLACK
6
CONTINUOUS
10
12.3361066929133862
20
-3.9318363779527559
11
12.3332777559055113
21
-3.944230748031496
0
LINE
8
BLACK
6
CONTINUOUS
10
12.3332777559055113
20
-3.944230748031496
11
12.3318543307086603
21
-3.956863897637795
0
LINE
8
BLACK
6
CONTINUOUS
10
12.3318543307086603
20
-3.956863897637795
11
12.3318543307086603
21
-3.9695770472440945
  0
ENDSEC
  0
EOF
