  0
SECTION
  2
HEADER
  9
$ANGBASE
  50
0.0
  9
$ANGDIR
  70
1
  9
$MEASUREMENT
  70
0
  0
ENDSEC
  0
SECTION
  2
TABLES
  0
TABLE
  2
LTYPE
  70
4
  0
LTYPE
  5
40F
  2
CONTINUOUS
  70
0
  3
Solid line
  72
65
  73
0
  40
0.0
  0
LTYPE
  5
410
  2
DASHDOT
 70
0
  3
Dash Dot ____ _ ____ _
 72
65
 73
4
 40
2.0
 49
1.25
 49
-0.25
 49
0.25
 49
-0.25
  0
LTYPE
  5
411
  2
DASHED
 70
0
  3
Dashed __ __ __ __ __
 72
65
 73
2
 40
0.75
 49
0.5
 49
-0.25
  0
LTYPE
  5
43B
  2
DOTTED
 70
0
  3
Dotted .  .  .  .
 72
65
 73
2
 40
0.2
 49
0.0
 49
-0.2
  0
ENDTAB
  0
TABLE
  2
STYLE
  70
4
  0
STYLE
  2
KICAD
  70
0
  40
0
  41
1
  42
1
  50
0
  71
0
  3
isocp.shx
  0
STYLE
  2
KICADB
  70
0
  40
0
  41
1
  42
1
  50
0
  71
0
  3
isocp.shx
  0
STYLE
  2
KICADI
  70
0
  40
0
  41
1
  42
1
  50
15
  71
0
  3
isocp.shx
  0
STYLE
  2
KICADBI
  70
0
  40
0
  41
1
  42
1
  50
15
  71
0
  3
isocp.shx
  0
ENDTAB
  0
TABLE
  2
LAYER
  70
1
  0
LAYER
  2
BLACK
  70
0
  62
7
  6
CONTINUOUS
  0
ENDTAB
  0
ENDSEC
  0
SECTION
  2
ENTITIES
0
LINE
8
BLACK
6
CONTINUOUS
10
14.0178452755905507
20
-8.4948663779527553
11
14.01891062992126
21
-8.4959317322834647
0
LINE
8
BLACK
6
CONTINUOUS
10
14.01891062992126
20
-8.4959317322834647
11
14.0190604724409447
21
-8.4966850393700781
0
LINE
8
BLACK
6
CONTINUOUS
10
14.0190604724409447
20
-8.4966850393700781
11
14.0190604724409447
21
-9.2840866141732281
0
LINE
8
BLACK
6
CONTINUOUS
10
14.0190604724409447
20
-9.2840866141732281
11
14.01891062992126
21
-9.2848399212598416
0
LINE
8
BLACK
6
CONTINUOUS
10
14.01891062992126
20
-9.2848399212598416
11
14.0178452755905507
21
-9.2859052755905509
0
LINE
8
BLACK
6
CONTINUOUS
10
14.0178452755905507
20
-9.2859052755905509
11
14.0170919685039372
21
-9.2860551181102355
0
LINE
8
BLACK
6
CONTINUOUS
10
14.0170919685039372
20
-9.2860551181102355
11
11.3792966929133854
21
-9.2860551181102355
0
LINE
8
BLACK
6
CONTINUOUS
10
11.3792966929133854
20
-9.2860551181102355
11
11.3785433858267719
21
-9.2859052755905509
0
LINE
8
BLACK
6
CONTINUOUS
10
11.3785433858267719
20
-9.2859052755905509
11
11.3774780314960626
21
-9.2848399212598416
0
LINE
8
BLACK
6
CONTINUOUS
10
11.3774780314960626
20
-9.2848399212598416
11
11.377328188976378
21
-9.2840866141732281
0
LINE
8
BLACK
6
CONTINUOUS
10
11.377328188976378
20
-9.2840866141732281
11
11.377328188976378
21
-8.4966850393700781
0
LINE
8
BLACK
6
CONTINUOUS
10
11.377328188976378
20
-8.4966850393700781
11
11.3774780314960626
21
-8.4959317322834647
0
LINE
8
BLACK
6
CONTINUOUS
10
11.3774780314960626
20
-8.4959317322834647
11
11.3785433858267719
21
-8.4948663779527553
0
LINE
8
BLACK
6
CONTINUOUS
10
11.3785433858267719
20
-8.4948663779527553
11
11.3792966929133854
21
-8.4947165354330707
0
LINE
8
BLACK
6
CONTINUOUS
10
11.3792966929133854
20
-8.4947165354330707
11
14.0170919685039372
21
-8.4947165354330707
0
LINE
8
BLACK
6
CONTINUOUS
10
14.0170919685039372
20
-8.4947165354330707
11
14.0178452755905507
21
-8.4948663779527553
0
LINE
8
BLACK
6
CONTINUOUS
10
11.3812651968503928
20
-8.4986535433070856
11
11.3812651968503928
21
-9.2821181102362207
0
LINE
8
BLACK
6
CONTINUOUS
10
11.3812651968503928
20
-9.2821181102362207
11
14.015123464566928
21
-9.2821181102362207
0
LINE
8
BLACK
6
CONTINUOUS
10
14.015123464566928
20
-9.2821181102362207
11
14.015123464566928
21
-8.4986535433070856
0
LINE
8
BLACK
6
CONTINUOUS
10
14.015123464566928
20
-8.4986535433070856
11
11.3812651968503928
21
-8.4986535433070856
0
LINE
8
BLACK
6
CONTINUOUS
10
5.1819162598425192
20
-3.7525905511811022
11
5.232984881889764
21
-3.7532517322834646
0
LINE
8
BLACK
6
CONTINUOUS
10
5.232984881889764
20
-3.7532517322834646
11
5.2840192519685036
21
-3.7552349212598424
0
LINE
8
BLACK
6
CONTINUOUS
10
5.2840192519685036
20
-3.7552349212598424
11
5.3349851968503934
21
-3.7585388188976379
0
LINE
8
BLACK
6
CONTINUOUS
10
5.3349851968503934
20
-3.7585388188976379
11
5.3858485039370079
21
-3.7631611417322834
0
LINE
8
BLACK
6
CONTINUOUS
10
5.3858485039370079
20
-3.7631611417322834
11
5.436575078740157
21
-3.7690988188976378
0
LINE
8
BLACK
6
CONTINUOUS
10
5.436575078740157
20
-3.7690988188976378
11
5.4871309055118109
21
-3.7763478346456694
0
LINE
8
BLACK
6
CONTINUOUS
10
5.4871309055118109
20
-3.7763478346456694
11
5.5374821259842522
21
-3.7849034251968505
0
LINE
8
BLACK
6
CONTINUOUS
10
5.5374821259842522
20
-3.7849034251968505
11
5.5875949606299216
21
-3.7947597637795276
0
LINE
8
BLACK
6
CONTINUOUS
10
5.5875949606299216
20
-3.7947597637795276
11
5.6374357480314963
21
-3.8059102755905512
0
LINE
8
BLACK
6
CONTINUOUS
10
5.6374357480314963
20
-3.8059102755905512
11
5.6869711811023622
21
-3.8183474803149604
0
LINE
8
BLACK
6
CONTINUOUS
10
5.6869711811023622
20
-3.8183474803149604
11
5.736167992125984
21
-3.8320630708661416
0
LINE
8
BLACK
6
CONTINUOUS
10
5.736167992125984
20
-3.8320630708661416
11
5.7849931889763777
21
-3.8470477952755906
0
LINE
8
BLACK
6
CONTINUOUS
10
5.7849931889763777
20
-3.8470477952755906
11
5.8334140157480316
21
-3.8632916141732281
0
LINE
8
BLACK
6
CONTINUOUS
10
5.8334140157480316
20
-3.8632916141732281
11
5.8813980708661413
21
-3.8807837007874015
0
LINE
8
BLACK
6
CONTINUOUS
10
5.8813980708661413
20
-3.8807837007874015
11
5.881397952755905
21
-3.8807840551181103
0
LINE
8
BLACK
6
CONTINUOUS
10
5.881397952755905
20
-3.8807840551181103
11
5.8830514566929129
21
-3.8819753149606298
0
LINE
8
BLACK
6
CONTINUOUS
10
5.8830514566929129
20
-3.8819753149606298
11
5.8838877952755908
21
-3.8838337401574803
0
LINE
8
BLACK
6
CONTINUOUS
10
5.8838877952755908
20
-3.8838337401574803
11
5.8838877559055121
21
-3.8838337401574803
0
LINE
8
BLACK
6
CONTINUOUS
10
5.8838877559055121
20
-3.8838337401574803
11
7.2769274803149608
21
-4.412182440944882
0
LINE
8
BLACK
6
CONTINUOUS
10
7.2769274803149608
20
-4.412182440944882
11
7.300734921259842
21
-4.4212115748031495
0
LINE
8
BLACK
6
CONTINUOUS
10
7.300734921259842
20
-4.4212115748031495
11
7.3488011023622049
21
-4.4380318503937009
0
LINE
8
BLACK
6
CONTINUOUS
10
7.3488011023622049
20
-4.4380318503937009
11
7.3972866535433068
21
-4.4536020078740153
0
LINE
8
BLACK
6
CONTINUOUS
10
7.3972866535433068
20
-4.4536020078740153
11
7.4461590944881886
21
-4.4679116141732287
0
LINE
8
BLACK
6
CONTINUOUS
10
7.4461590944881886
20
-4.4679116141732287
11
7.495385590551181
21
-4.4809510629921263
0
LINE
8
BLACK
6
CONTINUOUS
10
7.495385590551181
20
-4.4809510629921263
11
7.5449332283464567
21
-4.4927116141732286
0
LINE
8
BLACK
6
CONTINUOUS
10
7.5449332283464567
20
-4.4927116141732286
11
7.5947687795275591
21
-4.5031853937007877
0
LINE
8
BLACK
6
CONTINUOUS
10
7.5947687795275591
20
-4.5031853937007877
11
7.6448587401574803
21
-4.5123653543307087
0
LINE
8
BLACK
6
CONTINUOUS
10
7.6448587401574803
20
-4.5123653543307087
11
7.6951696456692913
21
-4.5202453149606301
0
LINE
8
BLACK
6
CONTINUOUS
10
7.6951696456692913
20
-4.5202453149606301
11
7.7456676771653541
21
-4.5268200787401573
0
LINE
8
BLACK
6
CONTINUOUS
10
7.7456676771653541
20
-4.5268200787401573
11
7.796318976377953
21
-4.5320851968503932
0
LINE
8
BLACK
6
CONTINUOUS
10
7.796318976377953
20
-4.5320851968503932
11
7.8470896456692909
21
-4.536037086614173
0
LINE
8
BLACK
6
CONTINUOUS
10
7.8470896456692909
20
-4.536037086614173
11
7.89794562992126
21
-4.5386731889763778
0
LINE
8
BLACK
6
CONTINUOUS
10
7.89794562992126
20
-4.5386731889763778
11
7.9488527952755907
21
-4.5399916535433071
0
LINE
8
BLACK
6
CONTINUOUS
10
7.9488527952755907
20
-4.5399916535433071
11
7.9743149212598423
21
-4.5399921259842522
0
LINE
8
BLACK
6
CONTINUOUS
10
7.9743149212598423
20
-4.5399921259842522
11
7.9743149606299211
21
-4.5399921259842522
0
LINE
8
BLACK
6
CONTINUOUS
10
7.9743149606299211
20
-4.5399921259842522
11
7.9777218897637789
21
-4.5399921259842522
0
LINE
8
BLACK
6
CONTINUOUS
10
7.9777218897637789
20
-4.5399921259842522
11
7.9777219291338577
21
-4.5399921259842522
0
LINE
8
BLACK
6
CONTINUOUS
10
7.9777219291338577
20
-4.5399921259842522
11
7.988256377952756
21
-4.5406827559055118
0
LINE
8
BLACK
6
CONTINUOUS
10
7.988256377952756
20
-4.5406827559055118
11
7.9986105905511806
21
-4.5427425196850395
0
LINE
8
BLACK
6
CONTINUOUS
10
7.9986105905511806
20
-4.5427425196850395
11
8.0086073622047245
21
-4.5461361417322834
0
LINE
8
BLACK
6
CONTINUOUS
10
8.0086073622047245
20
-4.5461361417322834
11
8.0180756299212597
21
-4.5508055118110233
0
LINE
8
BLACK
6
CONTINUOUS
10
8.0180756299212597
20
-4.5508055118110233
11
8.0268534645669298
21
-4.5566708267716534
0
LINE
8
BLACK
6
CONTINUOUS
10
8.0268534645669298
20
-4.5566708267716534
11
8.0347906299212593
21
-4.5636316535433066
0
LINE
8
BLACK
6
CONTINUOUS
10
8.0347906299212593
20
-4.5636316535433066
11
8.0417513385826762
21
-4.571568937007874
0
LINE
8
BLACK
6
CONTINUOUS
10
8.0417513385826762
20
-4.571568937007874
11
8.0476164566929125
21
-4.5803468897637796
0
LINE
8
BLACK
6
CONTINUOUS
10
8.0476164566929125
20
-4.5803468897637796
11
8.052285708661417
21
-4.5898152362204723
0
LINE
8
BLACK
6
CONTINUOUS
10
8.052285708661417
20
-4.5898152362204723
11
8.0556791338582681
21
-4.5998120866141727
0
LINE
8
BLACK
6
CONTINUOUS
10
8.0556791338582681
20
-4.5998120866141727
11
8.0577386614173232
21
-4.6101662992125982
0
LINE
8
BLACK
6
CONTINUOUS
10
8.0577386614173232
20
-4.6101662992125982
11
8.0584284251968494
21
-4.6206901574803148
0
LINE
8
BLACK
6
CONTINUOUS
10
8.0584284251968494
20
-4.6206901574803148
11
8.0584305511811021
21
-4.6207007874015744
0
LINE
8
BLACK
6
CONTINUOUS
10
8.0584305511811021
20
-4.6207007874015744
11
8.0584305511811021
21
-4.9258188976377948
0
LINE
8
BLACK
6
CONTINUOUS
10
8.0584305511811021
20
-4.9258188976377948
11
8.058429133858267
21
-4.9258259842519685
0
LINE
8
BLACK
6
CONTINUOUS
10
8.058429133858267
20
-4.9258259842519685
11
8.058429133858267
21
-4.9343276771653546
0
LINE
8
BLACK
6
CONTINUOUS
10
8.058429133858267
20
-4.9343276771653546
11
8.059912322834645
21
-4.951280433070866
0
LINE
8
BLACK
6
CONTINUOUS
10
8.059912322834645
20
-4.951280433070866
11
8.0628674015748025
21
-4.9680394488188977
0
LINE
8
BLACK
6
CONTINUOUS
10
8.0628674015748025
20
-4.9680394488188977
11
8.0672718503937002
21
-4.9844770866141728
0
LINE
8
BLACK
6
CONTINUOUS
10
8.0672718503937002
20
-4.9844770866141728
11
8.0730922440944877
21
-5.0004683464566924
0
LINE
8
BLACK
6
CONTINUOUS
10
8.0730922440944877
20
-5.0004683464566924
11
8.0802841732283461
21
-5.0158914566929136
0
LINE
8
BLACK
6
CONTINUOUS
10
8.0802841732283461
20
-5.0158914566929136
11
8.0887929921259847
21
-5.0306290551181103
0
LINE
8
BLACK
6
CONTINUOUS
10
8.0887929921259847
20
-5.0306290551181103
11
8.0985538976377942
21
-5.0445689763779527
0
LINE
8
BLACK
6
CONTINUOUS
10
8.0985538976377942
20
-5.0445689763779527
11
8.1094925984251969
21
-5.0576051181102359
0
LINE
8
BLACK
6
CONTINUOUS
10
8.1094925984251969
20
-5.0576051181102359
11
8.1215258267716539
21
-5.0696383070866142
0
LINE
8
BLACK
6
CONTINUOUS
10
8.1215258267716539
20
-5.0696383070866142
11
8.1345620866141726
21
-5.0805768897637797
0
LINE
8
BLACK
6
CONTINUOUS
10
8.1345620866141726
20
-5.0805768897637797
11
8.1485020472440937
21
-5.0903376771653539
0
LINE
8
BLACK
6
CONTINUOUS
10
8.1485020472440937
20
-5.0903376771653539
11
8.1632397244094488
21
-5.0988463779527562
0
LINE
8
BLACK
6
CONTINUOUS
10
8.1632397244094488
20
-5.0988463779527562
11
8.1786628740157479
21
-5.1060382283464563
0
LINE
8
BLACK
6
CONTINUOUS
10
8.1786628740157479
20
-5.1060382283464563
11
8.1946541732283471
21
-5.1118584645669287
0
LINE
8
BLACK
6
CONTINUOUS
10
8.1946541732283471
20
-5.1118584645669287
11
8.2110918503937
21
-5.1162628346456689
0
LINE
8
BLACK
6
CONTINUOUS
10
8.2110918503937
20
-5.1162628346456689
11
8.2278508661417327
21
-5.1192177952755902
0
LINE
8
BLACK
6
CONTINUOUS
10
8.2278508661417327
20
-5.1192177952755902
11
8.2448036614173219
21
-5.1207008661417319
0
LINE
8
BLACK
6
CONTINUOUS
10
8.2448036614173219
20
-5.1207008661417319
11
8.2533124409448817
21
-5.1207007874015744
0
LINE
8
BLACK
6
CONTINUOUS
10
8.2533124409448817
20
-5.1207007874015744
11
8.4796903937007873
21
-5.1207007874015744
0
LINE
8
BLACK
6
CONTINUOUS
10
8.4796903937007873
20
-5.1207007874015744
11
8.479690433070866
21
-5.1207007874015744
0
LINE
8
BLACK
6
CONTINUOUS
10
8.479690433070866
20
-5.1207007874015744
11
8.479690433070866
21
-5.1206982677165351
0
LINE
8
BLACK
6
CONTINUOUS
10
8.479690433070866
20
-5.1206982677165351
11
8.4881990944881895
21
-5.1206983858267714
0
LINE
8
BLACK
6
CONTINUOUS
10
8.4881990944881895
20
-5.1206983858267714
11
8.5051517322834638
21
-5.1192154330708659
0
LINE
8
BLACK
6
CONTINUOUS
10
8.5051517322834638
20
-5.1192154330708659
11
8.5219106299212601
21
-5.1162605905511809
0
LINE
8
BLACK
6
CONTINUOUS
10
8.5219106299212601
20
-5.1162605905511809
11
8.5383481889763786
21
-5.111856338582677
0
LINE
8
BLACK
6
CONTINUOUS
10
8.5383481889763786
20
-5.111856338582677
11
8.554339330708661
21
-5.1060362204724408
0
LINE
8
BLACK
6
CONTINUOUS
10
8.554339330708661
20
-5.1060362204724408
11
8.5697624015748026
21
-5.0988444881889761
0
LINE
8
BLACK
6
CONTINUOUS
10
8.5697624015748026
20
-5.0988444881889761
11
8.5844999212598427
21
-5.0903359448818897
0
LINE
8
BLACK
6
CONTINUOUS
10
8.5844999212598427
20
-5.0903359448818897
11
8.5984398425196851
21
-5.0805752755905509
0
LINE
8
BLACK
6
CONTINUOUS
10
8.5984398425196851
20
-5.0805752755905509
11
8.6114759842519675
21
-5.0696368110236216
0
LINE
8
BLACK
6
CONTINUOUS
10
8.6114759842519675
20
-5.0696368110236216
11
8.623509133858267
21
-5.0576037795275592
0
LINE
8
BLACK
6
CONTINUOUS
10
8.623509133858267
20
-5.0576037795275592
11
8.6344477952755909
21
-5.0445677952755901
0
LINE
8
BLACK
6
CONTINUOUS
10
8.6344477952755909
20
-5.0445677952755901
11
8.6442086220472447
21
-5.0306280314960627
0
LINE
8
BLACK
6
CONTINUOUS
10
8.6442086220472447
20
-5.0306280314960627
11
8.652717362204724
21
-5.015890590551181
0
LINE
8
BLACK
6
CONTINUOUS
10
8.652717362204724
20
-5.015890590551181
11
8.6599092913385824
21
-5.0004676377952757
0
LINE
8
BLACK
6
CONTINUOUS
10
8.6599092913385824
20
-5.0004676377952757
11
8.6657296062992124
21
-4.9844765354330711
0
LINE
8
BLACK
6
CONTINUOUS
10
8.6657296062992124
20
-4.9844765354330711
11
8.6701340551181101
21
-4.9680390551181102
0
LINE
8
BLACK
6
CONTINUOUS
10
8.6701340551181101
20
-4.9680390551181102
11
8.6730891338582676
21
-4.9512801968503934
0
LINE
8
BLACK
6
CONTINUOUS
10
8.6730891338582676
20
-4.9512801968503934
11
8.6745722834645669
21
-4.9343275984251971
0
LINE
8
BLACK
6
CONTINUOUS
10
8.6745722834645669
20
-4.9343275984251971
11
8.6745722834645669
21
-4.9258188976377948
0
LINE
8
BLACK
6
CONTINUOUS
10
8.6745722834645669
20
-4.9258188976377948
11
8.6745722834645669
21
-4.6207007874015744
0
LINE
8
BLACK
6
CONTINUOUS
10
8.6745722834645669
20
-4.6207007874015744
11
8.6752627559055124
21
-4.6101662598425195
0
LINE
8
BLACK
6
CONTINUOUS
10
8.6752627559055124
20
-4.6101662598425195
11
8.6773223622047251
21
-4.5998119685039365
0
LINE
8
BLACK
6
CONTINUOUS
10
8.6773223622047251
20
-4.5998119685039365
11
8.6807159055118106
21
-4.589815118110236
0
LINE
8
BLACK
6
CONTINUOUS
10
8.6807159055118106
20
-4.589815118110236
11
8.6853852362204726
21
-4.5803467322834646
0
LINE
8
BLACK
6
CONTINUOUS
10
8.6853852362204726
20
-4.5803467322834646
11
8.6912505511811027
21
-4.5715688582677165
0
LINE
8
BLACK
6
CONTINUOUS
10
8.6912505511811027
20
-4.5715688582677165
11
8.6982114173228346
21
-4.5636316535433066
0
LINE
8
BLACK
6
CONTINUOUS
10
8.6982114173228346
20
-4.5636316535433066
11
8.7061487401574809
21
-4.5566709055118109
0
LINE
8
BLACK
6
CONTINUOUS
10
8.7061487401574809
20
-4.5566709055118109
11
8.7149267322834643
21
-4.5508057874015746
0
LINE
8
BLACK
6
CONTINUOUS
10
8.7149267322834643
20
-4.5508057874015746
11
8.7243951968503932
21
-4.5461366141732285
0
LINE
8
BLACK
6
CONTINUOUS
10
8.7243951968503932
20
-4.5461366141732285
11
8.7343921259842521
21
-4.5427432677165349
0
LINE
8
BLACK
6
CONTINUOUS
10
8.7343921259842521
20
-4.5427432677165349
11
8.7447464566929138
21
-4.5406838188976373
0
LINE
8
BLACK
6
CONTINUOUS
10
8.7447464566929138
20
-4.5406838188976373
11
8.7552702755905507
21
-4.5399942125984252
0
LINE
8
BLACK
6
CONTINUOUS
10
8.7552702755905507
20
-4.5399942125984252
11
8.7552809448818891
21
-4.5399921259842522
0
LINE
8
BLACK
6
CONTINUOUS
10
8.7552809448818891
20
-4.5399921259842522
11
8.7586879133858258
21
-4.5399921259842522
0
LINE
8
BLACK
6
CONTINUOUS
10
8.7586879133858258
20
-4.5399921259842522
11
8.7586888976377946
21
-4.5399922834645672
0
LINE
8
BLACK
6
CONTINUOUS
10
8.7586888976377946
20
-4.5399922834645672
11
8.7841500393700791
21
-4.5399918110236221
0
LINE
8
BLACK
6
CONTINUOUS
10
8.7841500393700791
20
-4.5399918110236221
11
8.8350572047244089
21
-4.5386732677165353
0
LINE
8
BLACK
6
CONTINUOUS
10
8.8350572047244089
20
-4.5386732677165353
11
8.8859131496062993
21
-4.5360371259842518
0
LINE
8
BLACK
6
CONTINUOUS
10
8.8859131496062993
20
-4.5360371259842518
11
8.9366838188976381
21
-4.5320851574803145
0
LINE
8
BLACK
6
CONTINUOUS
10
8.9366838188976381
20
-4.5320851574803145
11
8.9873351574803149
21
-4.5268200393700786
0
LINE
8
BLACK
6
CONTINUOUS
10
8.9873351574803149
20
-4.5268200393700786
11
9.0378331889763786
21
-4.5202452362204726
0
LINE
8
BLACK
6
CONTINUOUS
10
9.0378331889763786
20
-4.5202452362204726
11
9.0881440551181107
21
-4.5123652362204725
0
LINE
8
BLACK
6
CONTINUOUS
10
9.0881440551181107
20
-4.5123652362204725
11
9.1382340551181098
21
-4.5031852362204727
0
LINE
8
BLACK
6
CONTINUOUS
10
9.1382340551181098
20
-4.5031852362204727
11
9.1880695669291335
21
-4.4927114960629924
0
LINE
8
BLACK
6
CONTINUOUS
10
9.1880695669291335
20
-4.4927114960629924
11
9.2376172047244101
21
-4.4809509448818901
0
LINE
8
BLACK
6
CONTINUOUS
10
9.2376172047244101
20
-4.4809509448818901
11
9.2868437007874007
21
-4.4679114960629924
0
LINE
8
BLACK
6
CONTINUOUS
10
9.2868437007874007
20
-4.4679114960629924
11
9.3357161417322825
21
-4.4536019291338578
0
LINE
8
BLACK
6
CONTINUOUS
10
9.3357161417322825
20
-4.4536019291338578
11
9.3842016929133862
21
-4.4380317716535433
0
LINE
8
BLACK
6
CONTINUOUS
10
9.3842016929133862
20
-4.4380317716535433
11
9.4322678740157482
21
-4.421211496062992
0
LINE
8
BLACK
6
CONTINUOUS
10
9.4322678740157482
20
-4.421211496062992
11
9.4560753149606303
21
-4.4121824015748032
0
LINE
8
BLACK
6
CONTINUOUS
10
9.4560753149606303
20
-4.4121824015748032
11
9.456075354330709
21
-4.412182440944882
0
LINE
8
BLACK
6
CONTINUOUS
10
9.456075354330709
20
-4.412182440944882
11
10.8523029527559061
21
-3.8826246456692912
0
LINE
8
BLACK
6
CONTINUOUS
10
10.8523029527559061
20
-3.8826246456692912
11
10.8523029921259848
21
-3.8826246062992125
0
LINE
8
BLACK
6
CONTINUOUS
10
10.8523029921259848
20
-3.8826246062992125
11
10.9002391338582676
21
-3.8651500393700786
0
LINE
8
BLACK
6
CONTINUOUS
10
10.9002391338582676
20
-3.8651500393700786
11
10.9486116535433062
21
-3.8489223622047244
0
LINE
8
BLACK
6
CONTINUOUS
10
10.9486116535433062
20
-3.8489223622047244
11
10.997388110236221
21
-3.833952598425197
0
LINE
8
BLACK
6
CONTINUOUS
10
10.997388110236221
20
-3.833952598425197
11
11.0465357874015737
21
-3.8202506692913385
0
LINE
8
BLACK
6
CONTINUOUS
10
11.0465357874015737
20
-3.8202506692913385
11
11.0960217716535432
21
-3.8078258661417324
0
LINE
8
BLACK
6
CONTINUOUS
10
11.0960217716535432
20
-3.8078258661417324
11
11.1458128346456693
21
-3.7966864566929135
0
LINE
8
BLACK
6
CONTINUOUS
10
11.1458128346456693
20
-3.7966864566929135
11
11.1958756299212592
21
-3.7868399212598423
0
LINE
8
BLACK
6
CONTINUOUS
10
11.1958756299212592
20
-3.7868399212598423
11
11.2461765748031493
21
-3.778292834645669
0
LINE
8
BLACK
6
CONTINUOUS
10
11.2461765748031493
20
-3.778292834645669
11
11.2966819291338574
21
-3.7710510236220474
0
LINE
8
BLACK
6
CONTINUOUS
10
11.2966819291338574
20
-3.7710510236220474
11
11.3473578740157475
21
-3.765119212598425
0
LINE
8
BLACK
6
CONTINUOUS
10
11.3473578740157475
20
-3.765119212598425
11
11.3981704330708666
21
-3.7605014960629921
0
LINE
8
BLACK
6
CONTINUOUS
10
11.3981704330708666
20
-3.7605014960629921
11
11.4490854724409452
21
-3.757200905511811
0
LINE
8
BLACK
6
CONTINUOUS
10
11.4490854724409452
20
-3.757200905511811
11
11.5000689370078746
21
-3.7552196456692912
0
LINE
8
BLACK
6
CONTINUOUS
10
11.5000689370078746
20
-3.7552196456692912
11
11.5510863385826763
21
-3.7545590944881888
0
LINE
8
BLACK
6
CONTINUOUS
10
11.5510863385826763
20
-3.7545590944881888
11
11.5510865748031488
21
-3.7545590551181101
0
LINE
8
BLACK
6
CONTINUOUS
10
11.5510865748031488
20
-3.7545590551181101
11
14.0014790944881895
21
-3.7545590551181101
0
LINE
8
BLACK
6
CONTINUOUS
10
14.0014790944881895
20
-3.7545590551181101
11
14.0029201574803146
21
-3.7531180314960628
0
LINE
8
BLACK
6
CONTINUOUS
10
14.0029201574803146
20
-3.7531180314960628
11
14.0048886220472433
21
-3.7525905511811022
0
LINE
8
BLACK
6
CONTINUOUS
10
14.0048886220472433
20
-3.7525905511811022
11
14.0214696062992115
21
-3.7532762598425196
0
LINE
8
BLACK
6
CONTINUOUS
10
14.0214696062992115
20
-3.7532762598425196
11
14.0379372834645668
21
-3.7553288582677165
0
LINE
8
BLACK
6
CONTINUOUS
10
14.0379372834645668
20
-3.7553288582677165
11
14.0541792519685043
21
-3.7587343700787401
0
LINE
8
BLACK
6
CONTINUOUS
10
14.0541792519685043
20
-3.7587343700787401
11
14.0700844881889768
21
-3.7634694881889761
0
LINE
8
BLACK
6
CONTINUOUS
10
14.0700844881889768
20
-3.7634694881889761
11
14.0855443700787397
21
-3.7695018897637795
0
LINE
8
BLACK
6
CONTINUOUS
10
14.0855443700787397
20
-3.7695018897637795
11
14.1004533464566926
21
-3.7767903543307084
0
LINE
8
BLACK
6
CONTINUOUS
10
14.1004533464566926
20
-3.7767903543307084
11
14.1147094881889767
21
-3.7852850787401575
0
LINE
8
BLACK
6
CONTINUOUS
10
14.1147094881889767
20
-3.7852850787401575
11
14.1282154330708654
21
-3.7949280708661415
0
LINE
8
BLACK
6
CONTINUOUS
10
14.1282154330708654
20
-3.7949280708661415
11
14.1408789370078729
21
-3.8056534645669289
0
LINE
8
BLACK
6
CONTINUOUS
10
14.1408789370078729
20
-3.8056534645669289
11
14.1526135039370082
21
-3.8173879527559054
0
LINE
8
BLACK
6
CONTINUOUS
10
14.1526135039370082
20
-3.8173879527559054
11
14.1633389370078735
21
-3.8300514173228346
0
LINE
8
BLACK
6
CONTINUOUS
10
14.1633389370078735
20
-3.8300514173228346
11
14.1729820078740154
21
-3.8435573228346458
0
LINE
8
BLACK
6
CONTINUOUS
10
14.1729820078740154
20
-3.8435573228346458
11
14.1814768503937003
21
-3.8578133858267716
0
LINE
8
BLACK
6
CONTINUOUS
10
14.1814768503937003
20
-3.8578133858267716
11
14.1887653937007876
21
-3.8727222834645669
0
LINE
8
BLACK
6
CONTINUOUS
10
14.1887653937007876
20
-3.8727222834645669
11
14.1947978740157481
21
-3.8881821653543307
0
LINE
8
BLACK
6
CONTINUOUS
10
14.1947978740157481
20
-3.8881821653543307
11
14.199533070866142
21
-3.9040874015748033
0
LINE
8
BLACK
6
CONTINUOUS
10
14.199533070866142
20
-3.9040874015748033
11
14.2029386614173223
21
-3.9203293307086615
0
LINE
8
BLACK
6
CONTINUOUS
10
14.2029386614173223
20
-3.9203293307086615
11
14.204991377952755
21
-3.9367970078740155
0
LINE
8
BLACK
6
CONTINUOUS
10
14.204991377952755
20
-3.9367970078740155
11
14.2056771653543308
21
-3.9533779527559054
0
LINE
8
BLACK
6
CONTINUOUS
10
14.2056771653543308
20
-3.9533779527559054
11
14.2056760629921257
21
-3.9533779527559054
0
LINE
8
BLACK
6
CONTINUOUS
10
14.2056760629921257
20
-3.9533779527559054
11
14.2056760629921257
21
-9.2683385826771651
0
LINE
8
BLACK
6
CONTINUOUS
10
14.2056760629921257
20
-9.2683385826771651
11
14.2049902755905517
21
-9.2849194488188971
0
LINE
8
BLACK
6
CONTINUOUS
10
14.2049902755905517
20
-9.2849194488188971
11
14.202937598425196
21
-9.3013870472440949
0
LINE
8
BLACK
6
CONTINUOUS
10
14.202937598425196
20
-9.3013870472440949
11
14.1995320078740157
21
-9.3176288582677156
0
LINE
8
BLACK
6
CONTINUOUS
10
14.1995320078740157
20
-9.3176288582677156
11
14.1947968110236218
21
-9.3335340157480307
0
LINE
8
BLACK
6
CONTINUOUS
10
14.1947968110236218
20
-9.3335340157480307
11
14.18876437007874
21
-9.3489937795275591
0
LINE
8
BLACK
6
CONTINUOUS
10
14.18876437007874
20
-9.3489937795275591
11
14.1814758661417315
21
-9.3639025984251969
0
LINE
8
BLACK
6
CONTINUOUS
10
14.1814758661417315
20
-9.3639025984251969
11
14.1729811023622041
21
-9.378158622047243
0
LINE
8
BLACK
6
CONTINUOUS
10
14.1729811023622041
20
-9.378158622047243
11
14.1633380708661409
21
-9.3916644488188972
0
LINE
8
BLACK
6
CONTINUOUS
10
14.1633380708661409
20
-9.3916644488188972
11
14.1526126771653544
21
-9.4043278346456685
0
LINE
8
BLACK
6
CONTINUOUS
10
14.1526126771653544
20
-9.4043278346456685
11
14.1408781889763784
21
-9.4160622834645675
0
LINE
8
BLACK
6
CONTINUOUS
10
14.1408781889763784
20
-9.4160622834645675
11
14.1282147637795266
21
-9.4267875984251965
0
LINE
8
BLACK
6
CONTINUOUS
10
14.1282147637795266
20
-9.4267875984251965
11
14.1147088582677167
21
-9.4364305118110234
0
LINE
8
BLACK
6
CONTINUOUS
10
14.1147088582677167
20
-9.4364305118110234
11
14.10045279527559
21
-9.4449252362204721
0
LINE
8
BLACK
6
CONTINUOUS
10
14.10045279527559
20
-9.4449252362204721
11
14.0855439370078734
21
-9.4522136614173231
0
LINE
8
BLACK
6
CONTINUOUS
10
14.0855439370078734
20
-9.4522136614173231
11
14.0700841338582681
21
-9.4582460236220474
0
LINE
8
BLACK
6
CONTINUOUS
10
14.0700841338582681
20
-9.4582460236220474
11
14.054178976377953
21
-9.462981102362205
0
LINE
8
BLACK
6
CONTINUOUS
10
14.054178976377953
20
-9.462981102362205
11
14.0379371259842518
21
-9.466386574803149
0
LINE
8
BLACK
6
CONTINUOUS
10
14.0379371259842518
20
-9.466386574803149
11
14.0214694881889752
21
-9.4684391732283455
0
LINE
8
BLACK
6
CONTINUOUS
10
14.0214694881889752
20
-9.4684391732283455
11
14.0049079527559055
21
-9.46912405511811
0
LINE
8
BLACK
6
CONTINUOUS
10
14.0049079527559055
20
-9.46912405511811
11
14.004888661417322
21
-9.4691259842519688
0
LINE
8
BLACK
6
CONTINUOUS
10
14.004888661417322
20
-9.4691259842519688
11
14.0048886220472433
21
-9.4691259842519688
0
LINE
8
BLACK
6
CONTINUOUS
10
14.0048886220472433
20
-9.4691259842519688
11
2.7155185826771655
21
-9.4691259842519688
0
LINE
8
BLACK
6
CONTINUOUS
10
2.7155185826771655
20
-9.4691259842519688
11
2.7155185433070868
21
-9.4691259448818901
0
LINE
8
BLACK
6
CONTINUOUS
10
2.7155185433070868
20
-9.4691259448818901
11
2.7155185433070868
21
-9.4691259842519688
0
LINE
8
BLACK
6
CONTINUOUS
10
2.7155185433070868
20
-9.4691259842519688
11
2.6989377165354331
21
-9.4684401181102356
0
LINE
8
BLACK
6
CONTINUOUS
10
2.6989377165354331
20
-9.4684401181102356
11
2.6824701574803149
21
-9.4663873228346453
0
LINE
8
BLACK
6
CONTINUOUS
10
2.6824701574803149
20
-9.4663873228346453
11
2.6662283858267717
21
-9.4629816929133863
0
LINE
8
BLACK
6
CONTINUOUS
10
2.6662283858267717
20
-9.4629816929133863
11
2.6503232677165354
21
-9.4582464960629924
0
LINE
8
BLACK
6
CONTINUOUS
10
2.6503232677165354
20
-9.4582464960629924
11
2.6348635433070866
21
-9.4522140157480319
0
LINE
8
BLACK
6
CONTINUOUS
10
2.6348635433070866
20
-9.4522140157480319
11
2.6199547637795275
21
-9.4449254724409446
0
LINE
8
BLACK
6
CONTINUOUS
10
2.6199547637795275
20
-9.4449254724409446
11
2.6056987795275588
21
-9.4364306692913384
0
LINE
8
BLACK
6
CONTINUOUS
10
2.6056987795275588
20
-9.4364306692913384
11
2.5921929921259843
21
-9.4267876377952753
0
LINE
8
BLACK
6
CONTINUOUS
10
2.5921929921259843
20
-9.4267876377952753
11
2.5795296456692913
21
-9.4160622834645675
0
LINE
8
BLACK
6
CONTINUOUS
10
2.5795296456692913
20
-9.4160622834645675
11
2.5677952362204723
21
-9.4043277952755897
0
LINE
8
BLACK
6
CONTINUOUS
10
2.5677952362204723
20
-9.4043277952755897
11
2.5570699212598424
21
-9.3916643700787397
0
LINE
8
BLACK
6
CONTINUOUS
10
2.5570699212598424
20
-9.3916643700787397
11
2.5474269685039368
21
-9.3781585433070855
0
LINE
8
BLACK
6
CONTINUOUS
10
2.5474269685039368
20
-9.3781585433070855
11
2.5389322834645669
21
-9.3639025196850394
0
LINE
8
BLACK
6
CONTINUOUS
10
2.5389322834645669
20
-9.3639025196850394
11
2.5316438188976376
21
-9.3489937007874016
0
LINE
8
BLACK
6
CONTINUOUS
10
2.5316438188976376
20
-9.3489937007874016
11
2.5256114173228346
21
-9.3335339370078731
0
LINE
8
BLACK
6
CONTINUOUS
10
2.5256114173228346
20
-9.3335339370078731
11
2.5208762992125981
21
-9.3176288188976368
0
LINE
8
BLACK
6
CONTINUOUS
10
2.5208762992125981
20
-9.3176288188976368
11
2.5174707480314962
21
-9.3013869685039374
0
LINE
8
BLACK
6
CONTINUOUS
10
2.5174707480314962
20
-9.3013869685039374
11
2.5154180708661418
21
-9.2849194094488183
0
LINE
8
BLACK
6
CONTINUOUS
10
2.5154180708661418
20
-9.2849194094488183
11
2.5147330708661415
21
-9.2683578740157486
0
LINE
8
BLACK
6
CONTINUOUS
10
2.5147330708661415
20
-9.2683578740157486
11
2.5147311811023623
21
-9.2683385826771651
0
LINE
8
BLACK
6
CONTINUOUS
10
2.5147311811023623
20
-9.2683385826771651
11
2.5147311811023623
21
-3.9533779527559054
0
LINE
8
BLACK
6
CONTINUOUS
10
2.5147311811023623
20
-3.9533779527559054
11
2.5154169291338584
21
-3.9367970472440943
0
LINE
8
BLACK
6
CONTINUOUS
10
2.5154169291338584
20
-3.9367970472440943
11
2.5174695275590548
21
-3.920329409448819
0
LINE
8
BLACK
6
CONTINUOUS
10
2.5174695275590548
20
-3.920329409448819
11
2.5208750787401573
21
-3.9040875196850391
0
LINE
8
BLACK
6
CONTINUOUS
10
2.5208750787401573
20
-3.9040875196850391
11
2.5256101968503937
21
-3.8881823228346457
0
LINE
8
BLACK
6
CONTINUOUS
10
2.5256101968503937
20
-3.8881823228346457
11
2.5316426377952754
21
-3.8727224803149607
0
LINE
8
BLACK
6
CONTINUOUS
10
2.5316426377952754
20
-3.8727224803149607
11
2.5389311023622048
21
-3.8578135826771653
0
LINE
8
BLACK
6
CONTINUOUS
10
2.5389311023622048
20
-3.8578135826771653
11
2.5474258661417322
21
-3.8435574803149604
0
LINE
8
BLACK
6
CONTINUOUS
10
2.5474258661417322
20
-3.8435574803149604
11
2.5570688582677166
21
-3.8300516141732284
0
LINE
8
BLACK
6
CONTINUOUS
10
2.5570688582677166
20
-3.8300516141732284
11
2.567794251968504
21
-3.8173881496062991
0
LINE
8
BLACK
6
CONTINUOUS
10
2.567794251968504
20
-3.8173881496062991
11
2.5795287401574805
21
-3.8056536614173226
0
LINE
8
BLACK
6
CONTINUOUS
10
2.5795287401574805
20
-3.8056536614173226
11
2.5921922047244093
21
-3.7949282677165352
0
LINE
8
BLACK
6
CONTINUOUS
10
2.5921922047244093
20
-3.7949282677165352
11
2.6056981102362204
21
-3.7852852755905513
0
LINE
8
BLACK
6
CONTINUOUS
10
2.6056981102362204
20
-3.7852852755905513
11
2.619954212598425
21
-3.7767905118110234
0
LINE
8
BLACK
6
CONTINUOUS
10
2.619954212598425
20
-3.7767905118110234
11
2.6348630708661416
21
-3.7695020472440945
0
LINE
8
BLACK
6
CONTINUOUS
10
2.6348630708661416
20
-3.7695020472440945
11
2.6503229527559053
21
-3.7634696456692911
0
LINE
8
BLACK
6
CONTINUOUS
10
2.6503229527559053
20
-3.7634696456692911
11
2.6662281496062992
21
-3.7587344881889764
0
LINE
8
BLACK
6
CONTINUOUS
10
2.6662281496062992
20
-3.7587344881889764
11
2.6824700393700787
21
-3.7553289763779527
0
LINE
8
BLACK
6
CONTINUOUS
10
2.6824700393700787
20
-3.7553289763779527
11
2.6989376771653544
21
-3.7532763385826771
0
LINE
8
BLACK
6
CONTINUOUS
10
2.6989376771653544
20
-3.7532763385826771
11
2.7155171653543309
21
-3.7525906692913384
0
LINE
8
BLACK
6
CONTINUOUS
10
2.7155171653543309
20
-3.7525906692913384
11
2.7155185826771655
21
-3.7525905511811022
0
LINE
8
BLACK
6
CONTINUOUS
10
2.7155185826771655
20
-3.7525905511811022
11
5.1819162598425192
21
-3.7525905511811022
0
LINE
8
BLACK
6
CONTINUOUS
10
11.5510865748031488
20
-3.7584960629921258
11
11.5510865748031488
21
-3.7584961023622045
0
LINE
8
BLACK
6
CONTINUOUS
10
11.5510865748031488
20
-3.7584961023622045
11
11.5256244488188972
21
-3.7584965748031496
0
LINE
8
BLACK
6
CONTINUOUS
10
11.5256244488188972
20
-3.7584965748031496
11
11.4747172834645674
21
-3.7598150393700784
0
LINE
8
BLACK
6
CONTINUOUS
10
11.4747172834645674
20
-3.7598150393700784
11
11.4238612992125983
21
-3.7624511417322832
0
LINE
8
BLACK
6
CONTINUOUS
10
11.4238612992125983
20
-3.7624511417322832
11
11.3730906299212595
21
-3.766403031496063
0
LINE
8
BLACK
6
CONTINUOUS
10
11.3730906299212595
20
-3.766403031496063
11
11.3224393307086615
21
-3.7716681496062989
0
LINE
8
BLACK
6
CONTINUOUS
10
11.3224393307086615
20
-3.7716681496062989
11
11.2719412992125978
21
-3.7782429133858266
0
LINE
8
BLACK
6
CONTINUOUS
10
11.2719412992125978
20
-3.7782429133858266
11
11.2216303937007869
21
-3.786122874015748
0
LINE
8
BLACK
6
CONTINUOUS
10
11.2216303937007869
20
-3.786122874015748
11
11.1715404330708665
21
-3.7953028346456694
0
LINE
8
BLACK
6
CONTINUOUS
10
11.1715404330708665
20
-3.7953028346456694
11
11.1217049212598429
21
-3.8057766141732281
0
LINE
8
BLACK
6
CONTINUOUS
10
11.1217049212598429
20
-3.8057766141732281
11
11.0721572834645663
21
-3.8175371653543304
0
LINE
8
BLACK
6
CONTINUOUS
10
11.0721572834645663
20
-3.8175371653543304
11
11.0229307480314951
21
-3.8305766141732285
0
LINE
8
BLACK
6
CONTINUOUS
10
11.0229307480314951
20
-3.8305766141732285
11
10.9740583070866133
21
-3.844886220472441
0
LINE
8
BLACK
6
CONTINUOUS
10
10.9740583070866133
20
-3.844886220472441
11
10.9255727559055114
21
-3.8604563779527559
0
LINE
8
BLACK
6
CONTINUOUS
10
10.9255727559055114
20
-3.8604563779527559
11
10.8775066141732282
21
-3.8772766535433072
0
LINE
8
BLACK
6
CONTINUOUS
10
10.8775066141732282
20
-3.8772766535433072
11
10.8536991732283461
21
-3.8863057874015747
0
LINE
8
BLACK
6
CONTINUOUS
10
10.8536991732283461
20
-3.8863057874015747
11
10.8536991338582673
21
-3.886305748031496
0
LINE
8
BLACK
6
CONTINUOUS
10
10.8536991338582673
20
-3.886305748031496
11
9.4574714960629915
21
-4.4158635433070863
0
LINE
8
BLACK
6
CONTINUOUS
10
9.4574714960629915
20
-4.4158635433070863
11
9.457471259842519
21
-4.4158635433070863
0
LINE
8
BLACK
6
CONTINUOUS
10
9.457471259842519
20
-4.4158635433070863
11
9.40953531496063
21
-4.4333381102362202
0
LINE
8
BLACK
6
CONTINUOUS
10
9.40953531496063
20
-4.4333381102362202
11
9.3611627952755896
21
-4.4495657480314961
0
LINE
8
BLACK
6
CONTINUOUS
10
9.3611627952755896
20
-4.4495657480314961
11
9.3123863385826766
21
-4.4645355118110235
0
LINE
8
BLACK
6
CONTINUOUS
10
9.3123863385826766
20
-4.4645355118110235
11
9.2632386614173221
21
-4.4782374015748028
0
LINE
8
BLACK
6
CONTINUOUS
10
9.2632386614173221
20
-4.4782374015748028
11
9.2137526771653544
21
-4.4906622440944881
0
LINE
8
BLACK
6
CONTINUOUS
10
9.2137526771653544
20
-4.4906622440944881
11
9.1639616141732283
21
-4.501801653543307
0
LINE
8
BLACK
6
CONTINUOUS
10
9.1639616141732283
20
-4.501801653543307
11
9.1138988582677172
21
-4.5116481889763778
0
LINE
8
BLACK
6
CONTINUOUS
10
9.1138988582677172
20
-4.5116481889763778
11
9.0635979133858271
21
-4.5201952755905515
0
LINE
8
BLACK
6
CONTINUOUS
10
9.0635979133858271
20
-4.5201952755905515
11
9.0130925196850384
21
-4.5274371653543302
0
LINE
8
BLACK
6
CONTINUOUS
10
9.0130925196850384
20
-4.5274371653543302
11
8.9624166141732289
21
-4.533368976377953
0
LINE
8
BLACK
6
CONTINUOUS
10
8.9624166141732289
20
-4.533368976377953
11
8.9116040551181097
21
-4.5379867322834642
0
LINE
8
BLACK
6
CONTINUOUS
10
8.9116040551181097
20
-4.5379867322834642
11
8.8606890157480311
21
-4.5412874015748033
0
LINE
8
BLACK
6
CONTINUOUS
10
8.8606890157480311
20
-4.5412874015748033
11
8.8097055511811018
21
-4.5432687007874017
0
LINE
8
BLACK
6
CONTINUOUS
10
8.8097055511811018
20
-4.5432687007874017
11
8.7586879133858258
21
-4.5439293307086617
0
LINE
8
BLACK
6
CONTINUOUS
10
8.7586879133858258
20
-4.5439293307086617
11
8.7586879133858258
21
-4.5439291338582679
0
LINE
8
BLACK
6
CONTINUOUS
10
8.7586879133858258
20
-4.5439291338582679
11
8.7552809448818891
21
-4.5439291338582679
0
LINE
8
BLACK
6
CONTINUOUS
10
8.7552809448818891
20
-4.5439291338582679
11
8.7552809055118104
21
-4.5439290944881892
0
LINE
8
BLACK
6
CONTINUOUS
10
8.7552809055118104
20
-4.5439290944881892
11
8.7552809055118104
21
-4.5439291338582679
0
LINE
8
BLACK
6
CONTINUOUS
10
8.7552809055118104
20
-4.5439291338582679
11
8.7552809055118104
21
-4.5439305511811021
0
LINE
8
BLACK
6
CONTINUOUS
10
8.7552809055118104
20
-4.5439305511811021
11
8.7502490551181094
21
-4.5439304724409446
0
LINE
8
BLACK
6
CONTINUOUS
10
8.7502490551181094
20
-4.5439304724409446
11
8.7402714566929127
21
-4.5452438582677166
0
LINE
8
BLACK
6
CONTINUOUS
10
8.7402714566929127
20
-4.5452438582677166
11
8.7305506299212592
21
-4.5478483858267715
0
LINE
8
BLACK
6
CONTINUOUS
10
8.7305506299212592
20
-4.5478483858267715
11
8.721252952755906
21
-4.5516994881889765
0
LINE
8
BLACK
6
CONTINUOUS
10
8.721252952755906
20
-4.5516994881889765
11
8.7125374803149604
21
-4.5567312204724413
0
LINE
8
BLACK
6
CONTINUOUS
10
8.7125374803149604
20
-4.5567312204724413
11
8.7045533464566933
21
-4.5628575196850392
0
LINE
8
BLACK
6
CONTINUOUS
10
8.7045533464566933
20
-4.5628575196850392
11
8.6974371653543301
21
-4.5699735826771652
0
LINE
8
BLACK
6
CONTINUOUS
10
8.6974371653543301
20
-4.5699735826771652
11
8.6913107480314959
21
-4.577957598425197
0
LINE
8
BLACK
6
CONTINUOUS
10
8.6913107480314959
20
-4.577957598425197
11
8.6862788188976374
21
-4.5866729527559054
0
LINE
8
BLACK
6
CONTINUOUS
10
8.6862788188976374
20
-4.5866729527559054
11
8.6824275984251962
21
-4.5959705905511807
0
LINE
8
BLACK
6
CONTINUOUS
10
8.6824275984251962
20
-4.5959705905511807
11
8.6798228740157484
21
-4.6056913385826768
0
LINE
8
BLACK
6
CONTINUOUS
10
8.6798228740157484
20
-4.6056913385826768
11
8.6785092913385817
21
-4.6156689370078743
0
LINE
8
BLACK
6
CONTINUOUS
10
8.6785092913385817
20
-4.6156689370078743
11
8.6785092913385817
21
-4.6207007874015744
0
LINE
8
BLACK
6
CONTINUOUS
10
8.6785092913385817
20
-4.6207007874015744
11
8.6785092913385817
21
-4.9258188976377948
0
LINE
8
BLACK
6
CONTINUOUS
10
8.6785092913385817
20
-4.9258188976377948
11
8.6778302362204727
21
-4.9422371653543307
0
LINE
8
BLACK
6
CONTINUOUS
10
8.6778302362204727
20
-4.9422371653543307
11
8.6757976377952755
21
-4.9585432677165358
0
LINE
8
BLACK
6
CONTINUOUS
10
8.6757976377952755
20
-4.9585432677165358
11
8.6724254724409455
21
-4.9746258267716534
0
LINE
8
BLACK
6
CONTINUOUS
10
8.6724254724409455
20
-4.9746258267716534
11
8.667736692913385
21
-4.9903749606299215
0
LINE
8
BLACK
6
CONTINUOUS
10
8.667736692913385
20
-4.9903749606299215
11
8.661763385826772
21
-5.0056831496062992
0
LINE
8
BLACK
6
CONTINUOUS
10
8.661763385826772
20
-5.0056831496062992
11
8.6545462992125977
21
-5.0204457480314959
0
LINE
8
BLACK
6
CONTINUOUS
10
8.6545462992125977
20
-5.0204457480314959
11
8.6461348031496055
21
-5.0345619291338579
0
LINE
8
BLACK
6
CONTINUOUS
10
8.6461348031496055
20
-5.0345619291338579
11
8.636586299212599
21
-5.0479352755905511
0
LINE
8
BLACK
6
CONTINUOUS
10
8.636586299212599
20
-5.0479352755905511
11
8.6259660629921253
21
-5.0604744488188977
0
LINE
8
BLACK
6
CONTINUOUS
10
8.6259660629921253
20
-5.0604744488188977
11
8.614346614173229
21
-5.0720937795275587
0
LINE
8
BLACK
6
CONTINUOUS
10
8.614346614173229
20
-5.0720937795275587
11
8.6018072834645665
21
-5.0827138582677165
0
LINE
8
BLACK
6
CONTINUOUS
10
8.6018072834645665
20
-5.0827138582677165
11
8.5884338188976379
21
-5.092262165354331
0
LINE
8
BLACK
6
CONTINUOUS
10
8.5884338188976379
20
-5.092262165354331
11
8.5743175196850387
21
-5.1006735039370081
0
LINE
8
BLACK
6
CONTINUOUS
10
8.5743175196850387
20
-5.1006735039370081
11
8.5595548425196846
21
-5.1078903937007869
0
LINE
8
BLACK
6
CONTINUOUS
10
8.5595548425196846
20
-5.1078903937007869
11
8.5442465748031502
21
-5.1138635039370079
0
LINE
8
BLACK
6
CONTINUOUS
10
8.5442465748031502
20
-5.1138635039370079
11
8.5284973622047247
21
-5.1185520866141729
0
LINE
8
BLACK
6
CONTINUOUS
10
8.5284973622047247
20
-5.1185520866141729
11
8.5124147637795282
21
-5.12192405511811
0
LINE
8
BLACK
6
CONTINUOUS
10
8.5124147637795282
20
-5.12192405511811
11
8.4961086220472435
21
-5.1239564173228347
0
LINE
8
BLACK
6
CONTINUOUS
10
8.4961086220472435
20
-5.1239564173228347
11
8.4797063779527555
21
-5.1246346062992121
0
LINE
8
BLACK
6
CONTINUOUS
10
8.4797063779527555
20
-5.1246346062992121
11
8.4796903937007873
21
-5.1246377952755902
0
LINE
8
BLACK
6
CONTINUOUS
10
8.4796903937007873
20
-5.1246377952755902
11
8.4796903543307085
21
-5.1246377952755902
0
LINE
8
BLACK
6
CONTINUOUS
10
8.4796903543307085
20
-5.1246377952755902
11
8.2533124409448817
21
-5.1246377952755902
0
LINE
8
BLACK
6
CONTINUOUS
10
8.2533124409448817
20
-5.1246377952755902
11
8.2368940551181105
21
-5.1239588582677165
0
LINE
8
BLACK
6
CONTINUOUS
10
8.2368940551181105
20
-5.1239588582677165
11
8.2205877559055125
21
-5.1219263779527555
0
LINE
8
BLACK
6
CONTINUOUS
10
8.2205877559055125
20
-5.1219263779527555
11
8.204505039370078
21
-5.1185542913385822
0
LINE
8
BLACK
6
CONTINUOUS
10
8.204505039370078
20
-5.1185542913385822
11
8.188755708661418
21
-5.113865590551181
0
LINE
8
BLACK
6
CONTINUOUS
10
8.188755708661418
20
-5.113865590551181
11
8.1734473622047243
21
-5.1078923622047245
0
LINE
8
BLACK
6
CONTINUOUS
10
8.1734473622047243
20
-5.1078923622047245
11
8.1586845669291339
21
-5.1006753543307086
0
LINE
8
BLACK
6
CONTINUOUS
10
8.1586845669291339
20
-5.1006753543307086
11
8.1445681496062985
21
-5.0922638976377952
0
LINE
8
BLACK
6
CONTINUOUS
10
8.1445681496062985
20
-5.0922638976377952
11
8.1311945669291337
21
-5.0827154724409445
0
LINE
8
BLACK
6
CONTINUOUS
10
8.1311945669291337
20
-5.0827154724409445
11
8.1186551968503942
21
-5.0720952362204725
0
LINE
8
BLACK
6
CONTINUOUS
10
8.1186551968503942
20
-5.0720952362204725
11
8.1070356692913386
21
-5.0604757874015744
0
LINE
8
BLACK
6
CONTINUOUS
10
8.1070356692913386
20
-5.0604757874015744
11
8.0964153543307091
21
-5.0479364566929137
0
LINE
8
BLACK
6
CONTINUOUS
10
8.0964153543307091
20
-5.0479364566929137
11
8.0868668110236221
21
-5.0345629527559055
0
LINE
8
BLACK
6
CONTINUOUS
10
8.0868668110236221
20
-5.0345629527559055
11
8.0784552362204725
21
-5.0204466141732285
0
LINE
8
BLACK
6
CONTINUOUS
10
8.0784552362204725
20
-5.0204466141732285
11
8.0712381496062982
21
-5.0056838976377955
0
LINE
8
BLACK
6
CONTINUOUS
10
8.0712381496062982
20
-5.0056838976377955
11
8.0652647637795276
21
-4.9903755905511806
0
LINE
8
BLACK
6
CONTINUOUS
10
8.0652647637795276
20
-4.9903755905511806
11
8.0605759842519689
21
-4.9746262598425197
0
LINE
8
BLACK
6
CONTINUOUS
10
8.0605759842519689
20
-4.9746262598425197
11
8.0572037795275584
21
-4.9585435433070861
0
LINE
8
BLACK
6
CONTINUOUS
10
8.0572037795275584
20
-4.9585435433070861
11
8.0551711811023612
21
-4.9422373228346457
0
LINE
8
BLACK
6
CONTINUOUS
10
8.0551711811023612
20
-4.9422373228346457
11
8.0544921259842521
21
-4.9258188976377948
0
LINE
8
BLACK
6
CONTINUOUS
10
8.0544921259842521
20
-4.9258188976377948
11
8.0544935433070872
21
-4.9258188976377948
0
LINE
8
BLACK
6
CONTINUOUS
10
8.0544935433070872
20
-4.9258188976377948
11
8.0544935433070872
21
-4.6207007874015744
0
LINE
8
BLACK
6
CONTINUOUS
10
8.0544935433070872
20
-4.6207007874015744
11
8.0544921259842521
21
-4.6207007874015744
0
LINE
8
BLACK
6
CONTINUOUS
10
8.0544921259842521
20
-4.6207007874015744
11
8.0544921259842521
21
-4.615668976377953
0
LINE
8
BLACK
6
CONTINUOUS
10
8.0544921259842521
20
-4.615668976377953
11
8.053178582677166
21
-4.6056914173228343
0
LINE
8
BLACK
6
CONTINUOUS
10
8.053178582677166
20
-4.6056914173228343
11
8.0505739370078739
21
-4.5959706692913382
0
LINE
8
BLACK
6
CONTINUOUS
10
8.0505739370078739
20
-4.5959706692913382
11
8.0467227952755902
21
-4.5866730708661416
0
LINE
8
BLACK
6
CONTINUOUS
10
8.0467227952755902
20
-4.5866730708661416
11
8.0416910236220467
21
-4.5779576771653545
0
LINE
8
BLACK
6
CONTINUOUS
10
8.0416910236220467
20
-4.5779576771653545
11
8.0355647244094488
21
-4.5699735826771652
0
LINE
8
BLACK
6
CONTINUOUS
10
8.0355647244094488
20
-4.5699735826771652
11
8.0284487007874006
21
-4.5628574409448817
0
LINE
8
BLACK
6
CONTINUOUS
10
8.0284487007874006
20
-4.5628574409448817
11
8.0204647637795272
21
-4.5567310236220475
0
LINE
8
BLACK
6
CONTINUOUS
10
8.0204647637795272
20
-4.5567310236220475
11
8.0117494488188967
21
-4.551699094488189
0
LINE
8
BLACK
6
CONTINUOUS
10
8.0117494488188967
20
-4.551699094488189
11
8.0024518897637797
21
-4.5478477559055115
0
LINE
8
BLACK
6
CONTINUOUS
10
8.0024518897637797
20
-4.5478477559055115
11
7.9927312204724403
21
-4.5452429527559053
0
LINE
8
BLACK
6
CONTINUOUS
10
7.9927312204724403
20
-4.5452429527559053
11
7.9827536614173225
21
-4.5439292125984254
0
LINE
8
BLACK
6
CONTINUOUS
10
7.9827536614173225
20
-4.5439292125984254
11
7.9777218503937002
21
-4.5439291338582679
0
LINE
8
BLACK
6
CONTINUOUS
10
7.9777218503937002
20
-4.5439291338582679
11
7.9743149606299211
21
-4.5439291338582679
0
LINE
8
BLACK
6
CONTINUOUS
10
7.9743149606299211
20
-4.5439291338582679
11
7.9743149212598423
21
-4.5439290944881892
0
LINE
8
BLACK
6
CONTINUOUS
10
7.9743149212598423
20
-4.5439290944881892
11
7.9743149212598423
21
-4.5439291338582679
0
LINE
8
BLACK
6
CONTINUOUS
10
7.9743149212598423
20
-4.5439291338582679
11
7.9232972834645672
21
-4.5432685826771655
0
LINE
8
BLACK
6
CONTINUOUS
10
7.9232972834645672
20
-4.5432685826771655
11
7.8723138188976378
21
-4.5412873228346458
0
LINE
8
BLACK
6
CONTINUOUS
10
7.8723138188976378
20
-4.5412873228346458
11
7.8213987795275592
21
-4.5379867322834642
0
LINE
8
BLACK
6
CONTINUOUS
10
7.8213987795275592
20
-4.5379867322834642
11
7.770586220472441
21
-4.5333690157480317
0
LINE
8
BLACK
6
CONTINUOUS
10
7.770586220472441
20
-4.5333690157480317
11
7.7199102755905509
21
-4.5274372047244089
0
LINE
8
BLACK
6
CONTINUOUS
10
7.7199102755905509
20
-4.5274372047244089
11
7.6694049212598427
21
-4.5201953937007877
0
LINE
8
BLACK
6
CONTINUOUS
10
7.6694049212598427
20
-4.5201953937007877
11
7.6191039763779527
21
-4.511648307086614
0
LINE
8
BLACK
6
CONTINUOUS
10
7.6191039763779527
20
-4.511648307086614
11
7.5690411811023619
21
-4.5018017716535432
0
LINE
8
BLACK
6
CONTINUOUS
10
7.5690411811023619
20
-4.5018017716535432
11
7.5192501181102358
21
-4.4906623622047244
0
LINE
8
BLACK
6
CONTINUOUS
10
7.5192501181102358
20
-4.4906623622047244
11
7.4697641338582672
21
-4.4782375590551178
0
LINE
8
BLACK
6
CONTINUOUS
10
7.4697641338582672
20
-4.4782375590551178
11
7.4206164566929136
21
-4.4645356299212597
0
LINE
8
BLACK
6
CONTINUOUS
10
7.4206164566929136
20
-4.4645356299212597
11
7.3718399999999997
21
-4.4495658267716536
0
LINE
8
BLACK
6
CONTINUOUS
10
7.3718399999999997
20
-4.4495658267716536
11
7.3234674803149602
21
-4.4333381889763777
0
LINE
8
BLACK
6
CONTINUOUS
10
7.3234674803149602
20
-4.4333381889763777
11
7.2755313385826774
21
-4.4158635433070863
0
LINE
8
BLACK
6
CONTINUOUS
10
7.2755313385826774
20
-4.4158635433070863
11
7.2755312992125987
21
-4.4158635433070863
0
LINE
8
BLACK
6
CONTINUOUS
10
7.2755312992125987
20
-4.4158635433070863
11
5.8824916535433074
21
-3.887514842519685
0
LINE
8
BLACK
6
CONTINUOUS
10
5.8824916535433074
20
-3.887514842519685
11
5.8824916535433074
21
-3.8875148818897638
0
LINE
8
BLACK
6
CONTINUOUS
10
5.8824916535433074
20
-3.8875148818897638
11
5.8806332283464569
21
-3.8883512204724409
0
LINE
8
BLACK
6
CONTINUOUS
10
5.8806332283464569
20
-3.8883512204724409
11
5.8786055905511807
21
-3.8881463385826769
0
LINE
8
BLACK
6
CONTINUOUS
10
5.8786055905511807
20
-3.8881463385826769
11
5.8786057480314957
21
-3.8881459448818898
0
LINE
8
BLACK
6
CONTINUOUS
10
5.8786057480314957
20
-3.8881459448818898
11
5.8548221259842519
21
-3.879125905511811
0
LINE
8
BLACK
6
CONTINUOUS
10
5.8548221259842519
20
-3.879125905511811
11
5.8068040551181097
21
-3.8623224803149605
0
LINE
8
BLACK
6
CONTINUOUS
10
5.8068040551181097
20
-3.8623224803149605
11
5.7583670078740159
21
-3.8467679133858268
0
LINE
8
BLACK
6
CONTINUOUS
10
5.7583670078740159
20
-3.8467679133858268
11
5.7095435039370077
21
-3.8324726771653541
0
LINE
8
BLACK
6
CONTINUOUS
10
5.7095435039370077
20
-3.8324726771653541
11
5.660366220472441
21
-3.8194462992125984
0
LINE
8
BLACK
6
CONTINUOUS
10
5.660366220472441
20
-3.8194462992125984
11
5.6108681889763776
21
-3.8076975590551179
0
LINE
8
BLACK
6
CONTINUOUS
10
5.6108681889763776
20
-3.8076975590551179
11
5.5610825590551176
21
-3.7972342913385826
0
LINE
8
BLACK
6
CONTINUOUS
10
5.5610825590551176
20
-3.7972342913385826
11
5.5110426771653538
21
-3.7880635433070866
0
LINE
8
BLACK
6
CONTINUOUS
10
5.5110426771653538
20
-3.7880635433070866
11
5.4607821653543303
21
-3.7801914566929131
0
LINE
8
BLACK
6
CONTINUOUS
10
5.4607821653543303
20
-3.7801914566929131
11
5.4103346850393699
21
-3.7736233464566928
0
LINE
8
BLACK
6
CONTINUOUS
10
5.4103346850393699
20
-3.7736233464566928
11
5.3597340551181105
21
-3.7683635433070863
0
LINE
8
BLACK
6
CONTINUOUS
10
5.3597340551181105
20
-3.7683635433070863
11
5.3090141732283467
21
-3.7644155905511809
0
LINE
8
BLACK
6
CONTINUOUS
10
5.3090141732283467
20
-3.7644155905511809
11
5.2582091338582675
21
-3.7617821653543304
0
LINE
8
BLACK
6
CONTINUOUS
10
5.2582091338582675
20
-3.7617821653543304
11
5.2073529133858267
21
-3.7604650393700787
0
LINE
8
BLACK
6
CONTINUOUS
10
5.2073529133858267
20
-3.7604650393700787
11
5.1819162598425192
21
-3.7604645669291337
0
LINE
8
BLACK
6
CONTINUOUS
10
5.1819162598425192
20
-3.7604645669291337
11
2.7155185826771655
21
-3.7604645669291337
0
LINE
8
BLACK
6
CONTINUOUS
10
2.7155185826771655
20
-3.7604645669291337
11
2.7155185826771655
21
-3.7604646456692912
0
LINE
8
BLACK
6
CONTINUOUS
10
2.7155185826771655
20
-3.7604646456692912
11
2.7070957874015749
21
-3.7604646062992124
0
LINE
8
BLACK
6
CONTINUOUS
10
2.7070957874015749
20
-3.7604646062992124
11
2.6903142913385825
21
-3.7619327559055118
0
LINE
8
BLACK
6
CONTINUOUS
10
2.6903142913385825
20
-3.7619327559055118
11
2.6737246456692914
21
-3.7648578740157479
0
LINE
8
BLACK
6
CONTINUOUS
10
2.6737246456692914
20
-3.7648578740157479
11
2.6574530314960629
21
-3.7692177952755905
0
LINE
8
BLACK
6
CONTINUOUS
10
2.6574530314960629
20
-3.7692177952755905
11
2.6416233858267715
21
-3.7749792913385827
0
LINE
8
BLACK
6
CONTINUOUS
10
2.6416233858267715
20
-3.7749792913385827
11
2.6263560629921261
21
-3.7820985039370076
0
LINE
8
BLACK
6
CONTINUOUS
10
2.6263560629921261
20
-3.7820985039370076
11
2.6117673622047244
21
-3.7905212598425195
0
LINE
8
BLACK
6
CONTINUOUS
10
2.6117673622047244
20
-3.7905212598425195
11
2.5979682677165354
21
-3.800183464566929
0
LINE
8
BLACK
6
CONTINUOUS
10
2.5979682677165354
20
-3.800183464566929
11
2.5850638188976376
21
-3.8110115748031497
0
LINE
8
BLACK
6
CONTINUOUS
10
2.5850638188976376
20
-3.8110115748031497
11
2.5731522047244093
21
-3.822923188976378
0
LINE
8
BLACK
6
CONTINUOUS
10
2.5731522047244093
20
-3.822923188976378
11
2.5623240551181103
21
-3.8358276771653541
0
LINE
8
BLACK
6
CONTINUOUS
10
2.5623240551181103
20
-3.8358276771653541
11
2.5526618503937009
21
-3.8496267716535431
0
LINE
8
BLACK
6
CONTINUOUS
10
2.5526618503937009
20
-3.8496267716535431
11
2.544239094488189
21
-3.8642154724409448
0
LINE
8
BLACK
6
CONTINUOUS
10
2.544239094488189
20
-3.8642154724409448
11
2.5371198425196848
21
-3.8794827559055118
0
LINE
8
BLACK
6
CONTINUOUS
10
2.5371198425196848
20
-3.8794827559055118
11
2.5313583464566927
21
-3.8953124409448816
0
LINE
8
BLACK
6
CONTINUOUS
10
2.5313583464566927
20
-3.8953124409448816
11
2.5269984645669292
21
-3.9115840157480313
0
LINE
8
BLACK
6
CONTINUOUS
10
2.5269984645669292
20
-3.9115840157480313
11
2.5240733070866139
21
-3.9281736614173228
0
LINE
8
BLACK
6
CONTINUOUS
10
2.5240733070866139
20
-3.9281736614173228
11
2.522605157480315
21
-3.9449551574803148
0
LINE
8
BLACK
6
CONTINUOUS
10
2.522605157480315
20
-3.9449551574803148
11
2.5226051968503937
21
-3.9533779527559054
0
LINE
8
BLACK
6
CONTINUOUS
10
2.5226051968503937
20
-3.9533779527559054
11
2.5226051968503937
21
-9.2683385826771651
0
LINE
8
BLACK
6
CONTINUOUS
10
2.5226051968503937
20
-9.2683385826771651
11
2.5226062992125984
21
-9.2683385826771651
0
LINE
8
BLACK
6
CONTINUOUS
10
2.5226062992125984
20
-9.2683385826771651
11
2.5226062992125984
21
-9.276761338582677
0
LINE
8
BLACK
6
CONTINUOUS
10
2.5226062992125984
20
-9.276761338582677
11
2.5240744881889765
21
-9.2935427165354323
0
LINE
8
BLACK
6
CONTINUOUS
10
2.5240744881889765
20
-9.2935427165354323
11
2.5269996456692914
21
-9.3101323228346455
0
LINE
8
BLACK
6
CONTINUOUS
10
2.5269996456692914
20
-9.3101323228346455
11
2.531359566929134
21
-9.3264038188976368
0
LINE
8
BLACK
6
CONTINUOUS
10
2.531359566929134
20
-9.3264038188976368
11
2.5371210629921261
21
-9.3422334251968504
0
LINE
8
BLACK
6
CONTINUOUS
10
2.5371210629921261
20
-9.3422334251968504
11
2.5442402362204724
21
-9.35750062992126
0
LINE
8
BLACK
6
CONTINUOUS
10
2.5442402362204724
20
-9.35750062992126
11
2.5526629921259842
21
-9.3720892913385825
0
LINE
8
BLACK
6
CONTINUOUS
10
2.5526629921259842
20
-9.3720892913385825
11
2.5623251181102362
21
-9.3858883464566922
0
LINE
8
BLACK
6
CONTINUOUS
10
2.5623251181102362
20
-9.3858883464566922
11
2.5731531889763777
21
-9.3987927559055109
0
LINE
8
BLACK
6
CONTINUOUS
10
2.5731531889763777
20
-9.3987927559055109
11
2.5850647244094489
21
-9.4107043700787401
0
LINE
8
BLACK
6
CONTINUOUS
10
2.5850647244094489
20
-9.4107043700787401
11
2.5979690944881888
21
-9.4215324803149603
0
LINE
8
BLACK
6
CONTINUOUS
10
2.5979690944881888
20
-9.4215324803149603
11
2.6117680708661415
21
-9.4311947244094494
0
LINE
8
BLACK
6
CONTINUOUS
10
2.6117680708661415
20
-9.4311947244094494
11
2.6263566535433069
21
-9.43961751968504
0
LINE
8
BLACK
6
CONTINUOUS
10
2.6263566535433069
20
-9.43961751968504
11
2.6416238582677165
21
-9.4467367716535424
0
LINE
8
BLACK
6
CONTINUOUS
10
2.6416238582677165
20
-9.4467367716535424
11
2.6574534251968505
21
-9.452498346456693
0
LINE
8
BLACK
6
CONTINUOUS
10
2.6574534251968505
20
-9.452498346456693
11
2.6737248818897639
21
-9.4568583858267719
0
LINE
8
BLACK
6
CONTINUOUS
10
2.6737248818897639
20
-9.4568583858267719
11
2.6903144488188975
21
-9.4597836614173225
0
LINE
8
BLACK
6
CONTINUOUS
10
2.6903144488188975
20
-9.4597836614173225
11
2.7070958661417324
21
-9.4612519291338586
0
LINE
8
BLACK
6
CONTINUOUS
10
2.7070958661417324
20
-9.4612519291338586
11
2.7155186220472438
21
-9.4612519685039373
0
LINE
8
BLACK
6
CONTINUOUS
10
2.7155186220472438
20
-9.4612519685039373
11
14.004888661417322
21
-9.4612519685039373
0
LINE
8
BLACK
6
CONTINUOUS
10
14.004888661417322
20
-9.4612519685039373
11
14.0048887007874008
21
-9.4612519685039373
0
LINE
8
BLACK
6
CONTINUOUS
10
14.0048887007874008
20
-9.4612519685039373
11
14.0048887007874008
21
-9.4612508661417323
0
LINE
8
BLACK
6
CONTINUOUS
10
14.0048887007874008
20
-9.4612508661417323
11
14.0133114566929127
21
-9.461250905511811
0
LINE
8
BLACK
6
CONTINUOUS
10
14.0133114566929127
20
-9.461250905511811
11
14.0300928740157484
21
-9.45978279527559
0
LINE
8
BLACK
6
CONTINUOUS
10
14.0300928740157484
20
-9.45978279527559
11
14.0466824803149599
21
-9.4568577165354331
0
LINE
8
BLACK
6
CONTINUOUS
10
14.0466824803149599
20
-9.4568577165354331
11
14.0629540551181105
21
-9.4524978346456692
0
LINE
8
BLACK
6
CONTINUOUS
10
14.0629540551181105
20
-9.4524978346456692
11
14.0787836614173223
21
-9.4467363779527549
0
LINE
8
BLACK
6
CONTINUOUS
10
14.0787836614173223
20
-9.4467363779527549
11
14.0940509448818894
21
-9.4396172440944888
0
LINE
8
BLACK
6
CONTINUOUS
10
14.0940509448818894
20
-9.4396172440944888
11
14.1086396062992119
21
-9.4311945275590556
0
LINE
8
BLACK
6
CONTINUOUS
10
14.1086396062992119
20
-9.4311945275590556
11
14.1224387007874004
21
-9.421532362204724
0
LINE
8
BLACK
6
CONTINUOUS
10
14.1224387007874004
20
-9.421532362204724
11
14.1353431496062996
21
-9.4107043307086613
0
LINE
8
BLACK
6
CONTINUOUS
10
14.1353431496062996
20
-9.4107043307086613
11
14.147254763779527
21
-9.3987927559055109
0
LINE
8
BLACK
6
CONTINUOUS
10
14.147254763779527
20
-9.3987927559055109
11
14.1580829133858259
21
-9.385888385826771
0
LINE
8
BLACK
6
CONTINUOUS
10
14.1580829133858259
20
-9.385888385826771
11
14.1677451181102363
21
-9.37208937007874
0
LINE
8
BLACK
6
CONTINUOUS
10
14.1677451181102363
20
-9.37208937007874
11
14.1761679133858269
21
-9.3575007086614175
0
LINE
8
BLACK
6
CONTINUOUS
10
14.1761679133858269
20
-9.3575007086614175
11
14.1832871653543311
21
-9.3422335039370079
0
LINE
8
BLACK
6
CONTINUOUS
10
14.1832871653543311
20
-9.3422335039370079
11
14.1890487007874011
21
-9.3264038976377943
0
LINE
8
BLACK
6
CONTINUOUS
10
14.1890487007874011
20
-9.3264038976377943
11
14.1934086614173225
21
-9.3101323622047243
0
LINE
8
BLACK
6
CONTINUOUS
10
14.1934086614173225
20
-9.3101323622047243
11
14.1963338582677157
21
-9.293542755905511
0
LINE
8
BLACK
6
CONTINUOUS
10
14.1963338582677157
20
-9.293542755905511
11
14.1978020472440942
21
-9.276761338582677
0
LINE
8
BLACK
6
CONTINUOUS
10
14.1978020472440942
20
-9.276761338582677
11
14.1978020472440942
21
-9.2683385826771651
0
LINE
8
BLACK
6
CONTINUOUS
10
14.1978020472440942
20
-9.2683385826771651
11
14.1978020472440942
21
-3.9533779527559054
0
LINE
8
BLACK
6
CONTINUOUS
10
14.1978020472440942
20
-3.9533779527559054
11
14.1978031496062993
21
-3.9533667322834645
0
LINE
8
BLACK
6
CONTINUOUS
10
14.1978031496062993
20
-3.9533667322834645
11
14.1978031496062993
21
-3.9449551574803148
0
LINE
8
BLACK
6
CONTINUOUS
10
14.1978031496062993
20
-3.9449551574803148
11
14.1963349606299207
21
-3.9281736220472441
0
LINE
8
BLACK
6
CONTINUOUS
10
14.1963349606299207
20
-3.9281736220472441
11
14.1934097244094488
21
-3.9115839370078738
0
LINE
8
BLACK
6
CONTINUOUS
10
14.1934097244094488
20
-3.9115839370078738
11
14.1890497244094487
21
-3.8953123228346458
0
LINE
8
BLACK
6
CONTINUOUS
10
14.1890497244094487
20
-3.8953123228346458
11
14.1832881889763769
21
-3.8794825984251968
0
LINE
8
BLACK
6
CONTINUOUS
10
14.1832881889763769
20
-3.8794825984251968
11
14.1761688976377958
21
-3.8642153149606298
0
LINE
8
BLACK
6
CONTINUOUS
10
14.1761688976377958
20
-3.8642153149606298
11
14.1677460629921264
21
-3.8496265748031497
0
LINE
8
BLACK
6
CONTINUOUS
10
14.1677460629921264
20
-3.8496265748031497
11
14.1580837795275585
21
-3.8358274803149603
0
LINE
8
BLACK
6
CONTINUOUS
10
14.1580837795275585
20
-3.8358274803149603
11
14.1472555905511808
21
-3.8229230314960629
0
LINE
8
BLACK
6
CONTINUOUS
10
14.1472555905511808
20
-3.8229230314960629
11
14.1353438976377941
21
-3.8110114173228347
0
LINE
8
BLACK
6
CONTINUOUS
10
14.1353438976377941
20
-3.8110114173228347
11
14.1224393700787392
21
-3.800183307086614
0
LINE
8
BLACK
6
CONTINUOUS
10
14.1224393700787392
20
-3.800183307086614
11
14.1086401968503932
21
-3.7905211023622045
0
LINE
8
BLACK
6
CONTINUOUS
10
14.1086401968503932
20
-3.7905211023622045
11
14.0940514566929131
21
-3.7820983464566926
0
LINE
8
BLACK
6
CONTINUOUS
10
14.0940514566929131
20
-3.7820983464566926
11
14.0787840944881886
21
-3.7749791338582677
0
LINE
8
BLACK
6
CONTINUOUS
10
14.0787840944881886
20
-3.7749791338582677
11
14.0629543700787405
21
-3.7692176377952755
0
LINE
8
BLACK
6
CONTINUOUS
10
14.0629543700787405
20
-3.7692176377952755
11
14.0466827165354324
21
-3.7648577559055116
0
LINE
8
BLACK
6
CONTINUOUS
10
14.0466827165354324
20
-3.7648577559055116
11
14.0300930314960635
21
-3.7619326377952755
0
LINE
8
BLACK
6
CONTINUOUS
10
14.0300930314960635
20
-3.7619326377952755
11
14.0133114960629914
21
-3.7604645275590549
0
LINE
8
BLACK
6
CONTINUOUS
10
14.0133114960629914
20
-3.7604645275590549
11
14.0048887007874008
21
-3.7604645669291337
0
LINE
8
BLACK
6
CONTINUOUS
10
14.0048887007874008
20
-3.7604645669291337
11
14.0029201574803146
21
-3.7599371259842518
0
LINE
8
BLACK
6
CONTINUOUS
10
14.0029201574803146
20
-3.7599371259842518
11
14.0014791338582683
21
-3.7584960629921258
0
LINE
8
BLACK
6
CONTINUOUS
10
14.0014791338582683
20
-3.7584960629921258
11
11.5510865748031488
21
-3.7584960629921258
  0
ENDSEC
  0
EOF
