M48
; DRILL file {KiCad 8.0.3} date 2024-08-23T16:44:44+0200
; FORMAT={-:-/ absolute / inch / decimal}
; #@! TF.CreationDate,2024-08-23T16:44:44+02:00
; #@! TF.GenerationSoftware,Kicad,Pcbnew,8.0.3
; #@! TF.FileFunction,NonPlated,1,2,NPTH
FMAT,2
INCH
; #@! TA.AperFunction,NonPlated,NPTH,ComponentDrill
T1C0.0256
; #@! TA.AperFunction,NonPlated,NPTH,ComponentDrill
T2C0.0709
; #@! TA.AperFunction,NonPlated,NPTH,ComponentDrill
T3C0.1181
; #@! TA.AperFunction,NonPlated,NPTH,ComponentDrill
T4C0.1575
%
G90
G05
T1
X5.7261Y-2.2607
X5.9537Y-2.2607
T2
X0.2083Y-5.0587
X0.2083Y-2.6965
X0.2083Y-3.4839
X0.2083Y-4.2713
X0.212Y-1.8989
X0.6083Y-5.0587
X0.6083Y-2.6965
X0.6083Y-3.4839
X0.6083Y-4.2713
X0.612Y-1.8989
X1.0002Y-5.059
X1.0002Y-2.6968
X1.0002Y-3.4842
X1.0002Y-4.2716
X1.004Y-1.8992
X1.4002Y-5.059
X1.4002Y-2.6968
X1.4002Y-3.4842
X1.4002Y-4.2716
X1.404Y-1.8992
X1.79Y-4.6311
X1.8711Y-3.8369
X1.9397Y-3.0525
X2.0111Y-2.264
X2.1236Y-5.4684
X2.1885Y-4.666
X2.2696Y-3.8717
X2.3382Y-3.0873
X2.4096Y-2.2988
X2.5236Y-5.4684
X2.6091Y-4.3781
X2.7458Y-3.6026
X2.8825Y-2.8272
X3.003Y-4.4475
X3.0232Y-2.0488
X3.0243Y-5.4547
X3.1397Y-3.6721
X3.2764Y-2.8967
X3.3156Y-4.6786
X3.4172Y-2.1183
X3.4182Y-5.5242
X3.4524Y-3.9031
X3.5891Y-3.1277
X3.7096Y-4.748
X3.729Y-2.3549
X3.7907Y-5.6248
X3.8463Y-3.9726
X3.983Y-3.1971
X4.0386Y-4.886
X4.1229Y-2.4244
X4.1665Y-5.7616
X4.1754Y-4.1106
X4.3128Y-3.3312
X4.4326Y-4.9555
X4.4563Y-2.5547
X4.5467Y-5.9814
X4.5693Y-4.18
X4.7067Y-3.4007
X4.8502Y-2.6242
X4.8531Y-6.2385
X4.913Y-4.6236
X5.1477Y-6.4914
X5.3069Y-4.6931
X5.4541Y-6.7485
X6.2243Y-6.7485
X6.3715Y-4.6931
X6.5307Y-6.4914
X6.7654Y-4.6236
X6.8253Y-6.2385
X6.8282Y-2.6242
X6.9717Y-3.4007
X7.1091Y-4.18
X7.1317Y-5.9814
X7.2221Y-2.5547
X7.2459Y-4.9555
X7.3656Y-3.3312
X7.503Y-4.1106
X7.5119Y-5.7616
X7.5555Y-2.4244
X7.6398Y-4.886
X7.6954Y-3.1971
X7.8321Y-3.9726
X7.8877Y-5.6248
X7.9495Y-2.3549
X7.9688Y-4.748
X8.0893Y-3.1277
X8.226Y-3.9031
X8.2602Y-5.5242
X8.2612Y-2.1183
X8.3628Y-4.6786
X8.402Y-2.8967
X8.5387Y-3.6721
X8.6541Y-5.4547
X8.6552Y-2.0488
X8.6754Y-4.4475
X8.7959Y-2.8272
X8.9326Y-3.6026
X9.0694Y-4.3781
X9.1549Y-5.4684
X9.2688Y-2.2988
X9.3402Y-3.0873
X9.4089Y-3.8717
X9.4899Y-4.666
X9.5549Y-5.4684
X9.6673Y-2.264
X9.7387Y-3.0525
X9.8073Y-3.8369
X9.8884Y-4.6311
X10.2744Y-1.8992
X10.2782Y-4.2716
X10.2782Y-2.6968
X10.2782Y-3.4842
X10.2782Y-5.059
X10.6744Y-1.8992
X10.6782Y-4.2716
X10.6782Y-2.6968
X10.6782Y-3.4842
X10.6782Y-5.059
X11.0664Y-1.8989
X11.0702Y-4.2713
X11.0702Y-2.6965
X11.0702Y-3.4839
X11.0702Y-5.0587
X11.4664Y-1.8989
X11.4702Y-4.2713
X11.4702Y-2.6965
X11.4702Y-3.4839
X11.4702Y-5.0587
T3
X0.2583Y-4.9587
X0.2583Y-2.5965
X0.2583Y-3.3839
X0.2583Y-4.1713
X0.262Y-1.7989
X0.5083Y-4.8587
X0.5083Y-2.4965
X0.5083Y-3.2839
X0.5083Y-4.0713
X0.512Y-1.6989
X1.0502Y-4.959
X1.0502Y-2.5968
X1.0502Y-3.3842
X1.0502Y-4.1716
X1.054Y-1.7992
X1.3002Y-4.859
X1.3002Y-2.4968
X1.3002Y-3.2842
X1.3002Y-4.0716
X1.304Y-1.6992
X1.8486Y-4.5359
X1.9296Y-3.7416
X1.9982Y-2.9572
X2.0697Y-2.1687
X2.1063Y-4.4581
X2.1736Y-5.3684
X2.1874Y-3.6638
X2.256Y-2.8794
X2.3274Y-2.0909
X2.4236Y-5.2684
X2.6757Y-4.2883
X2.8124Y-3.5128
X2.9392Y-4.2332
X2.9491Y-2.7374
X3.076Y-3.4578
X3.0899Y-1.959
X3.0909Y-5.3649
X3.2127Y-2.6823
X3.3534Y-1.904
X3.3544Y-5.3099
X3.3822Y-4.5888
X3.519Y-3.8133
X3.6458Y-4.5337
X3.6557Y-3.0379
X3.7825Y-3.7583
X3.7956Y-2.2651
X3.8719Y-5.5479
X3.9193Y-2.9828
X4.0591Y-2.2101
X4.1052Y-4.7962
X4.141Y-5.5395
X4.242Y-4.0208
X4.3688Y-4.7411
X4.3794Y-3.2414
X4.5055Y-3.9657
X4.5229Y-2.4649
X4.643Y-3.1864
X4.6493Y-5.937
X4.7865Y-2.4099
X4.9051Y-6.021
X4.9796Y-4.5338
X5.2432Y-4.4788
X5.2503Y-6.4469
X5.5061Y-6.531
X6.1983Y-6.6398
X6.3255Y-6.4025
X6.4033Y-4.5859
X6.6322Y-4.444
X6.7993Y-6.1298
X6.86Y-2.517
X6.9265Y-5.8925
X7.0036Y-3.2935
X7.0889Y-2.3751
X7.141Y-4.0729
X7.2324Y-3.1517
X7.2777Y-4.8483
X7.3698Y-3.931
X7.5066Y-4.7064
X7.5246Y-5.6505
X7.5874Y-2.3172
X7.7254Y-5.4711
X7.7273Y-3.09
X7.8162Y-2.1753
X7.864Y-3.8654
X7.9561Y-2.9481
X8.0007Y-4.6409
X8.0928Y-3.7235
X8.2296Y-4.499
X8.2921Y-5.417
X8.2931Y-2.0111
X8.4338Y-2.7895
X8.5209Y-5.2751
X8.5219Y-1.8692
X8.5706Y-3.5649
X8.6627Y-2.6476
X8.7073Y-4.3404
X8.7994Y-3.423
X8.9361Y-4.1985
X9.2049Y-5.3684
X9.3099Y-2.1948
X9.3813Y-2.9833
X9.4499Y-3.7678
X9.4549Y-5.2684
X9.531Y-4.562
X9.5502Y-2.0734
X9.6217Y-2.8619
X9.6903Y-3.6463
X9.7713Y-4.4406
X10.3244Y-1.7992
X10.3282Y-4.1716
X10.3282Y-2.5968
X10.3282Y-3.3842
X10.3282Y-4.959
X10.5744Y-1.6992
X10.5782Y-4.0716
X10.5782Y-2.4968
X10.5782Y-3.2842
X10.5782Y-4.859
X11.1164Y-1.7989
X11.1202Y-4.1713
X11.1202Y-2.5965
X11.1202Y-3.3839
X11.1202Y-4.9587
X11.3664Y-1.6989
X11.3702Y-4.0713
X11.3702Y-2.4965
X11.3702Y-3.2839
X11.3702Y-4.8587
T4
X0.4083Y-5.0587
X0.4083Y-2.6965
X0.4083Y-3.4839
X0.4083Y-4.2713
X0.412Y-1.8989
X1.2002Y-5.059
X1.2002Y-2.6968
X1.2002Y-3.4842
X1.2002Y-4.2716
X1.204Y-1.8992
X1.9893Y-4.6486
X2.0703Y-3.8543
X2.1389Y-3.0699
X2.2104Y-2.2814
X2.3236Y-5.4684
X2.806Y-4.4128
X2.9427Y-3.6374
X3.0795Y-2.8619
X3.2202Y-2.0835
X3.2212Y-5.4894
X3.5126Y-4.7133
X3.6493Y-3.9379
X3.7861Y-3.1624
X3.9259Y-2.3897
X3.9786Y-5.6932
X4.2356Y-4.9207
X4.3723Y-4.1453
X4.5097Y-3.366
X4.6533Y-2.5895
X4.6999Y-6.11
X5.11Y-4.6584
X5.3009Y-6.62
X6.3775Y-6.62
X6.5684Y-4.6584
X6.9785Y-6.11
X7.0251Y-2.5895
X7.1687Y-3.366
X7.3061Y-4.1453
X7.4428Y-4.9207
X7.6998Y-5.6932
X7.7525Y-2.3897
X7.8923Y-3.1624
X8.0291Y-3.9379
X8.1658Y-4.7133
X8.4572Y-5.4894
X8.4582Y-2.0835
X8.5989Y-2.8619
X8.7357Y-3.6374
X8.8724Y-4.4128
X9.3549Y-5.4684
X9.468Y-2.2814
X9.5395Y-3.0699
X9.6081Y-3.8543
X9.6891Y-4.6486
X10.4744Y-1.8992
X10.4782Y-4.2716
X10.4782Y-2.6968
X10.4782Y-3.4842
X10.4782Y-5.059
X11.2664Y-1.8989
X11.2702Y-4.2713
X11.2702Y-2.6965
X11.2702Y-3.4839
X11.2702Y-5.0587
M30
