M48
; DRILL file {KiCad 8.0.3} date 2024-08-23T16:44:44+0200
; FORMAT={-:-/ absolute / inch / decimal}
; #@! TF.CreationDate,2024-08-23T16:44:44+02:00
; #@! TF.GenerationSoftware,Kicad,Pcbnew,8.0.3
; #@! TF.FileFunction,Plated,1,2,PTH
FMAT,2
INCH
; #@! TA.AperFunction,Plated,PTH,ComponentDrill
T1C0.0079
; #@! TA.AperFunction,Plated,PTH,ViaDrill
T2C0.0157
; #@! TA.AperFunction,Plated,PTH,ComponentDrill
T3C0.0236
; #@! TA.AperFunction,Plated,PTH,ComponentDrill
T4C0.0276
; #@! TA.AperFunction,Plated,PTH,ComponentDrill
T5C0.0360
; #@! TA.AperFunction,Plated,PTH,ComponentDrill
T6C0.0394
; #@! TA.AperFunction,Plated,PTH,ComponentDrill
T7C0.1260
%
G90
G05
T1
X6.3321Y-2.2801
X6.3321Y-2.3235
X6.3321Y-2.3668
X6.3754Y-2.2801
X6.3754Y-2.3235
X6.3754Y-2.3668
X6.4187Y-2.2801
X6.4187Y-2.3235
X6.4187Y-2.3668
T2
X0.0935Y-1.5886
X0.0935Y-1.6886
X0.0935Y-1.8886
X0.1935Y-1.5886
X0.1935Y-1.9886
X0.1935Y-2.0886
X0.1935Y-2.1886
X0.1935Y-2.2886
X0.1935Y-2.3886
X0.1935Y-2.4886
X0.1935Y-2.7886
X0.1935Y-2.8886
X0.1935Y-3.1886
X0.1935Y-3.2886
X0.1935Y-3.6886
X0.1935Y-3.7886
X0.1935Y-3.8886
X0.1935Y-3.9886
X0.1935Y-4.0886
X0.1935Y-4.4886
X0.1935Y-4.5886
X0.1935Y-4.6886
X0.1935Y-4.7886
X0.1935Y-5.1886
X0.1935Y-5.2886
X0.1935Y-5.3886
X0.2935Y-1.9886
X0.2935Y-2.0886
X0.2935Y-2.1886
X0.2935Y-2.2886
X0.2935Y-2.3886
X0.2935Y-2.4886
X0.2935Y-2.6886
X0.2935Y-2.7886
X0.2935Y-2.8886
X0.2935Y-2.9886
X0.2935Y-3.1886
X0.2935Y-3.2886
X0.2935Y-3.4886
X0.2935Y-3.5886
X0.2935Y-3.7886
X0.2935Y-3.8886
X0.2935Y-3.9886
X0.2935Y-4.2886
X0.2935Y-4.3886
X0.2935Y-4.4886
X0.2935Y-4.5886
X0.2935Y-4.6886
X0.2935Y-4.7886
X0.2935Y-5.0886
X0.2935Y-5.2886
X0.2935Y-5.3886
X0.3935Y-1.6886
X0.3935Y-2.0886
X0.3935Y-2.1886
X0.3935Y-2.2886
X0.3935Y-2.3886
X0.3935Y-2.4886
X0.3935Y-2.8886
X0.3935Y-2.9886
X0.3935Y-3.1886
X0.3935Y-3.2886
X0.3935Y-3.7886
X0.3935Y-3.8886
X0.3935Y-3.9886
X0.3935Y-4.0886
X0.3935Y-4.3886
X0.3935Y-4.4886
X0.3935Y-4.5886
X0.3935Y-4.6886
X0.3935Y-4.7886
X0.3935Y-4.8886
X0.3935Y-5.2886
X0.3935Y-5.3886
X0.4935Y-2.0886
X0.4935Y-2.1886
X0.4935Y-2.2886
X0.4935Y-2.3886
X0.4935Y-2.5886
X0.4935Y-2.7886
X0.4935Y-2.8886
X0.4935Y-2.9886
X0.4935Y-3.1886
X0.4935Y-3.3886
X0.4935Y-3.5886
X0.4935Y-3.7886
X0.4935Y-3.8886
X0.4935Y-4.3886
X0.4935Y-4.4886
X0.4935Y-4.5886
X0.4935Y-4.6886
X0.4935Y-5.2886
X0.4935Y-5.3886
X0.5935Y-1.7886
X0.5935Y-1.9886
X0.5935Y-2.0886
X0.5935Y-2.1886
X0.5935Y-2.2886
X0.5935Y-2.3886
X0.5935Y-2.5886
X0.5935Y-2.7886
X0.5935Y-2.8886
X0.5935Y-2.9886
X0.5935Y-3.1886
X0.5935Y-3.3886
X0.5935Y-3.5886
X0.5935Y-3.7886
X0.5935Y-3.8886
X0.5935Y-3.9886
X0.5935Y-4.1886
X0.5935Y-4.3886
X0.5935Y-4.4886
X0.5935Y-4.5886
X0.5935Y-4.6886
X0.5935Y-4.9886
X0.5935Y-5.2886
X0.5935Y-5.3886
X0.6935Y-1.7886
X0.6935Y-1.8886
X0.6935Y-1.9886
X0.6935Y-2.0886
X0.6935Y-2.1886
X0.6935Y-2.2886
X0.6935Y-2.3886
X0.6935Y-2.5886
X0.6935Y-2.6886
X0.6935Y-2.7886
X0.6935Y-2.8886
X0.6935Y-2.9886
X0.6935Y-3.1886
X0.6935Y-3.3886
X0.6935Y-3.4886
X0.6935Y-3.5886
X0.6935Y-3.7886
X0.6935Y-3.8886
X0.6935Y-3.9886
X0.6935Y-4.1886
X0.6935Y-4.2886
X0.6935Y-4.3886
X0.6935Y-4.4886
X0.6935Y-4.5886
X0.6935Y-4.6886
X0.6935Y-4.9886
X0.6935Y-5.0886
X0.6935Y-5.2886
X0.6935Y-5.3886
X0.7935Y-1.6886
X0.7935Y-1.7886
X0.7935Y-1.8886
X0.7935Y-1.9886
X0.7935Y-2.0886
X0.7935Y-2.1886
X0.7935Y-2.2886
X0.7935Y-2.3886
X0.7935Y-2.4886
X0.7935Y-2.5886
X0.7935Y-2.6886
X0.7935Y-2.7886
X0.7935Y-2.8886
X0.7935Y-2.9886
X0.7935Y-3.1886
X0.7935Y-3.2886
X0.7935Y-3.3886
X0.7935Y-3.4886
X0.7935Y-3.5886
X0.7935Y-3.7886
X0.7935Y-3.8886
X0.7935Y-3.9886
X0.7935Y-4.0886
X0.7935Y-4.1886
X0.7935Y-4.2886
X0.7935Y-4.3886
X0.7935Y-4.4886
X0.7935Y-4.5886
X0.7935Y-4.6886
X0.7935Y-4.7886
X0.7935Y-4.8886
X0.7935Y-4.9886
X0.7935Y-5.0886
X0.7935Y-5.2886
X0.8492Y-3.0833
X0.8492Y-3.6739
X0.8492Y-4.4416
X0.8935Y-5.1886
X0.8935Y-5.2886
X0.8984Y-4.4416
X0.899Y-3.0833
X0.899Y-3.6739
X0.9935Y-1.5886
X0.9935Y-1.9886
X0.9935Y-2.0886
X0.9935Y-2.1886
X0.9935Y-2.2886
X0.9935Y-2.3886
X0.9935Y-2.4886
X0.9935Y-2.7886
X0.9935Y-2.8886
X0.9935Y-2.9886
X0.9935Y-3.1886
X0.9935Y-3.2886
X0.9935Y-3.5886
X0.9935Y-3.7886
X0.9935Y-3.8886
X0.9935Y-3.9886
X0.9935Y-4.3886
X0.9935Y-4.4886
X0.9935Y-4.5886
X0.9935Y-4.6886
X0.9935Y-4.7886
X0.9935Y-5.2886
X0.9935Y-5.3886
X1.0935Y-1.5886
X1.0935Y-1.6886
X1.0935Y-1.9886
X1.0935Y-2.0886
X1.0935Y-2.1886
X1.0935Y-2.2886
X1.0935Y-2.3886
X1.0935Y-2.4886
X1.0935Y-2.7886
X1.0935Y-2.8886
X1.0935Y-2.9886
X1.0935Y-3.1886
X1.0935Y-3.2886
X1.0935Y-3.5886
X1.0935Y-3.7886
X1.0935Y-3.8886
X1.0935Y-3.9886
X1.0935Y-4.3886
X1.0935Y-4.4886
X1.0935Y-4.5886
X1.0935Y-4.6886
X1.0935Y-4.7886
X1.0935Y-5.3886
X1.1935Y-1.5886
X1.1935Y-1.6886
X1.1935Y-1.7886
X1.1935Y-2.0886
X1.1935Y-2.1886
X1.1935Y-2.2886
X1.1935Y-2.3886
X1.1935Y-2.4886
X1.1935Y-2.8886
X1.1935Y-2.9886
X1.1935Y-3.1886
X1.1935Y-3.2886
X1.1935Y-3.7886
X1.1935Y-3.8886
X1.1935Y-3.9886
X1.1935Y-4.0886
X1.1935Y-4.3886
X1.1935Y-4.4886
X1.1935Y-4.5886
X1.1935Y-4.6886
X1.1935Y-4.7886
X1.1935Y-4.8886
X1.1935Y-5.1886
X1.2935Y-1.5886
X1.2935Y-1.9886
X1.2935Y-2.0886
X1.2935Y-2.1886
X1.2935Y-2.2886
X1.2935Y-2.3886
X1.2935Y-2.5886
X1.2935Y-2.7886
X1.2935Y-2.8886
X1.2935Y-2.9886
X1.2935Y-3.1886
X1.2935Y-3.3886
X1.2935Y-3.5886
X1.2935Y-3.7886
X1.2935Y-3.8886
X1.2935Y-4.1886
X1.2935Y-4.3886
X1.2935Y-4.4886
X1.2935Y-4.5886
X1.2935Y-4.6886
X1.2935Y-5.1886
X1.2935Y-5.2886
X1.3935Y-1.5886
X1.3935Y-1.7886
X1.3935Y-1.9886
X1.3935Y-2.0886
X1.3935Y-2.1886
X1.3935Y-2.2886
X1.3935Y-2.3886
X1.3935Y-2.5886
X1.3935Y-2.7886
X1.3935Y-2.8886
X1.3935Y-2.9886
X1.3935Y-3.1886
X1.3935Y-3.3886
X1.3935Y-3.5886
X1.3935Y-3.7886
X1.3935Y-3.8886
X1.3935Y-3.9886
X1.3935Y-4.1886
X1.3935Y-4.3886
X1.3935Y-4.4886
X1.3935Y-4.5886
X1.3935Y-4.6886
X1.3935Y-4.9886
X1.3935Y-5.1886
X1.3935Y-5.2886
X1.4935Y-1.5886
X1.4935Y-1.9886
X1.4935Y-2.0886
X1.4935Y-2.1886
X1.4935Y-2.2886
X1.4935Y-2.3886
X1.4935Y-2.5886
X1.4935Y-2.6886
X1.4935Y-2.7886
X1.4935Y-2.8886
X1.4935Y-2.9886
X1.4935Y-3.1886
X1.4935Y-3.3886
X1.4935Y-3.4886
X1.4935Y-3.5886
X1.4935Y-3.7886
X1.4935Y-3.8886
X1.4935Y-3.9886
X1.4935Y-4.1886
X1.4935Y-4.2886
X1.4935Y-4.4886
X1.4935Y-4.5886
X1.4935Y-4.6886
X1.4935Y-4.9886
X1.4935Y-5.0886
X1.4935Y-5.1886
X1.4935Y-5.2886
X1.5935Y-1.5886
X1.5935Y-1.8886
X1.5935Y-1.9886
X1.5935Y-2.0886
X1.5935Y-2.1886
X1.5935Y-2.2886
X1.5935Y-2.3886
X1.5935Y-2.5886
X1.5935Y-2.6886
X1.5935Y-2.7886
X1.5935Y-2.8886
X1.5935Y-2.9886
X1.5935Y-3.1886
X1.5935Y-3.3886
X1.5935Y-3.4886
X1.5935Y-3.7886
X1.5935Y-3.8886
X1.5935Y-3.9886
X1.5935Y-4.1886
X1.5935Y-4.4886
X1.5935Y-4.5886
X1.5935Y-4.6886
X1.5935Y-4.7886
X1.5935Y-4.9886
X1.5935Y-5.0886
X1.5935Y-5.1886
X1.5935Y-5.2886
X1.6177Y-4.3431
X1.6669Y-4.3431
X1.6871Y-3.5656
X1.6878Y-3.0833
X1.6935Y-4.9886
X1.734Y-1.9651
X1.7363Y-3.5656
X1.737Y-3.0833
X1.77Y-1.9662
X1.7851Y-1.9118
X1.7935Y-2.0886
X1.7935Y-2.1886
X1.7935Y-2.2886
X1.7935Y-2.3886
X1.7935Y-2.4886
X1.7935Y-2.5886
X1.7935Y-2.6886
X1.7935Y-2.7886
X1.7935Y-2.8886
X1.7935Y-3.1886
X1.7935Y-3.2886
X1.7935Y-3.3886
X1.7935Y-3.4886
X1.7935Y-3.8886
X1.7935Y-3.9886
X1.7935Y-4.0886
X1.7935Y-4.1886
X1.7935Y-4.2886
X1.7935Y-4.3886
X1.7935Y-4.7886
X1.7935Y-4.8886
X1.7935Y-4.9886
X1.7935Y-5.4886
X1.8074Y-1.934
X1.8935Y-1.5886
X1.8935Y-1.6886
X1.8935Y-1.7886
X1.8935Y-2.2886
X1.8935Y-2.3886
X1.8935Y-2.4886
X1.8935Y-2.5886
X1.8935Y-2.6886
X1.8935Y-2.7886
X1.8935Y-3.2886
X1.8935Y-3.3886
X1.8935Y-3.4886
X1.8935Y-3.9886
X1.8935Y-4.0886
X1.8935Y-4.1886
X1.8935Y-4.2886
X1.8935Y-4.3886
X1.8935Y-4.7886
X1.8935Y-4.8886
X1.8935Y-4.9886
X1.8935Y-5.0886
X1.8935Y-5.1886
X1.8935Y-5.2886
X1.8935Y-5.4886
X1.8935Y-5.5886
X1.9935Y-1.6886
X1.9935Y-1.7886
X1.9935Y-1.9886
X1.9935Y-2.3886
X1.9935Y-2.4886
X1.9935Y-2.5886
X1.9935Y-2.6886
X1.9935Y-2.7886
X1.9935Y-3.2886
X1.9935Y-3.3886
X1.9935Y-3.4886
X1.9935Y-3.9886
X1.9935Y-4.0886
X1.9935Y-4.1886
X1.9935Y-4.2886
X1.9935Y-4.3886
X1.9935Y-4.4886
X1.9935Y-4.7886
X1.9935Y-4.8886
X1.9935Y-4.9886
X1.9935Y-5.0886
X1.9935Y-5.1886
X1.9935Y-5.2886
X1.9935Y-5.4886
X1.9935Y-5.5886
X1.9935Y-5.6886
X2.0935Y-1.6886
X2.0935Y-1.7886
X2.0935Y-2.2886
X2.0935Y-2.3886
X2.0935Y-2.4886
X2.0935Y-2.5886
X2.0935Y-2.6886
X2.0935Y-2.7886
X2.0935Y-2.8886
X2.0935Y-3.2886
X2.0935Y-3.3886
X2.0935Y-3.4886
X2.0935Y-3.6886
X2.0935Y-3.9886
X2.0935Y-4.0886
X2.0935Y-4.1886
X2.0935Y-4.2886
X2.0935Y-4.7886
X2.0935Y-4.8886
X2.0935Y-4.9886
X2.0935Y-5.0886
X2.0935Y-5.1886
X2.0935Y-5.2886
X2.0935Y-5.6886
X2.0935Y-5.7886
X2.1935Y-1.6886
X2.1935Y-1.7886
X2.1935Y-1.9886
X2.1935Y-2.0886
X2.1935Y-2.4886
X2.1935Y-2.5886
X2.1935Y-2.6886
X2.1935Y-2.7886
X2.1935Y-3.2886
X2.1935Y-3.3886
X2.1935Y-3.4886
X2.1935Y-3.7886
X2.1935Y-3.8886
X2.1935Y-3.9886
X2.1935Y-4.0886
X2.1935Y-4.1886
X2.1935Y-4.2886
X2.1935Y-4.3886
X2.1935Y-4.5886
X2.1935Y-4.7886
X2.1935Y-4.8886
X2.1935Y-4.9886
X2.1935Y-5.0886
X2.1935Y-5.1886
X2.1935Y-5.4886
X2.1935Y-5.6886
X2.1935Y-5.7886
X2.2935Y-1.6886
X2.2935Y-1.7886
X2.2935Y-1.9886
X2.2935Y-2.1886
X2.2935Y-2.3886
X2.2935Y-2.4886
X2.2935Y-2.5886
X2.2935Y-2.6886
X2.2935Y-2.7886
X2.2935Y-2.9886
X2.2935Y-3.2886
X2.2935Y-3.3886
X2.2935Y-3.4886
X2.2935Y-3.7886
X2.2935Y-3.9886
X2.2935Y-4.0886
X2.2935Y-4.1886
X2.2935Y-4.2886
X2.2935Y-4.3886
X2.2935Y-4.5886
X2.2935Y-4.6886
X2.2935Y-4.7886
X2.2935Y-4.8886
X2.2935Y-4.9886
X2.2935Y-5.0886
X2.2935Y-5.1886
X2.2935Y-5.2886
X2.2935Y-5.6886
X2.2935Y-5.7886
X2.3935Y-1.6886
X2.3935Y-1.7886
X2.3935Y-1.9886
X2.3935Y-2.1886
X2.3935Y-2.3886
X2.3935Y-2.4886
X2.3935Y-2.5886
X2.3935Y-2.6886
X2.3935Y-2.7886
X2.3935Y-2.9886
X2.3935Y-3.2886
X2.3935Y-3.3886
X2.3935Y-3.5886
X2.3935Y-3.7886
X2.3935Y-3.8886
X2.3935Y-3.9886
X2.3935Y-4.0886
X2.3935Y-4.1886
X2.3935Y-4.2886
X2.3935Y-4.3886
X2.3935Y-4.5886
X2.3935Y-4.6886
X2.3935Y-4.7886
X2.3935Y-4.8886
X2.3935Y-4.9886
X2.3935Y-5.0886
X2.3935Y-5.6886
X2.3935Y-5.7886
X2.4634Y-4.3727
X2.4935Y-1.6886
X2.4935Y-1.7886
X2.4935Y-1.9886
X2.4935Y-2.1886
X2.4935Y-2.2886
X2.4935Y-2.3886
X2.4935Y-2.4886
X2.4935Y-2.5886
X2.4935Y-2.6886
X2.4935Y-2.7886
X2.4935Y-2.9886
X2.4935Y-3.0886
X2.4935Y-3.2886
X2.4935Y-3.4886
X2.4935Y-3.5886
X2.4935Y-3.7886
X2.4935Y-4.5886
X2.4935Y-4.6886
X2.4935Y-4.7886
X2.4935Y-4.8886
X2.4935Y-4.9886
X2.4935Y-5.0886
X2.4935Y-5.1886
X2.4935Y-5.3886
X2.4935Y-5.6886
X2.4935Y-5.7886
X2.5126Y-4.3727
X2.5935Y-1.6886
X2.5935Y-1.7886
X2.5935Y-1.9886
X2.5935Y-2.1886
X2.5935Y-2.2886
X2.5935Y-2.3886
X2.5935Y-2.4886
X2.5935Y-2.5886
X2.5935Y-2.6886
X2.5935Y-2.7886
X2.5935Y-2.8886
X2.5935Y-2.9886
X2.5935Y-3.0886
X2.5935Y-3.8886
X2.5935Y-3.9886
X2.5935Y-4.0886
X2.5935Y-4.1886
X2.5935Y-4.6886
X2.5935Y-4.7886
X2.5935Y-4.8886
X2.5935Y-4.9886
X2.5935Y-5.0886
X2.5935Y-5.1886
X2.5935Y-5.3886
X2.5935Y-5.4886
X2.5935Y-5.6886
X2.5935Y-5.7886
X2.6046Y-3.3421
X2.6296Y-3.1522
X2.6706Y-3.349
X2.6805Y-3.1522
X2.6935Y-1.6886
X2.6935Y-3.2886
X2.6935Y-3.6886
X2.6935Y-3.7886
X2.6935Y-3.8886
X2.6935Y-3.9886
X2.6935Y-4.0886
X2.6935Y-4.1886
X2.6935Y-4.3886
X2.6935Y-4.7886
X2.6935Y-4.8886
X2.6935Y-4.9886
X2.6935Y-5.0886
X2.6935Y-5.1886
X2.6935Y-5.3886
X2.6935Y-5.4886
X2.6935Y-5.6886
X2.6935Y-5.7886
X2.7297Y-1.9111
X2.7297Y-1.9603
X2.7935Y-1.6886
X2.7935Y-1.9886
X2.7935Y-2.0886
X2.7935Y-2.1886
X2.7935Y-2.2886
X2.7935Y-2.3886
X2.7935Y-2.4886
X2.7935Y-2.5886
X2.7935Y-2.8886
X2.7935Y-2.9886
X2.7935Y-3.0886
X2.7935Y-3.2886
X2.7935Y-3.3886
X2.7935Y-3.6886
X2.7935Y-3.7886
X2.7935Y-3.8886
X2.7935Y-3.9886
X2.7935Y-4.0886
X2.7935Y-4.1886
X2.7935Y-4.2886
X2.7935Y-5.3886
X2.7935Y-5.6886
X2.7935Y-5.7886
X2.8935Y-1.6886
X2.8935Y-2.0886
X2.8935Y-2.1886
X2.8935Y-2.2886
X2.8935Y-2.3886
X2.8935Y-2.4886
X2.8935Y-2.5886
X2.8935Y-2.9886
X2.8935Y-3.0886
X2.8935Y-3.2886
X2.8935Y-3.3886
X2.8935Y-3.7886
X2.8935Y-3.8886
X2.8935Y-3.9886
X2.8935Y-4.0886
X2.8935Y-4.5886
X2.8935Y-4.7886
X2.8935Y-4.8886
X2.8935Y-4.9886
X2.8935Y-5.0886
X2.8935Y-5.1886
X2.8935Y-5.5886
X2.8935Y-5.6886
X2.8935Y-5.7886
X2.9935Y-2.1886
X2.9935Y-2.2886
X2.9935Y-2.3886
X2.9935Y-2.4886
X2.9935Y-2.5886
X2.9935Y-2.9886
X2.9935Y-3.0886
X2.9935Y-3.2886
X2.9935Y-3.3886
X2.9935Y-3.7886
X2.9935Y-3.8886
X2.9935Y-3.9886
X2.9935Y-4.0886
X2.9935Y-4.5886
X2.9935Y-4.7886
X2.9935Y-4.8886
X2.9935Y-4.9886
X2.9935Y-5.0886
X2.9935Y-5.1886
X2.9935Y-5.6886
X2.9935Y-5.7886
X3.0917Y-4.6679
X3.0935Y-2.0886
X3.0935Y-2.1886
X3.0935Y-2.2886
X3.0935Y-2.3886
X3.0935Y-2.4886
X3.0935Y-2.5886
X3.0935Y-2.6886
X3.0935Y-2.9886
X3.0935Y-3.0886
X3.0935Y-3.2886
X3.0935Y-3.5886
X3.0935Y-3.7886
X3.0935Y-3.8886
X3.0935Y-3.9886
X3.0935Y-4.0886
X3.0935Y-4.3886
X3.0935Y-4.4886
X3.0935Y-4.7886
X3.0935Y-4.8886
X3.0935Y-4.9886
X3.0935Y-5.0886
X3.0935Y-5.1886
X3.0935Y-5.4886
X3.0935Y-5.5886
X3.0935Y-5.7886
X3.1409Y-4.6679
X3.1935Y-1.8886
X3.1935Y-2.2886
X3.1935Y-2.3886
X3.1935Y-2.4886
X3.1935Y-2.5886
X3.1935Y-2.7886
X3.1935Y-2.8886
X3.1935Y-2.9886
X3.1935Y-3.0886
X3.1935Y-3.2886
X3.1935Y-3.3886
X3.1935Y-3.5886
X3.1935Y-3.7886
X3.1935Y-3.8886
X3.1935Y-3.9886
X3.1935Y-4.0886
X3.1935Y-4.1886
X3.1935Y-4.3886
X3.1935Y-4.8886
X3.1935Y-4.9886
X3.1935Y-5.0886
X3.1935Y-5.1886
X3.1935Y-5.2886
X3.1935Y-5.7886
X3.2935Y-2.1886
X3.2935Y-2.2886
X3.2935Y-2.3886
X3.2935Y-2.4886
X3.2935Y-2.5886
X3.2935Y-2.7886
X3.2935Y-2.9886
X3.2935Y-3.0886
X3.2935Y-3.2886
X3.2935Y-3.3886
X3.2935Y-3.5886
X3.2935Y-4.4886
X3.2935Y-4.9886
X3.2935Y-5.0886
X3.2935Y-5.1886
X3.2935Y-5.7886
X3.3935Y-2.1886
X3.3935Y-2.2886
X3.3935Y-2.3886
X3.3935Y-2.4886
X3.3935Y-2.5886
X3.3935Y-2.7886
X3.3935Y-2.8886
X3.3935Y-2.9886
X3.3935Y-3.0886
X3.3935Y-3.2886
X3.3935Y-3.4886
X3.3935Y-3.9886
X3.3935Y-4.0886
X3.3935Y-4.1886
X3.3935Y-4.2886
X3.3935Y-4.3886
X3.3935Y-4.4886
X3.3935Y-4.6886
X3.3935Y-4.7886
X3.3935Y-5.0886
X3.3935Y-5.1886
X3.3935Y-5.7886
X3.426Y-3.1522
X3.426Y-3.349
X3.4752Y-3.1522
X3.4777Y-3.349
X3.4935Y-2.1886
X3.4935Y-2.2886
X3.4935Y-2.3886
X3.4935Y-2.4886
X3.4935Y-2.5886
X3.4935Y-2.7886
X3.4935Y-3.2886
X3.4935Y-3.5886
X3.4935Y-3.9886
X3.4935Y-4.0886
X3.4935Y-4.1886
X3.4935Y-4.2886
X3.4935Y-4.3886
X3.4935Y-4.4886
X3.4935Y-4.5886
X3.4935Y-4.8886
X3.4935Y-5.1886
X3.4935Y-5.4886
X3.4935Y-5.5886
X3.4935Y-5.7886
X3.4935Y-5.8886
X3.5935Y-2.0886
X3.5935Y-2.8886
X3.5935Y-3.5886
X3.5935Y-4.0886
X3.5935Y-4.1886
X3.5935Y-4.2886
X3.5935Y-4.3886
X3.5935Y-4.8886
X3.5935Y-5.3886
X3.5935Y-5.4886
X3.5935Y-5.5886
X3.5935Y-5.7886
X3.5935Y-5.8886
X3.6935Y-2.4886
X3.6935Y-2.6886
X3.6935Y-2.7886
X3.6935Y-2.8886
X3.6935Y-3.3886
X3.6935Y-4.0886
X3.6935Y-4.1886
X3.6935Y-4.2886
X3.6935Y-4.3886
X3.6935Y-4.8886
X3.6935Y-5.0886
X3.6935Y-5.3886
X3.6935Y-5.6886
X3.7935Y-2.4886
X3.7935Y-2.6886
X3.7935Y-2.7886
X3.7935Y-2.8886
X3.7935Y-2.9886
X3.7935Y-3.3886
X3.7935Y-3.4886
X3.7935Y-3.8886
X3.7935Y-4.0886
X3.7935Y-4.1886
X3.7935Y-4.2886
X3.7935Y-4.3886
X3.7935Y-4.6886
X3.7935Y-4.7886
X3.7935Y-4.8886
X3.7935Y-5.0886
X3.7935Y-5.1886
X3.7935Y-5.2886
X3.7935Y-5.3886
X3.7935Y-5.7886
X3.7935Y-5.9886
X3.8935Y-2.6886
X3.8935Y-2.7886
X3.8935Y-2.8886
X3.8935Y-3.0886
X3.8935Y-3.4886
X3.8935Y-3.5886
X3.8935Y-3.8886
X3.8935Y-4.0886
X3.8935Y-4.1886
X3.8935Y-4.2886
X3.8935Y-4.3886
X3.8935Y-4.4886
X3.8935Y-5.0886
X3.8935Y-5.1886
X3.8935Y-5.2886
X3.8935Y-5.3886
X3.8935Y-5.7886
X3.8935Y-5.9886
X3.895Y-5.0026
X3.9915Y-5.0006
X3.9935Y-2.6886
X3.9935Y-2.7886
X3.9935Y-2.8886
X3.9935Y-3.0886
X3.9935Y-3.2886
X3.9935Y-3.4886
X3.9935Y-3.5886
X3.9935Y-3.8886
X3.9935Y-3.9886
X3.9935Y-4.0886
X3.9935Y-4.1886
X3.9935Y-4.2886
X3.9935Y-4.3886
X3.9935Y-4.4886
X3.9935Y-5.1886
X3.9935Y-5.2886
X3.9935Y-5.3886
X3.9935Y-5.4886
X3.9935Y-5.9886
X4.0935Y-2.6886
X4.0935Y-2.7886
X4.0935Y-2.8886
X4.0935Y-3.0886
X4.0935Y-3.1886
X4.0935Y-3.2886
X4.0935Y-3.4886
X4.0935Y-3.5886
X4.0935Y-3.7886
X4.0935Y-4.0886
X4.0935Y-4.1886
X4.0935Y-4.2886
X4.0935Y-4.3886
X4.0935Y-4.6886
X4.0935Y-5.2886
X4.0935Y-5.3886
X4.0935Y-5.6886
X4.0935Y-5.7886
X4.0935Y-5.9886
X4.0935Y-6.0886
X4.1453Y-3.3884
X4.1453Y-3.6542
X4.1935Y-2.4886
X4.1935Y-2.6886
X4.1935Y-2.7886
X4.1935Y-2.8886
X4.1935Y-3.0886
X4.1935Y-4.1886
X4.1935Y-4.2886
X4.1935Y-4.3886
X4.1935Y-4.5886
X4.1935Y-4.6886
X4.1935Y-5.3886
X4.1935Y-5.6886
X4.1935Y-6.0886
X4.1962Y-3.3884
X4.2179Y-3.6542
X4.273Y-2.355
X4.2935Y-3.5886
X4.2935Y-3.7886
X4.2935Y-3.8886
X4.2935Y-4.2886
X4.2935Y-4.4886
X4.2935Y-4.5886
X4.2935Y-5.0886
X4.2935Y-5.4886
X4.2935Y-5.6886
X4.2935Y-5.7886
X4.2935Y-5.9886
X4.2935Y-6.1886
X4.3935Y-2.6886
X4.3935Y-2.7886
X4.3935Y-2.8886
X4.3935Y-2.9886
X4.3935Y-3.0886
X4.3935Y-3.3886
X4.3935Y-3.4886
X4.3935Y-3.7886
X4.3935Y-3.8886
X4.3935Y-3.9886
X4.3935Y-4.2886
X4.3935Y-4.4886
X4.3935Y-4.5886
X4.3935Y-4.8886
X4.3935Y-5.0886
X4.3935Y-5.1886
X4.3935Y-5.6886
X4.3935Y-5.7886
X4.3935Y-5.9886
X4.3935Y-6.0886
X4.399Y-2.3628
X4.4935Y-2.2886
X4.4935Y-2.6886
X4.4935Y-2.7886
X4.4935Y-2.8886
X4.4935Y-2.9886
X4.4935Y-3.1886
X4.4935Y-3.4886
X4.4935Y-3.5886
X4.4935Y-3.7886
X4.4935Y-4.0886
X4.4935Y-4.1886
X4.4935Y-4.2886
X4.4935Y-4.4886
X4.4935Y-4.5886
X4.4935Y-4.8886
X4.4935Y-5.0886
X4.4935Y-5.1886
X4.4935Y-5.2886
X4.4935Y-5.6886
X4.4935Y-6.1886
X4.5935Y-2.2886
X4.5935Y-2.3886
X4.5935Y-2.7886
X4.5935Y-2.8886
X4.5935Y-2.9886
X4.5935Y-3.4886
X4.5935Y-3.5886
X4.5935Y-3.6886
X4.5935Y-3.8886
X4.5935Y-4.0886
X4.5935Y-4.2886
X4.5935Y-4.4886
X4.5935Y-4.5886
X4.5935Y-4.6886
X4.5935Y-4.8886
X4.5935Y-4.9886
X4.5935Y-5.0886
X4.5935Y-5.1886
X4.5935Y-5.2886
X4.5935Y-5.3886
X4.5935Y-5.6886
X4.5935Y-6.2886
X4.6935Y-2.2886
X4.6935Y-2.3886
X4.6935Y-2.7886
X4.6935Y-2.8886
X4.6935Y-2.9886
X4.6935Y-3.2886
X4.6935Y-3.4886
X4.6935Y-3.5886
X4.6935Y-3.6886
X4.6935Y-3.7886
X4.6935Y-4.0886
X4.6935Y-4.1886
X4.6935Y-4.2886
X4.6935Y-5.0886
X4.6935Y-5.1886
X4.6935Y-5.6886
X4.6935Y-5.7886
X4.6935Y-6.3886
X4.7935Y-2.2886
X4.7935Y-2.6886
X4.7935Y-2.7886
X4.7935Y-2.8886
X4.7935Y-2.9886
X4.7935Y-3.2886
X4.7935Y-3.3886
X4.7935Y-3.4886
X4.7935Y-3.5886
X4.7935Y-3.6886
X4.7935Y-3.7886
X4.7935Y-4.0886
X4.7935Y-4.1886
X4.7935Y-5.1886
X4.7935Y-5.6886
X4.7935Y-5.7886
X4.7935Y-5.8886
X4.7935Y-5.9886
X4.7935Y-6.4886
X4.8852Y-3.8805
X4.8852Y-3.9199
X4.8935Y-2.2886
X4.8935Y-2.7886
X4.8935Y-2.8886
X4.8935Y-2.9886
X4.8935Y-3.2886
X4.8935Y-3.3886
X4.8935Y-3.4886
X4.8935Y-3.5886
X4.8935Y-3.6886
X4.8935Y-3.7886
X4.8935Y-4.3886
X4.8935Y-4.7886
X4.8935Y-4.8886
X4.8935Y-4.9886
X4.8935Y-5.0886
X4.8935Y-5.2886
X4.8935Y-5.3886
X4.8935Y-5.4886
X4.8935Y-5.6886
X4.8935Y-5.7886
X4.8935Y-5.8886
X4.8935Y-6.5886
X4.9165Y-3.8559
X4.9836Y-3.9199
X4.9935Y-2.2886
X4.9935Y-2.3886
X4.9935Y-2.4886
X4.9935Y-4.2886
X4.9935Y-4.6886
X4.9935Y-4.7886
X4.9935Y-4.8886
X4.9935Y-4.9886
X4.9935Y-5.0886
X4.9935Y-5.1886
X4.9935Y-5.3886
X4.9935Y-5.4886
X4.9935Y-5.6886
X4.9935Y-5.7886
X4.9935Y-5.8886
X4.9935Y-6.2886
X4.9935Y-6.3886
X4.9935Y-6.6886
X4.9974Y-3.8496
X4.9974Y-3.8811
X5.0624Y-2.6207
X5.0697Y-2.5719
X5.0935Y-2.2886
X5.0935Y-2.4886
X5.0935Y-3.5886
X5.0935Y-3.6886
X5.0935Y-3.7886
X5.0935Y-4.0886
X5.0935Y-4.1886
X5.0935Y-4.2886
X5.0935Y-4.4886
X5.0935Y-4.7886
X5.0935Y-4.8886
X5.0935Y-4.9886
X5.0935Y-5.9886
X5.0935Y-6.1886
X5.0935Y-6.2886
X5.0935Y-6.7886
X5.1225Y-2.5725
X5.1505Y-3.2696
X5.1675Y-3.2198
X5.1913Y-2.5868
X5.1935Y-2.2886
X5.1935Y-2.6886
X5.1935Y-2.7886
X5.1935Y-3.3886
X5.1935Y-3.4886
X5.1935Y-3.5886
X5.1935Y-3.6886
X5.1935Y-3.7886
X5.1935Y-3.8886
X5.1935Y-4.1886
X5.1935Y-4.2886
X5.1935Y-4.7886
X5.1935Y-4.8886
X5.1935Y-5.1886
X5.1935Y-5.2886
X5.1935Y-5.3886
X5.1935Y-5.4886
X5.1935Y-5.5886
X5.1935Y-5.6886
X5.1935Y-5.7886
X5.1935Y-6.8886
X5.1935Y-6.9886
X5.2935Y-2.9886
X5.2935Y-3.0886
X5.2935Y-3.1886
X5.2935Y-3.4886
X5.2935Y-3.5886
X5.2935Y-3.6886
X5.2935Y-3.7886
X5.2935Y-3.8886
X5.2935Y-3.9886
X5.2935Y-4.2886
X5.2935Y-4.5886
X5.2935Y-4.7886
X5.2935Y-5.0886
X5.2935Y-5.1886
X5.2935Y-5.2886
X5.2935Y-5.3886
X5.2935Y-5.4886
X5.2935Y-5.5886
X5.2935Y-5.6886
X5.2935Y-5.7886
X5.2935Y-5.8886
X5.2935Y-6.2886
X5.2935Y-6.8886
X5.2935Y-6.9886
X5.3596Y-2.9219
X5.3935Y-3.0886
X5.3935Y-3.2886
X5.3935Y-3.7886
X5.3935Y-3.8886
X5.3935Y-3.9886
X5.3935Y-4.0886
X5.3935Y-4.5886
X5.3935Y-4.6886
X5.3935Y-4.9886
X5.3935Y-5.0886
X5.3935Y-5.1886
X5.3935Y-5.2886
X5.3935Y-5.3886
X5.3935Y-5.4886
X5.3935Y-5.5886
X5.3935Y-5.6886
X5.3935Y-5.7886
X5.3935Y-5.8886
X5.3935Y-5.9886
X5.3935Y-6.1886
X5.3935Y-6.2886
X5.3935Y-6.3886
X5.3935Y-6.4886
X5.3935Y-6.8886
X5.3935Y-6.9886
X5.4935Y-2.1886
X5.4935Y-3.2886
X5.4935Y-3.8886
X5.4935Y-3.9886
X5.4935Y-4.0886
X5.4935Y-4.1886
X5.4935Y-4.8886
X5.4935Y-4.9886
X5.4935Y-5.0886
X5.4935Y-5.1886
X5.4935Y-5.2886
X5.4935Y-5.3886
X5.4935Y-5.4886
X5.4935Y-5.5886
X5.4935Y-5.6886
X5.4935Y-5.7886
X5.4935Y-5.8886
X5.4935Y-5.9886
X5.4935Y-6.0886
X5.4935Y-6.2886
X5.4935Y-6.3886
X5.4935Y-6.8886
X5.5171Y-2.8353
X5.5927Y-3.3211
X5.5935Y-2.1886
X5.5935Y-2.2886
X5.5935Y-3.6886
X5.5935Y-3.8886
X5.5935Y-3.9886
X5.5935Y-4.0886
X5.5935Y-4.1886
X5.5935Y-4.7886
X5.5935Y-4.8886
X5.5935Y-4.9886
X5.5935Y-5.0886
X5.5935Y-5.1886
X5.5935Y-5.2886
X5.5935Y-5.3886
X5.5935Y-5.4886
X5.5935Y-5.5886
X5.5935Y-5.6886
X5.5935Y-5.7886
X5.5935Y-5.8886
X5.5935Y-5.9886
X5.5935Y-6.0886
X5.6088Y-2.4801
X5.6116Y-2.9849
X5.6431Y-3.3211
X5.6431Y-4.289
X5.6431Y-4.354
X5.6628Y-2.5912
X5.686Y-2.5577
X5.6903Y-2.9849
X5.6935Y-2.1886
X5.6935Y-2.3886
X5.6935Y-3.8886
X5.6935Y-3.9886
X5.6935Y-4.0886
X5.6935Y-4.1886
X5.6935Y-4.5886
X5.6935Y-4.6886
X5.6935Y-4.7886
X5.6935Y-4.8886
X5.6935Y-4.9886
X5.6935Y-5.0886
X5.6935Y-5.1886
X5.6935Y-5.2886
X5.6935Y-5.3886
X5.6935Y-5.4886
X5.6935Y-5.5886
X5.6935Y-5.6886
X5.6935Y-5.7886
X5.6935Y-5.8886
X5.6935Y-5.9886
X5.6935Y-6.0886
X5.6935Y-6.4886
X5.6982Y-3.3077
X5.7061Y-2.7093
X5.7376Y-2.4809
X5.7415Y-3.0538
X5.7454Y-2.7487
X5.7454Y-2.9376
X5.7506Y-2.5593
X5.7533Y-2.8195
X5.7612Y-3.3211
X5.7716Y-2.6044
X5.7935Y-3.8886
X5.7935Y-3.9886
X5.7935Y-4.0886
X5.7935Y-4.1886
X5.7935Y-4.3886
X5.7935Y-4.5886
X5.7935Y-4.6886
X5.7935Y-4.7886
X5.7935Y-4.8886
X5.7935Y-4.9886
X5.7935Y-5.0886
X5.7935Y-5.1886
X5.7935Y-5.2886
X5.7935Y-5.3886
X5.7935Y-5.4886
X5.7935Y-5.5886
X5.7935Y-5.6886
X5.7935Y-5.7886
X5.7935Y-5.8886
X5.7935Y-5.9886
X5.7935Y-6.0886
X5.801Y-2.5719
X5.8202Y-2.4042
X5.8301Y-3.6935
X5.8332Y-2.5947
X5.8403Y-3.1762
X5.8639Y-3.1997
X5.8718Y-3.1138
X5.8769Y-2.5246
X5.8793Y-3.664
X5.8872Y-3.2605
X5.8923Y-3.1377
X5.8935Y-3.8886
X5.8935Y-3.9886
X5.8935Y-4.0886
X5.8935Y-4.1886
X5.8935Y-4.3886
X5.8935Y-4.5886
X5.8935Y-4.6886
X5.8935Y-4.7886
X5.8935Y-4.8886
X5.8935Y-4.9886
X5.8935Y-5.0886
X5.8935Y-5.1886
X5.8935Y-5.2886
X5.8935Y-5.3886
X5.8935Y-5.4886
X5.8935Y-5.5886
X5.8935Y-5.6886
X5.8935Y-5.7886
X5.8935Y-5.8886
X5.8935Y-5.9886
X5.8935Y-6.0886
X5.897Y-2.6113
X5.9191Y-3.0479
X5.9265Y-3.1345
X5.9265Y-3.2132
X5.9265Y-3.3077
X5.933Y-3.0761
X5.9344Y-2.7487
X5.9344Y-2.9376
X5.9384Y-2.4731
X5.9642Y-3.0691
X5.9679Y-3.3195
X5.9899Y-2.3864
X5.9935Y-3.7886
X5.9935Y-3.8886
X5.9935Y-3.9886
X5.9935Y-4.0886
X5.9935Y-4.1886
X5.9935Y-4.3886
X5.9935Y-4.6886
X5.9935Y-4.7886
X5.9935Y-4.8886
X5.9935Y-4.9886
X5.9935Y-5.0886
X5.9935Y-5.1886
X5.9935Y-5.2886
X5.9935Y-5.3886
X5.9935Y-5.4886
X5.9935Y-5.5886
X5.9935Y-5.6886
X5.9935Y-5.7886
X5.9935Y-5.8886
X5.9935Y-5.9886
X5.9935Y-6.0886
X5.9935Y-6.3886
X5.9935Y-6.4886
X5.9974Y-2.6935
X6.0072Y-3.1916
X6.0549Y-2.6691
X6.0553Y-3.5727
X6.0663Y-2.4337
X6.0663Y-2.4829
X6.0663Y-2.6305
X6.0761Y-3.5518
X6.0935Y-3.8886
X6.0935Y-3.9886
X6.0935Y-4.0886
X6.0935Y-4.1886
X6.0935Y-4.3886
X6.0935Y-4.4886
X6.0935Y-4.7886
X6.0935Y-4.8886
X6.0935Y-4.9886
X6.0935Y-5.0886
X6.0935Y-5.1886
X6.0935Y-5.2886
X6.0935Y-5.3886
X6.0935Y-5.4886
X6.0935Y-5.5886
X6.0935Y-5.6886
X6.0935Y-5.7886
X6.0935Y-5.8886
X6.0935Y-5.9886
X6.0935Y-6.0886
X6.0935Y-6.4886
X6.0935Y-6.5886
X6.147Y-3.4809
X6.1706Y-3.4573
X6.1785Y-2.3077
X6.1935Y-3.8886
X6.1935Y-3.9886
X6.1935Y-4.0886
X6.1935Y-4.1886
X6.1935Y-4.3886
X6.1935Y-4.4886
X6.1935Y-4.5886
X6.1935Y-4.8886
X6.1935Y-4.9886
X6.1935Y-5.0886
X6.1935Y-5.1886
X6.1935Y-5.2886
X6.1935Y-5.3886
X6.1935Y-5.4886
X6.1935Y-5.5886
X6.1935Y-5.6886
X6.1935Y-5.7886
X6.1935Y-5.8886
X6.1935Y-5.9886
X6.1935Y-6.2886
X6.1935Y-6.8886
X6.1943Y-2.6305
X6.2029Y-2.8301
X6.2041Y-2.7683
X6.2222Y-2.6679
X6.225Y-2.5152
X6.2435Y-2.5813
X6.2536Y-2.3113
X6.2564Y-2.5124
X6.2927Y-2.7979
X6.2935Y-3.7886
X6.2935Y-3.8886
X6.2935Y-3.9886
X6.2935Y-4.3886
X6.2935Y-4.4886
X6.2935Y-4.6886
X6.2935Y-4.8886
X6.2935Y-4.9886
X6.2935Y-5.0886
X6.2935Y-5.1886
X6.2935Y-5.2886
X6.2935Y-5.3886
X6.2935Y-5.4886
X6.2935Y-5.5886
X6.2935Y-5.6886
X6.2935Y-5.7886
X6.2935Y-5.8886
X6.2935Y-6.2886
X6.2935Y-6.8886
X6.2935Y-6.9886
X6.3008Y-2.7103
X6.3045Y-3.2447
X6.3124Y-2.5026
X6.3222Y-4.1364
X6.3439Y-2.1975
X6.3517Y-2.542
X6.3616Y-2.6109
X6.3655Y-2.4447
X6.3911Y-2.6601
X6.3935Y-3.1886
X6.3935Y-3.5886
X6.3935Y-3.6886
X6.3935Y-3.7886
X6.3935Y-3.8886
X6.3935Y-3.9886
X6.3935Y-4.2886
X6.3935Y-4.3886
X6.3935Y-4.4886
X6.3935Y-4.8886
X6.3935Y-4.9886
X6.3935Y-5.0886
X6.3935Y-5.1886
X6.3935Y-5.2886
X6.3935Y-5.3886
X6.3935Y-5.4886
X6.3935Y-5.5886
X6.3935Y-5.6886
X6.3935Y-5.7886
X6.3935Y-5.8886
X6.3935Y-6.8886
X6.3935Y-6.9886
X6.4305Y-2.6227
X6.4305Y-2.8963
X6.4403Y-4.1364
X6.4541Y-2.6463
X6.4935Y-3.5886
X6.4935Y-3.6886
X6.4935Y-3.7886
X6.4935Y-3.8886
X6.4935Y-4.1886
X6.4935Y-4.2886
X6.4935Y-4.3886
X6.4935Y-4.4886
X6.4935Y-4.8886
X6.4935Y-4.9886
X6.4935Y-5.0886
X6.4935Y-5.1886
X6.4935Y-5.2886
X6.4935Y-5.3886
X6.4935Y-5.4886
X6.4935Y-5.5886
X6.4935Y-5.6886
X6.4935Y-5.7886
X6.4935Y-5.8886
X6.4935Y-6.0886
X6.4935Y-6.1886
X6.4935Y-6.7886
X6.4935Y-6.8886
X6.4935Y-6.9886
X6.5328Y-3.2841
X6.5458Y-2.4447
X6.5584Y-2.8963
X6.5935Y-3.4886
X6.5935Y-3.5886
X6.5935Y-3.6886
X6.5935Y-3.7886
X6.5935Y-4.1886
X6.5935Y-4.2886
X6.5935Y-4.8886
X6.5935Y-4.9886
X6.5935Y-5.0886
X6.5935Y-5.1886
X6.5935Y-5.2886
X6.5935Y-5.3886
X6.5935Y-5.4886
X6.5935Y-5.5886
X6.5935Y-5.6886
X6.5935Y-5.7886
X6.5935Y-5.8886
X6.5935Y-6.0886
X6.5935Y-6.1886
X6.5935Y-6.6886
X6.5935Y-6.7886
X6.5935Y-6.8886
X6.6273Y-2.2605
X6.651Y-3.2998
X6.6653Y-2.5098
X6.6935Y-2.1886
X6.6935Y-2.2886
X6.6935Y-3.4886
X6.6935Y-3.5886
X6.6935Y-3.6886
X6.6935Y-3.9886
X6.6935Y-4.1886
X6.6935Y-4.2886
X6.6935Y-4.5886
X6.6935Y-4.6886
X6.6935Y-4.8886
X6.6935Y-4.9886
X6.6935Y-5.0886
X6.6935Y-5.1886
X6.6935Y-5.2886
X6.6935Y-5.3886
X6.6935Y-5.4886
X6.6935Y-5.5886
X6.6935Y-5.6886
X6.6935Y-5.7886
X6.6935Y-5.8886
X6.6935Y-6.0886
X6.6935Y-6.5886
X6.6935Y-6.6886
X6.7139Y-3.0951
X6.7356Y-3.2408
X6.7553Y-2.9061
X6.7935Y-2.7886
X6.7935Y-3.8886
X6.7935Y-3.9886
X6.7935Y-4.8886
X6.7935Y-4.9886
X6.7935Y-5.0886
X6.7935Y-5.1886
X6.7935Y-5.2886
X6.7935Y-5.3886
X6.7935Y-5.4886
X6.7935Y-5.5886
X6.7935Y-5.6886
X6.7935Y-5.7886
X6.7935Y-5.8886
X6.7935Y-6.3886
X6.7935Y-6.4886
X6.7935Y-6.5886
X6.8935Y-2.6886
X6.8935Y-2.7886
X6.8935Y-2.8886
X6.8935Y-3.7886
X6.8935Y-3.8886
X6.8935Y-3.9886
X6.8935Y-4.7886
X6.8935Y-4.8886
X6.8935Y-4.9886
X6.8935Y-5.0886
X6.8935Y-5.1886
X6.8935Y-5.5886
X6.8935Y-5.6886
X6.8935Y-5.7886
X6.8935Y-6.3886
X6.8935Y-6.4886
X6.9935Y-2.1886
X6.9935Y-2.2886
X6.9935Y-2.7886
X6.9935Y-2.8886
X6.9935Y-3.1886
X6.9935Y-3.4886
X6.9935Y-3.5886
X6.9935Y-3.6886
X6.9935Y-3.7886
X6.9935Y-3.8886
X6.9935Y-4.3886
X6.9935Y-4.4886
X6.9935Y-4.5886
X6.9935Y-4.6886
X6.9935Y-4.7886
X6.9935Y-4.8886
X6.9935Y-4.9886
X6.9935Y-5.0886
X6.9935Y-5.1886
X6.9935Y-6.3886
X7.0935Y-2.1886
X7.0935Y-2.7886
X7.0935Y-2.8886
X7.0935Y-3.1886
X7.0935Y-3.4886
X7.0935Y-3.5886
X7.0935Y-3.6886
X7.0935Y-3.7886
X7.0935Y-4.4886
X7.0935Y-4.5886
X7.0935Y-4.6886
X7.0935Y-4.7886
X7.0935Y-4.9886
X7.0935Y-5.0886
X7.0935Y-5.1886
X7.0935Y-5.2886
X7.0935Y-5.3886
X7.0935Y-5.4886
X7.0935Y-5.5886
X7.0935Y-5.6886
X7.0935Y-6.0886
X7.0935Y-6.1886
X7.1935Y-2.1886
X7.1935Y-2.6886
X7.1935Y-2.7886
X7.1935Y-2.8886
X7.1935Y-3.4886
X7.1935Y-3.5886
X7.1935Y-3.6886
X7.1935Y-3.8886
X7.1935Y-4.1886
X7.1935Y-4.2886
X7.1935Y-4.5886
X7.1935Y-4.7886
X7.1935Y-5.0886
X7.1935Y-5.1886
X7.1935Y-5.2886
X7.1935Y-5.3886
X7.1935Y-5.4886
X7.1935Y-5.7886
X7.1935Y-6.0886
X7.2935Y-2.1886
X7.2935Y-3.2886
X7.2935Y-3.3886
X7.2935Y-3.4886
X7.2935Y-3.5886
X7.2935Y-3.6886
X7.2935Y-4.2886
X7.2935Y-4.3886
X7.2935Y-4.6886
X7.2935Y-5.0886
X7.2935Y-5.1886
X7.2935Y-5.2886
X7.2935Y-5.3886
X7.2935Y-5.6886
X7.2935Y-5.7886
X7.3458Y-3.0341
X7.3557Y-5.9967
X7.3813Y-2.9438
X7.3813Y-2.9753
X7.3813Y-3.0087
X7.3935Y-2.1886
X7.3935Y-2.4886
X7.3935Y-2.5886
X7.3935Y-4.2886
X7.3935Y-4.3886
X7.3935Y-4.4886
X7.3935Y-4.6886
X7.3935Y-4.7886
X7.3935Y-5.0886
X7.3935Y-5.1886
X7.3935Y-5.2886
X7.3935Y-5.5886
X7.4147Y-3.0636
X7.4147Y-6.0557
X7.4443Y-2.9455
X7.4443Y-2.977
X7.4884Y-3.0234
X7.4935Y-2.0886
X7.4935Y-2.1886
X7.4935Y-2.4886
X7.4935Y-2.5886
X7.4935Y-2.8886
X7.4935Y-3.5886
X7.4935Y-3.6886
X7.4935Y-3.9886
X7.4935Y-4.1886
X7.4935Y-4.2886
X7.4935Y-4.3886
X7.4935Y-4.4886
X7.4935Y-5.0886
X7.4935Y-5.1886
X7.4935Y-5.4886
X7.4935Y-5.8886
X7.5305Y-3.8018
X7.5777Y-3.8018
X7.5935Y-2.0886
X7.5935Y-2.5886
X7.5935Y-3.2886
X7.5935Y-3.5886
X7.5935Y-4.7886
X7.5935Y-4.9886
X7.5935Y-5.0886
X7.5935Y-5.1886
X7.5935Y-5.3886
X7.5935Y-5.4886
X7.5935Y-5.7886
X7.5935Y-5.8886
X7.5935Y-6.0886
X7.6935Y-2.1886
X7.6935Y-2.5886
X7.6935Y-2.7886
X7.6935Y-2.9886
X7.6935Y-3.2886
X7.6935Y-3.3886
X7.6935Y-3.5886
X7.6935Y-3.6886
X7.6935Y-5.2886
X7.6935Y-5.8886
X7.7037Y-4.5794
X7.751Y-4.5794
X7.7935Y-2.5886
X7.7935Y-2.8886
X7.7935Y-2.9886
X7.7935Y-3.2886
X7.7935Y-3.3886
X7.7935Y-3.5886
X7.7935Y-3.7886
X7.7935Y-4.0886
X7.7935Y-4.1886
X7.7935Y-4.2886
X7.7935Y-4.3886
X7.7935Y-4.4886
X7.7935Y-4.8886
X7.7935Y-4.9886
X7.7935Y-5.0886
X7.7935Y-5.2886
X7.7935Y-5.5886
X7.7935Y-5.7886
X7.8935Y-2.2886
X7.8935Y-2.4886
X7.8935Y-2.5886
X7.8935Y-3.2886
X7.8935Y-3.3886
X7.8935Y-3.6886
X7.8935Y-4.0886
X7.8935Y-4.1886
X7.8935Y-4.2886
X7.8935Y-4.3886
X7.8935Y-4.7886
X7.8935Y-4.8886
X7.8935Y-4.9886
X7.8935Y-5.0886
X7.8935Y-5.1886
X7.9935Y-3.0886
X7.9935Y-3.2886
X7.9935Y-3.3886
X7.9935Y-3.6886
X7.9935Y-3.7886
X7.9935Y-4.0886
X7.9935Y-4.1886
X7.9935Y-4.2886
X7.9935Y-4.4886
X7.9935Y-4.8886
X7.9935Y-4.9886
X7.9935Y-5.0886
X7.9935Y-5.1886
X7.9935Y-5.3886
X7.9935Y-5.4886
X7.9935Y-5.5886
X7.9935Y-5.8886
X8.0935Y-1.8886
X8.0935Y-2.0886
X8.0935Y-2.1886
X8.0935Y-2.2886
X8.0935Y-2.3886
X8.0935Y-2.7886
X8.0935Y-3.2886
X8.0935Y-3.3886
X8.0935Y-4.0886
X8.0935Y-4.1886
X8.0935Y-4.2886
X8.0935Y-4.4886
X8.0935Y-4.5886
X8.0935Y-4.8886
X8.0935Y-4.9886
X8.0935Y-5.0886
X8.0935Y-5.1886
X8.0935Y-5.4886
X8.0935Y-5.7886
X8.1935Y-1.7886
X8.1935Y-1.8886
X8.1935Y-2.1886
X8.1935Y-2.2886
X8.1935Y-2.3886
X8.1935Y-2.6886
X8.1935Y-2.7886
X8.1935Y-3.0886
X8.1935Y-3.1886
X8.1935Y-3.7886
X8.1935Y-3.9886
X8.1935Y-4.0886
X8.1935Y-4.1886
X8.1935Y-4.2886
X8.1935Y-4.8886
X8.1935Y-4.9886
X8.1935Y-5.0886
X8.1935Y-5.1886
X8.1935Y-5.6886
X8.1935Y-5.8886
X8.2513Y-3.5361
X8.2596Y-3.4967
X8.2596Y-3.5754
X8.2935Y-1.7886
X8.2935Y-2.1886
X8.2935Y-2.2886
X8.2935Y-2.3886
X8.2935Y-4.5886
X8.2935Y-4.6886
X8.2935Y-4.7886
X8.2935Y-4.8886
X8.2935Y-4.9886
X8.2935Y-5.0886
X8.2935Y-5.2886
X8.2935Y-5.7886
X8.3069Y-3.5754
X8.3104Y-3.4967
X8.3104Y-3.5361
X8.3935Y-1.8886
X8.3935Y-2.1886
X8.3935Y-2.2886
X8.3935Y-2.3886
X8.3935Y-2.5886
X8.3935Y-2.6886
X8.3935Y-3.0886
X8.3935Y-3.1886
X8.3935Y-3.2886
X8.3935Y-3.3886
X8.3935Y-3.8886
X8.3935Y-3.9886
X8.3935Y-4.0886
X8.3935Y-4.1886
X8.3935Y-4.2886
X8.3935Y-4.7886
X8.3935Y-4.8886
X8.3935Y-4.9886
X8.3935Y-5.0886
X8.3935Y-5.1886
X8.3935Y-5.2886
X8.3935Y-5.7886
X8.4215Y-4.353
X8.4688Y-4.353
X8.4935Y-2.2886
X8.4935Y-2.3886
X8.4935Y-2.5886
X8.4935Y-2.6886
X8.4935Y-3.0886
X8.4935Y-3.1886
X8.4935Y-3.2886
X8.4935Y-3.7886
X8.4935Y-3.8886
X8.4935Y-3.9886
X8.4935Y-4.0886
X8.4935Y-4.1886
X8.4935Y-5.7886
X8.5935Y-1.9886
X8.5935Y-2.1886
X8.5935Y-2.2886
X8.5935Y-2.3886
X8.5935Y-3.0886
X8.5935Y-3.1886
X8.5935Y-3.7886
X8.5935Y-3.8886
X8.5935Y-3.9886
X8.5935Y-4.0886
X8.5935Y-5.3886
X8.5935Y-5.5886
X8.5935Y-5.7886
X8.6935Y-2.1886
X8.6935Y-2.2886
X8.6935Y-2.3886
X8.6935Y-3.0886
X8.6935Y-3.1886
X8.6935Y-3.3886
X8.6935Y-3.7886
X8.6935Y-3.8886
X8.6935Y-3.9886
X8.6935Y-4.5886
X8.6935Y-4.6886
X8.6935Y-4.7886
X8.6935Y-4.8886
X8.6935Y-4.9886
X8.6935Y-5.0886
X8.6935Y-5.5886
X8.6935Y-5.7886
X8.7935Y-1.6886
X8.7935Y-1.7886
X8.7935Y-1.8886
X8.7935Y-2.0886
X8.7935Y-2.1886
X8.7935Y-2.2886
X8.7935Y-3.0886
X8.7935Y-3.1886
X8.7935Y-3.7886
X8.7935Y-3.8886
X8.7935Y-3.9886
X8.7935Y-4.1886
X8.7935Y-4.5886
X8.7935Y-4.6886
X8.7935Y-4.7886
X8.7935Y-4.8886
X8.7935Y-4.9886
X8.7935Y-5.0886
X8.7935Y-5.2886
X8.7935Y-5.3886
X8.7935Y-5.4886
X8.7935Y-5.5886
X8.7935Y-5.7886
X8.8935Y-1.6886
X8.8935Y-1.8886
X8.8935Y-1.9886
X8.8935Y-2.0886
X8.8935Y-2.1886
X8.8935Y-3.0886
X8.8935Y-3.1886
X8.8935Y-3.4886
X8.8935Y-3.6886
X8.8935Y-3.7886
X8.8935Y-3.8886
X8.8935Y-3.9886
X8.8935Y-4.0886
X8.8935Y-4.2886
X8.8935Y-4.5886
X8.8935Y-4.6886
X8.8935Y-4.7886
X8.8935Y-4.8886
X8.8935Y-4.9886
X8.8935Y-5.0886
X8.8935Y-5.2886
X8.8935Y-5.3886
X8.8935Y-5.4886
X8.8935Y-5.7886
X8.9305Y-2.916
X8.9935Y-1.6886
X8.9935Y-1.9886
X8.9935Y-2.0886
X8.9935Y-2.1886
X8.9935Y-2.5886
X8.9935Y-2.6886
X8.9935Y-3.6886
X8.9935Y-3.7886
X8.9935Y-3.8886
X8.9935Y-3.9886
X8.9935Y-4.0886
X8.9935Y-4.2886
X8.9935Y-4.3886
X8.9935Y-4.4886
X8.9935Y-4.5886
X8.9935Y-4.6886
X8.9935Y-4.7886
X8.9935Y-4.8886
X8.9935Y-4.9886
X8.9935Y-5.0886
X8.9935Y-5.2886
X8.9935Y-5.3886
X8.9935Y-5.5886
X8.9935Y-5.7886
X9.0191Y-2.916
X9.0763Y-3.3206
X9.0773Y-3.6345
X9.0935Y-1.6886
X9.0935Y-1.7886
X9.0935Y-2.0886
X9.0935Y-2.1886
X9.0935Y-2.3886
X9.0935Y-2.4886
X9.0935Y-2.5886
X9.0935Y-2.6886
X9.0935Y-2.7886
X9.0935Y-2.8886
X9.0935Y-4.2886
X9.0935Y-4.4886
X9.0935Y-4.5886
X9.0935Y-4.7886
X9.0935Y-4.8886
X9.0935Y-4.9886
X9.0935Y-5.1886
X9.0935Y-5.2886
X9.0935Y-5.5886
X9.0935Y-5.7886
X9.1386Y-3.3188
X9.1411Y-3.6345
X9.1935Y-1.6886
X9.1935Y-1.7886
X9.1935Y-1.8886
X9.1935Y-2.4886
X9.1935Y-2.5886
X9.1935Y-2.6886
X9.1935Y-2.7886
X9.1935Y-2.8886
X9.1935Y-3.0886
X9.1935Y-3.1886
X9.1935Y-3.3886
X9.1935Y-3.4886
X9.1935Y-3.6886
X9.1935Y-3.8886
X9.1935Y-4.2886
X9.1935Y-4.4886
X9.1935Y-4.5886
X9.1935Y-4.6886
X9.1935Y-4.7886
X9.1935Y-4.8886
X9.1935Y-5.0886
X9.1935Y-5.1886
X9.1935Y-5.5886
X9.1935Y-5.7886
X9.247Y-4.4337
X9.2935Y-1.6886
X9.2935Y-1.7886
X9.2935Y-2.0886
X9.2935Y-2.4886
X9.2935Y-2.5886
X9.2935Y-2.6886
X9.2935Y-3.1886
X9.2935Y-3.3886
X9.2935Y-3.4886
X9.2935Y-3.5886
X9.2935Y-3.8886
X9.2935Y-3.9886
X9.2935Y-4.9886
X9.2935Y-5.0886
X9.2935Y-5.1886
X9.2935Y-5.2886
X9.2935Y-5.5886
X9.2935Y-5.7886
X9.2943Y-4.4337
X9.3935Y-1.6886
X9.3935Y-1.7886
X9.3935Y-1.9886
X9.3935Y-2.0886
X9.3935Y-2.4886
X9.3935Y-2.5886
X9.3935Y-2.8886
X9.3935Y-3.1886
X9.3935Y-3.3886
X9.3935Y-3.4886
X9.3935Y-3.9886
X9.3935Y-4.0886
X9.3935Y-4.1886
X9.3935Y-4.2886
X9.3935Y-4.3886
X9.3935Y-4.6886
X9.3935Y-4.7886
X9.3935Y-4.8886
X9.3935Y-4.9886
X9.3935Y-5.0886
X9.3935Y-5.5886
X9.3935Y-5.7886
X9.4935Y-1.6886
X9.4935Y-1.7886
X9.4935Y-2.7886
X9.4935Y-2.8886
X9.4935Y-3.1886
X9.4935Y-3.3886
X9.4935Y-3.8886
X9.4935Y-3.9886
X9.4935Y-4.0886
X9.4935Y-4.1886
X9.4935Y-4.2886
X9.4935Y-4.7886
X9.4935Y-4.8886
X9.4935Y-4.9886
X9.4935Y-5.0886
X9.4935Y-5.3886
X9.4935Y-5.5886
X9.4935Y-5.7886
X9.5935Y-1.6886
X9.5935Y-1.7886
X9.5935Y-2.1886
X9.5935Y-2.2886
X9.5935Y-2.6886
X9.5935Y-3.1886
X9.5935Y-3.5886
X9.5935Y-3.6886
X9.5935Y-3.9886
X9.5935Y-4.0886
X9.5935Y-4.1886
X9.5935Y-4.3886
X9.5935Y-4.7886
X9.5935Y-4.8886
X9.5935Y-4.9886
X9.5935Y-5.3886
X9.5935Y-5.5886
X9.5935Y-5.7886
X9.6935Y-1.6886
X9.6935Y-1.7886
X9.6935Y-2.1886
X9.6935Y-2.4886
X9.6935Y-2.6886
X9.6935Y-3.1886
X9.6935Y-3.4886
X9.6935Y-3.9886
X9.6935Y-4.0886
X9.6935Y-4.2886
X9.6935Y-4.7886
X9.6935Y-4.8886
X9.6935Y-4.9886
X9.6935Y-5.1886
X9.6935Y-5.2886
X9.6935Y-5.3886
X9.6935Y-5.4886
X9.6935Y-5.5886
X9.6935Y-5.7886
X9.7935Y-1.5886
X9.7935Y-1.6886
X9.7935Y-1.7886
X9.7935Y-1.9886
X9.7935Y-2.3886
X9.7935Y-2.4886
X9.7935Y-2.6886
X9.7935Y-2.9886
X9.7935Y-3.1886
X9.7935Y-3.4886
X9.7935Y-3.9886
X9.7935Y-4.0886
X9.7935Y-4.2886
X9.7935Y-4.7886
X9.7935Y-4.8886
X9.7935Y-5.0886
X9.7935Y-5.2886
X9.7935Y-5.3886
X9.7935Y-5.4886
X9.8935Y-1.9886
X9.8935Y-2.2886
X9.8935Y-2.3886
X9.8935Y-2.4886
X9.8935Y-2.6886
X9.8935Y-2.7886
X9.8935Y-2.9886
X9.8935Y-3.0886
X9.8935Y-3.1886
X9.8935Y-3.4886
X9.8935Y-3.5886
X9.8935Y-3.7886
X9.8935Y-3.8886
X9.8935Y-3.9886
X9.8935Y-4.0886
X9.8935Y-4.2886
X9.8935Y-4.7886
X9.8935Y-4.9886
X9.8935Y-5.3886
X9.9639Y-2.5912
X9.9935Y-1.5886
X9.9935Y-2.7886
X9.9935Y-2.8886
X9.9935Y-2.9886
X9.9935Y-3.0886
X9.9935Y-3.1886
X9.9935Y-3.4886
X9.9935Y-3.6886
X9.9935Y-3.7886
X9.9935Y-3.8886
X9.9935Y-3.9886
X9.9935Y-4.0886
X9.9935Y-4.2886
X9.9935Y-4.3886
X9.9935Y-4.4886
X9.9935Y-4.5886
X9.9935Y-4.6886
X9.9935Y-4.8886
X9.9935Y-4.9886
X10.0467Y-3.3786
X10.0525Y-2.5912
X10.0683Y-4.1758
X10.0935Y-1.5886
X10.0935Y-1.6886
X10.0935Y-1.7886
X10.0935Y-2.0886
X10.0935Y-2.1886
X10.0935Y-2.2886
X10.0935Y-2.3886
X10.0935Y-2.4886
X10.0935Y-3.6886
X10.0935Y-3.7886
X10.0935Y-4.4886
X10.0935Y-4.5886
X10.0935Y-4.7886
X10.0935Y-4.8886
X10.0935Y-4.9886
X10.0935Y-5.0886
X10.0935Y-5.1886
X10.094Y-3.3786
X10.1155Y-4.1758
X10.1935Y-1.5886
X10.1935Y-1.8886
X10.1935Y-2.0886
X10.1935Y-2.1886
X10.1935Y-2.2886
X10.1935Y-2.3886
X10.1935Y-2.6886
X10.1935Y-2.7886
X10.1935Y-2.8886
X10.1935Y-2.9886
X10.1935Y-3.0886
X10.1935Y-3.1886
X10.1935Y-3.2886
X10.1935Y-3.4886
X10.1935Y-3.5886
X10.1935Y-3.6886
X10.1935Y-3.7886
X10.1935Y-3.8886
X10.1935Y-3.9886
X10.1935Y-4.0886
X10.1935Y-4.6886
X10.1935Y-4.7886
X10.1935Y-5.2886
X10.2935Y-2.0886
X10.2935Y-2.1886
X10.2935Y-2.2886
X10.2935Y-2.3886
X10.2935Y-2.7886
X10.2935Y-2.8886
X10.2935Y-2.9886
X10.2935Y-3.0886
X10.2935Y-3.1886
X10.2935Y-3.5886
X10.2935Y-3.6886
X10.2935Y-3.7886
X10.2935Y-3.8886
X10.2935Y-3.9886
X10.2935Y-4.3886
X10.2935Y-4.4886
X10.2935Y-4.5886
X10.2935Y-4.6886
X10.2935Y-4.7886
X10.2935Y-5.1886
X10.2935Y-5.2886
X10.3935Y-1.6886
X10.3935Y-2.1886
X10.3935Y-2.2886
X10.3935Y-2.3886
X10.3935Y-2.7886
X10.3935Y-2.8886
X10.3935Y-2.9886
X10.3935Y-3.0886
X10.3935Y-3.1886
X10.3935Y-3.5886
X10.3935Y-3.6886
X10.3935Y-3.7886
X10.3935Y-3.8886
X10.3935Y-4.0886
X10.3935Y-4.3886
X10.3935Y-4.4886
X10.3935Y-4.5886
X10.3935Y-4.6886
X10.3935Y-4.7886
X10.3935Y-5.1886
X10.3935Y-5.2886
X10.4935Y-1.7886
X10.4935Y-2.2886
X10.4935Y-2.3886
X10.4935Y-2.8886
X10.4935Y-2.9886
X10.4935Y-3.0886
X10.4935Y-3.1886
X10.4935Y-3.6886
X10.4935Y-3.7886
X10.4935Y-3.8886
X10.4935Y-3.9886
X10.4935Y-4.3886
X10.4935Y-4.4886
X10.4935Y-4.5886
X10.4935Y-4.6886
X10.4935Y-4.7886
X10.4935Y-5.1886
X10.4935Y-5.2886
X10.5935Y-1.8886
X10.5935Y-1.9886
X10.5935Y-2.0886
X10.5935Y-2.3886
X10.5935Y-2.6886
X10.5935Y-2.7886
X10.5935Y-2.8886
X10.5935Y-2.9886
X10.5935Y-3.0886
X10.5935Y-3.1886
X10.5935Y-3.4886
X10.5935Y-3.5886
X10.5935Y-3.6886
X10.5935Y-3.7886
X10.5935Y-3.8886
X10.5935Y-4.1886
X10.5935Y-4.2886
X10.5935Y-4.3886
X10.5935Y-4.4886
X10.5935Y-4.5886
X10.5935Y-4.6886
X10.5935Y-4.9886
X10.5935Y-5.0886
X10.5935Y-5.1886
X10.5935Y-5.2886
X10.6935Y-1.7886
X10.6935Y-1.9886
X10.6935Y-2.0886
X10.6935Y-2.1886
X10.6935Y-2.3886
X10.6935Y-2.7886
X10.6935Y-2.8886
X10.6935Y-2.9886
X10.6935Y-3.0886
X10.6935Y-3.1886
X10.6935Y-3.5886
X10.6935Y-3.6886
X10.6935Y-3.7886
X10.6935Y-3.8886
X10.6935Y-3.9886
X10.6935Y-4.1886
X10.6935Y-4.3886
X10.6935Y-4.4886
X10.6935Y-4.5886
X10.6935Y-4.6886
X10.6935Y-4.9886
X10.6935Y-5.1886
X10.6935Y-5.2886
X10.7935Y-1.6886
X10.7935Y-2.2886
X10.7935Y-2.3886
X10.7935Y-2.6886
X10.7935Y-2.7886
X10.7935Y-2.8886
X10.7935Y-2.9886
X10.7935Y-3.0886
X10.7935Y-3.1886
X10.7935Y-3.4886
X10.7935Y-3.5886
X10.7935Y-3.6886
X10.7935Y-3.7886
X10.7935Y-3.8886
X10.7935Y-3.9886
X10.7935Y-4.1886
X10.7935Y-4.2886
X10.7935Y-4.3886
X10.7935Y-4.4886
X10.7935Y-4.5886
X10.7935Y-4.6886
X10.7935Y-4.7886
X10.7935Y-4.9886
X10.7935Y-5.0886
X10.7935Y-5.2886
X10.8301Y-2.5912
X10.8557Y-3.3786
X10.8935Y-1.6886
X10.8935Y-1.7886
X10.8935Y-1.8886
X10.8935Y-1.9886
X10.8935Y-2.7886
X10.8935Y-2.8886
X10.8935Y-2.9886
X10.8935Y-3.0886
X10.8935Y-3.1886
X10.8935Y-4.2886
X10.8935Y-4.3886
X10.8935Y-4.4886
X10.8935Y-4.5886
X10.8935Y-4.6886
X10.8935Y-4.7886
X10.8935Y-4.9886
X10.8935Y-5.2886
X10.9029Y-3.3786
X10.9088Y-3.9396
X10.9187Y-2.5912
X10.9876Y-2.6109
X10.9876Y-3.9396
X10.9935Y-1.8886
X10.9935Y-1.9886
X10.9935Y-2.1886
X10.9935Y-2.2886
X10.9935Y-2.3886
X10.9935Y-2.4886
X10.9935Y-2.6886
X10.9935Y-2.7886
X10.9935Y-2.8886
X10.9935Y-2.9886
X10.9935Y-3.0886
X10.9935Y-3.1886
X10.9935Y-3.4886
X10.9935Y-3.5886
X10.9935Y-3.6886
X10.9935Y-3.7886
X10.9935Y-4.2886
X10.9935Y-4.3886
X10.9935Y-4.4886
X10.9935Y-4.5886
X10.9935Y-4.6886
X10.9935Y-4.7886
X10.9935Y-5.1886
X10.9935Y-5.2886
X11.0935Y-1.6886
X11.0935Y-1.9886
X11.0935Y-2.1886
X11.0935Y-2.2886
X11.0935Y-2.3886
X11.0935Y-2.4886
X11.0935Y-2.7886
X11.0935Y-2.8886
X11.0935Y-2.9886
X11.0935Y-3.0886
X11.0935Y-3.1886
X11.0935Y-3.2886
X11.0935Y-3.5886
X11.0935Y-3.6886
X11.0935Y-3.7886
X11.0935Y-3.8886
X11.0935Y-3.9886
X11.0935Y-4.3886
X11.0935Y-4.4886
X11.0935Y-4.5886
X11.0935Y-4.6886
X11.0935Y-4.7886
X11.0935Y-5.1886
X11.0935Y-5.2886
X11.1935Y-1.6886
X11.1935Y-2.1886
X11.1935Y-2.2886
X11.1935Y-2.3886
X11.1935Y-2.4886
X11.1935Y-2.8886
X11.1935Y-2.9886
X11.1935Y-3.0886
X11.1935Y-3.1886
X11.1935Y-3.5886
X11.1935Y-3.6886
X11.1935Y-3.7886
X11.1935Y-3.8886
X11.1935Y-3.9886
X11.1935Y-4.0886
X11.1935Y-4.3886
X11.1935Y-4.4886
X11.1935Y-4.5886
X11.1935Y-4.6886
X11.1935Y-4.7886
X11.1935Y-5.1886
X11.1935Y-5.2886
X11.2935Y-2.0886
X11.2935Y-2.3886
X11.2935Y-2.8886
X11.2935Y-2.9886
X11.2935Y-3.0886
X11.2935Y-3.6886
X11.2935Y-3.7886
X11.2935Y-4.3886
X11.2935Y-4.4886
X11.2935Y-4.5886
X11.2935Y-4.6886
X11.2935Y-4.7886
X11.2935Y-5.1886
X11.2935Y-5.2886
X11.3935Y-1.8886
X11.3935Y-1.9886
X11.3935Y-2.0886
X11.3935Y-2.2886
X11.3935Y-2.3886
X11.3935Y-2.9886
X11.3935Y-3.1886
X11.3935Y-4.5886
X11.3935Y-4.6886
X11.3935Y-4.9886
X11.3935Y-5.0886
X11.3935Y-5.1886
X11.3935Y-5.2886
X11.4935Y-1.7886
X11.4935Y-1.9886
X11.4935Y-2.0886
X11.4935Y-2.2886
X11.4935Y-2.3886
X11.4935Y-2.5886
X11.4935Y-2.7886
X11.4935Y-2.8886
X11.4935Y-3.0886
X11.4935Y-3.1886
X11.4935Y-3.3886
X11.4935Y-3.5886
X11.4935Y-3.6886
X11.4935Y-3.8886
X11.4935Y-3.9886
X11.4935Y-4.1886
X11.4935Y-4.3886
X11.4935Y-4.4886
X11.4935Y-4.9886
X11.4935Y-5.1886
X11.4935Y-5.3886
X11.5935Y-5.2886
X11.5935Y-5.3886
T4
X5.6421Y-3.7378
X5.6421Y-3.7878
X5.6921Y-3.7378
X5.6921Y-3.7878
X5.7421Y-3.7378
X5.7421Y-3.7878
X5.7921Y-3.7378
X5.7921Y-3.7878
X5.8421Y-3.7378
X5.8421Y-3.7878
X6.0756Y-3.737
X6.0756Y-3.787
X6.1256Y-3.737
X6.1256Y-3.787
X6.1756Y-3.737
X6.1756Y-3.787
T5
X6.0655Y-3.0605
X6.0655Y-3.1605
X6.0655Y-3.2605
X6.0655Y-3.3605
X6.0655Y-3.4605
X6.1655Y-3.0605
X6.1655Y-3.1605
X6.1655Y-3.2605
X6.1655Y-3.3605
T6
X5.3045Y-2.525
X5.3045Y-2.625
X5.3045Y-2.725
X5.3045Y-2.825
X5.4045Y-2.525
X5.4045Y-2.625
X5.4045Y-2.725
X5.4045Y-2.825
X5.4927Y-3.4573
X5.4927Y-3.5573
X5.5927Y-3.4573
X5.5927Y-3.5573
X5.6927Y-3.4573
X5.6927Y-3.5573
X5.7927Y-3.4573
X5.7927Y-3.5573
X5.8927Y-3.4573
X5.8927Y-3.5573
X6.4957Y-2.5321
X6.5957Y-2.5321
T7
X1.76Y-1.7053
X1.7632Y-5.179
X4.7592Y-5.39
X5.8399Y-6.3652
X6.9206Y-5.39
X9.9167Y-5.179
X9.9198Y-1.7053
T3
G00X5.6698Y-2.1
M15
G01X5.6698Y-2.1315
M16
G05
G00X5.6698Y-2.2587
M15
G01X5.6698Y-2.302
M16
G05
G00X6.01Y-2.1
M15
G01X6.01Y-2.1315
M16
G05
G00X6.01Y-2.2587
M15
G01X6.01Y-2.302
M16
G05
M30
